<?xml version="1.0" encoding="utf-8" standalone="no"?>
<!DOCTYPE svg PUBLIC "-//W3C//DTD SVG 1.1//EN"
  "http://www.w3.org/Graphics/SVG/1.1/DTD/svg11.dtd">
<svg xmlns:xlink="http://www.w3.org/1999/xlink" width="460.8pt" height="345.6pt" viewBox="0 0 460.8 345.6" xmlns="http://www.w3.org/2000/svg" version="1.1">
 <metadata>
  <rdf:RDF xmlns:dc="http://purl.org/dc/elements/1.1/" xmlns:cc="http://creativecommons.org/ns#" xmlns:rdf="http://www.w3.org/1999/02/22-rdf-syntax-ns#">
   <cc:Work>
    <dc:type rdf:resource="http://purl.org/dc/dcmitype/StillImage"/>
    <dc:date>2024-05-29T14:23:28.898566</dc:date>
    <dc:format>image/svg+xml</dc:format>
    <dc:creator>
     <cc:Agent>
      <dc:title>Matplotlib v3.6.2, https://matplotlib.org/</dc:title>
     </cc:Agent>
    </dc:creator>
   </cc:Work>
  </rdf:RDF>
 </metadata>
 <defs>
  <style type="text/css">*{stroke-linejoin: round; stroke-linecap: butt}</style>
 </defs>
 <g id="figure_1">
  <g id="patch_1">
   <path d="M 0 345.6 
L 460.8 345.6 
L 460.8 0 
L 0 0 
z
" style="fill: #ffffff"/>
  </g>
  <g id="axes_1">
   <g id="patch_2">
    <path d="M 57.6 307.584 
L 414.72 307.584 
L 414.72 41.472 
L 57.6 41.472 
z
" style="fill: #ffffff"/>
   </g>
   <g id="matplotlib.axis_1">
    <g id="xtick_1">
     <g id="line2d_1">
      <defs>
       <path id="m938f0eb61c" d="M 0 0 
L 0 3.5 
" style="stroke: #000000; stroke-width: 0.8"/>
      </defs>
      <g>
       <use xlink:href="#m938f0eb61c" x="73.832727" y="307.584" style="stroke: #000000; stroke-width: 0.8"/>
      </g>
     </g>
     <g id="text_1">
      <!-- 0 -->
      <g transform="translate(70.651477 322.182437) scale(0.1 -0.1)">
       <defs>
        <path id="DejaVuSans-30" d="M 2034 4250 
Q 1547 4250 1301 3770 
Q 1056 3291 1056 2328 
Q 1056 1369 1301 889 
Q 1547 409 2034 409 
Q 2525 409 2770 889 
Q 3016 1369 3016 2328 
Q 3016 3291 2770 3770 
Q 2525 4250 2034 4250 
z
M 2034 4750 
Q 2819 4750 3233 4129 
Q 3647 3509 3647 2328 
Q 3647 1150 3233 529 
Q 2819 -91 2034 -91 
Q 1250 -91 836 529 
Q 422 1150 422 2328 
Q 422 3509 836 4129 
Q 1250 4750 2034 4750 
z
" transform="scale(0.015625)"/>
       </defs>
       <use xlink:href="#DejaVuSans-30"/>
      </g>
     </g>
    </g>
    <g id="xtick_2">
     <g id="line2d_2">
      <g>
       <use xlink:href="#m938f0eb61c" x="115.455105" y="307.584" style="stroke: #000000; stroke-width: 0.8"/>
      </g>
     </g>
     <g id="text_2">
      <!-- 50 -->
      <g transform="translate(109.092605 322.182437) scale(0.1 -0.1)">
       <defs>
        <path id="DejaVuSans-35" d="M 691 4666 
L 3169 4666 
L 3169 4134 
L 1269 4134 
L 1269 2991 
Q 1406 3038 1543 3061 
Q 1681 3084 1819 3084 
Q 2600 3084 3056 2656 
Q 3513 2228 3513 1497 
Q 3513 744 3044 326 
Q 2575 -91 1722 -91 
Q 1428 -91 1123 -41 
Q 819 9 494 109 
L 494 744 
Q 775 591 1075 516 
Q 1375 441 1709 441 
Q 2250 441 2565 725 
Q 2881 1009 2881 1497 
Q 2881 1984 2565 2268 
Q 2250 2553 1709 2553 
Q 1456 2553 1204 2497 
Q 953 2441 691 2322 
L 691 4666 
z
" transform="scale(0.015625)"/>
       </defs>
       <use xlink:href="#DejaVuSans-35"/>
       <use xlink:href="#DejaVuSans-30" x="63.623047"/>
      </g>
     </g>
    </g>
    <g id="xtick_3">
     <g id="line2d_3">
      <g>
       <use xlink:href="#m938f0eb61c" x="157.077483" y="307.584" style="stroke: #000000; stroke-width: 0.8"/>
      </g>
     </g>
     <g id="text_3">
      <!-- 100 -->
      <g transform="translate(147.533733 322.182437) scale(0.1 -0.1)">
       <defs>
        <path id="DejaVuSans-31" d="M 794 531 
L 1825 531 
L 1825 4091 
L 703 3866 
L 703 4441 
L 1819 4666 
L 2450 4666 
L 2450 531 
L 3481 531 
L 3481 0 
L 794 0 
L 794 531 
z
" transform="scale(0.015625)"/>
       </defs>
       <use xlink:href="#DejaVuSans-31"/>
       <use xlink:href="#DejaVuSans-30" x="63.623047"/>
       <use xlink:href="#DejaVuSans-30" x="127.246094"/>
      </g>
     </g>
    </g>
    <g id="xtick_4">
     <g id="line2d_4">
      <g>
       <use xlink:href="#m938f0eb61c" x="198.69986" y="307.584" style="stroke: #000000; stroke-width: 0.8"/>
      </g>
     </g>
     <g id="text_4">
      <!-- 150 -->
      <g transform="translate(189.15611 322.182437) scale(0.1 -0.1)">
       <use xlink:href="#DejaVuSans-31"/>
       <use xlink:href="#DejaVuSans-35" x="63.623047"/>
       <use xlink:href="#DejaVuSans-30" x="127.246094"/>
      </g>
     </g>
    </g>
    <g id="xtick_5">
     <g id="line2d_5">
      <g>
       <use xlink:href="#m938f0eb61c" x="240.322238" y="307.584" style="stroke: #000000; stroke-width: 0.8"/>
      </g>
     </g>
     <g id="text_5">
      <!-- 200 -->
      <g transform="translate(230.778488 322.182437) scale(0.1 -0.1)">
       <defs>
        <path id="DejaVuSans-32" d="M 1228 531 
L 3431 531 
L 3431 0 
L 469 0 
L 469 531 
Q 828 903 1448 1529 
Q 2069 2156 2228 2338 
Q 2531 2678 2651 2914 
Q 2772 3150 2772 3378 
Q 2772 3750 2511 3984 
Q 2250 4219 1831 4219 
Q 1534 4219 1204 4116 
Q 875 4013 500 3803 
L 500 4441 
Q 881 4594 1212 4672 
Q 1544 4750 1819 4750 
Q 2544 4750 2975 4387 
Q 3406 4025 3406 3419 
Q 3406 3131 3298 2873 
Q 3191 2616 2906 2266 
Q 2828 2175 2409 1742 
Q 1991 1309 1228 531 
z
" transform="scale(0.015625)"/>
       </defs>
       <use xlink:href="#DejaVuSans-32"/>
       <use xlink:href="#DejaVuSans-30" x="63.623047"/>
       <use xlink:href="#DejaVuSans-30" x="127.246094"/>
      </g>
     </g>
    </g>
    <g id="xtick_6">
     <g id="line2d_6">
      <g>
       <use xlink:href="#m938f0eb61c" x="281.944615" y="307.584" style="stroke: #000000; stroke-width: 0.8"/>
      </g>
     </g>
     <g id="text_6">
      <!-- 250 -->
      <g transform="translate(272.400865 322.182437) scale(0.1 -0.1)">
       <use xlink:href="#DejaVuSans-32"/>
       <use xlink:href="#DejaVuSans-35" x="63.623047"/>
       <use xlink:href="#DejaVuSans-30" x="127.246094"/>
      </g>
     </g>
    </g>
    <g id="xtick_7">
     <g id="line2d_7">
      <g>
       <use xlink:href="#m938f0eb61c" x="323.566993" y="307.584" style="stroke: #000000; stroke-width: 0.8"/>
      </g>
     </g>
     <g id="text_7">
      <!-- 300 -->
      <g transform="translate(314.023243 322.182437) scale(0.1 -0.1)">
       <defs>
        <path id="DejaVuSans-33" d="M 2597 2516 
Q 3050 2419 3304 2112 
Q 3559 1806 3559 1356 
Q 3559 666 3084 287 
Q 2609 -91 1734 -91 
Q 1441 -91 1130 -33 
Q 819 25 488 141 
L 488 750 
Q 750 597 1062 519 
Q 1375 441 1716 441 
Q 2309 441 2620 675 
Q 2931 909 2931 1356 
Q 2931 1769 2642 2001 
Q 2353 2234 1838 2234 
L 1294 2234 
L 1294 2753 
L 1863 2753 
Q 2328 2753 2575 2939 
Q 2822 3125 2822 3475 
Q 2822 3834 2567 4026 
Q 2313 4219 1838 4219 
Q 1578 4219 1281 4162 
Q 984 4106 628 3988 
L 628 4550 
Q 988 4650 1302 4700 
Q 1616 4750 1894 4750 
Q 2613 4750 3031 4423 
Q 3450 4097 3450 3541 
Q 3450 3153 3228 2886 
Q 3006 2619 2597 2516 
z
" transform="scale(0.015625)"/>
       </defs>
       <use xlink:href="#DejaVuSans-33"/>
       <use xlink:href="#DejaVuSans-30" x="63.623047"/>
       <use xlink:href="#DejaVuSans-30" x="127.246094"/>
      </g>
     </g>
    </g>
    <g id="xtick_8">
     <g id="line2d_8">
      <g>
       <use xlink:href="#m938f0eb61c" x="365.189371" y="307.584" style="stroke: #000000; stroke-width: 0.8"/>
      </g>
     </g>
     <g id="text_8">
      <!-- 350 -->
      <g transform="translate(355.645621 322.182437) scale(0.1 -0.1)">
       <use xlink:href="#DejaVuSans-33"/>
       <use xlink:href="#DejaVuSans-35" x="63.623047"/>
       <use xlink:href="#DejaVuSans-30" x="127.246094"/>
      </g>
     </g>
    </g>
    <g id="xtick_9">
     <g id="line2d_9">
      <g>
       <use xlink:href="#m938f0eb61c" x="406.811748" y="307.584" style="stroke: #000000; stroke-width: 0.8"/>
      </g>
     </g>
     <g id="text_9">
      <!-- 400 -->
      <g transform="translate(397.267998 322.182437) scale(0.1 -0.1)">
       <defs>
        <path id="DejaVuSans-34" d="M 2419 4116 
L 825 1625 
L 2419 1625 
L 2419 4116 
z
M 2253 4666 
L 3047 4666 
L 3047 1625 
L 3713 1625 
L 3713 1100 
L 3047 1100 
L 3047 0 
L 2419 0 
L 2419 1100 
L 313 1100 
L 313 1709 
L 2253 4666 
z
" transform="scale(0.015625)"/>
       </defs>
       <use xlink:href="#DejaVuSans-34"/>
       <use xlink:href="#DejaVuSans-30" x="63.623047"/>
       <use xlink:href="#DejaVuSans-30" x="127.246094"/>
      </g>
     </g>
    </g>
    <g id="text_10">
     <!-- Iteration -->
     <g transform="translate(214.951406 335.860562) scale(0.1 -0.1)">
      <defs>
       <path id="DejaVuSans-49" d="M 628 4666 
L 1259 4666 
L 1259 0 
L 628 0 
L 628 4666 
z
" transform="scale(0.015625)"/>
       <path id="DejaVuSans-74" d="M 1172 4494 
L 1172 3500 
L 2356 3500 
L 2356 3053 
L 1172 3053 
L 1172 1153 
Q 1172 725 1289 603 
Q 1406 481 1766 481 
L 2356 481 
L 2356 0 
L 1766 0 
Q 1100 0 847 248 
Q 594 497 594 1153 
L 594 3053 
L 172 3053 
L 172 3500 
L 594 3500 
L 594 4494 
L 1172 4494 
z
" transform="scale(0.015625)"/>
       <path id="DejaVuSans-65" d="M 3597 1894 
L 3597 1613 
L 953 1613 
Q 991 1019 1311 708 
Q 1631 397 2203 397 
Q 2534 397 2845 478 
Q 3156 559 3463 722 
L 3463 178 
Q 3153 47 2828 -22 
Q 2503 -91 2169 -91 
Q 1331 -91 842 396 
Q 353 884 353 1716 
Q 353 2575 817 3079 
Q 1281 3584 2069 3584 
Q 2775 3584 3186 3129 
Q 3597 2675 3597 1894 
z
M 3022 2063 
Q 3016 2534 2758 2815 
Q 2500 3097 2075 3097 
Q 1594 3097 1305 2825 
Q 1016 2553 972 2059 
L 3022 2063 
z
" transform="scale(0.015625)"/>
       <path id="DejaVuSans-72" d="M 2631 2963 
Q 2534 3019 2420 3045 
Q 2306 3072 2169 3072 
Q 1681 3072 1420 2755 
Q 1159 2438 1159 1844 
L 1159 0 
L 581 0 
L 581 3500 
L 1159 3500 
L 1159 2956 
Q 1341 3275 1631 3429 
Q 1922 3584 2338 3584 
Q 2397 3584 2469 3576 
Q 2541 3569 2628 3553 
L 2631 2963 
z
" transform="scale(0.015625)"/>
       <path id="DejaVuSans-61" d="M 2194 1759 
Q 1497 1759 1228 1600 
Q 959 1441 959 1056 
Q 959 750 1161 570 
Q 1363 391 1709 391 
Q 2188 391 2477 730 
Q 2766 1069 2766 1631 
L 2766 1759 
L 2194 1759 
z
M 3341 1997 
L 3341 0 
L 2766 0 
L 2766 531 
Q 2569 213 2275 61 
Q 1981 -91 1556 -91 
Q 1019 -91 701 211 
Q 384 513 384 1019 
Q 384 1609 779 1909 
Q 1175 2209 1959 2209 
L 2766 2209 
L 2766 2266 
Q 2766 2663 2505 2880 
Q 2244 3097 1772 3097 
Q 1472 3097 1187 3025 
Q 903 2953 641 2809 
L 641 3341 
Q 956 3463 1253 3523 
Q 1550 3584 1831 3584 
Q 2591 3584 2966 3190 
Q 3341 2797 3341 1997 
z
" transform="scale(0.015625)"/>
       <path id="DejaVuSans-69" d="M 603 3500 
L 1178 3500 
L 1178 0 
L 603 0 
L 603 3500 
z
M 603 4863 
L 1178 4863 
L 1178 4134 
L 603 4134 
L 603 4863 
z
" transform="scale(0.015625)"/>
       <path id="DejaVuSans-6f" d="M 1959 3097 
Q 1497 3097 1228 2736 
Q 959 2375 959 1747 
Q 959 1119 1226 758 
Q 1494 397 1959 397 
Q 2419 397 2687 759 
Q 2956 1122 2956 1747 
Q 2956 2369 2687 2733 
Q 2419 3097 1959 3097 
z
M 1959 3584 
Q 2709 3584 3137 3096 
Q 3566 2609 3566 1747 
Q 3566 888 3137 398 
Q 2709 -91 1959 -91 
Q 1206 -91 779 398 
Q 353 888 353 1747 
Q 353 2609 779 3096 
Q 1206 3584 1959 3584 
z
" transform="scale(0.015625)"/>
       <path id="DejaVuSans-6e" d="M 3513 2113 
L 3513 0 
L 2938 0 
L 2938 2094 
Q 2938 2591 2744 2837 
Q 2550 3084 2163 3084 
Q 1697 3084 1428 2787 
Q 1159 2491 1159 1978 
L 1159 0 
L 581 0 
L 581 3500 
L 1159 3500 
L 1159 2956 
Q 1366 3272 1645 3428 
Q 1925 3584 2291 3584 
Q 2894 3584 3203 3211 
Q 3513 2838 3513 2113 
z
" transform="scale(0.015625)"/>
      </defs>
      <use xlink:href="#DejaVuSans-49"/>
      <use xlink:href="#DejaVuSans-74" x="29.492188"/>
      <use xlink:href="#DejaVuSans-65" x="68.701172"/>
      <use xlink:href="#DejaVuSans-72" x="130.224609"/>
      <use xlink:href="#DejaVuSans-61" x="171.337891"/>
      <use xlink:href="#DejaVuSans-74" x="232.617188"/>
      <use xlink:href="#DejaVuSans-69" x="271.826172"/>
      <use xlink:href="#DejaVuSans-6f" x="299.609375"/>
      <use xlink:href="#DejaVuSans-6e" x="360.791016"/>
     </g>
    </g>
   </g>
   <g id="matplotlib.axis_2">
    <g id="ytick_1">
     <g id="line2d_10">
      <defs>
       <path id="m913e86115b" d="M 0 0 
L -3.5 0 
" style="stroke: #000000; stroke-width: 0.8"/>
      </defs>
      <g>
       <use xlink:href="#m913e86115b" x="57.6" y="289.981348" style="stroke: #000000; stroke-width: 0.8"/>
      </g>
     </g>
     <g id="text_11">
      <!-- 1.2 -->
      <g transform="translate(34.696875 293.780566) scale(0.1 -0.1)">
       <defs>
        <path id="DejaVuSans-2e" d="M 684 794 
L 1344 794 
L 1344 0 
L 684 0 
L 684 794 
z
" transform="scale(0.015625)"/>
       </defs>
       <use xlink:href="#DejaVuSans-31"/>
       <use xlink:href="#DejaVuSans-2e" x="63.623047"/>
       <use xlink:href="#DejaVuSans-32" x="95.410156"/>
      </g>
     </g>
    </g>
    <g id="ytick_2">
     <g id="line2d_11">
      <g>
       <use xlink:href="#m913e86115b" x="57.6" y="247.168806" style="stroke: #000000; stroke-width: 0.8"/>
      </g>
     </g>
     <g id="text_12">
      <!-- 1.4 -->
      <g transform="translate(34.696875 250.968025) scale(0.1 -0.1)">
       <use xlink:href="#DejaVuSans-31"/>
       <use xlink:href="#DejaVuSans-2e" x="63.623047"/>
       <use xlink:href="#DejaVuSans-34" x="95.410156"/>
      </g>
     </g>
    </g>
    <g id="ytick_3">
     <g id="line2d_12">
      <g>
       <use xlink:href="#m913e86115b" x="57.6" y="204.356265" style="stroke: #000000; stroke-width: 0.8"/>
      </g>
     </g>
     <g id="text_13">
      <!-- 1.6 -->
      <g transform="translate(34.696875 208.155483) scale(0.1 -0.1)">
       <defs>
        <path id="DejaVuSans-36" d="M 2113 2584 
Q 1688 2584 1439 2293 
Q 1191 2003 1191 1497 
Q 1191 994 1439 701 
Q 1688 409 2113 409 
Q 2538 409 2786 701 
Q 3034 994 3034 1497 
Q 3034 2003 2786 2293 
Q 2538 2584 2113 2584 
z
M 3366 4563 
L 3366 3988 
Q 3128 4100 2886 4159 
Q 2644 4219 2406 4219 
Q 1781 4219 1451 3797 
Q 1122 3375 1075 2522 
Q 1259 2794 1537 2939 
Q 1816 3084 2150 3084 
Q 2853 3084 3261 2657 
Q 3669 2231 3669 1497 
Q 3669 778 3244 343 
Q 2819 -91 2113 -91 
Q 1303 -91 875 529 
Q 447 1150 447 2328 
Q 447 3434 972 4092 
Q 1497 4750 2381 4750 
Q 2619 4750 2861 4703 
Q 3103 4656 3366 4563 
z
" transform="scale(0.015625)"/>
       </defs>
       <use xlink:href="#DejaVuSans-31"/>
       <use xlink:href="#DejaVuSans-2e" x="63.623047"/>
       <use xlink:href="#DejaVuSans-36" x="95.410156"/>
      </g>
     </g>
    </g>
    <g id="ytick_4">
     <g id="line2d_13">
      <g>
       <use xlink:href="#m913e86115b" x="57.6" y="161.543723" style="stroke: #000000; stroke-width: 0.8"/>
      </g>
     </g>
     <g id="text_14">
      <!-- 1.8 -->
      <g transform="translate(34.696875 165.342942) scale(0.1 -0.1)">
       <defs>
        <path id="DejaVuSans-38" d="M 2034 2216 
Q 1584 2216 1326 1975 
Q 1069 1734 1069 1313 
Q 1069 891 1326 650 
Q 1584 409 2034 409 
Q 2484 409 2743 651 
Q 3003 894 3003 1313 
Q 3003 1734 2745 1975 
Q 2488 2216 2034 2216 
z
M 1403 2484 
Q 997 2584 770 2862 
Q 544 3141 544 3541 
Q 544 4100 942 4425 
Q 1341 4750 2034 4750 
Q 2731 4750 3128 4425 
Q 3525 4100 3525 3541 
Q 3525 3141 3298 2862 
Q 3072 2584 2669 2484 
Q 3125 2378 3379 2068 
Q 3634 1759 3634 1313 
Q 3634 634 3220 271 
Q 2806 -91 2034 -91 
Q 1263 -91 848 271 
Q 434 634 434 1313 
Q 434 1759 690 2068 
Q 947 2378 1403 2484 
z
M 1172 3481 
Q 1172 3119 1398 2916 
Q 1625 2713 2034 2713 
Q 2441 2713 2670 2916 
Q 2900 3119 2900 3481 
Q 2900 3844 2670 4047 
Q 2441 4250 2034 4250 
Q 1625 4250 1398 4047 
Q 1172 3844 1172 3481 
z
" transform="scale(0.015625)"/>
       </defs>
       <use xlink:href="#DejaVuSans-31"/>
       <use xlink:href="#DejaVuSans-2e" x="63.623047"/>
       <use xlink:href="#DejaVuSans-38" x="95.410156"/>
      </g>
     </g>
    </g>
    <g id="ytick_5">
     <g id="line2d_14">
      <g>
       <use xlink:href="#m913e86115b" x="57.6" y="118.731182" style="stroke: #000000; stroke-width: 0.8"/>
      </g>
     </g>
     <g id="text_15">
      <!-- 2.0 -->
      <g transform="translate(34.696875 122.530401) scale(0.1 -0.1)">
       <use xlink:href="#DejaVuSans-32"/>
       <use xlink:href="#DejaVuSans-2e" x="63.623047"/>
       <use xlink:href="#DejaVuSans-30" x="95.410156"/>
      </g>
     </g>
    </g>
    <g id="ytick_6">
     <g id="line2d_15">
      <g>
       <use xlink:href="#m913e86115b" x="57.6" y="75.91864" style="stroke: #000000; stroke-width: 0.8"/>
      </g>
     </g>
     <g id="text_16">
      <!-- 2.2 -->
      <g transform="translate(34.696875 79.717859) scale(0.1 -0.1)">
       <use xlink:href="#DejaVuSans-32"/>
       <use xlink:href="#DejaVuSans-2e" x="63.623047"/>
       <use xlink:href="#DejaVuSans-32" x="95.410156"/>
      </g>
     </g>
    </g>
    <g id="text_17">
     <!-- Cross Entropy Loss -->
     <g transform="translate(28.617187 221.800656) rotate(-90) scale(0.1 -0.1)">
      <defs>
       <path id="DejaVuSans-43" d="M 4122 4306 
L 4122 3641 
Q 3803 3938 3442 4084 
Q 3081 4231 2675 4231 
Q 1875 4231 1450 3742 
Q 1025 3253 1025 2328 
Q 1025 1406 1450 917 
Q 1875 428 2675 428 
Q 3081 428 3442 575 
Q 3803 722 4122 1019 
L 4122 359 
Q 3791 134 3420 21 
Q 3050 -91 2638 -91 
Q 1578 -91 968 557 
Q 359 1206 359 2328 
Q 359 3453 968 4101 
Q 1578 4750 2638 4750 
Q 3056 4750 3426 4639 
Q 3797 4528 4122 4306 
z
" transform="scale(0.015625)"/>
       <path id="DejaVuSans-73" d="M 2834 3397 
L 2834 2853 
Q 2591 2978 2328 3040 
Q 2066 3103 1784 3103 
Q 1356 3103 1142 2972 
Q 928 2841 928 2578 
Q 928 2378 1081 2264 
Q 1234 2150 1697 2047 
L 1894 2003 
Q 2506 1872 2764 1633 
Q 3022 1394 3022 966 
Q 3022 478 2636 193 
Q 2250 -91 1575 -91 
Q 1294 -91 989 -36 
Q 684 19 347 128 
L 347 722 
Q 666 556 975 473 
Q 1284 391 1588 391 
Q 1994 391 2212 530 
Q 2431 669 2431 922 
Q 2431 1156 2273 1281 
Q 2116 1406 1581 1522 
L 1381 1569 
Q 847 1681 609 1914 
Q 372 2147 372 2553 
Q 372 3047 722 3315 
Q 1072 3584 1716 3584 
Q 2034 3584 2315 3537 
Q 2597 3491 2834 3397 
z
" transform="scale(0.015625)"/>
       <path id="DejaVuSans-20" transform="scale(0.015625)"/>
       <path id="DejaVuSans-45" d="M 628 4666 
L 3578 4666 
L 3578 4134 
L 1259 4134 
L 1259 2753 
L 3481 2753 
L 3481 2222 
L 1259 2222 
L 1259 531 
L 3634 531 
L 3634 0 
L 628 0 
L 628 4666 
z
" transform="scale(0.015625)"/>
       <path id="DejaVuSans-70" d="M 1159 525 
L 1159 -1331 
L 581 -1331 
L 581 3500 
L 1159 3500 
L 1159 2969 
Q 1341 3281 1617 3432 
Q 1894 3584 2278 3584 
Q 2916 3584 3314 3078 
Q 3713 2572 3713 1747 
Q 3713 922 3314 415 
Q 2916 -91 2278 -91 
Q 1894 -91 1617 61 
Q 1341 213 1159 525 
z
M 3116 1747 
Q 3116 2381 2855 2742 
Q 2594 3103 2138 3103 
Q 1681 3103 1420 2742 
Q 1159 2381 1159 1747 
Q 1159 1113 1420 752 
Q 1681 391 2138 391 
Q 2594 391 2855 752 
Q 3116 1113 3116 1747 
z
" transform="scale(0.015625)"/>
       <path id="DejaVuSans-79" d="M 2059 -325 
Q 1816 -950 1584 -1140 
Q 1353 -1331 966 -1331 
L 506 -1331 
L 506 -850 
L 844 -850 
Q 1081 -850 1212 -737 
Q 1344 -625 1503 -206 
L 1606 56 
L 191 3500 
L 800 3500 
L 1894 763 
L 2988 3500 
L 3597 3500 
L 2059 -325 
z
" transform="scale(0.015625)"/>
       <path id="DejaVuSans-4c" d="M 628 4666 
L 1259 4666 
L 1259 531 
L 3531 531 
L 3531 0 
L 628 0 
L 628 4666 
z
" transform="scale(0.015625)"/>
      </defs>
      <use xlink:href="#DejaVuSans-43"/>
      <use xlink:href="#DejaVuSans-72" x="69.824219"/>
      <use xlink:href="#DejaVuSans-6f" x="108.6875"/>
      <use xlink:href="#DejaVuSans-73" x="169.869141"/>
      <use xlink:href="#DejaVuSans-73" x="221.96875"/>
      <use xlink:href="#DejaVuSans-20" x="274.068359"/>
      <use xlink:href="#DejaVuSans-45" x="305.855469"/>
      <use xlink:href="#DejaVuSans-6e" x="369.039062"/>
      <use xlink:href="#DejaVuSans-74" x="432.417969"/>
      <use xlink:href="#DejaVuSans-72" x="471.626953"/>
      <use xlink:href="#DejaVuSans-6f" x="510.490234"/>
      <use xlink:href="#DejaVuSans-70" x="571.671875"/>
      <use xlink:href="#DejaVuSans-79" x="635.148438"/>
      <use xlink:href="#DejaVuSans-20" x="694.328125"/>
      <use xlink:href="#DejaVuSans-4c" x="726.115234"/>
      <use xlink:href="#DejaVuSans-6f" x="780.078125"/>
      <use xlink:href="#DejaVuSans-73" x="841.259766"/>
      <use xlink:href="#DejaVuSans-73" x="893.359375"/>
     </g>
    </g>
   </g>
   <g id="line2d_16">
    <path d="M 73.832727 53.568 
L 74.665175 53.981702 
L 75.497622 54.141855 
L 76.33007 53.690692 
L 77.162517 53.737799 
L 77.994965 54.618025 
L 78.827413 54.254237 
L 79.65986 54.098933 
L 81.324755 54.885661 
L 82.157203 55.880924 
L 82.98965 55.468498 
L 83.822098 56.918395 
L 84.654545 55.622884 
L 85.486993 56.811677 
L 86.319441 60.742358 
L 87.151888 66.114718 
L 87.984336 61.987955 
L 88.816783 60.51994 
L 89.649231 81.354378 
L 90.481678 72.378277 
L 91.314126 87.49499 
L 92.146573 92.066536 
L 92.979021 95.466947 
L 93.811469 81.108688 
L 94.643916 102.871377 
L 95.476364 96.683556 
L 96.308811 99.727068 
L 97.141259 78.30714 
L 97.973706 85.990995 
L 98.806154 105.900905 
L 99.638601 92.074498 
L 100.471049 112.847487 
L 101.303497 100.82027 
L 102.968392 118.646716 
L 103.800839 117.51049 
L 104.633287 124.887641 
L 105.465734 98.387716 
L 106.298182 106.636648 
L 107.130629 118.089244 
L 107.963077 116.880291 
L 108.795524 105.628932 
L 109.627972 117.697182 
L 110.46042 115.476276 
L 111.292867 118.266698 
L 112.125315 107.324161 
L 112.957762 112.542186 
L 113.79021 92.819172 
L 114.622657 120.436363 
L 115.455105 127.522428 
L 116.287552 139.051579 
L 117.12 95.736777 
L 117.952448 114.902677 
L 118.784895 116.920763 
L 119.617343 134.716409 
L 120.44979 130.868025 
L 121.282238 102.547499 
L 122.114685 134.194969 
L 122.947133 135.277249 
L 123.77958 132.751452 
L 124.612028 144.197056 
L 125.444476 145.054112 
L 126.276923 116.502417 
L 127.109371 155.186292 
L 127.941818 160.39679 
L 129.606713 118.607776 
L 130.439161 137.589127 
L 131.271608 128.177762 
L 132.104056 151.280849 
L 132.936503 147.299439 
L 133.768951 151.206489 
L 134.601399 125.468999 
L 135.433846 147.127471 
L 136.266294 176.938595 
L 137.098741 161.414994 
L 137.931189 140.013694 
L 138.763636 150.41504 
L 139.596084 157.086178 
L 140.428531 148.305701 
L 141.260979 169.030843 
L 142.093427 152.647684 
L 142.925874 170.246533 
L 143.758322 160.853005 
L 144.590769 121.437623 
L 145.423217 153.474323 
L 146.255664 179.610638 
L 147.920559 158.147635 
L 148.753007 174.463503 
L 149.585455 129.707174 
L 150.417902 187.75298 
L 151.25035 124.501678 
L 152.082797 146.763147 
L 152.915245 157.365986 
L 154.58014 202.522288 
L 155.412587 166.467049 
L 156.245035 174.018311 
L 157.077483 198.663926 
L 157.90993 195.604695 
L 158.742378 180.316448 
L 159.574825 206.708355 
L 160.407273 148.031762 
L 161.23972 179.193823 
L 162.072168 174.812822 
L 162.904615 164.907321 
L 163.737063 150.078939 
L 164.56951 197.700739 
L 165.401958 186.701781 
L 166.234406 166.563406 
L 167.066853 189.963781 
L 168.731748 213.95447 
L 169.564196 194.494829 
L 170.396643 181.111572 
L 171.229091 194.960282 
L 172.061538 170.837128 
L 172.893986 187.658512 
L 173.726434 211.900428 
L 174.558881 159.187403 
L 175.391329 210.686192 
L 176.223776 193.343547 
L 177.056224 201.009565 
L 177.888671 180.145552 
L 178.721119 173.817202 
L 179.553566 166.065646 
L 180.386014 193.249614 
L 181.218462 188.35909 
L 182.050909 200.888736 
L 182.883357 187.689874 
L 183.715804 201.982449 
L 184.548252 158.413587 
L 185.380699 189.531705 
L 186.213147 204.880992 
L 187.045594 213.565367 
L 187.878042 169.518778 
L 188.71049 185.421274 
L 189.542937 184.54707 
L 190.375385 177.192885 
L 191.207832 186.836109 
L 192.04028 184.480646 
L 192.872727 196.067545 
L 194.537622 177.684367 
L 195.37007 178.653755 
L 196.202517 202.549516 
L 197.034965 199.081354 
L 197.867413 208.55825 
L 198.69986 214.838014 
L 199.532308 223.794848 
L 200.364755 227.103035 
L 202.02965 193.665792 
L 202.862098 205.118184 
L 203.694545 234.032214 
L 204.526993 181.260675 
L 205.359441 192.282931 
L 206.191888 216.141334 
L 207.024336 216.837804 
L 207.856783 182.937301 
L 208.689231 206.288681 
L 209.521678 236.429374 
L 210.354126 202.239775 
L 211.186573 218.59614 
L 212.019021 204.073007 
L 212.851469 214.236089 
L 213.683916 181.586211 
L 214.516364 235.782868 
L 215.348811 205.611324 
L 216.181259 223.355423 
L 217.013706 235.737727 
L 217.846154 218.058317 
L 218.678601 219.829412 
L 219.511049 261.351785 
L 220.343497 254.042002 
L 221.175944 218.03928 
L 222.008392 209.656735 
L 222.840839 218.365225 
L 223.673287 241.114578 
L 224.505734 246.6697 
L 225.338182 230.131313 
L 226.170629 185.895633 
L 227.003077 214.695622 
L 227.835524 196.263806 
L 228.667972 232.025381 
L 229.50042 233.777643 
L 230.332867 257.989346 
L 231.165315 200.377375 
L 231.997762 219.243819 
L 232.83021 210.297702 
L 233.662657 218.483349 
L 234.495105 217.682228 
L 235.327552 210.909452 
L 236.16 236.825723 
L 236.992448 214.401856 
L 237.824895 231.343788 
L 238.657343 244.658274 
L 239.48979 213.044437 
L 240.322238 240.632972 
L 241.154685 191.396427 
L 241.987133 253.297073 
L 242.81958 229.596297 
L 243.652028 225.004362 
L 244.484476 232.110995 
L 245.316923 233.239489 
L 246.149371 212.570691 
L 246.981818 228.702392 
L 247.814266 229.051942 
L 248.646713 200.73435 
L 249.479161 227.40114 
L 250.311608 260.014679 
L 251.144056 232.477896 
L 251.976503 235.375852 
L 252.808951 194.598076 
L 253.641399 259.040647 
L 254.473846 219.494791 
L 255.306294 219.709068 
L 256.138741 233.929069 
L 256.971189 219.833877 
L 257.803636 226.113743 
L 258.636084 224.187395 
L 259.468531 206.290595 
L 260.300979 227.252215 
L 261.133427 243.403617 
L 261.965874 236.319033 
L 262.798322 208.97458 
L 263.630769 234.63863 
L 264.463217 238.79433 
L 265.295664 217.405917 
L 266.128112 216.463298 
L 266.960559 236.227065 
L 267.793007 240.477616 
L 268.625455 231.432158 
L 269.457902 251.091326 
L 270.29035 231.028765 
L 271.122797 233.246863 
L 271.955245 210.47878 
L 272.787692 225.981916 
L 273.62014 248.710548 
L 274.452587 240.730911 
L 275.285035 225.28907 
L 276.117483 253.263185 
L 276.94993 261.285617 
L 277.782378 236.658119 
L 278.614825 189.384848 
L 279.447273 221.966158 
L 280.27972 230.256889 
L 281.112168 201.43276 
L 281.944615 233.257249 
L 282.777063 282.123039 
L 283.60951 261.382407 
L 284.441958 233.267227 
L 285.274406 239.06661 
L 286.106853 217.692206 
L 286.939301 258.417874 
L 287.771748 218.909376 
L 289.436643 233.894185 
L 290.269091 234.0131 
L 291.101538 238.838706 
L 291.933986 223.504348 
L 292.766434 264.516484 
L 293.598881 252.65289 
L 294.431329 259.87979 
L 295.263776 247.69413 
L 296.096224 229.19418 
L 296.928671 250.665732 
L 297.761119 241.707214 
L 298.593566 266.779622 
L 299.426014 271.690714 
L 300.258462 275.019903 
L 301.090909 255.095192 
L 301.923357 267.672634 
L 302.755804 243.307668 
L 303.588252 226.820242 
L 304.420699 224.922117 
L 305.253147 284.242892 
L 306.085594 236.889978 
L 306.918042 260.993764 
L 307.75049 233.172529 
L 308.582937 237.761427 
L 309.415385 250.412387 
L 310.247832 214.694652 
L 311.08028 257.75861 
L 311.912727 261.340889 
L 312.745175 200.736315 
L 313.577622 266.187445 
L 314.41007 256.701796 
L 315.242517 257.694049 
L 316.074965 219.446944 
L 316.907413 253.034031 
L 317.73986 246.836512 
L 318.572308 232.863605 
L 319.404755 231.768361 
L 320.237203 244.779026 
L 321.06965 239.470972 
L 321.902098 250.493152 
L 322.734545 240.342395 
L 323.566993 255.311664 
L 324.399441 213.584353 
L 325.231888 240.864014 
L 326.064336 284.536557 
L 326.896783 246.960276 
L 327.729231 268.946556 
L 328.561678 228.051141 
L 329.394126 253.650603 
L 330.226573 260.623111 
L 331.059021 244.632117 
L 331.891469 269.497062 
L 332.723916 242.294057 
L 333.556364 295.488 
L 334.388811 261.792052 
L 335.221259 239.043337 
L 336.053706 245.593773 
L 336.886154 260.748534 
L 337.718601 265.395894 
L 338.551049 279.139469 
L 339.383497 238.02008 
L 340.215944 241.599297 
L 341.048392 238.305272 
L 341.880839 271.472125 
L 342.713287 246.04218 
L 343.545734 260.743175 
L 344.378182 245.272396 
L 346.043077 235.653006 
L 346.875524 252.483474 
L 347.707972 264.006833 
L 348.54042 259.147033 
L 349.372867 232.00859 
L 350.205315 264.574895 
L 351.037762 222.989083 
L 351.87021 254.357102 
L 352.702657 263.525048 
L 353.535105 262.770218 
L 354.367552 249.847514 
L 355.2 244.674529 
L 356.032448 272.832631 
L 356.864895 262.555814 
L 357.697343 234.638145 
L 358.52979 284.466075 
L 359.362238 264.057206 
L 360.194685 232.620109 
L 361.027133 257.996568 
L 361.85958 265.066147 
L 362.692028 262.32842 
L 363.524476 269.732442 
L 364.356923 243.381544 
L 365.189371 260.520324 
L 366.021818 266.673007 
L 366.854266 278.912995 
L 367.686713 257.866476 
L 368.519161 226.369028 
L 369.351608 229.049671 
L 370.184056 280.190771 
L 371.016503 240.361381 
L 371.848951 241.162833 
L 373.513846 282.286254 
L 374.346294 232.221616 
L 375.178741 273.640003 
L 376.011189 227.837553 
L 376.843636 259.929551 
L 377.676084 231.409217 
L 378.508531 236.391454 
L 379.340979 229.435992 
L 380.173427 291.610627 
L 381.005874 233.330614 
L 381.838322 286.245413 
L 382.670769 287.88047 
L 383.503217 287.458576 
L 384.335664 276.634342 
L 385.168112 272.77006 
L 386.000559 253.087696 
L 386.833007 249.328524 
L 387.665455 284.655778 
L 388.497902 261.491192 
L 389.33035 276.265781 
L 390.162797 287.254328 
L 390.995245 219.060572 
L 391.827692 290.592627 
L 392.66014 246.968161 
L 393.492587 253.689161 
L 394.325035 258.52699 
L 395.157483 237.601504 
L 395.98993 259.49204 
L 396.822378 259.833194 
L 397.654825 251.492779 
L 398.487273 250.472023 
L 398.487273 250.472023 
" clip-path="url(#p698b30622a)" style="fill: none; stroke: #1f77b4; stroke-width: 1.5; stroke-linecap: square"/>
   </g>
   <g id="line2d_17">
    <path d="M 73.832727 159.377867 
L 74.665175 160.313192 
L 75.497622 161.000265 
L 77.162517 162.875569 
L 89.649231 175.642325 
L 92.146573 177.83557 
L 97.973706 182.509744 
L 98.806154 183.273761 
L 101.303497 185.070128 
L 103.800839 187.038205 
L 108.795524 190.577133 
L 110.46042 191.853264 
L 112.125315 193.174268 
L 112.957762 193.584571 
L 113.79021 194.131691 
L 114.622657 194.81888 
L 115.455105 195.223862 
L 116.287552 195.752536 
L 119.617343 198.498673 
L 120.44979 198.913552 
L 122.114685 200.133111 
L 126.276923 202.459473 
L 127.109371 203.199543 
L 129.606713 204.72547 
L 133.768951 207.610883 
L 136.266294 209.480807 
L 138.763636 210.56422 
L 139.596084 211.23336 
L 140.428531 211.632379 
L 141.260979 212.195819 
L 142.925874 212.942096 
L 143.758322 213.342925 
L 144.590769 213.612134 
L 146.255664 214.833071 
L 147.088112 214.9387 
L 150.417902 216.779804 
L 151.25035 217.10621 
L 152.082797 217.717884 
L 153.747692 218.520398 
L 154.58014 218.849598 
L 155.412587 219.034341 
L 157.077483 219.786092 
L 157.90993 220.069331 
L 158.742378 220.159229 
L 160.407273 220.851108 
L 162.072168 221.794514 
L 162.904615 222.060706 
L 165.401958 223.2918 
L 168.731748 224.911375 
L 169.564196 225.03682 
L 170.396643 225.292314 
L 173.726434 226.835997 
L 174.558881 226.984491 
L 176.223776 227.68401 
L 178.721119 228.571805 
L 182.883357 230.21746 
L 184.548252 230.752016 
L 190.375385 233.077603 
L 191.207832 233.504417 
L 192.04028 233.743428 
L 192.872727 234.243355 
L 197.867413 236.299019 
L 200.364755 236.915938 
L 202.02965 237.410007 
L 204.526993 237.923973 
L 206.191888 238.463876 
L 207.856783 239.013814 
L 209.521678 239.596992 
L 210.354126 239.554033 
L 211.186573 239.842482 
L 213.683916 240.144139 
L 214.516364 240.694261 
L 215.348811 240.682 
L 217.013706 241.407795 
L 219.511049 242.223983 
L 221.175944 242.159095 
L 223.673287 243.040853 
L 224.505734 243.271551 
L 225.338182 243.133506 
L 228.667972 244.247459 
L 231.165315 244.41313 
L 232.83021 244.824848 
L 232.83021 244.824848 
" clip-path="url(#p698b30622a)" style="fill: none; stroke: #ff7f0e; stroke-width: 1.5; stroke-linecap: square"/>
   </g>
   <g id="patch_3">
    <path d="M 57.6 307.584 
L 57.6 41.472 
" style="fill: none; stroke: #000000; stroke-width: 0.8; stroke-linejoin: miter; stroke-linecap: square"/>
   </g>
   <g id="patch_4">
    <path d="M 414.72 307.584 
L 414.72 41.472 
" style="fill: none; stroke: #000000; stroke-width: 0.8; stroke-linejoin: miter; stroke-linecap: square"/>
   </g>
   <g id="patch_5">
    <path d="M 57.6 307.584 
L 414.72 307.584 
" style="fill: none; stroke: #000000; stroke-width: 0.8; stroke-linejoin: miter; stroke-linecap: square"/>
   </g>
   <g id="patch_6">
    <path d="M 57.6 41.472 
L 414.72 41.472 
" style="fill: none; stroke: #000000; stroke-width: 0.8; stroke-linejoin: miter; stroke-linecap: square"/>
   </g>
   <g id="legend_1">
    <g id="patch_7">
     <path d="M 265.51375 78.82825 
L 407.72 78.82825 
Q 409.72 78.82825 409.72 76.82825 
L 409.72 48.472 
Q 409.72 46.472 407.72 46.472 
L 265.51375 46.472 
Q 263.51375 46.472 263.51375 48.472 
L 263.51375 76.82825 
Q 263.51375 78.82825 265.51375 78.82825 
z
" style="fill: #ffffff; opacity: 0.8; stroke: #cccccc; stroke-linejoin: miter"/>
    </g>
    <g id="line2d_18">
     <path d="M 267.51375 54.570437 
L 277.51375 54.570437 
L 287.51375 54.570437 
" style="fill: none; stroke: #1f77b4; stroke-width: 1.5; stroke-linecap: square"/>
    </g>
    <g id="text_18">
     <!-- Minibatch loss -->
     <g transform="translate(295.51375 58.070437) scale(0.1 -0.1)">
      <defs>
       <path id="DejaVuSans-4d" d="M 628 4666 
L 1569 4666 
L 2759 1491 
L 3956 4666 
L 4897 4666 
L 4897 0 
L 4281 0 
L 4281 4097 
L 3078 897 
L 2444 897 
L 1241 4097 
L 1241 0 
L 628 0 
L 628 4666 
z
" transform="scale(0.015625)"/>
       <path id="DejaVuSans-62" d="M 3116 1747 
Q 3116 2381 2855 2742 
Q 2594 3103 2138 3103 
Q 1681 3103 1420 2742 
Q 1159 2381 1159 1747 
Q 1159 1113 1420 752 
Q 1681 391 2138 391 
Q 2594 391 2855 752 
Q 3116 1113 3116 1747 
z
M 1159 2969 
Q 1341 3281 1617 3432 
Q 1894 3584 2278 3584 
Q 2916 3584 3314 3078 
Q 3713 2572 3713 1747 
Q 3713 922 3314 415 
Q 2916 -91 2278 -91 
Q 1894 -91 1617 61 
Q 1341 213 1159 525 
L 1159 0 
L 581 0 
L 581 4863 
L 1159 4863 
L 1159 2969 
z
" transform="scale(0.015625)"/>
       <path id="DejaVuSans-63" d="M 3122 3366 
L 3122 2828 
Q 2878 2963 2633 3030 
Q 2388 3097 2138 3097 
Q 1578 3097 1268 2742 
Q 959 2388 959 1747 
Q 959 1106 1268 751 
Q 1578 397 2138 397 
Q 2388 397 2633 464 
Q 2878 531 3122 666 
L 3122 134 
Q 2881 22 2623 -34 
Q 2366 -91 2075 -91 
Q 1284 -91 818 406 
Q 353 903 353 1747 
Q 353 2603 823 3093 
Q 1294 3584 2113 3584 
Q 2378 3584 2631 3529 
Q 2884 3475 3122 3366 
z
" transform="scale(0.015625)"/>
       <path id="DejaVuSans-68" d="M 3513 2113 
L 3513 0 
L 2938 0 
L 2938 2094 
Q 2938 2591 2744 2837 
Q 2550 3084 2163 3084 
Q 1697 3084 1428 2787 
Q 1159 2491 1159 1978 
L 1159 0 
L 581 0 
L 581 4863 
L 1159 4863 
L 1159 2956 
Q 1366 3272 1645 3428 
Q 1925 3584 2291 3584 
Q 2894 3584 3203 3211 
Q 3513 2838 3513 2113 
z
" transform="scale(0.015625)"/>
       <path id="DejaVuSans-6c" d="M 603 4863 
L 1178 4863 
L 1178 0 
L 603 0 
L 603 4863 
z
" transform="scale(0.015625)"/>
      </defs>
      <use xlink:href="#DejaVuSans-4d"/>
      <use xlink:href="#DejaVuSans-69" x="86.279297"/>
      <use xlink:href="#DejaVuSans-6e" x="114.0625"/>
      <use xlink:href="#DejaVuSans-69" x="177.441406"/>
      <use xlink:href="#DejaVuSans-62" x="205.224609"/>
      <use xlink:href="#DejaVuSans-61" x="268.701172"/>
      <use xlink:href="#DejaVuSans-74" x="329.980469"/>
      <use xlink:href="#DejaVuSans-63" x="369.189453"/>
      <use xlink:href="#DejaVuSans-68" x="424.169922"/>
      <use xlink:href="#DejaVuSans-20" x="487.548828"/>
      <use xlink:href="#DejaVuSans-6c" x="519.335938"/>
      <use xlink:href="#DejaVuSans-6f" x="547.119141"/>
      <use xlink:href="#DejaVuSans-73" x="608.300781"/>
      <use xlink:href="#DejaVuSans-73" x="660.400391"/>
     </g>
    </g>
    <g id="line2d_19">
     <path d="M 267.51375 69.248562 
L 277.51375 69.248562 
L 287.51375 69.248562 
" style="fill: none; stroke: #ff7f0e; stroke-width: 1.5; stroke-linecap: square"/>
    </g>
    <g id="text_19">
     <!-- Running average Loss -->
     <g transform="translate(295.51375 72.748562) scale(0.1 -0.1)">
      <defs>
       <path id="DejaVuSans-52" d="M 2841 2188 
Q 3044 2119 3236 1894 
Q 3428 1669 3622 1275 
L 4263 0 
L 3584 0 
L 2988 1197 
Q 2756 1666 2539 1819 
Q 2322 1972 1947 1972 
L 1259 1972 
L 1259 0 
L 628 0 
L 628 4666 
L 2053 4666 
Q 2853 4666 3247 4331 
Q 3641 3997 3641 3322 
Q 3641 2881 3436 2590 
Q 3231 2300 2841 2188 
z
M 1259 4147 
L 1259 2491 
L 2053 2491 
Q 2509 2491 2742 2702 
Q 2975 2913 2975 3322 
Q 2975 3731 2742 3939 
Q 2509 4147 2053 4147 
L 1259 4147 
z
" transform="scale(0.015625)"/>
       <path id="DejaVuSans-75" d="M 544 1381 
L 544 3500 
L 1119 3500 
L 1119 1403 
Q 1119 906 1312 657 
Q 1506 409 1894 409 
Q 2359 409 2629 706 
Q 2900 1003 2900 1516 
L 2900 3500 
L 3475 3500 
L 3475 0 
L 2900 0 
L 2900 538 
Q 2691 219 2414 64 
Q 2138 -91 1772 -91 
Q 1169 -91 856 284 
Q 544 659 544 1381 
z
M 1991 3584 
L 1991 3584 
z
" transform="scale(0.015625)"/>
       <path id="DejaVuSans-67" d="M 2906 1791 
Q 2906 2416 2648 2759 
Q 2391 3103 1925 3103 
Q 1463 3103 1205 2759 
Q 947 2416 947 1791 
Q 947 1169 1205 825 
Q 1463 481 1925 481 
Q 2391 481 2648 825 
Q 2906 1169 2906 1791 
z
M 3481 434 
Q 3481 -459 3084 -895 
Q 2688 -1331 1869 -1331 
Q 1566 -1331 1297 -1286 
Q 1028 -1241 775 -1147 
L 775 -588 
Q 1028 -725 1275 -790 
Q 1522 -856 1778 -856 
Q 2344 -856 2625 -561 
Q 2906 -266 2906 331 
L 2906 616 
Q 2728 306 2450 153 
Q 2172 0 1784 0 
Q 1141 0 747 490 
Q 353 981 353 1791 
Q 353 2603 747 3093 
Q 1141 3584 1784 3584 
Q 2172 3584 2450 3431 
Q 2728 3278 2906 2969 
L 2906 3500 
L 3481 3500 
L 3481 434 
z
" transform="scale(0.015625)"/>
       <path id="DejaVuSans-76" d="M 191 3500 
L 800 3500 
L 1894 563 
L 2988 3500 
L 3597 3500 
L 2284 0 
L 1503 0 
L 191 3500 
z
" transform="scale(0.015625)"/>
      </defs>
      <use xlink:href="#DejaVuSans-52"/>
      <use xlink:href="#DejaVuSans-75" x="64.982422"/>
      <use xlink:href="#DejaVuSans-6e" x="128.361328"/>
      <use xlink:href="#DejaVuSans-6e" x="191.740234"/>
      <use xlink:href="#DejaVuSans-69" x="255.119141"/>
      <use xlink:href="#DejaVuSans-6e" x="282.902344"/>
      <use xlink:href="#DejaVuSans-67" x="346.28125"/>
      <use xlink:href="#DejaVuSans-20" x="409.757812"/>
      <use xlink:href="#DejaVuSans-61" x="441.544922"/>
      <use xlink:href="#DejaVuSans-76" x="502.824219"/>
      <use xlink:href="#DejaVuSans-65" x="562.003906"/>
      <use xlink:href="#DejaVuSans-72" x="623.527344"/>
      <use xlink:href="#DejaVuSans-61" x="664.640625"/>
      <use xlink:href="#DejaVuSans-67" x="725.919922"/>
      <use xlink:href="#DejaVuSans-65" x="789.396484"/>
      <use xlink:href="#DejaVuSans-20" x="850.919922"/>
      <use xlink:href="#DejaVuSans-4c" x="882.707031"/>
      <use xlink:href="#DejaVuSans-6f" x="936.669922"/>
      <use xlink:href="#DejaVuSans-73" x="997.851562"/>
      <use xlink:href="#DejaVuSans-73" x="1049.951172"/>
     </g>
    </g>
   </g>
  </g>
 </g>
 <defs>
  <clipPath id="p698b30622a">
   <rect x="57.6" y="41.472" width="357.12" height="266.112"/>
  </clipPath>
 </defs>
</svg>
