<?xml version="1.0" encoding="utf-8" standalone="no"?>
<!DOCTYPE svg PUBLIC "-//W3C//DTD SVG 1.1//EN"
  "http://www.w3.org/Graphics/SVG/1.1/DTD/svg11.dtd">
<svg xmlns:xlink="http://www.w3.org/1999/xlink" width="460.8pt" height="345.6pt" viewBox="0 0 460.8 345.6" xmlns="http://www.w3.org/2000/svg" version="1.1">
 <metadata>
  <rdf:RDF xmlns:dc="http://purl.org/dc/elements/1.1/" xmlns:cc="http://creativecommons.org/ns#" xmlns:rdf="http://www.w3.org/1999/02/22-rdf-syntax-ns#">
   <cc:Work>
    <dc:type rdf:resource="http://purl.org/dc/dcmitype/StillImage"/>
    <dc:date>2024-05-29T00:37:39.985356</dc:date>
    <dc:format>image/svg+xml</dc:format>
    <dc:creator>
     <cc:Agent>
      <dc:title>Matplotlib v3.6.2, https://matplotlib.org/</dc:title>
     </cc:Agent>
    </dc:creator>
   </cc:Work>
  </rdf:RDF>
 </metadata>
 <defs>
  <style type="text/css">*{stroke-linejoin: round; stroke-linecap: butt}</style>
 </defs>
 <g id="figure_1">
  <g id="patch_1">
   <path d="M 0 345.6 
L 460.8 345.6 
L 460.8 0 
L 0 0 
z
" style="fill: #ffffff"/>
  </g>
  <g id="axes_1">
   <g id="patch_2">
    <path d="M 57.6 307.584 
L 414.72 307.584 
L 414.72 41.472 
L 57.6 41.472 
z
" style="fill: #ffffff"/>
   </g>
   <g id="matplotlib.axis_1">
    <g id="xtick_1">
     <g id="line2d_1">
      <defs>
       <path id="m2033ec23f8" d="M 0 0 
L 0 3.5 
" style="stroke: #000000; stroke-width: 0.8"/>
      </defs>
      <g>
       <use xlink:href="#m2033ec23f8" x="73.832727" y="307.584" style="stroke: #000000; stroke-width: 0.8"/>
      </g>
     </g>
     <g id="text_1">
      <!-- 0 -->
      <g transform="translate(70.651477 322.182437) scale(0.1 -0.1)">
       <defs>
        <path id="DejaVuSans-30" d="M 2034 4250 
Q 1547 4250 1301 3770 
Q 1056 3291 1056 2328 
Q 1056 1369 1301 889 
Q 1547 409 2034 409 
Q 2525 409 2770 889 
Q 3016 1369 3016 2328 
Q 3016 3291 2770 3770 
Q 2525 4250 2034 4250 
z
M 2034 4750 
Q 2819 4750 3233 4129 
Q 3647 3509 3647 2328 
Q 3647 1150 3233 529 
Q 2819 -91 2034 -91 
Q 1250 -91 836 529 
Q 422 1150 422 2328 
Q 422 3509 836 4129 
Q 1250 4750 2034 4750 
z
" transform="scale(0.015625)"/>
       </defs>
       <use xlink:href="#DejaVuSans-30"/>
      </g>
     </g>
    </g>
    <g id="xtick_2">
     <g id="line2d_2">
      <g>
       <use xlink:href="#m2033ec23f8" x="115.455105" y="307.584" style="stroke: #000000; stroke-width: 0.8"/>
      </g>
     </g>
     <g id="text_2">
      <!-- 50 -->
      <g transform="translate(109.092605 322.182437) scale(0.1 -0.1)">
       <defs>
        <path id="DejaVuSans-35" d="M 691 4666 
L 3169 4666 
L 3169 4134 
L 1269 4134 
L 1269 2991 
Q 1406 3038 1543 3061 
Q 1681 3084 1819 3084 
Q 2600 3084 3056 2656 
Q 3513 2228 3513 1497 
Q 3513 744 3044 326 
Q 2575 -91 1722 -91 
Q 1428 -91 1123 -41 
Q 819 9 494 109 
L 494 744 
Q 775 591 1075 516 
Q 1375 441 1709 441 
Q 2250 441 2565 725 
Q 2881 1009 2881 1497 
Q 2881 1984 2565 2268 
Q 2250 2553 1709 2553 
Q 1456 2553 1204 2497 
Q 953 2441 691 2322 
L 691 4666 
z
" transform="scale(0.015625)"/>
       </defs>
       <use xlink:href="#DejaVuSans-35"/>
       <use xlink:href="#DejaVuSans-30" x="63.623047"/>
      </g>
     </g>
    </g>
    <g id="xtick_3">
     <g id="line2d_3">
      <g>
       <use xlink:href="#m2033ec23f8" x="157.077483" y="307.584" style="stroke: #000000; stroke-width: 0.8"/>
      </g>
     </g>
     <g id="text_3">
      <!-- 100 -->
      <g transform="translate(147.533733 322.182437) scale(0.1 -0.1)">
       <defs>
        <path id="DejaVuSans-31" d="M 794 531 
L 1825 531 
L 1825 4091 
L 703 3866 
L 703 4441 
L 1819 4666 
L 2450 4666 
L 2450 531 
L 3481 531 
L 3481 0 
L 794 0 
L 794 531 
z
" transform="scale(0.015625)"/>
       </defs>
       <use xlink:href="#DejaVuSans-31"/>
       <use xlink:href="#DejaVuSans-30" x="63.623047"/>
       <use xlink:href="#DejaVuSans-30" x="127.246094"/>
      </g>
     </g>
    </g>
    <g id="xtick_4">
     <g id="line2d_4">
      <g>
       <use xlink:href="#m2033ec23f8" x="198.69986" y="307.584" style="stroke: #000000; stroke-width: 0.8"/>
      </g>
     </g>
     <g id="text_4">
      <!-- 150 -->
      <g transform="translate(189.15611 322.182437) scale(0.1 -0.1)">
       <use xlink:href="#DejaVuSans-31"/>
       <use xlink:href="#DejaVuSans-35" x="63.623047"/>
       <use xlink:href="#DejaVuSans-30" x="127.246094"/>
      </g>
     </g>
    </g>
    <g id="xtick_5">
     <g id="line2d_5">
      <g>
       <use xlink:href="#m2033ec23f8" x="240.322238" y="307.584" style="stroke: #000000; stroke-width: 0.8"/>
      </g>
     </g>
     <g id="text_5">
      <!-- 200 -->
      <g transform="translate(230.778488 322.182437) scale(0.1 -0.1)">
       <defs>
        <path id="DejaVuSans-32" d="M 1228 531 
L 3431 531 
L 3431 0 
L 469 0 
L 469 531 
Q 828 903 1448 1529 
Q 2069 2156 2228 2338 
Q 2531 2678 2651 2914 
Q 2772 3150 2772 3378 
Q 2772 3750 2511 3984 
Q 2250 4219 1831 4219 
Q 1534 4219 1204 4116 
Q 875 4013 500 3803 
L 500 4441 
Q 881 4594 1212 4672 
Q 1544 4750 1819 4750 
Q 2544 4750 2975 4387 
Q 3406 4025 3406 3419 
Q 3406 3131 3298 2873 
Q 3191 2616 2906 2266 
Q 2828 2175 2409 1742 
Q 1991 1309 1228 531 
z
" transform="scale(0.015625)"/>
       </defs>
       <use xlink:href="#DejaVuSans-32"/>
       <use xlink:href="#DejaVuSans-30" x="63.623047"/>
       <use xlink:href="#DejaVuSans-30" x="127.246094"/>
      </g>
     </g>
    </g>
    <g id="xtick_6">
     <g id="line2d_6">
      <g>
       <use xlink:href="#m2033ec23f8" x="281.944615" y="307.584" style="stroke: #000000; stroke-width: 0.8"/>
      </g>
     </g>
     <g id="text_6">
      <!-- 250 -->
      <g transform="translate(272.400865 322.182437) scale(0.1 -0.1)">
       <use xlink:href="#DejaVuSans-32"/>
       <use xlink:href="#DejaVuSans-35" x="63.623047"/>
       <use xlink:href="#DejaVuSans-30" x="127.246094"/>
      </g>
     </g>
    </g>
    <g id="xtick_7">
     <g id="line2d_7">
      <g>
       <use xlink:href="#m2033ec23f8" x="323.566993" y="307.584" style="stroke: #000000; stroke-width: 0.8"/>
      </g>
     </g>
     <g id="text_7">
      <!-- 300 -->
      <g transform="translate(314.023243 322.182437) scale(0.1 -0.1)">
       <defs>
        <path id="DejaVuSans-33" d="M 2597 2516 
Q 3050 2419 3304 2112 
Q 3559 1806 3559 1356 
Q 3559 666 3084 287 
Q 2609 -91 1734 -91 
Q 1441 -91 1130 -33 
Q 819 25 488 141 
L 488 750 
Q 750 597 1062 519 
Q 1375 441 1716 441 
Q 2309 441 2620 675 
Q 2931 909 2931 1356 
Q 2931 1769 2642 2001 
Q 2353 2234 1838 2234 
L 1294 2234 
L 1294 2753 
L 1863 2753 
Q 2328 2753 2575 2939 
Q 2822 3125 2822 3475 
Q 2822 3834 2567 4026 
Q 2313 4219 1838 4219 
Q 1578 4219 1281 4162 
Q 984 4106 628 3988 
L 628 4550 
Q 988 4650 1302 4700 
Q 1616 4750 1894 4750 
Q 2613 4750 3031 4423 
Q 3450 4097 3450 3541 
Q 3450 3153 3228 2886 
Q 3006 2619 2597 2516 
z
" transform="scale(0.015625)"/>
       </defs>
       <use xlink:href="#DejaVuSans-33"/>
       <use xlink:href="#DejaVuSans-30" x="63.623047"/>
       <use xlink:href="#DejaVuSans-30" x="127.246094"/>
      </g>
     </g>
    </g>
    <g id="xtick_8">
     <g id="line2d_8">
      <g>
       <use xlink:href="#m2033ec23f8" x="365.189371" y="307.584" style="stroke: #000000; stroke-width: 0.8"/>
      </g>
     </g>
     <g id="text_8">
      <!-- 350 -->
      <g transform="translate(355.645621 322.182437) scale(0.1 -0.1)">
       <use xlink:href="#DejaVuSans-33"/>
       <use xlink:href="#DejaVuSans-35" x="63.623047"/>
       <use xlink:href="#DejaVuSans-30" x="127.246094"/>
      </g>
     </g>
    </g>
    <g id="xtick_9">
     <g id="line2d_9">
      <g>
       <use xlink:href="#m2033ec23f8" x="406.811748" y="307.584" style="stroke: #000000; stroke-width: 0.8"/>
      </g>
     </g>
     <g id="text_9">
      <!-- 400 -->
      <g transform="translate(397.267998 322.182437) scale(0.1 -0.1)">
       <defs>
        <path id="DejaVuSans-34" d="M 2419 4116 
L 825 1625 
L 2419 1625 
L 2419 4116 
z
M 2253 4666 
L 3047 4666 
L 3047 1625 
L 3713 1625 
L 3713 1100 
L 3047 1100 
L 3047 0 
L 2419 0 
L 2419 1100 
L 313 1100 
L 313 1709 
L 2253 4666 
z
" transform="scale(0.015625)"/>
       </defs>
       <use xlink:href="#DejaVuSans-34"/>
       <use xlink:href="#DejaVuSans-30" x="63.623047"/>
       <use xlink:href="#DejaVuSans-30" x="127.246094"/>
      </g>
     </g>
    </g>
    <g id="text_10">
     <!-- Iteration -->
     <g transform="translate(214.951406 335.860562) scale(0.1 -0.1)">
      <defs>
       <path id="DejaVuSans-49" d="M 628 4666 
L 1259 4666 
L 1259 0 
L 628 0 
L 628 4666 
z
" transform="scale(0.015625)"/>
       <path id="DejaVuSans-74" d="M 1172 4494 
L 1172 3500 
L 2356 3500 
L 2356 3053 
L 1172 3053 
L 1172 1153 
Q 1172 725 1289 603 
Q 1406 481 1766 481 
L 2356 481 
L 2356 0 
L 1766 0 
Q 1100 0 847 248 
Q 594 497 594 1153 
L 594 3053 
L 172 3053 
L 172 3500 
L 594 3500 
L 594 4494 
L 1172 4494 
z
" transform="scale(0.015625)"/>
       <path id="DejaVuSans-65" d="M 3597 1894 
L 3597 1613 
L 953 1613 
Q 991 1019 1311 708 
Q 1631 397 2203 397 
Q 2534 397 2845 478 
Q 3156 559 3463 722 
L 3463 178 
Q 3153 47 2828 -22 
Q 2503 -91 2169 -91 
Q 1331 -91 842 396 
Q 353 884 353 1716 
Q 353 2575 817 3079 
Q 1281 3584 2069 3584 
Q 2775 3584 3186 3129 
Q 3597 2675 3597 1894 
z
M 3022 2063 
Q 3016 2534 2758 2815 
Q 2500 3097 2075 3097 
Q 1594 3097 1305 2825 
Q 1016 2553 972 2059 
L 3022 2063 
z
" transform="scale(0.015625)"/>
       <path id="DejaVuSans-72" d="M 2631 2963 
Q 2534 3019 2420 3045 
Q 2306 3072 2169 3072 
Q 1681 3072 1420 2755 
Q 1159 2438 1159 1844 
L 1159 0 
L 581 0 
L 581 3500 
L 1159 3500 
L 1159 2956 
Q 1341 3275 1631 3429 
Q 1922 3584 2338 3584 
Q 2397 3584 2469 3576 
Q 2541 3569 2628 3553 
L 2631 2963 
z
" transform="scale(0.015625)"/>
       <path id="DejaVuSans-61" d="M 2194 1759 
Q 1497 1759 1228 1600 
Q 959 1441 959 1056 
Q 959 750 1161 570 
Q 1363 391 1709 391 
Q 2188 391 2477 730 
Q 2766 1069 2766 1631 
L 2766 1759 
L 2194 1759 
z
M 3341 1997 
L 3341 0 
L 2766 0 
L 2766 531 
Q 2569 213 2275 61 
Q 1981 -91 1556 -91 
Q 1019 -91 701 211 
Q 384 513 384 1019 
Q 384 1609 779 1909 
Q 1175 2209 1959 2209 
L 2766 2209 
L 2766 2266 
Q 2766 2663 2505 2880 
Q 2244 3097 1772 3097 
Q 1472 3097 1187 3025 
Q 903 2953 641 2809 
L 641 3341 
Q 956 3463 1253 3523 
Q 1550 3584 1831 3584 
Q 2591 3584 2966 3190 
Q 3341 2797 3341 1997 
z
" transform="scale(0.015625)"/>
       <path id="DejaVuSans-69" d="M 603 3500 
L 1178 3500 
L 1178 0 
L 603 0 
L 603 3500 
z
M 603 4863 
L 1178 4863 
L 1178 4134 
L 603 4134 
L 603 4863 
z
" transform="scale(0.015625)"/>
       <path id="DejaVuSans-6f" d="M 1959 3097 
Q 1497 3097 1228 2736 
Q 959 2375 959 1747 
Q 959 1119 1226 758 
Q 1494 397 1959 397 
Q 2419 397 2687 759 
Q 2956 1122 2956 1747 
Q 2956 2369 2687 2733 
Q 2419 3097 1959 3097 
z
M 1959 3584 
Q 2709 3584 3137 3096 
Q 3566 2609 3566 1747 
Q 3566 888 3137 398 
Q 2709 -91 1959 -91 
Q 1206 -91 779 398 
Q 353 888 353 1747 
Q 353 2609 779 3096 
Q 1206 3584 1959 3584 
z
" transform="scale(0.015625)"/>
       <path id="DejaVuSans-6e" d="M 3513 2113 
L 3513 0 
L 2938 0 
L 2938 2094 
Q 2938 2591 2744 2837 
Q 2550 3084 2163 3084 
Q 1697 3084 1428 2787 
Q 1159 2491 1159 1978 
L 1159 0 
L 581 0 
L 581 3500 
L 1159 3500 
L 1159 2956 
Q 1366 3272 1645 3428 
Q 1925 3584 2291 3584 
Q 2894 3584 3203 3211 
Q 3513 2838 3513 2113 
z
" transform="scale(0.015625)"/>
      </defs>
      <use xlink:href="#DejaVuSans-49"/>
      <use xlink:href="#DejaVuSans-74" x="29.492188"/>
      <use xlink:href="#DejaVuSans-65" x="68.701172"/>
      <use xlink:href="#DejaVuSans-72" x="130.224609"/>
      <use xlink:href="#DejaVuSans-61" x="171.337891"/>
      <use xlink:href="#DejaVuSans-74" x="232.617188"/>
      <use xlink:href="#DejaVuSans-69" x="271.826172"/>
      <use xlink:href="#DejaVuSans-6f" x="299.609375"/>
      <use xlink:href="#DejaVuSans-6e" x="360.791016"/>
     </g>
    </g>
   </g>
   <g id="matplotlib.axis_2">
    <g id="ytick_1">
     <g id="line2d_10">
      <defs>
       <path id="md553244269" d="M 0 0 
L -3.5 0 
" style="stroke: #000000; stroke-width: 0.8"/>
      </defs>
      <g>
       <use xlink:href="#md553244269" x="57.6" y="285.898832" style="stroke: #000000; stroke-width: 0.8"/>
      </g>
     </g>
     <g id="text_11">
      <!-- 1.2 -->
      <g transform="translate(34.696875 289.698051) scale(0.1 -0.1)">
       <defs>
        <path id="DejaVuSans-2e" d="M 684 794 
L 1344 794 
L 1344 0 
L 684 0 
L 684 794 
z
" transform="scale(0.015625)"/>
       </defs>
       <use xlink:href="#DejaVuSans-31"/>
       <use xlink:href="#DejaVuSans-2e" x="63.623047"/>
       <use xlink:href="#DejaVuSans-32" x="95.410156"/>
      </g>
     </g>
    </g>
    <g id="ytick_2">
     <g id="line2d_11">
      <g>
       <use xlink:href="#md553244269" x="57.6" y="243.88864" style="stroke: #000000; stroke-width: 0.8"/>
      </g>
     </g>
     <g id="text_12">
      <!-- 1.4 -->
      <g transform="translate(34.696875 247.687859) scale(0.1 -0.1)">
       <use xlink:href="#DejaVuSans-31"/>
       <use xlink:href="#DejaVuSans-2e" x="63.623047"/>
       <use xlink:href="#DejaVuSans-34" x="95.410156"/>
      </g>
     </g>
    </g>
    <g id="ytick_3">
     <g id="line2d_12">
      <g>
       <use xlink:href="#md553244269" x="57.6" y="201.878449" style="stroke: #000000; stroke-width: 0.8"/>
      </g>
     </g>
     <g id="text_13">
      <!-- 1.6 -->
      <g transform="translate(34.696875 205.677667) scale(0.1 -0.1)">
       <defs>
        <path id="DejaVuSans-36" d="M 2113 2584 
Q 1688 2584 1439 2293 
Q 1191 2003 1191 1497 
Q 1191 994 1439 701 
Q 1688 409 2113 409 
Q 2538 409 2786 701 
Q 3034 994 3034 1497 
Q 3034 2003 2786 2293 
Q 2538 2584 2113 2584 
z
M 3366 4563 
L 3366 3988 
Q 3128 4100 2886 4159 
Q 2644 4219 2406 4219 
Q 1781 4219 1451 3797 
Q 1122 3375 1075 2522 
Q 1259 2794 1537 2939 
Q 1816 3084 2150 3084 
Q 2853 3084 3261 2657 
Q 3669 2231 3669 1497 
Q 3669 778 3244 343 
Q 2819 -91 2113 -91 
Q 1303 -91 875 529 
Q 447 1150 447 2328 
Q 447 3434 972 4092 
Q 1497 4750 2381 4750 
Q 2619 4750 2861 4703 
Q 3103 4656 3366 4563 
z
" transform="scale(0.015625)"/>
       </defs>
       <use xlink:href="#DejaVuSans-31"/>
       <use xlink:href="#DejaVuSans-2e" x="63.623047"/>
       <use xlink:href="#DejaVuSans-36" x="95.410156"/>
      </g>
     </g>
    </g>
    <g id="ytick_4">
     <g id="line2d_13">
      <g>
       <use xlink:href="#md553244269" x="57.6" y="159.868257" style="stroke: #000000; stroke-width: 0.8"/>
      </g>
     </g>
     <g id="text_14">
      <!-- 1.8 -->
      <g transform="translate(34.696875 163.667476) scale(0.1 -0.1)">
       <defs>
        <path id="DejaVuSans-38" d="M 2034 2216 
Q 1584 2216 1326 1975 
Q 1069 1734 1069 1313 
Q 1069 891 1326 650 
Q 1584 409 2034 409 
Q 2484 409 2743 651 
Q 3003 894 3003 1313 
Q 3003 1734 2745 1975 
Q 2488 2216 2034 2216 
z
M 1403 2484 
Q 997 2584 770 2862 
Q 544 3141 544 3541 
Q 544 4100 942 4425 
Q 1341 4750 2034 4750 
Q 2731 4750 3128 4425 
Q 3525 4100 3525 3541 
Q 3525 3141 3298 2862 
Q 3072 2584 2669 2484 
Q 3125 2378 3379 2068 
Q 3634 1759 3634 1313 
Q 3634 634 3220 271 
Q 2806 -91 2034 -91 
Q 1263 -91 848 271 
Q 434 634 434 1313 
Q 434 1759 690 2068 
Q 947 2378 1403 2484 
z
M 1172 3481 
Q 1172 3119 1398 2916 
Q 1625 2713 2034 2713 
Q 2441 2713 2670 2916 
Q 2900 3119 2900 3481 
Q 2900 3844 2670 4047 
Q 2441 4250 2034 4250 
Q 1625 4250 1398 4047 
Q 1172 3844 1172 3481 
z
" transform="scale(0.015625)"/>
       </defs>
       <use xlink:href="#DejaVuSans-31"/>
       <use xlink:href="#DejaVuSans-2e" x="63.623047"/>
       <use xlink:href="#DejaVuSans-38" x="95.410156"/>
      </g>
     </g>
    </g>
    <g id="ytick_5">
     <g id="line2d_14">
      <g>
       <use xlink:href="#md553244269" x="57.6" y="117.858065" style="stroke: #000000; stroke-width: 0.8"/>
      </g>
     </g>
     <g id="text_15">
      <!-- 2.0 -->
      <g transform="translate(34.696875 121.657284) scale(0.1 -0.1)">
       <use xlink:href="#DejaVuSans-32"/>
       <use xlink:href="#DejaVuSans-2e" x="63.623047"/>
       <use xlink:href="#DejaVuSans-30" x="95.410156"/>
      </g>
     </g>
    </g>
    <g id="ytick_6">
     <g id="line2d_15">
      <g>
       <use xlink:href="#md553244269" x="57.6" y="75.847874" style="stroke: #000000; stroke-width: 0.8"/>
      </g>
     </g>
     <g id="text_16">
      <!-- 2.2 -->
      <g transform="translate(34.696875 79.647092) scale(0.1 -0.1)">
       <use xlink:href="#DejaVuSans-32"/>
       <use xlink:href="#DejaVuSans-2e" x="63.623047"/>
       <use xlink:href="#DejaVuSans-32" x="95.410156"/>
      </g>
     </g>
    </g>
    <g id="text_17">
     <!-- Cross Entropy -->
     <g transform="translate(28.617187 209.244406) rotate(-90) scale(0.1 -0.1)">
      <defs>
       <path id="DejaVuSans-43" d="M 4122 4306 
L 4122 3641 
Q 3803 3938 3442 4084 
Q 3081 4231 2675 4231 
Q 1875 4231 1450 3742 
Q 1025 3253 1025 2328 
Q 1025 1406 1450 917 
Q 1875 428 2675 428 
Q 3081 428 3442 575 
Q 3803 722 4122 1019 
L 4122 359 
Q 3791 134 3420 21 
Q 3050 -91 2638 -91 
Q 1578 -91 968 557 
Q 359 1206 359 2328 
Q 359 3453 968 4101 
Q 1578 4750 2638 4750 
Q 3056 4750 3426 4639 
Q 3797 4528 4122 4306 
z
" transform="scale(0.015625)"/>
       <path id="DejaVuSans-73" d="M 2834 3397 
L 2834 2853 
Q 2591 2978 2328 3040 
Q 2066 3103 1784 3103 
Q 1356 3103 1142 2972 
Q 928 2841 928 2578 
Q 928 2378 1081 2264 
Q 1234 2150 1697 2047 
L 1894 2003 
Q 2506 1872 2764 1633 
Q 3022 1394 3022 966 
Q 3022 478 2636 193 
Q 2250 -91 1575 -91 
Q 1294 -91 989 -36 
Q 684 19 347 128 
L 347 722 
Q 666 556 975 473 
Q 1284 391 1588 391 
Q 1994 391 2212 530 
Q 2431 669 2431 922 
Q 2431 1156 2273 1281 
Q 2116 1406 1581 1522 
L 1381 1569 
Q 847 1681 609 1914 
Q 372 2147 372 2553 
Q 372 3047 722 3315 
Q 1072 3584 1716 3584 
Q 2034 3584 2315 3537 
Q 2597 3491 2834 3397 
z
" transform="scale(0.015625)"/>
       <path id="DejaVuSans-20" transform="scale(0.015625)"/>
       <path id="DejaVuSans-45" d="M 628 4666 
L 3578 4666 
L 3578 4134 
L 1259 4134 
L 1259 2753 
L 3481 2753 
L 3481 2222 
L 1259 2222 
L 1259 531 
L 3634 531 
L 3634 0 
L 628 0 
L 628 4666 
z
" transform="scale(0.015625)"/>
       <path id="DejaVuSans-70" d="M 1159 525 
L 1159 -1331 
L 581 -1331 
L 581 3500 
L 1159 3500 
L 1159 2969 
Q 1341 3281 1617 3432 
Q 1894 3584 2278 3584 
Q 2916 3584 3314 3078 
Q 3713 2572 3713 1747 
Q 3713 922 3314 415 
Q 2916 -91 2278 -91 
Q 1894 -91 1617 61 
Q 1341 213 1159 525 
z
M 3116 1747 
Q 3116 2381 2855 2742 
Q 2594 3103 2138 3103 
Q 1681 3103 1420 2742 
Q 1159 2381 1159 1747 
Q 1159 1113 1420 752 
Q 1681 391 2138 391 
Q 2594 391 2855 752 
Q 3116 1113 3116 1747 
z
" transform="scale(0.015625)"/>
       <path id="DejaVuSans-79" d="M 2059 -325 
Q 1816 -950 1584 -1140 
Q 1353 -1331 966 -1331 
L 506 -1331 
L 506 -850 
L 844 -850 
Q 1081 -850 1212 -737 
Q 1344 -625 1503 -206 
L 1606 56 
L 191 3500 
L 800 3500 
L 1894 763 
L 2988 3500 
L 3597 3500 
L 2059 -325 
z
" transform="scale(0.015625)"/>
      </defs>
      <use xlink:href="#DejaVuSans-43"/>
      <use xlink:href="#DejaVuSans-72" x="69.824219"/>
      <use xlink:href="#DejaVuSans-6f" x="108.6875"/>
      <use xlink:href="#DejaVuSans-73" x="169.869141"/>
      <use xlink:href="#DejaVuSans-73" x="221.96875"/>
      <use xlink:href="#DejaVuSans-20" x="274.068359"/>
      <use xlink:href="#DejaVuSans-45" x="305.855469"/>
      <use xlink:href="#DejaVuSans-6e" x="369.039062"/>
      <use xlink:href="#DejaVuSans-74" x="432.417969"/>
      <use xlink:href="#DejaVuSans-72" x="471.626953"/>
      <use xlink:href="#DejaVuSans-6f" x="510.490234"/>
      <use xlink:href="#DejaVuSans-70" x="571.671875"/>
      <use xlink:href="#DejaVuSans-79" x="635.148438"/>
     </g>
    </g>
   </g>
   <g id="line2d_16">
    <path d="M 73.832727 54.505799 
L 75.497622 54.224299 
L 76.33007 53.605159 
L 77.162517 55.039001 
L 77.994965 54.632752 
L 78.827413 54.60656 
L 79.65986 55.340383 
L 80.492308 54.026683 
L 81.324755 53.651383 
L 82.157203 54.100902 
L 82.98965 53.568 
L 83.822098 56.956466 
L 84.654545 57.657287 
L 85.486993 57.624134 
L 86.319441 60.144913 
L 87.151888 61.215074 
L 88.816783 65.655221 
L 89.649231 65.934968 
L 90.481678 80.624399 
L 91.314126 80.376352 
L 92.146573 70.700235 
L 92.979021 94.405077 
L 93.811469 91.500333 
L 94.643916 61.680167 
L 95.476364 94.229796 
L 96.308811 100.363 
L 97.141259 105.396646 
L 97.973706 105.641788 
L 98.806154 104.090508 
L 99.638601 121.740571 
L 100.471049 92.518361 
L 101.303497 91.4796 
L 102.135944 113.508162 
L 102.968392 97.931614 
L 103.800839 134.913928 
L 104.633287 116.028641 
L 105.465734 104.657665 
L 106.298182 88.329214 
L 107.130629 114.05123 
L 107.963077 112.953175 
L 108.795524 99.551353 
L 109.627972 93.628034 
L 110.46042 114.481167 
L 111.292867 113.838841 
L 112.125315 127.35119 
L 112.957762 131.414835 
L 113.79021 129.74101 
L 114.622657 110.782105 
L 115.455105 121.594388 
L 116.287552 92.927014 
L 117.12 140.52958 
L 117.952448 123.344109 
L 118.784895 115.013318 
L 119.617343 141.841652 
L 120.44979 135.887059 
L 121.282238 112.597356 
L 122.114685 154.082368 
L 122.947133 133.527162 
L 123.77958 139.761402 
L 124.612028 128.4835 
L 125.444476 136.652558 
L 126.276923 114.690302 
L 127.109371 143.717075 
L 127.941818 142.248527 
L 128.774266 168.198457 
L 129.606713 168.485667 
L 130.439161 113.61298 
L 131.271608 147.374221 
L 132.104056 133.157295 
L 132.936503 114.985924 
L 133.768951 113.251852 
L 134.601399 144.205456 
L 135.433846 162.918192 
L 136.266294 126.628459 
L 137.098741 129.289488 
L 137.931189 156.646567 
L 138.763636 133.183988 
L 139.596084 162.578725 
L 140.428531 157.182349 
L 141.260979 165.777738 
L 142.093427 176.872848 
L 142.925874 133.208552 
L 143.758322 164.513492 
L 144.590769 183.938993 
L 145.423217 166.389816 
L 146.255664 155.68473 
L 147.088112 184.196054 
L 147.920559 190.775847 
L 148.753007 152.667206 
L 149.585455 162.13797 
L 150.417902 175.90415 
L 151.25035 174.720332 
L 152.082797 167.529288 
L 152.915245 157.469958 
L 153.747692 208.316334 
L 154.58014 194.547025 
L 155.412587 201.429902 
L 156.245035 163.143878 
L 157.077483 180.945458 
L 157.90993 158.229522 
L 158.742378 170.391413 
L 159.574825 169.262959 
L 160.407273 183.554904 
L 161.23972 206.743645 
L 162.072168 182.20745 
L 162.904615 171.395142 
L 163.737063 182.402537 
L 164.56951 190.471961 
L 165.401958 195.621617 
L 166.234406 152.613771 
L 167.066853 215.832474 
L 167.899301 187.840855 
L 168.731748 141.343831 
L 169.564196 165.19711 
L 170.396643 193.575146 
L 171.229091 179.336236 
L 172.061538 180.660978 
L 172.893986 182.399557 
L 173.726434 193.523038 
L 174.558881 152.885906 
L 175.391329 189.134848 
L 176.223776 196.175327 
L 177.056224 199.200989 
L 177.888671 196.391398 
L 178.721119 186.172889 
L 179.553566 213.060142 
L 180.386014 183.92447 
L 181.218462 185.64805 
L 182.050909 172.677242 
L 182.883357 218.959998 
L 183.715804 180.357944 
L 184.548252 215.284247 
L 185.380699 198.199263 
L 186.213147 198.683011 
L 187.045594 208.261547 
L 187.878042 172.571648 
L 188.71049 181.190149 
L 189.542937 161.87818 
L 190.375385 202.337152 
L 191.207832 172.454736 
L 192.872727 206.97454 
L 193.705175 158.257843 
L 194.537622 201.471568 
L 195.37007 195.974832 
L 196.202517 214.361598 
L 197.034965 198.709328 
L 197.867413 240.464497 
L 199.532308 182.25122 
L 200.364755 195.902491 
L 201.197203 186.510403 
L 202.02965 174.969205 
L 202.862098 218.203038 
L 203.694545 184.167934 
L 204.526993 177.804738 
L 205.359441 194.244141 
L 206.191888 192.192862 
L 207.024336 201.868077 
L 207.856783 201.759779 
L 208.689231 189.36707 
L 209.521678 190.78744 
L 210.354126 235.826458 
L 211.186573 187.032313 
L 212.019021 217.982085 
L 212.851469 199.391043 
L 213.683916 217.890113 
L 214.516364 190.724665 
L 215.348811 191.766155 
L 217.013706 210.435296 
L 217.846154 204.601647 
L 218.678601 220.631895 
L 219.511049 206.64008 
L 220.343497 223.479397 
L 221.175944 197.688496 
L 222.008392 196.366834 
L 222.840839 173.111836 
L 223.673287 202.554149 
L 224.505734 237.012329 
L 225.338182 193.08664 
L 226.170629 199.496511 
L 227.003077 213.587009 
L 227.835524 214.128049 
L 228.667972 232.301899 
L 229.50042 226.739183 
L 230.332867 212.611225 
L 231.165315 210.662284 
L 231.997762 239.545052 
L 232.83021 206.672607 
L 233.662657 224.110606 
L 234.495105 231.17923 
L 235.327552 222.080361 
L 236.16 184.916055 
L 236.992448 229.10842 
L 237.824895 215.133381 
L 238.657343 184.048093 
L 239.48979 238.53967 
L 240.322238 212.714189 
L 241.154685 223.67849 
L 241.987133 223.617242 
L 242.81958 222.774821 
L 243.652028 228.605591 
L 244.484476 242.815455 
L 245.316923 211.694084 
L 246.149371 203.577434 
L 246.981818 217.479932 
L 247.814266 207.291296 
L 248.646713 194.932666 
L 249.479161 195.683266 
L 251.144056 239.936403 
L 251.976503 211.541189 
L 252.808951 223.114714 
L 253.641399 204.901651 
L 254.473846 174.172231 
L 255.306294 229.263292 
L 256.138741 249.425471 
L 256.971189 202.09176 
L 257.803636 241.808495 
L 258.636084 216.444953 
L 259.468531 243.521408 
L 261.133427 187.234486 
L 261.965874 216.532443 
L 263.630769 185.767316 
L 264.463217 201.241025 
L 265.295664 190.041122 
L 266.128112 234.703313 
L 266.960559 244.561346 
L 267.793007 201.438616 
L 268.625455 193.691833 
L 269.457902 213.426202 
L 270.29035 215.68326 
L 271.122797 210.113382 
L 271.955245 199.202692 
L 272.787692 242.166668 
L 273.62014 218.365422 
L 274.452587 220.631695 
L 275.285035 239.5277 
L 276.117483 217.853404 
L 276.94993 224.332461 
L 277.782378 217.70051 
L 278.614825 223.883393 
L 279.447273 215.424446 
L 280.27972 238.211721 
L 281.112168 198.105989 
L 281.944615 216.648102 
L 282.777063 231.306759 
L 283.60951 223.477719 
L 284.441958 261.593246 
L 285.274406 204.224544 
L 286.106853 219.264234 
L 286.939301 218.482359 
L 287.771748 227.154296 
L 288.604196 209.121246 
L 290.269091 265.129398 
L 291.101538 236.097767 
L 291.933986 239.811002 
L 292.766434 257.51728 
L 293.598881 270.660114 
L 294.431329 251.440442 
L 295.263776 244.286782 
L 296.096224 272.919475 
L 296.928671 194.407877 
L 297.761119 226.5152 
L 298.593566 211.352563 
L 299.426014 225.48931 
L 300.258462 283.980305 
L 301.090909 260.721302 
L 301.923357 267.837502 
L 302.755804 224.891154 
L 303.588252 220.219536 
L 304.420699 181.524333 
L 305.253147 190.742143 
L 306.085594 257.415568 
L 306.918042 199.709777 
L 307.75049 231.964485 
L 308.582937 238.622753 
L 309.415385 259.618865 
L 310.247832 218.4762 
L 311.08028 216.564894 
L 311.912727 258.789965 
L 312.745175 210.509615 
L 313.577622 221.424537 
L 314.41007 206.756241 
L 315.242517 259.736327 
L 316.074965 251.511655 
L 317.73986 208.487583 
L 318.572308 245.756181 
L 319.404755 256.132517 
L 320.237203 229.28708 
L 321.06965 241.402571 
L 321.902098 256.036739 
L 322.734545 230.819104 
L 323.566993 251.132725 
L 324.399441 276.896232 
L 325.231888 244.382535 
L 326.064336 258.626954 
L 326.896783 243.908953 
L 327.729231 238.415622 
L 328.561678 231.130402 
L 329.394126 251.124887 
L 330.226573 234.373336 
L 331.059021 262.826917 
L 331.891469 218.127943 
L 332.723916 248.02959 
L 333.556364 256.905077 
L 334.388811 257.608125 
L 335.221259 234.965707 
L 336.053706 256.498427 
L 336.886154 244.006183 
L 337.718601 246.716115 
L 338.551049 226.106872 
L 339.383497 268.281461 
L 340.215944 234.271448 
L 341.048392 269.094386 
L 341.880839 252.528431 
L 342.713287 270.621201 
L 343.545734 255.206361 
L 344.378182 283.260855 
L 345.210629 261.765896 
L 346.875524 234.671662 
L 347.707972 250.391064 
L 348.54042 245.138243 
L 349.372867 265.951838 
L 350.205315 275.320788 
L 351.037762 241.823645 
L 351.87021 263.162228 
L 352.702657 239.37796 
L 353.535105 236.176893 
L 354.367552 214.687268 
L 355.2 218.513434 
L 356.032448 249.203441 
L 356.864895 227.897609 
L 357.697343 248.203643 
L 358.52979 232.198885 
L 359.362238 265.90624 
L 360.194685 257.614511 
L 361.027133 250.524052 
L 361.85958 259.233699 
L 362.692028 230.971423 
L 363.524476 285.981329 
L 364.356923 285.407837 
L 365.189371 263.36986 
L 366.021818 272.788691 
L 366.854266 223.704482 
L 367.686713 201.789401 
L 368.519161 262.14345 
L 369.351608 295.488 
L 370.184056 272.41264 
L 371.016503 255.034987 
L 371.848951 264.444678 
L 372.681399 252.275476 
L 373.513846 261.844973 
L 374.346294 229.904668 
L 375.178741 227.856318 
L 376.011189 261.676929 
L 376.843636 274.244168 
L 377.676084 288.884269 
L 378.508531 277.002026 
L 379.340979 268.391137 
L 380.173427 235.202386 
L 381.005874 266.739822 
L 381.838322 273.811927 
L 382.670769 260.279546 
L 383.503217 267.365072 
L 384.335664 230.25961 
L 385.168112 247.047645 
L 386.000559 249.559485 
L 386.833007 264.42362 
L 387.665455 221.103825 
L 388.497902 243.823041 
L 389.33035 248.479559 
L 390.162797 234.758376 
L 390.995245 259.392077 
L 391.827692 246.044516 
L 392.66014 226.161209 
L 393.492587 196.472653 
L 394.325035 287.042125 
L 395.157483 248.427951 
L 395.98993 249.281466 
L 396.822378 265.707597 
L 397.654825 257.736005 
L 398.487273 274.471055 
L 398.487273 274.471055 
" clip-path="url(#p6caa06b178)" style="fill: none; stroke: #1f77b4; stroke-width: 1.5; stroke-linecap: square"/>
   </g>
   <g id="line2d_17">
    <path d="M 73.832727 156.97351 
L 76.33007 159.458354 
L 82.157203 165.225038 
L 84.654545 167.445133 
L 86.319441 169.126114 
L 87.984336 170.659396 
L 88.816783 171.21356 
L 92.146573 174.363551 
L 94.643916 176.450077 
L 96.308811 177.689362 
L 98.806154 179.06972 
L 99.638601 179.499473 
L 100.471049 180.064287 
L 101.303497 180.824502 
L 102.135944 181.374297 
L 102.968392 181.775215 
L 103.800839 182.352688 
L 105.465734 183.226959 
L 106.298182 183.699684 
L 107.130629 184.468871 
L 108.795524 185.528835 
L 110.46042 186.849843 
L 112.957762 188.401069 
L 114.622657 189.363471 
L 116.287552 190.275359 
L 117.12 190.967257 
L 117.952448 191.381998 
L 118.784895 192.073244 
L 122.114685 193.892174 
L 122.947133 194.167368 
L 124.612028 195.308362 
L 126.276923 196.362225 
L 127.941818 197.711075 
L 128.774266 198.257035 
L 129.606713 198.637476 
L 131.271608 199.56362 
L 132.936503 200.350301 
L 133.768951 200.902818 
L 134.601399 201.75646 
L 136.266294 202.863636 
L 137.931189 203.8096 
L 138.763636 203.933989 
L 139.596084 204.22178 
L 140.428531 204.695964 
L 141.260979 204.908601 
L 142.925874 205.548284 
L 143.758322 206.180336 
L 147.920559 207.535546 
L 148.753007 207.615448 
L 150.417902 208.597662 
L 152.915245 209.425507 
L 153.747692 209.91882 
L 154.58014 210.023674 
L 156.245035 210.530986 
L 157.90993 211.220298 
L 158.742378 211.813632 
L 161.23972 212.932178 
L 162.904615 213.335152 
L 163.737063 213.733801 
L 166.234406 214.467962 
L 167.066853 214.945041 
L 167.899301 215.150404 
L 169.564196 215.967349 
L 170.396643 216.423856 
L 172.893986 217.24014 
L 173.726434 217.66955 
L 174.558881 217.873292 
L 175.391329 218.454334 
L 177.888671 219.423558 
L 179.553566 220.23587 
L 181.218462 220.661325 
L 186.213147 222.51463 
L 189.542937 223.254876 
L 190.375385 223.691503 
L 191.207832 223.819305 
L 192.04028 224.198049 
L 193.705175 224.706446 
L 194.537622 225.20323 
L 199.532308 226.768653 
L 200.364755 227.221341 
L 202.02965 227.436746 
L 205.359441 229.086416 
L 207.856783 230.037717 
L 209.521678 230.370887 
L 210.354126 230.725335 
L 211.186573 230.917423 
L 212.019021 231.426683 
L 213.683916 232.066783 
L 214.516364 232.153345 
L 217.013706 233.23686 
L 217.846154 233.521509 
L 220.343497 233.996475 
L 222.840839 234.555553 
L 223.673287 234.932392 
L 227.003077 235.603425 
L 227.835524 235.517853 
L 228.667972 235.882423 
L 230.332867 236.075765 
L 231.997762 236.576615 
L 232.83021 236.751246 
L 232.83021 236.751246 
" clip-path="url(#p6caa06b178)" style="fill: none; stroke: #ff7f0e; stroke-width: 1.5; stroke-linecap: square"/>
   </g>
   <g id="patch_3">
    <path d="M 57.6 307.584 
L 57.6 41.472 
" style="fill: none; stroke: #000000; stroke-width: 0.8; stroke-linejoin: miter; stroke-linecap: square"/>
   </g>
   <g id="patch_4">
    <path d="M 414.72 307.584 
L 414.72 41.472 
" style="fill: none; stroke: #000000; stroke-width: 0.8; stroke-linejoin: miter; stroke-linecap: square"/>
   </g>
   <g id="patch_5">
    <path d="M 57.6 307.584 
L 414.72 307.584 
" style="fill: none; stroke: #000000; stroke-width: 0.8; stroke-linejoin: miter; stroke-linecap: square"/>
   </g>
   <g id="patch_6">
    <path d="M 57.6 41.472 
L 414.72 41.472 
" style="fill: none; stroke: #000000; stroke-width: 0.8; stroke-linejoin: miter; stroke-linecap: square"/>
   </g>
   <g id="legend_1">
    <g id="patch_7">
     <path d="M 290.62625 78.82825 
L 407.72 78.82825 
Q 409.72 78.82825 409.72 76.82825 
L 409.72 48.472 
Q 409.72 46.472 407.72 46.472 
L 290.62625 46.472 
Q 288.62625 46.472 288.62625 48.472 
L 288.62625 76.82825 
Q 288.62625 78.82825 290.62625 78.82825 
z
" style="fill: #ffffff; opacity: 0.8; stroke: #cccccc; stroke-linejoin: miter"/>
    </g>
    <g id="line2d_18">
     <path d="M 292.62625 54.570437 
L 302.62625 54.570437 
L 312.62625 54.570437 
" style="fill: none; stroke: #1f77b4; stroke-width: 1.5; stroke-linecap: square"/>
    </g>
    <g id="text_18">
     <!-- Minibatch loss -->
     <g transform="translate(320.62625 58.070437) scale(0.1 -0.1)">
      <defs>
       <path id="DejaVuSans-4d" d="M 628 4666 
L 1569 4666 
L 2759 1491 
L 3956 4666 
L 4897 4666 
L 4897 0 
L 4281 0 
L 4281 4097 
L 3078 897 
L 2444 897 
L 1241 4097 
L 1241 0 
L 628 0 
L 628 4666 
z
" transform="scale(0.015625)"/>
       <path id="DejaVuSans-62" d="M 3116 1747 
Q 3116 2381 2855 2742 
Q 2594 3103 2138 3103 
Q 1681 3103 1420 2742 
Q 1159 2381 1159 1747 
Q 1159 1113 1420 752 
Q 1681 391 2138 391 
Q 2594 391 2855 752 
Q 3116 1113 3116 1747 
z
M 1159 2969 
Q 1341 3281 1617 3432 
Q 1894 3584 2278 3584 
Q 2916 3584 3314 3078 
Q 3713 2572 3713 1747 
Q 3713 922 3314 415 
Q 2916 -91 2278 -91 
Q 1894 -91 1617 61 
Q 1341 213 1159 525 
L 1159 0 
L 581 0 
L 581 4863 
L 1159 4863 
L 1159 2969 
z
" transform="scale(0.015625)"/>
       <path id="DejaVuSans-63" d="M 3122 3366 
L 3122 2828 
Q 2878 2963 2633 3030 
Q 2388 3097 2138 3097 
Q 1578 3097 1268 2742 
Q 959 2388 959 1747 
Q 959 1106 1268 751 
Q 1578 397 2138 397 
Q 2388 397 2633 464 
Q 2878 531 3122 666 
L 3122 134 
Q 2881 22 2623 -34 
Q 2366 -91 2075 -91 
Q 1284 -91 818 406 
Q 353 903 353 1747 
Q 353 2603 823 3093 
Q 1294 3584 2113 3584 
Q 2378 3584 2631 3529 
Q 2884 3475 3122 3366 
z
" transform="scale(0.015625)"/>
       <path id="DejaVuSans-68" d="M 3513 2113 
L 3513 0 
L 2938 0 
L 2938 2094 
Q 2938 2591 2744 2837 
Q 2550 3084 2163 3084 
Q 1697 3084 1428 2787 
Q 1159 2491 1159 1978 
L 1159 0 
L 581 0 
L 581 4863 
L 1159 4863 
L 1159 2956 
Q 1366 3272 1645 3428 
Q 1925 3584 2291 3584 
Q 2894 3584 3203 3211 
Q 3513 2838 3513 2113 
z
" transform="scale(0.015625)"/>
       <path id="DejaVuSans-6c" d="M 603 4863 
L 1178 4863 
L 1178 0 
L 603 0 
L 603 4863 
z
" transform="scale(0.015625)"/>
      </defs>
      <use xlink:href="#DejaVuSans-4d"/>
      <use xlink:href="#DejaVuSans-69" x="86.279297"/>
      <use xlink:href="#DejaVuSans-6e" x="114.0625"/>
      <use xlink:href="#DejaVuSans-69" x="177.441406"/>
      <use xlink:href="#DejaVuSans-62" x="205.224609"/>
      <use xlink:href="#DejaVuSans-61" x="268.701172"/>
      <use xlink:href="#DejaVuSans-74" x="329.980469"/>
      <use xlink:href="#DejaVuSans-63" x="369.189453"/>
      <use xlink:href="#DejaVuSans-68" x="424.169922"/>
      <use xlink:href="#DejaVuSans-20" x="487.548828"/>
      <use xlink:href="#DejaVuSans-6c" x="519.335938"/>
      <use xlink:href="#DejaVuSans-6f" x="547.119141"/>
      <use xlink:href="#DejaVuSans-73" x="608.300781"/>
      <use xlink:href="#DejaVuSans-73" x="660.400391"/>
     </g>
    </g>
    <g id="line2d_19">
     <path d="M 292.62625 69.248562 
L 302.62625 69.248562 
L 312.62625 69.248562 
" style="fill: none; stroke: #ff7f0e; stroke-width: 1.5; stroke-linecap: square"/>
    </g>
    <g id="text_19">
     <!-- Running average -->
     <g transform="translate(320.62625 72.748562) scale(0.1 -0.1)">
      <defs>
       <path id="DejaVuSans-52" d="M 2841 2188 
Q 3044 2119 3236 1894 
Q 3428 1669 3622 1275 
L 4263 0 
L 3584 0 
L 2988 1197 
Q 2756 1666 2539 1819 
Q 2322 1972 1947 1972 
L 1259 1972 
L 1259 0 
L 628 0 
L 628 4666 
L 2053 4666 
Q 2853 4666 3247 4331 
Q 3641 3997 3641 3322 
Q 3641 2881 3436 2590 
Q 3231 2300 2841 2188 
z
M 1259 4147 
L 1259 2491 
L 2053 2491 
Q 2509 2491 2742 2702 
Q 2975 2913 2975 3322 
Q 2975 3731 2742 3939 
Q 2509 4147 2053 4147 
L 1259 4147 
z
" transform="scale(0.015625)"/>
       <path id="DejaVuSans-75" d="M 544 1381 
L 544 3500 
L 1119 3500 
L 1119 1403 
Q 1119 906 1312 657 
Q 1506 409 1894 409 
Q 2359 409 2629 706 
Q 2900 1003 2900 1516 
L 2900 3500 
L 3475 3500 
L 3475 0 
L 2900 0 
L 2900 538 
Q 2691 219 2414 64 
Q 2138 -91 1772 -91 
Q 1169 -91 856 284 
Q 544 659 544 1381 
z
M 1991 3584 
L 1991 3584 
z
" transform="scale(0.015625)"/>
       <path id="DejaVuSans-67" d="M 2906 1791 
Q 2906 2416 2648 2759 
Q 2391 3103 1925 3103 
Q 1463 3103 1205 2759 
Q 947 2416 947 1791 
Q 947 1169 1205 825 
Q 1463 481 1925 481 
Q 2391 481 2648 825 
Q 2906 1169 2906 1791 
z
M 3481 434 
Q 3481 -459 3084 -895 
Q 2688 -1331 1869 -1331 
Q 1566 -1331 1297 -1286 
Q 1028 -1241 775 -1147 
L 775 -588 
Q 1028 -725 1275 -790 
Q 1522 -856 1778 -856 
Q 2344 -856 2625 -561 
Q 2906 -266 2906 331 
L 2906 616 
Q 2728 306 2450 153 
Q 2172 0 1784 0 
Q 1141 0 747 490 
Q 353 981 353 1791 
Q 353 2603 747 3093 
Q 1141 3584 1784 3584 
Q 2172 3584 2450 3431 
Q 2728 3278 2906 2969 
L 2906 3500 
L 3481 3500 
L 3481 434 
z
" transform="scale(0.015625)"/>
       <path id="DejaVuSans-76" d="M 191 3500 
L 800 3500 
L 1894 563 
L 2988 3500 
L 3597 3500 
L 2284 0 
L 1503 0 
L 191 3500 
z
" transform="scale(0.015625)"/>
      </defs>
      <use xlink:href="#DejaVuSans-52"/>
      <use xlink:href="#DejaVuSans-75" x="64.982422"/>
      <use xlink:href="#DejaVuSans-6e" x="128.361328"/>
      <use xlink:href="#DejaVuSans-6e" x="191.740234"/>
      <use xlink:href="#DejaVuSans-69" x="255.119141"/>
      <use xlink:href="#DejaVuSans-6e" x="282.902344"/>
      <use xlink:href="#DejaVuSans-67" x="346.28125"/>
      <use xlink:href="#DejaVuSans-20" x="409.757812"/>
      <use xlink:href="#DejaVuSans-61" x="441.544922"/>
      <use xlink:href="#DejaVuSans-76" x="502.824219"/>
      <use xlink:href="#DejaVuSans-65" x="562.003906"/>
      <use xlink:href="#DejaVuSans-72" x="623.527344"/>
      <use xlink:href="#DejaVuSans-61" x="664.640625"/>
      <use xlink:href="#DejaVuSans-67" x="725.919922"/>
      <use xlink:href="#DejaVuSans-65" x="789.396484"/>
     </g>
    </g>
   </g>
  </g>
 </g>
 <defs>
  <clipPath id="p6caa06b178">
   <rect x="57.6" y="41.472" width="357.12" height="266.112"/>
  </clipPath>
 </defs>
</svg>
