<?xml version="1.0" encoding="utf-8" standalone="no"?>
<!DOCTYPE svg PUBLIC "-//W3C//DTD SVG 1.1//EN"
  "http://www.w3.org/Graphics/SVG/1.1/DTD/svg11.dtd">
<svg xmlns:xlink="http://www.w3.org/1999/xlink" width="1080pt" height="360pt" viewBox="0 0 1080 360" xmlns="http://www.w3.org/2000/svg" version="1.1">
 <metadata>
  <rdf:RDF xmlns:dc="http://purl.org/dc/elements/1.1/" xmlns:cc="http://creativecommons.org/ns#" xmlns:rdf="http://www.w3.org/1999/02/22-rdf-syntax-ns#">
   <cc:Work>
    <dc:type rdf:resource="http://purl.org/dc/dcmitype/StillImage"/>
    <dc:date>2024-06-08T10:56:20.102301</dc:date>
    <dc:format>image/svg+xml</dc:format>
    <dc:creator>
     <cc:Agent>
      <dc:title>Matplotlib v3.6.2, https://matplotlib.org/</dc:title>
     </cc:Agent>
    </dc:creator>
   </cc:Work>
  </rdf:RDF>
 </metadata>
 <defs>
  <style type="text/css">*{stroke-linejoin: round; stroke-linecap: butt}</style>
 </defs>
 <g id="figure_1">
  <g id="patch_1">
   <path d="M 0 360 
L 1080 360 
L 1080 0 
L 0 0 
z
" style="fill: #ffffff"/>
  </g>
  <g id="axes_1">
   <g id="patch_2">
    <path d="M 135 320.4 
L 515.454545 320.4 
L 515.454545 43.2 
L 135 43.2 
z
" style="fill: #ffffff"/>
   </g>
   <g id="matplotlib.axis_1">
    <g id="xtick_1">
     <g id="line2d_1">
      <path d="M 152.293388 320.4 
L 152.293388 43.2 
" clip-path="url(#pa4258f8d3a)" style="fill: none; stroke: #b0b0b0; stroke-width: 0.8; stroke-linecap: square"/>
     </g>
     <g id="line2d_2">
      <defs>
       <path id="md3ed25f4d7" d="M 0 0 
L 0 3.5 
" style="stroke: #000000; stroke-width: 0.8"/>
      </defs>
      <g>
       <use xlink:href="#md3ed25f4d7" x="152.293388" y="320.4" style="stroke: #000000; stroke-width: 0.8"/>
      </g>
     </g>
     <g id="text_1">
      <!-- 0 -->
      <g transform="translate(149.112138 334.998438) scale(0.1 -0.1)">
       <defs>
        <path id="DejaVuSans-30" d="M 2034 4250 
Q 1547 4250 1301 3770 
Q 1056 3291 1056 2328 
Q 1056 1369 1301 889 
Q 1547 409 2034 409 
Q 2525 409 2770 889 
Q 3016 1369 3016 2328 
Q 3016 3291 2770 3770 
Q 2525 4250 2034 4250 
z
M 2034 4750 
Q 2819 4750 3233 4129 
Q 3647 3509 3647 2328 
Q 3647 1150 3233 529 
Q 2819 -91 2034 -91 
Q 1250 -91 836 529 
Q 422 1150 422 2328 
Q 422 3509 836 4129 
Q 1250 4750 2034 4750 
z
" transform="scale(0.015625)"/>
       </defs>
       <use xlink:href="#DejaVuSans-30"/>
      </g>
     </g>
    </g>
    <g id="xtick_2">
     <g id="line2d_3">
      <path d="M 226.039181 320.4 
L 226.039181 43.2 
" clip-path="url(#pa4258f8d3a)" style="fill: none; stroke: #b0b0b0; stroke-width: 0.8; stroke-linecap: square"/>
     </g>
     <g id="line2d_4">
      <g>
       <use xlink:href="#md3ed25f4d7" x="226.039181" y="320.4" style="stroke: #000000; stroke-width: 0.8"/>
      </g>
     </g>
     <g id="text_2">
      <!-- 200 -->
      <g transform="translate(216.495431 334.998438) scale(0.1 -0.1)">
       <defs>
        <path id="DejaVuSans-32" d="M 1228 531 
L 3431 531 
L 3431 0 
L 469 0 
L 469 531 
Q 828 903 1448 1529 
Q 2069 2156 2228 2338 
Q 2531 2678 2651 2914 
Q 2772 3150 2772 3378 
Q 2772 3750 2511 3984 
Q 2250 4219 1831 4219 
Q 1534 4219 1204 4116 
Q 875 4013 500 3803 
L 500 4441 
Q 881 4594 1212 4672 
Q 1544 4750 1819 4750 
Q 2544 4750 2975 4387 
Q 3406 4025 3406 3419 
Q 3406 3131 3298 2873 
Q 3191 2616 2906 2266 
Q 2828 2175 2409 1742 
Q 1991 1309 1228 531 
z
" transform="scale(0.015625)"/>
       </defs>
       <use xlink:href="#DejaVuSans-32"/>
       <use xlink:href="#DejaVuSans-30" x="63.623047"/>
       <use xlink:href="#DejaVuSans-30" x="127.246094"/>
      </g>
     </g>
    </g>
    <g id="xtick_3">
     <g id="line2d_5">
      <path d="M 299.784974 320.4 
L 299.784974 43.2 
" clip-path="url(#pa4258f8d3a)" style="fill: none; stroke: #b0b0b0; stroke-width: 0.8; stroke-linecap: square"/>
     </g>
     <g id="line2d_6">
      <g>
       <use xlink:href="#md3ed25f4d7" x="299.784974" y="320.4" style="stroke: #000000; stroke-width: 0.8"/>
      </g>
     </g>
     <g id="text_3">
      <!-- 400 -->
      <g transform="translate(290.241224 334.998438) scale(0.1 -0.1)">
       <defs>
        <path id="DejaVuSans-34" d="M 2419 4116 
L 825 1625 
L 2419 1625 
L 2419 4116 
z
M 2253 4666 
L 3047 4666 
L 3047 1625 
L 3713 1625 
L 3713 1100 
L 3047 1100 
L 3047 0 
L 2419 0 
L 2419 1100 
L 313 1100 
L 313 1709 
L 2253 4666 
z
" transform="scale(0.015625)"/>
       </defs>
       <use xlink:href="#DejaVuSans-34"/>
       <use xlink:href="#DejaVuSans-30" x="63.623047"/>
       <use xlink:href="#DejaVuSans-30" x="127.246094"/>
      </g>
     </g>
    </g>
    <g id="xtick_4">
     <g id="line2d_7">
      <path d="M 373.530767 320.4 
L 373.530767 43.2 
" clip-path="url(#pa4258f8d3a)" style="fill: none; stroke: #b0b0b0; stroke-width: 0.8; stroke-linecap: square"/>
     </g>
     <g id="line2d_8">
      <g>
       <use xlink:href="#md3ed25f4d7" x="373.530767" y="320.4" style="stroke: #000000; stroke-width: 0.8"/>
      </g>
     </g>
     <g id="text_4">
      <!-- 600 -->
      <g transform="translate(363.987017 334.998438) scale(0.1 -0.1)">
       <defs>
        <path id="DejaVuSans-36" d="M 2113 2584 
Q 1688 2584 1439 2293 
Q 1191 2003 1191 1497 
Q 1191 994 1439 701 
Q 1688 409 2113 409 
Q 2538 409 2786 701 
Q 3034 994 3034 1497 
Q 3034 2003 2786 2293 
Q 2538 2584 2113 2584 
z
M 3366 4563 
L 3366 3988 
Q 3128 4100 2886 4159 
Q 2644 4219 2406 4219 
Q 1781 4219 1451 3797 
Q 1122 3375 1075 2522 
Q 1259 2794 1537 2939 
Q 1816 3084 2150 3084 
Q 2853 3084 3261 2657 
Q 3669 2231 3669 1497 
Q 3669 778 3244 343 
Q 2819 -91 2113 -91 
Q 1303 -91 875 529 
Q 447 1150 447 2328 
Q 447 3434 972 4092 
Q 1497 4750 2381 4750 
Q 2619 4750 2861 4703 
Q 3103 4656 3366 4563 
z
" transform="scale(0.015625)"/>
       </defs>
       <use xlink:href="#DejaVuSans-36"/>
       <use xlink:href="#DejaVuSans-30" x="63.623047"/>
       <use xlink:href="#DejaVuSans-30" x="127.246094"/>
      </g>
     </g>
    </g>
    <g id="xtick_5">
     <g id="line2d_9">
      <path d="M 447.27656 320.4 
L 447.27656 43.2 
" clip-path="url(#pa4258f8d3a)" style="fill: none; stroke: #b0b0b0; stroke-width: 0.8; stroke-linecap: square"/>
     </g>
     <g id="line2d_10">
      <g>
       <use xlink:href="#md3ed25f4d7" x="447.27656" y="320.4" style="stroke: #000000; stroke-width: 0.8"/>
      </g>
     </g>
     <g id="text_5">
      <!-- 800 -->
      <g transform="translate(437.73281 334.998438) scale(0.1 -0.1)">
       <defs>
        <path id="DejaVuSans-38" d="M 2034 2216 
Q 1584 2216 1326 1975 
Q 1069 1734 1069 1313 
Q 1069 891 1326 650 
Q 1584 409 2034 409 
Q 2484 409 2743 651 
Q 3003 894 3003 1313 
Q 3003 1734 2745 1975 
Q 2488 2216 2034 2216 
z
M 1403 2484 
Q 997 2584 770 2862 
Q 544 3141 544 3541 
Q 544 4100 942 4425 
Q 1341 4750 2034 4750 
Q 2731 4750 3128 4425 
Q 3525 4100 3525 3541 
Q 3525 3141 3298 2862 
Q 3072 2584 2669 2484 
Q 3125 2378 3379 2068 
Q 3634 1759 3634 1313 
Q 3634 634 3220 271 
Q 2806 -91 2034 -91 
Q 1263 -91 848 271 
Q 434 634 434 1313 
Q 434 1759 690 2068 
Q 947 2378 1403 2484 
z
M 1172 3481 
Q 1172 3119 1398 2916 
Q 1625 2713 2034 2713 
Q 2441 2713 2670 2916 
Q 2900 3119 2900 3481 
Q 2900 3844 2670 4047 
Q 2441 4250 2034 4250 
Q 1625 4250 1398 4047 
Q 1172 3844 1172 3481 
z
" transform="scale(0.015625)"/>
       </defs>
       <use xlink:href="#DejaVuSans-38"/>
       <use xlink:href="#DejaVuSans-30" x="63.623047"/>
       <use xlink:href="#DejaVuSans-30" x="127.246094"/>
      </g>
     </g>
    </g>
    <g id="text_6">
     <!-- Iteration -->
     <g transform="translate(304.018679 348.676562) scale(0.1 -0.1)">
      <defs>
       <path id="DejaVuSans-49" d="M 628 4666 
L 1259 4666 
L 1259 0 
L 628 0 
L 628 4666 
z
" transform="scale(0.015625)"/>
       <path id="DejaVuSans-74" d="M 1172 4494 
L 1172 3500 
L 2356 3500 
L 2356 3053 
L 1172 3053 
L 1172 1153 
Q 1172 725 1289 603 
Q 1406 481 1766 481 
L 2356 481 
L 2356 0 
L 1766 0 
Q 1100 0 847 248 
Q 594 497 594 1153 
L 594 3053 
L 172 3053 
L 172 3500 
L 594 3500 
L 594 4494 
L 1172 4494 
z
" transform="scale(0.015625)"/>
       <path id="DejaVuSans-65" d="M 3597 1894 
L 3597 1613 
L 953 1613 
Q 991 1019 1311 708 
Q 1631 397 2203 397 
Q 2534 397 2845 478 
Q 3156 559 3463 722 
L 3463 178 
Q 3153 47 2828 -22 
Q 2503 -91 2169 -91 
Q 1331 -91 842 396 
Q 353 884 353 1716 
Q 353 2575 817 3079 
Q 1281 3584 2069 3584 
Q 2775 3584 3186 3129 
Q 3597 2675 3597 1894 
z
M 3022 2063 
Q 3016 2534 2758 2815 
Q 2500 3097 2075 3097 
Q 1594 3097 1305 2825 
Q 1016 2553 972 2059 
L 3022 2063 
z
" transform="scale(0.015625)"/>
       <path id="DejaVuSans-72" d="M 2631 2963 
Q 2534 3019 2420 3045 
Q 2306 3072 2169 3072 
Q 1681 3072 1420 2755 
Q 1159 2438 1159 1844 
L 1159 0 
L 581 0 
L 581 3500 
L 1159 3500 
L 1159 2956 
Q 1341 3275 1631 3429 
Q 1922 3584 2338 3584 
Q 2397 3584 2469 3576 
Q 2541 3569 2628 3553 
L 2631 2963 
z
" transform="scale(0.015625)"/>
       <path id="DejaVuSans-61" d="M 2194 1759 
Q 1497 1759 1228 1600 
Q 959 1441 959 1056 
Q 959 750 1161 570 
Q 1363 391 1709 391 
Q 2188 391 2477 730 
Q 2766 1069 2766 1631 
L 2766 1759 
L 2194 1759 
z
M 3341 1997 
L 3341 0 
L 2766 0 
L 2766 531 
Q 2569 213 2275 61 
Q 1981 -91 1556 -91 
Q 1019 -91 701 211 
Q 384 513 384 1019 
Q 384 1609 779 1909 
Q 1175 2209 1959 2209 
L 2766 2209 
L 2766 2266 
Q 2766 2663 2505 2880 
Q 2244 3097 1772 3097 
Q 1472 3097 1187 3025 
Q 903 2953 641 2809 
L 641 3341 
Q 956 3463 1253 3523 
Q 1550 3584 1831 3584 
Q 2591 3584 2966 3190 
Q 3341 2797 3341 1997 
z
" transform="scale(0.015625)"/>
       <path id="DejaVuSans-69" d="M 603 3500 
L 1178 3500 
L 1178 0 
L 603 0 
L 603 3500 
z
M 603 4863 
L 1178 4863 
L 1178 4134 
L 603 4134 
L 603 4863 
z
" transform="scale(0.015625)"/>
       <path id="DejaVuSans-6f" d="M 1959 3097 
Q 1497 3097 1228 2736 
Q 959 2375 959 1747 
Q 959 1119 1226 758 
Q 1494 397 1959 397 
Q 2419 397 2687 759 
Q 2956 1122 2956 1747 
Q 2956 2369 2687 2733 
Q 2419 3097 1959 3097 
z
M 1959 3584 
Q 2709 3584 3137 3096 
Q 3566 2609 3566 1747 
Q 3566 888 3137 398 
Q 2709 -91 1959 -91 
Q 1206 -91 779 398 
Q 353 888 353 1747 
Q 353 2609 779 3096 
Q 1206 3584 1959 3584 
z
" transform="scale(0.015625)"/>
       <path id="DejaVuSans-6e" d="M 3513 2113 
L 3513 0 
L 2938 0 
L 2938 2094 
Q 2938 2591 2744 2837 
Q 2550 3084 2163 3084 
Q 1697 3084 1428 2787 
Q 1159 2491 1159 1978 
L 1159 0 
L 581 0 
L 581 3500 
L 1159 3500 
L 1159 2956 
Q 1366 3272 1645 3428 
Q 1925 3584 2291 3584 
Q 2894 3584 3203 3211 
Q 3513 2838 3513 2113 
z
" transform="scale(0.015625)"/>
      </defs>
      <use xlink:href="#DejaVuSans-49"/>
      <use xlink:href="#DejaVuSans-74" x="29.492188"/>
      <use xlink:href="#DejaVuSans-65" x="68.701172"/>
      <use xlink:href="#DejaVuSans-72" x="130.224609"/>
      <use xlink:href="#DejaVuSans-61" x="171.337891"/>
      <use xlink:href="#DejaVuSans-74" x="232.617188"/>
      <use xlink:href="#DejaVuSans-69" x="271.826172"/>
      <use xlink:href="#DejaVuSans-6f" x="299.609375"/>
      <use xlink:href="#DejaVuSans-6e" x="360.791016"/>
     </g>
    </g>
   </g>
   <g id="matplotlib.axis_2">
    <g id="ytick_1">
     <g id="line2d_11">
      <defs>
       <path id="mbc15180e3e" d="M 0 0 
L -2 0 
" style="stroke: #000000; stroke-width: 0.6"/>
      </defs>
      <g>
       <use xlink:href="#mbc15180e3e" x="135" y="187.090661" style="stroke: #000000; stroke-width: 0.6"/>
      </g>
     </g>
     <g id="text_7">
      <!-- $\mathdefault{2\times10^{0}}$ -->
      <g transform="translate(93.4 190.889879) scale(0.1 -0.1)">
       <defs>
        <path id="DejaVuSans-d7" d="M 4488 3438 
L 3059 2003 
L 4488 575 
L 4116 197 
L 2681 1631 
L 1247 197 
L 878 575 
L 2303 2003 
L 878 3438 
L 1247 3816 
L 2681 2381 
L 4116 3816 
L 4488 3438 
z
" transform="scale(0.015625)"/>
        <path id="DejaVuSans-31" d="M 794 531 
L 1825 531 
L 1825 4091 
L 703 3866 
L 703 4441 
L 1819 4666 
L 2450 4666 
L 2450 531 
L 3481 531 
L 3481 0 
L 794 0 
L 794 531 
z
" transform="scale(0.015625)"/>
       </defs>
       <use xlink:href="#DejaVuSans-32" transform="translate(0 0.765625)"/>
       <use xlink:href="#DejaVuSans-d7" transform="translate(83.105469 0.765625)"/>
       <use xlink:href="#DejaVuSans-31" transform="translate(186.376953 0.765625)"/>
       <use xlink:href="#DejaVuSans-30" transform="translate(250 0.765625)"/>
       <use xlink:href="#DejaVuSans-30" transform="translate(314.580078 39.046875) scale(0.7)"/>
      </g>
     </g>
    </g>
    <g id="ytick_2">
     <g id="line2d_12">
      <g>
       <use xlink:href="#mbc15180e3e" x="135" y="103.117644" style="stroke: #000000; stroke-width: 0.6"/>
      </g>
     </g>
     <g id="text_8">
      <!-- $\mathdefault{3\times10^{0}}$ -->
      <g transform="translate(93.4 106.916862) scale(0.1 -0.1)">
       <defs>
        <path id="DejaVuSans-33" d="M 2597 2516 
Q 3050 2419 3304 2112 
Q 3559 1806 3559 1356 
Q 3559 666 3084 287 
Q 2609 -91 1734 -91 
Q 1441 -91 1130 -33 
Q 819 25 488 141 
L 488 750 
Q 750 597 1062 519 
Q 1375 441 1716 441 
Q 2309 441 2620 675 
Q 2931 909 2931 1356 
Q 2931 1769 2642 2001 
Q 2353 2234 1838 2234 
L 1294 2234 
L 1294 2753 
L 1863 2753 
Q 2328 2753 2575 2939 
Q 2822 3125 2822 3475 
Q 2822 3834 2567 4026 
Q 2313 4219 1838 4219 
Q 1578 4219 1281 4162 
Q 984 4106 628 3988 
L 628 4550 
Q 988 4650 1302 4700 
Q 1616 4750 1894 4750 
Q 2613 4750 3031 4423 
Q 3450 4097 3450 3541 
Q 3450 3153 3228 2886 
Q 3006 2619 2597 2516 
z
" transform="scale(0.015625)"/>
       </defs>
       <use xlink:href="#DejaVuSans-33" transform="translate(0 0.765625)"/>
       <use xlink:href="#DejaVuSans-d7" transform="translate(83.105469 0.765625)"/>
       <use xlink:href="#DejaVuSans-31" transform="translate(186.376953 0.765625)"/>
       <use xlink:href="#DejaVuSans-30" transform="translate(250 0.765625)"/>
       <use xlink:href="#DejaVuSans-30" transform="translate(314.580078 39.046875) scale(0.7)"/>
      </g>
     </g>
    </g>
    <g id="ytick_3">
     <g id="line2d_13">
      <g>
       <use xlink:href="#mbc15180e3e" x="135" y="43.53784" style="stroke: #000000; stroke-width: 0.6"/>
      </g>
     </g>
     <g id="text_9">
      <!-- $\mathdefault{4\times10^{0}}$ -->
      <g transform="translate(93.4 47.337058) scale(0.1 -0.1)">
       <use xlink:href="#DejaVuSans-34" transform="translate(0 0.765625)"/>
       <use xlink:href="#DejaVuSans-d7" transform="translate(83.105469 0.765625)"/>
       <use xlink:href="#DejaVuSans-31" transform="translate(186.376953 0.765625)"/>
       <use xlink:href="#DejaVuSans-30" transform="translate(250 0.765625)"/>
       <use xlink:href="#DejaVuSans-30" transform="translate(314.580078 39.046875) scale(0.7)"/>
      </g>
     </g>
    </g>
    <g id="text_10">
     <!-- Cross Entropy Loss -->
     <g transform="translate(87.320312 229.072656) rotate(-90) scale(0.1 -0.1)">
      <defs>
       <path id="DejaVuSans-43" d="M 4122 4306 
L 4122 3641 
Q 3803 3938 3442 4084 
Q 3081 4231 2675 4231 
Q 1875 4231 1450 3742 
Q 1025 3253 1025 2328 
Q 1025 1406 1450 917 
Q 1875 428 2675 428 
Q 3081 428 3442 575 
Q 3803 722 4122 1019 
L 4122 359 
Q 3791 134 3420 21 
Q 3050 -91 2638 -91 
Q 1578 -91 968 557 
Q 359 1206 359 2328 
Q 359 3453 968 4101 
Q 1578 4750 2638 4750 
Q 3056 4750 3426 4639 
Q 3797 4528 4122 4306 
z
" transform="scale(0.015625)"/>
       <path id="DejaVuSans-73" d="M 2834 3397 
L 2834 2853 
Q 2591 2978 2328 3040 
Q 2066 3103 1784 3103 
Q 1356 3103 1142 2972 
Q 928 2841 928 2578 
Q 928 2378 1081 2264 
Q 1234 2150 1697 2047 
L 1894 2003 
Q 2506 1872 2764 1633 
Q 3022 1394 3022 966 
Q 3022 478 2636 193 
Q 2250 -91 1575 -91 
Q 1294 -91 989 -36 
Q 684 19 347 128 
L 347 722 
Q 666 556 975 473 
Q 1284 391 1588 391 
Q 1994 391 2212 530 
Q 2431 669 2431 922 
Q 2431 1156 2273 1281 
Q 2116 1406 1581 1522 
L 1381 1569 
Q 847 1681 609 1914 
Q 372 2147 372 2553 
Q 372 3047 722 3315 
Q 1072 3584 1716 3584 
Q 2034 3584 2315 3537 
Q 2597 3491 2834 3397 
z
" transform="scale(0.015625)"/>
       <path id="DejaVuSans-20" transform="scale(0.015625)"/>
       <path id="DejaVuSans-45" d="M 628 4666 
L 3578 4666 
L 3578 4134 
L 1259 4134 
L 1259 2753 
L 3481 2753 
L 3481 2222 
L 1259 2222 
L 1259 531 
L 3634 531 
L 3634 0 
L 628 0 
L 628 4666 
z
" transform="scale(0.015625)"/>
       <path id="DejaVuSans-70" d="M 1159 525 
L 1159 -1331 
L 581 -1331 
L 581 3500 
L 1159 3500 
L 1159 2969 
Q 1341 3281 1617 3432 
Q 1894 3584 2278 3584 
Q 2916 3584 3314 3078 
Q 3713 2572 3713 1747 
Q 3713 922 3314 415 
Q 2916 -91 2278 -91 
Q 1894 -91 1617 61 
Q 1341 213 1159 525 
z
M 3116 1747 
Q 3116 2381 2855 2742 
Q 2594 3103 2138 3103 
Q 1681 3103 1420 2742 
Q 1159 2381 1159 1747 
Q 1159 1113 1420 752 
Q 1681 391 2138 391 
Q 2594 391 2855 752 
Q 3116 1113 3116 1747 
z
" transform="scale(0.015625)"/>
       <path id="DejaVuSans-79" d="M 2059 -325 
Q 1816 -950 1584 -1140 
Q 1353 -1331 966 -1331 
L 506 -1331 
L 506 -850 
L 844 -850 
Q 1081 -850 1212 -737 
Q 1344 -625 1503 -206 
L 1606 56 
L 191 3500 
L 800 3500 
L 1894 763 
L 2988 3500 
L 3597 3500 
L 2059 -325 
z
" transform="scale(0.015625)"/>
       <path id="DejaVuSans-4c" d="M 628 4666 
L 1259 4666 
L 1259 531 
L 3531 531 
L 3531 0 
L 628 0 
L 628 4666 
z
" transform="scale(0.015625)"/>
      </defs>
      <use xlink:href="#DejaVuSans-43"/>
      <use xlink:href="#DejaVuSans-72" x="69.824219"/>
      <use xlink:href="#DejaVuSans-6f" x="108.6875"/>
      <use xlink:href="#DejaVuSans-73" x="169.869141"/>
      <use xlink:href="#DejaVuSans-73" x="221.96875"/>
      <use xlink:href="#DejaVuSans-20" x="274.068359"/>
      <use xlink:href="#DejaVuSans-45" x="305.855469"/>
      <use xlink:href="#DejaVuSans-6e" x="369.039062"/>
      <use xlink:href="#DejaVuSans-74" x="432.417969"/>
      <use xlink:href="#DejaVuSans-72" x="471.626953"/>
      <use xlink:href="#DejaVuSans-6f" x="510.490234"/>
      <use xlink:href="#DejaVuSans-70" x="571.671875"/>
      <use xlink:href="#DejaVuSans-79" x="635.148438"/>
      <use xlink:href="#DejaVuSans-20" x="694.328125"/>
      <use xlink:href="#DejaVuSans-4c" x="726.115234"/>
      <use xlink:href="#DejaVuSans-6f" x="780.078125"/>
      <use xlink:href="#DejaVuSans-73" x="841.259766"/>
      <use xlink:href="#DejaVuSans-73" x="893.359375"/>
     </g>
    </g>
   </g>
   <g id="line2d_14">
    <path d="M 152.293388 149.832963 
L 152.662117 127.762216 
L 153.030846 117.58229 
L 153.399575 119.732648 
L 153.768304 121.150417 
L 154.137033 101.756567 
L 154.505762 93.784409 
L 154.874491 56.307104 
L 155.24322 55.8 
L 155.611949 75.815159 
L 155.980678 86.431036 
L 156.349407 62.540052 
L 156.718136 76.286321 
L 157.086865 63.794808 
L 157.824323 91.145166 
L 158.193052 74.795448 
L 158.561781 68.829355 
L 158.93051 106.492753 
L 159.667968 55.880734 
L 160.036697 70.678444 
L 160.405426 68.547789 
L 160.774155 120.215099 
L 161.142884 131.449538 
L 161.511613 93.951144 
L 161.880342 130.718823 
L 162.24907 137.468777 
L 162.617799 108.278474 
L 163.355257 117.921513 
L 163.723986 102.089206 
L 164.092715 134.820003 
L 164.461444 96.957475 
L 164.830173 124.147158 
L 165.198902 122.826228 
L 165.567631 144.707228 
L 165.93636 144.519397 
L 166.305089 132.88053 
L 166.673818 134.538282 
L 167.042547 114.791347 
L 167.411276 105.487063 
L 167.780005 121.335109 
L 168.148734 129.132222 
L 168.517463 129.878551 
L 168.886192 123.586598 
L 169.254921 124.521003 
L 169.62365 127.545498 
L 169.992379 118.103347 
L 170.361108 126.604144 
L 170.729837 127.428321 
L 171.098566 145.394121 
L 171.467295 140.001277 
L 171.836024 148.469244 
L 172.204753 134.673852 
L 172.573481 157.596822 
L 172.94221 132.010284 
L 173.310939 157.480269 
L 173.679668 143.195183 
L 174.048397 153.030794 
L 174.417126 140.007591 
L 174.785855 148.117961 
L 175.154584 173.247843 
L 175.523313 137.698822 
L 175.892042 156.990714 
L 176.260771 169.10436 
L 176.6295 154.872071 
L 176.998229 168.694756 
L 177.366958 159.078499 
L 177.735687 168.031396 
L 178.104416 157.244303 
L 178.473145 158.242443 
L 178.841874 177.170837 
L 179.579332 157.209657 
L 179.948061 152.823734 
L 180.31679 174.634319 
L 181.054248 167.626469 
L 181.422977 173.041754 
L 181.791706 164.1173 
L 182.529164 178.1748 
L 182.897892 176.645356 
L 183.266621 174.405853 
L 183.63535 176.255463 
L 184.004079 154.912268 
L 184.372808 178.305498 
L 184.741537 179.488648 
L 185.110266 172.891696 
L 185.478995 176.498998 
L 185.847724 176.608809 
L 186.216453 179.197865 
L 186.585182 175.225532 
L 186.953911 184.848208 
L 187.32264 177.608536 
L 187.691369 185.581429 
L 188.060098 165.872296 
L 188.428827 171.982239 
L 188.797556 174.550274 
L 189.535014 175.362196 
L 189.903743 183.796238 
L 190.272472 178.138976 
L 190.641201 150.704869 
L 191.00993 174.126405 
L 191.378659 183.503279 
L 191.747388 176.353541 
L 192.116117 183.643017 
L 192.484846 164.867082 
L 192.853575 187.733326 
L 193.222303 193.135177 
L 193.591032 154.286053 
L 193.959761 182.351274 
L 194.32849 168.061235 
L 194.697219 183.103347 
L 195.065948 173.349243 
L 195.434677 183.831086 
L 195.803406 173.328636 
L 196.172135 178.731116 
L 196.540864 180.216813 
L 196.909593 188.782263 
L 197.278322 177.743809 
L 197.647051 190.392751 
L 198.01578 180.286969 
L 198.384509 183.861224 
L 198.753238 170.132428 
L 199.121967 194.758218 
L 199.859425 172.735158 
L 200.228154 191.935616 
L 200.596883 184.40017 
L 200.965612 188.015595 
L 201.334341 198.773398 
L 201.70307 182.979873 
L 202.071799 189.167262 
L 202.440528 183.148082 
L 203.177986 186.63674 
L 203.546714 192.756616 
L 203.915443 195.721722 
L 204.284172 180.102519 
L 204.652901 179.037011 
L 205.02163 187.410254 
L 205.390359 179.7252 
L 205.759088 194.827813 
L 206.496546 175.815093 
L 206.865275 196.582905 
L 207.234004 189.573142 
L 207.602733 193.335518 
L 207.971462 171.908165 
L 208.340191 195.967974 
L 208.70892 193.890146 
L 209.077649 176.800579 
L 209.446378 201.930248 
L 209.815107 183.973819 
L 210.183836 206.438324 
L 210.552565 219.100201 
L 210.921294 180.020925 
L 211.290023 195.589966 
L 211.658752 197.679874 
L 212.027481 186.839976 
L 212.39621 185.631777 
L 212.764939 203.623199 
L 213.133668 192.061779 
L 213.502397 188.694976 
L 213.871125 202.115578 
L 214.239854 172.577013 
L 214.608583 210.282443 
L 214.977312 204.5453 
L 215.346041 188.076262 
L 215.71477 206.329955 
L 216.083499 185.014398 
L 216.452228 203.866919 
L 216.820957 234.038927 
L 217.558415 188.332696 
L 217.927144 193.448013 
L 218.295873 192.60821 
L 218.664602 220.266529 
L 219.033331 201.720919 
L 219.40206 192.941645 
L 219.770789 197.834691 
L 220.139518 187.307256 
L 220.508247 193.777487 
L 220.876976 206.650349 
L 221.245705 188.617537 
L 221.614434 185.70102 
L 221.983163 192.801506 
L 222.351892 180.605796 
L 222.720621 202.070958 
L 223.08935 202.929398 
L 223.458079 191.257315 
L 223.826808 203.689084 
L 224.195536 185.606161 
L 224.564265 201.054789 
L 224.932994 187.790207 
L 225.301723 183.642604 
L 226.039181 207.3044 
L 226.40791 197.626315 
L 226.776639 194.880063 
L 227.145368 201.303859 
L 227.514097 217.518501 
L 227.882826 194.211024 
L 228.989013 209.633221 
L 229.357742 188.611581 
L 229.726471 214.7789 
L 230.0952 214.674201 
L 230.463929 184.919804 
L 230.832658 188.780595 
L 231.201387 180.947476 
L 231.570116 224.575306 
L 231.938845 207.898301 
L 232.307574 207.137338 
L 232.676303 217.486376 
L 233.045032 219.761164 
L 233.413761 205.042126 
L 233.78249 201.877966 
L 234.151219 181.574779 
L 234.519947 196.620825 
L 234.888676 199.124662 
L 235.257405 193.851881 
L 235.626134 209.429356 
L 235.994863 214.02194 
L 236.363592 210.565874 
L 236.732321 193.985445 
L 237.10105 196.366257 
L 237.469779 212.124555 
L 237.838508 214.71296 
L 238.207237 213.101437 
L 238.575966 189.866276 
L 238.944695 221.568968 
L 239.313424 210.364957 
L 239.682153 207.569527 
L 240.050882 220.728676 
L 240.419611 207.887546 
L 240.78834 205.423951 
L 241.157069 210.673385 
L 241.525798 194.682115 
L 241.894527 211.67904 
L 242.263256 217.759089 
L 242.631985 207.962407 
L 243.000714 221.28208 
L 243.369443 205.593226 
L 243.738172 198.09844 
L 244.106901 205.694782 
L 244.47563 225.487662 
L 244.844358 208.666208 
L 245.213087 226.333651 
L 245.581816 206.083334 
L 245.950545 206.905334 
L 246.319274 231.062011 
L 246.688003 201.849476 
L 247.056732 190.79653 
L 247.425461 208.096811 
L 247.79419 219.668855 
L 248.162919 211.230486 
L 248.531648 214.024864 
L 248.900377 209.086516 
L 249.269106 211.557447 
L 250.006564 210.912434 
L 250.375293 208.82642 
L 250.744022 192.86952 
L 251.112751 217.730762 
L 251.48148 201.197601 
L 251.850209 220.421778 
L 252.218938 209.85028 
L 252.587667 219.377877 
L 252.956396 209.568129 
L 253.693854 222.86599 
L 254.062583 219.69843 
L 254.800041 208.456915 
L 255.168769 229.284466 
L 255.537498 206.433838 
L 255.906227 213.36975 
L 256.274956 203.642774 
L 256.643685 206.942081 
L 257.012414 215.156023 
L 257.381143 217.600515 
L 257.749872 209.335037 
L 258.118601 226.542273 
L 258.48733 205.985604 
L 258.856059 210.847755 
L 259.224788 207.954229 
L 259.593517 223.042789 
L 259.962246 220.506199 
L 260.330975 212.697466 
L 260.699704 234.816767 
L 261.068433 212.527422 
L 261.437162 225.213386 
L 261.805891 205.275433 
L 262.17462 207.286095 
L 262.543349 213.973528 
L 262.912078 202.372612 
L 263.280807 231.84402 
L 263.649536 214.336585 
L 264.018265 208.882077 
L 264.386994 236.495345 
L 264.755723 214.992763 
L 265.124452 207.957178 
L 265.49318 223.067681 
L 265.861909 242.935937 
L 266.230638 219.170147 
L 266.599367 216.941397 
L 266.968096 212.412668 
L 267.336825 220.396434 
L 267.705554 220.118853 
L 268.074283 230.095253 
L 268.443012 214.118573 
L 268.811741 219.760716 
L 269.18047 214.493058 
L 269.549199 204.814944 
L 269.917928 222.191316 
L 270.286657 215.050513 
L 270.655386 218.684643 
L 271.024115 216.901792 
L 271.392844 213.264921 
L 272.130302 222.556365 
L 272.499031 207.221926 
L 272.86776 219.860368 
L 273.236489 219.742852 
L 273.605218 231.864936 
L 273.973947 201.032645 
L 274.342676 236.763302 
L 274.711405 213.227189 
L 275.080134 215.509535 
L 275.448863 216.932643 
L 275.817591 235.128275 
L 276.18632 192.698367 
L 276.555049 231.582272 
L 276.923778 230.597782 
L 277.292507 209.511158 
L 277.661236 221.558573 
L 278.029965 213.071417 
L 279.136152 239.987958 
L 279.504881 217.805129 
L 279.87361 230.185398 
L 280.242339 229.499022 
L 280.611068 221.880682 
L 280.979797 226.739251 
L 281.348526 246.573033 
L 281.717255 208.620826 
L 282.085984 195.959651 
L 282.454713 216.126537 
L 282.823442 214.993046 
L 283.192171 216.548274 
L 283.5609 216.476234 
L 283.929629 225.835397 
L 284.298358 217.198945 
L 284.667087 231.481361 
L 285.035816 229.358165 
L 285.404545 225.518258 
L 285.773274 212.717415 
L 286.142003 217.635591 
L 286.510731 226.720775 
L 286.87946 225.951956 
L 287.248189 236.207625 
L 287.616918 234.891094 
L 287.985647 207.276637 
L 288.354376 225.480292 
L 288.723105 217.493867 
L 289.091834 241.348418 
L 289.460563 248.116873 
L 289.829292 216.200743 
L 290.198021 217.487476 
L 290.56675 232.874314 
L 290.935479 203.316102 
L 291.304208 231.714927 
L 291.672937 239.384225 
L 292.041666 235.306359 
L 292.410395 215.447793 
L 293.147853 240.334674 
L 293.516582 236.770331 
L 294.25404 211.601142 
L 294.622769 207.790202 
L 294.991498 231.427208 
L 295.360227 216.17108 
L 295.728956 229.648359 
L 296.097685 217.387073 
L 297.203871 226.937898 
L 297.5726 239.877484 
L 297.941329 248.226078 
L 298.310058 232.069084 
L 298.678787 197.862295 
L 299.047516 216.874936 
L 299.416245 220.074857 
L 299.784974 245.366936 
L 300.153703 229.174685 
L 300.522432 227.298002 
L 300.891161 224.674772 
L 301.25989 206.935805 
L 301.997348 241.704058 
L 302.366077 219.499112 
L 302.734806 210.834783 
L 303.103535 215.072116 
L 303.840993 243.075375 
L 304.209722 226.814652 
L 304.578451 219.822268 
L 304.94718 215.003526 
L 305.315909 227.706788 
L 305.684638 216.738759 
L 306.053367 223.682889 
L 306.422096 222.448511 
L 306.790825 222.899386 
L 307.159553 216.030354 
L 307.528282 226.980712 
L 307.897011 219.198325 
L 308.26574 220.193214 
L 308.634469 231.813869 
L 309.003198 215.554101 
L 309.371927 231.298313 
L 309.740656 228.480082 
L 310.109385 227.945802 
L 310.478114 210.808329 
L 310.846843 223.842873 
L 311.215572 226.060995 
L 311.584301 223.695041 
L 311.95303 229.531217 
L 312.321759 227.833301 
L 312.690488 231.107365 
L 313.059217 229.427242 
L 313.427946 220.845998 
L 313.796675 256.32251 
L 314.165404 253.813924 
L 314.534133 239.019313 
L 314.902862 239.210492 
L 315.271591 233.0231 
L 315.64032 236.080272 
L 316.009049 250.515956 
L 316.377778 231.192118 
L 316.746507 235.548415 
L 317.115236 226.590458 
L 317.483964 257.103492 
L 317.852693 228.528675 
L 318.221422 236.791421 
L 318.590151 235.690191 
L 318.95888 228.657335 
L 319.327609 238.643279 
L 319.696338 222.401792 
L 320.065067 233.836356 
L 320.433796 227.615959 
L 321.171254 225.915905 
L 321.539983 229.099357 
L 321.908712 230.775242 
L 322.277441 244.942219 
L 322.64617 216.597505 
L 323.014899 234.023768 
L 323.383628 233.496371 
L 323.752357 235.33855 
L 324.121086 230.03452 
L 324.489815 243.561218 
L 324.858544 238.581222 
L 325.227273 246.347148 
L 325.596002 242.919628 
L 325.964731 238.017811 
L 326.33346 224.916474 
L 326.702189 228.32565 
L 327.070918 239.65065 
L 327.439647 232.628886 
L 327.808375 233.718059 
L 328.177104 234.257663 
L 328.545833 211.139947 
L 328.914562 233.264229 
L 329.283291 221.274655 
L 329.65202 233.910718 
L 330.020749 239.020392 
L 330.389478 227.521028 
L 330.758207 238.547383 
L 331.126936 231.767884 
L 331.495665 238.628903 
L 331.864394 251.870869 
L 332.233123 216.244477 
L 332.601852 238.668218 
L 333.33931 218.626404 
L 333.708039 244.404934 
L 334.445497 226.910038 
L 334.814226 223.599402 
L 335.182955 240.611965 
L 335.551684 227.351026 
L 335.920413 239.49132 
L 336.289142 236.495972 
L 336.657871 243.212575 
L 337.0266 239.484182 
L 337.395329 252.079463 
L 338.132786 226.011086 
L 338.501515 232.22704 
L 338.870244 247.761326 
L 339.238973 245.304924 
L 339.607702 233.993715 
L 339.976431 237.380424 
L 340.34516 242.761834 
L 340.713889 223.336113 
L 341.082618 237.118143 
L 341.451347 229.499219 
L 341.820076 240.988727 
L 342.188805 232.010254 
L 342.557534 250.202171 
L 342.926263 236.40675 
L 343.294992 244.192312 
L 343.663721 223.295825 
L 344.03245 214.968555 
L 344.401179 251.122974 
L 344.769908 231.564522 
L 345.138637 249.031927 
L 345.507366 231.123107 
L 345.876095 243.755762 
L 346.244824 230.4696 
L 346.613553 239.152725 
L 346.982282 235.844826 
L 347.351011 245.299741 
L 347.71974 218.788023 
L 348.088469 238.701981 
L 348.457197 218.061504 
L 348.825926 232.862411 
L 349.194655 240.943013 
L 349.563384 232.623996 
L 349.932113 255.190607 
L 350.300842 231.453556 
L 350.669571 232.479584 
L 351.0383 222.522468 
L 351.407029 225.513681 
L 351.775758 240.858321 
L 352.144487 262.835491 
L 352.513216 244.208544 
L 352.881945 254.377873 
L 353.250674 220.493173 
L 353.988132 248.682833 
L 354.356861 248.822969 
L 354.72559 241.104586 
L 355.094319 243.602844 
L 355.463048 249.468225 
L 355.831777 225.467306 
L 356.200506 254.140792 
L 356.569235 268.40094 
L 356.937964 250.838932 
L 357.306693 227.195576 
L 357.675422 238.79562 
L 358.044151 233.352014 
L 358.41288 223.189656 
L 358.781608 220.199369 
L 359.150337 243.682274 
L 359.887795 233.941687 
L 360.256524 238.616491 
L 360.625253 253.013879 
L 360.993982 258.864474 
L 361.362711 225.361712 
L 362.100169 252.841508 
L 362.468898 258.061567 
L 362.837627 256.90484 
L 363.206356 223.935838 
L 363.575085 247.653639 
L 363.943814 251.750482 
L 364.312543 227.14045 
L 364.681272 253.508852 
L 365.050001 244.790755 
L 365.41873 242.65029 
L 365.787459 222.986849 
L 366.156188 241.111829 
L 366.524917 246.689015 
L 366.893646 258.05981 
L 367.262375 233.534229 
L 367.631104 225.447621 
L 367.999833 263.974074 
L 368.368562 236.166803 
L 368.737291 226.254369 
L 369.106019 236.425829 
L 369.474748 228.793519 
L 369.843477 197.135632 
L 370.212206 256.014153 
L 370.580935 232.638361 
L 370.949664 246.833127 
L 371.318393 221.990155 
L 372.055851 248.9513 
L 372.42458 246.154737 
L 372.793309 236.321262 
L 373.162038 245.343401 
L 373.530767 245.545831 
L 373.899496 256.858414 
L 374.268225 248.118497 
L 374.636954 248.714297 
L 375.005683 239.283491 
L 375.374412 237.43784 
L 375.743141 261.974305 
L 376.11187 265.64491 
L 376.849328 231.489773 
L 377.218057 256.377475 
L 377.586786 256.092892 
L 377.955515 266.989562 
L 378.324244 249.668567 
L 378.692973 256.543165 
L 379.061702 234.695362 
L 379.43043 225.633939 
L 379.799159 259.523537 
L 380.167888 243.077526 
L 380.536617 249.569232 
L 380.905346 261.843988 
L 381.274075 241.275586 
L 381.642804 277.060919 
L 382.011533 204.98103 
L 382.380262 252.32485 
L 382.748991 238.092995 
L 383.11772 248.03314 
L 383.486449 240.019514 
L 383.855178 252.570545 
L 384.223907 248.109249 
L 384.592636 249.689643 
L 384.961365 255.325641 
L 385.330094 252.265995 
L 385.698823 240.949129 
L 386.067552 234.919566 
L 386.436281 247.136748 
L 386.80501 240.359259 
L 387.173739 245.899723 
L 387.542468 279.003053 
L 387.911197 240.406856 
L 388.279926 266.848993 
L 388.648655 241.263656 
L 389.017384 258.073462 
L 389.386113 237.369408 
L 389.754841 260.937493 
L 390.12357 252.577048 
L 390.492299 253.489068 
L 391.229757 243.07882 
L 391.598486 243.722106 
L 391.967215 243.328551 
L 392.335944 253.899602 
L 392.704673 233.693276 
L 393.073402 242.388767 
L 393.442131 242.122968 
L 393.81086 249.919238 
L 394.179589 211.442492 
L 394.548318 260.62538 
L 394.917047 241.816669 
L 395.285776 256.152741 
L 395.654505 248.716009 
L 396.023234 247.749396 
L 396.391963 241.79863 
L 397.129421 259.211902 
L 397.49815 248.704739 
L 397.866879 243.740004 
L 398.235608 241.177374 
L 398.604337 242.518463 
L 398.973066 264.975277 
L 399.341795 243.545167 
L 399.710524 273.082028 
L 400.079252 240.788765 
L 400.447981 225.636898 
L 400.81671 228.084513 
L 401.185439 255.016604 
L 401.554168 257.93506 
L 401.922897 237.281021 
L 402.291626 235.636081 
L 402.660355 240.207312 
L 403.029084 254.885368 
L 403.397813 236.771885 
L 403.766542 248.894445 
L 404.135271 252.742741 
L 404.504 276.708695 
L 404.872729 251.932515 
L 405.241458 249.381025 
L 405.610187 263.880263 
L 405.978916 239.912576 
L 406.347645 238.940732 
L 406.716374 247.870773 
L 407.085103 263.481503 
L 407.453832 264.856571 
L 407.822561 251.893874 
L 408.19129 264.738867 
L 408.560019 246.553984 
L 408.928748 250.86787 
L 409.297477 249.03151 
L 409.666206 238.69126 
L 410.034935 252.756504 
L 410.403664 242.37387 
L 410.772392 264.57812 
L 411.141121 258.114699 
L 411.50985 228.977856 
L 411.878579 236.716692 
L 412.247308 252.67987 
L 412.616037 260.003983 
L 412.984766 258.931014 
L 413.353495 242.330831 
L 413.722224 273.650659 
L 414.090953 251.157519 
L 414.459682 236.610269 
L 414.828411 248.633827 
L 415.19714 245.223758 
L 415.565869 255.281558 
L 415.934598 253.590847 
L 416.672056 247.288865 
L 417.040785 240.718193 
L 417.409514 268.78034 
L 417.778243 259.263651 
L 418.146972 237.343775 
L 418.88443 271.733122 
L 419.253159 255.7996 
L 419.621888 248.122873 
L 419.990617 259.919146 
L 420.359346 251.540551 
L 420.728075 246.025156 
L 421.096803 255.889407 
L 421.465532 271.662302 
L 421.834261 237.077408 
L 422.20299 256.63295 
L 422.940448 269.238554 
L 423.309177 258.370638 
L 423.677906 273.777743 
L 424.046635 254.441654 
L 424.415364 286.903034 
L 424.784093 261.89941 
L 425.152822 269.850829 
L 425.521551 257.101172 
L 425.89028 232.718064 
L 426.259009 259.313262 
L 426.627738 262.857469 
L 426.996467 246.335925 
L 427.365196 258.599136 
L 427.733925 255.792513 
L 428.102654 247.977115 
L 428.471383 254.816673 
L 428.840112 248.471504 
L 429.208841 246.011473 
L 429.57757 250.659922 
L 429.946299 242.218505 
L 430.315028 251.271788 
L 430.683757 269.49826 
L 431.052486 242.850701 
L 431.421214 251.518528 
L 432.158672 234.077195 
L 432.527401 282.09674 
L 432.89613 250.136502 
L 433.264859 262.381499 
L 433.633588 280.227273 
L 434.002317 247.388516 
L 434.371046 259.776368 
L 434.739775 261.548544 
L 435.108504 237.064476 
L 435.477233 244.791277 
L 435.845962 237.710583 
L 436.214691 255.420308 
L 436.58342 251.518057 
L 436.952149 245.825864 
L 437.320878 243.30549 
L 437.689607 256.464669 
L 438.058336 239.973201 
L 438.427065 262.735364 
L 438.795794 241.343622 
L 439.164523 267.8996 
L 439.533252 258.873394 
L 439.901981 230.981233 
L 440.639439 267.466081 
L 441.008168 256.758024 
L 441.376897 258.027381 
L 441.745625 260.033843 
L 442.114354 240.436992 
L 442.483083 252.43963 
L 442.851812 249.021638 
L 443.220541 257.261276 
L 443.58927 242.070806 
L 443.957999 246.035756 
L 444.326728 273.764254 
L 445.064186 241.08818 
L 445.432915 241.853185 
L 445.801644 298.172586 
L 446.170373 245.117203 
L 446.539102 244.359371 
L 446.907831 231.091778 
L 447.27656 246.725264 
L 447.645289 249.445288 
L 448.014018 275.685441 
L 448.382747 233.665281 
L 448.751476 258.195215 
L 449.120205 252.56875 
L 449.488934 259.726681 
L 449.857663 263.463313 
L 450.226392 240.881864 
L 450.96385 270.044852 
L 451.332579 245.490066 
L 451.701308 267.349285 
L 452.070036 236.966983 
L 452.438765 268.562488 
L 452.807494 253.085526 
L 453.544952 274.204933 
L 453.913681 270.236548 
L 454.28241 267.751725 
L 454.651139 229.607172 
L 455.388597 275.470875 
L 455.757326 251.038554 
L 456.126055 283.280782 
L 456.494784 255.781264 
L 456.863513 257.744135 
L 457.232242 285.274622 
L 457.600971 267.040622 
L 457.9697 258.241733 
L 458.338429 258.939204 
L 458.707158 253.890893 
L 459.075887 268.303678 
L 459.813345 245.483733 
L 460.550803 278.830984 
L 460.919532 257.725158 
L 461.288261 251.50414 
L 461.65699 259.386824 
L 462.025719 259.264404 
L 462.394447 231.587338 
L 462.763176 272.710873 
L 463.131905 246.535873 
L 463.500634 274.302619 
L 463.869363 272.574333 
L 464.238092 263.602674 
L 464.606821 271.041435 
L 464.97555 258.811532 
L 465.344279 277.998909 
L 465.713008 230.623142 
L 466.081737 278.981544 
L 466.450466 237.756882 
L 466.819195 273.022353 
L 467.187924 267.516749 
L 467.556653 294.878222 
L 467.925382 271.016775 
L 468.294111 307.8 
L 468.66284 281.675641 
L 469.031569 236.257736 
L 469.400298 270.212943 
L 469.769027 281.520793 
L 470.137756 267.248007 
L 470.506485 289.924409 
L 470.875214 254.949682 
L 471.243943 246.562653 
L 471.612672 231.613171 
L 471.981401 264.152278 
L 472.35013 270.986306 
L 472.718858 268.470727 
L 473.087587 273.330633 
L 473.456316 248.564385 
L 473.825045 279.839412 
L 474.562503 258.525487 
L 474.931232 254.862456 
L 475.299961 285.60244 
L 475.66869 268.668658 
L 476.037419 242.552085 
L 476.774877 264.932705 
L 477.143606 265.228428 
L 477.512335 272.749082 
L 477.881064 267.421774 
L 478.249793 256.218812 
L 478.618522 267.515912 
L 478.987251 270.14006 
L 479.35598 266.065031 
L 479.724709 255.716382 
L 480.093438 282.643784 
L 480.462167 254.222799 
L 480.830896 281.127219 
L 481.199625 254.888913 
L 481.568354 274.617276 
L 481.937083 270.064771 
L 482.305812 271.461435 
L 482.674541 269.053096 
L 483.043269 275.498474 
L 483.411998 266.969464 
L 483.780727 281.798484 
L 484.149456 260.04759 
L 484.518185 270.036579 
L 484.886914 288.992911 
L 485.255643 293.889739 
L 485.993101 265.723409 
L 486.36183 295.093416 
L 486.730559 243.715583 
L 487.099288 244.969446 
L 487.468017 273.959558 
L 487.836746 252.063548 
L 488.205475 297.719136 
L 488.574204 275.135355 
L 488.942933 272.123017 
L 489.311662 267.191643 
L 489.680391 270.792269 
L 490.04912 270.349835 
L 490.417849 242.828921 
L 490.786578 260.721515 
L 491.155307 284.0833 
L 491.524036 268.918341 
L 491.892765 246.93457 
L 492.261494 250.853913 
L 492.630223 286.531488 
L 492.998952 271.306898 
L 493.36768 272.91589 
L 493.736409 276.396109 
L 494.105138 276.573658 
L 494.473867 266.897297 
L 494.842596 265.619351 
L 495.211325 241.378915 
L 495.580054 248.909435 
L 495.948783 267.359761 
L 496.317512 236.752492 
L 496.686241 270.515385 
L 497.05497 253.150235 
L 497.423699 285.024795 
L 497.792428 270.072953 
L 498.161157 301.705611 
L 498.161157 301.705611 
" clip-path="url(#pa4258f8d3a)" style="fill: none; stroke: #1f77b4; stroke-width: 1.5; stroke-linecap: square"/>
   </g>
   <g id="line2d_15">
    <path d="M 152.293388 158.030234 
L 153.030846 158.635343 
L 154.137033 159.900979 
L 154.874491 160.965008 
L 155.980678 163.411708 
L 158.561781 168.509766 
L 159.299239 169.91043 
L 161.142884 173.517468 
L 161.511613 173.871432 
L 162.24907 174.859931 
L 162.617799 175.243593 
L 163.355257 176.255505 
L 163.723986 176.688675 
L 164.830173 178.366243 
L 166.673818 180.351946 
L 167.411276 181.242852 
L 168.148734 182.25224 
L 170.729837 185.454361 
L 171.467295 186.303738 
L 172.204753 187.048379 
L 173.310939 188.187286 
L 173.679668 188.365829 
L 175.892042 190.35685 
L 176.998229 191.129894 
L 177.366958 191.257072 
L 178.841874 192.318249 
L 179.948061 193.040523 
L 180.685519 193.623477 
L 185.478995 196.296688 
L 186.585182 196.890178 
L 190.641201 199.009434 
L 191.00993 199.453368 
L 194.32849 201.369052 
L 194.697219 201.684085 
L 196.172135 202.404059 
L 197.278322 202.951655 
L 199.121967 203.855492 
L 199.859425 204.170286 
L 200.228154 204.469847 
L 200.596883 204.51713 
L 201.334341 204.900954 
L 202.071799 205.157977 
L 202.440528 205.380731 
L 202.809257 205.432694 
L 203.546714 205.880847 
L 204.284172 206.094252 
L 205.390359 206.698903 
L 205.759088 206.99692 
L 206.496546 207.33497 
L 206.865275 207.610474 
L 207.602733 207.921879 
L 208.340191 208.37439 
L 208.70892 208.374346 
L 211.290023 209.280135 
L 214.977312 210.829023 
L 215.346041 210.893727 
L 216.083499 211.349866 
L 216.820957 211.582722 
L 217.558415 211.551028 
L 218.664602 212.20719 
L 219.033331 212.183746 
L 219.770789 212.548832 
L 220.876976 213.018771 
L 221.245705 213.024632 
L 222.720621 213.788394 
L 223.826808 214.175849 
L 224.195536 214.350561 
L 224.564265 214.661218 
L 227.514097 215.793925 
L 227.882826 215.740093 
L 228.989013 216.194026 
L 229.357742 216.200209 
L 231.938845 217.130293 
L 234.151219 217.483092 
L 235.257405 217.97669 
L 237.469779 218.592576 
L 238.575966 218.788073 
L 238.944695 218.987615 
L 240.050882 219.196626 
L 243.369443 220.538524 
L 243.738172 220.645862 
L 244.106901 220.932308 
L 245.213087 221.237098 
L 245.581816 221.248371 
L 246.319274 221.490613 
L 246.688003 221.503771 
L 248.900377 222.214521 
L 249.637835 222.365947 
L 250.744022 222.70735 
L 251.112751 222.967176 
L 251.48148 223.068917 
L 252.218938 223.402579 
L 252.956396 223.571095 
L 254.800041 224.002107 
L 255.906227 224.113665 
L 258.118601 224.836643 
L 259.593517 225.250592 
L 259.962246 225.228035 
L 260.699704 225.455049 
L 261.437162 225.473911 
L 262.17462 225.663716 
L 263.280807 226.147537 
L 263.649536 226.184027 
L 264.386994 226.514384 
L 264.755723 226.463149 
L 265.49318 226.748726 
L 265.861909 226.856069 
L 266.230638 226.813797 
L 275.817591 229.108084 
L 276.18632 229.095847 
L 276.555049 229.417645 
L 278.029965 229.516106 
L 279.504881 229.984949 
L 280.611068 230.117309 
L 281.348526 230.319383 
L 281.717255 230.305555 
L 283.5609 231.284261 
L 285.035816 231.445823 
L 285.404545 231.398532 
L 288.723105 232.263393 
L 289.091834 232.461313 
L 289.460563 232.53311 
L 289.829292 232.414194 
L 290.56675 232.741934 
L 290.935479 232.712884 
L 291.304208 232.969901 
L 292.041666 233.049367 
L 292.410395 232.986598 
L 293.516582 233.288873 
L 294.25404 233.285409 
L 294.991498 233.692688 
L 295.360227 233.666212 
L 296.097685 233.766853 
L 296.466414 233.651757 
L 296.835142 233.824482 
L 297.941329 233.871326 
L 298.310058 233.808992 
L 298.678787 233.890755 
L 299.047516 234.147214 
L 302.366077 235.053217 
L 303.103535 235.47192 
L 304.209722 235.755553 
L 305.315909 236.305048 
L 306.053367 236.38873 
L 307.528282 237.029966 
L 307.897011 237.102476 
L 308.26574 237.377864 
L 308.634469 237.292129 
L 311.215572 238.0989 
L 312.321759 238.444751 
L 313.427946 238.617003 
L 314.165404 238.8443 
L 314.534133 238.779886 
L 314.902862 238.909981 
L 315.271591 238.920181 
L 316.009049 239.048116 
L 317.115236 239.289246 
L 317.483964 239.400941 
L 317.852693 239.334344 
L 319.327609 239.559108 
L 320.065067 239.679965 
L 320.433796 239.759566 
L 320.802525 239.670397 
L 321.908712 240.051777 
L 324.489815 240.633746 
L 325.227273 240.641621 
L 327.070918 240.963015 
L 327.439647 240.90317 
L 328.914562 241.281111 
L 329.283291 241.316602 
L 329.65202 241.48756 
L 330.389478 241.551096 
L 331.864394 242.009313 
L 333.33931 242.297151 
L 334.076768 242.619855 
L 334.814226 242.891648 
L 335.920413 243.172612 
L 337.0266 243.245098 
L 337.764058 243.393982 
L 338.501515 243.403647 
L 339.607702 243.630083 
L 339.976431 243.672891 
L 340.34516 243.844453 
L 341.820076 244.095939 
L 343.294992 244.330187 
L 343.663721 244.312659 
L 344.401179 244.768895 
L 344.769908 244.699819 
L 346.982282 245.273946 
L 347.71974 245.377568 
L 348.088469 245.643023 
L 348.457197 245.63459 
L 349.563384 246.124578 
L 351.0383 246.712071 
L 352.144487 247.215618 
L 352.513216 247.065361 
L 355.463048 247.556644 
L 355.831777 247.539376 
L 356.200506 247.67136 
L 356.937964 247.531151 
L 358.781608 247.880298 
L 359.150337 248.186301 
L 359.887795 248.332383 
L 360.256524 248.554816 
L 362.100169 248.72835 
L 362.837627 248.638721 
L 363.206356 248.612503 
L 363.575085 248.729544 
L 364.312543 248.730426 
L 366.893646 249.105566 
L 367.631104 249.268085 
L 367.999833 249.43726 
L 368.737291 249.441249 
L 370.212206 250.051705 
L 370.580935 250.002048 
L 370.949664 250.204958 
L 372.055851 250.387948 
L 372.42458 250.608637 
L 375.005683 250.591157 
L 375.743141 250.764411 
L 377.218057 250.823915 
L 377.586786 250.888306 
L 378.692973 250.771075 
L 379.43043 250.923 
L 379.799159 251.126387 
L 380.905346 251.414641 
L 381.274075 251.248867 
L 382.011533 251.308394 
L 382.748991 251.710086 
L 384.961365 252.230191 
L 385.698823 252.30026 
L 387.542468 252.765413 
L 387.911197 252.63591 
L 388.279926 252.732129 
L 389.386113 252.712561 
L 390.861028 252.967736 
L 391.967215 253.320556 
L 392.335944 253.251813 
L 394.179589 253.874087 
L 394.917047 254.396635 
L 395.285776 254.589368 
L 395.654505 254.485769 
L 396.760692 254.879385 
L 397.129421 255.059931 
L 398.604337 255.078043 
L 398.973066 255.219396 
L 399.341795 255.235929 
L 399.710524 255.38275 
L 400.079252 255.263305 
L 401.185439 255.849008 
L 401.554168 255.848234 
L 403.029084 256.245693 
L 403.766542 256.441193 
L 404.504 256.630252 
L 404.872729 256.532537 
L 410.034935 257.708354 
L 410.772392 257.938461 
L 411.141121 257.964548 
L 411.50985 258.107927 
L 412.247308 258.635568 
L 413.722224 258.796361 
L 414.459682 258.802488 
L 414.828411 259.097216 
L 416.303327 259.507016 
L 416.672056 259.607037 
L 417.040785 259.583115 
L 418.146972 259.805456 
L 420.359346 260.18797 
L 421.465532 260.465902 
L 421.834261 260.311493 
L 422.571719 260.429061 
L 422.940448 260.286665 
L 424.415364 260.394828 
L 424.784093 260.457685 
L 424.784093 260.457685 
" clip-path="url(#pa4258f8d3a)" style="fill: none; stroke: #ff7f0e; stroke-width: 2; stroke-linecap: square"/>
   </g>
   <g id="patch_3">
    <path d="M 135 320.4 
L 135 43.2 
" style="fill: none; stroke: #000000; stroke-width: 0.8; stroke-linejoin: miter; stroke-linecap: square"/>
   </g>
   <g id="patch_4">
    <path d="M 515.454545 320.4 
L 515.454545 43.2 
" style="fill: none; stroke: #000000; stroke-width: 0.8; stroke-linejoin: miter; stroke-linecap: square"/>
   </g>
   <g id="patch_5">
    <path d="M 135 320.4 
L 515.454545 320.4 
" style="fill: none; stroke: #000000; stroke-width: 0.8; stroke-linejoin: miter; stroke-linecap: square"/>
   </g>
   <g id="patch_6">
    <path d="M 135 43.2 
L 515.454545 43.2 
" style="fill: none; stroke: #000000; stroke-width: 0.8; stroke-linejoin: miter; stroke-linecap: square"/>
   </g>
   <g id="text_11">
    <!-- Training Loss on ResNet50 -->
    <g transform="translate(246.31696 37.2) scale(0.12 -0.12)">
     <defs>
      <path id="DejaVuSans-54" d="M -19 4666 
L 3928 4666 
L 3928 4134 
L 2272 4134 
L 2272 0 
L 1638 0 
L 1638 4134 
L -19 4134 
L -19 4666 
z
" transform="scale(0.015625)"/>
      <path id="DejaVuSans-67" d="M 2906 1791 
Q 2906 2416 2648 2759 
Q 2391 3103 1925 3103 
Q 1463 3103 1205 2759 
Q 947 2416 947 1791 
Q 947 1169 1205 825 
Q 1463 481 1925 481 
Q 2391 481 2648 825 
Q 2906 1169 2906 1791 
z
M 3481 434 
Q 3481 -459 3084 -895 
Q 2688 -1331 1869 -1331 
Q 1566 -1331 1297 -1286 
Q 1028 -1241 775 -1147 
L 775 -588 
Q 1028 -725 1275 -790 
Q 1522 -856 1778 -856 
Q 2344 -856 2625 -561 
Q 2906 -266 2906 331 
L 2906 616 
Q 2728 306 2450 153 
Q 2172 0 1784 0 
Q 1141 0 747 490 
Q 353 981 353 1791 
Q 353 2603 747 3093 
Q 1141 3584 1784 3584 
Q 2172 3584 2450 3431 
Q 2728 3278 2906 2969 
L 2906 3500 
L 3481 3500 
L 3481 434 
z
" transform="scale(0.015625)"/>
      <path id="DejaVuSans-52" d="M 2841 2188 
Q 3044 2119 3236 1894 
Q 3428 1669 3622 1275 
L 4263 0 
L 3584 0 
L 2988 1197 
Q 2756 1666 2539 1819 
Q 2322 1972 1947 1972 
L 1259 1972 
L 1259 0 
L 628 0 
L 628 4666 
L 2053 4666 
Q 2853 4666 3247 4331 
Q 3641 3997 3641 3322 
Q 3641 2881 3436 2590 
Q 3231 2300 2841 2188 
z
M 1259 4147 
L 1259 2491 
L 2053 2491 
Q 2509 2491 2742 2702 
Q 2975 2913 2975 3322 
Q 2975 3731 2742 3939 
Q 2509 4147 2053 4147 
L 1259 4147 
z
" transform="scale(0.015625)"/>
      <path id="DejaVuSans-4e" d="M 628 4666 
L 1478 4666 
L 3547 763 
L 3547 4666 
L 4159 4666 
L 4159 0 
L 3309 0 
L 1241 3903 
L 1241 0 
L 628 0 
L 628 4666 
z
" transform="scale(0.015625)"/>
      <path id="DejaVuSans-35" d="M 691 4666 
L 3169 4666 
L 3169 4134 
L 1269 4134 
L 1269 2991 
Q 1406 3038 1543 3061 
Q 1681 3084 1819 3084 
Q 2600 3084 3056 2656 
Q 3513 2228 3513 1497 
Q 3513 744 3044 326 
Q 2575 -91 1722 -91 
Q 1428 -91 1123 -41 
Q 819 9 494 109 
L 494 744 
Q 775 591 1075 516 
Q 1375 441 1709 441 
Q 2250 441 2565 725 
Q 2881 1009 2881 1497 
Q 2881 1984 2565 2268 
Q 2250 2553 1709 2553 
Q 1456 2553 1204 2497 
Q 953 2441 691 2322 
L 691 4666 
z
" transform="scale(0.015625)"/>
     </defs>
     <use xlink:href="#DejaVuSans-54"/>
     <use xlink:href="#DejaVuSans-72" x="46.333984"/>
     <use xlink:href="#DejaVuSans-61" x="87.447266"/>
     <use xlink:href="#DejaVuSans-69" x="148.726562"/>
     <use xlink:href="#DejaVuSans-6e" x="176.509766"/>
     <use xlink:href="#DejaVuSans-69" x="239.888672"/>
     <use xlink:href="#DejaVuSans-6e" x="267.671875"/>
     <use xlink:href="#DejaVuSans-67" x="331.050781"/>
     <use xlink:href="#DejaVuSans-20" x="394.527344"/>
     <use xlink:href="#DejaVuSans-4c" x="426.314453"/>
     <use xlink:href="#DejaVuSans-6f" x="480.277344"/>
     <use xlink:href="#DejaVuSans-73" x="541.458984"/>
     <use xlink:href="#DejaVuSans-73" x="593.558594"/>
     <use xlink:href="#DejaVuSans-20" x="645.658203"/>
     <use xlink:href="#DejaVuSans-6f" x="677.445312"/>
     <use xlink:href="#DejaVuSans-6e" x="738.626953"/>
     <use xlink:href="#DejaVuSans-20" x="802.005859"/>
     <use xlink:href="#DejaVuSans-52" x="833.792969"/>
     <use xlink:href="#DejaVuSans-65" x="898.775391"/>
     <use xlink:href="#DejaVuSans-73" x="960.298828"/>
     <use xlink:href="#DejaVuSans-4e" x="1012.398438"/>
     <use xlink:href="#DejaVuSans-65" x="1087.203125"/>
     <use xlink:href="#DejaVuSans-74" x="1148.726562"/>
     <use xlink:href="#DejaVuSans-35" x="1187.935547"/>
     <use xlink:href="#DejaVuSans-30" x="1251.558594"/>
    </g>
   </g>
   <g id="legend_1">
    <g id="patch_7">
     <path d="M 366.123295 80.55625 
L 508.454545 80.55625 
Q 510.454545 80.55625 510.454545 78.55625 
L 510.454545 50.2 
Q 510.454545 48.2 508.454545 48.2 
L 366.123295 48.2 
Q 364.123295 48.2 364.123295 50.2 
L 364.123295 78.55625 
Q 364.123295 80.55625 366.123295 80.55625 
z
" style="fill: #ffffff; opacity: 0.8; stroke: #cccccc; stroke-linejoin: miter"/>
    </g>
    <g id="line2d_16">
     <path d="M 368.123295 56.298437 
L 378.123295 56.298437 
L 388.123295 56.298437 
" style="fill: none; stroke: #1f77b4; stroke-width: 1.5; stroke-linecap: square"/>
    </g>
    <g id="text_12">
     <!-- Minibatch Loss -->
     <g transform="translate(396.123295 59.798437) scale(0.1 -0.1)">
      <defs>
       <path id="DejaVuSans-4d" d="M 628 4666 
L 1569 4666 
L 2759 1491 
L 3956 4666 
L 4897 4666 
L 4897 0 
L 4281 0 
L 4281 4097 
L 3078 897 
L 2444 897 
L 1241 4097 
L 1241 0 
L 628 0 
L 628 4666 
z
" transform="scale(0.015625)"/>
       <path id="DejaVuSans-62" d="M 3116 1747 
Q 3116 2381 2855 2742 
Q 2594 3103 2138 3103 
Q 1681 3103 1420 2742 
Q 1159 2381 1159 1747 
Q 1159 1113 1420 752 
Q 1681 391 2138 391 
Q 2594 391 2855 752 
Q 3116 1113 3116 1747 
z
M 1159 2969 
Q 1341 3281 1617 3432 
Q 1894 3584 2278 3584 
Q 2916 3584 3314 3078 
Q 3713 2572 3713 1747 
Q 3713 922 3314 415 
Q 2916 -91 2278 -91 
Q 1894 -91 1617 61 
Q 1341 213 1159 525 
L 1159 0 
L 581 0 
L 581 4863 
L 1159 4863 
L 1159 2969 
z
" transform="scale(0.015625)"/>
       <path id="DejaVuSans-63" d="M 3122 3366 
L 3122 2828 
Q 2878 2963 2633 3030 
Q 2388 3097 2138 3097 
Q 1578 3097 1268 2742 
Q 959 2388 959 1747 
Q 959 1106 1268 751 
Q 1578 397 2138 397 
Q 2388 397 2633 464 
Q 2878 531 3122 666 
L 3122 134 
Q 2881 22 2623 -34 
Q 2366 -91 2075 -91 
Q 1284 -91 818 406 
Q 353 903 353 1747 
Q 353 2603 823 3093 
Q 1294 3584 2113 3584 
Q 2378 3584 2631 3529 
Q 2884 3475 3122 3366 
z
" transform="scale(0.015625)"/>
       <path id="DejaVuSans-68" d="M 3513 2113 
L 3513 0 
L 2938 0 
L 2938 2094 
Q 2938 2591 2744 2837 
Q 2550 3084 2163 3084 
Q 1697 3084 1428 2787 
Q 1159 2491 1159 1978 
L 1159 0 
L 581 0 
L 581 4863 
L 1159 4863 
L 1159 2956 
Q 1366 3272 1645 3428 
Q 1925 3584 2291 3584 
Q 2894 3584 3203 3211 
Q 3513 2838 3513 2113 
z
" transform="scale(0.015625)"/>
      </defs>
      <use xlink:href="#DejaVuSans-4d"/>
      <use xlink:href="#DejaVuSans-69" x="86.279297"/>
      <use xlink:href="#DejaVuSans-6e" x="114.0625"/>
      <use xlink:href="#DejaVuSans-69" x="177.441406"/>
      <use xlink:href="#DejaVuSans-62" x="205.224609"/>
      <use xlink:href="#DejaVuSans-61" x="268.701172"/>
      <use xlink:href="#DejaVuSans-74" x="329.980469"/>
      <use xlink:href="#DejaVuSans-63" x="369.189453"/>
      <use xlink:href="#DejaVuSans-68" x="424.169922"/>
      <use xlink:href="#DejaVuSans-20" x="487.548828"/>
      <use xlink:href="#DejaVuSans-4c" x="519.335938"/>
      <use xlink:href="#DejaVuSans-6f" x="573.298828"/>
      <use xlink:href="#DejaVuSans-73" x="634.480469"/>
      <use xlink:href="#DejaVuSans-73" x="686.580078"/>
     </g>
    </g>
    <g id="line2d_17">
     <path d="M 368.123295 70.976562 
L 378.123295 70.976562 
L 388.123295 70.976562 
" style="fill: none; stroke: #ff7f0e; stroke-width: 2; stroke-linecap: square"/>
    </g>
    <g id="text_13">
     <!-- Running Average Loss -->
     <g transform="translate(396.123295 74.476562) scale(0.1 -0.1)">
      <defs>
       <path id="DejaVuSans-75" d="M 544 1381 
L 544 3500 
L 1119 3500 
L 1119 1403 
Q 1119 906 1312 657 
Q 1506 409 1894 409 
Q 2359 409 2629 706 
Q 2900 1003 2900 1516 
L 2900 3500 
L 3475 3500 
L 3475 0 
L 2900 0 
L 2900 538 
Q 2691 219 2414 64 
Q 2138 -91 1772 -91 
Q 1169 -91 856 284 
Q 544 659 544 1381 
z
M 1991 3584 
L 1991 3584 
z
" transform="scale(0.015625)"/>
       <path id="DejaVuSans-41" d="M 2188 4044 
L 1331 1722 
L 3047 1722 
L 2188 4044 
z
M 1831 4666 
L 2547 4666 
L 4325 0 
L 3669 0 
L 3244 1197 
L 1141 1197 
L 716 0 
L 50 0 
L 1831 4666 
z
" transform="scale(0.015625)"/>
       <path id="DejaVuSans-76" d="M 191 3500 
L 800 3500 
L 1894 563 
L 2988 3500 
L 3597 3500 
L 2284 0 
L 1503 0 
L 191 3500 
z
" transform="scale(0.015625)"/>
      </defs>
      <use xlink:href="#DejaVuSans-52"/>
      <use xlink:href="#DejaVuSans-75" x="64.982422"/>
      <use xlink:href="#DejaVuSans-6e" x="128.361328"/>
      <use xlink:href="#DejaVuSans-6e" x="191.740234"/>
      <use xlink:href="#DejaVuSans-69" x="255.119141"/>
      <use xlink:href="#DejaVuSans-6e" x="282.902344"/>
      <use xlink:href="#DejaVuSans-67" x="346.28125"/>
      <use xlink:href="#DejaVuSans-20" x="409.757812"/>
      <use xlink:href="#DejaVuSans-41" x="441.544922"/>
      <use xlink:href="#DejaVuSans-76" x="504.078125"/>
      <use xlink:href="#DejaVuSans-65" x="563.257812"/>
      <use xlink:href="#DejaVuSans-72" x="624.78125"/>
      <use xlink:href="#DejaVuSans-61" x="665.894531"/>
      <use xlink:href="#DejaVuSans-67" x="727.173828"/>
      <use xlink:href="#DejaVuSans-65" x="790.650391"/>
      <use xlink:href="#DejaVuSans-20" x="852.173828"/>
      <use xlink:href="#DejaVuSans-4c" x="883.960938"/>
      <use xlink:href="#DejaVuSans-6f" x="937.923828"/>
      <use xlink:href="#DejaVuSans-73" x="999.105469"/>
      <use xlink:href="#DejaVuSans-73" x="1051.205078"/>
     </g>
    </g>
   </g>
  </g>
  <g id="axes_2">
   <g id="patch_8">
    <path d="M 591.545455 320.4 
L 972 320.4 
L 972 43.2 
L 591.545455 43.2 
z
" style="fill: #ffffff"/>
   </g>
   <g id="matplotlib.axis_3">
    <g id="xtick_6">
     <g id="line2d_18">
      <path d="M 608.838843 320.4 
L 608.838843 43.2 
" clip-path="url(#p4ae033cc22)" style="fill: none; stroke: #b0b0b0; stroke-width: 0.8; stroke-linecap: square"/>
     </g>
     <g id="line2d_19">
      <g>
       <use xlink:href="#md3ed25f4d7" x="608.838843" y="320.4" style="stroke: #000000; stroke-width: 0.8"/>
      </g>
     </g>
     <g id="text_14">
      <!-- 1.00 -->
      <g transform="translate(597.70603 334.998438) scale(0.1 -0.1)">
       <defs>
        <path id="DejaVuSans-2e" d="M 684 794 
L 1344 794 
L 1344 0 
L 684 0 
L 684 794 
z
" transform="scale(0.015625)"/>
       </defs>
       <use xlink:href="#DejaVuSans-31"/>
       <use xlink:href="#DejaVuSans-2e" x="63.623047"/>
       <use xlink:href="#DejaVuSans-30" x="95.410156"/>
       <use xlink:href="#DejaVuSans-30" x="159.033203"/>
      </g>
     </g>
    </g>
    <g id="xtick_7">
     <g id="line2d_20">
      <path d="M 652.072314 320.4 
L 652.072314 43.2 
" clip-path="url(#p4ae033cc22)" style="fill: none; stroke: #b0b0b0; stroke-width: 0.8; stroke-linecap: square"/>
     </g>
     <g id="line2d_21">
      <g>
       <use xlink:href="#md3ed25f4d7" x="652.072314" y="320.4" style="stroke: #000000; stroke-width: 0.8"/>
      </g>
     </g>
     <g id="text_15">
      <!-- 1.25 -->
      <g transform="translate(640.939502 334.998438) scale(0.1 -0.1)">
       <use xlink:href="#DejaVuSans-31"/>
       <use xlink:href="#DejaVuSans-2e" x="63.623047"/>
       <use xlink:href="#DejaVuSans-32" x="95.410156"/>
       <use xlink:href="#DejaVuSans-35" x="159.033203"/>
      </g>
     </g>
    </g>
    <g id="xtick_8">
     <g id="line2d_22">
      <path d="M 695.305785 320.4 
L 695.305785 43.2 
" clip-path="url(#p4ae033cc22)" style="fill: none; stroke: #b0b0b0; stroke-width: 0.8; stroke-linecap: square"/>
     </g>
     <g id="line2d_23">
      <g>
       <use xlink:href="#md3ed25f4d7" x="695.305785" y="320.4" style="stroke: #000000; stroke-width: 0.8"/>
      </g>
     </g>
     <g id="text_16">
      <!-- 1.50 -->
      <g transform="translate(684.172973 334.998438) scale(0.1 -0.1)">
       <use xlink:href="#DejaVuSans-31"/>
       <use xlink:href="#DejaVuSans-2e" x="63.623047"/>
       <use xlink:href="#DejaVuSans-35" x="95.410156"/>
       <use xlink:href="#DejaVuSans-30" x="159.033203"/>
      </g>
     </g>
    </g>
    <g id="xtick_9">
     <g id="line2d_24">
      <path d="M 738.539256 320.4 
L 738.539256 43.2 
" clip-path="url(#p4ae033cc22)" style="fill: none; stroke: #b0b0b0; stroke-width: 0.8; stroke-linecap: square"/>
     </g>
     <g id="line2d_25">
      <g>
       <use xlink:href="#md3ed25f4d7" x="738.539256" y="320.4" style="stroke: #000000; stroke-width: 0.8"/>
      </g>
     </g>
     <g id="text_17">
      <!-- 1.75 -->
      <g transform="translate(727.406444 334.998438) scale(0.1 -0.1)">
       <defs>
        <path id="DejaVuSans-37" d="M 525 4666 
L 3525 4666 
L 3525 4397 
L 1831 0 
L 1172 0 
L 2766 4134 
L 525 4134 
L 525 4666 
z
" transform="scale(0.015625)"/>
       </defs>
       <use xlink:href="#DejaVuSans-31"/>
       <use xlink:href="#DejaVuSans-2e" x="63.623047"/>
       <use xlink:href="#DejaVuSans-37" x="95.410156"/>
       <use xlink:href="#DejaVuSans-35" x="159.033203"/>
      </g>
     </g>
    </g>
    <g id="xtick_10">
     <g id="line2d_26">
      <path d="M 781.772727 320.4 
L 781.772727 43.2 
" clip-path="url(#p4ae033cc22)" style="fill: none; stroke: #b0b0b0; stroke-width: 0.8; stroke-linecap: square"/>
     </g>
     <g id="line2d_27">
      <g>
       <use xlink:href="#md3ed25f4d7" x="781.772727" y="320.4" style="stroke: #000000; stroke-width: 0.8"/>
      </g>
     </g>
     <g id="text_18">
      <!-- 2.00 -->
      <g transform="translate(770.639915 334.998438) scale(0.1 -0.1)">
       <use xlink:href="#DejaVuSans-32"/>
       <use xlink:href="#DejaVuSans-2e" x="63.623047"/>
       <use xlink:href="#DejaVuSans-30" x="95.410156"/>
       <use xlink:href="#DejaVuSans-30" x="159.033203"/>
      </g>
     </g>
    </g>
    <g id="xtick_11">
     <g id="line2d_28">
      <path d="M 825.006198 320.4 
L 825.006198 43.2 
" clip-path="url(#p4ae033cc22)" style="fill: none; stroke: #b0b0b0; stroke-width: 0.8; stroke-linecap: square"/>
     </g>
     <g id="line2d_29">
      <g>
       <use xlink:href="#md3ed25f4d7" x="825.006198" y="320.4" style="stroke: #000000; stroke-width: 0.8"/>
      </g>
     </g>
     <g id="text_19">
      <!-- 2.25 -->
      <g transform="translate(813.873386 334.998438) scale(0.1 -0.1)">
       <use xlink:href="#DejaVuSans-32"/>
       <use xlink:href="#DejaVuSans-2e" x="63.623047"/>
       <use xlink:href="#DejaVuSans-32" x="95.410156"/>
       <use xlink:href="#DejaVuSans-35" x="159.033203"/>
      </g>
     </g>
    </g>
    <g id="xtick_12">
     <g id="line2d_30">
      <path d="M 868.239669 320.4 
L 868.239669 43.2 
" clip-path="url(#p4ae033cc22)" style="fill: none; stroke: #b0b0b0; stroke-width: 0.8; stroke-linecap: square"/>
     </g>
     <g id="line2d_31">
      <g>
       <use xlink:href="#md3ed25f4d7" x="868.239669" y="320.4" style="stroke: #000000; stroke-width: 0.8"/>
      </g>
     </g>
     <g id="text_20">
      <!-- 2.50 -->
      <g transform="translate(857.106857 334.998438) scale(0.1 -0.1)">
       <use xlink:href="#DejaVuSans-32"/>
       <use xlink:href="#DejaVuSans-2e" x="63.623047"/>
       <use xlink:href="#DejaVuSans-35" x="95.410156"/>
       <use xlink:href="#DejaVuSans-30" x="159.033203"/>
      </g>
     </g>
    </g>
    <g id="xtick_13">
     <g id="line2d_32">
      <path d="M 911.47314 320.4 
L 911.47314 43.2 
" clip-path="url(#p4ae033cc22)" style="fill: none; stroke: #b0b0b0; stroke-width: 0.8; stroke-linecap: square"/>
     </g>
     <g id="line2d_33">
      <g>
       <use xlink:href="#md3ed25f4d7" x="911.47314" y="320.4" style="stroke: #000000; stroke-width: 0.8"/>
      </g>
     </g>
     <g id="text_21">
      <!-- 2.75 -->
      <g transform="translate(900.340328 334.998438) scale(0.1 -0.1)">
       <use xlink:href="#DejaVuSans-32"/>
       <use xlink:href="#DejaVuSans-2e" x="63.623047"/>
       <use xlink:href="#DejaVuSans-37" x="95.410156"/>
       <use xlink:href="#DejaVuSans-35" x="159.033203"/>
      </g>
     </g>
    </g>
    <g id="xtick_14">
     <g id="line2d_34">
      <path d="M 954.706612 320.4 
L 954.706612 43.2 
" clip-path="url(#p4ae033cc22)" style="fill: none; stroke: #b0b0b0; stroke-width: 0.8; stroke-linecap: square"/>
     </g>
     <g id="line2d_35">
      <g>
       <use xlink:href="#md3ed25f4d7" x="954.706612" y="320.4" style="stroke: #000000; stroke-width: 0.8"/>
      </g>
     </g>
     <g id="text_22">
      <!-- 3.00 -->
      <g transform="translate(943.573799 334.998438) scale(0.1 -0.1)">
       <use xlink:href="#DejaVuSans-33"/>
       <use xlink:href="#DejaVuSans-2e" x="63.623047"/>
       <use xlink:href="#DejaVuSans-30" x="95.410156"/>
       <use xlink:href="#DejaVuSans-30" x="159.033203"/>
      </g>
     </g>
    </g>
    <g id="text_23">
     <!-- Epoch -->
     <g transform="translate(766.46179 348.676562) scale(0.1 -0.1)">
      <use xlink:href="#DejaVuSans-45"/>
      <use xlink:href="#DejaVuSans-70" x="63.183594"/>
      <use xlink:href="#DejaVuSans-6f" x="126.660156"/>
      <use xlink:href="#DejaVuSans-63" x="187.841797"/>
      <use xlink:href="#DejaVuSans-68" x="242.822266"/>
     </g>
    </g>
   </g>
   <g id="matplotlib.axis_4">
    <g id="ytick_4">
     <g id="line2d_36">
      <path d="M 591.545455 315.285149 
L 972 315.285149 
" clip-path="url(#p4ae033cc22)" style="fill: none; stroke: #b0b0b0; stroke-width: 0.8; stroke-linecap: square"/>
     </g>
     <g id="line2d_37">
      <defs>
       <path id="mf22268bb00" d="M 0 0 
L -3.5 0 
" style="stroke: #000000; stroke-width: 0.8"/>
      </defs>
      <g>
       <use xlink:href="#mf22268bb00" x="591.545455" y="315.285149" style="stroke: #000000; stroke-width: 0.8"/>
      </g>
     </g>
     <g id="text_24">
      <!-- 38 -->
      <g transform="translate(571.820455 319.084367) scale(0.1 -0.1)">
       <use xlink:href="#DejaVuSans-33"/>
       <use xlink:href="#DejaVuSans-38" x="63.623047"/>
      </g>
     </g>
    </g>
    <g id="ytick_5">
     <g id="line2d_38">
      <path d="M 591.545455 280.870673 
L 972 280.870673 
" clip-path="url(#p4ae033cc22)" style="fill: none; stroke: #b0b0b0; stroke-width: 0.8; stroke-linecap: square"/>
     </g>
     <g id="line2d_39">
      <g>
       <use xlink:href="#mf22268bb00" x="591.545455" y="280.870673" style="stroke: #000000; stroke-width: 0.8"/>
      </g>
     </g>
     <g id="text_25">
      <!-- 40 -->
      <g transform="translate(571.820455 284.669891) scale(0.1 -0.1)">
       <use xlink:href="#DejaVuSans-34"/>
       <use xlink:href="#DejaVuSans-30" x="63.623047"/>
      </g>
     </g>
    </g>
    <g id="ytick_6">
     <g id="line2d_40">
      <path d="M 591.545455 246.456197 
L 972 246.456197 
" clip-path="url(#p4ae033cc22)" style="fill: none; stroke: #b0b0b0; stroke-width: 0.8; stroke-linecap: square"/>
     </g>
     <g id="line2d_41">
      <g>
       <use xlink:href="#mf22268bb00" x="591.545455" y="246.456197" style="stroke: #000000; stroke-width: 0.8"/>
      </g>
     </g>
     <g id="text_26">
      <!-- 42 -->
      <g transform="translate(571.820455 250.255415) scale(0.1 -0.1)">
       <use xlink:href="#DejaVuSans-34"/>
       <use xlink:href="#DejaVuSans-32" x="63.623047"/>
      </g>
     </g>
    </g>
    <g id="ytick_7">
     <g id="line2d_42">
      <path d="M 591.545455 212.041721 
L 972 212.041721 
" clip-path="url(#p4ae033cc22)" style="fill: none; stroke: #b0b0b0; stroke-width: 0.8; stroke-linecap: square"/>
     </g>
     <g id="line2d_43">
      <g>
       <use xlink:href="#mf22268bb00" x="591.545455" y="212.041721" style="stroke: #000000; stroke-width: 0.8"/>
      </g>
     </g>
     <g id="text_27">
      <!-- 44 -->
      <g transform="translate(571.820455 215.840939) scale(0.1 -0.1)">
       <use xlink:href="#DejaVuSans-34"/>
       <use xlink:href="#DejaVuSans-34" x="63.623047"/>
      </g>
     </g>
    </g>
    <g id="ytick_8">
     <g id="line2d_44">
      <path d="M 591.545455 177.627245 
L 972 177.627245 
" clip-path="url(#p4ae033cc22)" style="fill: none; stroke: #b0b0b0; stroke-width: 0.8; stroke-linecap: square"/>
     </g>
     <g id="line2d_45">
      <g>
       <use xlink:href="#mf22268bb00" x="591.545455" y="177.627245" style="stroke: #000000; stroke-width: 0.8"/>
      </g>
     </g>
     <g id="text_28">
      <!-- 46 -->
      <g transform="translate(571.820455 181.426464) scale(0.1 -0.1)">
       <use xlink:href="#DejaVuSans-34"/>
       <use xlink:href="#DejaVuSans-36" x="63.623047"/>
      </g>
     </g>
    </g>
    <g id="ytick_9">
     <g id="line2d_46">
      <path d="M 591.545455 143.212769 
L 972 143.212769 
" clip-path="url(#p4ae033cc22)" style="fill: none; stroke: #b0b0b0; stroke-width: 0.8; stroke-linecap: square"/>
     </g>
     <g id="line2d_47">
      <g>
       <use xlink:href="#mf22268bb00" x="591.545455" y="143.212769" style="stroke: #000000; stroke-width: 0.8"/>
      </g>
     </g>
     <g id="text_29">
      <!-- 48 -->
      <g transform="translate(571.820455 147.011988) scale(0.1 -0.1)">
       <use xlink:href="#DejaVuSans-34"/>
       <use xlink:href="#DejaVuSans-38" x="63.623047"/>
      </g>
     </g>
    </g>
    <g id="ytick_10">
     <g id="line2d_48">
      <path d="M 591.545455 108.798293 
L 972 108.798293 
" clip-path="url(#p4ae033cc22)" style="fill: none; stroke: #b0b0b0; stroke-width: 0.8; stroke-linecap: square"/>
     </g>
     <g id="line2d_49">
      <g>
       <use xlink:href="#mf22268bb00" x="591.545455" y="108.798293" style="stroke: #000000; stroke-width: 0.8"/>
      </g>
     </g>
     <g id="text_30">
      <!-- 50 -->
      <g transform="translate(571.820455 112.597512) scale(0.1 -0.1)">
       <use xlink:href="#DejaVuSans-35"/>
       <use xlink:href="#DejaVuSans-30" x="63.623047"/>
      </g>
     </g>
    </g>
    <g id="ytick_11">
     <g id="line2d_50">
      <path d="M 591.545455 74.383817 
L 972 74.383817 
" clip-path="url(#p4ae033cc22)" style="fill: none; stroke: #b0b0b0; stroke-width: 0.8; stroke-linecap: square"/>
     </g>
     <g id="line2d_51">
      <g>
       <use xlink:href="#mf22268bb00" x="591.545455" y="74.383817" style="stroke: #000000; stroke-width: 0.8"/>
      </g>
     </g>
     <g id="text_31">
      <!-- 52 -->
      <g transform="translate(571.820455 78.183036) scale(0.1 -0.1)">
       <use xlink:href="#DejaVuSans-35"/>
       <use xlink:href="#DejaVuSans-32" x="63.623047"/>
      </g>
     </g>
    </g>
    <g id="text_32">
     <!-- Accuracy (%) -->
     <g transform="translate(565.740767 214.869531) rotate(-90) scale(0.1 -0.1)">
      <defs>
       <path id="DejaVuSans-28" d="M 1984 4856 
Q 1566 4138 1362 3434 
Q 1159 2731 1159 2009 
Q 1159 1288 1364 580 
Q 1569 -128 1984 -844 
L 1484 -844 
Q 1016 -109 783 600 
Q 550 1309 550 2009 
Q 550 2706 781 3412 
Q 1013 4119 1484 4856 
L 1984 4856 
z
" transform="scale(0.015625)"/>
       <path id="DejaVuSans-25" d="M 4653 2053 
Q 4381 2053 4226 1822 
Q 4072 1591 4072 1178 
Q 4072 772 4226 539 
Q 4381 306 4653 306 
Q 4919 306 5073 539 
Q 5228 772 5228 1178 
Q 5228 1588 5073 1820 
Q 4919 2053 4653 2053 
z
M 4653 2450 
Q 5147 2450 5437 2106 
Q 5728 1763 5728 1178 
Q 5728 594 5436 251 
Q 5144 -91 4653 -91 
Q 4153 -91 3862 251 
Q 3572 594 3572 1178 
Q 3572 1766 3864 2108 
Q 4156 2450 4653 2450 
z
M 1428 4353 
Q 1159 4353 1004 4120 
Q 850 3888 850 3481 
Q 850 3069 1003 2837 
Q 1156 2606 1428 2606 
Q 1700 2606 1854 2837 
Q 2009 3069 2009 3481 
Q 2009 3884 1853 4118 
Q 1697 4353 1428 4353 
z
M 4250 4750 
L 4750 4750 
L 1831 -91 
L 1331 -91 
L 4250 4750 
z
M 1428 4750 
Q 1922 4750 2215 4408 
Q 2509 4066 2509 3481 
Q 2509 2891 2217 2550 
Q 1925 2209 1428 2209 
Q 931 2209 642 2551 
Q 353 2894 353 3481 
Q 353 4063 643 4406 
Q 934 4750 1428 4750 
z
" transform="scale(0.015625)"/>
       <path id="DejaVuSans-29" d="M 513 4856 
L 1013 4856 
Q 1481 4119 1714 3412 
Q 1947 2706 1947 2009 
Q 1947 1309 1714 600 
Q 1481 -109 1013 -844 
L 513 -844 
Q 928 -128 1133 580 
Q 1338 1288 1338 2009 
Q 1338 2731 1133 3434 
Q 928 4138 513 4856 
z
" transform="scale(0.015625)"/>
      </defs>
      <use xlink:href="#DejaVuSans-41"/>
      <use xlink:href="#DejaVuSans-63" x="66.658203"/>
      <use xlink:href="#DejaVuSans-63" x="121.638672"/>
      <use xlink:href="#DejaVuSans-75" x="176.619141"/>
      <use xlink:href="#DejaVuSans-72" x="239.998047"/>
      <use xlink:href="#DejaVuSans-61" x="281.111328"/>
      <use xlink:href="#DejaVuSans-63" x="342.390625"/>
      <use xlink:href="#DejaVuSans-79" x="397.371094"/>
      <use xlink:href="#DejaVuSans-20" x="456.550781"/>
      <use xlink:href="#DejaVuSans-28" x="488.337891"/>
      <use xlink:href="#DejaVuSans-25" x="527.351562"/>
      <use xlink:href="#DejaVuSans-29" x="622.371094"/>
     </g>
    </g>
   </g>
   <g id="line2d_52">
    <path d="M 608.838843 307.8 
L 781.772727 165.022943 
L 954.706612 101.87238 
" clip-path="url(#p4ae033cc22)" style="fill: none; stroke: #1f77b4; stroke-width: 1.5; stroke-linecap: square"/>
   </g>
   <g id="line2d_53">
    <path d="M 608.838843 278.633732 
L 781.772727 106.38928 
L 954.706612 55.8 
" clip-path="url(#p4ae033cc22)" style="fill: none; stroke: #ff7f0e; stroke-width: 1.5; stroke-linecap: square"/>
   </g>
   <g id="patch_9">
    <path d="M 591.545455 320.4 
L 591.545455 43.2 
" style="fill: none; stroke: #000000; stroke-width: 0.8; stroke-linejoin: miter; stroke-linecap: square"/>
   </g>
   <g id="patch_10">
    <path d="M 972 320.4 
L 972 43.2 
" style="fill: none; stroke: #000000; stroke-width: 0.8; stroke-linejoin: miter; stroke-linecap: square"/>
   </g>
   <g id="patch_11">
    <path d="M 591.545455 320.4 
L 972 320.4 
" style="fill: none; stroke: #000000; stroke-width: 0.8; stroke-linejoin: miter; stroke-linecap: square"/>
   </g>
   <g id="patch_12">
    <path d="M 591.545455 43.2 
L 972 43.2 
" style="fill: none; stroke: #000000; stroke-width: 0.8; stroke-linejoin: miter; stroke-linecap: square"/>
   </g>
   <g id="text_33">
    <!-- Accuracy on ResNet50 -->
    <g transform="translate(714.207102 37.2) scale(0.12 -0.12)">
     <use xlink:href="#DejaVuSans-41"/>
     <use xlink:href="#DejaVuSans-63" x="66.658203"/>
     <use xlink:href="#DejaVuSans-63" x="121.638672"/>
     <use xlink:href="#DejaVuSans-75" x="176.619141"/>
     <use xlink:href="#DejaVuSans-72" x="239.998047"/>
     <use xlink:href="#DejaVuSans-61" x="281.111328"/>
     <use xlink:href="#DejaVuSans-63" x="342.390625"/>
     <use xlink:href="#DejaVuSans-79" x="397.371094"/>
     <use xlink:href="#DejaVuSans-20" x="456.550781"/>
     <use xlink:href="#DejaVuSans-6f" x="488.337891"/>
     <use xlink:href="#DejaVuSans-6e" x="549.519531"/>
     <use xlink:href="#DejaVuSans-20" x="612.898438"/>
     <use xlink:href="#DejaVuSans-52" x="644.685547"/>
     <use xlink:href="#DejaVuSans-65" x="709.667969"/>
     <use xlink:href="#DejaVuSans-73" x="771.191406"/>
     <use xlink:href="#DejaVuSans-4e" x="823.291016"/>
     <use xlink:href="#DejaVuSans-65" x="898.095703"/>
     <use xlink:href="#DejaVuSans-74" x="959.619141"/>
     <use xlink:href="#DejaVuSans-35" x="998.828125"/>
     <use xlink:href="#DejaVuSans-30" x="1062.451172"/>
    </g>
   </g>
   <g id="legend_2">
    <g id="patch_13">
     <path d="M 598.545455 80.55625 
L 718.831392 80.55625 
Q 720.831392 80.55625 720.831392 78.55625 
L 720.831392 50.2 
Q 720.831392 48.2 718.831392 48.2 
L 598.545455 48.2 
Q 596.545455 48.2 596.545455 50.2 
L 596.545455 78.55625 
Q 596.545455 80.55625 598.545455 80.55625 
z
" style="fill: #ffffff; opacity: 0.8; stroke: #cccccc; stroke-linejoin: miter"/>
    </g>
    <g id="line2d_54">
     <path d="M 600.545455 56.298437 
L 610.545455 56.298437 
L 620.545455 56.298437 
" style="fill: none; stroke: #1f77b4; stroke-width: 1.5; stroke-linecap: square"/>
    </g>
    <g id="text_34">
     <!-- Training Accuracy -->
     <g transform="translate(628.545455 59.798437) scale(0.1 -0.1)">
      <use xlink:href="#DejaVuSans-54"/>
      <use xlink:href="#DejaVuSans-72" x="46.333984"/>
      <use xlink:href="#DejaVuSans-61" x="87.447266"/>
      <use xlink:href="#DejaVuSans-69" x="148.726562"/>
      <use xlink:href="#DejaVuSans-6e" x="176.509766"/>
      <use xlink:href="#DejaVuSans-69" x="239.888672"/>
      <use xlink:href="#DejaVuSans-6e" x="267.671875"/>
      <use xlink:href="#DejaVuSans-67" x="331.050781"/>
      <use xlink:href="#DejaVuSans-20" x="394.527344"/>
      <use xlink:href="#DejaVuSans-41" x="426.314453"/>
      <use xlink:href="#DejaVuSans-63" x="492.972656"/>
      <use xlink:href="#DejaVuSans-63" x="547.953125"/>
      <use xlink:href="#DejaVuSans-75" x="602.933594"/>
      <use xlink:href="#DejaVuSans-72" x="666.3125"/>
      <use xlink:href="#DejaVuSans-61" x="707.425781"/>
      <use xlink:href="#DejaVuSans-63" x="768.705078"/>
      <use xlink:href="#DejaVuSans-79" x="823.685547"/>
     </g>
    </g>
    <g id="line2d_55">
     <path d="M 600.545455 70.976562 
L 610.545455 70.976562 
L 620.545455 70.976562 
" style="fill: none; stroke: #ff7f0e; stroke-width: 1.5; stroke-linecap: square"/>
    </g>
    <g id="text_35">
     <!-- Valid Accuracy -->
     <g transform="translate(628.545455 74.476562) scale(0.1 -0.1)">
      <defs>
       <path id="DejaVuSans-56" d="M 1831 0 
L 50 4666 
L 709 4666 
L 2188 738 
L 3669 4666 
L 4325 4666 
L 2547 0 
L 1831 0 
z
" transform="scale(0.015625)"/>
       <path id="DejaVuSans-6c" d="M 603 4863 
L 1178 4863 
L 1178 0 
L 603 0 
L 603 4863 
z
" transform="scale(0.015625)"/>
       <path id="DejaVuSans-64" d="M 2906 2969 
L 2906 4863 
L 3481 4863 
L 3481 0 
L 2906 0 
L 2906 525 
Q 2725 213 2448 61 
Q 2172 -91 1784 -91 
Q 1150 -91 751 415 
Q 353 922 353 1747 
Q 353 2572 751 3078 
Q 1150 3584 1784 3584 
Q 2172 3584 2448 3432 
Q 2725 3281 2906 2969 
z
M 947 1747 
Q 947 1113 1208 752 
Q 1469 391 1925 391 
Q 2381 391 2643 752 
Q 2906 1113 2906 1747 
Q 2906 2381 2643 2742 
Q 2381 3103 1925 3103 
Q 1469 3103 1208 2742 
Q 947 2381 947 1747 
z
" transform="scale(0.015625)"/>
      </defs>
      <use xlink:href="#DejaVuSans-56"/>
      <use xlink:href="#DejaVuSans-61" x="60.658203"/>
      <use xlink:href="#DejaVuSans-6c" x="121.9375"/>
      <use xlink:href="#DejaVuSans-69" x="149.720703"/>
      <use xlink:href="#DejaVuSans-64" x="177.503906"/>
      <use xlink:href="#DejaVuSans-20" x="240.980469"/>
      <use xlink:href="#DejaVuSans-41" x="272.767578"/>
      <use xlink:href="#DejaVuSans-63" x="339.425781"/>
      <use xlink:href="#DejaVuSans-63" x="394.40625"/>
      <use xlink:href="#DejaVuSans-75" x="449.386719"/>
      <use xlink:href="#DejaVuSans-72" x="512.765625"/>
      <use xlink:href="#DejaVuSans-61" x="553.878906"/>
      <use xlink:href="#DejaVuSans-63" x="615.158203"/>
      <use xlink:href="#DejaVuSans-79" x="670.138672"/>
     </g>
    </g>
   </g>
  </g>
 </g>
 <defs>
  <clipPath id="pa4258f8d3a">
   <rect x="135" y="43.2" width="380.454545" height="277.2"/>
  </clipPath>
  <clipPath id="p4ae033cc22">
   <rect x="591.545455" y="43.2" width="380.454545" height="277.2"/>
  </clipPath>
 </defs>
</svg>
