<?xml version="1.0" encoding="utf-8" standalone="no"?>
<!DOCTYPE svg PUBLIC "-//W3C//DTD SVG 1.1//EN"
  "http://www.w3.org/Graphics/SVG/1.1/DTD/svg11.dtd">
<svg xmlns:xlink="http://www.w3.org/1999/xlink" width="460.8pt" height="345.6pt" viewBox="0 0 460.8 345.6" xmlns="http://www.w3.org/2000/svg" version="1.1">
 <metadata>
  <rdf:RDF xmlns:dc="http://purl.org/dc/elements/1.1/" xmlns:cc="http://creativecommons.org/ns#" xmlns:rdf="http://www.w3.org/1999/02/22-rdf-syntax-ns#">
   <cc:Work>
    <dc:type rdf:resource="http://purl.org/dc/dcmitype/StillImage"/>
    <dc:date>2024-06-08T11:30:31.457237</dc:date>
    <dc:format>image/svg+xml</dc:format>
    <dc:creator>
     <cc:Agent>
      <dc:title>Matplotlib v3.6.2, https://matplotlib.org/</dc:title>
     </cc:Agent>
    </dc:creator>
   </cc:Work>
  </rdf:RDF>
 </metadata>
 <defs>
  <style type="text/css">*{stroke-linejoin: round; stroke-linecap: butt}</style>
 </defs>
 <g id="figure_1">
  <g id="patch_1">
   <path d="M 0 345.6 
L 460.8 345.6 
L 460.8 0 
L 0 0 
z
" style="fill: #ffffff"/>
  </g>
  <g id="axes_1">
   <g id="patch_2">
    <path d="M 57.6 307.584 
L 414.72 307.584 
L 414.72 41.472 
L 57.6 41.472 
z
" style="fill: #ffffff"/>
   </g>
   <g id="matplotlib.axis_1">
    <g id="xtick_1">
     <g id="line2d_1">
      <path d="M 73.832727 307.584 
L 73.832727 41.472 
" clip-path="url(#pdbcd03ad46)" style="fill: none; stroke: #b0b0b0; stroke-width: 0.8; stroke-linecap: square"/>
     </g>
     <g id="line2d_2">
      <defs>
       <path id="me7e6deea8b" d="M 0 0 
L 0 3.5 
" style="stroke: #000000; stroke-width: 0.8"/>
      </defs>
      <g>
       <use xlink:href="#me7e6deea8b" x="73.832727" y="307.584" style="stroke: #000000; stroke-width: 0.8"/>
      </g>
     </g>
     <g id="text_1">
      <!-- 0 -->
      <g transform="translate(70.651477 322.182437) scale(0.1 -0.1)">
       <defs>
        <path id="DejaVuSans-30" d="M 2034 4250 
Q 1547 4250 1301 3770 
Q 1056 3291 1056 2328 
Q 1056 1369 1301 889 
Q 1547 409 2034 409 
Q 2525 409 2770 889 
Q 3016 1369 3016 2328 
Q 3016 3291 2770 3770 
Q 2525 4250 2034 4250 
z
M 2034 4750 
Q 2819 4750 3233 4129 
Q 3647 3509 3647 2328 
Q 3647 1150 3233 529 
Q 2819 -91 2034 -91 
Q 1250 -91 836 529 
Q 422 1150 422 2328 
Q 422 3509 836 4129 
Q 1250 4750 2034 4750 
z
" transform="scale(0.015625)"/>
       </defs>
       <use xlink:href="#DejaVuSans-30"/>
      </g>
     </g>
    </g>
    <g id="xtick_2">
     <g id="line2d_3">
      <path d="M 125.777455 307.584 
L 125.777455 41.472 
" clip-path="url(#pdbcd03ad46)" style="fill: none; stroke: #b0b0b0; stroke-width: 0.8; stroke-linecap: square"/>
     </g>
     <g id="line2d_4">
      <g>
       <use xlink:href="#me7e6deea8b" x="125.777455" y="307.584" style="stroke: #000000; stroke-width: 0.8"/>
      </g>
     </g>
     <g id="text_2">
      <!-- 100 -->
      <g transform="translate(116.233705 322.182437) scale(0.1 -0.1)">
       <defs>
        <path id="DejaVuSans-31" d="M 794 531 
L 1825 531 
L 1825 4091 
L 703 3866 
L 703 4441 
L 1819 4666 
L 2450 4666 
L 2450 531 
L 3481 531 
L 3481 0 
L 794 0 
L 794 531 
z
" transform="scale(0.015625)"/>
       </defs>
       <use xlink:href="#DejaVuSans-31"/>
       <use xlink:href="#DejaVuSans-30" x="63.623047"/>
       <use xlink:href="#DejaVuSans-30" x="127.246094"/>
      </g>
     </g>
    </g>
    <g id="xtick_3">
     <g id="line2d_5">
      <path d="M 177.722182 307.584 
L 177.722182 41.472 
" clip-path="url(#pdbcd03ad46)" style="fill: none; stroke: #b0b0b0; stroke-width: 0.8; stroke-linecap: square"/>
     </g>
     <g id="line2d_6">
      <g>
       <use xlink:href="#me7e6deea8b" x="177.722182" y="307.584" style="stroke: #000000; stroke-width: 0.8"/>
      </g>
     </g>
     <g id="text_3">
      <!-- 200 -->
      <g transform="translate(168.178432 322.182437) scale(0.1 -0.1)">
       <defs>
        <path id="DejaVuSans-32" d="M 1228 531 
L 3431 531 
L 3431 0 
L 469 0 
L 469 531 
Q 828 903 1448 1529 
Q 2069 2156 2228 2338 
Q 2531 2678 2651 2914 
Q 2772 3150 2772 3378 
Q 2772 3750 2511 3984 
Q 2250 4219 1831 4219 
Q 1534 4219 1204 4116 
Q 875 4013 500 3803 
L 500 4441 
Q 881 4594 1212 4672 
Q 1544 4750 1819 4750 
Q 2544 4750 2975 4387 
Q 3406 4025 3406 3419 
Q 3406 3131 3298 2873 
Q 3191 2616 2906 2266 
Q 2828 2175 2409 1742 
Q 1991 1309 1228 531 
z
" transform="scale(0.015625)"/>
       </defs>
       <use xlink:href="#DejaVuSans-32"/>
       <use xlink:href="#DejaVuSans-30" x="63.623047"/>
       <use xlink:href="#DejaVuSans-30" x="127.246094"/>
      </g>
     </g>
    </g>
    <g id="xtick_4">
     <g id="line2d_7">
      <path d="M 229.666909 307.584 
L 229.666909 41.472 
" clip-path="url(#pdbcd03ad46)" style="fill: none; stroke: #b0b0b0; stroke-width: 0.8; stroke-linecap: square"/>
     </g>
     <g id="line2d_8">
      <g>
       <use xlink:href="#me7e6deea8b" x="229.666909" y="307.584" style="stroke: #000000; stroke-width: 0.8"/>
      </g>
     </g>
     <g id="text_4">
      <!-- 300 -->
      <g transform="translate(220.123159 322.182437) scale(0.1 -0.1)">
       <defs>
        <path id="DejaVuSans-33" d="M 2597 2516 
Q 3050 2419 3304 2112 
Q 3559 1806 3559 1356 
Q 3559 666 3084 287 
Q 2609 -91 1734 -91 
Q 1441 -91 1130 -33 
Q 819 25 488 141 
L 488 750 
Q 750 597 1062 519 
Q 1375 441 1716 441 
Q 2309 441 2620 675 
Q 2931 909 2931 1356 
Q 2931 1769 2642 2001 
Q 2353 2234 1838 2234 
L 1294 2234 
L 1294 2753 
L 1863 2753 
Q 2328 2753 2575 2939 
Q 2822 3125 2822 3475 
Q 2822 3834 2567 4026 
Q 2313 4219 1838 4219 
Q 1578 4219 1281 4162 
Q 984 4106 628 3988 
L 628 4550 
Q 988 4650 1302 4700 
Q 1616 4750 1894 4750 
Q 2613 4750 3031 4423 
Q 3450 4097 3450 3541 
Q 3450 3153 3228 2886 
Q 3006 2619 2597 2516 
z
" transform="scale(0.015625)"/>
       </defs>
       <use xlink:href="#DejaVuSans-33"/>
       <use xlink:href="#DejaVuSans-30" x="63.623047"/>
       <use xlink:href="#DejaVuSans-30" x="127.246094"/>
      </g>
     </g>
    </g>
    <g id="xtick_5">
     <g id="line2d_9">
      <path d="M 281.611636 307.584 
L 281.611636 41.472 
" clip-path="url(#pdbcd03ad46)" style="fill: none; stroke: #b0b0b0; stroke-width: 0.8; stroke-linecap: square"/>
     </g>
     <g id="line2d_10">
      <g>
       <use xlink:href="#me7e6deea8b" x="281.611636" y="307.584" style="stroke: #000000; stroke-width: 0.8"/>
      </g>
     </g>
     <g id="text_5">
      <!-- 400 -->
      <g transform="translate(272.067886 322.182437) scale(0.1 -0.1)">
       <defs>
        <path id="DejaVuSans-34" d="M 2419 4116 
L 825 1625 
L 2419 1625 
L 2419 4116 
z
M 2253 4666 
L 3047 4666 
L 3047 1625 
L 3713 1625 
L 3713 1100 
L 3047 1100 
L 3047 0 
L 2419 0 
L 2419 1100 
L 313 1100 
L 313 1709 
L 2253 4666 
z
" transform="scale(0.015625)"/>
       </defs>
       <use xlink:href="#DejaVuSans-34"/>
       <use xlink:href="#DejaVuSans-30" x="63.623047"/>
       <use xlink:href="#DejaVuSans-30" x="127.246094"/>
      </g>
     </g>
    </g>
    <g id="xtick_6">
     <g id="line2d_11">
      <path d="M 333.556364 307.584 
L 333.556364 41.472 
" clip-path="url(#pdbcd03ad46)" style="fill: none; stroke: #b0b0b0; stroke-width: 0.8; stroke-linecap: square"/>
     </g>
     <g id="line2d_12">
      <g>
       <use xlink:href="#me7e6deea8b" x="333.556364" y="307.584" style="stroke: #000000; stroke-width: 0.8"/>
      </g>
     </g>
     <g id="text_6">
      <!-- 500 -->
      <g transform="translate(324.012614 322.182437) scale(0.1 -0.1)">
       <defs>
        <path id="DejaVuSans-35" d="M 691 4666 
L 3169 4666 
L 3169 4134 
L 1269 4134 
L 1269 2991 
Q 1406 3038 1543 3061 
Q 1681 3084 1819 3084 
Q 2600 3084 3056 2656 
Q 3513 2228 3513 1497 
Q 3513 744 3044 326 
Q 2575 -91 1722 -91 
Q 1428 -91 1123 -41 
Q 819 9 494 109 
L 494 744 
Q 775 591 1075 516 
Q 1375 441 1709 441 
Q 2250 441 2565 725 
Q 2881 1009 2881 1497 
Q 2881 1984 2565 2268 
Q 2250 2553 1709 2553 
Q 1456 2553 1204 2497 
Q 953 2441 691 2322 
L 691 4666 
z
" transform="scale(0.015625)"/>
       </defs>
       <use xlink:href="#DejaVuSans-35"/>
       <use xlink:href="#DejaVuSans-30" x="63.623047"/>
       <use xlink:href="#DejaVuSans-30" x="127.246094"/>
      </g>
     </g>
    </g>
    <g id="xtick_7">
     <g id="line2d_13">
      <path d="M 385.501091 307.584 
L 385.501091 41.472 
" clip-path="url(#pdbcd03ad46)" style="fill: none; stroke: #b0b0b0; stroke-width: 0.8; stroke-linecap: square"/>
     </g>
     <g id="line2d_14">
      <g>
       <use xlink:href="#me7e6deea8b" x="385.501091" y="307.584" style="stroke: #000000; stroke-width: 0.8"/>
      </g>
     </g>
     <g id="text_7">
      <!-- 600 -->
      <g transform="translate(375.957341 322.182437) scale(0.1 -0.1)">
       <defs>
        <path id="DejaVuSans-36" d="M 2113 2584 
Q 1688 2584 1439 2293 
Q 1191 2003 1191 1497 
Q 1191 994 1439 701 
Q 1688 409 2113 409 
Q 2538 409 2786 701 
Q 3034 994 3034 1497 
Q 3034 2003 2786 2293 
Q 2538 2584 2113 2584 
z
M 3366 4563 
L 3366 3988 
Q 3128 4100 2886 4159 
Q 2644 4219 2406 4219 
Q 1781 4219 1451 3797 
Q 1122 3375 1075 2522 
Q 1259 2794 1537 2939 
Q 1816 3084 2150 3084 
Q 2853 3084 3261 2657 
Q 3669 2231 3669 1497 
Q 3669 778 3244 343 
Q 2819 -91 2113 -91 
Q 1303 -91 875 529 
Q 447 1150 447 2328 
Q 447 3434 972 4092 
Q 1497 4750 2381 4750 
Q 2619 4750 2861 4703 
Q 3103 4656 3366 4563 
z
" transform="scale(0.015625)"/>
       </defs>
       <use xlink:href="#DejaVuSans-36"/>
       <use xlink:href="#DejaVuSans-30" x="63.623047"/>
       <use xlink:href="#DejaVuSans-30" x="127.246094"/>
      </g>
     </g>
    </g>
    <g id="text_8">
     <!-- Iteration -->
     <g transform="translate(214.951406 335.860562) scale(0.1 -0.1)">
      <defs>
       <path id="DejaVuSans-49" d="M 628 4666 
L 1259 4666 
L 1259 0 
L 628 0 
L 628 4666 
z
" transform="scale(0.015625)"/>
       <path id="DejaVuSans-74" d="M 1172 4494 
L 1172 3500 
L 2356 3500 
L 2356 3053 
L 1172 3053 
L 1172 1153 
Q 1172 725 1289 603 
Q 1406 481 1766 481 
L 2356 481 
L 2356 0 
L 1766 0 
Q 1100 0 847 248 
Q 594 497 594 1153 
L 594 3053 
L 172 3053 
L 172 3500 
L 594 3500 
L 594 4494 
L 1172 4494 
z
" transform="scale(0.015625)"/>
       <path id="DejaVuSans-65" d="M 3597 1894 
L 3597 1613 
L 953 1613 
Q 991 1019 1311 708 
Q 1631 397 2203 397 
Q 2534 397 2845 478 
Q 3156 559 3463 722 
L 3463 178 
Q 3153 47 2828 -22 
Q 2503 -91 2169 -91 
Q 1331 -91 842 396 
Q 353 884 353 1716 
Q 353 2575 817 3079 
Q 1281 3584 2069 3584 
Q 2775 3584 3186 3129 
Q 3597 2675 3597 1894 
z
M 3022 2063 
Q 3016 2534 2758 2815 
Q 2500 3097 2075 3097 
Q 1594 3097 1305 2825 
Q 1016 2553 972 2059 
L 3022 2063 
z
" transform="scale(0.015625)"/>
       <path id="DejaVuSans-72" d="M 2631 2963 
Q 2534 3019 2420 3045 
Q 2306 3072 2169 3072 
Q 1681 3072 1420 2755 
Q 1159 2438 1159 1844 
L 1159 0 
L 581 0 
L 581 3500 
L 1159 3500 
L 1159 2956 
Q 1341 3275 1631 3429 
Q 1922 3584 2338 3584 
Q 2397 3584 2469 3576 
Q 2541 3569 2628 3553 
L 2631 2963 
z
" transform="scale(0.015625)"/>
       <path id="DejaVuSans-61" d="M 2194 1759 
Q 1497 1759 1228 1600 
Q 959 1441 959 1056 
Q 959 750 1161 570 
Q 1363 391 1709 391 
Q 2188 391 2477 730 
Q 2766 1069 2766 1631 
L 2766 1759 
L 2194 1759 
z
M 3341 1997 
L 3341 0 
L 2766 0 
L 2766 531 
Q 2569 213 2275 61 
Q 1981 -91 1556 -91 
Q 1019 -91 701 211 
Q 384 513 384 1019 
Q 384 1609 779 1909 
Q 1175 2209 1959 2209 
L 2766 2209 
L 2766 2266 
Q 2766 2663 2505 2880 
Q 2244 3097 1772 3097 
Q 1472 3097 1187 3025 
Q 903 2953 641 2809 
L 641 3341 
Q 956 3463 1253 3523 
Q 1550 3584 1831 3584 
Q 2591 3584 2966 3190 
Q 3341 2797 3341 1997 
z
" transform="scale(0.015625)"/>
       <path id="DejaVuSans-69" d="M 603 3500 
L 1178 3500 
L 1178 0 
L 603 0 
L 603 3500 
z
M 603 4863 
L 1178 4863 
L 1178 4134 
L 603 4134 
L 603 4863 
z
" transform="scale(0.015625)"/>
       <path id="DejaVuSans-6f" d="M 1959 3097 
Q 1497 3097 1228 2736 
Q 959 2375 959 1747 
Q 959 1119 1226 758 
Q 1494 397 1959 397 
Q 2419 397 2687 759 
Q 2956 1122 2956 1747 
Q 2956 2369 2687 2733 
Q 2419 3097 1959 3097 
z
M 1959 3584 
Q 2709 3584 3137 3096 
Q 3566 2609 3566 1747 
Q 3566 888 3137 398 
Q 2709 -91 1959 -91 
Q 1206 -91 779 398 
Q 353 888 353 1747 
Q 353 2609 779 3096 
Q 1206 3584 1959 3584 
z
" transform="scale(0.015625)"/>
       <path id="DejaVuSans-6e" d="M 3513 2113 
L 3513 0 
L 2938 0 
L 2938 2094 
Q 2938 2591 2744 2837 
Q 2550 3084 2163 3084 
Q 1697 3084 1428 2787 
Q 1159 2491 1159 1978 
L 1159 0 
L 581 0 
L 581 3500 
L 1159 3500 
L 1159 2956 
Q 1366 3272 1645 3428 
Q 1925 3584 2291 3584 
Q 2894 3584 3203 3211 
Q 3513 2838 3513 2113 
z
" transform="scale(0.015625)"/>
      </defs>
      <use xlink:href="#DejaVuSans-49"/>
      <use xlink:href="#DejaVuSans-74" x="29.492188"/>
      <use xlink:href="#DejaVuSans-65" x="68.701172"/>
      <use xlink:href="#DejaVuSans-72" x="130.224609"/>
      <use xlink:href="#DejaVuSans-61" x="171.337891"/>
      <use xlink:href="#DejaVuSans-74" x="232.617188"/>
      <use xlink:href="#DejaVuSans-69" x="271.826172"/>
      <use xlink:href="#DejaVuSans-6f" x="299.609375"/>
      <use xlink:href="#DejaVuSans-6e" x="360.791016"/>
     </g>
    </g>
   </g>
   <g id="matplotlib.axis_2">
    <g id="ytick_1">
     <g id="line2d_15">
      <defs>
       <path id="ma5b2fb0bb6" d="M 0 0 
L -2 0 
" style="stroke: #000000; stroke-width: 0.6"/>
      </defs>
      <g>
       <use xlink:href="#ma5b2fb0bb6" x="57.6" y="232.198595" style="stroke: #000000; stroke-width: 0.6"/>
      </g>
     </g>
     <g id="text_9">
      <!-- $\mathdefault{2\times10^{0}}$ -->
      <g transform="translate(16 235.997814) scale(0.1 -0.1)">
       <defs>
        <path id="DejaVuSans-d7" d="M 4488 3438 
L 3059 2003 
L 4488 575 
L 4116 197 
L 2681 1631 
L 1247 197 
L 878 575 
L 2303 2003 
L 878 3438 
L 1247 3816 
L 2681 2381 
L 4116 3816 
L 4488 3438 
z
" transform="scale(0.015625)"/>
       </defs>
       <use xlink:href="#DejaVuSans-32" transform="translate(0 0.765625)"/>
       <use xlink:href="#DejaVuSans-d7" transform="translate(83.105469 0.765625)"/>
       <use xlink:href="#DejaVuSans-31" transform="translate(186.376953 0.765625)"/>
       <use xlink:href="#DejaVuSans-30" transform="translate(250 0.765625)"/>
       <use xlink:href="#DejaVuSans-30" transform="translate(314.580078 39.046875) scale(0.7)"/>
      </g>
     </g>
    </g>
    <g id="ytick_2">
     <g id="line2d_16">
      <g>
       <use xlink:href="#ma5b2fb0bb6" x="57.6" y="164.149865" style="stroke: #000000; stroke-width: 0.6"/>
      </g>
     </g>
     <g id="text_10">
      <!-- $\mathdefault{3\times10^{0}}$ -->
      <g transform="translate(16 167.949084) scale(0.1 -0.1)">
       <use xlink:href="#DejaVuSans-33" transform="translate(0 0.765625)"/>
       <use xlink:href="#DejaVuSans-d7" transform="translate(83.105469 0.765625)"/>
       <use xlink:href="#DejaVuSans-31" transform="translate(186.376953 0.765625)"/>
       <use xlink:href="#DejaVuSans-30" transform="translate(250 0.765625)"/>
       <use xlink:href="#DejaVuSans-30" transform="translate(314.580078 39.046875) scale(0.7)"/>
      </g>
     </g>
    </g>
    <g id="ytick_3">
     <g id="line2d_17">
      <g>
       <use xlink:href="#ma5b2fb0bb6" x="57.6" y="115.868524" style="stroke: #000000; stroke-width: 0.6"/>
      </g>
     </g>
     <g id="text_11">
      <!-- $\mathdefault{4\times10^{0}}$ -->
      <g transform="translate(16 119.667742) scale(0.1 -0.1)">
       <use xlink:href="#DejaVuSans-34" transform="translate(0 0.765625)"/>
       <use xlink:href="#DejaVuSans-d7" transform="translate(83.105469 0.765625)"/>
       <use xlink:href="#DejaVuSans-31" transform="translate(186.376953 0.765625)"/>
       <use xlink:href="#DejaVuSans-30" transform="translate(250 0.765625)"/>
       <use xlink:href="#DejaVuSans-30" transform="translate(314.580078 39.046875) scale(0.7)"/>
      </g>
     </g>
    </g>
    <g id="ytick_4">
     <g id="line2d_18">
      <g>
       <use xlink:href="#ma5b2fb0bb6" x="57.6" y="78.418605" style="stroke: #000000; stroke-width: 0.6"/>
      </g>
     </g>
    </g>
    <g id="ytick_5">
     <g id="line2d_19">
      <g>
       <use xlink:href="#ma5b2fb0bb6" x="57.6" y="47.819794" style="stroke: #000000; stroke-width: 0.6"/>
      </g>
     </g>
     <g id="text_12">
      <!-- $\mathdefault{6\times10^{0}}$ -->
      <g transform="translate(16 51.619013) scale(0.1 -0.1)">
       <use xlink:href="#DejaVuSans-36" transform="translate(0 0.765625)"/>
       <use xlink:href="#DejaVuSans-d7" transform="translate(83.105469 0.765625)"/>
       <use xlink:href="#DejaVuSans-31" transform="translate(186.376953 0.765625)"/>
       <use xlink:href="#DejaVuSans-30" transform="translate(250 0.765625)"/>
       <use xlink:href="#DejaVuSans-30" transform="translate(314.580078 39.046875) scale(0.7)"/>
      </g>
     </g>
    </g>
    <g id="text_13">
     <!-- Cross Entropy Loss -->
     <g transform="translate(9.920312 221.800656) rotate(-90) scale(0.1 -0.1)">
      <defs>
       <path id="DejaVuSans-43" d="M 4122 4306 
L 4122 3641 
Q 3803 3938 3442 4084 
Q 3081 4231 2675 4231 
Q 1875 4231 1450 3742 
Q 1025 3253 1025 2328 
Q 1025 1406 1450 917 
Q 1875 428 2675 428 
Q 3081 428 3442 575 
Q 3803 722 4122 1019 
L 4122 359 
Q 3791 134 3420 21 
Q 3050 -91 2638 -91 
Q 1578 -91 968 557 
Q 359 1206 359 2328 
Q 359 3453 968 4101 
Q 1578 4750 2638 4750 
Q 3056 4750 3426 4639 
Q 3797 4528 4122 4306 
z
" transform="scale(0.015625)"/>
       <path id="DejaVuSans-73" d="M 2834 3397 
L 2834 2853 
Q 2591 2978 2328 3040 
Q 2066 3103 1784 3103 
Q 1356 3103 1142 2972 
Q 928 2841 928 2578 
Q 928 2378 1081 2264 
Q 1234 2150 1697 2047 
L 1894 2003 
Q 2506 1872 2764 1633 
Q 3022 1394 3022 966 
Q 3022 478 2636 193 
Q 2250 -91 1575 -91 
Q 1294 -91 989 -36 
Q 684 19 347 128 
L 347 722 
Q 666 556 975 473 
Q 1284 391 1588 391 
Q 1994 391 2212 530 
Q 2431 669 2431 922 
Q 2431 1156 2273 1281 
Q 2116 1406 1581 1522 
L 1381 1569 
Q 847 1681 609 1914 
Q 372 2147 372 2553 
Q 372 3047 722 3315 
Q 1072 3584 1716 3584 
Q 2034 3584 2315 3537 
Q 2597 3491 2834 3397 
z
" transform="scale(0.015625)"/>
       <path id="DejaVuSans-20" transform="scale(0.015625)"/>
       <path id="DejaVuSans-45" d="M 628 4666 
L 3578 4666 
L 3578 4134 
L 1259 4134 
L 1259 2753 
L 3481 2753 
L 3481 2222 
L 1259 2222 
L 1259 531 
L 3634 531 
L 3634 0 
L 628 0 
L 628 4666 
z
" transform="scale(0.015625)"/>
       <path id="DejaVuSans-70" d="M 1159 525 
L 1159 -1331 
L 581 -1331 
L 581 3500 
L 1159 3500 
L 1159 2969 
Q 1341 3281 1617 3432 
Q 1894 3584 2278 3584 
Q 2916 3584 3314 3078 
Q 3713 2572 3713 1747 
Q 3713 922 3314 415 
Q 2916 -91 2278 -91 
Q 1894 -91 1617 61 
Q 1341 213 1159 525 
z
M 3116 1747 
Q 3116 2381 2855 2742 
Q 2594 3103 2138 3103 
Q 1681 3103 1420 2742 
Q 1159 2381 1159 1747 
Q 1159 1113 1420 752 
Q 1681 391 2138 391 
Q 2594 391 2855 752 
Q 3116 1113 3116 1747 
z
" transform="scale(0.015625)"/>
       <path id="DejaVuSans-79" d="M 2059 -325 
Q 1816 -950 1584 -1140 
Q 1353 -1331 966 -1331 
L 506 -1331 
L 506 -850 
L 844 -850 
Q 1081 -850 1212 -737 
Q 1344 -625 1503 -206 
L 1606 56 
L 191 3500 
L 800 3500 
L 1894 763 
L 2988 3500 
L 3597 3500 
L 2059 -325 
z
" transform="scale(0.015625)"/>
       <path id="DejaVuSans-4c" d="M 628 4666 
L 1259 4666 
L 1259 531 
L 3531 531 
L 3531 0 
L 628 0 
L 628 4666 
z
" transform="scale(0.015625)"/>
      </defs>
      <use xlink:href="#DejaVuSans-43"/>
      <use xlink:href="#DejaVuSans-72" x="69.824219"/>
      <use xlink:href="#DejaVuSans-6f" x="108.6875"/>
      <use xlink:href="#DejaVuSans-73" x="169.869141"/>
      <use xlink:href="#DejaVuSans-73" x="221.96875"/>
      <use xlink:href="#DejaVuSans-20" x="274.068359"/>
      <use xlink:href="#DejaVuSans-45" x="305.855469"/>
      <use xlink:href="#DejaVuSans-6e" x="369.039062"/>
      <use xlink:href="#DejaVuSans-74" x="432.417969"/>
      <use xlink:href="#DejaVuSans-72" x="471.626953"/>
      <use xlink:href="#DejaVuSans-6f" x="510.490234"/>
      <use xlink:href="#DejaVuSans-70" x="571.671875"/>
      <use xlink:href="#DejaVuSans-79" x="635.148438"/>
      <use xlink:href="#DejaVuSans-20" x="694.328125"/>
      <use xlink:href="#DejaVuSans-4c" x="726.115234"/>
      <use xlink:href="#DejaVuSans-6f" x="780.078125"/>
      <use xlink:href="#DejaVuSans-73" x="841.259766"/>
      <use xlink:href="#DejaVuSans-73" x="893.359375"/>
     </g>
    </g>
   </g>
   <g id="line2d_20">
    <path d="M 73.832727 204.986638 
L 74.352175 164.527203 
L 74.871622 101.473491 
L 75.391069 58.562408 
L 75.910516 60.921848 
L 76.429964 59.001782 
L 76.949411 67.715985 
L 77.468858 98.777246 
L 77.988305 66.779361 
L 78.507753 99.242171 
L 79.0272 53.568 
L 80.066095 111.948132 
L 80.585542 131.26159 
L 81.104989 163.701487 
L 81.624436 151.703994 
L 82.143884 169.84534 
L 82.663331 97.323141 
L 83.182778 110.247679 
L 83.702225 159.130867 
L 84.221673 164.922461 
L 85.260567 192.58393 
L 85.780015 197.189543 
L 86.299462 179.350101 
L 86.818909 194.678508 
L 87.338356 198.026633 
L 87.857804 199.659033 
L 88.377251 189.249585 
L 89.416145 205.430101 
L 89.935593 193.715323 
L 90.45504 207.729083 
L 90.974487 206.479388 
L 91.493935 208.400923 
L 92.013382 205.215897 
L 92.532829 204.002838 
L 93.052276 202.205289 
L 93.571724 207.217713 
L 94.091171 206.752607 
L 94.610618 207.408735 
L 95.130065 204.41205 
L 95.649513 203.468233 
L 96.16896 205.587203 
L 96.688407 205.140566 
L 97.207855 208.411045 
L 97.727302 203.939596 
L 98.246749 207.493121 
L 98.766196 205.430646 
L 99.805091 210.599076 
L 100.324538 210.888692 
L 100.843985 211.451483 
L 101.363433 210.759949 
L 101.88288 210.791276 
L 102.402327 211.067589 
L 102.921775 210.961254 
L 103.441222 215.908119 
L 103.960669 215.003937 
L 104.480116 204.540984 
L 104.999564 206.481242 
L 105.519011 208.879906 
L 106.038458 215.490379 
L 106.557905 215.823679 
L 107.077353 207.167621 
L 107.5968 216.893649 
L 108.116247 215.778009 
L 108.635695 213.553462 
L 109.155142 215.748259 
L 109.674589 208.05583 
L 110.194036 221.138229 
L 110.713484 219.371398 
L 111.232931 218.387929 
L 111.752378 224.693904 
L 112.271825 218.125008 
L 112.791273 216.045744 
L 113.31072 220.937087 
L 114.349615 223.327139 
L 114.869062 220.665158 
L 115.388509 232.054948 
L 115.907956 229.012543 
L 116.427404 222.570672 
L 116.946851 230.806076 
L 117.466298 224.490064 
L 117.985745 214.775725 
L 118.505193 229.722213 
L 119.02464 222.037914 
L 119.544087 222.666705 
L 120.063535 228.752836 
L 120.582982 223.783617 
L 121.102429 221.47696 
L 121.621876 224.79229 
L 122.660771 220.404988 
L 123.180218 230.798913 
L 123.699665 225.841443 
L 124.219113 228.438665 
L 124.73856 221.775985 
L 125.258007 221.261054 
L 125.777455 237.134216 
L 126.296902 230.350995 
L 126.816349 236.014779 
L 127.335796 216.797248 
L 127.855244 227.537411 
L 128.374691 227.156006 
L 128.894138 230.707037 
L 129.413585 229.022908 
L 129.933033 238.882535 
L 130.45248 234.253989 
L 130.971927 227.420777 
L 131.491375 224.134104 
L 132.010822 226.976769 
L 133.049716 224.54327 
L 133.569164 234.329399 
L 134.088611 225.33357 
L 134.608058 225.564783 
L 135.127505 225.358961 
L 135.646953 230.865631 
L 136.1664 221.09388 
L 137.205295 237.544352 
L 137.724742 232.011636 
L 138.763636 233.196864 
L 139.802531 244.179452 
L 140.321978 229.35643 
L 140.841425 237.250657 
L 141.360873 238.419189 
L 141.88032 231.61597 
L 142.399767 227.836798 
L 142.919215 232.997915 
L 143.438662 236.872359 
L 143.958109 234.326664 
L 144.477556 238.011354 
L 144.997004 228.171386 
L 145.516451 238.731619 
L 146.035898 229.494713 
L 146.555345 223.161536 
L 147.074793 231.985758 
L 147.59424 225.111938 
L 148.113687 230.890264 
L 148.633135 238.808215 
L 149.152582 241.453192 
L 149.672029 231.981602 
L 150.191476 232.67158 
L 150.710924 235.27776 
L 151.230371 245.256877 
L 151.749818 232.938674 
L 152.269265 232.296166 
L 153.30816 241.935624 
L 153.827607 234.758822 
L 154.347055 230.140032 
L 155.385949 233.986829 
L 156.424844 243.964761 
L 157.463738 234.894251 
L 157.983185 238.574146 
L 158.502633 244.909929 
L 159.02208 229.889587 
L 159.541527 241.695822 
L 160.060975 245.643381 
L 160.580422 241.061969 
L 161.099869 243.438889 
L 161.619316 237.497029 
L 162.138764 246.534196 
L 162.658211 252.172266 
L 163.177658 233.865283 
L 163.697105 232.94426 
L 164.216553 245.315092 
L 164.736 245.741654 
L 165.774895 226.525307 
L 166.813789 246.854969 
L 167.333236 241.539808 
L 167.852684 246.139234 
L 168.891578 243.80732 
L 169.411025 244.647882 
L 169.930473 241.92532 
L 170.44992 234.715192 
L 170.969367 240.94513 
L 171.488815 235.162128 
L 172.008262 237.193081 
L 172.527709 248.785421 
L 173.047156 236.436958 
L 173.566604 251.281382 
L 174.086051 245.877509 
L 174.605498 233.967165 
L 175.124945 232.632993 
L 175.644393 227.295577 
L 176.16384 236.752376 
L 176.683287 236.273506 
L 177.202735 244.933032 
L 177.722182 242.83719 
L 178.241629 238.217366 
L 178.761076 243.178678 
L 179.280524 243.709434 
L 179.799971 240.003293 
L 180.319418 237.711807 
L 180.838865 233.774369 
L 181.87776 249.035036 
L 182.397207 230.952768 
L 182.916655 232.332994 
L 183.955549 241.660819 
L 184.474996 235.397763 
L 184.994444 238.764435 
L 185.513891 232.643073 
L 186.033338 242.300894 
L 186.552785 246.397863 
L 187.072233 241.536169 
L 187.59168 235.406338 
L 188.111127 241.307446 
L 188.630575 240.979089 
L 189.150022 239.493483 
L 190.188916 248.366196 
L 190.708364 235.046617 
L 191.227811 229.343231 
L 191.747258 249.216844 
L 192.266705 248.574685 
L 192.786153 236.720054 
L 193.3056 240.378451 
L 193.825047 238.801982 
L 194.344495 248.093016 
L 194.863942 240.419228 
L 195.383389 237.773192 
L 195.902836 228.771379 
L 196.941731 242.966745 
L 197.461178 243.5356 
L 197.980625 249.606396 
L 198.500073 248.902336 
L 199.01952 243.638258 
L 199.538967 253.425762 
L 200.058415 241.121258 
L 200.577862 240.539876 
L 201.097309 244.63504 
L 201.616756 249.784481 
L 202.136204 246.907834 
L 202.655651 234.934439 
L 203.175098 232.530775 
L 203.694545 242.252073 
L 204.213993 240.633994 
L 204.73344 243.600149 
L 205.252887 245.900323 
L 205.772335 249.112123 
L 206.291782 242.207938 
L 206.811229 241.046816 
L 207.330676 237.673108 
L 207.850124 252.361669 
L 208.369571 253.581574 
L 208.889018 246.680116 
L 209.408465 249.996375 
L 209.927913 240.531034 
L 210.44736 260.827389 
L 210.966807 246.308987 
L 211.486255 246.922456 
L 212.005702 240.210434 
L 212.525149 249.397121 
L 213.044596 242.948613 
L 213.564044 245.730246 
L 214.083491 253.942487 
L 214.602938 259.671757 
L 215.122385 251.65536 
L 215.641833 250.912641 
L 216.16128 250.382848 
L 216.680727 252.694544 
L 217.200175 243.278777 
L 217.719622 245.441174 
L 218.239069 248.681554 
L 218.758516 250.518152 
L 219.277964 250.847163 
L 219.797411 247.081907 
L 220.316858 264.352309 
L 220.836305 253.639204 
L 221.355753 259.114766 
L 221.8752 230.754774 
L 222.394647 253.459765 
L 222.914095 245.239101 
L 223.433542 263.845134 
L 223.952989 260.686836 
L 224.991884 246.0581 
L 225.511331 245.241091 
L 226.030778 255.495475 
L 227.069673 247.955048 
L 227.58912 253.450614 
L 228.108567 255.55403 
L 228.628015 247.453963 
L 229.147462 246.115159 
L 229.666909 246.336463 
L 230.186356 243.604164 
L 230.705804 247.451991 
L 231.225251 245.629661 
L 231.744698 245.603611 
L 232.264145 256.332038 
L 232.783593 258.232357 
L 233.30304 261.189523 
L 233.822487 242.881426 
L 234.341935 244.393268 
L 234.861382 251.844259 
L 235.900276 262.250904 
L 236.419724 257.011154 
L 236.939171 252.946265 
L 237.458618 252.80105 
L 237.978065 237.92182 
L 238.497513 255.670788 
L 239.01696 245.46866 
L 239.536407 259.223076 
L 240.055855 258.172276 
L 240.575302 242.852858 
L 241.094749 244.550646 
L 241.614196 244.672447 
L 242.133644 250.625138 
L 242.653091 266.030298 
L 243.172538 264.865287 
L 243.691985 267.929659 
L 244.211433 259.012394 
L 244.73088 246.901664 
L 245.250327 252.587869 
L 245.769775 262.32338 
L 246.289222 253.793166 
L 246.808669 239.552346 
L 247.328116 263.570557 
L 247.847564 261.388721 
L 248.367011 249.747116 
L 248.886458 250.779198 
L 249.405905 238.701148 
L 249.925353 256.159898 
L 250.4448 257.068535 
L 250.964247 247.518458 
L 251.483695 259.398259 
L 252.003142 248.594748 
L 252.522589 244.406435 
L 253.042036 255.357971 
L 253.561484 246.398853 
L 254.080931 246.312958 
L 254.600378 260.66467 
L 255.119825 255.328347 
L 255.639273 264.155809 
L 256.15872 244.637895 
L 256.678167 260.550368 
L 257.197615 262.019552 
L 257.717062 249.681293 
L 258.236509 248.724886 
L 258.755956 269.646235 
L 259.275404 255.139398 
L 259.794851 253.445856 
L 260.314298 254.327494 
L 260.833745 267.028169 
L 261.353193 263.27371 
L 261.87264 263.054674 
L 262.392087 276.013479 
L 262.911535 253.134119 
L 263.430982 256.903936 
L 263.950429 258.055212 
L 264.469876 250.323473 
L 264.989324 254.497661 
L 265.508771 256.97407 
L 266.028218 263.383124 
L 266.547665 243.61108 
L 267.067113 260.565293 
L 267.58656 249.999156 
L 268.106007 264.085139 
L 268.625455 262.00402 
L 269.144902 265.217409 
L 269.664349 240.166057 
L 270.183796 263.385582 
L 270.703244 261.052077 
L 271.222691 262.517865 
L 272.261585 250.989645 
L 272.781033 255.255982 
L 273.30048 255.770554 
L 273.819927 246.066368 
L 274.339375 252.634142 
L 274.858822 270.300646 
L 275.378269 256.305694 
L 275.897716 255.644639 
L 276.417164 268.998688 
L 276.936611 239.163074 
L 277.456058 261.459754 
L 277.975505 271.552471 
L 278.494953 243.894463 
L 279.0144 264.961857 
L 279.533847 259.068503 
L 280.053295 258.461678 
L 280.572742 252.895945 
L 281.092189 250.433714 
L 281.611636 257.32585 
L 282.131084 254.892935 
L 282.650531 266.311973 
L 283.169978 257.089291 
L 283.689425 252.024173 
L 284.208873 277.362082 
L 284.72832 260.770392 
L 285.247767 263.661968 
L 285.767215 268.502668 
L 286.286662 269.802733 
L 286.806109 273.218633 
L 287.325556 261.46946 
L 287.845004 270.239888 
L 288.364451 270.569229 
L 288.883898 252.765722 
L 289.403345 249.561371 
L 289.922793 271.276112 
L 290.44224 255.292735 
L 290.961687 251.51862 
L 291.481135 260.713166 
L 292.000582 275.408662 
L 292.520029 255.33767 
L 293.039476 275.179391 
L 293.558924 265.579351 
L 294.078371 274.879454 
L 295.117265 256.347274 
L 295.636713 267.572128 
L 296.15616 253.398088 
L 296.675607 268.546861 
L 297.195055 276.746733 
L 297.714502 263.418917 
L 298.233949 261.467209 
L 298.753396 264.912605 
L 299.272844 265.800952 
L 299.792291 267.378017 
L 300.311738 278.871378 
L 300.831185 282.83316 
L 301.350633 260.048195 
L 301.87008 254.969931 
L 302.389527 252.653701 
L 303.428422 273.180254 
L 303.947869 264.696751 
L 304.467316 268.424545 
L 304.986764 267.051659 
L 305.506211 258.543291 
L 306.025658 257.727546 
L 306.545105 253.399382 
L 307.064553 280.473788 
L 307.584 258.389318 
L 308.103447 267.751862 
L 308.622895 253.481908 
L 309.142342 268.271384 
L 309.661789 266.584458 
L 310.700684 254.417478 
L 311.220131 249.998288 
L 312.259025 264.270475 
L 312.778473 262.962211 
L 313.29792 276.268671 
L 313.817367 283.063832 
L 314.336815 264.766113 
L 314.856262 256.621232 
L 315.375709 285.304646 
L 315.895156 262.63547 
L 316.414604 273.66548 
L 316.934051 275.71564 
L 317.453498 249.972686 
L 317.972945 270.923029 
L 318.492393 262.172551 
L 319.01184 269.499377 
L 319.531287 260.340463 
L 320.050735 274.136083 
L 320.570182 261.674117 
L 321.089629 260.710427 
L 321.609076 270.146354 
L 322.128524 267.15711 
L 322.647971 255.518669 
L 323.167418 258.324412 
L 323.686865 257.924528 
L 324.206313 268.271769 
L 324.72576 257.086367 
L 325.245207 266.298244 
L 325.764655 271.049463 
L 326.284102 253.500339 
L 326.803549 264.948044 
L 327.322996 256.334995 
L 328.361891 269.035262 
L 328.881338 263.322387 
L 329.400785 265.879012 
L 329.920233 272.760272 
L 330.43968 266.501946 
L 330.959127 267.164675 
L 331.478575 258.801811 
L 331.998022 272.176629 
L 332.517469 274.687597 
L 333.036916 269.215885 
L 333.556364 270.824592 
L 334.075811 255.511979 
L 334.595258 266.085804 
L 335.114705 273.789947 
L 335.634153 272.521231 
L 336.1536 256.211553 
L 336.673047 271.366703 
L 337.192495 267.88162 
L 337.711942 272.588827 
L 338.231389 278.901435 
L 338.750836 276.6452 
L 339.270284 266.798588 
L 339.789731 264.30928 
L 340.309178 253.863218 
L 340.828625 282.009897 
L 341.348073 261.12185 
L 341.86752 286.780588 
L 342.386967 264.279013 
L 342.906415 276.296925 
L 343.425862 265.058362 
L 343.945309 293.404391 
L 344.464756 264.678638 
L 344.984204 280.473668 
L 345.503651 269.536523 
L 346.023098 261.968289 
L 346.542545 258.731672 
L 347.061993 279.304359 
L 347.58144 265.906487 
L 348.100887 270.199086 
L 348.620335 279.29183 
L 349.139782 264.591791 
L 349.659229 271.098519 
L 350.178676 275.570021 
L 350.698124 266.271121 
L 351.217571 268.917458 
L 351.737018 261.169253 
L 352.256465 265.227712 
L 353.29536 280.57214 
L 353.814807 279.521832 
L 354.334255 281.031227 
L 354.853702 268.608376 
L 355.373149 279.691896 
L 355.892596 268.917445 
L 356.412044 280.966806 
L 356.931491 253.832501 
L 357.450938 270.492941 
L 357.970385 272.701903 
L 358.489833 283.657437 
L 359.00928 266.939705 
L 359.528727 282.286674 
L 360.048175 268.002513 
L 360.567622 274.772481 
L 361.087069 257.780268 
L 361.606516 273.304477 
L 362.125964 264.339104 
L 362.645411 277.467941 
L 363.164858 264.212043 
L 363.684305 264.501327 
L 364.203753 272.189006 
L 364.7232 276.646986 
L 365.242647 274.473064 
L 365.762095 278.59392 
L 366.281542 276.603827 
L 366.800989 262.087744 
L 367.320436 275.978858 
L 367.839884 256.425206 
L 368.359331 262.717398 
L 368.878778 260.92996 
L 369.398225 265.955029 
L 369.917673 261.80532 
L 370.43712 271.900026 
L 370.956567 290.39084 
L 371.476015 280.8744 
L 371.995462 264.315409 
L 372.514909 266.583918 
L 373.034356 274.838952 
L 373.553804 270.161291 
L 374.073251 268.266312 
L 374.592698 277.840057 
L 375.112145 295.488 
L 375.631593 261.239479 
L 376.15104 278.871391 
L 376.670487 272.959234 
L 377.709382 259.514757 
L 378.228829 275.54865 
L 379.267724 259.736597 
L 379.787171 283.216727 
L 380.306618 260.508989 
L 380.826065 260.837984 
L 381.345513 277.446641 
L 381.86496 261.682166 
L 382.384407 275.26318 
L 382.903855 272.807499 
L 383.423302 268.16103 
L 383.942749 264.847193 
L 384.462196 271.785576 
L 384.981644 265.017316 
L 385.501091 253.709418 
L 386.020538 261.830692 
L 386.539985 265.155433 
L 387.059433 262.817146 
L 387.57888 275.343155 
L 388.098327 257.052132 
L 388.617775 281.541739 
L 389.137222 264.382771 
L 389.656669 287.190798 
L 390.176116 283.878383 
L 390.695564 279.735498 
L 391.215011 273.320133 
L 391.734458 275.221616 
L 392.253905 271.730558 
L 392.773353 271.044306 
L 393.812247 279.544419 
L 394.331695 269.703726 
L 394.851142 263.629658 
L 395.890036 289.785357 
L 396.409484 261.934978 
L 396.928931 276.332497 
L 397.448378 272.474618 
L 397.967825 267.762445 
L 398.487273 280.184204 
L 398.487273 280.184204 
" clip-path="url(#pdbcd03ad46)" style="fill: none; stroke: #1f77b4; stroke-width: 1.5; stroke-linecap: square"/>
   </g>
   <g id="line2d_21">
    <path d="M 73.832727 207.718747 
L 74.352175 207.891045 
L 74.871622 208.277618 
L 75.391069 209.184155 
L 77.468858 214.546281 
L 77.988305 215.50551 
L 78.507753 216.859404 
L 79.0272 217.781587 
L 79.546647 219.250968 
L 80.066095 220.386105 
L 81.104989 221.914797 
L 82.663331 223.23717 
L 83.702225 225.187148 
L 85.260567 226.425246 
L 90.974487 229.093321 
L 95.649513 230.748653 
L 96.688407 231.189425 
L 102.921775 233.317112 
L 104.999564 234.028338 
L 107.5968 235.008364 
L 112.791273 236.635553 
L 113.830167 236.936775 
L 117.466298 237.829022 
L 118.505193 238.086023 
L 120.063535 238.522285 
L 123.180218 239.385125 
L 124.73856 239.742944 
L 126.296902 240.050155 
L 128.374691 240.419105 
L 129.933033 240.855727 
L 130.971927 240.926903 
L 132.530269 241.391099 
L 134.088611 241.783109 
L 135.127505 242.001917 
L 136.1664 242.246136 
L 136.685847 242.434927 
L 139.283084 242.851863 
L 141.360873 243.28351 
L 142.399767 243.503999 
L 144.477556 243.931145 
L 146.555345 244.240497 
L 148.113687 244.668663 
L 150.191476 244.931091 
L 151.749818 245.175297 
L 152.788713 245.39288 
L 156.424844 246.139846 
L 157.463738 246.321359 
L 160.060975 246.919026 
L 165.255447 247.606242 
L 166.813789 247.956179 
L 175.124945 249.108682 
L 176.683287 249.545865 
L 182.397207 250.589344 
L 184.474996 251.25173 
L 185.513891 251.498636 
L 189.150022 252.193229 
L 190.708364 252.599875 
L 192.266705 252.985992 
L 192.786153 253.010401 
L 194.863942 253.538014 
L 196.422284 254.003506 
L 197.461178 254.407597 
L 198.500073 254.518687 
L 199.538967 254.639819 
L 203.175098 255.302364 
L 203.694545 255.541352 
L 212.005702 256.98414 
L 214.602938 257.485519 
L 216.16128 257.633138 
L 218.758516 258.100407 
L 221.8752 258.29166 
L 222.394647 258.502841 
L 224.472436 258.57961 
L 229.147462 259.344591 
L 232.264145 260.019216 
L 233.822487 260.115046 
L 235.900276 260.604576 
L 237.458618 260.738187 
L 237.978065 260.780748 
L 238.497513 261.023798 
L 240.055855 261.250739 
L 242.133644 261.833935 
L 243.691985 261.92415 
L 244.73088 261.969394 
L 245.769775 262.191911 
L 246.808669 262.34205 
L 247.328116 262.483574 
L 248.886458 262.588415 
L 252.522589 263.454366 
L 253.042036 263.63847 
L 253.561484 263.630421 
L 256.678167 264.267424 
L 261.353193 264.794731 
L 266.028218 265.204808 
L 266.547665 265.196795 
L 268.106007 265.640237 
L 269.664349 265.71137 
L 270.183796 265.871364 
L 271.222691 265.978014 
L 271.742138 266.13087 
L 272.261585 266.15461 
L 273.30048 266.385003 
L 281.092189 267.249142 
L 282.131084 267.30696 
L 289.403345 267.859972 
L 290.44224 268.032167 
L 293.039476 268.357761 
L 295.117265 268.435159 
L 295.117265 268.435159 
" clip-path="url(#pdbcd03ad46)" style="fill: none; stroke: #ff7f0e; stroke-width: 2; stroke-linecap: square"/>
   </g>
   <g id="patch_3">
    <path d="M 57.6 307.584 
L 57.6 41.472 
" style="fill: none; stroke: #000000; stroke-width: 0.8; stroke-linejoin: miter; stroke-linecap: square"/>
   </g>
   <g id="patch_4">
    <path d="M 414.72 307.584 
L 414.72 41.472 
" style="fill: none; stroke: #000000; stroke-width: 0.8; stroke-linejoin: miter; stroke-linecap: square"/>
   </g>
   <g id="patch_5">
    <path d="M 57.6 307.584 
L 414.72 307.584 
" style="fill: none; stroke: #000000; stroke-width: 0.8; stroke-linejoin: miter; stroke-linecap: square"/>
   </g>
   <g id="patch_6">
    <path d="M 57.6 41.472 
L 414.72 41.472 
" style="fill: none; stroke: #000000; stroke-width: 0.8; stroke-linejoin: miter; stroke-linecap: square"/>
   </g>
   <g id="text_14">
    <!-- Training Loss on ResNet18 -->
    <g transform="translate(157.249687 35.472) scale(0.12 -0.12)">
     <defs>
      <path id="DejaVuSans-54" d="M -19 4666 
L 3928 4666 
L 3928 4134 
L 2272 4134 
L 2272 0 
L 1638 0 
L 1638 4134 
L -19 4134 
L -19 4666 
z
" transform="scale(0.015625)"/>
      <path id="DejaVuSans-67" d="M 2906 1791 
Q 2906 2416 2648 2759 
Q 2391 3103 1925 3103 
Q 1463 3103 1205 2759 
Q 947 2416 947 1791 
Q 947 1169 1205 825 
Q 1463 481 1925 481 
Q 2391 481 2648 825 
Q 2906 1169 2906 1791 
z
M 3481 434 
Q 3481 -459 3084 -895 
Q 2688 -1331 1869 -1331 
Q 1566 -1331 1297 -1286 
Q 1028 -1241 775 -1147 
L 775 -588 
Q 1028 -725 1275 -790 
Q 1522 -856 1778 -856 
Q 2344 -856 2625 -561 
Q 2906 -266 2906 331 
L 2906 616 
Q 2728 306 2450 153 
Q 2172 0 1784 0 
Q 1141 0 747 490 
Q 353 981 353 1791 
Q 353 2603 747 3093 
Q 1141 3584 1784 3584 
Q 2172 3584 2450 3431 
Q 2728 3278 2906 2969 
L 2906 3500 
L 3481 3500 
L 3481 434 
z
" transform="scale(0.015625)"/>
      <path id="DejaVuSans-52" d="M 2841 2188 
Q 3044 2119 3236 1894 
Q 3428 1669 3622 1275 
L 4263 0 
L 3584 0 
L 2988 1197 
Q 2756 1666 2539 1819 
Q 2322 1972 1947 1972 
L 1259 1972 
L 1259 0 
L 628 0 
L 628 4666 
L 2053 4666 
Q 2853 4666 3247 4331 
Q 3641 3997 3641 3322 
Q 3641 2881 3436 2590 
Q 3231 2300 2841 2188 
z
M 1259 4147 
L 1259 2491 
L 2053 2491 
Q 2509 2491 2742 2702 
Q 2975 2913 2975 3322 
Q 2975 3731 2742 3939 
Q 2509 4147 2053 4147 
L 1259 4147 
z
" transform="scale(0.015625)"/>
      <path id="DejaVuSans-4e" d="M 628 4666 
L 1478 4666 
L 3547 763 
L 3547 4666 
L 4159 4666 
L 4159 0 
L 3309 0 
L 1241 3903 
L 1241 0 
L 628 0 
L 628 4666 
z
" transform="scale(0.015625)"/>
      <path id="DejaVuSans-38" d="M 2034 2216 
Q 1584 2216 1326 1975 
Q 1069 1734 1069 1313 
Q 1069 891 1326 650 
Q 1584 409 2034 409 
Q 2484 409 2743 651 
Q 3003 894 3003 1313 
Q 3003 1734 2745 1975 
Q 2488 2216 2034 2216 
z
M 1403 2484 
Q 997 2584 770 2862 
Q 544 3141 544 3541 
Q 544 4100 942 4425 
Q 1341 4750 2034 4750 
Q 2731 4750 3128 4425 
Q 3525 4100 3525 3541 
Q 3525 3141 3298 2862 
Q 3072 2584 2669 2484 
Q 3125 2378 3379 2068 
Q 3634 1759 3634 1313 
Q 3634 634 3220 271 
Q 2806 -91 2034 -91 
Q 1263 -91 848 271 
Q 434 634 434 1313 
Q 434 1759 690 2068 
Q 947 2378 1403 2484 
z
M 1172 3481 
Q 1172 3119 1398 2916 
Q 1625 2713 2034 2713 
Q 2441 2713 2670 2916 
Q 2900 3119 2900 3481 
Q 2900 3844 2670 4047 
Q 2441 4250 2034 4250 
Q 1625 4250 1398 4047 
Q 1172 3844 1172 3481 
z
" transform="scale(0.015625)"/>
     </defs>
     <use xlink:href="#DejaVuSans-54"/>
     <use xlink:href="#DejaVuSans-72" x="46.333984"/>
     <use xlink:href="#DejaVuSans-61" x="87.447266"/>
     <use xlink:href="#DejaVuSans-69" x="148.726562"/>
     <use xlink:href="#DejaVuSans-6e" x="176.509766"/>
     <use xlink:href="#DejaVuSans-69" x="239.888672"/>
     <use xlink:href="#DejaVuSans-6e" x="267.671875"/>
     <use xlink:href="#DejaVuSans-67" x="331.050781"/>
     <use xlink:href="#DejaVuSans-20" x="394.527344"/>
     <use xlink:href="#DejaVuSans-4c" x="426.314453"/>
     <use xlink:href="#DejaVuSans-6f" x="480.277344"/>
     <use xlink:href="#DejaVuSans-73" x="541.458984"/>
     <use xlink:href="#DejaVuSans-73" x="593.558594"/>
     <use xlink:href="#DejaVuSans-20" x="645.658203"/>
     <use xlink:href="#DejaVuSans-6f" x="677.445312"/>
     <use xlink:href="#DejaVuSans-6e" x="738.626953"/>
     <use xlink:href="#DejaVuSans-20" x="802.005859"/>
     <use xlink:href="#DejaVuSans-52" x="833.792969"/>
     <use xlink:href="#DejaVuSans-65" x="898.775391"/>
     <use xlink:href="#DejaVuSans-73" x="960.298828"/>
     <use xlink:href="#DejaVuSans-4e" x="1012.398438"/>
     <use xlink:href="#DejaVuSans-65" x="1087.203125"/>
     <use xlink:href="#DejaVuSans-74" x="1148.726562"/>
     <use xlink:href="#DejaVuSans-31" x="1187.935547"/>
     <use xlink:href="#DejaVuSans-38" x="1251.558594"/>
    </g>
   </g>
   <g id="legend_1">
    <g id="patch_7">
     <path d="M 265.38875 78.82825 
L 407.72 78.82825 
Q 409.72 78.82825 409.72 76.82825 
L 409.72 48.472 
Q 409.72 46.472 407.72 46.472 
L 265.38875 46.472 
Q 263.38875 46.472 263.38875 48.472 
L 263.38875 76.82825 
Q 263.38875 78.82825 265.38875 78.82825 
z
" style="fill: #ffffff; opacity: 0.8; stroke: #cccccc; stroke-linejoin: miter"/>
    </g>
    <g id="line2d_22">
     <path d="M 267.38875 54.570437 
L 277.38875 54.570437 
L 287.38875 54.570437 
" style="fill: none; stroke: #1f77b4; stroke-width: 1.5; stroke-linecap: square"/>
    </g>
    <g id="text_15">
     <!-- Minibatch Loss -->
     <g transform="translate(295.38875 58.070437) scale(0.1 -0.1)">
      <defs>
       <path id="DejaVuSans-4d" d="M 628 4666 
L 1569 4666 
L 2759 1491 
L 3956 4666 
L 4897 4666 
L 4897 0 
L 4281 0 
L 4281 4097 
L 3078 897 
L 2444 897 
L 1241 4097 
L 1241 0 
L 628 0 
L 628 4666 
z
" transform="scale(0.015625)"/>
       <path id="DejaVuSans-62" d="M 3116 1747 
Q 3116 2381 2855 2742 
Q 2594 3103 2138 3103 
Q 1681 3103 1420 2742 
Q 1159 2381 1159 1747 
Q 1159 1113 1420 752 
Q 1681 391 2138 391 
Q 2594 391 2855 752 
Q 3116 1113 3116 1747 
z
M 1159 2969 
Q 1341 3281 1617 3432 
Q 1894 3584 2278 3584 
Q 2916 3584 3314 3078 
Q 3713 2572 3713 1747 
Q 3713 922 3314 415 
Q 2916 -91 2278 -91 
Q 1894 -91 1617 61 
Q 1341 213 1159 525 
L 1159 0 
L 581 0 
L 581 4863 
L 1159 4863 
L 1159 2969 
z
" transform="scale(0.015625)"/>
       <path id="DejaVuSans-63" d="M 3122 3366 
L 3122 2828 
Q 2878 2963 2633 3030 
Q 2388 3097 2138 3097 
Q 1578 3097 1268 2742 
Q 959 2388 959 1747 
Q 959 1106 1268 751 
Q 1578 397 2138 397 
Q 2388 397 2633 464 
Q 2878 531 3122 666 
L 3122 134 
Q 2881 22 2623 -34 
Q 2366 -91 2075 -91 
Q 1284 -91 818 406 
Q 353 903 353 1747 
Q 353 2603 823 3093 
Q 1294 3584 2113 3584 
Q 2378 3584 2631 3529 
Q 2884 3475 3122 3366 
z
" transform="scale(0.015625)"/>
       <path id="DejaVuSans-68" d="M 3513 2113 
L 3513 0 
L 2938 0 
L 2938 2094 
Q 2938 2591 2744 2837 
Q 2550 3084 2163 3084 
Q 1697 3084 1428 2787 
Q 1159 2491 1159 1978 
L 1159 0 
L 581 0 
L 581 4863 
L 1159 4863 
L 1159 2956 
Q 1366 3272 1645 3428 
Q 1925 3584 2291 3584 
Q 2894 3584 3203 3211 
Q 3513 2838 3513 2113 
z
" transform="scale(0.015625)"/>
      </defs>
      <use xlink:href="#DejaVuSans-4d"/>
      <use xlink:href="#DejaVuSans-69" x="86.279297"/>
      <use xlink:href="#DejaVuSans-6e" x="114.0625"/>
      <use xlink:href="#DejaVuSans-69" x="177.441406"/>
      <use xlink:href="#DejaVuSans-62" x="205.224609"/>
      <use xlink:href="#DejaVuSans-61" x="268.701172"/>
      <use xlink:href="#DejaVuSans-74" x="329.980469"/>
      <use xlink:href="#DejaVuSans-63" x="369.189453"/>
      <use xlink:href="#DejaVuSans-68" x="424.169922"/>
      <use xlink:href="#DejaVuSans-20" x="487.548828"/>
      <use xlink:href="#DejaVuSans-4c" x="519.335938"/>
      <use xlink:href="#DejaVuSans-6f" x="573.298828"/>
      <use xlink:href="#DejaVuSans-73" x="634.480469"/>
      <use xlink:href="#DejaVuSans-73" x="686.580078"/>
     </g>
    </g>
    <g id="line2d_23">
     <path d="M 267.38875 69.248562 
L 277.38875 69.248562 
L 287.38875 69.248562 
" style="fill: none; stroke: #ff7f0e; stroke-width: 2; stroke-linecap: square"/>
    </g>
    <g id="text_16">
     <!-- Running Average Loss -->
     <g transform="translate(295.38875 72.748562) scale(0.1 -0.1)">
      <defs>
       <path id="DejaVuSans-75" d="M 544 1381 
L 544 3500 
L 1119 3500 
L 1119 1403 
Q 1119 906 1312 657 
Q 1506 409 1894 409 
Q 2359 409 2629 706 
Q 2900 1003 2900 1516 
L 2900 3500 
L 3475 3500 
L 3475 0 
L 2900 0 
L 2900 538 
Q 2691 219 2414 64 
Q 2138 -91 1772 -91 
Q 1169 -91 856 284 
Q 544 659 544 1381 
z
M 1991 3584 
L 1991 3584 
z
" transform="scale(0.015625)"/>
       <path id="DejaVuSans-41" d="M 2188 4044 
L 1331 1722 
L 3047 1722 
L 2188 4044 
z
M 1831 4666 
L 2547 4666 
L 4325 0 
L 3669 0 
L 3244 1197 
L 1141 1197 
L 716 0 
L 50 0 
L 1831 4666 
z
" transform="scale(0.015625)"/>
       <path id="DejaVuSans-76" d="M 191 3500 
L 800 3500 
L 1894 563 
L 2988 3500 
L 3597 3500 
L 2284 0 
L 1503 0 
L 191 3500 
z
" transform="scale(0.015625)"/>
      </defs>
      <use xlink:href="#DejaVuSans-52"/>
      <use xlink:href="#DejaVuSans-75" x="64.982422"/>
      <use xlink:href="#DejaVuSans-6e" x="128.361328"/>
      <use xlink:href="#DejaVuSans-6e" x="191.740234"/>
      <use xlink:href="#DejaVuSans-69" x="255.119141"/>
      <use xlink:href="#DejaVuSans-6e" x="282.902344"/>
      <use xlink:href="#DejaVuSans-67" x="346.28125"/>
      <use xlink:href="#DejaVuSans-20" x="409.757812"/>
      <use xlink:href="#DejaVuSans-41" x="441.544922"/>
      <use xlink:href="#DejaVuSans-76" x="504.078125"/>
      <use xlink:href="#DejaVuSans-65" x="563.257812"/>
      <use xlink:href="#DejaVuSans-72" x="624.78125"/>
      <use xlink:href="#DejaVuSans-61" x="665.894531"/>
      <use xlink:href="#DejaVuSans-67" x="727.173828"/>
      <use xlink:href="#DejaVuSans-65" x="790.650391"/>
      <use xlink:href="#DejaVuSans-20" x="852.173828"/>
      <use xlink:href="#DejaVuSans-4c" x="883.960938"/>
      <use xlink:href="#DejaVuSans-6f" x="937.923828"/>
      <use xlink:href="#DejaVuSans-73" x="999.105469"/>
      <use xlink:href="#DejaVuSans-73" x="1051.205078"/>
     </g>
    </g>
   </g>
  </g>
 </g>
 <defs>
  <clipPath id="pdbcd03ad46">
   <rect x="57.6" y="41.472" width="357.12" height="266.112"/>
  </clipPath>
 </defs>
</svg>
