<?xml version="1.0" encoding="utf-8" standalone="no"?>
<!DOCTYPE svg PUBLIC "-//W3C//DTD SVG 1.1//EN"
  "http://www.w3.org/Graphics/SVG/1.1/DTD/svg11.dtd">
<svg xmlns:xlink="http://www.w3.org/1999/xlink" width="1080pt" height="360pt" viewBox="0 0 1080 360" xmlns="http://www.w3.org/2000/svg" version="1.1">
 <metadata>
  <rdf:RDF xmlns:dc="http://purl.org/dc/elements/1.1/" xmlns:cc="http://creativecommons.org/ns#" xmlns:rdf="http://www.w3.org/1999/02/22-rdf-syntax-ns#">
   <cc:Work>
    <dc:type rdf:resource="http://purl.org/dc/dcmitype/StillImage"/>
    <dc:date>2024-06-06T23:48:43.737713</dc:date>
    <dc:format>image/svg+xml</dc:format>
    <dc:creator>
     <cc:Agent>
      <dc:title>Matplotlib v3.6.2, https://matplotlib.org/</dc:title>
     </cc:Agent>
    </dc:creator>
   </cc:Work>
  </rdf:RDF>
 </metadata>
 <defs>
  <style type="text/css">*{stroke-linejoin: round; stroke-linecap: butt}</style>
 </defs>
 <g id="figure_1">
  <g id="patch_1">
   <path d="M 0 360 
L 1080 360 
L 1080 0 
L 0 0 
z
" style="fill: #ffffff"/>
  </g>
  <g id="axes_1">
   <g id="patch_2">
    <path d="M 135 320.4 
L 515.454545 320.4 
L 515.454545 43.2 
L 135 43.2 
z
" style="fill: #ffffff"/>
   </g>
   <g id="matplotlib.axis_1">
    <g id="xtick_1">
     <g id="line2d_1">
      <path d="M 152.293388 320.4 
L 152.293388 43.2 
" clip-path="url(#pc353b7be3e)" style="fill: none; stroke: #b0b0b0; stroke-width: 0.8; stroke-linecap: square"/>
     </g>
     <g id="line2d_2">
      <defs>
       <path id="md0c7183dc7" d="M 0 0 
L 0 3.5 
" style="stroke: #000000; stroke-width: 0.8"/>
      </defs>
      <g>
       <use xlink:href="#md0c7183dc7" x="152.293388" y="320.4" style="stroke: #000000; stroke-width: 0.8"/>
      </g>
     </g>
     <g id="text_1">
      <!-- 0 -->
      <g transform="translate(149.112138 334.998438) scale(0.1 -0.1)">
       <defs>
        <path id="DejaVuSans-30" d="M 2034 4250 
Q 1547 4250 1301 3770 
Q 1056 3291 1056 2328 
Q 1056 1369 1301 889 
Q 1547 409 2034 409 
Q 2525 409 2770 889 
Q 3016 1369 3016 2328 
Q 3016 3291 2770 3770 
Q 2525 4250 2034 4250 
z
M 2034 4750 
Q 2819 4750 3233 4129 
Q 3647 3509 3647 2328 
Q 3647 1150 3233 529 
Q 2819 -91 2034 -91 
Q 1250 -91 836 529 
Q 422 1150 422 2328 
Q 422 3509 836 4129 
Q 1250 4750 2034 4750 
z
" transform="scale(0.015625)"/>
       </defs>
       <use xlink:href="#DejaVuSans-30"/>
      </g>
     </g>
    </g>
    <g id="xtick_2">
     <g id="line2d_3">
      <path d="M 227.563849 320.4 
L 227.563849 43.2 
" clip-path="url(#pc353b7be3e)" style="fill: none; stroke: #b0b0b0; stroke-width: 0.8; stroke-linecap: square"/>
     </g>
     <g id="line2d_4">
      <g>
       <use xlink:href="#md0c7183dc7" x="227.563849" y="320.4" style="stroke: #000000; stroke-width: 0.8"/>
      </g>
     </g>
     <g id="text_2">
      <!-- 2000 -->
      <g transform="translate(214.838849 334.998438) scale(0.1 -0.1)">
       <defs>
        <path id="DejaVuSans-32" d="M 1228 531 
L 3431 531 
L 3431 0 
L 469 0 
L 469 531 
Q 828 903 1448 1529 
Q 2069 2156 2228 2338 
Q 2531 2678 2651 2914 
Q 2772 3150 2772 3378 
Q 2772 3750 2511 3984 
Q 2250 4219 1831 4219 
Q 1534 4219 1204 4116 
Q 875 4013 500 3803 
L 500 4441 
Q 881 4594 1212 4672 
Q 1544 4750 1819 4750 
Q 2544 4750 2975 4387 
Q 3406 4025 3406 3419 
Q 3406 3131 3298 2873 
Q 3191 2616 2906 2266 
Q 2828 2175 2409 1742 
Q 1991 1309 1228 531 
z
" transform="scale(0.015625)"/>
       </defs>
       <use xlink:href="#DejaVuSans-32"/>
       <use xlink:href="#DejaVuSans-30" x="63.623047"/>
       <use xlink:href="#DejaVuSans-30" x="127.246094"/>
       <use xlink:href="#DejaVuSans-30" x="190.869141"/>
      </g>
     </g>
    </g>
    <g id="xtick_3">
     <g id="line2d_5">
      <path d="M 302.834311 320.4 
L 302.834311 43.2 
" clip-path="url(#pc353b7be3e)" style="fill: none; stroke: #b0b0b0; stroke-width: 0.8; stroke-linecap: square"/>
     </g>
     <g id="line2d_6">
      <g>
       <use xlink:href="#md0c7183dc7" x="302.834311" y="320.4" style="stroke: #000000; stroke-width: 0.8"/>
      </g>
     </g>
     <g id="text_3">
      <!-- 4000 -->
      <g transform="translate(290.109311 334.998438) scale(0.1 -0.1)">
       <defs>
        <path id="DejaVuSans-34" d="M 2419 4116 
L 825 1625 
L 2419 1625 
L 2419 4116 
z
M 2253 4666 
L 3047 4666 
L 3047 1625 
L 3713 1625 
L 3713 1100 
L 3047 1100 
L 3047 0 
L 2419 0 
L 2419 1100 
L 313 1100 
L 313 1709 
L 2253 4666 
z
" transform="scale(0.015625)"/>
       </defs>
       <use xlink:href="#DejaVuSans-34"/>
       <use xlink:href="#DejaVuSans-30" x="63.623047"/>
       <use xlink:href="#DejaVuSans-30" x="127.246094"/>
       <use xlink:href="#DejaVuSans-30" x="190.869141"/>
      </g>
     </g>
    </g>
    <g id="xtick_4">
     <g id="line2d_7">
      <path d="M 378.104772 320.4 
L 378.104772 43.2 
" clip-path="url(#pc353b7be3e)" style="fill: none; stroke: #b0b0b0; stroke-width: 0.8; stroke-linecap: square"/>
     </g>
     <g id="line2d_8">
      <g>
       <use xlink:href="#md0c7183dc7" x="378.104772" y="320.4" style="stroke: #000000; stroke-width: 0.8"/>
      </g>
     </g>
     <g id="text_4">
      <!-- 6000 -->
      <g transform="translate(365.379772 334.998438) scale(0.1 -0.1)">
       <defs>
        <path id="DejaVuSans-36" d="M 2113 2584 
Q 1688 2584 1439 2293 
Q 1191 2003 1191 1497 
Q 1191 994 1439 701 
Q 1688 409 2113 409 
Q 2538 409 2786 701 
Q 3034 994 3034 1497 
Q 3034 2003 2786 2293 
Q 2538 2584 2113 2584 
z
M 3366 4563 
L 3366 3988 
Q 3128 4100 2886 4159 
Q 2644 4219 2406 4219 
Q 1781 4219 1451 3797 
Q 1122 3375 1075 2522 
Q 1259 2794 1537 2939 
Q 1816 3084 2150 3084 
Q 2853 3084 3261 2657 
Q 3669 2231 3669 1497 
Q 3669 778 3244 343 
Q 2819 -91 2113 -91 
Q 1303 -91 875 529 
Q 447 1150 447 2328 
Q 447 3434 972 4092 
Q 1497 4750 2381 4750 
Q 2619 4750 2861 4703 
Q 3103 4656 3366 4563 
z
" transform="scale(0.015625)"/>
       </defs>
       <use xlink:href="#DejaVuSans-36"/>
       <use xlink:href="#DejaVuSans-30" x="63.623047"/>
       <use xlink:href="#DejaVuSans-30" x="127.246094"/>
       <use xlink:href="#DejaVuSans-30" x="190.869141"/>
      </g>
     </g>
    </g>
    <g id="xtick_5">
     <g id="line2d_9">
      <path d="M 453.375233 320.4 
L 453.375233 43.2 
" clip-path="url(#pc353b7be3e)" style="fill: none; stroke: #b0b0b0; stroke-width: 0.8; stroke-linecap: square"/>
     </g>
     <g id="line2d_10">
      <g>
       <use xlink:href="#md0c7183dc7" x="453.375233" y="320.4" style="stroke: #000000; stroke-width: 0.8"/>
      </g>
     </g>
     <g id="text_5">
      <!-- 8000 -->
      <g transform="translate(440.650233 334.998438) scale(0.1 -0.1)">
       <defs>
        <path id="DejaVuSans-38" d="M 2034 2216 
Q 1584 2216 1326 1975 
Q 1069 1734 1069 1313 
Q 1069 891 1326 650 
Q 1584 409 2034 409 
Q 2484 409 2743 651 
Q 3003 894 3003 1313 
Q 3003 1734 2745 1975 
Q 2488 2216 2034 2216 
z
M 1403 2484 
Q 997 2584 770 2862 
Q 544 3141 544 3541 
Q 544 4100 942 4425 
Q 1341 4750 2034 4750 
Q 2731 4750 3128 4425 
Q 3525 4100 3525 3541 
Q 3525 3141 3298 2862 
Q 3072 2584 2669 2484 
Q 3125 2378 3379 2068 
Q 3634 1759 3634 1313 
Q 3634 634 3220 271 
Q 2806 -91 2034 -91 
Q 1263 -91 848 271 
Q 434 634 434 1313 
Q 434 1759 690 2068 
Q 947 2378 1403 2484 
z
M 1172 3481 
Q 1172 3119 1398 2916 
Q 1625 2713 2034 2713 
Q 2441 2713 2670 2916 
Q 2900 3119 2900 3481 
Q 2900 3844 2670 4047 
Q 2441 4250 2034 4250 
Q 1625 4250 1398 4047 
Q 1172 3844 1172 3481 
z
" transform="scale(0.015625)"/>
       </defs>
       <use xlink:href="#DejaVuSans-38"/>
       <use xlink:href="#DejaVuSans-30" x="63.623047"/>
       <use xlink:href="#DejaVuSans-30" x="127.246094"/>
       <use xlink:href="#DejaVuSans-30" x="190.869141"/>
      </g>
     </g>
    </g>
    <g id="text_6">
     <!-- Iteration -->
     <g transform="translate(304.018679 348.676562) scale(0.1 -0.1)">
      <defs>
       <path id="DejaVuSans-49" d="M 628 4666 
L 1259 4666 
L 1259 0 
L 628 0 
L 628 4666 
z
" transform="scale(0.015625)"/>
       <path id="DejaVuSans-74" d="M 1172 4494 
L 1172 3500 
L 2356 3500 
L 2356 3053 
L 1172 3053 
L 1172 1153 
Q 1172 725 1289 603 
Q 1406 481 1766 481 
L 2356 481 
L 2356 0 
L 1766 0 
Q 1100 0 847 248 
Q 594 497 594 1153 
L 594 3053 
L 172 3053 
L 172 3500 
L 594 3500 
L 594 4494 
L 1172 4494 
z
" transform="scale(0.015625)"/>
       <path id="DejaVuSans-65" d="M 3597 1894 
L 3597 1613 
L 953 1613 
Q 991 1019 1311 708 
Q 1631 397 2203 397 
Q 2534 397 2845 478 
Q 3156 559 3463 722 
L 3463 178 
Q 3153 47 2828 -22 
Q 2503 -91 2169 -91 
Q 1331 -91 842 396 
Q 353 884 353 1716 
Q 353 2575 817 3079 
Q 1281 3584 2069 3584 
Q 2775 3584 3186 3129 
Q 3597 2675 3597 1894 
z
M 3022 2063 
Q 3016 2534 2758 2815 
Q 2500 3097 2075 3097 
Q 1594 3097 1305 2825 
Q 1016 2553 972 2059 
L 3022 2063 
z
" transform="scale(0.015625)"/>
       <path id="DejaVuSans-72" d="M 2631 2963 
Q 2534 3019 2420 3045 
Q 2306 3072 2169 3072 
Q 1681 3072 1420 2755 
Q 1159 2438 1159 1844 
L 1159 0 
L 581 0 
L 581 3500 
L 1159 3500 
L 1159 2956 
Q 1341 3275 1631 3429 
Q 1922 3584 2338 3584 
Q 2397 3584 2469 3576 
Q 2541 3569 2628 3553 
L 2631 2963 
z
" transform="scale(0.015625)"/>
       <path id="DejaVuSans-61" d="M 2194 1759 
Q 1497 1759 1228 1600 
Q 959 1441 959 1056 
Q 959 750 1161 570 
Q 1363 391 1709 391 
Q 2188 391 2477 730 
Q 2766 1069 2766 1631 
L 2766 1759 
L 2194 1759 
z
M 3341 1997 
L 3341 0 
L 2766 0 
L 2766 531 
Q 2569 213 2275 61 
Q 1981 -91 1556 -91 
Q 1019 -91 701 211 
Q 384 513 384 1019 
Q 384 1609 779 1909 
Q 1175 2209 1959 2209 
L 2766 2209 
L 2766 2266 
Q 2766 2663 2505 2880 
Q 2244 3097 1772 3097 
Q 1472 3097 1187 3025 
Q 903 2953 641 2809 
L 641 3341 
Q 956 3463 1253 3523 
Q 1550 3584 1831 3584 
Q 2591 3584 2966 3190 
Q 3341 2797 3341 1997 
z
" transform="scale(0.015625)"/>
       <path id="DejaVuSans-69" d="M 603 3500 
L 1178 3500 
L 1178 0 
L 603 0 
L 603 3500 
z
M 603 4863 
L 1178 4863 
L 1178 4134 
L 603 4134 
L 603 4863 
z
" transform="scale(0.015625)"/>
       <path id="DejaVuSans-6f" d="M 1959 3097 
Q 1497 3097 1228 2736 
Q 959 2375 959 1747 
Q 959 1119 1226 758 
Q 1494 397 1959 397 
Q 2419 397 2687 759 
Q 2956 1122 2956 1747 
Q 2956 2369 2687 2733 
Q 2419 3097 1959 3097 
z
M 1959 3584 
Q 2709 3584 3137 3096 
Q 3566 2609 3566 1747 
Q 3566 888 3137 398 
Q 2709 -91 1959 -91 
Q 1206 -91 779 398 
Q 353 888 353 1747 
Q 353 2609 779 3096 
Q 1206 3584 1959 3584 
z
" transform="scale(0.015625)"/>
       <path id="DejaVuSans-6e" d="M 3513 2113 
L 3513 0 
L 2938 0 
L 2938 2094 
Q 2938 2591 2744 2837 
Q 2550 3084 2163 3084 
Q 1697 3084 1428 2787 
Q 1159 2491 1159 1978 
L 1159 0 
L 581 0 
L 581 3500 
L 1159 3500 
L 1159 2956 
Q 1366 3272 1645 3428 
Q 1925 3584 2291 3584 
Q 2894 3584 3203 3211 
Q 3513 2838 3513 2113 
z
" transform="scale(0.015625)"/>
      </defs>
      <use xlink:href="#DejaVuSans-49"/>
      <use xlink:href="#DejaVuSans-74" x="29.492188"/>
      <use xlink:href="#DejaVuSans-65" x="68.701172"/>
      <use xlink:href="#DejaVuSans-72" x="130.224609"/>
      <use xlink:href="#DejaVuSans-61" x="171.337891"/>
      <use xlink:href="#DejaVuSans-74" x="232.617188"/>
      <use xlink:href="#DejaVuSans-69" x="271.826172"/>
      <use xlink:href="#DejaVuSans-6f" x="299.609375"/>
      <use xlink:href="#DejaVuSans-6e" x="360.791016"/>
     </g>
    </g>
   </g>
   <g id="matplotlib.axis_2">
    <g id="ytick_1">
     <g id="line2d_11">
      <path d="M 135 308.120269 
L 515.454545 308.120269 
" clip-path="url(#pc353b7be3e)" style="fill: none; stroke: #b0b0b0; stroke-width: 0.8; stroke-linecap: square"/>
     </g>
     <g id="line2d_12">
      <defs>
       <path id="m3dd283fbbb" d="M 0 0 
L -3.5 0 
" style="stroke: #000000; stroke-width: 0.8"/>
      </defs>
      <g>
       <use xlink:href="#m3dd283fbbb" x="135" y="308.120269" style="stroke: #000000; stroke-width: 0.8"/>
      </g>
     </g>
     <g id="text_7">
      <!-- 0.0 -->
      <g transform="translate(112.096875 311.919488) scale(0.1 -0.1)">
       <defs>
        <path id="DejaVuSans-2e" d="M 684 794 
L 1344 794 
L 1344 0 
L 684 0 
L 684 794 
z
" transform="scale(0.015625)"/>
       </defs>
       <use xlink:href="#DejaVuSans-30"/>
       <use xlink:href="#DejaVuSans-2e" x="63.623047"/>
       <use xlink:href="#DejaVuSans-30" x="95.410156"/>
      </g>
     </g>
    </g>
    <g id="ytick_2">
     <g id="line2d_13">
      <path d="M 135 260.045701 
L 515.454545 260.045701 
" clip-path="url(#pc353b7be3e)" style="fill: none; stroke: #b0b0b0; stroke-width: 0.8; stroke-linecap: square"/>
     </g>
     <g id="line2d_14">
      <g>
       <use xlink:href="#m3dd283fbbb" x="135" y="260.045701" style="stroke: #000000; stroke-width: 0.8"/>
      </g>
     </g>
     <g id="text_8">
      <!-- 0.5 -->
      <g transform="translate(112.096875 263.844919) scale(0.1 -0.1)">
       <defs>
        <path id="DejaVuSans-35" d="M 691 4666 
L 3169 4666 
L 3169 4134 
L 1269 4134 
L 1269 2991 
Q 1406 3038 1543 3061 
Q 1681 3084 1819 3084 
Q 2600 3084 3056 2656 
Q 3513 2228 3513 1497 
Q 3513 744 3044 326 
Q 2575 -91 1722 -91 
Q 1428 -91 1123 -41 
Q 819 9 494 109 
L 494 744 
Q 775 591 1075 516 
Q 1375 441 1709 441 
Q 2250 441 2565 725 
Q 2881 1009 2881 1497 
Q 2881 1984 2565 2268 
Q 2250 2553 1709 2553 
Q 1456 2553 1204 2497 
Q 953 2441 691 2322 
L 691 4666 
z
" transform="scale(0.015625)"/>
       </defs>
       <use xlink:href="#DejaVuSans-30"/>
       <use xlink:href="#DejaVuSans-2e" x="63.623047"/>
       <use xlink:href="#DejaVuSans-35" x="95.410156"/>
      </g>
     </g>
    </g>
    <g id="ytick_3">
     <g id="line2d_15">
      <path d="M 135 211.971132 
L 515.454545 211.971132 
" clip-path="url(#pc353b7be3e)" style="fill: none; stroke: #b0b0b0; stroke-width: 0.8; stroke-linecap: square"/>
     </g>
     <g id="line2d_16">
      <g>
       <use xlink:href="#m3dd283fbbb" x="135" y="211.971132" style="stroke: #000000; stroke-width: 0.8"/>
      </g>
     </g>
     <g id="text_9">
      <!-- 1.0 -->
      <g transform="translate(112.096875 215.770351) scale(0.1 -0.1)">
       <defs>
        <path id="DejaVuSans-31" d="M 794 531 
L 1825 531 
L 1825 4091 
L 703 3866 
L 703 4441 
L 1819 4666 
L 2450 4666 
L 2450 531 
L 3481 531 
L 3481 0 
L 794 0 
L 794 531 
z
" transform="scale(0.015625)"/>
       </defs>
       <use xlink:href="#DejaVuSans-31"/>
       <use xlink:href="#DejaVuSans-2e" x="63.623047"/>
       <use xlink:href="#DejaVuSans-30" x="95.410156"/>
      </g>
     </g>
    </g>
    <g id="ytick_4">
     <g id="line2d_17">
      <path d="M 135 163.896564 
L 515.454545 163.896564 
" clip-path="url(#pc353b7be3e)" style="fill: none; stroke: #b0b0b0; stroke-width: 0.8; stroke-linecap: square"/>
     </g>
     <g id="line2d_18">
      <g>
       <use xlink:href="#m3dd283fbbb" x="135" y="163.896564" style="stroke: #000000; stroke-width: 0.8"/>
      </g>
     </g>
     <g id="text_10">
      <!-- 1.5 -->
      <g transform="translate(112.096875 167.695783) scale(0.1 -0.1)">
       <use xlink:href="#DejaVuSans-31"/>
       <use xlink:href="#DejaVuSans-2e" x="63.623047"/>
       <use xlink:href="#DejaVuSans-35" x="95.410156"/>
      </g>
     </g>
    </g>
    <g id="ytick_5">
     <g id="line2d_19">
      <path d="M 135 115.821996 
L 515.454545 115.821996 
" clip-path="url(#pc353b7be3e)" style="fill: none; stroke: #b0b0b0; stroke-width: 0.8; stroke-linecap: square"/>
     </g>
     <g id="line2d_20">
      <g>
       <use xlink:href="#m3dd283fbbb" x="135" y="115.821996" style="stroke: #000000; stroke-width: 0.8"/>
      </g>
     </g>
     <g id="text_11">
      <!-- 2.0 -->
      <g transform="translate(112.096875 119.621215) scale(0.1 -0.1)">
       <use xlink:href="#DejaVuSans-32"/>
       <use xlink:href="#DejaVuSans-2e" x="63.623047"/>
       <use xlink:href="#DejaVuSans-30" x="95.410156"/>
      </g>
     </g>
    </g>
    <g id="ytick_6">
     <g id="line2d_21">
      <path d="M 135 67.747428 
L 515.454545 67.747428 
" clip-path="url(#pc353b7be3e)" style="fill: none; stroke: #b0b0b0; stroke-width: 0.8; stroke-linecap: square"/>
     </g>
     <g id="line2d_22">
      <g>
       <use xlink:href="#m3dd283fbbb" x="135" y="67.747428" style="stroke: #000000; stroke-width: 0.8"/>
      </g>
     </g>
     <g id="text_12">
      <!-- 2.5 -->
      <g transform="translate(112.096875 71.546646) scale(0.1 -0.1)">
       <use xlink:href="#DejaVuSans-32"/>
       <use xlink:href="#DejaVuSans-2e" x="63.623047"/>
       <use xlink:href="#DejaVuSans-35" x="95.410156"/>
      </g>
     </g>
    </g>
    <g id="text_13">
     <!-- Cross Entropy Loss -->
     <g transform="translate(106.017187 229.072656) rotate(-90) scale(0.1 -0.1)">
      <defs>
       <path id="DejaVuSans-43" d="M 4122 4306 
L 4122 3641 
Q 3803 3938 3442 4084 
Q 3081 4231 2675 4231 
Q 1875 4231 1450 3742 
Q 1025 3253 1025 2328 
Q 1025 1406 1450 917 
Q 1875 428 2675 428 
Q 3081 428 3442 575 
Q 3803 722 4122 1019 
L 4122 359 
Q 3791 134 3420 21 
Q 3050 -91 2638 -91 
Q 1578 -91 968 557 
Q 359 1206 359 2328 
Q 359 3453 968 4101 
Q 1578 4750 2638 4750 
Q 3056 4750 3426 4639 
Q 3797 4528 4122 4306 
z
" transform="scale(0.015625)"/>
       <path id="DejaVuSans-73" d="M 2834 3397 
L 2834 2853 
Q 2591 2978 2328 3040 
Q 2066 3103 1784 3103 
Q 1356 3103 1142 2972 
Q 928 2841 928 2578 
Q 928 2378 1081 2264 
Q 1234 2150 1697 2047 
L 1894 2003 
Q 2506 1872 2764 1633 
Q 3022 1394 3022 966 
Q 3022 478 2636 193 
Q 2250 -91 1575 -91 
Q 1294 -91 989 -36 
Q 684 19 347 128 
L 347 722 
Q 666 556 975 473 
Q 1284 391 1588 391 
Q 1994 391 2212 530 
Q 2431 669 2431 922 
Q 2431 1156 2273 1281 
Q 2116 1406 1581 1522 
L 1381 1569 
Q 847 1681 609 1914 
Q 372 2147 372 2553 
Q 372 3047 722 3315 
Q 1072 3584 1716 3584 
Q 2034 3584 2315 3537 
Q 2597 3491 2834 3397 
z
" transform="scale(0.015625)"/>
       <path id="DejaVuSans-20" transform="scale(0.015625)"/>
       <path id="DejaVuSans-45" d="M 628 4666 
L 3578 4666 
L 3578 4134 
L 1259 4134 
L 1259 2753 
L 3481 2753 
L 3481 2222 
L 1259 2222 
L 1259 531 
L 3634 531 
L 3634 0 
L 628 0 
L 628 4666 
z
" transform="scale(0.015625)"/>
       <path id="DejaVuSans-70" d="M 1159 525 
L 1159 -1331 
L 581 -1331 
L 581 3500 
L 1159 3500 
L 1159 2969 
Q 1341 3281 1617 3432 
Q 1894 3584 2278 3584 
Q 2916 3584 3314 3078 
Q 3713 2572 3713 1747 
Q 3713 922 3314 415 
Q 2916 -91 2278 -91 
Q 1894 -91 1617 61 
Q 1341 213 1159 525 
z
M 3116 1747 
Q 3116 2381 2855 2742 
Q 2594 3103 2138 3103 
Q 1681 3103 1420 2742 
Q 1159 2381 1159 1747 
Q 1159 1113 1420 752 
Q 1681 391 2138 391 
Q 2594 391 2855 752 
Q 3116 1113 3116 1747 
z
" transform="scale(0.015625)"/>
       <path id="DejaVuSans-79" d="M 2059 -325 
Q 1816 -950 1584 -1140 
Q 1353 -1331 966 -1331 
L 506 -1331 
L 506 -850 
L 844 -850 
Q 1081 -850 1212 -737 
Q 1344 -625 1503 -206 
L 1606 56 
L 191 3500 
L 800 3500 
L 1894 763 
L 2988 3500 
L 3597 3500 
L 2059 -325 
z
" transform="scale(0.015625)"/>
       <path id="DejaVuSans-4c" d="M 628 4666 
L 1259 4666 
L 1259 531 
L 3531 531 
L 3531 0 
L 628 0 
L 628 4666 
z
" transform="scale(0.015625)"/>
      </defs>
      <use xlink:href="#DejaVuSans-43"/>
      <use xlink:href="#DejaVuSans-72" x="69.824219"/>
      <use xlink:href="#DejaVuSans-6f" x="108.6875"/>
      <use xlink:href="#DejaVuSans-73" x="169.869141"/>
      <use xlink:href="#DejaVuSans-73" x="221.96875"/>
      <use xlink:href="#DejaVuSans-20" x="274.068359"/>
      <use xlink:href="#DejaVuSans-45" x="305.855469"/>
      <use xlink:href="#DejaVuSans-6e" x="369.039062"/>
      <use xlink:href="#DejaVuSans-74" x="432.417969"/>
      <use xlink:href="#DejaVuSans-72" x="471.626953"/>
      <use xlink:href="#DejaVuSans-6f" x="510.490234"/>
      <use xlink:href="#DejaVuSans-70" x="571.671875"/>
      <use xlink:href="#DejaVuSans-79" x="635.148438"/>
      <use xlink:href="#DejaVuSans-20" x="694.328125"/>
      <use xlink:href="#DejaVuSans-4c" x="726.115234"/>
      <use xlink:href="#DejaVuSans-6f" x="780.078125"/>
      <use xlink:href="#DejaVuSans-73" x="841.259766"/>
      <use xlink:href="#DejaVuSans-73" x="893.359375"/>
     </g>
    </g>
   </g>
   <g id="line2d_23">
    <path d="M 152.293388 55.8 
L 152.331024 56.175529 
L 152.632106 67.455821 
L 153.572986 96.338843 
L 153.761162 98.789494 
L 153.949339 103.065012 
L 154.25042 108.324728 
L 155.04076 117.686839 
L 155.944006 124.767877 
L 156.056911 125.292917 
L 156.169817 125.828689 
L 156.357993 127.03819 
L 156.583805 128.485648 
L 156.809616 129.76011 
L 157.110698 130.805043 
L 157.148333 130.809621 
L 158.315025 135.919224 
L 158.917189 137.492781 
L 159.556988 139.690875 
L 159.594623 139.702488 
L 159.895705 140.926167 
L 159.93334 140.948329 
L 160.422598 143.018595 
L 160.686045 143.499628 
L 160.874221 143.942327 
L 161.137668 144.431977 
L 161.58929 145.783841 
L 161.852737 146.864582 
L 161.890372 146.826143 
L 162.30436 147.928122 
L 162.530171 148.298266 
L 162.944159 149.163734 
L 163.057064 149.041883 
L 163.0947 149.047332 
L 163.433417 150.59661 
L 163.659228 151.318397 
L 163.734499 151.457447 
L 164.03558 152.268577 
L 164.148486 152.28052 
L 164.374297 152.810277 
L 164.449568 152.770477 
L 164.487203 152.849538 
L 164.637744 153.121863 
L 164.901191 153.843357 
L 165.089367 154.153466 
L 165.239908 154.495319 
L 165.277543 154.470739 
L 165.390449 154.456458 
L 165.729166 155.109494 
L 165.766801 155.090465 
L 165.804436 155.051821 
L 165.842071 155.141139 
L 166.180788 155.711792 
L 166.48187 156.498746 
L 166.745317 156.918178 
L 166.782952 156.85605 
L 166.820587 156.943622 
L 167.347481 157.899408 
L 167.422751 157.888018 
L 167.610927 158.253879 
L 167.648562 158.20405 
L 167.836739 158.268506 
L 168.325997 159.308624 
L 168.589443 159.996094 
L 168.777619 160.232566 
L 169.153972 160.568819 
L 169.191607 160.534732 
L 169.229242 160.61349 
L 169.530324 161.144085 
L 169.64323 161.049099 
L 169.756135 161.214506 
L 169.981947 161.542393 
L 170.019582 161.510647 
L 170.057217 161.557813 
L 170.283029 161.958944 
L 170.320664 162.070185 
L 170.395934 162.013047 
L 170.471205 162.164195 
L 170.697016 162.642112 
L 170.809922 162.619744 
L 170.960463 162.572451 
L 171.186274 163.27267 
L 171.336815 163.619169 
L 171.37445 163.590945 
L 171.637897 163.905397 
L 171.750803 164.050741 
L 173.143306 165.665952 
L 173.180941 165.60951 
L 173.218577 165.520307 
L 173.256212 165.629678 
L 173.783105 166.572525 
L 173.82074 166.469569 
L 174.272363 166.921537 
L 174.422904 167.168379 
L 174.498174 167.174611 
L 174.61108 167.53839 
L 174.648715 167.506367 
L 174.686351 167.487674 
L 174.949797 168.042032 
L 175.175609 168.236955 
L 175.363785 168.660651 
L 175.439055 168.573149 
L 175.47669 168.637564 
L 175.664867 168.812797 
L 175.890678 168.946289 
L 175.965948 168.892083 
L 176.003584 168.953266 
L 176.041219 169.006343 
L 176.078854 168.97726 
L 176.116489 168.872819 
L 176.154125 169.050494 
L 176.229395 169.128167 
L 176.568112 169.888885 
L 177.132641 170.709163 
L 177.358452 171.282067 
L 177.396087 171.267019 
L 177.433722 171.368115 
L 177.960616 172.295189 
L 177.998251 172.259566 
L 178.111157 172.275635 
L 178.148792 172.335771 
L 178.186427 172.210681 
L 178.224062 172.248645 
L 178.788591 172.599559 
L 178.863861 172.605794 
L 178.976767 172.940939 
L 179.014402 172.924031 
L 179.089673 173.003607 
L 179.315484 173.363775 
L 179.50366 173.902274 
L 179.616566 173.928863 
L 179.804742 174.223059 
L 179.842377 174.315943 
L 179.880012 174.271757 
L 179.917648 174.176191 
L 179.992918 174.235527 
L 180.030553 174.214093 
L 180.068189 174.281811 
L 180.406906 174.772102 
L 180.670352 175.137714 
L 181.535963 176.563245 
L 181.573598 176.5067 
L 181.611233 176.615509 
L 182.100491 177.229039 
L 182.138126 177.193512 
L 182.175761 177.241847 
L 182.928466 178.304334 
L 183.003737 178.542172 
L 183.079007 178.484278 
L 183.191913 178.405738 
L 183.492995 178.858929 
L 183.568265 178.93766 
L 183.756441 179.306 
L 183.794076 179.264375 
L 183.831712 179.202692 
L 183.869347 179.273822 
L 183.982253 179.416271 
L 184.019888 179.371855 
L 184.057523 179.441102 
L 184.170429 179.424009 
L 184.208064 179.356995 
L 184.245699 179.442339 
L 184.584416 179.862569 
L 184.659687 179.794219 
L 184.697322 179.819965 
L 185.450027 181.12586 
L 185.525297 181.097419 
L 185.901649 181.735331 
L 185.939285 181.699738 
L 186.127461 182.166037 
L 186.165096 182.095915 
L 186.202731 182.054286 
L 186.240366 182.104851 
L 186.315637 182.232676 
L 186.390907 182.116033 
L 186.503813 182.095495 
L 186.579083 182.346534 
L 186.654354 182.321384 
L 186.691989 182.356716 
L 186.729624 182.282262 
L 186.76726 182.249352 
L 186.804895 182.300696 
L 187.143612 182.551142 
L 187.181247 182.463924 
L 187.256518 182.518652 
L 187.407059 182.725205 
L 187.595235 183.15466 
L 187.858681 183.345326 
L 188.272669 183.812222 
L 188.460845 183.555119 
L 188.49848 183.648138 
L 188.573751 183.583759 
L 188.649021 183.648394 
L 188.686656 183.571515 
L 188.761927 183.44965 
L 188.799562 183.515095 
L 188.837197 183.519072 
L 188.987738 183.672564 
L 189.025373 183.603789 
L 189.063009 183.666437 
L 189.100644 183.72789 
L 189.21355 183.543089 
L 189.251185 183.576127 
L 189.28882 183.629133 
L 189.326455 183.5445 
L 189.401726 183.528372 
L 189.439361 183.601107 
L 189.589902 183.85173 
L 189.853349 184.121774 
L 189.890984 184.051453 
L 189.928619 183.976791 
L 189.966254 184.033351 
L 190.229701 184.320103 
L 190.606053 184.367156 
L 190.794229 184.821069 
L 190.94477 184.904348 
L 190.982405 184.989219 
L 191.057676 184.895441 
L 191.170582 185.01713 
L 191.208217 184.931638 
L 191.283487 184.869718 
L 191.321122 184.982758 
L 192.262003 186.633819 
L 192.299638 186.604689 
L 192.487815 186.470857 
L 192.864167 186.48778 
L 193.202884 187.282821 
L 193.240519 187.17389 
L 193.31579 187.278225 
L 193.579236 187.702643 
L 193.729777 188.045202 
L 193.805048 187.877158 
L 193.880318 187.962262 
L 194.219035 188.576192 
L 194.294306 188.87668 
L 194.369576 188.835542 
L 194.557752 188.912662 
L 194.670658 188.929982 
L 194.745928 188.930889 
L 194.858834 189.233903 
L 194.896469 189.177698 
L 195.235186 189.399377 
L 195.310457 189.267368 
L 195.385727 189.305494 
L 195.460998 189.412308 
L 195.536268 189.37087 
L 196.213702 190.181296 
L 196.477149 190.54201 
L 197.154583 191.732078 
L 197.41803 191.797783 
L 197.530936 191.979932 
L 197.568571 191.840847 
L 197.643841 191.971907 
L 198.133099 192.895781 
L 198.170734 192.796243 
L 198.28364 192.792239 
L 198.471816 193.029768 
L 198.509452 192.906634 
L 198.547087 193.06741 
L 198.923439 193.854332 
L 198.961074 193.841833 
L 199.111615 194.113152 
L 199.14925 194.073868 
L 199.299791 194.404863 
L 199.337427 194.307476 
L 199.412697 194.36337 
L 199.563238 194.535732 
L 199.676144 194.461332 
L 199.713779 194.335928 
L 199.789049 194.466066 
L 200.014861 194.77986 
L 200.090131 194.879429 
L 200.504119 195.568802 
L 200.541754 195.479031 
L 200.617024 195.586481 
L 200.65466 195.518691 
L 200.692295 195.552628 
L 201.068647 196.291546 
L 201.106282 196.273095 
L 201.143918 196.371429 
L 201.294459 196.676159 
L 201.52027 197.003299 
L 201.59554 196.927356 
L 201.821352 197.118092 
L 202.348245 198.15969 
L 202.423515 198.224736 
L 202.686962 198.642065 
L 202.762233 198.674468 
L 202.912773 199.111013 
L 202.950409 198.965224 
L 202.988044 198.890544 
L 203.025679 199.008603 
L 203.10095 199.18574 
L 203.17622 199.132548 
L 203.326761 199.084682 
L 203.665478 199.498518 
L 204.267642 200.222798 
L 204.493453 200.810489 
L 204.568724 200.905809 
L 205.584875 203.193638 
L 205.62251 203.147811 
L 205.660145 203.135401 
L 205.998862 204.218394 
L 206.111768 204.438702 
L 206.149403 204.406622 
L 206.187039 204.338763 
L 206.224674 204.457607 
L 206.41285 204.639125 
L 206.450485 204.547403 
L 206.525756 204.599023 
L 206.939743 205.184459 
L 207.090284 205.171307 
L 207.391366 205.863225 
L 207.466636 205.73912 
L 207.504272 205.831117 
L 207.692448 205.925759 
L 207.805353 205.964234 
L 207.918259 206.143831 
L 208.106435 206.343006 
L 208.181706 206.434898 
L 208.595693 206.950245 
L 208.746234 206.813311 
L 209.235492 207.411207 
L 209.386033 207.560792 
L 209.611845 207.586713 
L 209.72475 207.804549 
L 209.762385 207.736523 
L 209.837656 207.657231 
L 209.875291 207.698773 
L 210.063467 207.877689 
L 210.101103 207.846936 
L 210.138738 208.033444 
L 210.214008 207.954797 
L 210.43982 208.072072 
L 210.740901 209.066662 
L 210.929078 209.460707 
L 210.966713 209.419412 
L 211.004348 209.405849 
L 211.192524 209.87159 
L 211.230159 209.812565 
L 211.343065 210.076344 
L 211.568877 210.362433 
L 211.644147 210.303953 
L 211.681782 210.344362 
L 211.982864 210.436272 
L 212.17104 210.308213 
L 212.283946 210.330298 
L 212.321581 210.228058 
L 212.396852 210.311473 
L 212.735569 209.952485 
L 212.810839 209.794418 
L 212.848474 209.82251 
L 212.96138 209.971623 
L 212.999015 209.926622 
L 213.224827 210.087668 
L 213.262462 209.980533 
L 213.337732 209.813909 
L 213.375368 209.861639 
L 213.563544 209.739036 
L 213.82699 209.90499 
L 213.864626 209.840214 
L 214.015167 209.818976 
L 214.052802 209.897254 
L 214.090437 209.74828 
L 214.128072 209.665523 
L 214.203343 209.723732 
L 214.316248 209.835789 
L 214.353884 209.777173 
L 214.504425 209.701216 
L 214.54206 209.834889 
L 214.61733 209.759936 
L 214.654965 209.65429 
L 214.692601 209.804168 
L 214.730236 209.715692 
L 215.068953 210.342197 
L 215.106588 210.299338 
L 215.144223 210.31746 
L 215.294764 210.100629 
L 215.40767 210.320933 
L 215.445305 210.246195 
L 215.595846 210.4054 
L 216.837809 212.114495 
L 216.875444 212.061948 
L 217.101255 212.622573 
L 217.176526 212.746252 
L 217.891595 214.299385 
L 218.192677 214.526784 
L 218.305583 214.442723 
L 218.531394 214.930943 
L 218.569029 214.891502 
L 218.832476 215.040437 
L 219.133558 214.772321 
L 219.171193 214.91079 
L 219.246464 214.864648 
L 219.359369 214.741364 
L 219.397004 214.82375 
L 219.547545 214.842634 
L 220.22498 215.933114 
L 220.37552 216.442312 
L 220.413156 216.305753 
L 220.450791 216.35257 
L 220.601332 216.545612 
L 220.751873 216.352167 
L 220.789508 216.403124 
L 220.864778 216.67786 
L 220.977684 216.614929 
L 221.16586 216.947468 
L 221.203496 216.890507 
L 221.241131 216.83265 
L 221.278766 216.876653 
L 221.542213 217.320007 
L 221.579848 217.241159 
L 221.617483 217.259218 
L 221.655118 217.444228 
L 221.730389 217.369075 
L 221.993835 217.517772 
L 222.182012 218.020941 
L 222.294917 218.16698 
L 222.520729 218.438003 
L 222.595999 218.405904 
L 222.82181 218.789874 
L 223.009987 218.929583 
L 223.047622 218.812097 
L 223.160528 218.74812 
L 223.235798 218.615623 
L 223.386339 218.246672 
L 223.423974 218.339704 
L 223.53688 218.380613 
L 223.574515 218.446594 
L 223.61215 218.376948 
L 223.687421 218.333744 
L 223.725056 218.385087 
L 223.762691 218.368919 
L 223.800326 218.477301 
L 223.837962 218.445438 
L 223.988503 218.151314 
L 224.026138 218.220238 
L 224.176679 218.380508 
L 224.440125 218.302982 
L 224.628302 217.939486 
L 224.665937 217.997182 
L 224.703572 217.889238 
L 224.891748 217.606762 
L 224.929383 217.637818 
L 224.967019 217.578125 
L 225.19283 216.873323 
L 225.2681 216.911763 
L 225.305736 217.063287 
L 225.381006 216.913181 
L 225.493912 216.969994 
L 225.531547 216.836425 
L 225.606818 216.873654 
L 225.907899 216.800783 
L 225.945535 216.899237 
L 225.98317 216.743412 
L 226.020805 216.684957 
L 226.05844 216.8049 
L 226.096076 216.767331 
L 226.359522 216.824728 
L 226.397157 216.820249 
L 226.434793 217.03363 
L 226.510063 216.945847 
L 226.547698 216.907363 
L 226.585334 216.960608 
L 226.886415 217.342585 
L 226.961686 217.107868 
L 226.999321 217.129785 
L 227.036956 217.197034 
L 227.074591 217.168154 
L 227.225132 216.942204 
L 227.375673 217.013137 
L 227.413309 216.938758 
L 227.450944 217.050946 
L 227.71439 217.392726 
L 227.752026 217.347054 
L 227.827296 217.235328 
L 227.864931 217.281746 
L 228.128378 217.641327 
L 228.50473 218.677207 
L 228.542365 218.637998 
L 228.580001 218.554066 
L 228.617636 218.63099 
L 228.805812 218.844426 
L 228.843447 218.818191 
L 228.881083 218.912405 
L 229.520881 220.093188 
L 229.596152 220.009509 
L 229.633787 219.90865 
L 229.709058 219.950605 
L 229.784328 219.905987 
L 229.821963 219.859255 
L 229.859599 219.956506 
L 230.16068 219.973324 
L 230.461762 220.046151 
L 230.537033 220.011292 
L 230.800479 220.445322 
L 231.139196 220.88521 
L 231.214467 220.709707 
L 231.327373 220.557962 
L 231.553184 220.8062 
L 231.66609 220.722874 
L 233.209134 223.982741 
L 233.510216 224.361986 
L 233.547851 224.485285 
L 233.623122 224.450678 
L 233.886568 224.56999 
L 234.037109 224.955003 
L 234.150015 224.807965 
L 234.225285 224.934016 
L 234.262921 224.866061 
L 234.338191 224.830576 
L 234.601638 225.347473 
L 234.827449 225.552294 
L 234.865084 225.502059 
L 234.97799 225.539146 
L 235.015625 225.614705 
L 235.05326 225.575075 
L 235.203801 225.486729 
L 235.279072 225.497837 
L 235.354342 225.71626 
L 235.429613 225.670646 
L 235.617789 225.667071 
L 235.805965 225.498423 
L 235.956506 225.389407 
L 235.994141 225.314846 
L 236.031776 225.395472 
L 236.257588 225.682974 
L 236.408129 225.855152 
L 236.55867 225.720796 
L 236.709211 225.687354 
L 236.897387 225.474778 
L 237.047928 225.228672 
L 237.085563 225.31161 
L 237.198469 225.40373 
L 237.236104 225.588346 
L 237.311374 225.506384 
L 237.574821 225.780219 
L 237.762997 225.699323 
L 238.327525 225.900996 
L 238.478066 225.678019 
L 238.553337 225.816994 
L 238.628607 225.775053 
L 238.779148 225.924233 
L 238.816783 225.862416 
L 238.854419 225.782908 
L 238.929689 225.831127 
L 239.08023 225.919326 
L 239.418947 226.176758 
L 239.456582 226.120336 
L 239.494218 226.177133 
L 239.607123 226.392657 
L 239.795299 226.55292 
L 239.832935 226.545796 
L 239.983476 226.356285 
L 240.397463 226.636623 
L 240.472734 226.76328 
L 240.510369 226.692828 
L 240.585639 226.776558 
L 240.623274 226.661313 
L 240.811451 226.917461 
L 240.849086 226.840887 
L 240.886721 226.917444 
L 241.413614 227.858255 
L 241.564155 227.749452 
L 241.677061 228.046579 
L 241.714696 227.993681 
L 241.902872 228.065984 
L 242.053413 228.413828 
L 242.166319 228.51057 
L 242.279225 228.68262 
L 242.31686 228.608099 
L 242.354495 228.527 
L 242.39213 228.630977 
L 242.655577 228.984647 
L 242.730847 228.885505 
L 243.144835 228.669799 
L 243.257741 228.756323 
L 243.295376 228.734189 
L 243.370646 228.462195 
L 243.408282 228.504199 
L 243.521187 228.74667 
L 243.558822 228.615826 
L 243.634093 228.73888 
L 243.822269 228.708618 
L 244.085716 228.974177 
L 244.123351 228.970451 
L 244.273892 229.345248 
L 244.349162 229.31092 
L 244.574974 229.717542 
L 244.725515 229.634926 
L 244.83842 229.604492 
L 244.988961 229.733028 
L 245.064232 229.558304 
L 245.139502 229.638551 
L 245.365314 230.044434 
L 245.402949 230.045764 
L 245.62876 230.578256 
L 245.816936 230.704023 
L 245.967477 230.889662 
L 246.080383 230.663018 
L 246.118018 230.796352 
L 246.720182 231.493421 
L 246.870723 231.401108 
L 246.983628 231.335773 
L 247.096534 231.276318 
L 247.134169 231.352226 
L 247.171805 231.276179 
L 247.20944 231.169694 
L 247.28471 231.232934 
L 247.510522 231.491505 
L 247.548157 231.406095 
L 247.661063 231.082042 
L 247.736333 231.176846 
L 248.263226 231.233359 
L 248.489038 231.061678 
L 248.526673 231.073657 
L 248.677214 230.800988 
L 248.752484 230.751484 
L 248.94066 230.323243 
L 249.053566 230.21873 
L 249.091201 230.341571 
L 249.166472 230.261189 
L 249.806271 230.289911 
L 249.919176 230.455375 
L 249.956812 230.411407 
L 249.994447 230.205619 
L 250.069717 230.317353 
L 250.220258 230.203109 
L 250.333164 230.348592 
L 250.370799 230.33073 
L 250.52134 230.325309 
L 250.709516 230.41639 
L 251.274045 231.495218 
L 251.38695 231.629034 
L 251.725667 232.230061 
L 251.763303 232.192994 
L 251.800938 232.256231 
L 251.913844 232.415645 
L 252.704183 234.059475 
L 252.854724 234.177244 
L 252.929995 234.258075 
L 253.042901 234.129759 
L 253.155806 234.282696 
L 253.193441 234.263084 
L 253.306347 234.432793 
L 253.381618 234.316866 
L 253.494523 234.141931 
L 253.532159 234.258013 
L 253.607429 234.368667 
L 253.645064 234.251157 
L 253.720335 234.263524 
L 253.75797 234.343924 
L 253.795605 234.244937 
L 253.983781 234.015006 
L 254.059052 234.145946 
L 254.096687 234.101007 
L 254.209593 233.850534 
L 254.247228 233.893248 
L 254.360134 233.956449 
L 254.397769 233.91821 
L 254.473039 233.866735 
L 254.510675 233.905964 
L 254.54831 234.050854 
L 254.585945 233.985822 
L 254.811756 233.469355 
L 254.999933 233.563159 
L 255.037568 233.39699 
L 255.112838 233.563761 
L 255.225744 233.717978 
L 255.301014 233.623628 
L 255.41392 233.403678 
L 255.451555 233.491901 
L 256.20426 233.981679 
L 256.505342 234.582245 
L 256.542977 234.55849 
L 256.693518 234.767679 
L 256.919329 234.885885 
L 256.9946 234.849928 
L 257.107505 234.764163 
L 257.220411 234.844946 
L 257.258046 234.732868 
L 257.446223 234.579554 
L 257.521493 234.822002 
L 257.596763 234.689818 
L 257.973116 234.650051 
L 258.274198 235.0441 
L 258.311833 234.979353 
L 258.462374 234.846252 
L 258.612915 234.454853 
L 258.65055 234.466753 
L 258.72582 234.401358 
L 259.215078 234.038819 
L 259.290349 234.140274 
L 259.327984 234.070958 
L 260.043053 233.077578 
L 260.118324 232.998544 
L 260.155959 233.101362 
L 260.457041 233.008318 
L 260.758123 232.801647 
L 260.795758 232.873853 
L 260.833393 232.716115 
L 260.871029 232.677821 
L 261.059205 233.243118 
L 261.209746 233.336444 
L 261.510827 233.798227 
L 261.699004 233.629328 
L 261.849545 233.731725 
L 261.88718 233.615589 
L 261.96245 233.666448 
L 262.075356 233.544524 
L 262.112991 233.633282 
L 262.338803 234.253981 
L 262.376438 234.286559 
L 262.414073 234.242467 
L 262.489343 234.136823 
L 262.526979 234.193123 
L 262.75279 234.761543 
L 262.828061 234.894525 
L 263.354954 236.79003 
L 263.392589 236.763572 
L 263.430224 236.835552 
L 263.806576 238.027563 
L 264.182929 239.320831 
L 264.371105 239.787482 
L 265.763608 245.666876 
L 265.951785 246.373872 
L 266.215231 247.535111 
L 266.629219 249.045842 
L 266.77976 249.392409 
L 267.532464 252.292792 
L 267.833546 253.58126 
L 270.129295 263.32087 
L 270.279836 263.668799 
L 270.580918 264.226245 
L 270.844365 264.712147 
L 271.145446 265.193923 
L 271.220717 265.216077 
L 271.333623 265.302644 
L 271.371258 265.245755 
L 271.408893 265.301874 
L 271.860516 265.795735 
L 272.123962 266.17204 
L 272.387409 266.259971 
L 272.726126 266.663349 
L 272.951938 266.673302 
L 273.591736 266.95694 
L 273.742277 267.109473 
L 274.156265 267.549986 
L 274.306806 267.844848 
L 274.344441 267.791478 
L 275.77458 269.824305 
L 275.84985 269.832105 
L 276.038026 270.00812 
L 276.075662 269.969493 
L 276.113297 270.015846 
L 276.376743 270.417086 
L 276.414379 270.366225 
L 276.452014 270.444351 
L 276.866001 271.049188 
L 276.978907 271.188794 
L 277.242354 271.601505 
L 277.355259 271.721074 
L 278.333775 273.114551 
L 278.446681 273.186045 
L 278.597222 273.397306 
L 278.710128 273.457536 
L 279.274656 274.134042 
L 279.312291 274.109053 
L 279.349927 274.183805 
L 279.688644 274.510721 
L 279.726279 274.449206 
L 279.763914 274.558016 
L 279.914455 274.727028 
L 280.290807 275.197776 
L 280.591889 275.744234 
L 280.74243 275.747401 
L 280.930606 275.987528 
L 281.043512 276.037675 
L 281.118783 276.080131 
L 281.156418 275.959465 
L 281.194053 276.043036 
L 281.4575 276.373561 
L 281.720946 276.596738 
L 281.833852 276.671815 
L 281.984393 276.845813 
L 282.022028 276.808888 
L 282.436016 276.714461 
L 282.624192 276.675999 
L 282.812368 276.69677 
L 282.925274 276.532431 
L 282.962909 276.574411 
L 283.18872 276.740987 
L 283.263991 276.767745 
L 283.376896 276.862331 
L 283.414532 276.829143 
L 283.640343 277.047453 
L 283.715613 276.953239 
L 283.866154 276.873106 
L 283.941425 276.949201 
L 283.97906 276.891138 
L 284.091966 276.684709 
L 284.129601 276.752452 
L 284.204871 276.823767 
L 284.393048 276.98711 
L 284.543589 276.894302 
L 284.656494 276.894097 
L 284.7694 276.821178 
L 284.919941 276.723452 
L 285.070482 276.871504 
L 285.183387 276.683272 
L 285.221023 276.713115 
L 285.296293 276.609715 
L 285.446834 276.616979 
L 286.237174 276.904556 
L 287.027514 278.200442 
L 287.366231 278.652088 
L 287.516772 278.848816 
L 288.00603 279.298202 
L 288.269476 279.806041 
L 288.307112 279.771322 
L 288.344747 279.831936 
L 288.532923 280.124001 
L 288.758734 280.390777 
L 288.834005 280.438098 
L 288.984546 280.487696 
L 289.022181 280.442585 
L 289.059816 280.49523 
L 289.323263 280.794342 
L 289.436168 280.91465 
L 289.473804 280.794788 
L 289.511439 280.794551 
L 289.699615 281.069732 
L 289.887791 281.391693 
L 290.151238 281.77492 
L 290.226508 281.886145 
L 290.489955 282.101086 
L 290.52759 282.097521 
L 290.678131 282.240179 
L 290.903942 282.5453 
L 291.129754 282.881554 
L 291.468471 283.253461 
L 291.731918 283.616275 
L 291.920094 283.824452 
L 291.995364 284.035844 
L 292.070635 284.011808 
L 292.371716 284.33736 
L 292.522257 284.354124 
L 293.500773 285.186059 
L 293.68895 285.523379 
L 293.726585 285.488833 
L 293.801855 285.454957 
L 293.914761 285.536575 
L 293.952396 285.516568 
L 294.328748 285.429753 
L 294.516925 285.446882 
L 294.855642 285.206616 
L 295.909428 284.724659 
L 295.947063 284.782679 
L 295.984699 284.741435 
L 296.097604 284.557554 
L 296.13524 284.638217 
L 296.436321 284.709542 
L 296.549227 284.702156 
L 296.737403 284.577872 
L 296.925579 284.631034 
L 297.414837 284.640525 
L 297.603014 284.487907 
L 297.715919 284.505013 
L 297.753554 284.435934 
L 297.79119 284.483266 
L 297.941731 284.674391 
L 298.355718 285.072181 
L 298.506259 285.167586 
L 298.73207 285.41593 
L 298.957882 285.598124 
L 299.296599 286.019618 
L 299.861127 286.678467 
L 300.199844 287.244568 
L 300.613832 287.844472 
L 300.764373 287.960584 
L 300.990184 288.335315 
L 301.517077 288.771057 
L 301.667618 288.975674 
L 301.89343 289.125452 
L 303.135392 290.785487 
L 303.173028 290.735714 
L 303.210663 290.782353 
L 304.113908 291.870519 
L 304.828978 292.716307 
L 305.468777 293.507696 
L 305.619318 293.476501 
L 305.769859 293.697718 
L 305.882764 293.614856 
L 305.920399 293.653809 
L 306.033305 293.712795 
L 306.07094 293.676204 
L 306.221481 293.647802 
L 306.409657 293.530831 
L 307.312903 293.268625 
L 308.103243 292.674349 
L 308.329054 292.608587 
L 308.51723 292.375761 
L 308.592501 292.422837 
L 308.630136 292.364435 
L 308.780677 292.305636 
L 309.269935 291.988599 
L 309.382841 291.954837 
L 309.646287 291.848953 
L 310.060275 292.185164 
L 310.700074 292.590483 
L 310.850615 292.662638 
L 311.001156 292.665327 
L 311.302237 292.882477 
L 311.75386 293.242915 
L 311.791495 293.202487 
L 311.829131 293.250668 
L 312.017307 293.356108 
L 312.130213 293.342256 
L 312.5442 293.545424 
L 312.770011 293.748717 
L 312.920552 293.823993 
L 313.33454 294.08351 
L 313.485081 294.080054 
L 313.710892 294.160796 
L 313.823798 294.211151 
L 314.275421 294.641824 
L 317.286239 297.907797 
L 317.963673 297.912262 
L 318.076579 297.847737 
L 318.114214 297.888684 
L 318.565837 297.907588 
L 318.904554 297.85084 
L 319.09273 297.865183 
L 319.356177 297.877914 
L 319.581988 297.794053 
L 319.920705 297.711394 
L 320.146517 297.631787 
L 320.297058 297.598834 
L 320.711045 297.352765 
L 320.936856 297.329666 
L 321.125033 297.36159 
L 321.388479 297.427107 
L 321.53902 297.390369 
L 321.953008 297.49852 
L 322.103549 297.525082 
L 322.291725 297.54384 
L 322.780983 297.763088 
L 323.1197 297.806333 
L 323.947675 298.215779 
L 324.248757 298.292912 
L 325.791801 298.867644 
L 325.867072 298.87975 
L 326.017613 299.012472 
L 326.4316 299.263603 
L 326.619776 299.345164 
L 326.732682 299.387378 
L 327.673563 300.009481 
L 327.824104 300.019771 
L 328.275726 300.412365 
L 328.652079 300.580718 
L 328.840255 300.602572 
L 328.915525 300.576142 
L 328.953161 300.625286 
L 329.028431 300.604883 
L 329.178972 300.597301 
L 330.646746 300.162183 
L 330.759652 300.094758 
L 330.910193 300.076319 
L 331.399451 299.609045 
L 331.474721 299.603685 
L 331.625262 299.566353 
L 332.490872 299.282289 
L 332.829589 298.971813 
L 333.205942 298.825417 
L 333.657564 298.895341 
L 334.184458 298.93621 
L 334.334999 298.931855 
L 334.56081 299.001817 
L 335.765137 299.325514 
L 336.14149 299.457952 
L 336.329666 299.412394 
L 336.894194 299.820153 
L 337.08237 299.904391 
L 337.345817 299.997119 
L 337.458723 300.018724 
L 337.722169 300.117546 
L 337.87271 300.118428 
L 338.098522 300.220546 
L 338.474874 300.424867 
L 338.66305 300.621316 
L 338.775956 300.67438 
L 339.679201 301.193725 
L 339.829742 301.233707 
L 340.017918 301.290222 
L 340.544812 301.723167 
L 340.620082 301.701168 
L 340.657717 301.746356 
L 340.883529 301.788245 
L 341.071705 301.77576 
L 341.448057 301.709763 
L 341.824409 301.6317 
L 341.89968 301.582781 
L 342.163126 301.450697 
L 342.388938 301.407699 
L 342.577114 301.318294 
L 342.727655 301.298577 
L 342.878196 301.290398 
L 343.6309 301.081539 
L 343.969618 301.120225 
L 344.308335 300.996834 
L 344.609416 300.894318 
L 344.797593 300.877241 
L 345.098674 300.82849 
L 345.362121 300.939598 
L 345.512662 300.940851 
L 345.663203 301.00074 
L 346.07719 301.185592 
L 346.641719 301.182145 
L 347.5826 301.34541 
L 348.937468 301.768109 
L 350.217066 302.392483 
L 350.442877 302.429577 
L 350.706324 302.527923 
L 350.932135 302.65077 
L 351.082676 302.693751 
L 351.722475 302.816726 
L 351.910651 302.889079 
L 352.061192 302.899559 
L 352.287003 303.059591 
L 352.399909 303.023834 
L 352.625721 303.07787 
L 352.700991 303.02339 
L 352.738626 303.071527 
L 353.227884 302.97877 
L 353.528966 302.855223 
L 353.717142 302.747227 
L 354.13113 302.677326 
L 354.356941 302.556592 
L 354.808564 302.47588 
L 356.125797 301.925403 
L 356.238703 301.890041 
L 356.765596 301.593783 
L 357.066678 301.611218 
L 357.781747 301.683133 
L 358.346276 301.636801 
L 358.760263 301.687624 
L 360.867836 301.979953 
L 361.018377 301.946565 
L 361.394729 302.18056 
L 361.620541 302.239268 
L 361.808717 302.295972 
L 362.147434 302.403637 
L 362.297975 302.459127 
L 362.636692 302.60547 
L 362.937774 302.711741 
L 363.238856 302.764864 
L 363.351761 302.823631 
L 364.518453 303.133732 
L 365.007711 303.024408 
L 365.195888 303.008423 
L 365.346428 302.959354 
L 365.609875 302.919077 
L 365.722781 302.878823 
L 365.910957 302.801382 
L 366.136768 302.714497 
L 366.513121 302.680714 
L 366.701297 302.643801 
L 366.889473 302.672495 
L 367.115284 302.526379 
L 367.341096 302.511817 
L 367.943259 302.425 
L 368.0938 302.410313 
L 368.432517 302.373668 
L 369.260492 302.275935 
L 369.523939 302.347428 
L 369.67448 302.311314 
L 370.163738 302.184925 
L 370.389549 302.182311 
L 370.615361 302.149597 
L 371.33043 302.427129 
L 371.932594 302.538916 
L 372.19604 302.654505 
L 372.610028 302.686109 
L 372.760569 302.67921 
L 373.136921 302.633398 
L 373.287462 302.657595 
L 373.550909 302.785834 
L 373.70145 302.808602 
L 373.851991 302.8283 
L 374.265978 302.800317 
L 374.679966 302.888844 
L 375.244494 302.915004 
L 375.809023 303.072006 
L 376.373551 302.984588 
L 376.599362 303.036967 
L 377.314432 302.969346 
L 377.502608 303.021417 
L 377.916595 303.057376 
L 378.180042 303.1011 
L 378.819841 302.803965 
L 379.008017 302.672028 
L 379.572546 302.448288 
L 379.911263 302.242875 
L 382.244647 302.663115 
L 382.508094 302.756261 
L 382.959716 302.912718 
L 383.223163 303.005735 
L 383.862962 303.325616 
L 384.803843 303.694257 
L 385.443642 303.884577 
L 387.325403 305.037399 
L 387.58885 305.189567 
L 387.852296 305.301743 
L 388.906083 305.612056 
L 389.470611 305.868055 
L 389.658787 305.889465 
L 390.03514 305.892888 
L 396.433129 306.670423 
L 397.411645 306.747347 
L 398.164349 306.787788 
L 398.578337 306.852195 
L 399.255771 306.92776 
L 399.8203 306.957278 
L 400.723545 306.951787 
L 402.718212 306.986433 
L 402.944024 307.023517 
L 403.470917 307.031023 
L 405.65376 307.152954 
L 406.218289 307.149072 
L 407.723698 307.212965 
L 407.949509 307.227175 
L 408.363497 307.246596 
L 408.589308 307.275051 
L 409.793636 307.277133 
L 411.374315 307.331361 
L 412.352831 307.330887 
L 412.691548 307.328051 
L 418.148657 307.315877 
L 420.293865 307.28334 
L 420.858394 307.315772 
L 422.77779 307.35523 
L 428.761792 307.514599 
L 433.428561 307.538971 
L 439.262021 307.585761 
L 442.084664 307.605617 
L 444.154601 307.602314 
L 446.713797 307.61092 
L 455.332265 307.667414 
L 455.934428 307.673871 
L 467.67662 307.717551 
L 469.859464 307.736455 
L 497.408452 307.797404 
L 498.161157 307.78836 
L 498.161157 307.78836 
" clip-path="url(#pc353b7be3e)" style="fill: none; stroke: #1f77b4; stroke-width: 2; stroke-linecap: square"/>
   </g>
   <g id="line2d_24">
    <path d="M 152.293388 320.4 
L 152.293388 43.2 
" clip-path="url(#pc353b7be3e)" style="fill: none; stroke-dasharray: 5.55,2.4; stroke-dashoffset: 0; stroke: #808080; stroke-opacity: 0.5; stroke-width: 1.5"/>
   </g>
   <g id="line2d_25">
    <path d="M 270.09166 320.4 
L 270.09166 43.2 
" clip-path="url(#pc353b7be3e)" style="fill: none; stroke-dasharray: 5.55,2.4; stroke-dashoffset: 0; stroke: #808080; stroke-opacity: 0.5; stroke-width: 1.5"/>
   </g>
   <g id="line2d_26">
    <path d="M 387.889932 320.4 
L 387.889932 43.2 
" clip-path="url(#pc353b7be3e)" style="fill: none; stroke-dasharray: 5.55,2.4; stroke-dashoffset: 0; stroke: #808080; stroke-opacity: 0.5; stroke-width: 1.5"/>
   </g>
   <g id="patch_3">
    <path d="M 135 320.4 
L 135 43.2 
" style="fill: none; stroke: #000000; stroke-width: 0.8; stroke-linejoin: miter; stroke-linecap: square"/>
   </g>
   <g id="patch_4">
    <path d="M 515.454545 320.4 
L 515.454545 43.2 
" style="fill: none; stroke: #000000; stroke-width: 0.8; stroke-linejoin: miter; stroke-linecap: square"/>
   </g>
   <g id="patch_5">
    <path d="M 135 320.4 
L 515.454545 320.4 
" style="fill: none; stroke: #000000; stroke-width: 0.8; stroke-linejoin: miter; stroke-linecap: square"/>
   </g>
   <g id="patch_6">
    <path d="M 135 43.2 
L 515.454545 43.2 
" style="fill: none; stroke: #000000; stroke-width: 0.8; stroke-linejoin: miter; stroke-linecap: square"/>
   </g>
   <g id="text_14">
    <!-- 1.0e-01 -->
    <g transform="translate(159.820435 -72.111849) scale(0.1 -0.1)">
     <defs>
      <path id="DejaVuSans-2d" d="M 313 2009 
L 1997 2009 
L 1997 1497 
L 313 1497 
L 313 2009 
z
" transform="scale(0.015625)"/>
     </defs>
     <use xlink:href="#DejaVuSans-31"/>
     <use xlink:href="#DejaVuSans-2e" x="63.623047"/>
     <use xlink:href="#DejaVuSans-30" x="95.410156"/>
     <use xlink:href="#DejaVuSans-65" x="159.033203"/>
     <use xlink:href="#DejaVuSans-2d" x="220.556641"/>
     <use xlink:href="#DejaVuSans-30" x="256.640625"/>
     <use xlink:href="#DejaVuSans-31" x="320.263672"/>
    </g>
   </g>
   <g id="text_15">
    <!-- 1.0e-02 -->
    <g transform="translate(277.618706 -72.111849) scale(0.1 -0.1)">
     <use xlink:href="#DejaVuSans-31"/>
     <use xlink:href="#DejaVuSans-2e" x="63.623047"/>
     <use xlink:href="#DejaVuSans-30" x="95.410156"/>
     <use xlink:href="#DejaVuSans-65" x="159.033203"/>
     <use xlink:href="#DejaVuSans-2d" x="220.556641"/>
     <use xlink:href="#DejaVuSans-30" x="256.640625"/>
     <use xlink:href="#DejaVuSans-32" x="320.263672"/>
    </g>
   </g>
   <g id="text_16">
    <!-- 1.0e-03 -->
    <g transform="translate(395.416978 -72.111849) scale(0.1 -0.1)">
     <defs>
      <path id="DejaVuSans-33" d="M 2597 2516 
Q 3050 2419 3304 2112 
Q 3559 1806 3559 1356 
Q 3559 666 3084 287 
Q 2609 -91 1734 -91 
Q 1441 -91 1130 -33 
Q 819 25 488 141 
L 488 750 
Q 750 597 1062 519 
Q 1375 441 1716 441 
Q 2309 441 2620 675 
Q 2931 909 2931 1356 
Q 2931 1769 2642 2001 
Q 2353 2234 1838 2234 
L 1294 2234 
L 1294 2753 
L 1863 2753 
Q 2328 2753 2575 2939 
Q 2822 3125 2822 3475 
Q 2822 3834 2567 4026 
Q 2313 4219 1838 4219 
Q 1578 4219 1281 4162 
Q 984 4106 628 3988 
L 628 4550 
Q 988 4650 1302 4700 
Q 1616 4750 1894 4750 
Q 2613 4750 3031 4423 
Q 3450 4097 3450 3541 
Q 3450 3153 3228 2886 
Q 3006 2619 2597 2516 
z
" transform="scale(0.015625)"/>
     </defs>
     <use xlink:href="#DejaVuSans-31"/>
     <use xlink:href="#DejaVuSans-2e" x="63.623047"/>
     <use xlink:href="#DejaVuSans-30" x="95.410156"/>
     <use xlink:href="#DejaVuSans-65" x="159.033203"/>
     <use xlink:href="#DejaVuSans-2d" x="220.556641"/>
     <use xlink:href="#DejaVuSans-30" x="256.640625"/>
     <use xlink:href="#DejaVuSans-33" x="320.263672"/>
    </g>
   </g>
   <g id="text_17">
    <!-- Training Loss -->
    <g transform="translate(280.032429 28.2) scale(0.14 -0.14)">
     <defs>
      <path id="DejaVuSans-54" d="M -19 4666 
L 3928 4666 
L 3928 4134 
L 2272 4134 
L 2272 0 
L 1638 0 
L 1638 4134 
L -19 4134 
L -19 4666 
z
" transform="scale(0.015625)"/>
      <path id="DejaVuSans-67" d="M 2906 1791 
Q 2906 2416 2648 2759 
Q 2391 3103 1925 3103 
Q 1463 3103 1205 2759 
Q 947 2416 947 1791 
Q 947 1169 1205 825 
Q 1463 481 1925 481 
Q 2391 481 2648 825 
Q 2906 1169 2906 1791 
z
M 3481 434 
Q 3481 -459 3084 -895 
Q 2688 -1331 1869 -1331 
Q 1566 -1331 1297 -1286 
Q 1028 -1241 775 -1147 
L 775 -588 
Q 1028 -725 1275 -790 
Q 1522 -856 1778 -856 
Q 2344 -856 2625 -561 
Q 2906 -266 2906 331 
L 2906 616 
Q 2728 306 2450 153 
Q 2172 0 1784 0 
Q 1141 0 747 490 
Q 353 981 353 1791 
Q 353 2603 747 3093 
Q 1141 3584 1784 3584 
Q 2172 3584 2450 3431 
Q 2728 3278 2906 2969 
L 2906 3500 
L 3481 3500 
L 3481 434 
z
" transform="scale(0.015625)"/>
     </defs>
     <use xlink:href="#DejaVuSans-54"/>
     <use xlink:href="#DejaVuSans-72" x="46.333984"/>
     <use xlink:href="#DejaVuSans-61" x="87.447266"/>
     <use xlink:href="#DejaVuSans-69" x="148.726562"/>
     <use xlink:href="#DejaVuSans-6e" x="176.509766"/>
     <use xlink:href="#DejaVuSans-69" x="239.888672"/>
     <use xlink:href="#DejaVuSans-6e" x="267.671875"/>
     <use xlink:href="#DejaVuSans-67" x="331.050781"/>
     <use xlink:href="#DejaVuSans-20" x="394.527344"/>
     <use xlink:href="#DejaVuSans-4c" x="426.314453"/>
     <use xlink:href="#DejaVuSans-6f" x="480.277344"/>
     <use xlink:href="#DejaVuSans-73" x="541.458984"/>
     <use xlink:href="#DejaVuSans-73" x="593.558594"/>
    </g>
   </g>
   <g id="legend_1">
    <g id="patch_7">
     <path d="M 366.123295 65.878125 
L 508.454545 65.878125 
Q 510.454545 65.878125 510.454545 63.878125 
L 510.454545 50.2 
Q 510.454545 48.2 508.454545 48.2 
L 366.123295 48.2 
Q 364.123295 48.2 364.123295 50.2 
L 364.123295 63.878125 
Q 364.123295 65.878125 366.123295 65.878125 
z
" style="fill: #ffffff; opacity: 0.8; stroke: #cccccc; stroke-linejoin: miter"/>
    </g>
    <g id="line2d_27">
     <path d="M 368.123295 56.298437 
L 378.123295 56.298437 
L 388.123295 56.298437 
" style="fill: none; stroke: #1f77b4; stroke-width: 2; stroke-linecap: square"/>
    </g>
    <g id="text_18">
     <!-- Running Average Loss -->
     <g transform="translate(396.123295 59.798437) scale(0.1 -0.1)">
      <defs>
       <path id="DejaVuSans-52" d="M 2841 2188 
Q 3044 2119 3236 1894 
Q 3428 1669 3622 1275 
L 4263 0 
L 3584 0 
L 2988 1197 
Q 2756 1666 2539 1819 
Q 2322 1972 1947 1972 
L 1259 1972 
L 1259 0 
L 628 0 
L 628 4666 
L 2053 4666 
Q 2853 4666 3247 4331 
Q 3641 3997 3641 3322 
Q 3641 2881 3436 2590 
Q 3231 2300 2841 2188 
z
M 1259 4147 
L 1259 2491 
L 2053 2491 
Q 2509 2491 2742 2702 
Q 2975 2913 2975 3322 
Q 2975 3731 2742 3939 
Q 2509 4147 2053 4147 
L 1259 4147 
z
" transform="scale(0.015625)"/>
       <path id="DejaVuSans-75" d="M 544 1381 
L 544 3500 
L 1119 3500 
L 1119 1403 
Q 1119 906 1312 657 
Q 1506 409 1894 409 
Q 2359 409 2629 706 
Q 2900 1003 2900 1516 
L 2900 3500 
L 3475 3500 
L 3475 0 
L 2900 0 
L 2900 538 
Q 2691 219 2414 64 
Q 2138 -91 1772 -91 
Q 1169 -91 856 284 
Q 544 659 544 1381 
z
M 1991 3584 
L 1991 3584 
z
" transform="scale(0.015625)"/>
       <path id="DejaVuSans-41" d="M 2188 4044 
L 1331 1722 
L 3047 1722 
L 2188 4044 
z
M 1831 4666 
L 2547 4666 
L 4325 0 
L 3669 0 
L 3244 1197 
L 1141 1197 
L 716 0 
L 50 0 
L 1831 4666 
z
" transform="scale(0.015625)"/>
       <path id="DejaVuSans-76" d="M 191 3500 
L 800 3500 
L 1894 563 
L 2988 3500 
L 3597 3500 
L 2284 0 
L 1503 0 
L 191 3500 
z
" transform="scale(0.015625)"/>
      </defs>
      <use xlink:href="#DejaVuSans-52"/>
      <use xlink:href="#DejaVuSans-75" x="64.982422"/>
      <use xlink:href="#DejaVuSans-6e" x="128.361328"/>
      <use xlink:href="#DejaVuSans-6e" x="191.740234"/>
      <use xlink:href="#DejaVuSans-69" x="255.119141"/>
      <use xlink:href="#DejaVuSans-6e" x="282.902344"/>
      <use xlink:href="#DejaVuSans-67" x="346.28125"/>
      <use xlink:href="#DejaVuSans-20" x="409.757812"/>
      <use xlink:href="#DejaVuSans-41" x="441.544922"/>
      <use xlink:href="#DejaVuSans-76" x="504.078125"/>
      <use xlink:href="#DejaVuSans-65" x="563.257812"/>
      <use xlink:href="#DejaVuSans-72" x="624.78125"/>
      <use xlink:href="#DejaVuSans-61" x="665.894531"/>
      <use xlink:href="#DejaVuSans-67" x="727.173828"/>
      <use xlink:href="#DejaVuSans-65" x="790.650391"/>
      <use xlink:href="#DejaVuSans-20" x="852.173828"/>
      <use xlink:href="#DejaVuSans-4c" x="883.960938"/>
      <use xlink:href="#DejaVuSans-6f" x="937.923828"/>
      <use xlink:href="#DejaVuSans-73" x="999.105469"/>
      <use xlink:href="#DejaVuSans-73" x="1051.205078"/>
     </g>
    </g>
   </g>
  </g>
  <g id="axes_2">
   <g id="patch_8">
    <path d="M 591.545455 320.4 
L 972 320.4 
L 972 43.2 
L 591.545455 43.2 
z
" style="fill: #ffffff"/>
   </g>
   <g id="matplotlib.axis_3">
    <g id="xtick_6">
     <g id="line2d_28">
      <path d="M 596.912368 320.4 
L 596.912368 43.2 
" clip-path="url(#p4950b0d950)" style="fill: none; stroke: #b0b0b0; stroke-width: 0.8; stroke-linecap: square"/>
     </g>
     <g id="line2d_29">
      <g>
       <use xlink:href="#md0c7183dc7" x="596.912368" y="320.4" style="stroke: #000000; stroke-width: 0.8"/>
      </g>
     </g>
     <g id="text_19">
      <!-- 0 -->
      <g transform="translate(593.731118 334.998438) scale(0.1 -0.1)">
       <use xlink:href="#DejaVuSans-30"/>
      </g>
     </g>
    </g>
    <g id="xtick_7">
     <g id="line2d_30">
      <path d="M 656.544742 320.4 
L 656.544742 43.2 
" clip-path="url(#p4950b0d950)" style="fill: none; stroke: #b0b0b0; stroke-width: 0.8; stroke-linecap: square"/>
     </g>
     <g id="line2d_31">
      <g>
       <use xlink:href="#md0c7183dc7" x="656.544742" y="320.4" style="stroke: #000000; stroke-width: 0.8"/>
      </g>
     </g>
     <g id="text_20">
      <!-- 5 -->
      <g transform="translate(653.363492 334.998438) scale(0.1 -0.1)">
       <use xlink:href="#DejaVuSans-35"/>
      </g>
     </g>
    </g>
    <g id="xtick_8">
     <g id="line2d_32">
      <path d="M 716.177116 320.4 
L 716.177116 43.2 
" clip-path="url(#p4950b0d950)" style="fill: none; stroke: #b0b0b0; stroke-width: 0.8; stroke-linecap: square"/>
     </g>
     <g id="line2d_33">
      <g>
       <use xlink:href="#md0c7183dc7" x="716.177116" y="320.4" style="stroke: #000000; stroke-width: 0.8"/>
      </g>
     </g>
     <g id="text_21">
      <!-- 10 -->
      <g transform="translate(709.814616 334.998438) scale(0.1 -0.1)">
       <use xlink:href="#DejaVuSans-31"/>
       <use xlink:href="#DejaVuSans-30" x="63.623047"/>
      </g>
     </g>
    </g>
    <g id="xtick_9">
     <g id="line2d_34">
      <path d="M 775.80949 320.4 
L 775.80949 43.2 
" clip-path="url(#p4950b0d950)" style="fill: none; stroke: #b0b0b0; stroke-width: 0.8; stroke-linecap: square"/>
     </g>
     <g id="line2d_35">
      <g>
       <use xlink:href="#md0c7183dc7" x="775.80949" y="320.4" style="stroke: #000000; stroke-width: 0.8"/>
      </g>
     </g>
     <g id="text_22">
      <!-- 15 -->
      <g transform="translate(769.44699 334.998438) scale(0.1 -0.1)">
       <use xlink:href="#DejaVuSans-31"/>
       <use xlink:href="#DejaVuSans-35" x="63.623047"/>
      </g>
     </g>
    </g>
    <g id="xtick_10">
     <g id="line2d_36">
      <path d="M 835.441864 320.4 
L 835.441864 43.2 
" clip-path="url(#p4950b0d950)" style="fill: none; stroke: #b0b0b0; stroke-width: 0.8; stroke-linecap: square"/>
     </g>
     <g id="line2d_37">
      <g>
       <use xlink:href="#md0c7183dc7" x="835.441864" y="320.4" style="stroke: #000000; stroke-width: 0.8"/>
      </g>
     </g>
     <g id="text_23">
      <!-- 20 -->
      <g transform="translate(829.079364 334.998438) scale(0.1 -0.1)">
       <use xlink:href="#DejaVuSans-32"/>
       <use xlink:href="#DejaVuSans-30" x="63.623047"/>
      </g>
     </g>
    </g>
    <g id="xtick_11">
     <g id="line2d_38">
      <path d="M 895.074238 320.4 
L 895.074238 43.2 
" clip-path="url(#p4950b0d950)" style="fill: none; stroke: #b0b0b0; stroke-width: 0.8; stroke-linecap: square"/>
     </g>
     <g id="line2d_39">
      <g>
       <use xlink:href="#md0c7183dc7" x="895.074238" y="320.4" style="stroke: #000000; stroke-width: 0.8"/>
      </g>
     </g>
     <g id="text_24">
      <!-- 25 -->
      <g transform="translate(888.711738 334.998438) scale(0.1 -0.1)">
       <use xlink:href="#DejaVuSans-32"/>
       <use xlink:href="#DejaVuSans-35" x="63.623047"/>
      </g>
     </g>
    </g>
    <g id="xtick_12">
     <g id="line2d_40">
      <path d="M 954.706612 320.4 
L 954.706612 43.2 
" clip-path="url(#p4950b0d950)" style="fill: none; stroke: #b0b0b0; stroke-width: 0.8; stroke-linecap: square"/>
     </g>
     <g id="line2d_41">
      <g>
       <use xlink:href="#md0c7183dc7" x="954.706612" y="320.4" style="stroke: #000000; stroke-width: 0.8"/>
      </g>
     </g>
     <g id="text_25">
      <!-- 30 -->
      <g transform="translate(948.344112 334.998438) scale(0.1 -0.1)">
       <use xlink:href="#DejaVuSans-33"/>
       <use xlink:href="#DejaVuSans-30" x="63.623047"/>
      </g>
     </g>
    </g>
    <g id="text_26">
     <!-- Epoch -->
     <g transform="translate(766.46179 348.676562) scale(0.1 -0.1)">
      <defs>
       <path id="DejaVuSans-63" d="M 3122 3366 
L 3122 2828 
Q 2878 2963 2633 3030 
Q 2388 3097 2138 3097 
Q 1578 3097 1268 2742 
Q 959 2388 959 1747 
Q 959 1106 1268 751 
Q 1578 397 2138 397 
Q 2388 397 2633 464 
Q 2878 531 3122 666 
L 3122 134 
Q 2881 22 2623 -34 
Q 2366 -91 2075 -91 
Q 1284 -91 818 406 
Q 353 903 353 1747 
Q 353 2603 823 3093 
Q 1294 3584 2113 3584 
Q 2378 3584 2631 3529 
Q 2884 3475 3122 3366 
z
" transform="scale(0.015625)"/>
       <path id="DejaVuSans-68" d="M 3513 2113 
L 3513 0 
L 2938 0 
L 2938 2094 
Q 2938 2591 2744 2837 
Q 2550 3084 2163 3084 
Q 1697 3084 1428 2787 
Q 1159 2491 1159 1978 
L 1159 0 
L 581 0 
L 581 4863 
L 1159 4863 
L 1159 2956 
Q 1366 3272 1645 3428 
Q 1925 3584 2291 3584 
Q 2894 3584 3203 3211 
Q 3513 2838 3513 2113 
z
" transform="scale(0.015625)"/>
      </defs>
      <use xlink:href="#DejaVuSans-45"/>
      <use xlink:href="#DejaVuSans-70" x="63.183594"/>
      <use xlink:href="#DejaVuSans-6f" x="126.660156"/>
      <use xlink:href="#DejaVuSans-63" x="187.841797"/>
      <use xlink:href="#DejaVuSans-68" x="242.822266"/>
     </g>
    </g>
   </g>
   <g id="matplotlib.axis_4">
    <g id="ytick_7">
     <g id="line2d_42">
      <path d="M 591.545455 284.854466 
L 972 284.854466 
" clip-path="url(#p4950b0d950)" style="fill: none; stroke: #b0b0b0; stroke-width: 0.8; stroke-linecap: square"/>
     </g>
     <g id="line2d_43">
      <g>
       <use xlink:href="#m3dd283fbbb" x="591.545455" y="284.854466" style="stroke: #000000; stroke-width: 0.8"/>
      </g>
     </g>
     <g id="text_27">
      <!-- 40 -->
      <g transform="translate(571.820455 288.653684) scale(0.1 -0.1)">
       <use xlink:href="#DejaVuSans-34"/>
       <use xlink:href="#DejaVuSans-30" x="63.623047"/>
      </g>
     </g>
    </g>
    <g id="ytick_8">
     <g id="line2d_44">
      <path d="M 591.545455 246.67554 
L 972 246.67554 
" clip-path="url(#p4950b0d950)" style="fill: none; stroke: #b0b0b0; stroke-width: 0.8; stroke-linecap: square"/>
     </g>
     <g id="line2d_45">
      <g>
       <use xlink:href="#m3dd283fbbb" x="591.545455" y="246.67554" style="stroke: #000000; stroke-width: 0.8"/>
      </g>
     </g>
     <g id="text_28">
      <!-- 50 -->
      <g transform="translate(571.820455 250.474758) scale(0.1 -0.1)">
       <use xlink:href="#DejaVuSans-35"/>
       <use xlink:href="#DejaVuSans-30" x="63.623047"/>
      </g>
     </g>
    </g>
    <g id="ytick_9">
     <g id="line2d_46">
      <path d="M 591.545455 208.496614 
L 972 208.496614 
" clip-path="url(#p4950b0d950)" style="fill: none; stroke: #b0b0b0; stroke-width: 0.8; stroke-linecap: square"/>
     </g>
     <g id="line2d_47">
      <g>
       <use xlink:href="#m3dd283fbbb" x="591.545455" y="208.496614" style="stroke: #000000; stroke-width: 0.8"/>
      </g>
     </g>
     <g id="text_29">
      <!-- 60 -->
      <g transform="translate(571.820455 212.295833) scale(0.1 -0.1)">
       <use xlink:href="#DejaVuSans-36"/>
       <use xlink:href="#DejaVuSans-30" x="63.623047"/>
      </g>
     </g>
    </g>
    <g id="ytick_10">
     <g id="line2d_48">
      <path d="M 591.545455 170.317688 
L 972 170.317688 
" clip-path="url(#p4950b0d950)" style="fill: none; stroke: #b0b0b0; stroke-width: 0.8; stroke-linecap: square"/>
     </g>
     <g id="line2d_49">
      <g>
       <use xlink:href="#m3dd283fbbb" x="591.545455" y="170.317688" style="stroke: #000000; stroke-width: 0.8"/>
      </g>
     </g>
     <g id="text_30">
      <!-- 70 -->
      <g transform="translate(571.820455 174.116907) scale(0.1 -0.1)">
       <defs>
        <path id="DejaVuSans-37" d="M 525 4666 
L 3525 4666 
L 3525 4397 
L 1831 0 
L 1172 0 
L 2766 4134 
L 525 4134 
L 525 4666 
z
" transform="scale(0.015625)"/>
       </defs>
       <use xlink:href="#DejaVuSans-37"/>
       <use xlink:href="#DejaVuSans-30" x="63.623047"/>
      </g>
     </g>
    </g>
    <g id="ytick_11">
     <g id="line2d_50">
      <path d="M 591.545455 132.138762 
L 972 132.138762 
" clip-path="url(#p4950b0d950)" style="fill: none; stroke: #b0b0b0; stroke-width: 0.8; stroke-linecap: square"/>
     </g>
     <g id="line2d_51">
      <g>
       <use xlink:href="#m3dd283fbbb" x="591.545455" y="132.138762" style="stroke: #000000; stroke-width: 0.8"/>
      </g>
     </g>
     <g id="text_31">
      <!-- 80 -->
      <g transform="translate(571.820455 135.937981) scale(0.1 -0.1)">
       <use xlink:href="#DejaVuSans-38"/>
       <use xlink:href="#DejaVuSans-30" x="63.623047"/>
      </g>
     </g>
    </g>
    <g id="ytick_12">
     <g id="line2d_52">
      <path d="M 591.545455 93.959836 
L 972 93.959836 
" clip-path="url(#p4950b0d950)" style="fill: none; stroke: #b0b0b0; stroke-width: 0.8; stroke-linecap: square"/>
     </g>
     <g id="line2d_53">
      <g>
       <use xlink:href="#m3dd283fbbb" x="591.545455" y="93.959836" style="stroke: #000000; stroke-width: 0.8"/>
      </g>
     </g>
     <g id="text_32">
      <!-- 90 -->
      <g transform="translate(571.820455 97.759055) scale(0.1 -0.1)">
       <defs>
        <path id="DejaVuSans-39" d="M 703 97 
L 703 672 
Q 941 559 1184 500 
Q 1428 441 1663 441 
Q 2288 441 2617 861 
Q 2947 1281 2994 2138 
Q 2813 1869 2534 1725 
Q 2256 1581 1919 1581 
Q 1219 1581 811 2004 
Q 403 2428 403 3163 
Q 403 3881 828 4315 
Q 1253 4750 1959 4750 
Q 2769 4750 3195 4129 
Q 3622 3509 3622 2328 
Q 3622 1225 3098 567 
Q 2575 -91 1691 -91 
Q 1453 -91 1209 -44 
Q 966 3 703 97 
z
M 1959 2075 
Q 2384 2075 2632 2365 
Q 2881 2656 2881 3163 
Q 2881 3666 2632 3958 
Q 2384 4250 1959 4250 
Q 1534 4250 1286 3958 
Q 1038 3666 1038 3163 
Q 1038 2656 1286 2365 
Q 1534 2075 1959 2075 
z
" transform="scale(0.015625)"/>
       </defs>
       <use xlink:href="#DejaVuSans-39"/>
       <use xlink:href="#DejaVuSans-30" x="63.623047"/>
      </g>
     </g>
    </g>
    <g id="ytick_13">
     <g id="line2d_54">
      <path d="M 591.545455 55.780911 
L 972 55.780911 
" clip-path="url(#p4950b0d950)" style="fill: none; stroke: #b0b0b0; stroke-width: 0.8; stroke-linecap: square"/>
     </g>
     <g id="line2d_55">
      <g>
       <use xlink:href="#m3dd283fbbb" x="591.545455" y="55.780911" style="stroke: #000000; stroke-width: 0.8"/>
      </g>
     </g>
     <g id="text_33">
      <!-- 100 -->
      <g transform="translate(565.457955 59.580129) scale(0.1 -0.1)">
       <use xlink:href="#DejaVuSans-31"/>
       <use xlink:href="#DejaVuSans-30" x="63.623047"/>
       <use xlink:href="#DejaVuSans-30" x="127.246094"/>
      </g>
     </g>
    </g>
    <g id="text_34">
     <!-- Accuracy (%) -->
     <g transform="translate(559.378267 214.869531) rotate(-90) scale(0.1 -0.1)">
      <defs>
       <path id="DejaVuSans-28" d="M 1984 4856 
Q 1566 4138 1362 3434 
Q 1159 2731 1159 2009 
Q 1159 1288 1364 580 
Q 1569 -128 1984 -844 
L 1484 -844 
Q 1016 -109 783 600 
Q 550 1309 550 2009 
Q 550 2706 781 3412 
Q 1013 4119 1484 4856 
L 1984 4856 
z
" transform="scale(0.015625)"/>
       <path id="DejaVuSans-25" d="M 4653 2053 
Q 4381 2053 4226 1822 
Q 4072 1591 4072 1178 
Q 4072 772 4226 539 
Q 4381 306 4653 306 
Q 4919 306 5073 539 
Q 5228 772 5228 1178 
Q 5228 1588 5073 1820 
Q 4919 2053 4653 2053 
z
M 4653 2450 
Q 5147 2450 5437 2106 
Q 5728 1763 5728 1178 
Q 5728 594 5436 251 
Q 5144 -91 4653 -91 
Q 4153 -91 3862 251 
Q 3572 594 3572 1178 
Q 3572 1766 3864 2108 
Q 4156 2450 4653 2450 
z
M 1428 4353 
Q 1159 4353 1004 4120 
Q 850 3888 850 3481 
Q 850 3069 1003 2837 
Q 1156 2606 1428 2606 
Q 1700 2606 1854 2837 
Q 2009 3069 2009 3481 
Q 2009 3884 1853 4118 
Q 1697 4353 1428 4353 
z
M 4250 4750 
L 4750 4750 
L 1831 -91 
L 1331 -91 
L 4250 4750 
z
M 1428 4750 
Q 1922 4750 2215 4408 
Q 2509 4066 2509 3481 
Q 2509 2891 2217 2550 
Q 1925 2209 1428 2209 
Q 931 2209 642 2551 
Q 353 2894 353 3481 
Q 353 4063 643 4406 
Q 934 4750 1428 4750 
z
" transform="scale(0.015625)"/>
       <path id="DejaVuSans-29" d="M 513 4856 
L 1013 4856 
Q 1481 4119 1714 3412 
Q 1947 2706 1947 2009 
Q 1947 1309 1714 600 
Q 1481 -109 1013 -844 
L 513 -844 
Q 928 -128 1133 580 
Q 1338 1288 1338 2009 
Q 1338 2731 1133 3434 
Q 928 4138 513 4856 
z
" transform="scale(0.015625)"/>
      </defs>
      <use xlink:href="#DejaVuSans-41"/>
      <use xlink:href="#DejaVuSans-63" x="66.658203"/>
      <use xlink:href="#DejaVuSans-63" x="121.638672"/>
      <use xlink:href="#DejaVuSans-75" x="176.619141"/>
      <use xlink:href="#DejaVuSans-72" x="239.998047"/>
      <use xlink:href="#DejaVuSans-61" x="281.111328"/>
      <use xlink:href="#DejaVuSans-63" x="342.390625"/>
      <use xlink:href="#DejaVuSans-79" x="397.371094"/>
      <use xlink:href="#DejaVuSans-20" x="456.550781"/>
      <use xlink:href="#DejaVuSans-28" x="488.337891"/>
      <use xlink:href="#DejaVuSans-25" x="527.351562"/>
      <use xlink:href="#DejaVuSans-29" x="622.371094"/>
     </g>
    </g>
   </g>
   <g id="line2d_56">
    <path d="M 608.838843 304.354352 
L 620.765318 263.321551 
L 632.691793 237.627134 
L 644.618267 228.760079 
L 656.544742 200.555397 
L 668.471217 182.678115 
L 680.397692 173.963775 
L 692.324166 167.101114 
L 704.250641 156.334656 
L 716.177116 136.300265 
L 728.103591 94.876131 
L 740.030066 79.394576 
L 751.95654 70.508431 
L 763.883015 64.85795 
L 775.80949 61.775002 
L 787.735965 60.849163 
L 799.662439 60.381471 
L 811.588914 60.610545 
L 823.515389 60.181032 
L 835.441864 59.551079 
L 847.368339 55.952716 
L 859.294813 55.838179 
L 871.221288 55.819089 
L 883.147763 55.819089 
L 895.074238 55.819089 
L 907.000712 55.819089 
L 918.927187 55.809545 
L 930.853662 55.8 
L 942.780137 55.809545 
L 954.706612 55.809545 
" clip-path="url(#p4950b0d950)" style="fill: none; stroke: #0000ff; stroke-width: 2; stroke-linecap: square"/>
   </g>
   <g id="line2d_57">
    <path d="M 608.838843 307.8 
L 620.765318 265.15414 
L 632.691793 243.926657 
L 644.618267 235.756367 
L 656.544742 212.925369 
L 668.471217 198.68463 
L 680.397692 196.966578 
L 692.324166 190.628877 
L 704.250641 184.902038 
L 716.177116 173.142929 
L 728.103591 153.404424 
L 740.030066 154.549792 
L 751.95654 155.198833 
L 763.883015 155.580623 
L 775.80949 156.153307 
L 787.735965 156.955064 
L 799.662439 160.009378 
L 811.588914 160.429346 
L 823.515389 159.742126 
L 835.441864 157.489569 
L 847.368339 153.213529 
L 859.294813 152.564488 
L 871.221288 153.137171 
L 883.147763 153.213529 
L 895.074238 152.373593 
L 907.000712 152.984456 
L 918.927187 152.679024 
L 930.853662 152.679024 
L 942.780137 152.144519 
L 954.706612 153.137171 
" clip-path="url(#p4950b0d950)" style="fill: none; stroke: #ff0000; stroke-width: 2; stroke-linecap: square"/>
   </g>
   <g id="patch_9">
    <path d="M 591.545455 320.4 
L 591.545455 43.2 
" style="fill: none; stroke: #000000; stroke-width: 0.8; stroke-linejoin: miter; stroke-linecap: square"/>
   </g>
   <g id="patch_10">
    <path d="M 972 320.4 
L 972 43.2 
" style="fill: none; stroke: #000000; stroke-width: 0.8; stroke-linejoin: miter; stroke-linecap: square"/>
   </g>
   <g id="patch_11">
    <path d="M 591.545455 320.4 
L 972 320.4 
" style="fill: none; stroke: #000000; stroke-width: 0.8; stroke-linejoin: miter; stroke-linecap: square"/>
   </g>
   <g id="patch_12">
    <path d="M 591.545455 43.2 
L 972 43.2 
" style="fill: none; stroke: #000000; stroke-width: 0.8; stroke-linejoin: miter; stroke-linecap: square"/>
   </g>
   <g id="text_35">
    <!-- Accuracy -->
    <g transform="translate(749.813352 28.2) scale(0.14 -0.14)">
     <use xlink:href="#DejaVuSans-41"/>
     <use xlink:href="#DejaVuSans-63" x="66.658203"/>
     <use xlink:href="#DejaVuSans-63" x="121.638672"/>
     <use xlink:href="#DejaVuSans-75" x="176.619141"/>
     <use xlink:href="#DejaVuSans-72" x="239.998047"/>
     <use xlink:href="#DejaVuSans-61" x="281.111328"/>
     <use xlink:href="#DejaVuSans-63" x="342.390625"/>
     <use xlink:href="#DejaVuSans-79" x="397.371094"/>
    </g>
   </g>
   <g id="legend_2">
    <g id="patch_13">
     <path d="M 598.545455 80.55625 
L 718.831392 80.55625 
Q 720.831392 80.55625 720.831392 78.55625 
L 720.831392 50.2 
Q 720.831392 48.2 718.831392 48.2 
L 598.545455 48.2 
Q 596.545455 48.2 596.545455 50.2 
L 596.545455 78.55625 
Q 596.545455 80.55625 598.545455 80.55625 
z
" style="fill: #ffffff; opacity: 0.8; stroke: #cccccc; stroke-linejoin: miter"/>
    </g>
    <g id="line2d_58">
     <path d="M 600.545455 56.298437 
L 610.545455 56.298437 
L 620.545455 56.298437 
" style="fill: none; stroke: #0000ff; stroke-width: 2; stroke-linecap: square"/>
    </g>
    <g id="text_36">
     <!-- Training Accuracy -->
     <g transform="translate(628.545455 59.798437) scale(0.1 -0.1)">
      <use xlink:href="#DejaVuSans-54"/>
      <use xlink:href="#DejaVuSans-72" x="46.333984"/>
      <use xlink:href="#DejaVuSans-61" x="87.447266"/>
      <use xlink:href="#DejaVuSans-69" x="148.726562"/>
      <use xlink:href="#DejaVuSans-6e" x="176.509766"/>
      <use xlink:href="#DejaVuSans-69" x="239.888672"/>
      <use xlink:href="#DejaVuSans-6e" x="267.671875"/>
      <use xlink:href="#DejaVuSans-67" x="331.050781"/>
      <use xlink:href="#DejaVuSans-20" x="394.527344"/>
      <use xlink:href="#DejaVuSans-41" x="426.314453"/>
      <use xlink:href="#DejaVuSans-63" x="492.972656"/>
      <use xlink:href="#DejaVuSans-63" x="547.953125"/>
      <use xlink:href="#DejaVuSans-75" x="602.933594"/>
      <use xlink:href="#DejaVuSans-72" x="666.3125"/>
      <use xlink:href="#DejaVuSans-61" x="707.425781"/>
      <use xlink:href="#DejaVuSans-63" x="768.705078"/>
      <use xlink:href="#DejaVuSans-79" x="823.685547"/>
     </g>
    </g>
    <g id="line2d_59">
     <path d="M 600.545455 70.976562 
L 610.545455 70.976562 
L 620.545455 70.976562 
" style="fill: none; stroke: #ff0000; stroke-width: 2; stroke-linecap: square"/>
    </g>
    <g id="text_37">
     <!-- Valid Accuracy -->
     <g transform="translate(628.545455 74.476562) scale(0.1 -0.1)">
      <defs>
       <path id="DejaVuSans-56" d="M 1831 0 
L 50 4666 
L 709 4666 
L 2188 738 
L 3669 4666 
L 4325 4666 
L 2547 0 
L 1831 0 
z
" transform="scale(0.015625)"/>
       <path id="DejaVuSans-6c" d="M 603 4863 
L 1178 4863 
L 1178 0 
L 603 0 
L 603 4863 
z
" transform="scale(0.015625)"/>
       <path id="DejaVuSans-64" d="M 2906 2969 
L 2906 4863 
L 3481 4863 
L 3481 0 
L 2906 0 
L 2906 525 
Q 2725 213 2448 61 
Q 2172 -91 1784 -91 
Q 1150 -91 751 415 
Q 353 922 353 1747 
Q 353 2572 751 3078 
Q 1150 3584 1784 3584 
Q 2172 3584 2448 3432 
Q 2725 3281 2906 2969 
z
M 947 1747 
Q 947 1113 1208 752 
Q 1469 391 1925 391 
Q 2381 391 2643 752 
Q 2906 1113 2906 1747 
Q 2906 2381 2643 2742 
Q 2381 3103 1925 3103 
Q 1469 3103 1208 2742 
Q 947 2381 947 1747 
z
" transform="scale(0.015625)"/>
      </defs>
      <use xlink:href="#DejaVuSans-56"/>
      <use xlink:href="#DejaVuSans-61" x="60.658203"/>
      <use xlink:href="#DejaVuSans-6c" x="121.9375"/>
      <use xlink:href="#DejaVuSans-69" x="149.720703"/>
      <use xlink:href="#DejaVuSans-64" x="177.503906"/>
      <use xlink:href="#DejaVuSans-20" x="240.980469"/>
      <use xlink:href="#DejaVuSans-41" x="272.767578"/>
      <use xlink:href="#DejaVuSans-63" x="339.425781"/>
      <use xlink:href="#DejaVuSans-63" x="394.40625"/>
      <use xlink:href="#DejaVuSans-75" x="449.386719"/>
      <use xlink:href="#DejaVuSans-72" x="512.765625"/>
      <use xlink:href="#DejaVuSans-61" x="553.878906"/>
      <use xlink:href="#DejaVuSans-63" x="615.158203"/>
      <use xlink:href="#DejaVuSans-79" x="670.138672"/>
     </g>
    </g>
   </g>
  </g>
 </g>
 <defs>
  <clipPath id="pc353b7be3e">
   <rect x="135" y="43.2" width="380.454545" height="277.2"/>
  </clipPath>
  <clipPath id="p4950b0d950">
   <rect x="591.545455" y="43.2" width="380.454545" height="277.2"/>
  </clipPath>
 </defs>
</svg>
