<?xml version="1.0" encoding="utf-8" standalone="no"?>
<!DOCTYPE svg PUBLIC "-//W3C//DTD SVG 1.1//EN"
  "http://www.w3.org/Graphics/SVG/1.1/DTD/svg11.dtd">
<svg xmlns:xlink="http://www.w3.org/1999/xlink" width="720pt" height="432pt" viewBox="0 0 720 432" xmlns="http://www.w3.org/2000/svg" version="1.1">
 <metadata>
  <rdf:RDF xmlns:dc="http://purl.org/dc/elements/1.1/" xmlns:cc="http://creativecommons.org/ns#" xmlns:rdf="http://www.w3.org/1999/02/22-rdf-syntax-ns#">
   <cc:Work>
    <dc:type rdf:resource="http://purl.org/dc/dcmitype/StillImage"/>
    <dc:date>2024-05-08T20:50:30.769156</dc:date>
    <dc:format>image/svg+xml</dc:format>
    <dc:creator>
     <cc:Agent>
      <dc:title>Matplotlib v3.6.2, https://matplotlib.org/</dc:title>
     </cc:Agent>
    </dc:creator>
   </cc:Work>
  </rdf:RDF>
 </metadata>
 <defs>
  <style type="text/css">*{stroke-linejoin: round; stroke-linecap: butt}</style>
 </defs>
 <g id="figure_1">
  <g id="patch_1">
   <path d="M 0 432 
L 720 432 
L 720 0 
L 0 0 
z
" style="fill: #ffffff"/>
  </g>
  <g id="axes_1">
   <g id="patch_2">
    <path d="M 90 384.48 
L 648 384.48 
L 648 51.84 
L 90 51.84 
z
" style="fill: #ffffff"/>
   </g>
   <g id="matplotlib.axis_1">
    <g id="xtick_1">
     <g id="line2d_1">
      <defs>
       <path id="m0a388ecc27" d="M 0 0 
L 0 3.5 
" style="stroke: #000000; stroke-width: 0.8"/>
      </defs>
      <g>
       <use xlink:href="#m0a388ecc27" x="115.363636" y="384.48" style="stroke: #000000; stroke-width: 0.8"/>
      </g>
     </g>
     <g id="text_1">
      <!-- 0 -->
      <g transform="translate(112.182386 399.078438) scale(0.1 -0.1)">
       <defs>
        <path id="DejaVuSans-30" d="M 2034 4250 
Q 1547 4250 1301 3770 
Q 1056 3291 1056 2328 
Q 1056 1369 1301 889 
Q 1547 409 2034 409 
Q 2525 409 2770 889 
Q 3016 1369 3016 2328 
Q 3016 3291 2770 3770 
Q 2525 4250 2034 4250 
z
M 2034 4750 
Q 2819 4750 3233 4129 
Q 3647 3509 3647 2328 
Q 3647 1150 3233 529 
Q 2819 -91 2034 -91 
Q 1250 -91 836 529 
Q 422 1150 422 2328 
Q 422 3509 836 4129 
Q 1250 4750 2034 4750 
z
" transform="scale(0.015625)"/>
       </defs>
       <use xlink:href="#DejaVuSans-30"/>
      </g>
     </g>
    </g>
    <g id="xtick_2">
     <g id="line2d_2">
      <g>
       <use xlink:href="#m0a388ecc27" x="200.050235" y="384.48" style="stroke: #000000; stroke-width: 0.8"/>
      </g>
     </g>
     <g id="text_2">
      <!-- 10000 -->
      <g transform="translate(184.143985 399.078438) scale(0.1 -0.1)">
       <defs>
        <path id="DejaVuSans-31" d="M 794 531 
L 1825 531 
L 1825 4091 
L 703 3866 
L 703 4441 
L 1819 4666 
L 2450 4666 
L 2450 531 
L 3481 531 
L 3481 0 
L 794 0 
L 794 531 
z
" transform="scale(0.015625)"/>
       </defs>
       <use xlink:href="#DejaVuSans-31"/>
       <use xlink:href="#DejaVuSans-30" x="63.623047"/>
       <use xlink:href="#DejaVuSans-30" x="127.246094"/>
       <use xlink:href="#DejaVuSans-30" x="190.869141"/>
       <use xlink:href="#DejaVuSans-30" x="254.492188"/>
      </g>
     </g>
    </g>
    <g id="xtick_3">
     <g id="line2d_3">
      <g>
       <use xlink:href="#m0a388ecc27" x="284.736834" y="384.48" style="stroke: #000000; stroke-width: 0.8"/>
      </g>
     </g>
     <g id="text_3">
      <!-- 20000 -->
      <g transform="translate(268.830584 399.078438) scale(0.1 -0.1)">
       <defs>
        <path id="DejaVuSans-32" d="M 1228 531 
L 3431 531 
L 3431 0 
L 469 0 
L 469 531 
Q 828 903 1448 1529 
Q 2069 2156 2228 2338 
Q 2531 2678 2651 2914 
Q 2772 3150 2772 3378 
Q 2772 3750 2511 3984 
Q 2250 4219 1831 4219 
Q 1534 4219 1204 4116 
Q 875 4013 500 3803 
L 500 4441 
Q 881 4594 1212 4672 
Q 1544 4750 1819 4750 
Q 2544 4750 2975 4387 
Q 3406 4025 3406 3419 
Q 3406 3131 3298 2873 
Q 3191 2616 2906 2266 
Q 2828 2175 2409 1742 
Q 1991 1309 1228 531 
z
" transform="scale(0.015625)"/>
       </defs>
       <use xlink:href="#DejaVuSans-32"/>
       <use xlink:href="#DejaVuSans-30" x="63.623047"/>
       <use xlink:href="#DejaVuSans-30" x="127.246094"/>
       <use xlink:href="#DejaVuSans-30" x="190.869141"/>
       <use xlink:href="#DejaVuSans-30" x="254.492188"/>
      </g>
     </g>
    </g>
    <g id="xtick_4">
     <g id="line2d_4">
      <g>
       <use xlink:href="#m0a388ecc27" x="369.423433" y="384.48" style="stroke: #000000; stroke-width: 0.8"/>
      </g>
     </g>
     <g id="text_4">
      <!-- 30000 -->
      <g transform="translate(353.517183 399.078438) scale(0.1 -0.1)">
       <defs>
        <path id="DejaVuSans-33" d="M 2597 2516 
Q 3050 2419 3304 2112 
Q 3559 1806 3559 1356 
Q 3559 666 3084 287 
Q 2609 -91 1734 -91 
Q 1441 -91 1130 -33 
Q 819 25 488 141 
L 488 750 
Q 750 597 1062 519 
Q 1375 441 1716 441 
Q 2309 441 2620 675 
Q 2931 909 2931 1356 
Q 2931 1769 2642 2001 
Q 2353 2234 1838 2234 
L 1294 2234 
L 1294 2753 
L 1863 2753 
Q 2328 2753 2575 2939 
Q 2822 3125 2822 3475 
Q 2822 3834 2567 4026 
Q 2313 4219 1838 4219 
Q 1578 4219 1281 4162 
Q 984 4106 628 3988 
L 628 4550 
Q 988 4650 1302 4700 
Q 1616 4750 1894 4750 
Q 2613 4750 3031 4423 
Q 3450 4097 3450 3541 
Q 3450 3153 3228 2886 
Q 3006 2619 2597 2516 
z
" transform="scale(0.015625)"/>
       </defs>
       <use xlink:href="#DejaVuSans-33"/>
       <use xlink:href="#DejaVuSans-30" x="63.623047"/>
       <use xlink:href="#DejaVuSans-30" x="127.246094"/>
       <use xlink:href="#DejaVuSans-30" x="190.869141"/>
       <use xlink:href="#DejaVuSans-30" x="254.492188"/>
      </g>
     </g>
    </g>
    <g id="xtick_5">
     <g id="line2d_5">
      <g>
       <use xlink:href="#m0a388ecc27" x="454.110032" y="384.48" style="stroke: #000000; stroke-width: 0.8"/>
      </g>
     </g>
     <g id="text_5">
      <!-- 40000 -->
      <g transform="translate(438.203782 399.078438) scale(0.1 -0.1)">
       <defs>
        <path id="DejaVuSans-34" d="M 2419 4116 
L 825 1625 
L 2419 1625 
L 2419 4116 
z
M 2253 4666 
L 3047 4666 
L 3047 1625 
L 3713 1625 
L 3713 1100 
L 3047 1100 
L 3047 0 
L 2419 0 
L 2419 1100 
L 313 1100 
L 313 1709 
L 2253 4666 
z
" transform="scale(0.015625)"/>
       </defs>
       <use xlink:href="#DejaVuSans-34"/>
       <use xlink:href="#DejaVuSans-30" x="63.623047"/>
       <use xlink:href="#DejaVuSans-30" x="127.246094"/>
       <use xlink:href="#DejaVuSans-30" x="190.869141"/>
       <use xlink:href="#DejaVuSans-30" x="254.492188"/>
      </g>
     </g>
    </g>
    <g id="xtick_6">
     <g id="line2d_6">
      <g>
       <use xlink:href="#m0a388ecc27" x="538.796631" y="384.48" style="stroke: #000000; stroke-width: 0.8"/>
      </g>
     </g>
     <g id="text_6">
      <!-- 50000 -->
      <g transform="translate(522.890381 399.078438) scale(0.1 -0.1)">
       <defs>
        <path id="DejaVuSans-35" d="M 691 4666 
L 3169 4666 
L 3169 4134 
L 1269 4134 
L 1269 2991 
Q 1406 3038 1543 3061 
Q 1681 3084 1819 3084 
Q 2600 3084 3056 2656 
Q 3513 2228 3513 1497 
Q 3513 744 3044 326 
Q 2575 -91 1722 -91 
Q 1428 -91 1123 -41 
Q 819 9 494 109 
L 494 744 
Q 775 591 1075 516 
Q 1375 441 1709 441 
Q 2250 441 2565 725 
Q 2881 1009 2881 1497 
Q 2881 1984 2565 2268 
Q 2250 2553 1709 2553 
Q 1456 2553 1204 2497 
Q 953 2441 691 2322 
L 691 4666 
z
" transform="scale(0.015625)"/>
       </defs>
       <use xlink:href="#DejaVuSans-35"/>
       <use xlink:href="#DejaVuSans-30" x="63.623047"/>
       <use xlink:href="#DejaVuSans-30" x="127.246094"/>
       <use xlink:href="#DejaVuSans-30" x="190.869141"/>
       <use xlink:href="#DejaVuSans-30" x="254.492188"/>
      </g>
     </g>
    </g>
    <g id="xtick_7">
     <g id="line2d_7">
      <g>
       <use xlink:href="#m0a388ecc27" x="623.48323" y="384.48" style="stroke: #000000; stroke-width: 0.8"/>
      </g>
     </g>
     <g id="text_7">
      <!-- 60000 -->
      <g transform="translate(607.57698 399.078438) scale(0.1 -0.1)">
       <defs>
        <path id="DejaVuSans-36" d="M 2113 2584 
Q 1688 2584 1439 2293 
Q 1191 2003 1191 1497 
Q 1191 994 1439 701 
Q 1688 409 2113 409 
Q 2538 409 2786 701 
Q 3034 994 3034 1497 
Q 3034 2003 2786 2293 
Q 2538 2584 2113 2584 
z
M 3366 4563 
L 3366 3988 
Q 3128 4100 2886 4159 
Q 2644 4219 2406 4219 
Q 1781 4219 1451 3797 
Q 1122 3375 1075 2522 
Q 1259 2794 1537 2939 
Q 1816 3084 2150 3084 
Q 2853 3084 3261 2657 
Q 3669 2231 3669 1497 
Q 3669 778 3244 343 
Q 2819 -91 2113 -91 
Q 1303 -91 875 529 
Q 447 1150 447 2328 
Q 447 3434 972 4092 
Q 1497 4750 2381 4750 
Q 2619 4750 2861 4703 
Q 3103 4656 3366 4563 
z
" transform="scale(0.015625)"/>
       </defs>
       <use xlink:href="#DejaVuSans-36"/>
       <use xlink:href="#DejaVuSans-30" x="63.623047"/>
       <use xlink:href="#DejaVuSans-30" x="127.246094"/>
       <use xlink:href="#DejaVuSans-30" x="190.869141"/>
       <use xlink:href="#DejaVuSans-30" x="254.492188"/>
      </g>
     </g>
    </g>
    <g id="text_8">
     <!-- Iterations -->
     <g transform="translate(345.186719 412.756563) scale(0.1 -0.1)">
      <defs>
       <path id="DejaVuSans-49" d="M 628 4666 
L 1259 4666 
L 1259 0 
L 628 0 
L 628 4666 
z
" transform="scale(0.015625)"/>
       <path id="DejaVuSans-74" d="M 1172 4494 
L 1172 3500 
L 2356 3500 
L 2356 3053 
L 1172 3053 
L 1172 1153 
Q 1172 725 1289 603 
Q 1406 481 1766 481 
L 2356 481 
L 2356 0 
L 1766 0 
Q 1100 0 847 248 
Q 594 497 594 1153 
L 594 3053 
L 172 3053 
L 172 3500 
L 594 3500 
L 594 4494 
L 1172 4494 
z
" transform="scale(0.015625)"/>
       <path id="DejaVuSans-65" d="M 3597 1894 
L 3597 1613 
L 953 1613 
Q 991 1019 1311 708 
Q 1631 397 2203 397 
Q 2534 397 2845 478 
Q 3156 559 3463 722 
L 3463 178 
Q 3153 47 2828 -22 
Q 2503 -91 2169 -91 
Q 1331 -91 842 396 
Q 353 884 353 1716 
Q 353 2575 817 3079 
Q 1281 3584 2069 3584 
Q 2775 3584 3186 3129 
Q 3597 2675 3597 1894 
z
M 3022 2063 
Q 3016 2534 2758 2815 
Q 2500 3097 2075 3097 
Q 1594 3097 1305 2825 
Q 1016 2553 972 2059 
L 3022 2063 
z
" transform="scale(0.015625)"/>
       <path id="DejaVuSans-72" d="M 2631 2963 
Q 2534 3019 2420 3045 
Q 2306 3072 2169 3072 
Q 1681 3072 1420 2755 
Q 1159 2438 1159 1844 
L 1159 0 
L 581 0 
L 581 3500 
L 1159 3500 
L 1159 2956 
Q 1341 3275 1631 3429 
Q 1922 3584 2338 3584 
Q 2397 3584 2469 3576 
Q 2541 3569 2628 3553 
L 2631 2963 
z
" transform="scale(0.015625)"/>
       <path id="DejaVuSans-61" d="M 2194 1759 
Q 1497 1759 1228 1600 
Q 959 1441 959 1056 
Q 959 750 1161 570 
Q 1363 391 1709 391 
Q 2188 391 2477 730 
Q 2766 1069 2766 1631 
L 2766 1759 
L 2194 1759 
z
M 3341 1997 
L 3341 0 
L 2766 0 
L 2766 531 
Q 2569 213 2275 61 
Q 1981 -91 1556 -91 
Q 1019 -91 701 211 
Q 384 513 384 1019 
Q 384 1609 779 1909 
Q 1175 2209 1959 2209 
L 2766 2209 
L 2766 2266 
Q 2766 2663 2505 2880 
Q 2244 3097 1772 3097 
Q 1472 3097 1187 3025 
Q 903 2953 641 2809 
L 641 3341 
Q 956 3463 1253 3523 
Q 1550 3584 1831 3584 
Q 2591 3584 2966 3190 
Q 3341 2797 3341 1997 
z
" transform="scale(0.015625)"/>
       <path id="DejaVuSans-69" d="M 603 3500 
L 1178 3500 
L 1178 0 
L 603 0 
L 603 3500 
z
M 603 4863 
L 1178 4863 
L 1178 4134 
L 603 4134 
L 603 4863 
z
" transform="scale(0.015625)"/>
       <path id="DejaVuSans-6f" d="M 1959 3097 
Q 1497 3097 1228 2736 
Q 959 2375 959 1747 
Q 959 1119 1226 758 
Q 1494 397 1959 397 
Q 2419 397 2687 759 
Q 2956 1122 2956 1747 
Q 2956 2369 2687 2733 
Q 2419 3097 1959 3097 
z
M 1959 3584 
Q 2709 3584 3137 3096 
Q 3566 2609 3566 1747 
Q 3566 888 3137 398 
Q 2709 -91 1959 -91 
Q 1206 -91 779 398 
Q 353 888 353 1747 
Q 353 2609 779 3096 
Q 1206 3584 1959 3584 
z
" transform="scale(0.015625)"/>
       <path id="DejaVuSans-6e" d="M 3513 2113 
L 3513 0 
L 2938 0 
L 2938 2094 
Q 2938 2591 2744 2837 
Q 2550 3084 2163 3084 
Q 1697 3084 1428 2787 
Q 1159 2491 1159 1978 
L 1159 0 
L 581 0 
L 581 3500 
L 1159 3500 
L 1159 2956 
Q 1366 3272 1645 3428 
Q 1925 3584 2291 3584 
Q 2894 3584 3203 3211 
Q 3513 2838 3513 2113 
z
" transform="scale(0.015625)"/>
       <path id="DejaVuSans-73" d="M 2834 3397 
L 2834 2853 
Q 2591 2978 2328 3040 
Q 2066 3103 1784 3103 
Q 1356 3103 1142 2972 
Q 928 2841 928 2578 
Q 928 2378 1081 2264 
Q 1234 2150 1697 2047 
L 1894 2003 
Q 2506 1872 2764 1633 
Q 3022 1394 3022 966 
Q 3022 478 2636 193 
Q 2250 -91 1575 -91 
Q 1294 -91 989 -36 
Q 684 19 347 128 
L 347 722 
Q 666 556 975 473 
Q 1284 391 1588 391 
Q 1994 391 2212 530 
Q 2431 669 2431 922 
Q 2431 1156 2273 1281 
Q 2116 1406 1581 1522 
L 1381 1569 
Q 847 1681 609 1914 
Q 372 2147 372 2553 
Q 372 3047 722 3315 
Q 1072 3584 1716 3584 
Q 2034 3584 2315 3537 
Q 2597 3491 2834 3397 
z
" transform="scale(0.015625)"/>
      </defs>
      <use xlink:href="#DejaVuSans-49"/>
      <use xlink:href="#DejaVuSans-74" x="29.492188"/>
      <use xlink:href="#DejaVuSans-65" x="68.701172"/>
      <use xlink:href="#DejaVuSans-72" x="130.224609"/>
      <use xlink:href="#DejaVuSans-61" x="171.337891"/>
      <use xlink:href="#DejaVuSans-74" x="232.617188"/>
      <use xlink:href="#DejaVuSans-69" x="271.826172"/>
      <use xlink:href="#DejaVuSans-6f" x="299.609375"/>
      <use xlink:href="#DejaVuSans-6e" x="360.791016"/>
      <use xlink:href="#DejaVuSans-73" x="424.169922"/>
     </g>
    </g>
   </g>
   <g id="matplotlib.axis_2">
    <g id="ytick_1">
     <g id="line2d_8">
      <defs>
       <path id="m5c710ba8e8" d="M 0 0 
L -3.5 0 
" style="stroke: #000000; stroke-width: 0.8"/>
      </defs>
      <g>
       <use xlink:href="#m5c710ba8e8" x="90" y="330.862776" style="stroke: #000000; stroke-width: 0.8"/>
      </g>
     </g>
     <g id="text_9">
      <!-- 0.2 -->
      <g transform="translate(67.096875 334.661995) scale(0.1 -0.1)">
       <defs>
        <path id="DejaVuSans-2e" d="M 684 794 
L 1344 794 
L 1344 0 
L 684 0 
L 684 794 
z
" transform="scale(0.015625)"/>
       </defs>
       <use xlink:href="#DejaVuSans-30"/>
       <use xlink:href="#DejaVuSans-2e" x="63.623047"/>
       <use xlink:href="#DejaVuSans-32" x="95.410156"/>
      </g>
     </g>
    </g>
    <g id="ytick_2">
     <g id="line2d_9">
      <g>
       <use xlink:href="#m5c710ba8e8" x="90" y="260.994857" style="stroke: #000000; stroke-width: 0.8"/>
      </g>
     </g>
     <g id="text_10">
      <!-- 0.4 -->
      <g transform="translate(67.096875 264.794076) scale(0.1 -0.1)">
       <use xlink:href="#DejaVuSans-30"/>
       <use xlink:href="#DejaVuSans-2e" x="63.623047"/>
       <use xlink:href="#DejaVuSans-34" x="95.410156"/>
      </g>
     </g>
    </g>
    <g id="ytick_3">
     <g id="line2d_10">
      <g>
       <use xlink:href="#m5c710ba8e8" x="90" y="191.126938" style="stroke: #000000; stroke-width: 0.8"/>
      </g>
     </g>
     <g id="text_11">
      <!-- 0.6 -->
      <g transform="translate(67.096875 194.926156) scale(0.1 -0.1)">
       <use xlink:href="#DejaVuSans-30"/>
       <use xlink:href="#DejaVuSans-2e" x="63.623047"/>
       <use xlink:href="#DejaVuSans-36" x="95.410156"/>
      </g>
     </g>
    </g>
    <g id="ytick_4">
     <g id="line2d_11">
      <g>
       <use xlink:href="#m5c710ba8e8" x="90" y="121.259018" style="stroke: #000000; stroke-width: 0.8"/>
      </g>
     </g>
     <g id="text_12">
      <!-- 0.8 -->
      <g transform="translate(67.096875 125.058237) scale(0.1 -0.1)">
       <defs>
        <path id="DejaVuSans-38" d="M 2034 2216 
Q 1584 2216 1326 1975 
Q 1069 1734 1069 1313 
Q 1069 891 1326 650 
Q 1584 409 2034 409 
Q 2484 409 2743 651 
Q 3003 894 3003 1313 
Q 3003 1734 2745 1975 
Q 2488 2216 2034 2216 
z
M 1403 2484 
Q 997 2584 770 2862 
Q 544 3141 544 3541 
Q 544 4100 942 4425 
Q 1341 4750 2034 4750 
Q 2731 4750 3128 4425 
Q 3525 4100 3525 3541 
Q 3525 3141 3298 2862 
Q 3072 2584 2669 2484 
Q 3125 2378 3379 2068 
Q 3634 1759 3634 1313 
Q 3634 634 3220 271 
Q 2806 -91 2034 -91 
Q 1263 -91 848 271 
Q 434 634 434 1313 
Q 434 1759 690 2068 
Q 947 2378 1403 2484 
z
M 1172 3481 
Q 1172 3119 1398 2916 
Q 1625 2713 2034 2713 
Q 2441 2713 2670 2916 
Q 2900 3119 2900 3481 
Q 2900 3844 2670 4047 
Q 2441 4250 2034 4250 
Q 1625 4250 1398 4047 
Q 1172 3844 1172 3481 
z
" transform="scale(0.015625)"/>
       </defs>
       <use xlink:href="#DejaVuSans-30"/>
       <use xlink:href="#DejaVuSans-2e" x="63.623047"/>
       <use xlink:href="#DejaVuSans-38" x="95.410156"/>
      </g>
     </g>
    </g>
    <g id="text_13">
     <!-- Accuracy -->
     <g transform="translate(61.017187 240.988125) rotate(-90) scale(0.1 -0.1)">
      <defs>
       <path id="DejaVuSans-41" d="M 2188 4044 
L 1331 1722 
L 3047 1722 
L 2188 4044 
z
M 1831 4666 
L 2547 4666 
L 4325 0 
L 3669 0 
L 3244 1197 
L 1141 1197 
L 716 0 
L 50 0 
L 1831 4666 
z
" transform="scale(0.015625)"/>
       <path id="DejaVuSans-63" d="M 3122 3366 
L 3122 2828 
Q 2878 2963 2633 3030 
Q 2388 3097 2138 3097 
Q 1578 3097 1268 2742 
Q 959 2388 959 1747 
Q 959 1106 1268 751 
Q 1578 397 2138 397 
Q 2388 397 2633 464 
Q 2878 531 3122 666 
L 3122 134 
Q 2881 22 2623 -34 
Q 2366 -91 2075 -91 
Q 1284 -91 818 406 
Q 353 903 353 1747 
Q 353 2603 823 3093 
Q 1294 3584 2113 3584 
Q 2378 3584 2631 3529 
Q 2884 3475 3122 3366 
z
" transform="scale(0.015625)"/>
       <path id="DejaVuSans-75" d="M 544 1381 
L 544 3500 
L 1119 3500 
L 1119 1403 
Q 1119 906 1312 657 
Q 1506 409 1894 409 
Q 2359 409 2629 706 
Q 2900 1003 2900 1516 
L 2900 3500 
L 3475 3500 
L 3475 0 
L 2900 0 
L 2900 538 
Q 2691 219 2414 64 
Q 2138 -91 1772 -91 
Q 1169 -91 856 284 
Q 544 659 544 1381 
z
M 1991 3584 
L 1991 3584 
z
" transform="scale(0.015625)"/>
       <path id="DejaVuSans-79" d="M 2059 -325 
Q 1816 -950 1584 -1140 
Q 1353 -1331 966 -1331 
L 506 -1331 
L 506 -850 
L 844 -850 
Q 1081 -850 1212 -737 
Q 1344 -625 1503 -206 
L 1606 56 
L 191 3500 
L 800 3500 
L 1894 763 
L 2988 3500 
L 3597 3500 
L 2059 -325 
z
" transform="scale(0.015625)"/>
      </defs>
      <use xlink:href="#DejaVuSans-41"/>
      <use xlink:href="#DejaVuSans-63" x="66.658203"/>
      <use xlink:href="#DejaVuSans-63" x="121.638672"/>
      <use xlink:href="#DejaVuSans-75" x="176.619141"/>
      <use xlink:href="#DejaVuSans-72" x="239.998047"/>
      <use xlink:href="#DejaVuSans-61" x="281.111328"/>
      <use xlink:href="#DejaVuSans-63" x="342.390625"/>
      <use xlink:href="#DejaVuSans-79" x="397.371094"/>
     </g>
    </g>
   </g>
   <g id="line2d_12">
    <path d="M 115.363636 368.78359 
L 116.210502 200.69302 
L 117.057368 157.596158 
L 117.904234 161.65432 
L 118.7511 138.976358 
L 119.597966 157.194418 
L 120.444832 119.500675 
L 121.291698 131.77414 
L 122.138564 115.034951 
L 122.98543 112.246056 
L 123.832296 128.624261 
L 124.679162 121.61418 
L 125.526028 103.978353 
L 126.372894 107.541617 
L 127.21976 101.195281 
L 128.066626 96.642221 
L 129.760358 102.941979 
L 130.607224 103.826972 
L 131.45409 97.847443 
L 132.300956 116.665202 
L 133.147822 115.267844 
L 133.994688 96.76449 
L 134.841554 95.605847 
L 135.68842 98.726614 
L 136.535286 102.359746 
L 137.382152 94.097864 
L 138.229018 92.956688 
L 139.075884 101.201103 
L 139.92275 97.643661 
L 140.769616 91.693243 
L 141.616482 101.928894 
L 142.463348 91.006209 
L 143.310214 92.997445 
L 144.15708 98.784837 
L 145.003946 96.129856 
L 145.850812 97.853265 
L 147.544544 96.374394 
L 148.39141 87.087783 
L 149.238276 89.766053 
L 150.085142 91.728177 
L 150.932008 91.687421 
L 151.778874 91.180879 
L 152.62574 87.60597 
L 153.472606 88.78208 
L 154.319472 88.176558 
L 155.166338 93.672835 
L 156.013204 96.508308 
L 156.86007 88.263893 
L 157.706936 88.555009 
L 158.553802 88.089223 
L 159.400668 92.071695 
L 160.247534 91.570975 
L 161.0944 87.920376 
L 161.941266 89.20711 
L 162.788132 92.065872 
L 163.634998 85.905851 
L 164.481864 93.765992 
L 166.175596 86.127099 
L 167.022462 91.873736 
L 167.869328 86.284302 
L 168.716194 90.761671 
L 169.56306 88.025178 
L 170.409926 93.375896 
L 171.256792 86.546307 
L 172.103658 85.608912 
L 172.950524 92.3861 
L 173.79739 90.371575 
L 174.644256 83.716656 
L 175.491122 87.827219 
L 176.337988 83.664255 
L 177.184854 86.330881 
L 178.03172 83.739945 
L 178.878586 89.870855 
L 179.725452 89.911612 
L 180.572317 84.694807 
L 181.419183 85.975719 
L 182.266049 99.105065 
L 183.112915 87.763173 
L 183.959781 83.064555 
L 184.806647 97.806686 
L 185.653513 86.959692 
L 186.500379 81.405192 
L 187.347245 85.265395 
L 188.194111 83.611854 
L 189.040977 88.700568 
L 189.887843 83.530342 
L 190.734709 85.958252 
L 191.581575 84.793786 
L 192.428441 84.083463 
L 193.275307 84.328 
L 194.122173 86.977159 
L 194.969039 85.247928 
L 195.815905 82.610414 
L 196.662771 92.13574 
L 197.509637 84.333823 
L 198.356503 87.844686 
L 199.203369 80.036946 
L 200.050235 80.095169 
L 201.743967 83.012154 
L 202.590833 83.408073 
L 203.437699 79.576982 
L 204.284565 80.508554 
L 205.131431 79.47218 
L 205.978297 78.255314 
L 206.825163 79.844809 
L 207.672029 83.856392 
L 208.518895 88.764613 
L 209.365761 80.04859 
L 210.212627 79.507114 
L 211.059493 82.627881 
L 211.906359 80.869538 
L 212.753225 78.808435 
L 213.600091 81.39937 
L 214.446957 80.520199 
L 215.293823 80.287306 
L 216.140689 82.022359 
L 216.987555 81.096609 
L 217.834421 82.837485 
L 218.681287 82.49979 
L 219.528153 89.434181 
L 220.375019 81.696309 
L 221.221885 79.79823 
L 222.068751 79.425601 
L 222.915617 82.237785 
L 223.762483 78.62212 
L 224.609349 83.204291 
L 225.456215 82.016537 
L 226.303081 82.07476 
L 227.149947 78.552252 
L 227.996813 78.901592 
L 228.843679 76.205855 
L 230.537411 77.830284 
L 231.384277 82.394988 
L 232.231143 78.429983 
L 233.078009 78.639587 
L 233.924875 83.361494 
L 234.771741 89.515693 
L 235.618607 81.14901 
L 236.465473 80.659935 
L 237.312339 78.406694 
L 238.159205 77.638147 
L 239.006071 78.633765 
L 239.852937 79.076262 
L 240.699803 82.482323 
L 241.546669 83.769057 
L 242.393535 78.69781 
L 243.240401 81.026741 
L 244.087267 79.04715 
L 244.934133 77.399432 
L 246.627865 80.863716 
L 247.474731 77.783705 
L 248.321597 76.397991 
L 249.168463 78.44745 
L 250.862195 78.086466 
L 251.709061 77.300452 
L 252.555927 83.32656 
L 253.402793 78.354293 
L 254.249659 76.991869 
L 255.096525 77.498411 
L 255.94339 76.223322 
L 256.790256 75.256815 
L 257.637122 78.342649 
L 258.483988 74.558136 
L 259.330854 77.323741 
L 260.17772 77.539167 
L 261.024586 75.466419 
L 261.871452 74.971521 
L 262.718318 75.157836 
L 263.565184 76.852133 
L 264.41205 78.977282 
L 265.258916 80.415397 
L 266.105782 75.670201 
L 266.952648 75.745891 
L 267.799514 75.664378 
L 268.64638 77.806994 
L 269.493246 76.549372 
L 270.340112 77.830284 
L 271.186978 75.373262 
L 272.033844 81.713776 
L 272.88071 82.342587 
L 273.727576 76.374702 
L 274.574442 75.204414 
L 276.268174 73.777944 
L 277.11504 75.967139 
L 277.961906 75.897271 
L 278.808772 77.678903 
L 279.655638 78.988927 
L 280.502504 79.344089 
L 281.34937 78.87248 
L 282.196236 75.326683 
L 283.043102 78.167979 
L 283.889968 79.157774 
L 284.736834 76.625062 
L 285.5837 78.651232 
L 286.430566 77.306274 
L 287.277432 75.070501 
L 288.124298 75.938028 
L 288.971164 76.508616 
L 289.81803 76.706575 
L 290.664896 77.806994 
L 291.511762 81.562395 
L 292.358628 75.897271 
L 293.205494 75.262638 
L 294.05236 75.780825 
L 295.746092 75.023922 
L 296.592958 78.191268 
L 297.439824 75.134547 
L 298.28669 76.124342 
L 299.133556 74.808496 
L 299.980422 73.975904 
L 300.827288 73.772122 
L 301.674154 80.240727 
L 302.52102 76.36888 
L 303.367886 77.486767 
L 304.214752 75.326683 
L 305.061618 74.884187 
L 305.908484 77.626502 
L 306.75535 76.904534 
L 307.602216 76.922001 
L 308.449082 76.200032 
L 309.295948 76.135987 
L 310.142814 75.460597 
L 310.98968 77.533345 
L 311.836546 74.138929 
L 312.683412 73.498473 
L 313.530278 76.135987 
L 314.377144 75.023922 
L 315.22401 75.262638 
L 316.070876 83.122779 
L 316.917742 74.575603 
L 318.611474 74.202974 
L 319.45834 74.820141 
L 320.305206 73.684787 
L 321.152072 75.582866 
L 321.998938 71.745952 
L 322.845804 73.614919 
L 323.69267 73.457717 
L 324.539536 72.619301 
L 325.386402 76.112697 
L 326.233268 75.210237 
L 327.080134 73.84199 
L 327.927 73.300514 
L 328.773866 78.464917 
L 329.620732 73.422783 
L 330.467598 73.329625 
L 331.314463 73.865279 
L 332.161329 74.674583 
L 333.008195 75.029745 
L 333.855061 78.429983 
L 334.701927 74.377644 
L 335.548793 74.371822 
L 336.395659 75.408196 
L 337.242525 72.793971 
L 338.089391 76.933646 
L 338.936257 73.853635 
L 339.783123 78.825902 
L 340.629989 75.635267 
L 341.476855 74.994811 
L 343.170587 80.031123 
L 344.017453 74.272842 
L 344.864319 73.603275 
L 345.711185 74.069061 
L 346.558051 76.223322 
L 347.404917 75.489708 
L 348.251783 73.393671 
L 349.098649 73.987548 
L 349.945515 75.309216 
L 350.792381 74.26702 
L 351.639247 74.16804 
L 352.486113 74.721161 
L 353.332979 72.776504 
L 354.179845 75.734246 
L 355.026711 76.991869 
L 355.873577 77.317919 
L 356.720443 72.852195 
L 357.567309 74.121462 
L 358.414175 73.958437 
L 359.261041 72.852195 
L 360.107907 73.253935 
L 360.954773 72.642591 
L 361.801639 74.208797 
L 362.648505 73.003575 
L 363.495371 73.26558 
L 364.342237 77.213117 
L 365.189103 73.44025 
L 366.035969 73.213179 
L 366.882835 71.938089 
L 367.729701 73.609097 
L 368.576567 71.623684 
L 369.423433 75.670201 
L 370.270299 73.719721 
L 371.117165 73.486828 
L 371.964031 74.552314 
L 372.810897 70.465041 
L 373.657763 72.159338 
L 374.504629 71.856577 
L 375.351495 74.365999 
L 376.198361 72.811438 
L 377.045227 73.055976 
L 377.892093 71.850754 
L 378.738959 73.382026 
L 379.585825 74.662938 
L 380.432691 75.419841 
L 381.279557 72.898773 
L 382.126423 71.483948 
L 382.973289 74.406756 
L 383.820155 73.673143 
L 384.667021 72.724103 
L 386.360753 73.743011 
L 387.207619 72.706636 
L 388.054485 75.076323 
L 388.901351 71.745952 
L 389.748217 74.773562 
L 390.595083 72.153515 
L 391.441949 71.850754 
L 392.288815 72.077825 
L 393.135681 73.719721 
L 393.982547 72.962819 
L 394.829413 70.796913 
L 395.676279 71.169542 
L 396.523145 71.146253 
L 398.216877 71.757597 
L 399.063743 73.574163 
L 399.910609 72.601834 
L 400.757475 70.628066 
L 401.604341 73.49265 
L 402.451207 71.157897 
L 403.298073 70.959938 
L 404.144939 72.904595 
L 404.991805 71.582927 
L 405.838671 71.117141 
L 406.685537 71.681907 
L 407.532402 75.483886 
L 408.379268 73.114199 
L 409.226134 74.84343 
L 410.073 71.606217 
L 410.919866 70.849314 
L 411.766732 72.607657 
L 412.613598 72.334007 
L 413.460464 70.377706 
L 414.30733 71.350034 
L 415.154196 71.734308 
L 416.847928 76.904534 
L 417.694794 74.19133 
L 418.54166 70.761979 
L 419.388526 70.820203 
L 420.235392 73.748833 
L 421.082258 72.788149 
L 421.929124 72.683347 
L 422.77599 71.408258 
L 423.622856 73.003575 
L 425.316588 75.699312 
L 426.163454 72.74157 
L 427.01032 73.760477 
L 427.857186 74.26702 
L 428.704052 73.498473 
L 429.550918 72.922062 
L 430.397784 74.138929 
L 431.24465 74.750273 
L 432.091516 80.007834 
L 432.938382 70.866781 
L 433.785248 73.562518 
L 434.632114 72.130226 
L 435.47898 72.095292 
L 436.325846 70.948294 
L 437.172712 74.010838 
L 438.019578 70.040011 
L 439.71331 69.842052 
L 440.560176 71.693552 
L 441.407042 70.197214 
L 442.253908 70.156457 
L 443.100774 74.057416 
L 443.94764 70.104056 
L 444.794506 69.31222 
L 445.641372 72.543611 
L 446.488238 69.195773 
L 447.335104 72.025424 
L 448.18197 72.229206 
L 449.028836 73.34127 
L 449.875702 72.037069 
L 451.569434 71.705196 
L 452.4163 70.109879 
L 453.263166 72.235028 
L 454.110032 70.983228 
L 454.956898 69.521824 
L 455.803764 69.772184 
L 456.65063 70.971583 
L 458.344362 70.517442 
L 459.191228 71.705196 
L 460.038094 70.23797 
L 460.88496 70.820203 
L 461.731826 71.722663 
L 462.578692 73.277224 
L 463.425558 73.614919 
L 464.272424 71.716841 
L 465.11929 76.584306 
L 465.966156 72.095292 
L 466.813022 74.127284 
L 467.659888 74.820141 
L 468.506754 70.348594 
L 469.35362 70.272904 
L 470.200486 75.053034 
L 471.047352 73.446072 
L 471.894218 74.540669 
L 472.741084 75.245171 
L 473.58795 71.018162 
L 474.434816 72.508677 
L 475.281682 73.253935 
L 476.128548 69.66156 
L 476.975414 68.846434 
L 477.82228 71.612039 
L 478.669146 71.227765 
L 479.516012 72.561078 
L 480.362878 75.565399 
L 481.209744 72.363119 
L 482.05661 70.348594 
L 482.903475 70.243792 
L 483.750341 69.807118 
L 484.597207 71.751775 
L 485.444073 71.530526 
L 486.290939 71.658618 
L 487.137805 71.908978 
L 487.984671 73.201534 
L 488.831537 72.485388 
L 489.678403 72.112759 
L 490.525269 72.887128 
L 491.372135 69.679027 
L 492.219001 70.587309 
L 493.065867 69.335509 
L 493.912733 70.243792 
L 494.759599 70.616421 
L 495.606465 69.446133 
L 496.453331 73.486828 
L 497.300197 71.047273 
L 498.147063 71.152075 
L 498.993929 69.224885 
L 499.840795 69.003637 
L 500.687661 69.189951 
L 501.534527 70.045833 
L 502.381393 71.780886 
L 503.228259 68.957058 
L 504.921991 72.229206 
L 505.768857 70.371883 
L 506.615723 68.916302 
L 507.462589 73.288869 
L 508.309455 72.060358 
L 509.156321 70.441751 
L 510.003187 70.069122 
L 510.850053 70.348594 
L 511.696919 71.08803 
L 512.543785 70.703756 
L 513.390651 68.96288 
L 514.237517 70.499975 
L 515.084383 70.226325 
L 515.931249 71.629506 
L 516.778115 72.019602 
L 517.624981 72.124404 
L 518.471847 76.823021 
L 519.318713 72.84055 
L 520.165579 70.546553 
L 521.012445 70.325305 
L 521.859311 70.680467 
L 522.706177 69.894453 
L 523.553043 70.302015 
L 524.399909 68.252557 
L 525.246775 73.108377 
L 526.093641 69.498534 
L 526.940507 68.782388 
L 527.787373 69.853696 
L 528.634239 68.048775 
L 529.481105 72.153515 
L 530.327971 72.246673 
L 531.174837 70.278726 
L 532.021703 71.443191 
L 532.868569 69.481067 
L 533.715435 68.828967 
L 535.409167 71.041451 
L 536.256033 71.419902 
L 537.102899 68.770744 
L 537.949765 73.731366 
L 538.796631 70.086589 
L 539.643497 70.703756 
L 540.490363 70.040011 
L 541.337229 69.207418 
L 542.184095 70.453396 
L 543.030961 70.453396 
L 543.877827 72.101114 
L 544.724693 71.093852 
L 545.571559 70.435929 
L 546.418425 71.076385 
L 547.265291 69.160839 
L 548.112157 69.335509 
L 548.959023 69.71396 
L 549.805889 72.782327 
L 550.652755 70.133168 
L 551.499621 68.106998 
L 552.346487 70.272904 
L 553.193353 69.102616 
L 554.040219 69.265641 
L 554.887085 67.437431 
L 556.580817 70.767802 
L 557.427683 71.705196 
L 558.274548 72.293251 
L 559.121414 68.304957 
L 559.96828 68.642652 
L 560.815146 68.013841 
L 561.662012 68.980347 
L 562.508878 72.502855 
L 563.355744 71.373324 
L 565.049476 69.929387 
L 565.896342 68.654297 
L 566.743208 66.977467 
L 567.590074 68.072064 
L 568.43694 67.827527 
L 569.283806 68.153577 
L 570.130672 70.331127 
L 570.977538 68.473805 
L 571.824404 69.021104 
L 572.67127 69.417022 
L 573.518136 69.21324 
L 574.365002 68.805678 
L 575.211868 69.56258 
L 576.058734 68.450516 
L 576.9056 68.828967 
L 577.752466 68.502917 
L 578.599332 67.862461 
L 579.446198 68.71252 
L 580.293064 68.601896 
L 581.13993 67.268583 
L 581.986796 66.96 
L 582.833662 68.467983 
L 583.680528 67.821704 
L 584.527394 67.815882 
L 585.37426 68.066242 
L 586.221126 68.025486 
L 587.067992 67.827527 
L 587.914858 69.230707 
L 588.761724 70.855137 
L 589.60859 69.172484 
L 590.455456 69.143372 
L 592.149188 69.655737 
L 592.996054 74.645471 
L 593.84292 70.342772 
L 594.689786 71.635328 
L 595.536652 70.214681 
L 596.383518 72.194272 
L 597.230384 69.143372 
L 598.07725 68.96288 
L 598.924116 71.600394 
L 599.770982 67.763481 
L 600.617848 68.852256 
L 601.464714 67.839171 
L 602.31158 68.433049 
L 603.158446 68.433049 
L 604.005312 70.558198 
L 604.852178 68.002196 
L 605.699044 69.725605 
L 606.54591 71.711019 
L 607.392776 68.782388 
L 608.239642 68.293313 
L 609.086508 70.284549 
L 609.933374 71.978846 
L 610.78024 71.606217 
L 611.627106 68.968703 
L 612.473972 68.23509 
L 613.320838 68.537851 
L 614.167704 69.946854 
L 615.01457 68.409759 
L 615.861436 68.048775 
L 616.708302 68.566962 
L 618.402034 71.967201 
L 619.2489 71.303456 
L 620.095766 69.492712 
L 620.942632 68.165222 
L 621.789498 70.150635 
L 622.636364 70.220503 
L 622.636364 70.220503 
" clip-path="url(#pb5b0a75967)" style="fill: none; stroke: #1f77b4; stroke-width: 1.5; stroke-linecap: square"/>
   </g>
   <g id="line2d_13">
    <path d="M 115.363636 369.36 
L 116.210502 202.131135 
L 117.057368 159.057562 
L 117.904234 161.048798 
L 118.7511 141.625517 
L 119.597966 157.660204 
L 120.444832 119.896594 
L 121.291698 133.940045 
L 122.138564 115.005839 
L 122.98543 112.350858 
L 123.832296 126.534046 
L 124.679162 120.595273 
L 125.526028 100.962387 
L 126.372894 105.399 
L 127.21976 98.901284 
L 128.066626 95.442822 
L 128.913492 99.355425 
L 129.760358 101.626133 
L 130.607224 102.883755 
L 131.45409 96.106567 
L 132.300956 116.752537 
L 133.147822 112.805 
L 133.994688 94.290001 
L 134.841554 93.556388 
L 135.68842 98.586878 
L 136.535286 99.495161 
L 137.382152 91.844624 
L 138.229018 91.914492 
L 139.075884 97.748463 
L 139.92275 95.792161 
L 140.769616 90.097926 
L 141.616482 99.215689 
L 142.463348 89.259511 
L 143.310214 92.298765 
L 144.15708 97.468991 
L 145.003946 95.51269 
L 145.850812 95.68736 
L 146.697678 96.630576 
L 147.544544 95.128416 
L 148.39141 85.696247 
L 150.085142 90.237662 
L 150.932008 91.076077 
L 151.778874 90.621935 
L 152.62574 88.036822 
L 153.472606 87.687483 
L 154.319472 86.150389 
L 155.166338 93.66119 
L 156.013204 94.814011 
L 156.86007 87.512813 
L 157.706936 87.442945 
L 158.553802 88.001888 
L 159.400668 90.901407 
L 160.247534 91.180879 
L 161.0944 87.268275 
L 161.941266 88.071756 
L 162.788132 90.936341 
L 163.634998 83.774879 
L 164.481864 92.508369 
L 166.175596 84.857832 
L 167.022462 90.272596 
L 167.869328 84.962634 
L 168.716194 88.6307 
L 169.56306 86.359992 
L 170.409926 92.089162 
L 171.256792 84.997568 
L 172.103658 83.949549 
L 172.950524 91.530218 
L 173.79739 90.202728 
L 174.644256 84.57836 
L 175.491122 88.036822 
L 176.337988 82.936464 
L 177.184854 86.220256 
L 178.03172 82.656993 
L 178.878586 90.377398 
L 179.725452 88.525898 
L 180.572317 83.285804 
L 181.419183 85.067436 
L 182.266049 99.355425 
L 183.112915 87.163473 
L 183.959781 82.761794 
L 184.806647 98.482076 
L 185.653513 86.7792 
L 186.500379 80.875361 
L 187.347245 84.333823 
L 188.194111 82.307653 
L 189.040977 88.071756 
L 189.887843 85.311974 
L 190.734709 86.464794 
L 191.581575 83.809813 
L 192.428441 83.809813 
L 193.275307 84.683162 
L 194.122173 85.207172 
L 194.969039 83.809813 
L 195.815905 81.993247 
L 196.662771 91.530218 
L 197.509637 84.159153 
L 198.356503 87.582681 
L 199.203369 79.478002 
L 200.050235 79.862276 
L 201.743967 83.670077 
L 202.590833 82.831662 
L 203.437699 78.779323 
L 204.284565 79.617738 
L 205.131431 78.674521 
L 205.978297 77.207295 
L 206.825163 78.849191 
L 207.672029 83.949549 
L 208.518895 90.13286 
L 209.365761 79.54787 
L 210.212627 79.233465 
L 211.059493 82.482323 
L 211.906359 79.967078 
L 212.753225 79.3732 
L 213.600091 82.936464 
L 214.446957 80.840427 
L 215.293823 80.840427 
L 216.140689 82.936464 
L 216.987555 81.434304 
L 217.834421 81.853511 
L 218.681287 83.390606 
L 219.528153 89.049907 
L 220.375019 80.840427 
L 221.221885 79.967078 
L 222.068751 79.408134 
L 222.915617 81.643908 
L 223.762483 76.683285 
L 224.609349 82.307653 
L 225.456215 80.491087 
L 226.303081 81.434304 
L 227.149947 78.010776 
L 227.996813 77.626502 
L 228.843679 75.390729 
L 229.690545 75.530465 
L 230.537411 76.823021 
L 231.384277 81.783644 
L 232.231143 77.661436 
L 233.078009 78.115578 
L 233.924875 81.643908 
L 234.771741 89.119775 
L 235.618607 81.084964 
L 236.465473 79.792408 
L 237.312339 77.69637 
L 238.159205 76.997691 
L 239.006071 77.556634 
L 241.546669 81.993247 
L 242.393535 78.150512 
L 243.240401 80.281483 
L 244.087267 78.499851 
L 244.934133 77.067559 
L 245.780999 77.975842 
L 246.627865 79.827342 
L 248.321597 75.181125 
L 249.168463 78.429983 
L 250.015329 78.150512 
L 250.862195 77.69637 
L 251.709061 77.69637 
L 252.555927 82.517257 
L 253.402793 77.661436 
L 254.249659 76.124342 
L 255.096525 78.429983 
L 255.94339 75.740069 
L 256.790256 74.028305 
L 257.637122 78.080644 
L 258.483988 74.098172 
L 259.330854 77.067559 
L 260.17772 77.067559 
L 261.024586 74.622182 
L 261.871452 73.958437 
L 262.718318 74.69205 
L 263.565184 76.229144 
L 264.41205 78.604653 
L 265.258916 79.792408 
L 266.105782 74.622182 
L 266.952648 76.089408 
L 267.799514 75.390729 
L 268.64638 78.04571 
L 269.493246 76.962757 
L 270.340112 76.857955 
L 271.186978 75.006455 
L 272.033844 80.491087 
L 272.88071 80.840427 
L 273.727576 75.460597 
L 274.574442 74.936587 
L 275.421308 74.901654 
L 276.268174 72.66588 
L 277.11504 76.054474 
L 277.961906 75.565399 
L 278.808772 77.347031 
L 279.655638 79.54787 
L 280.502504 79.023861 
L 281.34937 77.975842 
L 282.196236 75.041389 
L 283.043102 77.626502 
L 283.889968 77.312097 
L 284.736834 77.207295 
L 285.5837 77.940908 
L 286.430566 76.508616 
L 287.277432 75.460597 
L 288.124298 75.565399 
L 288.971164 77.486767 
L 289.81803 77.69637 
L 290.664896 77.69637 
L 291.511762 80.526021 
L 292.358628 75.879804 
L 293.205494 74.796852 
L 294.05236 75.635267 
L 294.899226 74.971521 
L 295.746092 73.888569 
L 296.592958 77.591568 
L 297.439824 74.133106 
L 298.28669 76.648351 
L 299.133556 74.098172 
L 299.980422 73.050154 
L 300.827288 72.700814 
L 301.674154 77.836106 
L 302.52102 74.272842 
L 303.367886 76.403814 
L 304.214752 75.146191 
L 305.061618 74.971521 
L 305.908484 77.940908 
L 306.75535 77.277163 
L 307.602216 77.207295 
L 309.295948 76.159276 
L 310.142814 75.146191 
L 310.98968 77.836106 
L 311.836546 74.063238 
L 312.683412 73.783767 
L 313.530278 76.01954 
L 314.377144 74.971521 
L 315.22401 75.740069 
L 316.070876 84.159153 
L 316.917742 73.364559 
L 317.764608 74.028305 
L 318.611474 73.609097 
L 319.45834 74.69205 
L 320.305206 74.16804 
L 321.152072 76.19421 
L 321.998938 72.735748 
L 322.845804 74.447512 
L 324.539536 73.783767 
L 325.386402 75.879804 
L 326.233268 75.390729 
L 327.080134 73.958437 
L 327.927 72.980286 
L 328.773866 79.058795 
L 329.620732 73.189889 
L 330.467598 74.063238 
L 331.314463 74.272842 
L 332.161329 75.565399 
L 333.008195 75.495531 
L 333.855061 78.569719 
L 334.701927 74.51738 
L 335.548793 75.250993 
L 336.395659 74.796852 
L 337.242525 73.888569 
L 338.089391 77.032625 
L 338.936257 73.993371 
L 339.783123 79.233465 
L 340.629989 75.740069 
L 341.476855 75.355795 
L 342.323721 78.464917 
L 343.170587 80.456153 
L 344.017453 73.644031 
L 344.864319 73.434427 
L 345.711185 72.84055 
L 346.558051 75.635267 
L 347.404917 76.403814 
L 348.251783 73.364559 
L 349.098649 73.644031 
L 349.945515 74.901654 
L 350.792381 72.770682 
L 352.486113 74.831786 
L 353.332979 71.582927 
L 354.179845 74.447512 
L 355.026711 75.809936 
L 355.873577 76.648351 
L 356.720443 71.897333 
L 357.567309 72.980286 
L 358.414175 74.412578 
L 359.261041 72.945352 
L 360.107907 73.085088 
L 360.954773 72.386408 
L 361.801639 73.923503 
L 362.648505 72.106937 
L 363.495371 72.735748 
L 364.342237 77.102493 
L 365.189103 73.224823 
L 366.035969 73.469361 
L 366.882835 71.792531 
L 367.729701 73.853635 
L 368.576567 71.582927 
L 369.423433 74.063238 
L 370.270299 73.574163 
L 371.117165 73.958437 
L 371.964031 74.552314 
L 372.810897 70.325305 
L 373.657763 72.386408 
L 374.504629 72.596012 
L 375.351495 74.86672 
L 376.198361 73.224823 
L 377.045227 73.678965 
L 377.892093 72.386408 
L 378.738959 72.630946 
L 379.585825 74.133106 
L 380.432691 75.076323 
L 381.279557 73.713899 
L 382.126423 71.932267 
L 382.973289 74.34271 
L 383.820155 72.945352 
L 384.667021 73.399493 
L 385.513887 73.259757 
L 386.360753 73.678965 
L 387.207619 71.897333 
L 388.054485 75.355795 
L 388.901351 70.465041 
L 389.748217 75.705135 
L 390.595083 71.932267 
L 391.441949 72.596012 
L 392.288815 73.085088 
L 393.135681 73.923503 
L 393.982547 72.805616 
L 394.829413 70.255437 
L 395.676279 70.499975 
L 396.523145 71.373324 
L 397.370011 71.722663 
L 398.216877 71.478125 
L 399.063743 73.923503 
L 400.757475 70.674644 
L 401.604341 73.120022 
L 402.451207 70.98905 
L 403.298073 70.954116 
L 404.144939 72.875484 
L 404.991805 71.268522 
L 405.838671 71.443191 
L 406.685537 72.037069 
L 407.532402 75.530465 
L 408.379268 72.386408 
L 409.226134 74.831786 
L 410.073 71.687729 
L 410.919866 72.246673 
L 411.766732 74.237908 
L 412.613598 73.120022 
L 413.460464 71.652795 
L 414.30733 72.141871 
L 415.154196 72.456276 
L 416.001062 74.587248 
L 416.847928 77.102493 
L 418.54166 71.093852 
L 419.388526 70.674644 
L 420.235392 74.028305 
L 421.082258 72.945352 
L 421.929124 73.539229 
L 422.77599 71.443191 
L 423.622856 73.050154 
L 424.469722 75.355795 
L 425.316588 74.657116 
L 426.163454 72.526144 
L 427.01032 73.085088 
L 427.857186 74.237908 
L 428.704052 73.958437 
L 429.550918 73.189889 
L 430.397784 75.879804 
L 431.24465 75.635267 
L 432.091516 80.106814 
L 432.938382 71.33839 
L 433.785248 73.609097 
L 434.632114 72.526144 
L 435.47898 73.050154 
L 436.325846 70.849314 
L 437.172712 75.809936 
L 438.019578 69.975965 
L 438.866444 70.849314 
L 439.71331 70.604776 
L 440.560176 72.875484 
L 441.407042 70.430107 
L 442.253908 70.709578 
L 443.100774 74.34271 
L 443.94764 69.975965 
L 444.794506 69.556758 
L 445.641372 74.063238 
L 446.488238 70.220503 
L 447.335104 72.700814 
L 448.18197 72.386408 
L 449.028836 73.364559 
L 449.875702 72.072003 
L 450.722568 71.513059 
L 451.569434 72.176805 
L 452.4163 70.954116 
L 453.263166 73.504295 
L 454.110032 71.443191 
L 454.956898 70.080767 
L 455.803764 69.836229 
L 456.65063 72.386408 
L 457.497496 71.093852 
L 458.344362 71.023984 
L 459.191228 73.364559 
L 460.038094 71.722663 
L 460.88496 72.002135 
L 461.731826 73.01522 
L 462.578692 74.272842 
L 463.425558 74.133106 
L 464.272424 73.154956 
L 465.11929 77.591568 
L 465.966156 72.351474 
L 466.813022 74.237908 
L 467.659888 75.355795 
L 468.506754 70.395173 
L 469.35362 70.63971 
L 470.200486 74.51738 
L 471.047352 73.783767 
L 471.894218 75.635267 
L 472.741084 76.438748 
L 473.58795 71.443191 
L 474.434816 73.958437 
L 475.281682 74.377644 
L 476.128548 70.360239 
L 476.975414 69.347154 
L 477.82228 72.526144 
L 478.669146 71.547993 
L 479.516012 73.294691 
L 480.362878 76.333946 
L 481.209744 73.329625 
L 482.05661 71.128786 
L 482.903475 70.63971 
L 483.750341 70.919182 
L 484.597207 72.770682 
L 485.444073 73.539229 
L 486.290939 72.770682 
L 487.137805 72.630946 
L 487.984671 74.69205 
L 488.831537 73.259757 
L 489.678403 72.49121 
L 490.525269 73.923503 
L 491.372135 70.919182 
L 492.219001 70.569843 
L 493.065867 70.045833 
L 493.912733 70.709578 
L 494.759599 71.058918 
L 495.606465 70.430107 
L 496.453331 75.320861 
L 497.300197 72.141871 
L 498.147063 71.932267 
L 498.993929 70.430107 
L 499.840795 69.766361 
L 500.687661 69.941031 
L 501.534527 70.779446 
L 502.381393 72.002135 
L 503.228259 70.499975 
L 504.075125 71.792531 
L 504.921991 72.805616 
L 505.768857 70.919182 
L 506.615723 69.731427 
L 507.462589 74.028305 
L 508.309455 73.574163 
L 509.156321 70.779446 
L 510.003187 70.150635 
L 510.850053 72.002135 
L 511.696919 72.037069 
L 512.543785 71.862399 
L 513.390651 69.13755 
L 514.237517 71.478125 
L 515.084383 71.16372 
L 515.931249 72.211739 
L 516.778115 72.910418 
L 517.624981 72.945352 
L 518.471847 78.884125 
L 519.318713 73.574163 
L 520.165579 70.954116 
L 521.012445 70.569843 
L 521.859311 70.849314 
L 522.706177 69.66156 
L 523.553043 70.954116 
L 524.399909 68.403937 
L 525.246775 71.617861 
L 526.093641 68.997814 
L 526.940507 68.299135 
L 527.787373 69.801295 
L 528.634239 68.823145 
L 529.481105 72.805616 
L 530.327971 73.329625 
L 531.174837 70.919182 
L 532.021703 71.757597 
L 532.868569 69.48689 
L 533.715435 70.010899 
L 534.562301 70.849314 
L 535.409167 71.33839 
L 536.256033 71.967201 
L 537.102899 68.753277 
L 537.949765 74.272842 
L 538.796631 71.303456 
L 539.643497 71.582927 
L 540.490363 70.604776 
L 541.337229 70.325305 
L 542.184095 70.430107 
L 543.030961 71.687729 
L 543.877827 72.735748 
L 544.724693 71.16372 
L 545.571559 71.268522 
L 546.418425 71.058918 
L 547.265291 69.451956 
L 548.112157 69.591692 
L 548.959023 70.709578 
L 549.805889 73.713899 
L 550.652755 70.98905 
L 551.499621 68.96288 
L 552.346487 71.478125 
L 553.193353 70.115701 
L 554.040219 70.010899 
L 554.887085 67.984729 
L 556.580817 71.582927 
L 557.427683 72.002135 
L 558.274548 74.098172 
L 559.121414 68.718343 
L 559.96828 69.66156 
L 560.815146 68.508739 
L 561.662012 68.997814 
L 562.508878 73.434427 
L 563.355744 71.443191 
L 564.20261 70.534909 
L 565.049476 70.63971 
L 565.896342 69.906097 
L 566.743208 67.914862 
L 567.590074 68.229267 
L 569.283806 69.242352 
L 570.130672 70.849314 
L 570.977538 69.417022 
L 571.824404 70.045833 
L 572.67127 69.731427 
L 573.518136 68.927946 
L 575.211868 70.290371 
L 576.058734 68.648475 
L 576.9056 69.626626 
L 577.752466 68.893012 
L 578.599332 68.578607 
L 579.446198 70.325305 
L 580.293064 70.220503 
L 581.13993 68.508739 
L 581.986796 67.879928 
L 582.833662 69.766361 
L 583.680528 69.347154 
L 584.527394 68.369003 
L 585.37426 69.207418 
L 587.067992 68.578607 
L 587.914858 69.836229 
L 588.761724 71.792531 
L 589.60859 69.801295 
L 590.455456 69.591692 
L 591.302322 70.395173 
L 592.149188 70.115701 
L 592.996054 77.242229 
L 593.84292 71.373324 
L 594.689786 73.713899 
L 595.536652 71.547993 
L 596.383518 73.085088 
L 597.230384 70.325305 
L 598.07725 69.975965 
L 598.924116 73.085088 
L 599.770982 69.277286 
L 600.617848 69.31222 
L 601.464714 68.089531 
L 602.31158 68.96288 
L 603.158446 68.613541 
L 604.005312 71.198654 
L 604.852178 69.172484 
L 605.699044 70.255437 
L 606.54591 72.246673 
L 607.392776 69.556758 
L 608.239642 68.788211 
L 609.933374 71.443191 
L 610.78024 70.569843 
L 611.627106 69.172484 
L 612.473972 68.613541 
L 613.320838 68.508739 
L 614.167704 70.569843 
L 615.01457 69.696494 
L 615.861436 68.124465 
L 616.708302 69.102616 
L 618.402034 72.211739 
L 619.2489 71.792531 
L 620.095766 70.080767 
L 620.942632 68.089531 
L 621.789498 70.290371 
L 622.636364 70.290371 
L 622.636364 70.290371 
" clip-path="url(#pb5b0a75967)" style="fill: none; stroke: #ff7f0e; stroke-width: 1.5; stroke-linecap: square"/>
   </g>
   <g id="patch_3">
    <path d="M 90 384.48 
L 90 51.84 
" style="fill: none; stroke: #000000; stroke-width: 0.8; stroke-linejoin: miter; stroke-linecap: square"/>
   </g>
   <g id="patch_4">
    <path d="M 648 384.48 
L 648 51.84 
" style="fill: none; stroke: #000000; stroke-width: 0.8; stroke-linejoin: miter; stroke-linecap: square"/>
   </g>
   <g id="patch_5">
    <path d="M 90 384.48 
L 648 384.48 
" style="fill: none; stroke: #000000; stroke-width: 0.8; stroke-linejoin: miter; stroke-linecap: square"/>
   </g>
   <g id="patch_6">
    <path d="M 90 51.84 
L 648 51.84 
" style="fill: none; stroke: #000000; stroke-width: 0.8; stroke-linejoin: miter; stroke-linecap: square"/>
   </g>
   <g id="text_14">
    <!-- Training and Testing Accuracy (Learning Rate: 0.01) -->
    <g transform="translate(214.245937 45.84) scale(0.12 -0.12)">
     <defs>
      <path id="DejaVuSans-54" d="M -19 4666 
L 3928 4666 
L 3928 4134 
L 2272 4134 
L 2272 0 
L 1638 0 
L 1638 4134 
L -19 4134 
L -19 4666 
z
" transform="scale(0.015625)"/>
      <path id="DejaVuSans-67" d="M 2906 1791 
Q 2906 2416 2648 2759 
Q 2391 3103 1925 3103 
Q 1463 3103 1205 2759 
Q 947 2416 947 1791 
Q 947 1169 1205 825 
Q 1463 481 1925 481 
Q 2391 481 2648 825 
Q 2906 1169 2906 1791 
z
M 3481 434 
Q 3481 -459 3084 -895 
Q 2688 -1331 1869 -1331 
Q 1566 -1331 1297 -1286 
Q 1028 -1241 775 -1147 
L 775 -588 
Q 1028 -725 1275 -790 
Q 1522 -856 1778 -856 
Q 2344 -856 2625 -561 
Q 2906 -266 2906 331 
L 2906 616 
Q 2728 306 2450 153 
Q 2172 0 1784 0 
Q 1141 0 747 490 
Q 353 981 353 1791 
Q 353 2603 747 3093 
Q 1141 3584 1784 3584 
Q 2172 3584 2450 3431 
Q 2728 3278 2906 2969 
L 2906 3500 
L 3481 3500 
L 3481 434 
z
" transform="scale(0.015625)"/>
      <path id="DejaVuSans-20" transform="scale(0.015625)"/>
      <path id="DejaVuSans-64" d="M 2906 2969 
L 2906 4863 
L 3481 4863 
L 3481 0 
L 2906 0 
L 2906 525 
Q 2725 213 2448 61 
Q 2172 -91 1784 -91 
Q 1150 -91 751 415 
Q 353 922 353 1747 
Q 353 2572 751 3078 
Q 1150 3584 1784 3584 
Q 2172 3584 2448 3432 
Q 2725 3281 2906 2969 
z
M 947 1747 
Q 947 1113 1208 752 
Q 1469 391 1925 391 
Q 2381 391 2643 752 
Q 2906 1113 2906 1747 
Q 2906 2381 2643 2742 
Q 2381 3103 1925 3103 
Q 1469 3103 1208 2742 
Q 947 2381 947 1747 
z
" transform="scale(0.015625)"/>
      <path id="DejaVuSans-28" d="M 1984 4856 
Q 1566 4138 1362 3434 
Q 1159 2731 1159 2009 
Q 1159 1288 1364 580 
Q 1569 -128 1984 -844 
L 1484 -844 
Q 1016 -109 783 600 
Q 550 1309 550 2009 
Q 550 2706 781 3412 
Q 1013 4119 1484 4856 
L 1984 4856 
z
" transform="scale(0.015625)"/>
      <path id="DejaVuSans-4c" d="M 628 4666 
L 1259 4666 
L 1259 531 
L 3531 531 
L 3531 0 
L 628 0 
L 628 4666 
z
" transform="scale(0.015625)"/>
      <path id="DejaVuSans-52" d="M 2841 2188 
Q 3044 2119 3236 1894 
Q 3428 1669 3622 1275 
L 4263 0 
L 3584 0 
L 2988 1197 
Q 2756 1666 2539 1819 
Q 2322 1972 1947 1972 
L 1259 1972 
L 1259 0 
L 628 0 
L 628 4666 
L 2053 4666 
Q 2853 4666 3247 4331 
Q 3641 3997 3641 3322 
Q 3641 2881 3436 2590 
Q 3231 2300 2841 2188 
z
M 1259 4147 
L 1259 2491 
L 2053 2491 
Q 2509 2491 2742 2702 
Q 2975 2913 2975 3322 
Q 2975 3731 2742 3939 
Q 2509 4147 2053 4147 
L 1259 4147 
z
" transform="scale(0.015625)"/>
      <path id="DejaVuSans-3a" d="M 750 794 
L 1409 794 
L 1409 0 
L 750 0 
L 750 794 
z
M 750 3309 
L 1409 3309 
L 1409 2516 
L 750 2516 
L 750 3309 
z
" transform="scale(0.015625)"/>
      <path id="DejaVuSans-29" d="M 513 4856 
L 1013 4856 
Q 1481 4119 1714 3412 
Q 1947 2706 1947 2009 
Q 1947 1309 1714 600 
Q 1481 -109 1013 -844 
L 513 -844 
Q 928 -128 1133 580 
Q 1338 1288 1338 2009 
Q 1338 2731 1133 3434 
Q 928 4138 513 4856 
z
" transform="scale(0.015625)"/>
     </defs>
     <use xlink:href="#DejaVuSans-54"/>
     <use xlink:href="#DejaVuSans-72" x="46.333984"/>
     <use xlink:href="#DejaVuSans-61" x="87.447266"/>
     <use xlink:href="#DejaVuSans-69" x="148.726562"/>
     <use xlink:href="#DejaVuSans-6e" x="176.509766"/>
     <use xlink:href="#DejaVuSans-69" x="239.888672"/>
     <use xlink:href="#DejaVuSans-6e" x="267.671875"/>
     <use xlink:href="#DejaVuSans-67" x="331.050781"/>
     <use xlink:href="#DejaVuSans-20" x="394.527344"/>
     <use xlink:href="#DejaVuSans-61" x="426.314453"/>
     <use xlink:href="#DejaVuSans-6e" x="487.59375"/>
     <use xlink:href="#DejaVuSans-64" x="550.972656"/>
     <use xlink:href="#DejaVuSans-20" x="614.449219"/>
     <use xlink:href="#DejaVuSans-54" x="646.236328"/>
     <use xlink:href="#DejaVuSans-65" x="690.320312"/>
     <use xlink:href="#DejaVuSans-73" x="751.84375"/>
     <use xlink:href="#DejaVuSans-74" x="803.943359"/>
     <use xlink:href="#DejaVuSans-69" x="843.152344"/>
     <use xlink:href="#DejaVuSans-6e" x="870.935547"/>
     <use xlink:href="#DejaVuSans-67" x="934.314453"/>
     <use xlink:href="#DejaVuSans-20" x="997.791016"/>
     <use xlink:href="#DejaVuSans-41" x="1029.578125"/>
     <use xlink:href="#DejaVuSans-63" x="1096.236328"/>
     <use xlink:href="#DejaVuSans-63" x="1151.216797"/>
     <use xlink:href="#DejaVuSans-75" x="1206.197266"/>
     <use xlink:href="#DejaVuSans-72" x="1269.576172"/>
     <use xlink:href="#DejaVuSans-61" x="1310.689453"/>
     <use xlink:href="#DejaVuSans-63" x="1371.96875"/>
     <use xlink:href="#DejaVuSans-79" x="1426.949219"/>
     <use xlink:href="#DejaVuSans-20" x="1486.128906"/>
     <use xlink:href="#DejaVuSans-28" x="1517.916016"/>
     <use xlink:href="#DejaVuSans-4c" x="1556.929688"/>
     <use xlink:href="#DejaVuSans-65" x="1610.892578"/>
     <use xlink:href="#DejaVuSans-61" x="1672.416016"/>
     <use xlink:href="#DejaVuSans-72" x="1733.695312"/>
     <use xlink:href="#DejaVuSans-6e" x="1773.058594"/>
     <use xlink:href="#DejaVuSans-69" x="1836.4375"/>
     <use xlink:href="#DejaVuSans-6e" x="1864.220703"/>
     <use xlink:href="#DejaVuSans-67" x="1927.599609"/>
     <use xlink:href="#DejaVuSans-20" x="1991.076172"/>
     <use xlink:href="#DejaVuSans-52" x="2022.863281"/>
     <use xlink:href="#DejaVuSans-61" x="2090.095703"/>
     <use xlink:href="#DejaVuSans-74" x="2151.375"/>
     <use xlink:href="#DejaVuSans-65" x="2190.583984"/>
     <use xlink:href="#DejaVuSans-3a" x="2252.107422"/>
     <use xlink:href="#DejaVuSans-20" x="2285.798828"/>
     <use xlink:href="#DejaVuSans-30" x="2317.585938"/>
     <use xlink:href="#DejaVuSans-2e" x="2381.208984"/>
     <use xlink:href="#DejaVuSans-30" x="2412.996094"/>
     <use xlink:href="#DejaVuSans-31" x="2476.619141"/>
     <use xlink:href="#DejaVuSans-29" x="2540.242188"/>
    </g>
   </g>
   <g id="legend_1">
    <g id="patch_7">
     <path d="M 520.714062 379.48 
L 641 379.48 
Q 643 379.48 643 377.48 
L 643 349.12375 
Q 643 347.12375 641 347.12375 
L 520.714062 347.12375 
Q 518.714062 347.12375 518.714062 349.12375 
L 518.714062 377.48 
Q 518.714062 379.48 520.714062 379.48 
z
" style="fill: #ffffff; opacity: 0.8; stroke: #cccccc; stroke-linejoin: miter"/>
    </g>
    <g id="line2d_14">
     <path d="M 522.714062 355.222188 
L 532.714062 355.222188 
L 542.714062 355.222188 
" style="fill: none; stroke: #1f77b4; stroke-width: 1.5; stroke-linecap: square"/>
    </g>
    <g id="text_15">
     <!-- Training Accuracy -->
     <g transform="translate(550.714062 358.722188) scale(0.1 -0.1)">
      <use xlink:href="#DejaVuSans-54"/>
      <use xlink:href="#DejaVuSans-72" x="46.333984"/>
      <use xlink:href="#DejaVuSans-61" x="87.447266"/>
      <use xlink:href="#DejaVuSans-69" x="148.726562"/>
      <use xlink:href="#DejaVuSans-6e" x="176.509766"/>
      <use xlink:href="#DejaVuSans-69" x="239.888672"/>
      <use xlink:href="#DejaVuSans-6e" x="267.671875"/>
      <use xlink:href="#DejaVuSans-67" x="331.050781"/>
      <use xlink:href="#DejaVuSans-20" x="394.527344"/>
      <use xlink:href="#DejaVuSans-41" x="426.314453"/>
      <use xlink:href="#DejaVuSans-63" x="492.972656"/>
      <use xlink:href="#DejaVuSans-63" x="547.953125"/>
      <use xlink:href="#DejaVuSans-75" x="602.933594"/>
      <use xlink:href="#DejaVuSans-72" x="666.3125"/>
      <use xlink:href="#DejaVuSans-61" x="707.425781"/>
      <use xlink:href="#DejaVuSans-63" x="768.705078"/>
      <use xlink:href="#DejaVuSans-79" x="823.685547"/>
     </g>
    </g>
    <g id="line2d_15">
     <path d="M 522.714062 369.900312 
L 532.714062 369.900312 
L 542.714062 369.900312 
" style="fill: none; stroke: #ff7f0e; stroke-width: 1.5; stroke-linecap: square"/>
    </g>
    <g id="text_16">
     <!-- Testing Accuracy -->
     <g transform="translate(550.714062 373.400312) scale(0.1 -0.1)">
      <use xlink:href="#DejaVuSans-54"/>
      <use xlink:href="#DejaVuSans-65" x="44.083984"/>
      <use xlink:href="#DejaVuSans-73" x="105.607422"/>
      <use xlink:href="#DejaVuSans-74" x="157.707031"/>
      <use xlink:href="#DejaVuSans-69" x="196.916016"/>
      <use xlink:href="#DejaVuSans-6e" x="224.699219"/>
      <use xlink:href="#DejaVuSans-67" x="288.078125"/>
      <use xlink:href="#DejaVuSans-20" x="351.554688"/>
      <use xlink:href="#DejaVuSans-41" x="383.341797"/>
      <use xlink:href="#DejaVuSans-63" x="450"/>
      <use xlink:href="#DejaVuSans-63" x="504.980469"/>
      <use xlink:href="#DejaVuSans-75" x="559.960938"/>
      <use xlink:href="#DejaVuSans-72" x="623.339844"/>
      <use xlink:href="#DejaVuSans-61" x="664.453125"/>
      <use xlink:href="#DejaVuSans-63" x="725.732422"/>
      <use xlink:href="#DejaVuSans-79" x="780.712891"/>
     </g>
    </g>
   </g>
  </g>
 </g>
 <defs>
  <clipPath id="pb5b0a75967">
   <rect x="90" y="51.84" width="558" height="332.64"/>
  </clipPath>
 </defs>
</svg>
