<?xml version="1.0" encoding="utf-8" standalone="no"?>
<!DOCTYPE svg PUBLIC "-//W3C//DTD SVG 1.1//EN"
  "http://www.w3.org/Graphics/SVG/1.1/DTD/svg11.dtd">
<svg xmlns:xlink="http://www.w3.org/1999/xlink" width="720pt" height="432pt" viewBox="0 0 720 432" xmlns="http://www.w3.org/2000/svg" version="1.1">
 <metadata>
  <rdf:RDF xmlns:dc="http://purl.org/dc/elements/1.1/" xmlns:cc="http://creativecommons.org/ns#" xmlns:rdf="http://www.w3.org/1999/02/22-rdf-syntax-ns#">
   <cc:Work>
    <dc:type rdf:resource="http://purl.org/dc/dcmitype/StillImage"/>
    <dc:date>2024-05-19T15:56:36.451160</dc:date>
    <dc:format>image/svg+xml</dc:format>
    <dc:creator>
     <cc:Agent>
      <dc:title>Matplotlib v3.6.2, https://matplotlib.org/</dc:title>
     </cc:Agent>
    </dc:creator>
   </cc:Work>
  </rdf:RDF>
 </metadata>
 <defs>
  <style type="text/css">*{stroke-linejoin: round; stroke-linecap: butt}</style>
 </defs>
 <g id="figure_1">
  <g id="patch_1">
   <path d="M 0 432 
L 720 432 
L 720 0 
L 0 0 
z
" style="fill: #ffffff"/>
  </g>
  <g id="axes_1">
   <g id="patch_2">
    <path d="M 90 384.48 
L 648 384.48 
L 648 51.84 
L 90 51.84 
z
" style="fill: #ffffff"/>
   </g>
   <g id="matplotlib.axis_1">
    <g id="xtick_1">
     <g id="line2d_1">
      <path d="M 115.363636 384.48 
L 115.363636 51.84 
" clip-path="url(#pffceddc8ab)" style="fill: none; stroke: #b0b0b0; stroke-width: 0.8; stroke-linecap: square"/>
     </g>
     <g id="line2d_2">
      <defs>
       <path id="mae826ea6a2" d="M 0 0 
L 0 3.5 
" style="stroke: #000000; stroke-width: 0.8"/>
      </defs>
      <g>
       <use xlink:href="#mae826ea6a2" x="115.363636" y="384.48" style="stroke: #000000; stroke-width: 0.8"/>
      </g>
     </g>
     <g id="text_1">
      <!-- 0 -->
      <g transform="translate(112.182386 399.078438) scale(0.1 -0.1)">
       <defs>
        <path id="DejaVuSans-30" d="M 2034 4250 
Q 1547 4250 1301 3770 
Q 1056 3291 1056 2328 
Q 1056 1369 1301 889 
Q 1547 409 2034 409 
Q 2525 409 2770 889 
Q 3016 1369 3016 2328 
Q 3016 3291 2770 3770 
Q 2525 4250 2034 4250 
z
M 2034 4750 
Q 2819 4750 3233 4129 
Q 3647 3509 3647 2328 
Q 3647 1150 3233 529 
Q 2819 -91 2034 -91 
Q 1250 -91 836 529 
Q 422 1150 422 2328 
Q 422 3509 836 4129 
Q 1250 4750 2034 4750 
z
" transform="scale(0.015625)"/>
       </defs>
       <use xlink:href="#DejaVuSans-30"/>
      </g>
     </g>
    </g>
    <g id="xtick_2">
     <g id="line2d_3">
      <path d="M 200.050235 384.48 
L 200.050235 51.84 
" clip-path="url(#pffceddc8ab)" style="fill: none; stroke: #b0b0b0; stroke-width: 0.8; stroke-linecap: square"/>
     </g>
     <g id="line2d_4">
      <g>
       <use xlink:href="#mae826ea6a2" x="200.050235" y="384.48" style="stroke: #000000; stroke-width: 0.8"/>
      </g>
     </g>
     <g id="text_2">
      <!-- 10000 -->
      <g transform="translate(184.143985 399.078438) scale(0.1 -0.1)">
       <defs>
        <path id="DejaVuSans-31" d="M 794 531 
L 1825 531 
L 1825 4091 
L 703 3866 
L 703 4441 
L 1819 4666 
L 2450 4666 
L 2450 531 
L 3481 531 
L 3481 0 
L 794 0 
L 794 531 
z
" transform="scale(0.015625)"/>
       </defs>
       <use xlink:href="#DejaVuSans-31"/>
       <use xlink:href="#DejaVuSans-30" x="63.623047"/>
       <use xlink:href="#DejaVuSans-30" x="127.246094"/>
       <use xlink:href="#DejaVuSans-30" x="190.869141"/>
       <use xlink:href="#DejaVuSans-30" x="254.492188"/>
      </g>
     </g>
    </g>
    <g id="xtick_3">
     <g id="line2d_5">
      <path d="M 284.736834 384.48 
L 284.736834 51.84 
" clip-path="url(#pffceddc8ab)" style="fill: none; stroke: #b0b0b0; stroke-width: 0.8; stroke-linecap: square"/>
     </g>
     <g id="line2d_6">
      <g>
       <use xlink:href="#mae826ea6a2" x="284.736834" y="384.48" style="stroke: #000000; stroke-width: 0.8"/>
      </g>
     </g>
     <g id="text_3">
      <!-- 20000 -->
      <g transform="translate(268.830584 399.078438) scale(0.1 -0.1)">
       <defs>
        <path id="DejaVuSans-32" d="M 1228 531 
L 3431 531 
L 3431 0 
L 469 0 
L 469 531 
Q 828 903 1448 1529 
Q 2069 2156 2228 2338 
Q 2531 2678 2651 2914 
Q 2772 3150 2772 3378 
Q 2772 3750 2511 3984 
Q 2250 4219 1831 4219 
Q 1534 4219 1204 4116 
Q 875 4013 500 3803 
L 500 4441 
Q 881 4594 1212 4672 
Q 1544 4750 1819 4750 
Q 2544 4750 2975 4387 
Q 3406 4025 3406 3419 
Q 3406 3131 3298 2873 
Q 3191 2616 2906 2266 
Q 2828 2175 2409 1742 
Q 1991 1309 1228 531 
z
" transform="scale(0.015625)"/>
       </defs>
       <use xlink:href="#DejaVuSans-32"/>
       <use xlink:href="#DejaVuSans-30" x="63.623047"/>
       <use xlink:href="#DejaVuSans-30" x="127.246094"/>
       <use xlink:href="#DejaVuSans-30" x="190.869141"/>
       <use xlink:href="#DejaVuSans-30" x="254.492188"/>
      </g>
     </g>
    </g>
    <g id="xtick_4">
     <g id="line2d_7">
      <path d="M 369.423433 384.48 
L 369.423433 51.84 
" clip-path="url(#pffceddc8ab)" style="fill: none; stroke: #b0b0b0; stroke-width: 0.8; stroke-linecap: square"/>
     </g>
     <g id="line2d_8">
      <g>
       <use xlink:href="#mae826ea6a2" x="369.423433" y="384.48" style="stroke: #000000; stroke-width: 0.8"/>
      </g>
     </g>
     <g id="text_4">
      <!-- 30000 -->
      <g transform="translate(353.517183 399.078438) scale(0.1 -0.1)">
       <defs>
        <path id="DejaVuSans-33" d="M 2597 2516 
Q 3050 2419 3304 2112 
Q 3559 1806 3559 1356 
Q 3559 666 3084 287 
Q 2609 -91 1734 -91 
Q 1441 -91 1130 -33 
Q 819 25 488 141 
L 488 750 
Q 750 597 1062 519 
Q 1375 441 1716 441 
Q 2309 441 2620 675 
Q 2931 909 2931 1356 
Q 2931 1769 2642 2001 
Q 2353 2234 1838 2234 
L 1294 2234 
L 1294 2753 
L 1863 2753 
Q 2328 2753 2575 2939 
Q 2822 3125 2822 3475 
Q 2822 3834 2567 4026 
Q 2313 4219 1838 4219 
Q 1578 4219 1281 4162 
Q 984 4106 628 3988 
L 628 4550 
Q 988 4650 1302 4700 
Q 1616 4750 1894 4750 
Q 2613 4750 3031 4423 
Q 3450 4097 3450 3541 
Q 3450 3153 3228 2886 
Q 3006 2619 2597 2516 
z
" transform="scale(0.015625)"/>
       </defs>
       <use xlink:href="#DejaVuSans-33"/>
       <use xlink:href="#DejaVuSans-30" x="63.623047"/>
       <use xlink:href="#DejaVuSans-30" x="127.246094"/>
       <use xlink:href="#DejaVuSans-30" x="190.869141"/>
       <use xlink:href="#DejaVuSans-30" x="254.492188"/>
      </g>
     </g>
    </g>
    <g id="xtick_5">
     <g id="line2d_9">
      <path d="M 454.110032 384.48 
L 454.110032 51.84 
" clip-path="url(#pffceddc8ab)" style="fill: none; stroke: #b0b0b0; stroke-width: 0.8; stroke-linecap: square"/>
     </g>
     <g id="line2d_10">
      <g>
       <use xlink:href="#mae826ea6a2" x="454.110032" y="384.48" style="stroke: #000000; stroke-width: 0.8"/>
      </g>
     </g>
     <g id="text_5">
      <!-- 40000 -->
      <g transform="translate(438.203782 399.078438) scale(0.1 -0.1)">
       <defs>
        <path id="DejaVuSans-34" d="M 2419 4116 
L 825 1625 
L 2419 1625 
L 2419 4116 
z
M 2253 4666 
L 3047 4666 
L 3047 1625 
L 3713 1625 
L 3713 1100 
L 3047 1100 
L 3047 0 
L 2419 0 
L 2419 1100 
L 313 1100 
L 313 1709 
L 2253 4666 
z
" transform="scale(0.015625)"/>
       </defs>
       <use xlink:href="#DejaVuSans-34"/>
       <use xlink:href="#DejaVuSans-30" x="63.623047"/>
       <use xlink:href="#DejaVuSans-30" x="127.246094"/>
       <use xlink:href="#DejaVuSans-30" x="190.869141"/>
       <use xlink:href="#DejaVuSans-30" x="254.492188"/>
      </g>
     </g>
    </g>
    <g id="xtick_6">
     <g id="line2d_11">
      <path d="M 538.796631 384.48 
L 538.796631 51.84 
" clip-path="url(#pffceddc8ab)" style="fill: none; stroke: #b0b0b0; stroke-width: 0.8; stroke-linecap: square"/>
     </g>
     <g id="line2d_12">
      <g>
       <use xlink:href="#mae826ea6a2" x="538.796631" y="384.48" style="stroke: #000000; stroke-width: 0.8"/>
      </g>
     </g>
     <g id="text_6">
      <!-- 50000 -->
      <g transform="translate(522.890381 399.078438) scale(0.1 -0.1)">
       <defs>
        <path id="DejaVuSans-35" d="M 691 4666 
L 3169 4666 
L 3169 4134 
L 1269 4134 
L 1269 2991 
Q 1406 3038 1543 3061 
Q 1681 3084 1819 3084 
Q 2600 3084 3056 2656 
Q 3513 2228 3513 1497 
Q 3513 744 3044 326 
Q 2575 -91 1722 -91 
Q 1428 -91 1123 -41 
Q 819 9 494 109 
L 494 744 
Q 775 591 1075 516 
Q 1375 441 1709 441 
Q 2250 441 2565 725 
Q 2881 1009 2881 1497 
Q 2881 1984 2565 2268 
Q 2250 2553 1709 2553 
Q 1456 2553 1204 2497 
Q 953 2441 691 2322 
L 691 4666 
z
" transform="scale(0.015625)"/>
       </defs>
       <use xlink:href="#DejaVuSans-35"/>
       <use xlink:href="#DejaVuSans-30" x="63.623047"/>
       <use xlink:href="#DejaVuSans-30" x="127.246094"/>
       <use xlink:href="#DejaVuSans-30" x="190.869141"/>
       <use xlink:href="#DejaVuSans-30" x="254.492188"/>
      </g>
     </g>
    </g>
    <g id="xtick_7">
     <g id="line2d_13">
      <path d="M 623.48323 384.48 
L 623.48323 51.84 
" clip-path="url(#pffceddc8ab)" style="fill: none; stroke: #b0b0b0; stroke-width: 0.8; stroke-linecap: square"/>
     </g>
     <g id="line2d_14">
      <g>
       <use xlink:href="#mae826ea6a2" x="623.48323" y="384.48" style="stroke: #000000; stroke-width: 0.8"/>
      </g>
     </g>
     <g id="text_7">
      <!-- 60000 -->
      <g transform="translate(607.57698 399.078438) scale(0.1 -0.1)">
       <defs>
        <path id="DejaVuSans-36" d="M 2113 2584 
Q 1688 2584 1439 2293 
Q 1191 2003 1191 1497 
Q 1191 994 1439 701 
Q 1688 409 2113 409 
Q 2538 409 2786 701 
Q 3034 994 3034 1497 
Q 3034 2003 2786 2293 
Q 2538 2584 2113 2584 
z
M 3366 4563 
L 3366 3988 
Q 3128 4100 2886 4159 
Q 2644 4219 2406 4219 
Q 1781 4219 1451 3797 
Q 1122 3375 1075 2522 
Q 1259 2794 1537 2939 
Q 1816 3084 2150 3084 
Q 2853 3084 3261 2657 
Q 3669 2231 3669 1497 
Q 3669 778 3244 343 
Q 2819 -91 2113 -91 
Q 1303 -91 875 529 
Q 447 1150 447 2328 
Q 447 3434 972 4092 
Q 1497 4750 2381 4750 
Q 2619 4750 2861 4703 
Q 3103 4656 3366 4563 
z
" transform="scale(0.015625)"/>
       </defs>
       <use xlink:href="#DejaVuSans-36"/>
       <use xlink:href="#DejaVuSans-30" x="63.623047"/>
       <use xlink:href="#DejaVuSans-30" x="127.246094"/>
       <use xlink:href="#DejaVuSans-30" x="190.869141"/>
       <use xlink:href="#DejaVuSans-30" x="254.492188"/>
      </g>
     </g>
    </g>
    <g id="text_8">
     <!-- Iterations -->
     <g transform="translate(335.661406 415.795938) scale(0.14 -0.14)">
      <defs>
       <path id="DejaVuSans-49" d="M 628 4666 
L 1259 4666 
L 1259 0 
L 628 0 
L 628 4666 
z
" transform="scale(0.015625)"/>
       <path id="DejaVuSans-74" d="M 1172 4494 
L 1172 3500 
L 2356 3500 
L 2356 3053 
L 1172 3053 
L 1172 1153 
Q 1172 725 1289 603 
Q 1406 481 1766 481 
L 2356 481 
L 2356 0 
L 1766 0 
Q 1100 0 847 248 
Q 594 497 594 1153 
L 594 3053 
L 172 3053 
L 172 3500 
L 594 3500 
L 594 4494 
L 1172 4494 
z
" transform="scale(0.015625)"/>
       <path id="DejaVuSans-65" d="M 3597 1894 
L 3597 1613 
L 953 1613 
Q 991 1019 1311 708 
Q 1631 397 2203 397 
Q 2534 397 2845 478 
Q 3156 559 3463 722 
L 3463 178 
Q 3153 47 2828 -22 
Q 2503 -91 2169 -91 
Q 1331 -91 842 396 
Q 353 884 353 1716 
Q 353 2575 817 3079 
Q 1281 3584 2069 3584 
Q 2775 3584 3186 3129 
Q 3597 2675 3597 1894 
z
M 3022 2063 
Q 3016 2534 2758 2815 
Q 2500 3097 2075 3097 
Q 1594 3097 1305 2825 
Q 1016 2553 972 2059 
L 3022 2063 
z
" transform="scale(0.015625)"/>
       <path id="DejaVuSans-72" d="M 2631 2963 
Q 2534 3019 2420 3045 
Q 2306 3072 2169 3072 
Q 1681 3072 1420 2755 
Q 1159 2438 1159 1844 
L 1159 0 
L 581 0 
L 581 3500 
L 1159 3500 
L 1159 2956 
Q 1341 3275 1631 3429 
Q 1922 3584 2338 3584 
Q 2397 3584 2469 3576 
Q 2541 3569 2628 3553 
L 2631 2963 
z
" transform="scale(0.015625)"/>
       <path id="DejaVuSans-61" d="M 2194 1759 
Q 1497 1759 1228 1600 
Q 959 1441 959 1056 
Q 959 750 1161 570 
Q 1363 391 1709 391 
Q 2188 391 2477 730 
Q 2766 1069 2766 1631 
L 2766 1759 
L 2194 1759 
z
M 3341 1997 
L 3341 0 
L 2766 0 
L 2766 531 
Q 2569 213 2275 61 
Q 1981 -91 1556 -91 
Q 1019 -91 701 211 
Q 384 513 384 1019 
Q 384 1609 779 1909 
Q 1175 2209 1959 2209 
L 2766 2209 
L 2766 2266 
Q 2766 2663 2505 2880 
Q 2244 3097 1772 3097 
Q 1472 3097 1187 3025 
Q 903 2953 641 2809 
L 641 3341 
Q 956 3463 1253 3523 
Q 1550 3584 1831 3584 
Q 2591 3584 2966 3190 
Q 3341 2797 3341 1997 
z
" transform="scale(0.015625)"/>
       <path id="DejaVuSans-69" d="M 603 3500 
L 1178 3500 
L 1178 0 
L 603 0 
L 603 3500 
z
M 603 4863 
L 1178 4863 
L 1178 4134 
L 603 4134 
L 603 4863 
z
" transform="scale(0.015625)"/>
       <path id="DejaVuSans-6f" d="M 1959 3097 
Q 1497 3097 1228 2736 
Q 959 2375 959 1747 
Q 959 1119 1226 758 
Q 1494 397 1959 397 
Q 2419 397 2687 759 
Q 2956 1122 2956 1747 
Q 2956 2369 2687 2733 
Q 2419 3097 1959 3097 
z
M 1959 3584 
Q 2709 3584 3137 3096 
Q 3566 2609 3566 1747 
Q 3566 888 3137 398 
Q 2709 -91 1959 -91 
Q 1206 -91 779 398 
Q 353 888 353 1747 
Q 353 2609 779 3096 
Q 1206 3584 1959 3584 
z
" transform="scale(0.015625)"/>
       <path id="DejaVuSans-6e" d="M 3513 2113 
L 3513 0 
L 2938 0 
L 2938 2094 
Q 2938 2591 2744 2837 
Q 2550 3084 2163 3084 
Q 1697 3084 1428 2787 
Q 1159 2491 1159 1978 
L 1159 0 
L 581 0 
L 581 3500 
L 1159 3500 
L 1159 2956 
Q 1366 3272 1645 3428 
Q 1925 3584 2291 3584 
Q 2894 3584 3203 3211 
Q 3513 2838 3513 2113 
z
" transform="scale(0.015625)"/>
       <path id="DejaVuSans-73" d="M 2834 3397 
L 2834 2853 
Q 2591 2978 2328 3040 
Q 2066 3103 1784 3103 
Q 1356 3103 1142 2972 
Q 928 2841 928 2578 
Q 928 2378 1081 2264 
Q 1234 2150 1697 2047 
L 1894 2003 
Q 2506 1872 2764 1633 
Q 3022 1394 3022 966 
Q 3022 478 2636 193 
Q 2250 -91 1575 -91 
Q 1294 -91 989 -36 
Q 684 19 347 128 
L 347 722 
Q 666 556 975 473 
Q 1284 391 1588 391 
Q 1994 391 2212 530 
Q 2431 669 2431 922 
Q 2431 1156 2273 1281 
Q 2116 1406 1581 1522 
L 1381 1569 
Q 847 1681 609 1914 
Q 372 2147 372 2553 
Q 372 3047 722 3315 
Q 1072 3584 1716 3584 
Q 2034 3584 2315 3537 
Q 2597 3491 2834 3397 
z
" transform="scale(0.015625)"/>
      </defs>
      <use xlink:href="#DejaVuSans-49"/>
      <use xlink:href="#DejaVuSans-74" x="29.492188"/>
      <use xlink:href="#DejaVuSans-65" x="68.701172"/>
      <use xlink:href="#DejaVuSans-72" x="130.224609"/>
      <use xlink:href="#DejaVuSans-61" x="171.337891"/>
      <use xlink:href="#DejaVuSans-74" x="232.617188"/>
      <use xlink:href="#DejaVuSans-69" x="271.826172"/>
      <use xlink:href="#DejaVuSans-6f" x="299.609375"/>
      <use xlink:href="#DejaVuSans-6e" x="360.791016"/>
      <use xlink:href="#DejaVuSans-73" x="424.169922"/>
     </g>
    </g>
   </g>
   <g id="matplotlib.axis_2">
    <g id="ytick_1">
     <g id="line2d_15">
      <path d="M 90 384.48 
L 648 384.48 
" clip-path="url(#pffceddc8ab)" style="fill: none; stroke: #b0b0b0; stroke-width: 0.8; stroke-linecap: square"/>
     </g>
     <g id="line2d_16">
      <defs>
       <path id="m69417a9b10" d="M 0 0 
L -3.5 0 
" style="stroke: #000000; stroke-width: 0.8"/>
      </defs>
      <g>
       <use xlink:href="#m69417a9b10" x="90" y="384.48" style="stroke: #000000; stroke-width: 0.8"/>
      </g>
     </g>
     <g id="text_9">
      <!-- 0.00 -->
      <g transform="translate(60.734375 388.279219) scale(0.1 -0.1)">
       <defs>
        <path id="DejaVuSans-2e" d="M 684 794 
L 1344 794 
L 1344 0 
L 684 0 
L 684 794 
z
" transform="scale(0.015625)"/>
       </defs>
       <use xlink:href="#DejaVuSans-30"/>
       <use xlink:href="#DejaVuSans-2e" x="63.623047"/>
       <use xlink:href="#DejaVuSans-30" x="95.410156"/>
       <use xlink:href="#DejaVuSans-30" x="159.033203"/>
      </g>
     </g>
    </g>
    <g id="ytick_2">
     <g id="line2d_17">
      <path d="M 90 341.591044 
L 648 341.591044 
" clip-path="url(#pffceddc8ab)" style="fill: none; stroke: #b0b0b0; stroke-width: 0.8; stroke-linecap: square"/>
     </g>
     <g id="line2d_18">
      <g>
       <use xlink:href="#m69417a9b10" x="90" y="341.591044" style="stroke: #000000; stroke-width: 0.8"/>
      </g>
     </g>
     <g id="text_10">
      <!-- 0.25 -->
      <g transform="translate(60.734375 345.390263) scale(0.1 -0.1)">
       <use xlink:href="#DejaVuSans-30"/>
       <use xlink:href="#DejaVuSans-2e" x="63.623047"/>
       <use xlink:href="#DejaVuSans-32" x="95.410156"/>
       <use xlink:href="#DejaVuSans-35" x="159.033203"/>
      </g>
     </g>
    </g>
    <g id="ytick_3">
     <g id="line2d_19">
      <path d="M 90 298.702088 
L 648 298.702088 
" clip-path="url(#pffceddc8ab)" style="fill: none; stroke: #b0b0b0; stroke-width: 0.8; stroke-linecap: square"/>
     </g>
     <g id="line2d_20">
      <g>
       <use xlink:href="#m69417a9b10" x="90" y="298.702088" style="stroke: #000000; stroke-width: 0.8"/>
      </g>
     </g>
     <g id="text_11">
      <!-- 0.50 -->
      <g transform="translate(60.734375 302.501306) scale(0.1 -0.1)">
       <use xlink:href="#DejaVuSans-30"/>
       <use xlink:href="#DejaVuSans-2e" x="63.623047"/>
       <use xlink:href="#DejaVuSans-35" x="95.410156"/>
       <use xlink:href="#DejaVuSans-30" x="159.033203"/>
      </g>
     </g>
    </g>
    <g id="ytick_4">
     <g id="line2d_21">
      <path d="M 90 255.813132 
L 648 255.813132 
" clip-path="url(#pffceddc8ab)" style="fill: none; stroke: #b0b0b0; stroke-width: 0.8; stroke-linecap: square"/>
     </g>
     <g id="line2d_22">
      <g>
       <use xlink:href="#m69417a9b10" x="90" y="255.813132" style="stroke: #000000; stroke-width: 0.8"/>
      </g>
     </g>
     <g id="text_12">
      <!-- 0.75 -->
      <g transform="translate(60.734375 259.61235) scale(0.1 -0.1)">
       <defs>
        <path id="DejaVuSans-37" d="M 525 4666 
L 3525 4666 
L 3525 4397 
L 1831 0 
L 1172 0 
L 2766 4134 
L 525 4134 
L 525 4666 
z
" transform="scale(0.015625)"/>
       </defs>
       <use xlink:href="#DejaVuSans-30"/>
       <use xlink:href="#DejaVuSans-2e" x="63.623047"/>
       <use xlink:href="#DejaVuSans-37" x="95.410156"/>
       <use xlink:href="#DejaVuSans-35" x="159.033203"/>
      </g>
     </g>
    </g>
    <g id="ytick_5">
     <g id="line2d_23">
      <path d="M 90 212.924175 
L 648 212.924175 
" clip-path="url(#pffceddc8ab)" style="fill: none; stroke: #b0b0b0; stroke-width: 0.8; stroke-linecap: square"/>
     </g>
     <g id="line2d_24">
      <g>
       <use xlink:href="#m69417a9b10" x="90" y="212.924175" style="stroke: #000000; stroke-width: 0.8"/>
      </g>
     </g>
     <g id="text_13">
      <!-- 1.00 -->
      <g transform="translate(60.734375 216.723394) scale(0.1 -0.1)">
       <use xlink:href="#DejaVuSans-31"/>
       <use xlink:href="#DejaVuSans-2e" x="63.623047"/>
       <use xlink:href="#DejaVuSans-30" x="95.410156"/>
       <use xlink:href="#DejaVuSans-30" x="159.033203"/>
      </g>
     </g>
    </g>
    <g id="ytick_6">
     <g id="line2d_25">
      <path d="M 90 170.035219 
L 648 170.035219 
" clip-path="url(#pffceddc8ab)" style="fill: none; stroke: #b0b0b0; stroke-width: 0.8; stroke-linecap: square"/>
     </g>
     <g id="line2d_26">
      <g>
       <use xlink:href="#m69417a9b10" x="90" y="170.035219" style="stroke: #000000; stroke-width: 0.8"/>
      </g>
     </g>
     <g id="text_14">
      <!-- 1.25 -->
      <g transform="translate(60.734375 173.834438) scale(0.1 -0.1)">
       <use xlink:href="#DejaVuSans-31"/>
       <use xlink:href="#DejaVuSans-2e" x="63.623047"/>
       <use xlink:href="#DejaVuSans-32" x="95.410156"/>
       <use xlink:href="#DejaVuSans-35" x="159.033203"/>
      </g>
     </g>
    </g>
    <g id="ytick_7">
     <g id="line2d_27">
      <path d="M 90 127.146263 
L 648 127.146263 
" clip-path="url(#pffceddc8ab)" style="fill: none; stroke: #b0b0b0; stroke-width: 0.8; stroke-linecap: square"/>
     </g>
     <g id="line2d_28">
      <g>
       <use xlink:href="#m69417a9b10" x="90" y="127.146263" style="stroke: #000000; stroke-width: 0.8"/>
      </g>
     </g>
     <g id="text_15">
      <!-- 1.50 -->
      <g transform="translate(60.734375 130.945482) scale(0.1 -0.1)">
       <use xlink:href="#DejaVuSans-31"/>
       <use xlink:href="#DejaVuSans-2e" x="63.623047"/>
       <use xlink:href="#DejaVuSans-35" x="95.410156"/>
       <use xlink:href="#DejaVuSans-30" x="159.033203"/>
      </g>
     </g>
    </g>
    <g id="ytick_8">
     <g id="line2d_29">
      <path d="M 90 84.257307 
L 648 84.257307 
" clip-path="url(#pffceddc8ab)" style="fill: none; stroke: #b0b0b0; stroke-width: 0.8; stroke-linecap: square"/>
     </g>
     <g id="line2d_30">
      <g>
       <use xlink:href="#m69417a9b10" x="90" y="84.257307" style="stroke: #000000; stroke-width: 0.8"/>
      </g>
     </g>
     <g id="text_16">
      <!-- 1.75 -->
      <g transform="translate(60.734375 88.056526) scale(0.1 -0.1)">
       <use xlink:href="#DejaVuSans-31"/>
       <use xlink:href="#DejaVuSans-2e" x="63.623047"/>
       <use xlink:href="#DejaVuSans-37" x="95.410156"/>
       <use xlink:href="#DejaVuSans-35" x="159.033203"/>
      </g>
     </g>
    </g>
    <g id="text_17">
     <!-- Loss -->
     <g transform="translate(53.822812 233.514062) rotate(-90) scale(0.14 -0.14)">
      <defs>
       <path id="DejaVuSans-4c" d="M 628 4666 
L 1259 4666 
L 1259 531 
L 3531 531 
L 3531 0 
L 628 0 
L 628 4666 
z
" transform="scale(0.015625)"/>
      </defs>
      <use xlink:href="#DejaVuSans-4c"/>
      <use xlink:href="#DejaVuSans-6f" x="53.962891"/>
      <use xlink:href="#DejaVuSans-73" x="115.144531"/>
      <use xlink:href="#DejaVuSans-73" x="167.244141"/>
     </g>
    </g>
   </g>
   <g id="line2d_31">
    <path d="M 115.363636 214.267042 
L 116.210502 85.186268 
L 117.057368 119.661627 
L 118.7511 162.105431 
L 120.444832 186.562362 
L 121.291698 197.434849 
L 122.138564 211.618588 
L 122.98543 217.854072 
L 123.832296 218.788906 
L 124.679162 216.586893 
L 125.526028 226.285252 
L 126.372894 250.450547 
L 127.21976 251.549711 
L 128.066626 245.02658 
L 128.913492 244.395128 
L 129.760358 239.595664 
L 130.607224 246.387172 
L 131.45409 250.504533 
L 132.300956 258.298945 
L 133.147822 255.19346 
L 133.994688 253.056366 
L 134.841554 260.558937 
L 135.68842 261.853812 
L 136.535286 256.535351 
L 137.382152 266.597877 
L 138.229018 267.983515 
L 139.075884 267.48399 
L 139.92275 261.782418 
L 140.769616 267.464358 
L 141.616482 269.277862 
L 142.463348 272.607015 
L 144.15708 270.843775 
L 145.003946 273.520545 
L 145.850812 273.317947 
L 146.697678 273.513244 
L 147.544544 270.34574 
L 148.39141 275.53251 
L 149.238276 285.442531 
L 150.085142 281.894427 
L 150.932008 272.971616 
L 151.778874 272.899166 
L 152.62574 281.019861 
L 153.472606 284.793029 
L 154.319472 284.558878 
L 155.166338 286.657594 
L 156.013204 282.128873 
L 156.86007 287.914555 
L 157.706936 288.117309 
L 158.553802 288.636851 
L 159.400668 284.920356 
L 160.247534 290.267522 
L 161.0944 291.206618 
L 161.941266 290.060411 
L 162.788132 288.645933 
L 163.634998 290.428917 
L 164.481864 292.946781 
L 165.32873 291.77818 
L 166.175596 293.137549 
L 167.869328 296.267422 
L 168.716194 294.505267 
L 169.56306 297.025561 
L 170.409926 291.394804 
L 171.256792 292.704416 
L 172.103658 291.796656 
L 172.950524 292.430126 
L 173.79739 296.038329 
L 174.644256 297.884927 
L 175.491122 295.98068 
L 176.337988 298.146736 
L 177.184854 297.812677 
L 178.03172 297.138236 
L 178.878586 296.016002 
L 179.725452 295.708557 
L 180.572317 299.47158 
L 181.419183 300.730249 
L 182.266049 299.471345 
L 183.112915 296.979446 
L 183.959781 297.054309 
L 184.806647 296.106195 
L 186.500379 301.579624 
L 187.347245 302.645993 
L 188.194111 301.979995 
L 189.040977 300.134033 
L 189.887843 294.948166 
L 190.734709 291.476656 
L 191.581575 292.634092 
L 192.428441 299.59521 
L 193.275307 300.032654 
L 194.122173 294.864132 
L 194.969039 301.38128 
L 195.815905 297.262576 
L 196.662771 299.290735 
L 197.509637 298.810722 
L 198.356503 300.242435 
L 199.203369 300.587361 
L 200.050235 300.057453 
L 201.743967 302.241576 
L 202.590833 308.620273 
L 203.437699 305.238994 
L 204.284565 305.788286 
L 205.131431 304.436238 
L 205.978297 299.94812 
L 206.825163 302.759033 
L 207.672029 305.136572 
L 208.518895 306.181201 
L 209.365761 303.649234 
L 210.212627 306.199373 
L 211.059493 302.996372 
L 211.906359 308.046116 
L 212.753225 306.663403 
L 213.600091 302.633362 
L 214.446957 301.305687 
L 215.293823 302.18417 
L 216.140689 305.876207 
L 216.987555 308.588304 
L 217.834421 305.20407 
L 218.681287 301.165746 
L 219.528153 305.628685 
L 220.375019 304.885484 
L 221.221885 307.672844 
L 222.068751 307.206214 
L 222.915617 308.611228 
L 223.762483 307.325125 
L 224.609349 309.235482 
L 225.456215 309.821505 
L 226.303081 312.541665 
L 227.149947 311.377481 
L 227.996813 309.183003 
L 228.843679 313.064358 
L 229.690545 312.088552 
L 230.537411 312.995817 
L 231.384277 311.512864 
L 232.231143 307.024624 
L 233.078009 309.14097 
L 233.924875 307.536074 
L 234.771741 309.343144 
L 235.618607 308.324039 
L 236.465473 310.640174 
L 237.312339 308.764137 
L 238.159205 312.936077 
L 239.006071 311.833671 
L 239.852937 313.82406 
L 240.699803 312.436277 
L 241.546669 313.066581 
L 242.393535 312.602063 
L 243.240401 311.367836 
L 244.087267 310.407404 
L 245.780999 313.382911 
L 246.627865 314.376553 
L 247.474731 316.12104 
L 248.321597 315.435753 
L 249.168463 317.780079 
L 250.015329 317.845905 
L 250.862195 316.82057 
L 251.709061 316.752822 
L 252.555927 317.219953 
L 253.402793 316.160536 
L 255.096525 317.203496 
L 255.94339 314.705411 
L 256.790256 315.3569 
L 257.637122 316.627703 
L 258.483988 315.75858 
L 259.330854 315.932541 
L 260.17772 314.838449 
L 261.871452 318.18908 
L 262.718318 317.414078 
L 263.565184 313.605515 
L 264.41205 314.769886 
L 265.258916 314.542579 
L 266.105782 316.306253 
L 266.952648 317.055673 
L 267.799514 316.356982 
L 268.64638 315.94025 
L 269.493246 314.195414 
L 270.340112 311.418734 
L 271.186978 317.37616 
L 272.033844 317.690686 
L 272.88071 318.636995 
L 273.727576 320.163113 
L 274.574442 317.526188 
L 275.421308 315.865261 
L 276.268174 317.362279 
L 277.961906 319.575988 
L 278.808772 318.248875 
L 279.655638 319.625826 
L 280.502504 316.860545 
L 281.34937 321.860716 
L 282.196236 320.619454 
L 283.043102 317.666606 
L 283.889968 317.842145 
L 284.736834 318.83928 
L 285.5837 318.036929 
L 286.430566 319.698176 
L 287.277432 315.223892 
L 288.124298 318.790561 
L 288.971164 316.251299 
L 289.81803 319.114087 
L 290.664896 319.448215 
L 291.511762 317.474289 
L 292.358628 316.505211 
L 293.205494 314.828431 
L 294.05236 314.465928 
L 294.899226 316.479258 
L 295.746092 319.546949 
L 296.592958 323.196383 
L 297.439824 323.911594 
L 298.28669 322.291655 
L 299.133556 319.740506 
L 299.980422 321.32514 
L 300.827288 321.848181 
L 301.674154 318.268982 
L 302.52102 320.584531 
L 303.367886 320.207701 
L 304.214752 321.331771 
L 305.061618 320.14688 
L 305.908484 321.551736 
L 306.75535 318.63782 
L 307.602216 317.394891 
L 308.449082 319.944698 
L 309.295948 320.360519 
L 310.98968 322.649368 
L 311.836546 321.655544 
L 312.683412 321.188047 
L 313.530278 322.264106 
L 314.377144 320.191361 
L 315.22401 319.944721 
L 316.070876 320.344812 
L 316.917742 322.879103 
L 317.764608 320.795793 
L 318.611474 320.231594 
L 319.45834 320.052712 
L 320.305206 322.415411 
L 321.152072 319.578901 
L 321.998938 319.174732 
L 322.845804 322.350409 
L 323.69267 323.546059 
L 324.539536 323.383696 
L 325.386402 323.82973 
L 326.233268 326.197581 
L 327.080134 325.357472 
L 327.927 325.116626 
L 328.773866 322.300787 
L 329.620732 323.764152 
L 330.467598 323.92892 
L 331.314463 326.115487 
L 332.161329 324.185145 
L 333.008195 324.434626 
L 333.855061 321.73968 
L 334.701927 321.829614 
L 335.548793 321.694002 
L 336.395659 323.985679 
L 337.242525 323.629842 
L 338.089391 320.205928 
L 338.936257 321.25413 
L 339.783123 321.545794 
L 340.629989 321.09276 
L 341.476855 322.604555 
L 342.323721 320.126695 
L 343.170587 323.419307 
L 344.017453 325.731102 
L 344.864319 326.467415 
L 345.711185 325.693747 
L 346.558051 320.358297 
L 347.404917 320.899106 
L 348.251783 318.765015 
L 349.098649 319.500971 
L 349.945515 320.594844 
L 350.792381 322.677612 
L 351.639247 321.197985 
L 352.486113 323.047239 
L 353.332979 323.705748 
L 354.179845 323.440456 
L 355.026711 321.432907 
L 356.720443 323.858171 
L 357.567309 321.944599 
L 358.414175 322.484312 
L 359.261041 321.477563 
L 360.107907 322.699628 
L 360.954773 322.094837 
L 361.801639 321.634534 
L 362.648505 325.231683 
L 363.495371 326.455859 
L 364.342237 327.974398 
L 365.189103 326.818061 
L 366.035969 324.900344 
L 366.882835 326.119615 
L 367.729701 324.198952 
L 368.576567 326.819521 
L 369.423433 323.966557 
L 370.270299 325.459688 
L 371.117165 326.105782 
L 371.964031 323.538793 
L 372.810897 326.461636 
L 374.504629 329.113399 
L 375.351495 327.761531 
L 376.198361 326.720846 
L 377.045227 326.435992 
L 377.892093 325.064124 
L 378.738959 328.354344 
L 379.585825 323.308896 
L 380.432691 323.318993 
L 381.279557 322.806917 
L 382.126423 324.257294 
L 382.973289 322.388256 
L 383.820155 324.209541 
L 384.667021 326.825206 
L 385.513887 326.957786 
L 386.360753 326.871277 
L 387.207619 329.363744 
L 388.054485 326.925838 
L 389.748217 328.391408 
L 390.595083 329.217518 
L 391.441949 327.415087 
L 392.288815 325.283808 
L 393.982547 326.666466 
L 394.829413 326.660598 
L 395.676279 326.210957 
L 396.523145 326.123409 
L 397.370011 327.135965 
L 398.216877 326.01202 
L 399.063743 327.07513 
L 399.910609 327.434163 
L 400.757475 328.252292 
L 401.604341 330.206906 
L 402.451207 328.853846 
L 403.298073 328.846829 
L 404.144939 326.905774 
L 404.991805 326.657299 
L 405.838671 326.242397 
L 406.685537 325.972243 
L 407.532402 327.708186 
L 408.379268 327.964774 
L 409.226134 327.890341 
L 410.073 328.591283 
L 410.919866 329.483066 
L 411.766732 327.778568 
L 412.613598 329.061549 
L 413.460464 329.24738 
L 414.30733 331.090127 
L 415.154196 330.224586 
L 416.001062 327.750494 
L 416.847928 324.069409 
L 417.694794 322.926839 
L 418.54166 329.967673 
L 420.235392 330.494496 
L 421.082258 330.073034 
L 421.929124 328.763412 
L 422.77599 327.854278 
L 423.622856 328.151468 
L 424.469722 329.594538 
L 425.316588 329.849786 
L 426.163454 329.401304 
L 427.01032 329.138172 
L 427.857186 329.778373 
L 428.704052 329.111998 
L 429.550918 332.416792 
L 430.397784 331.644584 
L 431.24465 330.481925 
L 432.091516 328.712293 
L 432.938382 324.940291 
L 433.785248 326.302723 
L 434.632114 328.206707 
L 435.47898 328.737183 
L 436.325846 329.007696 
L 437.172712 328.697741 
L 438.019578 328.011831 
L 438.866444 331.42852 
L 439.71331 332.050581 
L 440.560176 328.763024 
L 441.407042 328.17039 
L 442.253908 329.78921 
L 443.100774 328.924155 
L 443.94764 328.684004 
L 445.641372 330.053398 
L 446.488238 330.129572 
L 447.335104 330.621246 
L 448.18197 330.112749 
L 449.028836 331.152046 
L 449.875702 329.936546 
L 450.722568 331.806358 
L 451.569434 330.007191 
L 452.4163 331.172629 
L 453.263166 329.136936 
L 454.110032 332.72278 
L 454.956898 333.82945 
L 455.803764 334.383446 
L 456.65063 333.918362 
L 457.497496 331.926178 
L 458.344362 331.88984 
L 459.191228 331.0057 
L 460.038094 331.890422 
L 460.88496 331.86612 
L 461.731826 330.756264 
L 462.578692 330.276903 
L 463.425558 329.223373 
L 464.272424 331.001839 
L 465.11929 328.097957 
L 465.966156 329.409772 
L 466.813022 330.144088 
L 467.659888 330.344969 
L 469.35362 330.229658 
L 470.200486 330.312496 
L 471.047352 331.274548 
L 471.894218 329.74796 
L 472.741084 328.766265 
L 473.58795 326.964053 
L 474.434816 332.372817 
L 475.281682 331.280101 
L 476.128548 330.003637 
L 476.975414 331.449624 
L 477.82228 331.643684 
L 478.669146 332.361305 
L 479.516012 333.530832 
L 480.362878 333.851951 
L 481.209744 331.359089 
L 482.05661 331.696021 
L 482.903475 331.068949 
L 483.750341 329.037856 
L 484.597207 331.312778 
L 486.290939 329.448728 
L 487.137805 328.458656 
L 487.984671 330.963732 
L 488.831537 330.689816 
L 489.678403 331.801162 
L 490.525269 330.296374 
L 491.372135 330.109459 
L 493.065867 330.568391 
L 493.912733 332.784094 
L 494.759599 334.164319 
L 495.606465 335.109884 
L 496.453331 333.866508 
L 497.300197 332.296 
L 498.147063 331.426944 
L 498.993929 332.239367 
L 499.840795 332.648017 
L 500.687661 331.987934 
L 501.534527 333.043796 
L 502.381393 332.722557 
L 503.228259 333.580556 
L 504.075125 335.464151 
L 504.921991 332.927363 
L 505.768857 330.781163 
L 506.615723 331.536783 
L 507.462589 331.249944 
L 508.309455 333.905956 
L 510.003187 333.365815 
L 510.850053 331.899512 
L 511.696919 334.278076 
L 512.543785 335.283439 
L 513.390651 335.522451 
L 514.237517 334.985849 
L 515.084383 333.586382 
L 515.931249 335.324668 
L 516.778115 332.197097 
L 517.624981 331.193833 
L 518.471847 331.052719 
L 519.318713 330.47691 
L 520.165579 331.615134 
L 521.012445 333.32154 
L 521.859311 332.623634 
L 522.706177 332.996425 
L 523.553043 331.466163 
L 524.399909 332.961546 
L 525.246775 332.793589 
L 526.093641 333.374953 
L 526.940507 333.816404 
L 527.787373 333.958348 
L 528.634239 335.654777 
L 529.481105 336.205415 
L 530.327971 332.799571 
L 531.174837 332.480317 
L 532.021703 333.122141 
L 532.868569 334.465851 
L 533.715435 335.241521 
L 534.562301 336.903739 
L 535.409167 334.991845 
L 536.256033 336.83234 
L 537.102899 337.35914 
L 537.949765 335.016659 
L 538.796631 334.754355 
L 539.643497 335.540134 
L 540.490363 335.849146 
L 541.337229 335.502618 
L 542.184095 335.328689 
L 543.030961 333.00725 
L 543.877827 334.54662 
L 544.724693 333.589615 
L 545.571559 335.574441 
L 546.418425 336.236255 
L 547.265291 336.686513 
L 548.112157 336.572521 
L 548.959023 336.877861 
L 549.805889 335.868475 
L 550.652755 334.347333 
L 551.499621 334.909393 
L 552.346487 334.609 
L 553.193353 336.285989 
L 554.040219 334.206631 
L 554.887085 334.557845 
L 555.733951 333.503512 
L 556.580817 333.14249 
L 557.427683 333.335154 
L 558.274548 334.040159 
L 559.121414 334.056194 
L 559.96828 335.040871 
L 560.815146 335.01958 
L 561.662012 335.407916 
L 563.355744 336.008694 
L 564.20261 334.625454 
L 565.049476 336.191695 
L 565.896342 338.313299 
L 567.590074 335.886959 
L 568.43694 335.259748 
L 569.283806 333.989745 
L 570.130672 335.937388 
L 570.977538 334.56537 
L 571.824404 333.707645 
L 572.67127 334.392906 
L 573.518136 336.76512 
L 574.365002 335.807543 
L 575.211868 336.534577 
L 576.058734 335.462843 
L 576.9056 334.985346 
L 577.752466 335.400723 
L 578.599332 335.19632 
L 579.446198 335.157048 
L 580.293064 334.573651 
L 581.13993 335.954465 
L 581.986796 336.805428 
L 582.833662 335.158182 
L 583.680528 337.253883 
L 584.527394 337.505976 
L 585.37426 336.233261 
L 586.221126 338.045661 
L 587.067992 337.848126 
L 587.914858 335.689527 
L 588.761724 334.809795 
L 589.60859 333.769578 
L 590.455456 334.431371 
L 591.302322 335.957014 
L 592.149188 334.805883 
L 592.996054 334.342454 
L 593.84292 334.126308 
L 594.689786 334.248033 
L 595.536652 334.6959 
L 596.383518 336.019049 
L 597.230384 334.763614 
L 598.07725 334.304729 
L 598.924116 334.682737 
L 599.770982 334.745107 
L 600.617848 335.918931 
L 602.31158 335.775371 
L 603.158446 335.043575 
L 604.005312 336.019135 
L 604.852178 337.991789 
L 605.699044 337.67893 
L 606.54591 334.692402 
L 607.392776 337.115879 
L 608.239642 336.98235 
L 609.086508 337.009296 
L 609.933374 337.703654 
L 611.627106 336.893672 
L 612.473972 336.465357 
L 613.320838 336.532884 
L 614.167704 336.012479 
L 615.01457 335.71882 
L 615.861436 333.694427 
L 617.555168 334.172417 
L 618.402034 337.038713 
L 619.2489 335.098156 
L 620.942632 334.129015 
L 621.789498 333.105894 
L 622.636364 332.617266 
L 622.636364 332.617266 
" clip-path="url(#pffceddc8ab)" style="fill: none; stroke: #ff0000; stroke-width: 2; stroke-linecap: square"/>
   </g>
   <g id="line2d_32">
    <path d="M 115.363636 213.300153 
L 116.210502 82.08 
L 117.057368 118.041198 
L 117.904234 138.230604 
L 118.7511 161.713994 
L 122.138564 211.366729 
L 122.98543 217.518741 
L 123.832296 217.973716 
L 124.679162 215.964962 
L 125.526028 226.295422 
L 126.372894 250.998619 
L 127.21976 252.167578 
L 128.066626 245.586832 
L 128.913492 244.864761 
L 129.760358 240.350897 
L 130.607224 247.609748 
L 131.45409 251.852119 
L 132.300956 259.693346 
L 133.147822 256.793625 
L 133.994688 254.744475 
L 134.841554 262.301205 
L 135.68842 263.58404 
L 136.535286 258.17984 
L 137.382152 268.042652 
L 138.229018 270.054668 
L 139.075884 269.63109 
L 139.92275 264.171447 
L 140.769616 269.707593 
L 141.616482 271.738185 
L 142.463348 275.348379 
L 143.310214 273.873191 
L 144.15708 272.803606 
L 145.003946 275.142968 
L 145.850812 275.176469 
L 146.697678 275.331047 
L 147.544544 272.296556 
L 148.39141 277.714216 
L 149.238276 288.152862 
L 150.085142 284.400825 
L 150.932008 275.207924 
L 151.778874 274.748061 
L 152.62574 282.805712 
L 153.472606 286.870594 
L 154.319472 286.89413 
L 155.166338 289.336146 
L 156.013204 284.568718 
L 156.86007 290.257335 
L 157.706936 290.430164 
L 158.553802 290.787745 
L 159.400668 287.243726 
L 160.247534 292.498987 
L 161.0944 293.292371 
L 161.941266 292.218807 
L 162.788132 290.925541 
L 163.634998 292.829804 
L 164.481864 295.176802 
L 165.32873 293.916521 
L 167.022462 297.147071 
L 167.869328 298.908293 
L 168.716194 297.407531 
L 169.56306 299.891161 
L 170.409926 294.392663 
L 171.256792 295.690669 
L 172.103658 294.783445 
L 172.950524 295.516502 
L 173.79739 299.067679 
L 174.644256 300.634676 
L 175.491122 298.258323 
L 176.337988 300.752358 
L 177.184854 300.358409 
L 178.03172 299.701967 
L 178.878586 298.647052 
L 179.725452 298.588588 
L 180.572317 302.320229 
L 181.419183 303.299002 
L 182.266049 302.366699 
L 183.112915 299.908365 
L 183.959781 299.554453 
L 184.806647 298.063577 
L 186.500379 303.763061 
L 187.347245 304.866011 
L 188.194111 304.45027 
L 189.040977 302.678002 
L 189.887843 296.935953 
L 190.734709 293.44042 
L 191.581575 294.851754 
L 192.428441 301.495025 
L 193.275307 302.118801 
L 194.122173 296.793918 
L 194.969039 303.618571 
L 195.815905 299.32245 
L 196.662771 301.591161 
L 197.509637 300.778558 
L 198.356503 302.630556 
L 199.203369 303.050937 
L 200.050235 302.440517 
L 200.897101 303.126614 
L 201.743967 304.133916 
L 202.590833 310.498161 
L 203.437699 307.56439 
L 204.284565 308.511737 
L 205.131431 307.175288 
L 205.978297 302.749624 
L 206.825163 305.271462 
L 207.672029 307.44021 
L 208.518895 308.128649 
L 209.365761 305.740508 
L 210.212627 308.183609 
L 211.059493 305.213116 
L 211.906359 310.245904 
L 212.753225 308.948542 
L 213.600091 304.203984 
L 214.446957 302.409439 
L 215.293823 303.16318 
L 216.140689 307.114299 
L 216.987555 309.619921 
L 217.834421 306.416272 
L 218.681287 302.144417 
L 219.528153 307.291135 
L 220.375019 306.602794 
L 221.221885 309.634133 
L 222.068751 309.369964 
L 222.915617 310.836349 
L 223.762483 309.588942 
L 224.609349 311.530811 
L 225.456215 311.833875 
L 226.303081 314.320099 
L 227.149947 313.291996 
L 227.996813 311.097462 
L 228.843679 315.067094 
L 229.690545 314.249335 
L 230.537411 315.367833 
L 231.384277 313.619474 
L 232.231143 309.101777 
L 233.078009 311.017754 
L 233.924875 309.977784 
L 234.771741 311.740841 
L 235.618607 310.68085 
L 236.465473 312.888492 
L 237.312339 310.919122 
L 238.159205 315.133511 
L 239.006071 314.268384 
L 239.852937 316.019428 
L 240.699803 314.594454 
L 241.546669 315.409239 
L 242.393535 315.040062 
L 243.240401 313.689071 
L 244.087267 312.864311 
L 244.934133 314.627514 
L 245.780999 315.967944 
L 246.627865 316.780644 
L 247.474731 318.422097 
L 248.321597 317.854231 
L 249.168463 320.093906 
L 250.015329 320.458538 
L 250.862195 319.083436 
L 251.709061 318.792071 
L 252.555927 319.409393 
L 253.402793 318.35128 
L 255.096525 319.477038 
L 255.94339 317.054665 
L 256.790256 317.768438 
L 257.637122 318.969522 
L 258.483988 317.999803 
L 259.330854 318.297578 
L 260.17772 317.396915 
L 261.871452 320.733084 
L 262.718318 319.60055 
L 263.565184 316.180837 
L 264.41205 316.958364 
L 265.258916 317.008867 
L 266.105782 318.588351 
L 266.952648 319.737709 
L 267.799514 318.746488 
L 268.64638 318.361204 
L 269.493246 316.503295 
L 270.340112 313.722482 
L 271.186978 319.746225 
L 272.033844 320.250281 
L 272.88071 321.210975 
L 273.727576 322.878571 
L 274.574442 320.27753 
L 275.421308 318.529633 
L 276.268174 319.890594 
L 277.11504 320.712489 
L 277.961906 321.87702 
L 278.808772 320.64656 
L 279.655638 321.952375 
L 280.502504 319.210584 
L 281.34937 324.133158 
L 282.196236 322.900441 
L 283.043102 319.984618 
L 283.889968 320.283629 
L 284.736834 321.259652 
L 285.5837 320.62333 
L 286.430566 322.298317 
L 287.277432 317.677595 
L 288.124298 321.083295 
L 288.971164 318.59181 
L 289.81803 321.578843 
L 290.664896 321.863544 
L 291.511762 319.93164 
L 292.358628 318.974841 
L 293.205494 317.096843 
L 294.05236 316.751617 
L 294.899226 318.723129 
L 295.746092 321.937556 
L 296.592958 325.890671 
L 297.439824 326.569902 
L 298.28669 324.773334 
L 299.133556 322.168459 
L 299.980422 323.871269 
L 300.827288 324.585875 
L 301.674154 320.849666 
L 302.52102 323.299012 
L 303.367886 323.044508 
L 304.214752 323.894011 
L 305.061618 322.701974 
L 305.908484 323.59304 
L 306.75535 320.811909 
L 307.602216 319.485292 
L 308.449082 322.153966 
L 309.295948 322.613258 
L 310.142814 323.698292 
L 310.98968 325.181715 
L 311.836546 323.970216 
L 312.683412 323.332097 
L 313.530278 324.552473 
L 314.377144 322.416386 
L 315.22401 322.099972 
L 316.070876 322.243062 
L 316.917742 325.152667 
L 317.764608 323.321858 
L 318.611474 322.727605 
L 319.45834 322.559949 
L 320.305206 324.630725 
L 321.152072 321.372645 
L 321.998938 321.025954 
L 322.845804 324.231685 
L 323.69267 325.450327 
L 324.539536 325.178816 
L 325.386402 325.704827 
L 326.233268 327.959816 
L 327.080134 326.951604 
L 327.927 326.479651 
L 328.773866 323.996113 
L 329.620732 325.829756 
L 330.467598 325.910767 
L 331.314463 327.950797 
L 332.161329 325.804175 
L 333.008195 326.41431 
L 333.855061 323.511205 
L 334.701927 323.370683 
L 335.548793 323.469873 
L 336.395659 325.686468 
L 337.242525 325.250296 
L 338.089391 321.674867 
L 338.936257 322.716784 
L 339.783123 323.297055 
L 340.629989 322.819606 
L 341.476855 324.246556 
L 342.323721 321.538127 
L 343.170587 324.963387 
L 344.017453 327.312971 
L 344.864319 328.101927 
L 345.711185 327.566246 
L 346.558051 322.240178 
L 347.404917 322.932719 
L 348.251783 320.588824 
L 349.098649 321.430401 
L 349.945515 322.746698 
L 350.792381 325.020743 
L 351.639247 323.66659 
L 352.486113 325.5121 
L 353.332979 326.148582 
L 354.179845 325.993702 
L 355.026711 324.251302 
L 355.873577 325.038 
L 356.720443 326.156546 
L 357.567309 324.443023 
L 358.414175 324.359314 
L 359.261041 323.044423 
L 360.107907 324.602968 
L 360.954773 324.191002 
L 361.801639 323.468592 
L 362.648505 327.012767 
L 363.495371 328.497316 
L 364.342237 329.740494 
L 365.189103 328.717768 
L 366.035969 327.01337 
L 366.882835 328.376362 
L 367.729701 326.136066 
L 368.576567 328.477575 
L 369.423433 325.760359 
L 370.270299 327.234246 
L 371.117165 327.832753 
L 371.964031 325.202248 
L 372.810897 328.331848 
L 374.504629 331.172519 
L 376.198361 328.763242 
L 377.045227 328.515616 
L 377.892093 327.040819 
L 378.738959 330.537908 
L 379.585825 325.523586 
L 380.432691 325.254058 
L 381.279557 324.465277 
L 382.126423 325.968353 
L 382.973289 324.213857 
L 383.820155 326.012608 
L 384.667021 328.646662 
L 385.513887 329.012908 
L 386.360753 328.944792 
L 387.207619 331.571521 
L 388.054485 328.920845 
L 388.901351 329.524486 
L 389.748217 330.535045 
L 390.595083 331.007015 
L 391.441949 329.31873 
L 392.288815 327.276973 
L 393.135681 328.116754 
L 393.982547 328.776114 
L 394.829413 328.84862 
L 395.676279 328.418976 
L 396.523145 328.309439 
L 397.370011 329.380108 
L 398.216877 328.468303 
L 399.063743 329.443389 
L 399.910609 329.789226 
L 400.757475 330.530678 
L 401.604341 332.24658 
L 402.451207 330.90194 
L 403.298073 330.775981 
L 404.144939 328.806852 
L 404.991805 328.726926 
L 406.685537 327.902514 
L 407.532402 329.912302 
L 408.379268 330.017789 
L 409.226134 329.806657 
L 410.073 330.065834 
L 410.919866 330.822534 
L 411.766732 329.063859 
L 412.613598 330.554283 
L 413.460464 330.930397 
L 414.30733 332.730675 
L 415.154196 331.958584 
L 416.001062 329.768139 
L 416.847928 325.979629 
L 417.694794 324.9442 
L 418.54166 331.888771 
L 420.235392 332.539349 
L 421.082258 332.163323 
L 421.929124 330.82218 
L 422.77599 329.884852 
L 423.622856 329.976207 
L 424.469722 331.827736 
L 425.316588 332.076306 
L 426.163454 331.646195 
L 427.01032 331.360876 
L 427.857186 331.793079 
L 428.704052 331.322697 
L 429.550918 334.474074 
L 431.24465 331.931769 
L 432.091516 330.095556 
L 432.938382 326.500397 
L 434.632114 330.025936 
L 435.47898 330.463142 
L 436.325846 330.705737 
L 437.172712 330.012412 
L 438.019578 329.635213 
L 438.866444 332.937807 
L 439.71331 333.559668 
L 440.560176 330.255771 
L 441.407042 329.758069 
L 442.253908 331.296585 
L 443.100774 330.330012 
L 443.94764 330.454596 
L 444.794506 331.007278 
L 446.488238 331.740297 
L 447.335104 332.556787 
L 448.18197 332.207014 
L 449.028836 332.863003 
L 449.875702 331.681724 
L 450.722568 333.422704 
L 451.569434 331.220477 
L 452.4163 332.401961 
L 453.263166 330.259622 
L 454.110032 333.801744 
L 454.956898 334.764672 
L 455.803764 335.449555 
L 456.65063 334.76303 
L 457.497496 332.93801 
L 458.344362 332.9456 
L 459.191228 332.367119 
L 460.038094 333.139625 
L 460.88496 333.325748 
L 461.731826 332.094705 
L 462.578692 331.735593 
L 463.425558 330.535318 
L 464.272424 332.489267 
L 465.11929 329.575444 
L 465.966156 330.674861 
L 466.813022 331.494033 
L 467.659888 331.735314 
L 468.506754 331.471272 
L 469.35362 331.373937 
L 470.200486 331.57961 
L 471.047352 332.558646 
L 471.894218 330.878989 
L 472.741084 329.560014 
L 473.58795 327.718859 
L 474.434816 333.381333 
L 475.281682 332.524315 
L 476.128548 331.435524 
L 476.975414 332.815032 
L 477.82228 332.969494 
L 478.669146 333.830146 
L 479.516012 334.859836 
L 480.362878 334.698933 
L 481.209744 332.318813 
L 482.05661 332.790732 
L 482.903475 332.323908 
L 483.750341 330.331825 
L 484.597207 332.599698 
L 485.444073 331.643755 
L 486.290939 330.406718 
L 487.137805 329.509747 
L 487.984671 332.001067 
L 488.831537 331.954218 
L 489.678403 333.246075 
L 490.525269 331.987194 
L 491.372135 331.778199 
L 492.219001 331.9101 
L 493.065867 332.212253 
L 493.912733 334.476717 
L 494.759599 335.775074 
L 495.606465 336.591325 
L 496.453331 335.209379 
L 497.300197 333.198133 
L 498.147063 332.451393 
L 498.993929 333.440224 
L 499.840795 333.849857 
L 500.687661 333.224967 
L 501.534527 334.359199 
L 502.381393 333.887464 
L 503.228259 334.757596 
L 504.075125 336.747124 
L 504.921991 334.429358 
L 505.768857 332.539824 
L 506.615723 333.172694 
L 507.462589 332.703965 
L 508.309455 335.392761 
L 510.003187 334.892372 
L 510.850053 333.358381 
L 511.696919 335.732957 
L 512.543785 336.623175 
L 513.390651 336.913252 
L 514.237517 336.221864 
L 515.084383 334.957608 
L 515.931249 336.751082 
L 516.778115 333.51128 
L 517.624981 332.225282 
L 518.471847 332.126777 
L 519.318713 331.394103 
L 520.165579 332.727794 
L 521.012445 334.492802 
L 521.859311 333.874089 
L 522.706177 334.14153 
L 523.553043 332.484977 
L 524.399909 334.235811 
L 525.246775 334.214168 
L 526.940507 335.15639 
L 527.787373 335.357835 
L 528.634239 337.032722 
L 529.481105 337.758538 
L 530.327971 334.325069 
L 531.174837 333.791491 
L 532.021703 334.375522 
L 532.868569 335.782876 
L 533.715435 336.251866 
L 534.562301 337.995197 
L 535.409167 336.153346 
L 536.256033 338.108251 
L 537.102899 338.868982 
L 537.949765 335.901952 
L 538.796631 335.385068 
L 539.643497 336.324027 
L 540.490363 336.8332 
L 542.184095 336.298924 
L 543.030961 334.046686 
L 543.877827 335.74555 
L 544.724693 335.050953 
L 545.571559 337.311426 
L 546.418425 338.03568 
L 547.265291 338.45864 
L 548.112157 338.21691 
L 548.959023 338.269079 
L 549.805889 337.304801 
L 550.652755 335.658659 
L 551.499621 336.189953 
L 552.346487 335.992817 
L 553.193353 337.68382 
L 554.040219 335.697633 
L 554.887085 336.091994 
L 555.733951 334.773614 
L 556.580817 334.574495 
L 559.121414 335.295672 
L 559.96828 336.32536 
L 562.508878 337.102563 
L 563.355744 337.648882 
L 564.20261 336.104931 
L 565.049476 337.720799 
L 565.896342 339.581635 
L 567.590074 337.350501 
L 568.43694 336.724853 
L 569.283806 335.442586 
L 570.130672 337.452872 
L 570.977538 336.112743 
L 571.824404 335.228606 
L 572.67127 335.882612 
L 573.518136 338.25811 
L 574.365002 337.425068 
L 575.211868 338.054339 
L 576.058734 337.00813 
L 576.9056 336.556356 
L 577.752466 337.199588 
L 579.446198 336.691011 
L 580.293064 335.948496 
L 581.986796 337.788998 
L 582.833662 336.017981 
L 583.680528 338.17809 
L 584.527394 338.45139 
L 585.37426 337.120033 
L 586.221126 339.210221 
L 587.067992 339.097055 
L 587.914858 336.854913 
L 589.60859 334.90757 
L 590.455456 335.726481 
L 591.302322 337.28709 
L 592.149188 336.1977 
L 592.996054 335.476159 
L 593.84292 335.179052 
L 594.689786 335.440678 
L 595.536652 335.932192 
L 596.383518 337.368916 
L 597.230384 336.298057 
L 598.07725 335.750733 
L 598.924116 335.953555 
L 599.770982 335.972727 
L 600.617848 337.282784 
L 601.464714 337.355148 
L 602.31158 337.094244 
L 603.158446 336.243986 
L 604.005312 337.080866 
L 604.852178 339.00001 
L 605.699044 338.609415 
L 606.54591 335.898888 
L 607.392776 338.180719 
L 609.086508 338.244692 
L 609.933374 338.944584 
L 610.78024 339.018386 
L 611.627106 338.233892 
L 612.473972 337.77204 
L 613.320838 337.718444 
L 614.167704 337.062899 
L 615.01457 336.789852 
L 615.861436 334.715353 
L 617.555168 335.265942 
L 618.402034 338.390467 
L 619.2489 336.109915 
L 620.095766 335.729714 
L 620.942632 335.149327 
L 621.789498 334.184098 
L 622.636364 333.72201 
L 622.636364 333.72201 
" clip-path="url(#pffceddc8ab)" style="fill: none; stroke-dasharray: 7.4,3.2; stroke-dashoffset: 0; stroke: #ffa500; stroke-width: 2"/>
   </g>
   <g id="patch_3">
    <path d="M 90 384.48 
L 90 51.84 
" style="fill: none; stroke: #000000; stroke-width: 0.8; stroke-linejoin: miter; stroke-linecap: square"/>
   </g>
   <g id="patch_4">
    <path d="M 648 384.48 
L 648 51.84 
" style="fill: none; stroke: #000000; stroke-width: 0.8; stroke-linejoin: miter; stroke-linecap: square"/>
   </g>
   <g id="patch_5">
    <path d="M 90 384.48 
L 648 384.48 
" style="fill: none; stroke: #000000; stroke-width: 0.8; stroke-linejoin: miter; stroke-linecap: square"/>
   </g>
   <g id="patch_6">
    <path d="M 90 51.84 
L 648 51.84 
" style="fill: none; stroke: #000000; stroke-width: 0.8; stroke-linejoin: miter; stroke-linecap: square"/>
   </g>
   <g id="text_18">
    <!-- Training and Testing Loss (Learning Rate: 0.001) -->
    <g transform="translate(176.54875 45.84) scale(0.16 -0.16)">
     <defs>
      <path id="DejaVuSans-54" d="M -19 4666 
L 3928 4666 
L 3928 4134 
L 2272 4134 
L 2272 0 
L 1638 0 
L 1638 4134 
L -19 4134 
L -19 4666 
z
" transform="scale(0.015625)"/>
      <path id="DejaVuSans-67" d="M 2906 1791 
Q 2906 2416 2648 2759 
Q 2391 3103 1925 3103 
Q 1463 3103 1205 2759 
Q 947 2416 947 1791 
Q 947 1169 1205 825 
Q 1463 481 1925 481 
Q 2391 481 2648 825 
Q 2906 1169 2906 1791 
z
M 3481 434 
Q 3481 -459 3084 -895 
Q 2688 -1331 1869 -1331 
Q 1566 -1331 1297 -1286 
Q 1028 -1241 775 -1147 
L 775 -588 
Q 1028 -725 1275 -790 
Q 1522 -856 1778 -856 
Q 2344 -856 2625 -561 
Q 2906 -266 2906 331 
L 2906 616 
Q 2728 306 2450 153 
Q 2172 0 1784 0 
Q 1141 0 747 490 
Q 353 981 353 1791 
Q 353 2603 747 3093 
Q 1141 3584 1784 3584 
Q 2172 3584 2450 3431 
Q 2728 3278 2906 2969 
L 2906 3500 
L 3481 3500 
L 3481 434 
z
" transform="scale(0.015625)"/>
      <path id="DejaVuSans-20" transform="scale(0.015625)"/>
      <path id="DejaVuSans-64" d="M 2906 2969 
L 2906 4863 
L 3481 4863 
L 3481 0 
L 2906 0 
L 2906 525 
Q 2725 213 2448 61 
Q 2172 -91 1784 -91 
Q 1150 -91 751 415 
Q 353 922 353 1747 
Q 353 2572 751 3078 
Q 1150 3584 1784 3584 
Q 2172 3584 2448 3432 
Q 2725 3281 2906 2969 
z
M 947 1747 
Q 947 1113 1208 752 
Q 1469 391 1925 391 
Q 2381 391 2643 752 
Q 2906 1113 2906 1747 
Q 2906 2381 2643 2742 
Q 2381 3103 1925 3103 
Q 1469 3103 1208 2742 
Q 947 2381 947 1747 
z
" transform="scale(0.015625)"/>
      <path id="DejaVuSans-28" d="M 1984 4856 
Q 1566 4138 1362 3434 
Q 1159 2731 1159 2009 
Q 1159 1288 1364 580 
Q 1569 -128 1984 -844 
L 1484 -844 
Q 1016 -109 783 600 
Q 550 1309 550 2009 
Q 550 2706 781 3412 
Q 1013 4119 1484 4856 
L 1984 4856 
z
" transform="scale(0.015625)"/>
      <path id="DejaVuSans-52" d="M 2841 2188 
Q 3044 2119 3236 1894 
Q 3428 1669 3622 1275 
L 4263 0 
L 3584 0 
L 2988 1197 
Q 2756 1666 2539 1819 
Q 2322 1972 1947 1972 
L 1259 1972 
L 1259 0 
L 628 0 
L 628 4666 
L 2053 4666 
Q 2853 4666 3247 4331 
Q 3641 3997 3641 3322 
Q 3641 2881 3436 2590 
Q 3231 2300 2841 2188 
z
M 1259 4147 
L 1259 2491 
L 2053 2491 
Q 2509 2491 2742 2702 
Q 2975 2913 2975 3322 
Q 2975 3731 2742 3939 
Q 2509 4147 2053 4147 
L 1259 4147 
z
" transform="scale(0.015625)"/>
      <path id="DejaVuSans-3a" d="M 750 794 
L 1409 794 
L 1409 0 
L 750 0 
L 750 794 
z
M 750 3309 
L 1409 3309 
L 1409 2516 
L 750 2516 
L 750 3309 
z
" transform="scale(0.015625)"/>
      <path id="DejaVuSans-29" d="M 513 4856 
L 1013 4856 
Q 1481 4119 1714 3412 
Q 1947 2706 1947 2009 
Q 1947 1309 1714 600 
Q 1481 -109 1013 -844 
L 513 -844 
Q 928 -128 1133 580 
Q 1338 1288 1338 2009 
Q 1338 2731 1133 3434 
Q 928 4138 513 4856 
z
" transform="scale(0.015625)"/>
     </defs>
     <use xlink:href="#DejaVuSans-54"/>
     <use xlink:href="#DejaVuSans-72" x="46.333984"/>
     <use xlink:href="#DejaVuSans-61" x="87.447266"/>
     <use xlink:href="#DejaVuSans-69" x="148.726562"/>
     <use xlink:href="#DejaVuSans-6e" x="176.509766"/>
     <use xlink:href="#DejaVuSans-69" x="239.888672"/>
     <use xlink:href="#DejaVuSans-6e" x="267.671875"/>
     <use xlink:href="#DejaVuSans-67" x="331.050781"/>
     <use xlink:href="#DejaVuSans-20" x="394.527344"/>
     <use xlink:href="#DejaVuSans-61" x="426.314453"/>
     <use xlink:href="#DejaVuSans-6e" x="487.59375"/>
     <use xlink:href="#DejaVuSans-64" x="550.972656"/>
     <use xlink:href="#DejaVuSans-20" x="614.449219"/>
     <use xlink:href="#DejaVuSans-54" x="646.236328"/>
     <use xlink:href="#DejaVuSans-65" x="690.320312"/>
     <use xlink:href="#DejaVuSans-73" x="751.84375"/>
     <use xlink:href="#DejaVuSans-74" x="803.943359"/>
     <use xlink:href="#DejaVuSans-69" x="843.152344"/>
     <use xlink:href="#DejaVuSans-6e" x="870.935547"/>
     <use xlink:href="#DejaVuSans-67" x="934.314453"/>
     <use xlink:href="#DejaVuSans-20" x="997.791016"/>
     <use xlink:href="#DejaVuSans-4c" x="1029.578125"/>
     <use xlink:href="#DejaVuSans-6f" x="1083.541016"/>
     <use xlink:href="#DejaVuSans-73" x="1144.722656"/>
     <use xlink:href="#DejaVuSans-73" x="1196.822266"/>
     <use xlink:href="#DejaVuSans-20" x="1248.921875"/>
     <use xlink:href="#DejaVuSans-28" x="1280.708984"/>
     <use xlink:href="#DejaVuSans-4c" x="1319.722656"/>
     <use xlink:href="#DejaVuSans-65" x="1373.685547"/>
     <use xlink:href="#DejaVuSans-61" x="1435.208984"/>
     <use xlink:href="#DejaVuSans-72" x="1496.488281"/>
     <use xlink:href="#DejaVuSans-6e" x="1535.851562"/>
     <use xlink:href="#DejaVuSans-69" x="1599.230469"/>
     <use xlink:href="#DejaVuSans-6e" x="1627.013672"/>
     <use xlink:href="#DejaVuSans-67" x="1690.392578"/>
     <use xlink:href="#DejaVuSans-20" x="1753.869141"/>
     <use xlink:href="#DejaVuSans-52" x="1785.65625"/>
     <use xlink:href="#DejaVuSans-61" x="1852.888672"/>
     <use xlink:href="#DejaVuSans-74" x="1914.167969"/>
     <use xlink:href="#DejaVuSans-65" x="1953.376953"/>
     <use xlink:href="#DejaVuSans-3a" x="2014.900391"/>
     <use xlink:href="#DejaVuSans-20" x="2048.591797"/>
     <use xlink:href="#DejaVuSans-30" x="2080.378906"/>
     <use xlink:href="#DejaVuSans-2e" x="2144.001953"/>
     <use xlink:href="#DejaVuSans-30" x="2175.789062"/>
     <use xlink:href="#DejaVuSans-30" x="2239.412109"/>
     <use xlink:href="#DejaVuSans-31" x="2303.035156"/>
     <use xlink:href="#DejaVuSans-29" x="2366.658203"/>
    </g>
   </g>
   <g id="legend_1">
    <g id="patch_7">
     <path d="M 544.435938 89.19625 
L 641 89.19625 
Q 643 89.19625 643 87.19625 
L 643 58.84 
Q 643 56.84 641 56.84 
L 544.435938 56.84 
Q 542.435938 56.84 542.435938 58.84 
L 542.435938 87.19625 
Q 542.435938 89.19625 544.435938 89.19625 
z
" style="fill: #ffffff; opacity: 0.8; stroke: #cccccc; stroke-linejoin: miter"/>
    </g>
    <g id="line2d_33">
     <path d="M 546.435938 64.938437 
L 556.435938 64.938437 
L 566.435938 64.938437 
" style="fill: none; stroke: #ff0000; stroke-width: 2; stroke-linecap: square"/>
    </g>
    <g id="text_19">
     <!-- Training Loss -->
     <g transform="translate(574.435938 68.438437) scale(0.1 -0.1)">
      <use xlink:href="#DejaVuSans-54"/>
      <use xlink:href="#DejaVuSans-72" x="46.333984"/>
      <use xlink:href="#DejaVuSans-61" x="87.447266"/>
      <use xlink:href="#DejaVuSans-69" x="148.726562"/>
      <use xlink:href="#DejaVuSans-6e" x="176.509766"/>
      <use xlink:href="#DejaVuSans-69" x="239.888672"/>
      <use xlink:href="#DejaVuSans-6e" x="267.671875"/>
      <use xlink:href="#DejaVuSans-67" x="331.050781"/>
      <use xlink:href="#DejaVuSans-20" x="394.527344"/>
      <use xlink:href="#DejaVuSans-4c" x="426.314453"/>
      <use xlink:href="#DejaVuSans-6f" x="480.277344"/>
      <use xlink:href="#DejaVuSans-73" x="541.458984"/>
      <use xlink:href="#DejaVuSans-73" x="593.558594"/>
     </g>
    </g>
    <g id="line2d_34">
     <path d="M 546.435938 79.616562 
L 556.435938 79.616562 
L 566.435938 79.616562 
" style="fill: none; stroke-dasharray: 7.4,3.2; stroke-dashoffset: 0; stroke: #ffa500; stroke-width: 2"/>
    </g>
    <g id="text_20">
     <!-- Testing Loss -->
     <g transform="translate(574.435938 83.116562) scale(0.1 -0.1)">
      <use xlink:href="#DejaVuSans-54"/>
      <use xlink:href="#DejaVuSans-65" x="44.083984"/>
      <use xlink:href="#DejaVuSans-73" x="105.607422"/>
      <use xlink:href="#DejaVuSans-74" x="157.707031"/>
      <use xlink:href="#DejaVuSans-69" x="196.916016"/>
      <use xlink:href="#DejaVuSans-6e" x="224.699219"/>
      <use xlink:href="#DejaVuSans-67" x="288.078125"/>
      <use xlink:href="#DejaVuSans-20" x="351.554688"/>
      <use xlink:href="#DejaVuSans-4c" x="383.341797"/>
      <use xlink:href="#DejaVuSans-6f" x="437.304688"/>
      <use xlink:href="#DejaVuSans-73" x="498.486328"/>
      <use xlink:href="#DejaVuSans-73" x="550.585938"/>
     </g>
    </g>
   </g>
  </g>
 </g>
 <defs>
  <clipPath id="pffceddc8ab">
   <rect x="90" y="51.84" width="558" height="332.64"/>
  </clipPath>
 </defs>
</svg>
