<?xml version="1.0" encoding="utf-8" standalone="no"?>
<!DOCTYPE svg PUBLIC "-//W3C//DTD SVG 1.1//EN"
  "http://www.w3.org/Graphics/SVG/1.1/DTD/svg11.dtd">
<svg xmlns:xlink="http://www.w3.org/1999/xlink" width="720pt" height="432pt" viewBox="0 0 720 432" xmlns="http://www.w3.org/2000/svg" version="1.1">
 <metadata>
  <rdf:RDF xmlns:dc="http://purl.org/dc/elements/1.1/" xmlns:cc="http://creativecommons.org/ns#" xmlns:rdf="http://www.w3.org/1999/02/22-rdf-syntax-ns#">
   <cc:Work>
    <dc:type rdf:resource="http://purl.org/dc/dcmitype/StillImage"/>
    <dc:date>2024-05-19T16:47:40.382317</dc:date>
    <dc:format>image/svg+xml</dc:format>
    <dc:creator>
     <cc:Agent>
      <dc:title>Matplotlib v3.6.2, https://matplotlib.org/</dc:title>
     </cc:Agent>
    </dc:creator>
   </cc:Work>
  </rdf:RDF>
 </metadata>
 <defs>
  <style type="text/css">*{stroke-linejoin: round; stroke-linecap: butt}</style>
 </defs>
 <g id="figure_1">
  <g id="patch_1">
   <path d="M 0 432 
L 720 432 
L 720 0 
L 0 0 
z
" style="fill: #ffffff"/>
  </g>
  <g id="axes_1">
   <g id="patch_2">
    <path d="M 90 384.48 
L 648 384.48 
L 648 51.84 
L 90 51.84 
z
" style="fill: #ffffff"/>
   </g>
   <g id="matplotlib.axis_1">
    <g id="xtick_1">
     <g id="line2d_1">
      <path d="M 115.363636 384.48 
L 115.363636 51.84 
" clip-path="url(#paa4433db7d)" style="fill: none; stroke: #b0b0b0; stroke-width: 0.8; stroke-linecap: square"/>
     </g>
     <g id="line2d_2">
      <defs>
       <path id="m5bee7789e0" d="M 0 0 
L 0 3.5 
" style="stroke: #000000; stroke-width: 0.8"/>
      </defs>
      <g>
       <use xlink:href="#m5bee7789e0" x="115.363636" y="384.48" style="stroke: #000000; stroke-width: 0.8"/>
      </g>
     </g>
     <g id="text_1">
      <!-- 0 -->
      <g transform="translate(112.182386 399.078438) scale(0.1 -0.1)">
       <defs>
        <path id="DejaVuSans-30" d="M 2034 4250 
Q 1547 4250 1301 3770 
Q 1056 3291 1056 2328 
Q 1056 1369 1301 889 
Q 1547 409 2034 409 
Q 2525 409 2770 889 
Q 3016 1369 3016 2328 
Q 3016 3291 2770 3770 
Q 2525 4250 2034 4250 
z
M 2034 4750 
Q 2819 4750 3233 4129 
Q 3647 3509 3647 2328 
Q 3647 1150 3233 529 
Q 2819 -91 2034 -91 
Q 1250 -91 836 529 
Q 422 1150 422 2328 
Q 422 3509 836 4129 
Q 1250 4750 2034 4750 
z
" transform="scale(0.015625)"/>
       </defs>
       <use xlink:href="#DejaVuSans-30"/>
      </g>
     </g>
    </g>
    <g id="xtick_2">
     <g id="line2d_3">
      <path d="M 200.050235 384.48 
L 200.050235 51.84 
" clip-path="url(#paa4433db7d)" style="fill: none; stroke: #b0b0b0; stroke-width: 0.8; stroke-linecap: square"/>
     </g>
     <g id="line2d_4">
      <g>
       <use xlink:href="#m5bee7789e0" x="200.050235" y="384.48" style="stroke: #000000; stroke-width: 0.8"/>
      </g>
     </g>
     <g id="text_2">
      <!-- 10000 -->
      <g transform="translate(184.143985 399.078438) scale(0.1 -0.1)">
       <defs>
        <path id="DejaVuSans-31" d="M 794 531 
L 1825 531 
L 1825 4091 
L 703 3866 
L 703 4441 
L 1819 4666 
L 2450 4666 
L 2450 531 
L 3481 531 
L 3481 0 
L 794 0 
L 794 531 
z
" transform="scale(0.015625)"/>
       </defs>
       <use xlink:href="#DejaVuSans-31"/>
       <use xlink:href="#DejaVuSans-30" x="63.623047"/>
       <use xlink:href="#DejaVuSans-30" x="127.246094"/>
       <use xlink:href="#DejaVuSans-30" x="190.869141"/>
       <use xlink:href="#DejaVuSans-30" x="254.492188"/>
      </g>
     </g>
    </g>
    <g id="xtick_3">
     <g id="line2d_5">
      <path d="M 284.736834 384.48 
L 284.736834 51.84 
" clip-path="url(#paa4433db7d)" style="fill: none; stroke: #b0b0b0; stroke-width: 0.8; stroke-linecap: square"/>
     </g>
     <g id="line2d_6">
      <g>
       <use xlink:href="#m5bee7789e0" x="284.736834" y="384.48" style="stroke: #000000; stroke-width: 0.8"/>
      </g>
     </g>
     <g id="text_3">
      <!-- 20000 -->
      <g transform="translate(268.830584 399.078438) scale(0.1 -0.1)">
       <defs>
        <path id="DejaVuSans-32" d="M 1228 531 
L 3431 531 
L 3431 0 
L 469 0 
L 469 531 
Q 828 903 1448 1529 
Q 2069 2156 2228 2338 
Q 2531 2678 2651 2914 
Q 2772 3150 2772 3378 
Q 2772 3750 2511 3984 
Q 2250 4219 1831 4219 
Q 1534 4219 1204 4116 
Q 875 4013 500 3803 
L 500 4441 
Q 881 4594 1212 4672 
Q 1544 4750 1819 4750 
Q 2544 4750 2975 4387 
Q 3406 4025 3406 3419 
Q 3406 3131 3298 2873 
Q 3191 2616 2906 2266 
Q 2828 2175 2409 1742 
Q 1991 1309 1228 531 
z
" transform="scale(0.015625)"/>
       </defs>
       <use xlink:href="#DejaVuSans-32"/>
       <use xlink:href="#DejaVuSans-30" x="63.623047"/>
       <use xlink:href="#DejaVuSans-30" x="127.246094"/>
       <use xlink:href="#DejaVuSans-30" x="190.869141"/>
       <use xlink:href="#DejaVuSans-30" x="254.492188"/>
      </g>
     </g>
    </g>
    <g id="xtick_4">
     <g id="line2d_7">
      <path d="M 369.423433 384.48 
L 369.423433 51.84 
" clip-path="url(#paa4433db7d)" style="fill: none; stroke: #b0b0b0; stroke-width: 0.8; stroke-linecap: square"/>
     </g>
     <g id="line2d_8">
      <g>
       <use xlink:href="#m5bee7789e0" x="369.423433" y="384.48" style="stroke: #000000; stroke-width: 0.8"/>
      </g>
     </g>
     <g id="text_4">
      <!-- 30000 -->
      <g transform="translate(353.517183 399.078438) scale(0.1 -0.1)">
       <defs>
        <path id="DejaVuSans-33" d="M 2597 2516 
Q 3050 2419 3304 2112 
Q 3559 1806 3559 1356 
Q 3559 666 3084 287 
Q 2609 -91 1734 -91 
Q 1441 -91 1130 -33 
Q 819 25 488 141 
L 488 750 
Q 750 597 1062 519 
Q 1375 441 1716 441 
Q 2309 441 2620 675 
Q 2931 909 2931 1356 
Q 2931 1769 2642 2001 
Q 2353 2234 1838 2234 
L 1294 2234 
L 1294 2753 
L 1863 2753 
Q 2328 2753 2575 2939 
Q 2822 3125 2822 3475 
Q 2822 3834 2567 4026 
Q 2313 4219 1838 4219 
Q 1578 4219 1281 4162 
Q 984 4106 628 3988 
L 628 4550 
Q 988 4650 1302 4700 
Q 1616 4750 1894 4750 
Q 2613 4750 3031 4423 
Q 3450 4097 3450 3541 
Q 3450 3153 3228 2886 
Q 3006 2619 2597 2516 
z
" transform="scale(0.015625)"/>
       </defs>
       <use xlink:href="#DejaVuSans-33"/>
       <use xlink:href="#DejaVuSans-30" x="63.623047"/>
       <use xlink:href="#DejaVuSans-30" x="127.246094"/>
       <use xlink:href="#DejaVuSans-30" x="190.869141"/>
       <use xlink:href="#DejaVuSans-30" x="254.492188"/>
      </g>
     </g>
    </g>
    <g id="xtick_5">
     <g id="line2d_9">
      <path d="M 454.110032 384.48 
L 454.110032 51.84 
" clip-path="url(#paa4433db7d)" style="fill: none; stroke: #b0b0b0; stroke-width: 0.8; stroke-linecap: square"/>
     </g>
     <g id="line2d_10">
      <g>
       <use xlink:href="#m5bee7789e0" x="454.110032" y="384.48" style="stroke: #000000; stroke-width: 0.8"/>
      </g>
     </g>
     <g id="text_5">
      <!-- 40000 -->
      <g transform="translate(438.203782 399.078438) scale(0.1 -0.1)">
       <defs>
        <path id="DejaVuSans-34" d="M 2419 4116 
L 825 1625 
L 2419 1625 
L 2419 4116 
z
M 2253 4666 
L 3047 4666 
L 3047 1625 
L 3713 1625 
L 3713 1100 
L 3047 1100 
L 3047 0 
L 2419 0 
L 2419 1100 
L 313 1100 
L 313 1709 
L 2253 4666 
z
" transform="scale(0.015625)"/>
       </defs>
       <use xlink:href="#DejaVuSans-34"/>
       <use xlink:href="#DejaVuSans-30" x="63.623047"/>
       <use xlink:href="#DejaVuSans-30" x="127.246094"/>
       <use xlink:href="#DejaVuSans-30" x="190.869141"/>
       <use xlink:href="#DejaVuSans-30" x="254.492188"/>
      </g>
     </g>
    </g>
    <g id="xtick_6">
     <g id="line2d_11">
      <path d="M 538.796631 384.48 
L 538.796631 51.84 
" clip-path="url(#paa4433db7d)" style="fill: none; stroke: #b0b0b0; stroke-width: 0.8; stroke-linecap: square"/>
     </g>
     <g id="line2d_12">
      <g>
       <use xlink:href="#m5bee7789e0" x="538.796631" y="384.48" style="stroke: #000000; stroke-width: 0.8"/>
      </g>
     </g>
     <g id="text_6">
      <!-- 50000 -->
      <g transform="translate(522.890381 399.078438) scale(0.1 -0.1)">
       <defs>
        <path id="DejaVuSans-35" d="M 691 4666 
L 3169 4666 
L 3169 4134 
L 1269 4134 
L 1269 2991 
Q 1406 3038 1543 3061 
Q 1681 3084 1819 3084 
Q 2600 3084 3056 2656 
Q 3513 2228 3513 1497 
Q 3513 744 3044 326 
Q 2575 -91 1722 -91 
Q 1428 -91 1123 -41 
Q 819 9 494 109 
L 494 744 
Q 775 591 1075 516 
Q 1375 441 1709 441 
Q 2250 441 2565 725 
Q 2881 1009 2881 1497 
Q 2881 1984 2565 2268 
Q 2250 2553 1709 2553 
Q 1456 2553 1204 2497 
Q 953 2441 691 2322 
L 691 4666 
z
" transform="scale(0.015625)"/>
       </defs>
       <use xlink:href="#DejaVuSans-35"/>
       <use xlink:href="#DejaVuSans-30" x="63.623047"/>
       <use xlink:href="#DejaVuSans-30" x="127.246094"/>
       <use xlink:href="#DejaVuSans-30" x="190.869141"/>
       <use xlink:href="#DejaVuSans-30" x="254.492188"/>
      </g>
     </g>
    </g>
    <g id="xtick_7">
     <g id="line2d_13">
      <path d="M 623.48323 384.48 
L 623.48323 51.84 
" clip-path="url(#paa4433db7d)" style="fill: none; stroke: #b0b0b0; stroke-width: 0.8; stroke-linecap: square"/>
     </g>
     <g id="line2d_14">
      <g>
       <use xlink:href="#m5bee7789e0" x="623.48323" y="384.48" style="stroke: #000000; stroke-width: 0.8"/>
      </g>
     </g>
     <g id="text_7">
      <!-- 60000 -->
      <g transform="translate(607.57698 399.078438) scale(0.1 -0.1)">
       <defs>
        <path id="DejaVuSans-36" d="M 2113 2584 
Q 1688 2584 1439 2293 
Q 1191 2003 1191 1497 
Q 1191 994 1439 701 
Q 1688 409 2113 409 
Q 2538 409 2786 701 
Q 3034 994 3034 1497 
Q 3034 2003 2786 2293 
Q 2538 2584 2113 2584 
z
M 3366 4563 
L 3366 3988 
Q 3128 4100 2886 4159 
Q 2644 4219 2406 4219 
Q 1781 4219 1451 3797 
Q 1122 3375 1075 2522 
Q 1259 2794 1537 2939 
Q 1816 3084 2150 3084 
Q 2853 3084 3261 2657 
Q 3669 2231 3669 1497 
Q 3669 778 3244 343 
Q 2819 -91 2113 -91 
Q 1303 -91 875 529 
Q 447 1150 447 2328 
Q 447 3434 972 4092 
Q 1497 4750 2381 4750 
Q 2619 4750 2861 4703 
Q 3103 4656 3366 4563 
z
" transform="scale(0.015625)"/>
       </defs>
       <use xlink:href="#DejaVuSans-36"/>
       <use xlink:href="#DejaVuSans-30" x="63.623047"/>
       <use xlink:href="#DejaVuSans-30" x="127.246094"/>
       <use xlink:href="#DejaVuSans-30" x="190.869141"/>
       <use xlink:href="#DejaVuSans-30" x="254.492188"/>
      </g>
     </g>
    </g>
    <g id="text_8">
     <!-- Iterations -->
     <g transform="translate(335.661406 415.795938) scale(0.14 -0.14)">
      <defs>
       <path id="DejaVuSans-49" d="M 628 4666 
L 1259 4666 
L 1259 0 
L 628 0 
L 628 4666 
z
" transform="scale(0.015625)"/>
       <path id="DejaVuSans-74" d="M 1172 4494 
L 1172 3500 
L 2356 3500 
L 2356 3053 
L 1172 3053 
L 1172 1153 
Q 1172 725 1289 603 
Q 1406 481 1766 481 
L 2356 481 
L 2356 0 
L 1766 0 
Q 1100 0 847 248 
Q 594 497 594 1153 
L 594 3053 
L 172 3053 
L 172 3500 
L 594 3500 
L 594 4494 
L 1172 4494 
z
" transform="scale(0.015625)"/>
       <path id="DejaVuSans-65" d="M 3597 1894 
L 3597 1613 
L 953 1613 
Q 991 1019 1311 708 
Q 1631 397 2203 397 
Q 2534 397 2845 478 
Q 3156 559 3463 722 
L 3463 178 
Q 3153 47 2828 -22 
Q 2503 -91 2169 -91 
Q 1331 -91 842 396 
Q 353 884 353 1716 
Q 353 2575 817 3079 
Q 1281 3584 2069 3584 
Q 2775 3584 3186 3129 
Q 3597 2675 3597 1894 
z
M 3022 2063 
Q 3016 2534 2758 2815 
Q 2500 3097 2075 3097 
Q 1594 3097 1305 2825 
Q 1016 2553 972 2059 
L 3022 2063 
z
" transform="scale(0.015625)"/>
       <path id="DejaVuSans-72" d="M 2631 2963 
Q 2534 3019 2420 3045 
Q 2306 3072 2169 3072 
Q 1681 3072 1420 2755 
Q 1159 2438 1159 1844 
L 1159 0 
L 581 0 
L 581 3500 
L 1159 3500 
L 1159 2956 
Q 1341 3275 1631 3429 
Q 1922 3584 2338 3584 
Q 2397 3584 2469 3576 
Q 2541 3569 2628 3553 
L 2631 2963 
z
" transform="scale(0.015625)"/>
       <path id="DejaVuSans-61" d="M 2194 1759 
Q 1497 1759 1228 1600 
Q 959 1441 959 1056 
Q 959 750 1161 570 
Q 1363 391 1709 391 
Q 2188 391 2477 730 
Q 2766 1069 2766 1631 
L 2766 1759 
L 2194 1759 
z
M 3341 1997 
L 3341 0 
L 2766 0 
L 2766 531 
Q 2569 213 2275 61 
Q 1981 -91 1556 -91 
Q 1019 -91 701 211 
Q 384 513 384 1019 
Q 384 1609 779 1909 
Q 1175 2209 1959 2209 
L 2766 2209 
L 2766 2266 
Q 2766 2663 2505 2880 
Q 2244 3097 1772 3097 
Q 1472 3097 1187 3025 
Q 903 2953 641 2809 
L 641 3341 
Q 956 3463 1253 3523 
Q 1550 3584 1831 3584 
Q 2591 3584 2966 3190 
Q 3341 2797 3341 1997 
z
" transform="scale(0.015625)"/>
       <path id="DejaVuSans-69" d="M 603 3500 
L 1178 3500 
L 1178 0 
L 603 0 
L 603 3500 
z
M 603 4863 
L 1178 4863 
L 1178 4134 
L 603 4134 
L 603 4863 
z
" transform="scale(0.015625)"/>
       <path id="DejaVuSans-6f" d="M 1959 3097 
Q 1497 3097 1228 2736 
Q 959 2375 959 1747 
Q 959 1119 1226 758 
Q 1494 397 1959 397 
Q 2419 397 2687 759 
Q 2956 1122 2956 1747 
Q 2956 2369 2687 2733 
Q 2419 3097 1959 3097 
z
M 1959 3584 
Q 2709 3584 3137 3096 
Q 3566 2609 3566 1747 
Q 3566 888 3137 398 
Q 2709 -91 1959 -91 
Q 1206 -91 779 398 
Q 353 888 353 1747 
Q 353 2609 779 3096 
Q 1206 3584 1959 3584 
z
" transform="scale(0.015625)"/>
       <path id="DejaVuSans-6e" d="M 3513 2113 
L 3513 0 
L 2938 0 
L 2938 2094 
Q 2938 2591 2744 2837 
Q 2550 3084 2163 3084 
Q 1697 3084 1428 2787 
Q 1159 2491 1159 1978 
L 1159 0 
L 581 0 
L 581 3500 
L 1159 3500 
L 1159 2956 
Q 1366 3272 1645 3428 
Q 1925 3584 2291 3584 
Q 2894 3584 3203 3211 
Q 3513 2838 3513 2113 
z
" transform="scale(0.015625)"/>
       <path id="DejaVuSans-73" d="M 2834 3397 
L 2834 2853 
Q 2591 2978 2328 3040 
Q 2066 3103 1784 3103 
Q 1356 3103 1142 2972 
Q 928 2841 928 2578 
Q 928 2378 1081 2264 
Q 1234 2150 1697 2047 
L 1894 2003 
Q 2506 1872 2764 1633 
Q 3022 1394 3022 966 
Q 3022 478 2636 193 
Q 2250 -91 1575 -91 
Q 1294 -91 989 -36 
Q 684 19 347 128 
L 347 722 
Q 666 556 975 473 
Q 1284 391 1588 391 
Q 1994 391 2212 530 
Q 2431 669 2431 922 
Q 2431 1156 2273 1281 
Q 2116 1406 1581 1522 
L 1381 1569 
Q 847 1681 609 1914 
Q 372 2147 372 2553 
Q 372 3047 722 3315 
Q 1072 3584 1716 3584 
Q 2034 3584 2315 3537 
Q 2597 3491 2834 3397 
z
" transform="scale(0.015625)"/>
      </defs>
      <use xlink:href="#DejaVuSans-49"/>
      <use xlink:href="#DejaVuSans-74" x="29.492188"/>
      <use xlink:href="#DejaVuSans-65" x="68.701172"/>
      <use xlink:href="#DejaVuSans-72" x="130.224609"/>
      <use xlink:href="#DejaVuSans-61" x="171.337891"/>
      <use xlink:href="#DejaVuSans-74" x="232.617188"/>
      <use xlink:href="#DejaVuSans-69" x="271.826172"/>
      <use xlink:href="#DejaVuSans-6f" x="299.609375"/>
      <use xlink:href="#DejaVuSans-6e" x="360.791016"/>
      <use xlink:href="#DejaVuSans-73" x="424.169922"/>
     </g>
    </g>
   </g>
   <g id="matplotlib.axis_2">
    <g id="ytick_1">
     <g id="line2d_15">
      <path d="M 90 384.48 
L 648 384.48 
" clip-path="url(#paa4433db7d)" style="fill: none; stroke: #b0b0b0; stroke-width: 0.8; stroke-linecap: square"/>
     </g>
     <g id="line2d_16">
      <defs>
       <path id="m093c2c7156" d="M 0 0 
L -3.5 0 
" style="stroke: #000000; stroke-width: 0.8"/>
      </defs>
      <g>
       <use xlink:href="#m093c2c7156" x="90" y="384.48" style="stroke: #000000; stroke-width: 0.8"/>
      </g>
     </g>
     <g id="text_9">
      <!-- 0.00 -->
      <g transform="translate(60.734375 388.279219) scale(0.1 -0.1)">
       <defs>
        <path id="DejaVuSans-2e" d="M 684 794 
L 1344 794 
L 1344 0 
L 684 0 
L 684 794 
z
" transform="scale(0.015625)"/>
       </defs>
       <use xlink:href="#DejaVuSans-30"/>
       <use xlink:href="#DejaVuSans-2e" x="63.623047"/>
       <use xlink:href="#DejaVuSans-30" x="95.410156"/>
       <use xlink:href="#DejaVuSans-30" x="159.033203"/>
      </g>
     </g>
    </g>
    <g id="ytick_2">
     <g id="line2d_17">
      <path d="M 90 345.911151 
L 648 345.911151 
" clip-path="url(#paa4433db7d)" style="fill: none; stroke: #b0b0b0; stroke-width: 0.8; stroke-linecap: square"/>
     </g>
     <g id="line2d_18">
      <g>
       <use xlink:href="#m093c2c7156" x="90" y="345.911151" style="stroke: #000000; stroke-width: 0.8"/>
      </g>
     </g>
     <g id="text_10">
      <!-- 0.25 -->
      <g transform="translate(60.734375 349.71037) scale(0.1 -0.1)">
       <use xlink:href="#DejaVuSans-30"/>
       <use xlink:href="#DejaVuSans-2e" x="63.623047"/>
       <use xlink:href="#DejaVuSans-32" x="95.410156"/>
       <use xlink:href="#DejaVuSans-35" x="159.033203"/>
      </g>
     </g>
    </g>
    <g id="ytick_3">
     <g id="line2d_19">
      <path d="M 90 307.342302 
L 648 307.342302 
" clip-path="url(#paa4433db7d)" style="fill: none; stroke: #b0b0b0; stroke-width: 0.8; stroke-linecap: square"/>
     </g>
     <g id="line2d_20">
      <g>
       <use xlink:href="#m093c2c7156" x="90" y="307.342302" style="stroke: #000000; stroke-width: 0.8"/>
      </g>
     </g>
     <g id="text_11">
      <!-- 0.50 -->
      <g transform="translate(60.734375 311.14152) scale(0.1 -0.1)">
       <use xlink:href="#DejaVuSans-30"/>
       <use xlink:href="#DejaVuSans-2e" x="63.623047"/>
       <use xlink:href="#DejaVuSans-35" x="95.410156"/>
       <use xlink:href="#DejaVuSans-30" x="159.033203"/>
      </g>
     </g>
    </g>
    <g id="ytick_4">
     <g id="line2d_21">
      <path d="M 90 268.773453 
L 648 268.773453 
" clip-path="url(#paa4433db7d)" style="fill: none; stroke: #b0b0b0; stroke-width: 0.8; stroke-linecap: square"/>
     </g>
     <g id="line2d_22">
      <g>
       <use xlink:href="#m093c2c7156" x="90" y="268.773453" style="stroke: #000000; stroke-width: 0.8"/>
      </g>
     </g>
     <g id="text_12">
      <!-- 0.75 -->
      <g transform="translate(60.734375 272.572671) scale(0.1 -0.1)">
       <defs>
        <path id="DejaVuSans-37" d="M 525 4666 
L 3525 4666 
L 3525 4397 
L 1831 0 
L 1172 0 
L 2766 4134 
L 525 4134 
L 525 4666 
z
" transform="scale(0.015625)"/>
       </defs>
       <use xlink:href="#DejaVuSans-30"/>
       <use xlink:href="#DejaVuSans-2e" x="63.623047"/>
       <use xlink:href="#DejaVuSans-37" x="95.410156"/>
       <use xlink:href="#DejaVuSans-35" x="159.033203"/>
      </g>
     </g>
    </g>
    <g id="ytick_5">
     <g id="line2d_23">
      <path d="M 90 230.204603 
L 648 230.204603 
" clip-path="url(#paa4433db7d)" style="fill: none; stroke: #b0b0b0; stroke-width: 0.8; stroke-linecap: square"/>
     </g>
     <g id="line2d_24">
      <g>
       <use xlink:href="#m093c2c7156" x="90" y="230.204603" style="stroke: #000000; stroke-width: 0.8"/>
      </g>
     </g>
     <g id="text_13">
      <!-- 1.00 -->
      <g transform="translate(60.734375 234.003822) scale(0.1 -0.1)">
       <use xlink:href="#DejaVuSans-31"/>
       <use xlink:href="#DejaVuSans-2e" x="63.623047"/>
       <use xlink:href="#DejaVuSans-30" x="95.410156"/>
       <use xlink:href="#DejaVuSans-30" x="159.033203"/>
      </g>
     </g>
    </g>
    <g id="ytick_6">
     <g id="line2d_25">
      <path d="M 90 191.635754 
L 648 191.635754 
" clip-path="url(#paa4433db7d)" style="fill: none; stroke: #b0b0b0; stroke-width: 0.8; stroke-linecap: square"/>
     </g>
     <g id="line2d_26">
      <g>
       <use xlink:href="#m093c2c7156" x="90" y="191.635754" style="stroke: #000000; stroke-width: 0.8"/>
      </g>
     </g>
     <g id="text_14">
      <!-- 1.25 -->
      <g transform="translate(60.734375 195.434973) scale(0.1 -0.1)">
       <use xlink:href="#DejaVuSans-31"/>
       <use xlink:href="#DejaVuSans-2e" x="63.623047"/>
       <use xlink:href="#DejaVuSans-32" x="95.410156"/>
       <use xlink:href="#DejaVuSans-35" x="159.033203"/>
      </g>
     </g>
    </g>
    <g id="ytick_7">
     <g id="line2d_27">
      <path d="M 90 153.066905 
L 648 153.066905 
" clip-path="url(#paa4433db7d)" style="fill: none; stroke: #b0b0b0; stroke-width: 0.8; stroke-linecap: square"/>
     </g>
     <g id="line2d_28">
      <g>
       <use xlink:href="#m093c2c7156" x="90" y="153.066905" style="stroke: #000000; stroke-width: 0.8"/>
      </g>
     </g>
     <g id="text_15">
      <!-- 1.50 -->
      <g transform="translate(60.734375 156.866124) scale(0.1 -0.1)">
       <use xlink:href="#DejaVuSans-31"/>
       <use xlink:href="#DejaVuSans-2e" x="63.623047"/>
       <use xlink:href="#DejaVuSans-35" x="95.410156"/>
       <use xlink:href="#DejaVuSans-30" x="159.033203"/>
      </g>
     </g>
    </g>
    <g id="ytick_8">
     <g id="line2d_29">
      <path d="M 90 114.498056 
L 648 114.498056 
" clip-path="url(#paa4433db7d)" style="fill: none; stroke: #b0b0b0; stroke-width: 0.8; stroke-linecap: square"/>
     </g>
     <g id="line2d_30">
      <g>
       <use xlink:href="#m093c2c7156" x="90" y="114.498056" style="stroke: #000000; stroke-width: 0.8"/>
      </g>
     </g>
     <g id="text_16">
      <!-- 1.75 -->
      <g transform="translate(60.734375 118.297275) scale(0.1 -0.1)">
       <use xlink:href="#DejaVuSans-31"/>
       <use xlink:href="#DejaVuSans-2e" x="63.623047"/>
       <use xlink:href="#DejaVuSans-37" x="95.410156"/>
       <use xlink:href="#DejaVuSans-35" x="159.033203"/>
      </g>
     </g>
    </g>
    <g id="ytick_9">
     <g id="line2d_31">
      <path d="M 90 75.929207 
L 648 75.929207 
" clip-path="url(#paa4433db7d)" style="fill: none; stroke: #b0b0b0; stroke-width: 0.8; stroke-linecap: square"/>
     </g>
     <g id="line2d_32">
      <g>
       <use xlink:href="#m093c2c7156" x="90" y="75.929207" style="stroke: #000000; stroke-width: 0.8"/>
      </g>
     </g>
     <g id="text_17">
      <!-- 2.00 -->
      <g transform="translate(60.734375 79.728425) scale(0.1 -0.1)">
       <use xlink:href="#DejaVuSans-32"/>
       <use xlink:href="#DejaVuSans-2e" x="63.623047"/>
       <use xlink:href="#DejaVuSans-30" x="95.410156"/>
       <use xlink:href="#DejaVuSans-30" x="159.033203"/>
      </g>
     </g>
    </g>
    <g id="text_18">
     <!-- Loss -->
     <g transform="translate(53.822812 233.514062) rotate(-90) scale(0.14 -0.14)">
      <defs>
       <path id="DejaVuSans-4c" d="M 628 4666 
L 1259 4666 
L 1259 531 
L 3531 531 
L 3531 0 
L 628 0 
L 628 4666 
z
" transform="scale(0.015625)"/>
      </defs>
      <use xlink:href="#DejaVuSans-4c"/>
      <use xlink:href="#DejaVuSans-6f" x="53.962891"/>
      <use xlink:href="#DejaVuSans-73" x="115.144531"/>
      <use xlink:href="#DejaVuSans-73" x="167.244141"/>
     </g>
    </g>
   </g>
   <g id="line2d_33">
    <path d="M 115.363636 83.806596 
L 116.210502 158.326573 
L 117.057368 215.786892 
L 117.904234 227.325136 
L 118.7511 243.194623 
L 119.597966 232.090775 
L 120.444832 253.358261 
L 121.291698 258.351447 
L 122.138564 282.298744 
L 122.98543 279.876013 
L 123.832296 262.18948 
L 124.679162 280.212463 
L 125.526028 308.073751 
L 126.372894 298.647044 
L 127.21976 300.609128 
L 128.066626 291.160786 
L 128.913492 298.342112 
L 129.760358 288.286852 
L 130.607224 287.575872 
L 131.45409 298.062592 
L 132.300956 298.406856 
L 133.147822 269.814986 
L 133.994688 310.147339 
L 134.841554 306.322878 
L 135.68842 293.397994 
L 136.535286 284.557332 
L 137.382152 312.292661 
L 138.229018 303.289743 
L 139.075884 301.397879 
L 139.92275 288.94719 
L 140.769616 312.061991 
L 141.616482 292.663241 
L 142.463348 311.544667 
L 143.310214 303.153802 
L 144.15708 289.219244 
L 145.850812 309.629736 
L 146.697678 296.275886 
L 147.544544 303.46963 
L 149.238276 322.58453 
L 150.085142 312.896856 
L 150.932008 298.013705 
L 151.778874 300.326695 
L 152.62574 317.4758 
L 153.472606 319.664612 
L 155.166338 313.412457 
L 156.013204 303.844011 
L 156.86007 321.019349 
L 157.706936 321.117364 
L 158.553802 320.709177 
L 159.400668 311.505321 
L 160.247534 308.49936 
L 161.0944 317.827274 
L 161.941266 314.268587 
L 162.788132 311.369585 
L 163.634998 318.427831 
L 164.481864 309.025552 
L 165.32873 317.206819 
L 166.175596 319.928357 
L 167.022462 317.29095 
L 167.869328 324.645118 
L 168.716194 309.592368 
L 169.56306 316.032152 
L 170.409926 306.168571 
L 171.256792 319.999647 
L 172.103658 315.567842 
L 172.950524 300.505922 
L 173.79739 317.172712 
L 174.644256 312.715766 
L 175.491122 306.531884 
L 176.337988 324.72749 
L 177.184854 321.060537 
L 178.03172 318.041426 
L 178.878586 319.642159 
L 179.725452 323.333812 
L 180.572317 322.062719 
L 181.419183 326.720608 
L 182.266049 299.33992 
L 183.112915 317.372849 
L 183.959781 317.150754 
L 184.806647 306.694529 
L 185.653513 323.059523 
L 186.500379 328.493003 
L 187.347245 318.240228 
L 188.194111 326.191785 
L 189.040977 317.403092 
L 189.887843 316.969163 
L 190.734709 311.502365 
L 191.581575 325.239189 
L 193.275307 319.450943 
L 194.122173 315.277364 
L 194.969039 312.813468 
L 195.815905 320.465962 
L 196.662771 316.670282 
L 197.509637 321.76556 
L 198.356503 312.246699 
L 200.050235 324.144277 
L 200.897101 311.637271 
L 201.743967 312.431723 
L 202.590833 319.926006 
L 203.437699 334.9645 
L 204.284565 330.803599 
L 205.131431 324.353157 
L 205.978297 325.761611 
L 206.825163 325.203151 
L 207.672029 315.986326 
L 208.518895 324.555963 
L 209.365761 322.774482 
L 210.212627 324.810344 
L 211.059493 325.52551 
L 211.906359 331.125948 
L 212.753225 326.72618 
L 213.600091 316.21409 
L 214.446957 324.462953 
L 215.293823 321.061914 
L 216.140689 325.632379 
L 216.987555 327.64791 
L 217.834421 315.1375 
L 218.681287 323.724304 
L 219.528153 329.134016 
L 220.375019 336.37743 
L 221.221885 326.390122 
L 222.068751 327.120344 
L 222.915617 319.704518 
L 223.762483 323.561457 
L 224.609349 326.68955 
L 225.456215 330.860873 
L 226.303081 323.82599 
L 227.149947 331.030007 
L 227.996813 330.849834 
L 228.843679 335.989108 
L 229.690545 324.364344 
L 230.537411 331.317807 
L 231.384277 319.850438 
L 232.231143 322.925067 
L 233.078009 335.638183 
L 233.924875 322.175963 
L 234.771741 328.59483 
L 235.618607 324.195995 
L 236.465473 324.054183 
L 237.312339 322.779983 
L 238.159205 329.926448 
L 239.006071 322.538841 
L 239.852937 331.018692 
L 240.699803 323.392285 
L 241.546669 333.687271 
L 242.393535 327.446997 
L 243.240401 329.341621 
L 244.087267 303.565829 
L 244.934133 326.177947 
L 245.780999 325.878035 
L 246.627865 324.005856 
L 247.474731 331.63888 
L 248.321597 334.679062 
L 249.168463 334.190895 
L 250.015329 326.818399 
L 250.862195 332.761533 
L 251.709061 318.866602 
L 252.555927 321.603308 
L 253.402793 333.765904 
L 254.249659 335.612633 
L 255.096525 330.203896 
L 255.94339 329.10664 
L 256.790256 326.644285 
L 257.637122 334.68777 
L 258.483988 337.687687 
L 259.330854 332.425086 
L 260.17772 333.316498 
L 261.024586 334.989402 
L 261.871452 331.838696 
L 262.718318 330.56204 
L 263.565184 322.488582 
L 265.258916 333.64156 
L 266.105782 330.411206 
L 266.952648 337.941269 
L 267.799514 334.904833 
L 268.64638 328.739845 
L 269.493246 329.822741 
L 270.340112 336.866825 
L 271.186978 341.008491 
L 272.033844 323.738416 
L 272.88071 333.267358 
L 273.727576 338.205299 
L 274.574442 327.779472 
L 275.421308 334.947391 
L 276.268174 336.532071 
L 277.11504 333.287728 
L 277.961906 336.869753 
L 278.808772 330.758588 
L 279.655638 336.748049 
L 280.502504 336.106354 
L 281.34937 331.849191 
L 282.196236 333.472819 
L 283.043102 328.933027 
L 283.889968 327.305172 
L 284.736834 338.425999 
L 285.5837 335.624555 
L 286.430566 336.296297 
L 287.277432 333.51712 
L 288.124298 333.596464 
L 288.971164 331.7378 
L 289.81803 336.690231 
L 290.664896 310.825991 
L 291.511762 303.298462 
L 292.358628 338.229868 
L 294.05236 321.788606 
L 294.899226 332.622786 
L 295.746092 335.440422 
L 296.592958 338.826218 
L 297.439824 335.495302 
L 298.28669 334.486669 
L 299.133556 338.994419 
L 299.980422 342.488256 
L 300.827288 341.386646 
L 301.674154 326.989135 
L 302.52102 334.568118 
L 303.367886 328.867121 
L 304.214752 333.424846 
L 305.061618 331.912144 
L 305.908484 330.720036 
L 306.75535 334.800613 
L 307.602216 330.751667 
L 308.449082 328.390873 
L 309.295948 324.926185 
L 310.142814 341.940039 
L 310.98968 330.301908 
L 312.683412 339.362901 
L 313.530278 335.981244 
L 314.377144 336.337996 
L 315.22401 340.491502 
L 316.070876 316.990743 
L 316.917742 333.246906 
L 317.764608 338.18545 
L 318.611474 334.826915 
L 319.45834 334.18632 
L 320.305206 339.524085 
L 321.152072 337.698561 
L 322.845804 344.905413 
L 323.69267 337.17773 
L 324.539536 340.652909 
L 325.386402 311.619628 
L 326.233268 338.093277 
L 327.080134 333.613529 
L 327.927 335.103001 
L 328.773866 329.639769 
L 329.620732 335.07017 
L 330.467598 333.724149 
L 331.314463 334.777787 
L 332.161329 332.294385 
L 333.008195 342.908686 
L 333.855061 328.849891 
L 334.701927 333.267283 
L 335.548793 340.922215 
L 336.395659 336.817094 
L 337.242525 338.361758 
L 338.089391 332.073242 
L 338.936257 331.999157 
L 339.783123 335.512104 
L 340.629989 334.618839 
L 341.476855 343.386346 
L 342.323721 337.80485 
L 343.170587 330.657128 
L 344.017453 338.230024 
L 344.864319 332.461159 
L 345.711185 329.912962 
L 346.558051 330.079548 
L 347.404917 334.778074 
L 348.251783 334.061929 
L 349.098649 336.409547 
L 349.945515 329.064583 
L 350.792381 334.667067 
L 351.639247 337.220162 
L 352.486113 335.484246 
L 353.332979 336.189373 
L 354.179845 332.708823 
L 355.026711 331.597909 
L 355.873577 336.428103 
L 356.720443 339.005009 
L 357.567309 331.695166 
L 358.414175 335.423724 
L 359.261041 334.345381 
L 360.107907 332.370342 
L 360.954773 337.652303 
L 361.801639 340.548012 
L 362.648505 340.389628 
L 363.495371 341.455412 
L 364.342237 335.135716 
L 365.189103 332.983313 
L 366.035969 341.517876 
L 366.882835 343.022959 
L 367.729701 335.290675 
L 368.576567 345.491241 
L 369.423433 328.11601 
L 371.117165 345.816882 
L 371.964031 338.279178 
L 372.810897 342.145647 
L 373.657763 342.151555 
L 374.504629 341.964809 
L 375.351495 343.474778 
L 376.198361 335.055256 
L 377.045227 343.236726 
L 377.892093 330.463918 
L 378.738959 336.504851 
L 379.585825 336.5784 
L 380.432691 338.602404 
L 381.279557 335.215966 
L 382.126423 336.067132 
L 382.973289 326.775749 
L 383.820155 339.892555 
L 384.667021 340.378811 
L 385.513887 343.06142 
L 386.360753 336.017814 
L 387.207619 339.848177 
L 388.054485 337.529498 
L 388.901351 341.037523 
L 389.748217 337.750413 
L 390.595083 332.632013 
L 391.441949 336.297745 
L 392.288815 333.549098 
L 393.135681 339.813182 
L 393.982547 339.687157 
L 394.829413 342.914659 
L 395.676279 333.845551 
L 396.523145 339.652936 
L 397.370011 343.715917 
L 398.216877 342.164959 
L 399.063743 340.141701 
L 399.910609 339.78191 
L 400.757475 346.159415 
L 401.604341 337.566295 
L 402.451207 341.126078 
L 403.298073 340.330869 
L 404.144939 346.625276 
L 404.991805 339.960807 
L 405.838671 341.592597 
L 406.685537 340.853748 
L 407.532402 331.740627 
L 408.379268 343.338815 
L 409.226134 343.548978 
L 410.073 340.014033 
L 410.919866 347.602655 
L 411.766732 346.88354 
L 412.613598 345.444315 
L 413.460464 341.628136 
L 414.30733 344.965607 
L 415.154196 341.48871 
L 416.001062 335.322074 
L 416.847928 336.69863 
L 417.694794 333.129736 
L 418.54166 347.281977 
L 419.388526 348.063408 
L 420.235392 337.526217 
L 421.082258 343.205933 
L 421.929124 336.334304 
L 422.77599 345.209412 
L 423.622856 346.714816 
L 424.469722 342.807088 
L 425.316588 337.421838 
L 426.163454 342.963128 
L 427.01032 341.778893 
L 427.857186 342.823497 
L 428.704052 341.356035 
L 429.550918 343.007981 
L 430.397784 342.754197 
L 431.24465 345.065295 
L 432.091516 349.552026 
L 432.938382 342.799197 
L 433.785248 338.618028 
L 434.632114 344.202933 
L 435.47898 345.499099 
L 436.325846 340.712498 
L 437.172712 342.898858 
L 438.019578 340.879746 
L 438.866444 344.819507 
L 439.71331 345.885992 
L 440.560176 340.758459 
L 441.407042 344.257135 
L 442.253908 341.487401 
L 443.100774 329.377469 
L 443.94764 339.876577 
L 444.794506 345.734522 
L 445.641372 343.454972 
L 446.488238 342.040946 
L 447.335104 340.197997 
L 448.18197 336.271902 
L 449.028836 336.51843 
L 449.875702 336.999308 
L 450.722568 338.804855 
L 451.569434 337.757115 
L 452.4163 343.325589 
L 453.263166 338.851466 
L 454.110032 341.958077 
L 454.956898 344.245065 
L 455.803764 345.261972 
L 456.65063 344.125771 
L 457.497496 333.442222 
L 458.344362 349.059189 
L 459.191228 340.695643 
L 460.038094 346.03696 
L 460.88496 346.050077 
L 461.731826 341.599644 
L 462.578692 334.404868 
L 463.425558 329.391923 
L 464.272424 337.877814 
L 465.11929 334.692574 
L 465.966156 348.220054 
L 466.813022 347.060107 
L 467.659888 339.80912 
L 468.506754 334.678971 
L 469.35362 338.924159 
L 470.200486 341.674329 
L 471.047352 343.507949 
L 471.894218 334.888021 
L 472.741084 333.469456 
L 473.58795 333.889758 
L 474.434816 340.184332 
L 475.281682 341.5097 
L 476.128548 337.740457 
L 476.975414 345.508408 
L 477.82228 347.330041 
L 478.669146 347.583339 
L 479.516012 346.334911 
L 480.362878 343.722579 
L 481.209744 347.466685 
L 482.05661 348.972501 
L 482.903475 347.619392 
L 483.750341 345.925076 
L 484.597207 346.804034 
L 486.290939 337.089194 
L 487.137805 335.128465 
L 487.984671 346.472554 
L 488.831537 340.870552 
L 489.678403 343.814005 
L 490.525269 342.916915 
L 491.372135 339.040399 
L 492.219001 333.710422 
L 493.065867 344.262695 
L 493.912733 345.140897 
L 494.759599 347.653228 
L 495.606465 345.237915 
L 496.453331 344.364712 
L 497.300197 344.00038 
L 498.147063 339.515821 
L 498.993929 345.39989 
L 499.840795 343.545078 
L 500.687661 341.122102 
L 501.534527 345.045866 
L 502.381393 337.155219 
L 503.228259 343.500512 
L 504.075125 337.321444 
L 504.921991 333.915863 
L 505.768857 341.952816 
L 506.615723 342.162273 
L 507.462589 334.103767 
L 508.309455 337.081999 
L 509.156321 340.928922 
L 510.003187 343.26722 
L 510.850053 341.136859 
L 511.696919 341.302796 
L 512.543785 342.410365 
L 513.390651 347.952534 
L 514.237517 341.835349 
L 515.084383 341.98295 
L 515.931249 336.290546 
L 516.778115 337.256207 
L 517.624981 333.931559 
L 518.471847 336.932891 
L 519.318713 325.079298 
L 520.165579 337.140779 
L 521.012445 343.937415 
L 521.859311 341.916005 
L 522.706177 331.903221 
L 524.399909 340.575525 
L 525.246775 341.01416 
L 526.093641 344.209049 
L 526.940507 342.355605 
L 527.787373 342.273735 
L 528.634239 345.376493 
L 529.481105 340.79423 
L 530.327971 340.220618 
L 531.174837 348.844699 
L 532.021703 345.114666 
L 532.868569 339.947176 
L 533.715435 344.971875 
L 534.562301 343.565692 
L 535.409167 343.319243 
L 536.256033 330.731796 
L 537.102899 343.060078 
L 537.949765 322.95515 
L 538.796631 343.174915 
L 539.643497 338.346825 
L 540.490363 341.929012 
L 541.337229 347.089669 
L 542.184095 340.139785 
L 543.030961 345.564628 
L 543.877827 338.151463 
L 544.724693 346.676265 
L 545.571559 344.240871 
L 546.418425 338.631168 
L 547.265291 346.332461 
L 548.112157 350.421139 
L 548.959023 351.955093 
L 549.805889 341.771095 
L 550.652755 335.592907 
L 551.499621 347.196551 
L 552.346487 344.146759 
L 553.193353 348.094593 
L 554.040219 341.216161 
L 554.887085 344.797976 
L 555.733951 343.96796 
L 556.580817 349.626817 
L 557.427683 345.09 
L 558.274548 342.206778 
L 559.121414 340.983992 
L 559.96828 341.801904 
L 560.815146 342.957871 
L 562.508878 345.977327 
L 563.355744 345.761437 
L 564.20261 334.997374 
L 565.049476 334.759826 
L 565.896342 339.794682 
L 566.743208 346.069636 
L 567.590074 344.698847 
L 568.43694 348.182903 
L 569.283806 332.633081 
L 570.130672 344.77636 
L 570.977538 344.251801 
L 571.824404 338.39751 
L 572.67127 338.969389 
L 573.518136 338.300799 
L 574.365002 335.331581 
L 575.211868 345.154113 
L 576.058734 332.956754 
L 576.9056 335.792336 
L 577.752466 341.537315 
L 578.599332 335.955231 
L 580.293064 343.854125 
L 581.13993 350.133067 
L 581.986796 349.985848 
L 582.833662 347.338997 
L 583.680528 348.433665 
L 584.527394 346.357595 
L 585.37426 341.543869 
L 586.221126 350.307879 
L 587.067992 349.525441 
L 587.914858 344.89366 
L 588.761724 336.207662 
L 589.60859 345.262158 
L 590.455456 345.910064 
L 591.302322 352.213495 
L 592.149188 347.299725 
L 592.996054 340.114293 
L 593.84292 346.642017 
L 594.689786 341.413698 
L 595.536652 346.086444 
L 596.383518 343.669419 
L 597.230384 340.246913 
L 598.07725 343.999305 
L 598.924116 340.531367 
L 599.770982 345.120893 
L 600.617848 343.03667 
L 601.464714 350.175555 
L 602.31158 349.532022 
L 603.158446 344.502636 
L 604.005312 341.631311 
L 604.852178 344.755671 
L 605.699044 339.949514 
L 606.54591 338.339768 
L 607.392776 348.914804 
L 608.239642 348.454128 
L 609.086508 346.898559 
L 609.933374 343.692282 
L 610.78024 334.549255 
L 611.627106 340.941708 
L 612.473972 337.489599 
L 613.320838 341.522738 
L 614.167704 331.90198 
L 615.861436 339.067874 
L 616.708302 338.097171 
L 617.555168 335.256108 
L 618.402034 342.033476 
L 619.2489 343.349145 
L 620.095766 342.824569 
L 620.942632 347.341254 
L 621.789498 346.976454 
L 622.636364 347.302962 
L 622.636364 347.302962 
" clip-path="url(#paa4433db7d)" style="fill: none; stroke: #ff0000; stroke-width: 2; stroke-linecap: square"/>
   </g>
   <g id="line2d_34">
    <path d="M 115.363636 82.08 
L 117.057368 215.338061 
L 117.904234 228.745963 
L 118.7511 244.560915 
L 119.597966 231.203639 
L 120.444832 254.049301 
L 121.291698 258.62397 
L 122.138564 284.359768 
L 122.98543 280.667338 
L 123.832296 262.833157 
L 124.679162 282.041629 
L 125.526028 312.521114 
L 126.372894 302.168425 
L 127.21976 304.512781 
L 128.066626 294.510087 
L 128.913492 299.950197 
L 129.760358 290.918367 
L 130.607224 290.619571 
L 131.45409 301.979796 
L 132.300956 300.162414 
L 133.147822 274.367479 
L 133.994688 313.984749 
L 134.841554 310.890568 
L 135.68842 296.247938 
L 136.535286 289.54263 
L 137.382152 316.329452 
L 138.229018 308.470692 
L 139.075884 308.470853 
L 139.92275 295.070474 
L 140.769616 316.774548 
L 141.616482 296.541327 
L 142.463348 315.436534 
L 143.310214 306.29023 
L 144.15708 293.111367 
L 145.003946 301.996921 
L 145.850812 313.193615 
L 146.697678 299.401207 
L 147.544544 306.610636 
L 148.39141 314.829831 
L 149.238276 326.79771 
L 150.085142 317.58506 
L 150.932008 301.065872 
L 151.778874 301.029953 
L 152.62574 319.259453 
L 153.472606 322.056055 
L 154.319472 318.439419 
L 155.166338 315.325381 
L 156.013204 307.01616 
L 156.86007 322.06071 
L 157.706936 322.315918 
L 158.553802 321.75898 
L 159.400668 311.470393 
L 160.247534 308.851295 
L 161.0944 318.60689 
L 162.788132 314.336761 
L 163.634998 319.645938 
L 164.481864 309.131041 
L 165.32873 318.64154 
L 166.175596 321.792269 
L 167.022462 318.738515 
L 167.869328 326.318537 
L 168.716194 311.385699 
L 169.56306 318.338658 
L 170.409926 309.220083 
L 171.256792 323.110497 
L 172.103658 320.545996 
L 172.950524 303.793162 
L 173.79739 320.563524 
L 174.644256 314.864556 
L 175.491122 307.228882 
L 176.337988 324.7551 
L 177.184854 322.379649 
L 178.03172 318.864717 
L 178.878586 321.971573 
L 179.725452 327.458804 
L 180.572317 324.561789 
L 181.419183 328.594024 
L 182.266049 301.02659 
L 183.112915 318.816863 
L 183.959781 318.200376 
L 184.806647 305.46018 
L 185.653513 322.11942 
L 186.500379 327.621659 
L 187.347245 319.116301 
L 188.194111 328.093686 
L 189.040977 318.195943 
L 189.887843 317.198058 
L 190.734709 312.418442 
L 191.581575 326.399516 
L 193.275307 320.188924 
L 194.122173 316.13915 
L 194.969039 315.514925 
L 195.815905 320.57035 
L 196.662771 316.384205 
L 197.509637 321.495456 
L 198.356503 313.007755 
L 199.203369 320.974204 
L 200.050235 324.815312 
L 200.897101 311.886784 
L 201.743967 312.839463 
L 202.590833 319.132512 
L 203.437699 335.285696 
L 204.284565 332.117357 
L 205.131431 325.370507 
L 205.978297 327.149722 
L 206.825163 326.047223 
L 207.672029 316.315152 
L 208.518895 323.476008 
L 209.365761 322.328649 
L 210.212627 324.453414 
L 211.059493 325.746742 
L 211.906359 330.709335 
L 212.753225 327.384673 
L 213.600091 315.611792 
L 214.446957 323.19127 
L 215.293823 319.183828 
L 216.140689 324.364353 
L 216.987555 327.504112 
L 217.834421 315.044603 
L 219.528153 330.726898 
L 220.375019 336.018116 
L 221.221885 326.748882 
L 222.068751 326.651708 
L 222.915617 322.405636 
L 223.762483 326.225252 
L 224.609349 328.251755 
L 225.456215 332.247695 
L 226.303081 326.118841 
L 227.149947 332.436026 
L 227.996813 332.635776 
L 228.843679 338.134462 
L 229.690545 326.409179 
L 230.537411 334.682594 
L 231.384277 324.682818 
L 232.231143 326.963371 
L 233.078009 337.218427 
L 233.924875 325.512962 
L 234.771741 332.740188 
L 235.618607 328.222774 
L 236.465473 326.858814 
L 237.312339 322.994567 
L 238.159205 331.814228 
L 239.006071 326.956412 
L 239.852937 332.987021 
L 240.699803 327.744547 
L 241.546669 337.19043 
L 242.393535 331.30947 
L 243.240401 330.887665 
L 244.087267 306.897208 
L 244.934133 329.485775 
L 245.780999 329.515085 
L 246.627865 326.248142 
L 247.474731 333.620291 
L 248.321597 337.150891 
L 249.168463 336.143055 
L 250.015329 329.639187 
L 250.862195 333.654703 
L 251.709061 319.993469 
L 252.555927 324.254736 
L 253.402793 335.216162 
L 254.249659 337.685528 
L 255.096525 332.480785 
L 255.94339 332.288955 
L 256.790256 329.189427 
L 257.637122 337.395714 
L 258.483988 339.993525 
L 259.330854 334.980156 
L 260.17772 335.051544 
L 261.024586 336.962057 
L 261.871452 333.527968 
L 262.718318 330.713043 
L 263.565184 324.767126 
L 264.41205 326.762245 
L 265.258916 335.669172 
L 266.105782 333.863227 
L 266.952648 339.243939 
L 267.799514 335.72336 
L 268.64638 330.191073 
L 269.493246 330.949478 
L 271.186978 340.825081 
L 272.033844 325.909788 
L 272.88071 337.110482 
L 273.727576 338.96614 
L 274.574442 327.958956 
L 275.421308 334.664389 
L 276.268174 336.779657 
L 277.11504 333.907775 
L 277.961906 337.079782 
L 278.808772 331.891227 
L 279.655638 336.422816 
L 280.502504 336.288234 
L 281.34937 331.398202 
L 282.196236 333.016099 
L 283.043102 328.432625 
L 283.889968 328.021754 
L 284.736834 337.855383 
L 285.5837 333.720017 
L 286.430566 337.001753 
L 287.277432 333.963993 
L 288.124298 334.561559 
L 288.971164 332.620597 
L 289.81803 337.777979 
L 290.664896 310.68429 
L 291.511762 304.696282 
L 292.358628 338.336624 
L 293.205494 329.048687 
L 294.05236 321.501304 
L 294.899226 333.094187 
L 295.746092 335.868415 
L 296.592958 340.009892 
L 297.439824 336.888319 
L 298.28669 334.875418 
L 299.133556 341.218723 
L 299.980422 343.693535 
L 300.827288 343.413514 
L 301.674154 328.890051 
L 302.52102 337.360775 
L 303.367886 330.873651 
L 304.214752 333.714944 
L 305.061618 332.936189 
L 305.908484 330.897457 
L 306.75535 336.472415 
L 307.602216 331.93145 
L 309.295948 327.121072 
L 310.142814 341.781047 
L 310.98968 331.990105 
L 311.836546 335.016602 
L 312.683412 339.319006 
L 313.530278 337.244806 
L 314.377144 336.785243 
L 315.22401 343.113843 
L 316.070876 318.683785 
L 316.917742 336.229599 
L 317.764608 340.094954 
L 318.611474 336.226509 
L 319.45834 334.725516 
L 320.305206 340.071034 
L 321.152072 337.70618 
L 321.998938 341.973149 
L 322.845804 345.652582 
L 323.69267 338.546143 
L 324.539536 339.621045 
L 325.386402 312.070956 
L 326.233268 337.69153 
L 327.080134 333.993834 
L 327.927 333.812483 
L 328.773866 330.365514 
L 329.620732 336.518519 
L 330.467598 334.82435 
L 331.314463 333.893701 
L 332.161329 332.099616 
L 333.008195 343.244204 
L 333.855061 328.295971 
L 334.701927 332.259552 
L 335.548793 340.553651 
L 336.395659 337.090618 
L 337.242525 338.261642 
L 338.089391 333.225402 
L 338.936257 332.597069 
L 339.783123 335.311055 
L 340.629989 336.624427 
L 341.476855 341.951685 
L 342.323721 337.280843 
L 343.170587 330.462046 
L 344.017453 337.911093 
L 344.864319 332.3326 
L 345.711185 330.465378 
L 346.558051 331.260993 
L 347.404917 335.703719 
L 348.251783 334.457066 
L 349.098649 336.904255 
L 349.945515 328.962412 
L 350.792381 334.872705 
L 351.639247 337.975636 
L 352.486113 337.166379 
L 353.332979 338.069948 
L 354.179845 335.635441 
L 355.026711 333.626937 
L 355.873577 336.017014 
L 356.720443 340.150331 
L 357.567309 333.951356 
L 358.414175 335.103571 
L 359.261041 333.596379 
L 360.107907 332.786577 
L 360.954773 337.066141 
L 361.801639 339.433758 
L 362.648505 341.224257 
L 363.495371 342.48241 
L 364.342237 336.126316 
L 365.189103 333.992816 
L 366.035969 342.556239 
L 366.882835 344.972642 
L 367.729701 334.692264 
L 368.576567 344.906812 
L 369.423433 330.163805 
L 370.270299 337.736359 
L 371.117165 346.363667 
L 371.964031 338.463384 
L 372.810897 343.031992 
L 373.657763 342.654018 
L 374.504629 343.08783 
L 375.351495 343.286452 
L 376.198361 334.252335 
L 377.045227 341.978021 
L 377.892093 329.638747 
L 378.738959 337.618158 
L 379.585825 335.443173 
L 380.432691 338.0619 
L 381.279557 332.797328 
L 382.126423 335.469188 
L 382.973289 326.024637 
L 383.820155 340.077421 
L 384.667021 340.261033 
L 385.513887 343.901422 
L 386.360753 336.8352 
L 387.207619 339.507446 
L 388.054485 338.12927 
L 388.901351 340.49378 
L 389.748217 337.632944 
L 390.595083 333.353876 
L 391.441949 335.870634 
L 392.288815 334.628277 
L 393.135681 340.716535 
L 393.982547 341.268795 
L 394.829413 343.657139 
L 395.676279 335.972087 
L 396.523145 340.685298 
L 397.370011 343.894929 
L 399.063743 340.292886 
L 399.910609 339.849264 
L 400.757475 346.005495 
L 401.604341 338.024409 
L 402.451207 341.795406 
L 403.298073 341.028456 
L 404.144939 346.845055 
L 404.991805 341.339092 
L 405.838671 342.209095 
L 406.685537 341.56417 
L 407.532402 332.748195 
L 408.379268 343.006563 
L 409.226134 342.489286 
L 410.073 339.942049 
L 410.919866 346.983346 
L 411.766732 345.686229 
L 412.613598 344.087323 
L 413.460464 340.7065 
L 414.30733 343.667773 
L 415.154196 340.708435 
L 416.001062 336.236215 
L 416.847928 336.827291 
L 417.694794 332.305596 
L 418.54166 347.104096 
L 419.388526 348.182015 
L 420.235392 339.936013 
L 421.082258 344.164699 
L 421.929124 336.96427 
L 422.77599 345.601533 
L 423.622856 347.464082 
L 424.469722 342.042494 
L 425.316588 339.359231 
L 426.163454 343.534979 
L 427.01032 342.142936 
L 427.857186 343.110292 
L 428.704052 342.462788 
L 429.550918 343.60363 
L 430.397784 341.802151 
L 431.24465 343.71605 
L 432.091516 348.062739 
L 432.938382 341.638926 
L 433.785248 338.746821 
L 434.632114 345.285245 
L 435.47898 345.356329 
L 436.325846 341.32793 
L 437.172712 342.911735 
L 438.019578 343.103992 
L 438.866444 345.698887 
L 439.71331 346.460089 
L 440.560176 340.032907 
L 441.407042 344.207869 
L 442.253908 341.115528 
L 443.100774 329.031559 
L 443.94764 339.695042 
L 444.794506 345.125415 
L 445.641372 342.471565 
L 446.488238 341.871809 
L 447.335104 340.093902 
L 448.18197 337.782749 
L 449.028836 336.114015 
L 449.875702 336.401865 
L 450.722568 338.536236 
L 451.569434 336.420373 
L 452.4163 341.489962 
L 453.263166 337.888849 
L 455.803764 345.973513 
L 456.65063 343.168936 
L 457.497496 333.227061 
L 458.344362 347.10058 
L 459.191228 339.25226 
L 460.038094 344.839817 
L 460.88496 344.914034 
L 461.731826 340.892585 
L 462.578692 333.603524 
L 463.425558 329.635795 
L 464.272424 337.727556 
L 465.11929 333.531054 
L 465.966156 346.745581 
L 466.813022 344.56553 
L 468.506754 333.188821 
L 469.35362 338.808204 
L 470.200486 340.19402 
L 471.047352 343.027414 
L 471.894218 333.706138 
L 472.741084 331.347792 
L 473.58795 332.668615 
L 474.434816 339.288224 
L 475.281682 340.971397 
L 476.128548 336.765168 
L 476.975414 344.187258 
L 477.82228 346.29732 
L 478.669146 347.02457 
L 479.516012 344.269272 
L 480.362878 342.245513 
L 481.209744 346.099935 
L 482.05661 348.739305 
L 482.903475 346.542978 
L 483.750341 343.956967 
L 484.597207 344.841046 
L 486.290939 334.939278 
L 487.137805 334.046106 
L 487.984671 345.243447 
L 488.831537 339.406819 
L 489.678403 342.793519 
L 490.525269 342.484498 
L 491.372135 340.184649 
L 492.219001 335.878883 
L 493.065867 344.566253 
L 493.912733 344.795036 
L 494.759599 346.876442 
L 496.453331 343.613202 
L 497.300197 342.84792 
L 498.147063 338.596011 
L 498.993929 344.107752 
L 500.687661 339.864711 
L 501.534527 342.791992 
L 502.381393 335.737039 
L 503.228259 342.378602 
L 504.075125 335.472067 
L 504.921991 335.56564 
L 505.768857 342.05427 
L 506.615723 341.759597 
L 507.462589 334.71721 
L 508.309455 336.540977 
L 509.156321 340.406927 
L 510.003187 341.85568 
L 510.850053 339.613398 
L 511.696919 339.898575 
L 512.543785 340.753011 
L 513.390651 347.476271 
L 514.237517 340.367409 
L 515.084383 341.373652 
L 515.931249 335.564669 
L 516.778115 336.1096 
L 517.624981 332.25142 
L 518.471847 334.626593 
L 519.318713 322.689895 
L 520.165579 335.609488 
L 521.012445 341.989412 
L 521.859311 342.037184 
L 522.706177 331.702234 
L 523.553043 335.62434 
L 524.399909 341.063501 
L 525.246775 342.297288 
L 526.093641 343.115914 
L 526.940507 342.267715 
L 527.787373 342.636763 
L 528.634239 346.397318 
L 529.481105 342.589056 
L 530.327971 340.31989 
L 531.174837 347.731868 
L 532.021703 343.551484 
L 532.868569 338.34291 
L 533.715435 343.301716 
L 534.562301 341.52404 
L 535.409167 340.470879 
L 536.256033 327.525156 
L 537.102899 341.051134 
L 537.949765 320.773311 
L 538.796631 340.829293 
L 539.643497 335.220101 
L 540.490363 339.536106 
L 541.337229 345.799783 
L 542.184095 339.104682 
L 543.030961 342.477968 
L 543.877827 335.181896 
L 544.724693 343.793622 
L 545.571559 342.170362 
L 546.418425 337.908091 
L 547.265291 344.501644 
L 548.112157 347.662266 
L 548.959023 350.048318 
L 549.805889 341.134004 
L 550.652755 335.097149 
L 551.499621 345.409586 
L 552.346487 342.087042 
L 553.193353 345.917956 
L 554.040219 339.009784 
L 554.887085 343.960649 
L 555.733951 343.98253 
L 556.580817 347.703586 
L 557.427683 344.416426 
L 558.274548 337.928454 
L 559.121414 337.653204 
L 559.96828 338.726867 
L 561.662012 341.365231 
L 562.508878 343.934107 
L 563.355744 345.151798 
L 564.20261 332.759141 
L 565.049476 330.584749 
L 565.896342 335.92552 
L 566.743208 343.021992 
L 567.590074 341.742411 
L 568.43694 344.908237 
L 569.283806 330.610107 
L 570.130672 344.464167 
L 570.977538 342.751441 
L 571.824404 337.306559 
L 572.67127 339.735877 
L 573.518136 337.897858 
L 574.365002 334.028772 
L 575.211868 343.471293 
L 576.058734 332.248593 
L 576.9056 333.945252 
L 577.752466 340.95752 
L 578.599332 335.382325 
L 579.446198 337.823089 
L 580.293064 340.885885 
L 581.13993 349.120702 
L 581.986796 349.462711 
L 582.833662 346.57718 
L 583.680528 347.10093 
L 584.527394 345.069048 
L 585.37426 339.861687 
L 586.221126 349.388566 
L 587.067992 348.787895 
L 587.914858 344.581133 
L 588.761724 337.147487 
L 589.60859 345.214132 
L 590.455456 346.869869 
L 591.302322 351.887402 
L 592.149188 346.419065 
L 592.996054 337.301146 
L 593.84292 344.53692 
L 594.689786 340.136676 
L 595.536652 344.584082 
L 596.383518 343.536395 
L 597.230384 339.296597 
L 598.07725 343.110938 
L 598.924116 338.063158 
L 599.770982 342.550575 
L 600.617848 341.886082 
L 601.464714 349.05433 
L 602.31158 348.399732 
L 603.158446 344.257294 
L 604.005312 340.948476 
L 604.852178 343.532791 
L 605.699044 338.902718 
L 606.54591 337.790457 
L 607.392776 346.713433 
L 608.239642 347.713086 
L 609.086508 345.587024 
L 609.933374 344.694049 
L 610.78024 336.099582 
L 611.627106 339.814628 
L 612.473972 336.878111 
L 613.320838 340.314139 
L 614.167704 330.28061 
L 615.01457 334.23122 
L 615.861436 337.417654 
L 616.708302 336.197672 
L 617.555168 333.604775 
L 618.402034 341.734895 
L 619.2489 342.735092 
L 620.095766 342.298576 
L 620.942632 347.403847 
L 622.636364 348.014355 
L 622.636364 348.014355 
" clip-path="url(#paa4433db7d)" style="fill: none; stroke-dasharray: 7.4,3.2; stroke-dashoffset: 0; stroke: #ffa500; stroke-width: 2"/>
   </g>
   <g id="patch_3">
    <path d="M 90 384.48 
L 90 51.84 
" style="fill: none; stroke: #000000; stroke-width: 0.8; stroke-linejoin: miter; stroke-linecap: square"/>
   </g>
   <g id="patch_4">
    <path d="M 648 384.48 
L 648 51.84 
" style="fill: none; stroke: #000000; stroke-width: 0.8; stroke-linejoin: miter; stroke-linecap: square"/>
   </g>
   <g id="patch_5">
    <path d="M 90 384.48 
L 648 384.48 
" style="fill: none; stroke: #000000; stroke-width: 0.8; stroke-linejoin: miter; stroke-linecap: square"/>
   </g>
   <g id="patch_6">
    <path d="M 90 51.84 
L 648 51.84 
" style="fill: none; stroke: #000000; stroke-width: 0.8; stroke-linejoin: miter; stroke-linecap: square"/>
   </g>
   <g id="text_19">
    <!-- Training and Testing Loss (Learning Rate: 0.1) -->
    <g transform="translate(186.72875 45.84) scale(0.16 -0.16)">
     <defs>
      <path id="DejaVuSans-54" d="M -19 4666 
L 3928 4666 
L 3928 4134 
L 2272 4134 
L 2272 0 
L 1638 0 
L 1638 4134 
L -19 4134 
L -19 4666 
z
" transform="scale(0.015625)"/>
      <path id="DejaVuSans-67" d="M 2906 1791 
Q 2906 2416 2648 2759 
Q 2391 3103 1925 3103 
Q 1463 3103 1205 2759 
Q 947 2416 947 1791 
Q 947 1169 1205 825 
Q 1463 481 1925 481 
Q 2391 481 2648 825 
Q 2906 1169 2906 1791 
z
M 3481 434 
Q 3481 -459 3084 -895 
Q 2688 -1331 1869 -1331 
Q 1566 -1331 1297 -1286 
Q 1028 -1241 775 -1147 
L 775 -588 
Q 1028 -725 1275 -790 
Q 1522 -856 1778 -856 
Q 2344 -856 2625 -561 
Q 2906 -266 2906 331 
L 2906 616 
Q 2728 306 2450 153 
Q 2172 0 1784 0 
Q 1141 0 747 490 
Q 353 981 353 1791 
Q 353 2603 747 3093 
Q 1141 3584 1784 3584 
Q 2172 3584 2450 3431 
Q 2728 3278 2906 2969 
L 2906 3500 
L 3481 3500 
L 3481 434 
z
" transform="scale(0.015625)"/>
      <path id="DejaVuSans-20" transform="scale(0.015625)"/>
      <path id="DejaVuSans-64" d="M 2906 2969 
L 2906 4863 
L 3481 4863 
L 3481 0 
L 2906 0 
L 2906 525 
Q 2725 213 2448 61 
Q 2172 -91 1784 -91 
Q 1150 -91 751 415 
Q 353 922 353 1747 
Q 353 2572 751 3078 
Q 1150 3584 1784 3584 
Q 2172 3584 2448 3432 
Q 2725 3281 2906 2969 
z
M 947 1747 
Q 947 1113 1208 752 
Q 1469 391 1925 391 
Q 2381 391 2643 752 
Q 2906 1113 2906 1747 
Q 2906 2381 2643 2742 
Q 2381 3103 1925 3103 
Q 1469 3103 1208 2742 
Q 947 2381 947 1747 
z
" transform="scale(0.015625)"/>
      <path id="DejaVuSans-28" d="M 1984 4856 
Q 1566 4138 1362 3434 
Q 1159 2731 1159 2009 
Q 1159 1288 1364 580 
Q 1569 -128 1984 -844 
L 1484 -844 
Q 1016 -109 783 600 
Q 550 1309 550 2009 
Q 550 2706 781 3412 
Q 1013 4119 1484 4856 
L 1984 4856 
z
" transform="scale(0.015625)"/>
      <path id="DejaVuSans-52" d="M 2841 2188 
Q 3044 2119 3236 1894 
Q 3428 1669 3622 1275 
L 4263 0 
L 3584 0 
L 2988 1197 
Q 2756 1666 2539 1819 
Q 2322 1972 1947 1972 
L 1259 1972 
L 1259 0 
L 628 0 
L 628 4666 
L 2053 4666 
Q 2853 4666 3247 4331 
Q 3641 3997 3641 3322 
Q 3641 2881 3436 2590 
Q 3231 2300 2841 2188 
z
M 1259 4147 
L 1259 2491 
L 2053 2491 
Q 2509 2491 2742 2702 
Q 2975 2913 2975 3322 
Q 2975 3731 2742 3939 
Q 2509 4147 2053 4147 
L 1259 4147 
z
" transform="scale(0.015625)"/>
      <path id="DejaVuSans-3a" d="M 750 794 
L 1409 794 
L 1409 0 
L 750 0 
L 750 794 
z
M 750 3309 
L 1409 3309 
L 1409 2516 
L 750 2516 
L 750 3309 
z
" transform="scale(0.015625)"/>
      <path id="DejaVuSans-29" d="M 513 4856 
L 1013 4856 
Q 1481 4119 1714 3412 
Q 1947 2706 1947 2009 
Q 1947 1309 1714 600 
Q 1481 -109 1013 -844 
L 513 -844 
Q 928 -128 1133 580 
Q 1338 1288 1338 2009 
Q 1338 2731 1133 3434 
Q 928 4138 513 4856 
z
" transform="scale(0.015625)"/>
     </defs>
     <use xlink:href="#DejaVuSans-54"/>
     <use xlink:href="#DejaVuSans-72" x="46.333984"/>
     <use xlink:href="#DejaVuSans-61" x="87.447266"/>
     <use xlink:href="#DejaVuSans-69" x="148.726562"/>
     <use xlink:href="#DejaVuSans-6e" x="176.509766"/>
     <use xlink:href="#DejaVuSans-69" x="239.888672"/>
     <use xlink:href="#DejaVuSans-6e" x="267.671875"/>
     <use xlink:href="#DejaVuSans-67" x="331.050781"/>
     <use xlink:href="#DejaVuSans-20" x="394.527344"/>
     <use xlink:href="#DejaVuSans-61" x="426.314453"/>
     <use xlink:href="#DejaVuSans-6e" x="487.59375"/>
     <use xlink:href="#DejaVuSans-64" x="550.972656"/>
     <use xlink:href="#DejaVuSans-20" x="614.449219"/>
     <use xlink:href="#DejaVuSans-54" x="646.236328"/>
     <use xlink:href="#DejaVuSans-65" x="690.320312"/>
     <use xlink:href="#DejaVuSans-73" x="751.84375"/>
     <use xlink:href="#DejaVuSans-74" x="803.943359"/>
     <use xlink:href="#DejaVuSans-69" x="843.152344"/>
     <use xlink:href="#DejaVuSans-6e" x="870.935547"/>
     <use xlink:href="#DejaVuSans-67" x="934.314453"/>
     <use xlink:href="#DejaVuSans-20" x="997.791016"/>
     <use xlink:href="#DejaVuSans-4c" x="1029.578125"/>
     <use xlink:href="#DejaVuSans-6f" x="1083.541016"/>
     <use xlink:href="#DejaVuSans-73" x="1144.722656"/>
     <use xlink:href="#DejaVuSans-73" x="1196.822266"/>
     <use xlink:href="#DejaVuSans-20" x="1248.921875"/>
     <use xlink:href="#DejaVuSans-28" x="1280.708984"/>
     <use xlink:href="#DejaVuSans-4c" x="1319.722656"/>
     <use xlink:href="#DejaVuSans-65" x="1373.685547"/>
     <use xlink:href="#DejaVuSans-61" x="1435.208984"/>
     <use xlink:href="#DejaVuSans-72" x="1496.488281"/>
     <use xlink:href="#DejaVuSans-6e" x="1535.851562"/>
     <use xlink:href="#DejaVuSans-69" x="1599.230469"/>
     <use xlink:href="#DejaVuSans-6e" x="1627.013672"/>
     <use xlink:href="#DejaVuSans-67" x="1690.392578"/>
     <use xlink:href="#DejaVuSans-20" x="1753.869141"/>
     <use xlink:href="#DejaVuSans-52" x="1785.65625"/>
     <use xlink:href="#DejaVuSans-61" x="1852.888672"/>
     <use xlink:href="#DejaVuSans-74" x="1914.167969"/>
     <use xlink:href="#DejaVuSans-65" x="1953.376953"/>
     <use xlink:href="#DejaVuSans-3a" x="2014.900391"/>
     <use xlink:href="#DejaVuSans-20" x="2048.591797"/>
     <use xlink:href="#DejaVuSans-30" x="2080.378906"/>
     <use xlink:href="#DejaVuSans-2e" x="2144.001953"/>
     <use xlink:href="#DejaVuSans-31" x="2175.789062"/>
     <use xlink:href="#DejaVuSans-29" x="2239.412109"/>
    </g>
   </g>
   <g id="legend_1">
    <g id="patch_7">
     <path d="M 544.435938 89.19625 
L 641 89.19625 
Q 643 89.19625 643 87.19625 
L 643 58.84 
Q 643 56.84 641 56.84 
L 544.435938 56.84 
Q 542.435938 56.84 542.435938 58.84 
L 542.435938 87.19625 
Q 542.435938 89.19625 544.435938 89.19625 
z
" style="fill: #ffffff; opacity: 0.8; stroke: #cccccc; stroke-linejoin: miter"/>
    </g>
    <g id="line2d_35">
     <path d="M 546.435938 64.938437 
L 556.435938 64.938437 
L 566.435938 64.938437 
" style="fill: none; stroke: #ff0000; stroke-width: 2; stroke-linecap: square"/>
    </g>
    <g id="text_20">
     <!-- Training Loss -->
     <g transform="translate(574.435938 68.438437) scale(0.1 -0.1)">
      <use xlink:href="#DejaVuSans-54"/>
      <use xlink:href="#DejaVuSans-72" x="46.333984"/>
      <use xlink:href="#DejaVuSans-61" x="87.447266"/>
      <use xlink:href="#DejaVuSans-69" x="148.726562"/>
      <use xlink:href="#DejaVuSans-6e" x="176.509766"/>
      <use xlink:href="#DejaVuSans-69" x="239.888672"/>
      <use xlink:href="#DejaVuSans-6e" x="267.671875"/>
      <use xlink:href="#DejaVuSans-67" x="331.050781"/>
      <use xlink:href="#DejaVuSans-20" x="394.527344"/>
      <use xlink:href="#DejaVuSans-4c" x="426.314453"/>
      <use xlink:href="#DejaVuSans-6f" x="480.277344"/>
      <use xlink:href="#DejaVuSans-73" x="541.458984"/>
      <use xlink:href="#DejaVuSans-73" x="593.558594"/>
     </g>
    </g>
    <g id="line2d_36">
     <path d="M 546.435938 79.616562 
L 556.435938 79.616562 
L 566.435938 79.616562 
" style="fill: none; stroke-dasharray: 7.4,3.2; stroke-dashoffset: 0; stroke: #ffa500; stroke-width: 2"/>
    </g>
    <g id="text_21">
     <!-- Testing Loss -->
     <g transform="translate(574.435938 83.116562) scale(0.1 -0.1)">
      <use xlink:href="#DejaVuSans-54"/>
      <use xlink:href="#DejaVuSans-65" x="44.083984"/>
      <use xlink:href="#DejaVuSans-73" x="105.607422"/>
      <use xlink:href="#DejaVuSans-74" x="157.707031"/>
      <use xlink:href="#DejaVuSans-69" x="196.916016"/>
      <use xlink:href="#DejaVuSans-6e" x="224.699219"/>
      <use xlink:href="#DejaVuSans-67" x="288.078125"/>
      <use xlink:href="#DejaVuSans-20" x="351.554688"/>
      <use xlink:href="#DejaVuSans-4c" x="383.341797"/>
      <use xlink:href="#DejaVuSans-6f" x="437.304688"/>
      <use xlink:href="#DejaVuSans-73" x="498.486328"/>
      <use xlink:href="#DejaVuSans-73" x="550.585938"/>
     </g>
    </g>
   </g>
  </g>
 </g>
 <defs>
  <clipPath id="paa4433db7d">
   <rect x="90" y="51.84" width="558" height="332.64"/>
  </clipPath>
 </defs>
</svg>
