<?xml version="1.0" encoding="utf-8" standalone="no"?>
<!DOCTYPE svg PUBLIC "-//W3C//DTD SVG 1.1//EN"
  "http://www.w3.org/Graphics/SVG/1.1/DTD/svg11.dtd">
<svg xmlns:xlink="http://www.w3.org/1999/xlink" width="720pt" height="432pt" viewBox="0 0 720 432" xmlns="http://www.w3.org/2000/svg" version="1.1">
 <metadata>
  <rdf:RDF xmlns:dc="http://purl.org/dc/elements/1.1/" xmlns:cc="http://creativecommons.org/ns#" xmlns:rdf="http://www.w3.org/1999/02/22-rdf-syntax-ns#">
   <cc:Work>
    <dc:type rdf:resource="http://purl.org/dc/dcmitype/StillImage"/>
    <dc:date>2024-05-19T16:20:33.818378</dc:date>
    <dc:format>image/svg+xml</dc:format>
    <dc:creator>
     <cc:Agent>
      <dc:title>Matplotlib v3.6.2, https://matplotlib.org/</dc:title>
     </cc:Agent>
    </dc:creator>
   </cc:Work>
  </rdf:RDF>
 </metadata>
 <defs>
  <style type="text/css">*{stroke-linejoin: round; stroke-linecap: butt}</style>
 </defs>
 <g id="figure_1">
  <g id="patch_1">
   <path d="M 0 432 
L 720 432 
L 720 0 
L 0 0 
z
" style="fill: #ffffff"/>
  </g>
  <g id="axes_1">
   <g id="patch_2">
    <path d="M 90 384.48 
L 648 384.48 
L 648 51.84 
L 90 51.84 
z
" style="fill: #ffffff"/>
   </g>
   <g id="matplotlib.axis_1">
    <g id="xtick_1">
     <g id="line2d_1">
      <path d="M 115.363636 384.48 
L 115.363636 51.84 
" clip-path="url(#p378245e542)" style="fill: none; stroke: #b0b0b0; stroke-width: 0.8; stroke-linecap: square"/>
     </g>
     <g id="line2d_2">
      <defs>
       <path id="m27710fbd2a" d="M 0 0 
L 0 3.5 
" style="stroke: #000000; stroke-width: 0.8"/>
      </defs>
      <g>
       <use xlink:href="#m27710fbd2a" x="115.363636" y="384.48" style="stroke: #000000; stroke-width: 0.8"/>
      </g>
     </g>
     <g id="text_1">
      <!-- 0 -->
      <g transform="translate(112.182386 399.078438) scale(0.1 -0.1)">
       <defs>
        <path id="DejaVuSans-30" d="M 2034 4250 
Q 1547 4250 1301 3770 
Q 1056 3291 1056 2328 
Q 1056 1369 1301 889 
Q 1547 409 2034 409 
Q 2525 409 2770 889 
Q 3016 1369 3016 2328 
Q 3016 3291 2770 3770 
Q 2525 4250 2034 4250 
z
M 2034 4750 
Q 2819 4750 3233 4129 
Q 3647 3509 3647 2328 
Q 3647 1150 3233 529 
Q 2819 -91 2034 -91 
Q 1250 -91 836 529 
Q 422 1150 422 2328 
Q 422 3509 836 4129 
Q 1250 4750 2034 4750 
z
" transform="scale(0.015625)"/>
       </defs>
       <use xlink:href="#DejaVuSans-30"/>
      </g>
     </g>
    </g>
    <g id="xtick_2">
     <g id="line2d_3">
      <path d="M 200.050235 384.48 
L 200.050235 51.84 
" clip-path="url(#p378245e542)" style="fill: none; stroke: #b0b0b0; stroke-width: 0.8; stroke-linecap: square"/>
     </g>
     <g id="line2d_4">
      <g>
       <use xlink:href="#m27710fbd2a" x="200.050235" y="384.48" style="stroke: #000000; stroke-width: 0.8"/>
      </g>
     </g>
     <g id="text_2">
      <!-- 10000 -->
      <g transform="translate(184.143985 399.078438) scale(0.1 -0.1)">
       <defs>
        <path id="DejaVuSans-31" d="M 794 531 
L 1825 531 
L 1825 4091 
L 703 3866 
L 703 4441 
L 1819 4666 
L 2450 4666 
L 2450 531 
L 3481 531 
L 3481 0 
L 794 0 
L 794 531 
z
" transform="scale(0.015625)"/>
       </defs>
       <use xlink:href="#DejaVuSans-31"/>
       <use xlink:href="#DejaVuSans-30" x="63.623047"/>
       <use xlink:href="#DejaVuSans-30" x="127.246094"/>
       <use xlink:href="#DejaVuSans-30" x="190.869141"/>
       <use xlink:href="#DejaVuSans-30" x="254.492188"/>
      </g>
     </g>
    </g>
    <g id="xtick_3">
     <g id="line2d_5">
      <path d="M 284.736834 384.48 
L 284.736834 51.84 
" clip-path="url(#p378245e542)" style="fill: none; stroke: #b0b0b0; stroke-width: 0.8; stroke-linecap: square"/>
     </g>
     <g id="line2d_6">
      <g>
       <use xlink:href="#m27710fbd2a" x="284.736834" y="384.48" style="stroke: #000000; stroke-width: 0.8"/>
      </g>
     </g>
     <g id="text_3">
      <!-- 20000 -->
      <g transform="translate(268.830584 399.078438) scale(0.1 -0.1)">
       <defs>
        <path id="DejaVuSans-32" d="M 1228 531 
L 3431 531 
L 3431 0 
L 469 0 
L 469 531 
Q 828 903 1448 1529 
Q 2069 2156 2228 2338 
Q 2531 2678 2651 2914 
Q 2772 3150 2772 3378 
Q 2772 3750 2511 3984 
Q 2250 4219 1831 4219 
Q 1534 4219 1204 4116 
Q 875 4013 500 3803 
L 500 4441 
Q 881 4594 1212 4672 
Q 1544 4750 1819 4750 
Q 2544 4750 2975 4387 
Q 3406 4025 3406 3419 
Q 3406 3131 3298 2873 
Q 3191 2616 2906 2266 
Q 2828 2175 2409 1742 
Q 1991 1309 1228 531 
z
" transform="scale(0.015625)"/>
       </defs>
       <use xlink:href="#DejaVuSans-32"/>
       <use xlink:href="#DejaVuSans-30" x="63.623047"/>
       <use xlink:href="#DejaVuSans-30" x="127.246094"/>
       <use xlink:href="#DejaVuSans-30" x="190.869141"/>
       <use xlink:href="#DejaVuSans-30" x="254.492188"/>
      </g>
     </g>
    </g>
    <g id="xtick_4">
     <g id="line2d_7">
      <path d="M 369.423433 384.48 
L 369.423433 51.84 
" clip-path="url(#p378245e542)" style="fill: none; stroke: #b0b0b0; stroke-width: 0.8; stroke-linecap: square"/>
     </g>
     <g id="line2d_8">
      <g>
       <use xlink:href="#m27710fbd2a" x="369.423433" y="384.48" style="stroke: #000000; stroke-width: 0.8"/>
      </g>
     </g>
     <g id="text_4">
      <!-- 30000 -->
      <g transform="translate(353.517183 399.078438) scale(0.1 -0.1)">
       <defs>
        <path id="DejaVuSans-33" d="M 2597 2516 
Q 3050 2419 3304 2112 
Q 3559 1806 3559 1356 
Q 3559 666 3084 287 
Q 2609 -91 1734 -91 
Q 1441 -91 1130 -33 
Q 819 25 488 141 
L 488 750 
Q 750 597 1062 519 
Q 1375 441 1716 441 
Q 2309 441 2620 675 
Q 2931 909 2931 1356 
Q 2931 1769 2642 2001 
Q 2353 2234 1838 2234 
L 1294 2234 
L 1294 2753 
L 1863 2753 
Q 2328 2753 2575 2939 
Q 2822 3125 2822 3475 
Q 2822 3834 2567 4026 
Q 2313 4219 1838 4219 
Q 1578 4219 1281 4162 
Q 984 4106 628 3988 
L 628 4550 
Q 988 4650 1302 4700 
Q 1616 4750 1894 4750 
Q 2613 4750 3031 4423 
Q 3450 4097 3450 3541 
Q 3450 3153 3228 2886 
Q 3006 2619 2597 2516 
z
" transform="scale(0.015625)"/>
       </defs>
       <use xlink:href="#DejaVuSans-33"/>
       <use xlink:href="#DejaVuSans-30" x="63.623047"/>
       <use xlink:href="#DejaVuSans-30" x="127.246094"/>
       <use xlink:href="#DejaVuSans-30" x="190.869141"/>
       <use xlink:href="#DejaVuSans-30" x="254.492188"/>
      </g>
     </g>
    </g>
    <g id="xtick_5">
     <g id="line2d_9">
      <path d="M 454.110032 384.48 
L 454.110032 51.84 
" clip-path="url(#p378245e542)" style="fill: none; stroke: #b0b0b0; stroke-width: 0.8; stroke-linecap: square"/>
     </g>
     <g id="line2d_10">
      <g>
       <use xlink:href="#m27710fbd2a" x="454.110032" y="384.48" style="stroke: #000000; stroke-width: 0.8"/>
      </g>
     </g>
     <g id="text_5">
      <!-- 40000 -->
      <g transform="translate(438.203782 399.078438) scale(0.1 -0.1)">
       <defs>
        <path id="DejaVuSans-34" d="M 2419 4116 
L 825 1625 
L 2419 1625 
L 2419 4116 
z
M 2253 4666 
L 3047 4666 
L 3047 1625 
L 3713 1625 
L 3713 1100 
L 3047 1100 
L 3047 0 
L 2419 0 
L 2419 1100 
L 313 1100 
L 313 1709 
L 2253 4666 
z
" transform="scale(0.015625)"/>
       </defs>
       <use xlink:href="#DejaVuSans-34"/>
       <use xlink:href="#DejaVuSans-30" x="63.623047"/>
       <use xlink:href="#DejaVuSans-30" x="127.246094"/>
       <use xlink:href="#DejaVuSans-30" x="190.869141"/>
       <use xlink:href="#DejaVuSans-30" x="254.492188"/>
      </g>
     </g>
    </g>
    <g id="xtick_6">
     <g id="line2d_11">
      <path d="M 538.796631 384.48 
L 538.796631 51.84 
" clip-path="url(#p378245e542)" style="fill: none; stroke: #b0b0b0; stroke-width: 0.8; stroke-linecap: square"/>
     </g>
     <g id="line2d_12">
      <g>
       <use xlink:href="#m27710fbd2a" x="538.796631" y="384.48" style="stroke: #000000; stroke-width: 0.8"/>
      </g>
     </g>
     <g id="text_6">
      <!-- 50000 -->
      <g transform="translate(522.890381 399.078438) scale(0.1 -0.1)">
       <defs>
        <path id="DejaVuSans-35" d="M 691 4666 
L 3169 4666 
L 3169 4134 
L 1269 4134 
L 1269 2991 
Q 1406 3038 1543 3061 
Q 1681 3084 1819 3084 
Q 2600 3084 3056 2656 
Q 3513 2228 3513 1497 
Q 3513 744 3044 326 
Q 2575 -91 1722 -91 
Q 1428 -91 1123 -41 
Q 819 9 494 109 
L 494 744 
Q 775 591 1075 516 
Q 1375 441 1709 441 
Q 2250 441 2565 725 
Q 2881 1009 2881 1497 
Q 2881 1984 2565 2268 
Q 2250 2553 1709 2553 
Q 1456 2553 1204 2497 
Q 953 2441 691 2322 
L 691 4666 
z
" transform="scale(0.015625)"/>
       </defs>
       <use xlink:href="#DejaVuSans-35"/>
       <use xlink:href="#DejaVuSans-30" x="63.623047"/>
       <use xlink:href="#DejaVuSans-30" x="127.246094"/>
       <use xlink:href="#DejaVuSans-30" x="190.869141"/>
       <use xlink:href="#DejaVuSans-30" x="254.492188"/>
      </g>
     </g>
    </g>
    <g id="xtick_7">
     <g id="line2d_13">
      <path d="M 623.48323 384.48 
L 623.48323 51.84 
" clip-path="url(#p378245e542)" style="fill: none; stroke: #b0b0b0; stroke-width: 0.8; stroke-linecap: square"/>
     </g>
     <g id="line2d_14">
      <g>
       <use xlink:href="#m27710fbd2a" x="623.48323" y="384.48" style="stroke: #000000; stroke-width: 0.8"/>
      </g>
     </g>
     <g id="text_7">
      <!-- 60000 -->
      <g transform="translate(607.57698 399.078438) scale(0.1 -0.1)">
       <defs>
        <path id="DejaVuSans-36" d="M 2113 2584 
Q 1688 2584 1439 2293 
Q 1191 2003 1191 1497 
Q 1191 994 1439 701 
Q 1688 409 2113 409 
Q 2538 409 2786 701 
Q 3034 994 3034 1497 
Q 3034 2003 2786 2293 
Q 2538 2584 2113 2584 
z
M 3366 4563 
L 3366 3988 
Q 3128 4100 2886 4159 
Q 2644 4219 2406 4219 
Q 1781 4219 1451 3797 
Q 1122 3375 1075 2522 
Q 1259 2794 1537 2939 
Q 1816 3084 2150 3084 
Q 2853 3084 3261 2657 
Q 3669 2231 3669 1497 
Q 3669 778 3244 343 
Q 2819 -91 2113 -91 
Q 1303 -91 875 529 
Q 447 1150 447 2328 
Q 447 3434 972 4092 
Q 1497 4750 2381 4750 
Q 2619 4750 2861 4703 
Q 3103 4656 3366 4563 
z
" transform="scale(0.015625)"/>
       </defs>
       <use xlink:href="#DejaVuSans-36"/>
       <use xlink:href="#DejaVuSans-30" x="63.623047"/>
       <use xlink:href="#DejaVuSans-30" x="127.246094"/>
       <use xlink:href="#DejaVuSans-30" x="190.869141"/>
       <use xlink:href="#DejaVuSans-30" x="254.492188"/>
      </g>
     </g>
    </g>
    <g id="text_8">
     <!-- Iterations -->
     <g transform="translate(335.661406 415.795938) scale(0.14 -0.14)">
      <defs>
       <path id="DejaVuSans-49" d="M 628 4666 
L 1259 4666 
L 1259 0 
L 628 0 
L 628 4666 
z
" transform="scale(0.015625)"/>
       <path id="DejaVuSans-74" d="M 1172 4494 
L 1172 3500 
L 2356 3500 
L 2356 3053 
L 1172 3053 
L 1172 1153 
Q 1172 725 1289 603 
Q 1406 481 1766 481 
L 2356 481 
L 2356 0 
L 1766 0 
Q 1100 0 847 248 
Q 594 497 594 1153 
L 594 3053 
L 172 3053 
L 172 3500 
L 594 3500 
L 594 4494 
L 1172 4494 
z
" transform="scale(0.015625)"/>
       <path id="DejaVuSans-65" d="M 3597 1894 
L 3597 1613 
L 953 1613 
Q 991 1019 1311 708 
Q 1631 397 2203 397 
Q 2534 397 2845 478 
Q 3156 559 3463 722 
L 3463 178 
Q 3153 47 2828 -22 
Q 2503 -91 2169 -91 
Q 1331 -91 842 396 
Q 353 884 353 1716 
Q 353 2575 817 3079 
Q 1281 3584 2069 3584 
Q 2775 3584 3186 3129 
Q 3597 2675 3597 1894 
z
M 3022 2063 
Q 3016 2534 2758 2815 
Q 2500 3097 2075 3097 
Q 1594 3097 1305 2825 
Q 1016 2553 972 2059 
L 3022 2063 
z
" transform="scale(0.015625)"/>
       <path id="DejaVuSans-72" d="M 2631 2963 
Q 2534 3019 2420 3045 
Q 2306 3072 2169 3072 
Q 1681 3072 1420 2755 
Q 1159 2438 1159 1844 
L 1159 0 
L 581 0 
L 581 3500 
L 1159 3500 
L 1159 2956 
Q 1341 3275 1631 3429 
Q 1922 3584 2338 3584 
Q 2397 3584 2469 3576 
Q 2541 3569 2628 3553 
L 2631 2963 
z
" transform="scale(0.015625)"/>
       <path id="DejaVuSans-61" d="M 2194 1759 
Q 1497 1759 1228 1600 
Q 959 1441 959 1056 
Q 959 750 1161 570 
Q 1363 391 1709 391 
Q 2188 391 2477 730 
Q 2766 1069 2766 1631 
L 2766 1759 
L 2194 1759 
z
M 3341 1997 
L 3341 0 
L 2766 0 
L 2766 531 
Q 2569 213 2275 61 
Q 1981 -91 1556 -91 
Q 1019 -91 701 211 
Q 384 513 384 1019 
Q 384 1609 779 1909 
Q 1175 2209 1959 2209 
L 2766 2209 
L 2766 2266 
Q 2766 2663 2505 2880 
Q 2244 3097 1772 3097 
Q 1472 3097 1187 3025 
Q 903 2953 641 2809 
L 641 3341 
Q 956 3463 1253 3523 
Q 1550 3584 1831 3584 
Q 2591 3584 2966 3190 
Q 3341 2797 3341 1997 
z
" transform="scale(0.015625)"/>
       <path id="DejaVuSans-69" d="M 603 3500 
L 1178 3500 
L 1178 0 
L 603 0 
L 603 3500 
z
M 603 4863 
L 1178 4863 
L 1178 4134 
L 603 4134 
L 603 4863 
z
" transform="scale(0.015625)"/>
       <path id="DejaVuSans-6f" d="M 1959 3097 
Q 1497 3097 1228 2736 
Q 959 2375 959 1747 
Q 959 1119 1226 758 
Q 1494 397 1959 397 
Q 2419 397 2687 759 
Q 2956 1122 2956 1747 
Q 2956 2369 2687 2733 
Q 2419 3097 1959 3097 
z
M 1959 3584 
Q 2709 3584 3137 3096 
Q 3566 2609 3566 1747 
Q 3566 888 3137 398 
Q 2709 -91 1959 -91 
Q 1206 -91 779 398 
Q 353 888 353 1747 
Q 353 2609 779 3096 
Q 1206 3584 1959 3584 
z
" transform="scale(0.015625)"/>
       <path id="DejaVuSans-6e" d="M 3513 2113 
L 3513 0 
L 2938 0 
L 2938 2094 
Q 2938 2591 2744 2837 
Q 2550 3084 2163 3084 
Q 1697 3084 1428 2787 
Q 1159 2491 1159 1978 
L 1159 0 
L 581 0 
L 581 3500 
L 1159 3500 
L 1159 2956 
Q 1366 3272 1645 3428 
Q 1925 3584 2291 3584 
Q 2894 3584 3203 3211 
Q 3513 2838 3513 2113 
z
" transform="scale(0.015625)"/>
       <path id="DejaVuSans-73" d="M 2834 3397 
L 2834 2853 
Q 2591 2978 2328 3040 
Q 2066 3103 1784 3103 
Q 1356 3103 1142 2972 
Q 928 2841 928 2578 
Q 928 2378 1081 2264 
Q 1234 2150 1697 2047 
L 1894 2003 
Q 2506 1872 2764 1633 
Q 3022 1394 3022 966 
Q 3022 478 2636 193 
Q 2250 -91 1575 -91 
Q 1294 -91 989 -36 
Q 684 19 347 128 
L 347 722 
Q 666 556 975 473 
Q 1284 391 1588 391 
Q 1994 391 2212 530 
Q 2431 669 2431 922 
Q 2431 1156 2273 1281 
Q 2116 1406 1581 1522 
L 1381 1569 
Q 847 1681 609 1914 
Q 372 2147 372 2553 
Q 372 3047 722 3315 
Q 1072 3584 1716 3584 
Q 2034 3584 2315 3537 
Q 2597 3491 2834 3397 
z
" transform="scale(0.015625)"/>
      </defs>
      <use xlink:href="#DejaVuSans-49"/>
      <use xlink:href="#DejaVuSans-74" x="29.492188"/>
      <use xlink:href="#DejaVuSans-65" x="68.701172"/>
      <use xlink:href="#DejaVuSans-72" x="130.224609"/>
      <use xlink:href="#DejaVuSans-61" x="171.337891"/>
      <use xlink:href="#DejaVuSans-74" x="232.617188"/>
      <use xlink:href="#DejaVuSans-69" x="271.826172"/>
      <use xlink:href="#DejaVuSans-6f" x="299.609375"/>
      <use xlink:href="#DejaVuSans-6e" x="360.791016"/>
      <use xlink:href="#DejaVuSans-73" x="424.169922"/>
     </g>
    </g>
   </g>
   <g id="matplotlib.axis_2">
    <g id="ytick_1">
     <g id="line2d_15">
      <path d="M 90 384.48 
L 648 384.48 
" clip-path="url(#p378245e542)" style="fill: none; stroke: #b0b0b0; stroke-width: 0.8; stroke-linecap: square"/>
     </g>
     <g id="line2d_16">
      <defs>
       <path id="m8bc262a5fe" d="M 0 0 
L -3.5 0 
" style="stroke: #000000; stroke-width: 0.8"/>
      </defs>
      <g>
       <use xlink:href="#m8bc262a5fe" x="90" y="384.48" style="stroke: #000000; stroke-width: 0.8"/>
      </g>
     </g>
     <g id="text_9">
      <!-- 0.0 -->
      <g transform="translate(67.096875 388.279219) scale(0.1 -0.1)">
       <defs>
        <path id="DejaVuSans-2e" d="M 684 794 
L 1344 794 
L 1344 0 
L 684 0 
L 684 794 
z
" transform="scale(0.015625)"/>
       </defs>
       <use xlink:href="#DejaVuSans-30"/>
       <use xlink:href="#DejaVuSans-2e" x="63.623047"/>
       <use xlink:href="#DejaVuSans-30" x="95.410156"/>
      </g>
     </g>
    </g>
    <g id="ytick_2">
     <g id="line2d_17">
      <path d="M 90 344.703085 
L 648 344.703085 
" clip-path="url(#p378245e542)" style="fill: none; stroke: #b0b0b0; stroke-width: 0.8; stroke-linecap: square"/>
     </g>
     <g id="line2d_18">
      <g>
       <use xlink:href="#m8bc262a5fe" x="90" y="344.703085" style="stroke: #000000; stroke-width: 0.8"/>
      </g>
     </g>
     <g id="text_10">
      <!-- 0.2 -->
      <g transform="translate(67.096875 348.502303) scale(0.1 -0.1)">
       <use xlink:href="#DejaVuSans-30"/>
       <use xlink:href="#DejaVuSans-2e" x="63.623047"/>
       <use xlink:href="#DejaVuSans-32" x="95.410156"/>
      </g>
     </g>
    </g>
    <g id="ytick_3">
     <g id="line2d_19">
      <path d="M 90 304.926169 
L 648 304.926169 
" clip-path="url(#p378245e542)" style="fill: none; stroke: #b0b0b0; stroke-width: 0.8; stroke-linecap: square"/>
     </g>
     <g id="line2d_20">
      <g>
       <use xlink:href="#m8bc262a5fe" x="90" y="304.926169" style="stroke: #000000; stroke-width: 0.8"/>
      </g>
     </g>
     <g id="text_11">
      <!-- 0.4 -->
      <g transform="translate(67.096875 308.725388) scale(0.1 -0.1)">
       <use xlink:href="#DejaVuSans-30"/>
       <use xlink:href="#DejaVuSans-2e" x="63.623047"/>
       <use xlink:href="#DejaVuSans-34" x="95.410156"/>
      </g>
     </g>
    </g>
    <g id="ytick_4">
     <g id="line2d_21">
      <path d="M 90 265.149254 
L 648 265.149254 
" clip-path="url(#p378245e542)" style="fill: none; stroke: #b0b0b0; stroke-width: 0.8; stroke-linecap: square"/>
     </g>
     <g id="line2d_22">
      <g>
       <use xlink:href="#m8bc262a5fe" x="90" y="265.149254" style="stroke: #000000; stroke-width: 0.8"/>
      </g>
     </g>
     <g id="text_12">
      <!-- 0.6 -->
      <g transform="translate(67.096875 268.948473) scale(0.1 -0.1)">
       <use xlink:href="#DejaVuSans-30"/>
       <use xlink:href="#DejaVuSans-2e" x="63.623047"/>
       <use xlink:href="#DejaVuSans-36" x="95.410156"/>
      </g>
     </g>
    </g>
    <g id="ytick_5">
     <g id="line2d_23">
      <path d="M 90 225.372338 
L 648 225.372338 
" clip-path="url(#p378245e542)" style="fill: none; stroke: #b0b0b0; stroke-width: 0.8; stroke-linecap: square"/>
     </g>
     <g id="line2d_24">
      <g>
       <use xlink:href="#m8bc262a5fe" x="90" y="225.372338" style="stroke: #000000; stroke-width: 0.8"/>
      </g>
     </g>
     <g id="text_13">
      <!-- 0.8 -->
      <g transform="translate(67.096875 229.171557) scale(0.1 -0.1)">
       <defs>
        <path id="DejaVuSans-38" d="M 2034 2216 
Q 1584 2216 1326 1975 
Q 1069 1734 1069 1313 
Q 1069 891 1326 650 
Q 1584 409 2034 409 
Q 2484 409 2743 651 
Q 3003 894 3003 1313 
Q 3003 1734 2745 1975 
Q 2488 2216 2034 2216 
z
M 1403 2484 
Q 997 2584 770 2862 
Q 544 3141 544 3541 
Q 544 4100 942 4425 
Q 1341 4750 2034 4750 
Q 2731 4750 3128 4425 
Q 3525 4100 3525 3541 
Q 3525 3141 3298 2862 
Q 3072 2584 2669 2484 
Q 3125 2378 3379 2068 
Q 3634 1759 3634 1313 
Q 3634 634 3220 271 
Q 2806 -91 2034 -91 
Q 1263 -91 848 271 
Q 434 634 434 1313 
Q 434 1759 690 2068 
Q 947 2378 1403 2484 
z
M 1172 3481 
Q 1172 3119 1398 2916 
Q 1625 2713 2034 2713 
Q 2441 2713 2670 2916 
Q 2900 3119 2900 3481 
Q 2900 3844 2670 4047 
Q 2441 4250 2034 4250 
Q 1625 4250 1398 4047 
Q 1172 3844 1172 3481 
z
" transform="scale(0.015625)"/>
       </defs>
       <use xlink:href="#DejaVuSans-30"/>
       <use xlink:href="#DejaVuSans-2e" x="63.623047"/>
       <use xlink:href="#DejaVuSans-38" x="95.410156"/>
      </g>
     </g>
    </g>
    <g id="ytick_6">
     <g id="line2d_25">
      <path d="M 90 185.595423 
L 648 185.595423 
" clip-path="url(#p378245e542)" style="fill: none; stroke: #b0b0b0; stroke-width: 0.8; stroke-linecap: square"/>
     </g>
     <g id="line2d_26">
      <g>
       <use xlink:href="#m8bc262a5fe" x="90" y="185.595423" style="stroke: #000000; stroke-width: 0.8"/>
      </g>
     </g>
     <g id="text_14">
      <!-- 1.0 -->
      <g transform="translate(67.096875 189.394642) scale(0.1 -0.1)">
       <use xlink:href="#DejaVuSans-31"/>
       <use xlink:href="#DejaVuSans-2e" x="63.623047"/>
       <use xlink:href="#DejaVuSans-30" x="95.410156"/>
      </g>
     </g>
    </g>
    <g id="ytick_7">
     <g id="line2d_27">
      <path d="M 90 145.818508 
L 648 145.818508 
" clip-path="url(#p378245e542)" style="fill: none; stroke: #b0b0b0; stroke-width: 0.8; stroke-linecap: square"/>
     </g>
     <g id="line2d_28">
      <g>
       <use xlink:href="#m8bc262a5fe" x="90" y="145.818508" style="stroke: #000000; stroke-width: 0.8"/>
      </g>
     </g>
     <g id="text_15">
      <!-- 1.2 -->
      <g transform="translate(67.096875 149.617726) scale(0.1 -0.1)">
       <use xlink:href="#DejaVuSans-31"/>
       <use xlink:href="#DejaVuSans-2e" x="63.623047"/>
       <use xlink:href="#DejaVuSans-32" x="95.410156"/>
      </g>
     </g>
    </g>
    <g id="ytick_8">
     <g id="line2d_29">
      <path d="M 90 106.041592 
L 648 106.041592 
" clip-path="url(#p378245e542)" style="fill: none; stroke: #b0b0b0; stroke-width: 0.8; stroke-linecap: square"/>
     </g>
     <g id="line2d_30">
      <g>
       <use xlink:href="#m8bc262a5fe" x="90" y="106.041592" style="stroke: #000000; stroke-width: 0.8"/>
      </g>
     </g>
     <g id="text_16">
      <!-- 1.4 -->
      <g transform="translate(67.096875 109.840811) scale(0.1 -0.1)">
       <use xlink:href="#DejaVuSans-31"/>
       <use xlink:href="#DejaVuSans-2e" x="63.623047"/>
       <use xlink:href="#DejaVuSans-34" x="95.410156"/>
      </g>
     </g>
    </g>
    <g id="ytick_9">
     <g id="line2d_31">
      <path d="M 90 66.264677 
L 648 66.264677 
" clip-path="url(#p378245e542)" style="fill: none; stroke: #b0b0b0; stroke-width: 0.8; stroke-linecap: square"/>
     </g>
     <g id="line2d_32">
      <g>
       <use xlink:href="#m8bc262a5fe" x="90" y="66.264677" style="stroke: #000000; stroke-width: 0.8"/>
      </g>
     </g>
     <g id="text_17">
      <!-- 1.6 -->
      <g transform="translate(67.096875 70.063895) scale(0.1 -0.1)">
       <use xlink:href="#DejaVuSans-31"/>
       <use xlink:href="#DejaVuSans-2e" x="63.623047"/>
       <use xlink:href="#DejaVuSans-36" x="95.410156"/>
      </g>
     </g>
    </g>
    <g id="text_18">
     <!-- Loss -->
     <g transform="translate(60.185312 233.514062) rotate(-90) scale(0.14 -0.14)">
      <defs>
       <path id="DejaVuSans-4c" d="M 628 4666 
L 1259 4666 
L 1259 531 
L 3531 531 
L 3531 0 
L 628 0 
L 628 4666 
z
" transform="scale(0.015625)"/>
      </defs>
      <use xlink:href="#DejaVuSans-4c"/>
      <use xlink:href="#DejaVuSans-6f" x="53.962891"/>
      <use xlink:href="#DejaVuSans-73" x="115.144531"/>
      <use xlink:href="#DejaVuSans-73" x="167.244141"/>
     </g>
    </g>
   </g>
   <g id="line2d_33">
    <path d="M 115.363636 82.218646 
L 116.210502 112.072662 
L 117.057368 178.17079 
L 118.7511 213.590342 
L 119.597966 216.253321 
L 120.444832 233.167808 
L 121.291698 231.355926 
L 122.138564 257.335698 
L 122.98543 265.235043 
L 123.832296 247.674188 
L 124.679162 257.115931 
L 125.526028 279.715717 
L 126.372894 286.895704 
L 127.21976 279.740373 
L 128.066626 266.604528 
L 128.913492 276.640679 
L 129.760358 265.290796 
L 130.607224 266.925366 
L 131.45409 279.748576 
L 132.300956 278.857518 
L 133.147822 278.754244 
L 133.994688 280.563586 
L 134.841554 284.170515 
L 135.68842 280.687902 
L 136.535286 267.374352 
L 137.382152 301.14157 
L 138.229018 294.837195 
L 139.075884 290.009682 
L 139.92275 275.108423 
L 140.769616 291.098699 
L 141.616482 278.34375 
L 142.463348 294.623822 
L 143.310214 290.978053 
L 144.15708 282.93812 
L 145.003946 285.747659 
L 145.850812 290.74969 
L 146.697678 287.563712 
L 147.544544 285.217091 
L 148.39141 297.923152 
L 149.238276 313.08277 
L 150.932008 286.950546 
L 151.778874 285.895944 
L 152.62574 302.762872 
L 153.472606 304.054988 
L 154.319472 300.250783 
L 155.166338 302.523457 
L 156.013204 297.952995 
L 156.86007 308.99683 
L 157.706936 302.469203 
L 158.553802 309.485208 
L 159.400668 299.201725 
L 161.0944 312.315082 
L 161.941266 304.041859 
L 162.788132 304.965239 
L 163.634998 312.053933 
L 164.481864 299.276817 
L 165.32873 307.881824 
L 166.175596 310.272806 
L 167.022462 303.683221 
L 167.869328 314.951414 
L 168.716194 307.094348 
L 169.56306 310.894517 
L 170.409926 299.6401 
L 171.256792 305.428639 
L 172.103658 305.062705 
L 172.950524 297.81653 
L 173.79739 308.014439 
L 174.644256 305.866975 
L 175.491122 302.464166 
L 176.337988 317.11125 
L 177.184854 310.704391 
L 178.03172 312.490808 
L 178.878586 309.013128 
L 179.725452 317.654024 
L 180.572317 314.549316 
L 181.419183 315.344251 
L 182.266049 300.815743 
L 183.959781 313.512524 
L 184.806647 299.336447 
L 185.653513 316.007636 
L 186.500379 316.122575 
L 187.347245 313.413386 
L 188.194111 320.270649 
L 189.040977 299.090162 
L 189.887843 312.436749 
L 190.734709 304.132201 
L 191.581575 313.387835 
L 192.428441 316.985787 
L 193.275307 313.690404 
L 194.122173 311.530425 
L 194.969039 308.926311 
L 195.815905 314.837369 
L 196.662771 304.619122 
L 197.509637 313.139713 
L 198.356503 305.782058 
L 199.203369 313.767936 
L 200.050235 318.461588 
L 200.897101 314.554573 
L 201.743967 316.742036 
L 202.590833 320.079643 
L 203.437699 317.980794 
L 204.284565 322.608253 
L 205.131431 316.719267 
L 205.978297 319.801655 
L 206.825163 320.737194 
L 207.672029 315.241889 
L 208.518895 317.973187 
L 209.365761 322.611114 
L 210.212627 325.147748 
L 211.059493 314.900684 
L 211.906359 327.844023 
L 212.753225 326.323693 
L 213.600091 319.211447 
L 214.446957 320.730686 
L 215.293823 316.956547 
L 216.140689 318.978745 
L 216.987555 322.561709 
L 217.834421 317.101652 
L 218.681287 313.179816 
L 220.375019 328.394877 
L 221.221885 326.74727 
L 222.068751 329.173312 
L 222.915617 312.709084 
L 223.762483 322.722842 
L 224.609349 321.040674 
L 225.456215 325.505923 
L 226.303081 325.583901 
L 227.149947 325.939303 
L 227.996813 321.173293 
L 228.843679 327.775274 
L 229.690545 324.418739 
L 230.537411 327.531243 
L 231.384277 320.29051 
L 232.231143 323.474844 
L 233.078009 326.093171 
L 233.924875 321.767542 
L 234.771741 319.706919 
L 235.618607 319.072336 
L 236.465473 327.890408 
L 237.312339 324.638508 
L 238.159205 325.250451 
L 239.006071 325.031889 
L 239.852937 325.752773 
L 240.699803 318.661714 
L 241.546669 326.293607 
L 242.393535 326.031891 
L 243.240401 329.397878 
L 244.087267 314.380419 
L 244.934133 327.416028 
L 245.780999 331.2542 
L 246.627865 326.480361 
L 247.474731 332.121917 
L 248.321597 330.088014 
L 249.168463 334.31549 
L 250.015329 331.390662 
L 251.709061 333.159222 
L 252.555927 327.500041 
L 254.249659 334.260291 
L 255.096525 333.696662 
L 255.94339 327.149194 
L 256.790256 322.281235 
L 257.637122 333.477096 
L 258.483988 331.476529 
L 259.330854 327.247437 
L 261.024586 334.175707 
L 261.871452 332.776885 
L 262.718318 328.787296 
L 263.565184 324.067056 
L 265.258916 325.7155 
L 266.105782 333.695994 
L 266.952648 330.344206 
L 267.799514 330.711589 
L 268.64638 326.244012 
L 269.493246 326.906022 
L 270.340112 326.205516 
L 271.186978 333.31257 
L 272.033844 328.407563 
L 272.88071 329.370586 
L 273.727576 332.479767 
L 274.574442 332.443016 
L 275.421308 338.671857 
L 276.268174 332.041095 
L 277.11504 328.581785 
L 277.961906 331.666318 
L 278.808772 322.138804 
L 279.655638 334.933799 
L 280.502504 329.555605 
L 281.34937 331.527702 
L 282.196236 334.60448 
L 283.043102 328.038389 
L 283.889968 324.233801 
L 284.736834 329.811539 
L 285.5837 325.561974 
L 287.277432 329.621129 
L 288.124298 332.221578 
L 288.971164 329.882664 
L 289.81803 331.647707 
L 290.664896 331.095064 
L 291.511762 319.390776 
L 292.358628 329.908582 
L 293.205494 327.903002 
L 294.05236 328.336363 
L 294.899226 327.349997 
L 295.746092 330.760662 
L 296.592958 333.663235 
L 297.439824 336.142883 
L 298.28669 330.33456 
L 299.980422 336.396877 
L 300.827288 333.587953 
L 301.674154 325.423325 
L 302.52102 327.88011 
L 303.367886 331.067558 
L 304.214752 331.228578 
L 305.061618 329.02089 
L 305.908484 335.142782 
L 306.75535 327.521725 
L 307.602216 324.208668 
L 308.449082 331.471047 
L 309.295948 331.065701 
L 310.142814 335.986598 
L 310.98968 332.025802 
L 311.836546 331.038601 
L 312.683412 335.637992 
L 313.530278 334.555766 
L 314.377144 331.904548 
L 315.22401 330.35692 
L 316.070876 323.548928 
L 316.917742 335.68299 
L 317.764608 335.376745 
L 318.611474 333.474352 
L 319.45834 333.077097 
L 320.305206 335.170668 
L 321.152072 329.112273 
L 321.998938 333.218379 
L 322.845804 340.788115 
L 323.69267 334.45551 
L 324.539536 339.52741 
L 325.386402 336.166469 
L 326.233268 339.0076 
L 327.080134 333.253535 
L 327.927 336.101441 
L 328.773866 328.633319 
L 329.620732 334.679797 
L 330.467598 338.046035 
L 331.314463 340.657208 
L 332.161329 336.695735 
L 333.008195 338.81446 
L 333.855061 338.28973 
L 334.701927 338.998588 
L 335.548793 337.213269 
L 336.395659 333.673995 
L 337.242525 337.217109 
L 338.089391 332.251271 
L 338.936257 336.514956 
L 339.783123 335.976011 
L 340.629989 332.280636 
L 341.476855 332.287334 
L 342.323721 331.748438 
L 343.170587 339.857546 
L 344.017453 339.625261 
L 345.711185 337.730348 
L 346.558051 331.212138 
L 347.404917 333.651075 
L 348.251783 333.987618 
L 349.098649 333.07638 
L 349.945515 339.346892 
L 350.792381 337.883868 
L 351.639247 334.051334 
L 352.486113 336.229818 
L 353.332979 336.270665 
L 354.179845 337.509093 
L 355.026711 329.507229 
L 355.873577 333.357924 
L 356.720443 339.473356 
L 357.567309 331.971813 
L 358.414175 333.251248 
L 359.261041 332.734787 
L 360.107907 336.881891 
L 360.954773 336.758992 
L 361.801639 335.800191 
L 362.648505 337.224512 
L 363.495371 340.709163 
L 364.342237 342.357906 
L 365.189103 337.168174 
L 366.035969 334.12961 
L 366.882835 342.612725 
L 367.729701 342.426705 
L 368.576567 345.384412 
L 369.423433 340.989074 
L 370.270299 339.816747 
L 371.117165 344.330588 
L 371.964031 336.084293 
L 372.810897 341.439833 
L 373.657763 339.822604 
L 374.504629 341.254554 
L 375.351495 344.432131 
L 376.198361 340.171376 
L 377.045227 341.039099 
L 377.892093 337.915213 
L 378.738959 340.019967 
L 379.585825 326.591825 
L 381.279557 343.121805 
L 382.973289 339.628288 
L 383.820155 339.70908 
L 384.667021 343.14104 
L 385.513887 338.805419 
L 386.360753 337.895859 
L 387.207619 347.439544 
L 388.054485 340.420973 
L 388.901351 338.131267 
L 389.748217 337.958461 
L 390.595083 342.824576 
L 391.441949 338.503887 
L 392.288815 329.4146 
L 393.135681 343.115373 
L 393.982547 341.885643 
L 394.829413 343.293583 
L 395.676279 337.95279 
L 396.523145 341.754218 
L 397.370011 337.80691 
L 398.216877 347.469547 
L 399.063743 344.540995 
L 399.910609 344.923308 
L 400.757475 344.610569 
L 401.604341 343.40955 
L 402.451207 346.469724 
L 404.144939 345.286288 
L 404.991805 346.66622 
L 405.838671 343.005757 
L 406.685537 339.908471 
L 407.532402 340.263758 
L 408.379268 337.15144 
L 409.226134 341.152658 
L 410.073 343.358591 
L 410.919866 344.520205 
L 412.613598 342.993293 
L 413.460464 343.135741 
L 414.30733 339.117026 
L 415.154196 339.088242 
L 416.001062 338.554491 
L 416.847928 336.702444 
L 417.694794 336.116065 
L 418.54166 344.27673 
L 419.388526 344.266834 
L 420.235392 340.288239 
L 421.082258 342.707125 
L 421.929124 343.098069 
L 422.77599 342.940314 
L 423.622856 342.622836 
L 425.316588 339.511644 
L 426.163454 340.682051 
L 427.01032 335.735701 
L 427.857186 341.57707 
L 428.704052 340.56659 
L 429.550918 343.890842 
L 430.397784 339.418373 
L 431.24465 338.310821 
L 432.091516 332.807229 
L 432.938382 336.726325 
L 433.785248 336.510808 
L 434.632114 343.613872 
L 435.47898 345.558721 
L 436.325846 342.388187 
L 437.172712 342.99635 
L 438.019578 341.543331 
L 438.866444 343.718987 
L 439.71331 343.271582 
L 440.560176 340.764746 
L 441.407042 341.725736 
L 442.253908 345.791706 
L 443.100774 343.273007 
L 443.94764 343.121207 
L 444.794506 345.987317 
L 445.641372 342.799761 
L 446.488238 341.778328 
L 447.335104 344.320207 
L 448.18197 342.57776 
L 449.028836 343.689054 
L 449.875702 341.421295 
L 450.722568 344.720426 
L 451.569434 341.157212 
L 452.4163 342.648428 
L 453.263166 336.571226 
L 454.110032 340.430754 
L 454.956898 346.698688 
L 455.803764 349.717025 
L 456.65063 347.731887 
L 457.497496 342.747359 
L 458.344362 350.225831 
L 459.191228 345.045911 
L 460.038094 343.317424 
L 460.88496 341.27088 
L 461.731826 341.937659 
L 462.578692 336.776849 
L 463.425558 334.170537 
L 464.272424 343.274768 
L 465.11929 330.65843 
L 465.966156 334.687971 
L 466.813022 339.417187 
L 467.659888 342.670468 
L 468.506754 342.886283 
L 469.35362 340.698918 
L 470.200486 341.004221 
L 471.047352 340.182951 
L 471.894218 342.113971 
L 472.741084 341.623306 
L 473.58795 343.83465 
L 474.434816 344.384257 
L 475.281682 339.072169 
L 476.128548 341.176108 
L 476.975414 346.976387 
L 477.82228 346.666049 
L 478.669146 347.983857 
L 479.516012 346.045373 
L 480.362878 339.601898 
L 481.209744 345.242196 
L 482.05661 345.646976 
L 482.903475 343.880842 
L 483.750341 345.180156 
L 484.597207 347.502565 
L 485.444073 344.96628 
L 486.290939 345.795399 
L 487.137805 337.308272 
L 487.984671 339.792822 
L 488.831537 340.824631 
L 489.678403 346.924135 
L 491.372135 344.197574 
L 492.219001 339.922321 
L 493.065867 342.856655 
L 494.759599 347.480076 
L 495.606465 346.752329 
L 496.453331 337.411321 
L 497.300197 343.811021 
L 498.147063 341.838959 
L 498.993929 343.031711 
L 499.840795 345.232488 
L 500.687661 342.233757 
L 501.534527 348.802898 
L 502.381393 348.290236 
L 503.228259 348.200413 
L 504.075125 350.60773 
L 504.921991 344.132719 
L 505.768857 345.698026 
L 506.615723 345.061139 
L 507.462589 338.270109 
L 508.309455 343.143508 
L 509.156321 344.866848 
L 510.003187 343.546531 
L 510.850053 344.305849 
L 511.696919 348.093949 
L 512.543785 340.733354 
L 513.390651 343.109936 
L 514.237517 343.578195 
L 515.084383 346.189452 
L 515.931249 345.310177 
L 516.778115 340.025697 
L 517.624981 341.262161 
L 518.471847 329.298888 
L 520.165579 344.9402 
L 521.012445 347.395205 
L 521.859311 346.29945 
L 522.706177 343.525037 
L 523.553043 345.665157 
L 524.399909 345.967281 
L 525.246775 344.290898 
L 526.093641 346.96827 
L 526.940507 348.465307 
L 527.787373 345.255227 
L 528.634239 348.399816 
L 529.481105 347.951496 
L 530.327971 340.388438 
L 531.174837 348.089062 
L 532.021703 338.22686 
L 532.868569 350.668336 
L 533.715435 350.810374 
L 534.562301 349.008309 
L 536.256033 343.166506 
L 537.102899 343.526906 
L 537.949765 343.220155 
L 538.796631 348.809138 
L 539.643497 352.347724 
L 540.490363 351.298386 
L 541.337229 350.435875 
L 542.184095 348.278026 
L 543.030961 344.217386 
L 543.877827 340.856736 
L 544.724693 346.560474 
L 545.571559 343.342643 
L 547.265291 350.313842 
L 548.112157 350.991469 
L 548.959023 351.482092 
L 549.805889 341.459688 
L 550.652755 345.911143 
L 551.499621 347.995685 
L 552.346487 349.000666 
L 553.193353 350.939013 
L 554.040219 347.267821 
L 554.887085 346.691265 
L 555.733951 347.400024 
L 556.580817 345.574448 
L 557.427683 349.409349 
L 558.274548 348.742398 
L 559.121414 348.388696 
L 559.96828 348.807212 
L 560.815146 348.635096 
L 561.662012 349.867941 
L 562.508878 346.73986 
L 563.355744 347.721423 
L 564.20261 347.750957 
L 565.049476 348.205164 
L 565.896342 348.453462 
L 566.743208 349.154884 
L 567.590074 346.545029 
L 568.43694 349.712988 
L 569.283806 348.363182 
L 570.130672 348.858575 
L 570.977538 346.312961 
L 571.824404 346.173864 
L 572.67127 350.344974 
L 573.518136 348.264418 
L 574.365002 351.584134 
L 575.211868 350.347972 
L 576.058734 349.594593 
L 576.9056 347.830979 
L 577.752466 346.618189 
L 578.599332 348.89785 
L 579.446198 347.187882 
L 580.293064 352.132042 
L 581.13993 353.733201 
L 582.833662 349.970354 
L 583.680528 349.117202 
L 584.527394 350.896732 
L 585.37426 348.97849 
L 586.221126 351.21005 
L 587.067992 351.346886 
L 587.914858 349.408818 
L 588.761724 349.073145 
L 589.60859 349.955447 
L 590.455456 348.5958 
L 591.302322 348.625374 
L 592.149188 350.7558 
L 592.996054 344.149599 
L 593.84292 345.417216 
L 594.689786 339.156127 
L 595.536652 342.123731 
L 596.383518 341.46774 
L 598.07725 348.687363 
L 598.924116 344.029248 
L 599.770982 348.353586 
L 600.617848 342.948121 
L 601.464714 347.797851 
L 602.31158 349.027714 
L 603.158446 349.363301 
L 604.005312 348.125854 
L 604.852178 351.070302 
L 605.699044 347.883491 
L 606.54591 342.647756 
L 607.392776 348.915585 
L 608.239642 349.070716 
L 609.086508 349.432097 
L 610.78024 343.629205 
L 611.627106 344.71086 
L 612.473972 348.065151 
L 613.320838 348.873993 
L 614.167704 347.617869 
L 615.01457 348.160982 
L 615.861436 346.353848 
L 616.708302 345.145348 
L 617.555168 345.272486 
L 618.402034 347.474428 
L 619.2489 348.225852 
L 620.095766 346.413657 
L 620.942632 345.21576 
L 621.789498 345.579322 
L 622.636364 346.351051 
L 622.636364 346.351051 
" clip-path="url(#p378245e542)" style="fill: none; stroke: #ff0000; stroke-width: 2; stroke-linecap: square"/>
   </g>
   <g id="line2d_34">
    <path d="M 115.363636 82.08 
L 116.210502 108.003809 
L 117.057368 177.952222 
L 118.7511 215.406701 
L 119.597966 215.233103 
L 120.444832 233.563294 
L 121.291698 231.083329 
L 122.138564 259.205023 
L 122.98543 266.269371 
L 123.832296 248.214944 
L 124.679162 258.020824 
L 125.526028 283.260228 
L 126.372894 290.246762 
L 127.21976 282.996549 
L 128.066626 268.848214 
L 128.913492 278.663276 
L 129.760358 267.879862 
L 130.607224 270.684148 
L 131.45409 283.339251 
L 132.300956 280.651999 
L 133.147822 282.33675 
L 133.994688 284.366801 
L 134.841554 287.657714 
L 135.68842 283.509038 
L 136.535286 271.210106 
L 137.382152 304.760896 
L 138.229018 299.016161 
L 139.075884 295.217604 
L 139.92275 280.05576 
L 140.769616 295.166178 
L 141.616482 283.253453 
L 142.463348 299.293238 
L 143.310214 293.651985 
L 144.15708 286.21939 
L 145.003946 287.342337 
L 145.850812 293.906185 
L 146.697678 289.882139 
L 147.544544 288.178617 
L 148.39141 300.041367 
L 149.238276 316.903376 
L 150.085142 304.052314 
L 150.932008 289.159344 
L 151.778874 287.000168 
L 152.62574 304.66282 
L 153.472606 305.696887 
L 154.319472 302.381165 
L 155.166338 305.03752 
L 156.013204 300.371209 
L 156.86007 311.162989 
L 157.706936 304.190225 
L 158.553802 311.54743 
L 159.400668 299.966311 
L 161.0944 313.011859 
L 161.941266 306.445678 
L 162.788132 307.567281 
L 163.634998 314.202383 
L 164.481864 301.388602 
L 165.32873 310.121151 
L 166.175596 312.54794 
L 167.022462 306.53751 
L 167.869328 317.234083 
L 168.716194 309.41002 
L 169.56306 313.645083 
L 170.409926 302.91999 
L 171.256792 308.858241 
L 172.103658 308.89937 
L 172.950524 300.052113 
L 173.79739 310.548725 
L 174.644256 307.63429 
L 175.491122 302.866748 
L 176.337988 317.897242 
L 177.184854 312.171745 
L 178.03172 313.736524 
L 178.878586 311.124528 
L 179.725452 321.010229 
L 180.572317 316.721508 
L 181.419183 316.778029 
L 182.266049 303.154743 
L 183.959781 315.171124 
L 184.806647 298.723128 
L 185.653513 316.808223 
L 186.500379 317.017074 
L 187.347245 315.295694 
L 188.194111 322.686768 
L 189.040977 300.299901 
L 189.887843 312.6033 
L 190.734709 304.135826 
L 191.581575 314.531424 
L 192.428441 318.025204 
L 193.275307 314.269091 
L 194.122173 312.377598 
L 194.969039 309.962888 
L 195.815905 315.379853 
L 196.662771 304.097912 
L 197.509637 313.001226 
L 198.356503 306.429551 
L 199.203369 315.348195 
L 200.050235 319.073389 
L 200.897101 315.372577 
L 201.743967 317.048494 
L 202.590833 321.036628 
L 203.437699 319.706793 
L 204.284565 324.350671 
L 205.131431 318.167197 
L 205.978297 321.002408 
L 206.825163 322.206044 
L 207.672029 316.54333 
L 208.518895 316.976969 
L 209.365761 323.146131 
L 210.212627 325.158294 
L 211.059493 316.125025 
L 211.906359 328.194528 
L 212.753225 326.638659 
L 213.600091 319.37406 
L 214.446957 319.677193 
L 215.293823 315.994686 
L 216.140689 318.579289 
L 216.987555 322.655508 
L 218.681287 312.127289 
L 219.528153 322.61356 
L 220.375019 328.488402 
L 221.221885 327.311062 
L 222.068751 329.879451 
L 222.915617 314.754785 
L 223.762483 324.567606 
L 224.609349 321.619493 
L 225.456215 326.18432 
L 227.149947 327.769307 
L 227.996813 323.044586 
L 228.843679 330.007355 
L 229.690545 326.495632 
L 230.537411 329.486414 
L 231.384277 322.254995 
L 232.231143 325.910692 
L 233.078009 328.031059 
L 233.924875 324.735621 
L 234.771741 322.937071 
L 235.618607 321.441288 
L 236.465473 330.35702 
L 237.312339 325.560881 
L 238.159205 327.537372 
L 239.006071 328.552489 
L 239.852937 326.678198 
L 240.699803 320.901636 
L 241.546669 327.545214 
L 242.393535 328.240621 
L 243.240401 330.340439 
L 244.087267 316.594655 
L 244.934133 329.617047 
L 245.780999 333.842848 
L 246.627865 328.167429 
L 247.474731 333.623177 
L 248.321597 331.38808 
L 249.168463 335.284705 
L 250.015329 332.007447 
L 250.862195 332.11148 
L 251.709061 333.275016 
L 252.555927 328.480652 
L 253.402793 331.032666 
L 254.249659 335.365607 
L 255.096525 334.624131 
L 255.94339 327.796661 
L 256.790256 322.945285 
L 257.637122 334.589024 
L 258.483988 332.385395 
L 259.330854 328.662353 
L 260.17772 331.360931 
L 261.024586 335.309962 
L 261.871452 333.30141 
L 262.718318 328.907263 
L 263.565184 325.480351 
L 264.41205 323.898603 
L 265.258916 326.72941 
L 266.105782 334.684903 
L 266.952648 331.593576 
L 267.799514 330.461787 
L 268.64638 326.529331 
L 269.493246 327.080096 
L 270.340112 325.815602 
L 271.186978 332.753036 
L 272.033844 329.270851 
L 272.88071 330.086988 
L 273.727576 332.643335 
L 274.574442 331.511672 
L 275.421308 338.718565 
L 276.268174 331.955179 
L 277.11504 328.308694 
L 277.961906 331.10475 
L 278.808772 322.504525 
L 279.655638 334.583082 
L 280.502504 328.814495 
L 281.34937 331.027873 
L 282.196236 334.068823 
L 283.043102 326.729513 
L 283.889968 323.416581 
L 284.736834 329.007161 
L 285.5837 324.848977 
L 286.430566 327.572417 
L 287.277432 329.1455 
L 288.124298 332.118959 
L 288.971164 330.132239 
L 289.81803 331.928357 
L 290.664896 331.04568 
L 291.511762 319.352192 
L 292.358628 329.32401 
L 293.205494 326.156808 
L 294.05236 327.560082 
L 294.899226 326.895014 
L 295.746092 330.555371 
L 296.592958 334.823312 
L 297.439824 337.099424 
L 298.28669 330.574079 
L 299.133556 334.539782 
L 299.980422 337.613168 
L 300.827288 335.128015 
L 301.674154 327.025005 
L 302.52102 330.051159 
L 303.367886 331.818209 
L 304.214752 331.241453 
L 305.061618 328.480487 
L 305.908484 334.220154 
L 306.75535 328.628997 
L 307.602216 326.297839 
L 308.449082 332.743571 
L 309.295948 333.568253 
L 310.142814 336.75634 
L 310.98968 332.635281 
L 311.836546 331.180075 
L 312.683412 335.060707 
L 313.530278 333.580721 
L 314.377144 331.043586 
L 315.22401 331.765807 
L 316.070876 323.844645 
L 316.917742 336.931946 
L 317.764608 336.839137 
L 318.611474 334.49134 
L 319.45834 333.638947 
L 320.305206 335.649341 
L 321.152072 328.609598 
L 321.998938 333.382626 
L 322.845804 340.099464 
L 323.69267 333.979985 
L 324.539536 338.994132 
L 325.386402 336.839121 
L 326.233268 338.742834 
L 327.080134 334.327219 
L 327.927 335.22207 
L 328.773866 328.176222 
L 329.620732 335.3309 
L 330.467598 338.167869 
L 331.314463 339.430882 
L 332.161329 335.240557 
L 333.008195 338.547988 
L 333.855061 336.492863 
L 334.701927 338.019065 
L 335.548793 336.778302 
L 336.395659 333.238438 
L 337.242525 337.110873 
L 338.089391 331.401037 
L 338.936257 335.806464 
L 339.783123 336.241234 
L 340.629989 333.535231 
L 341.476855 330.398045 
L 342.323721 330.5827 
L 343.170587 339.304443 
L 344.017453 338.929796 
L 344.864319 338.684603 
L 345.711185 337.951652 
L 346.558051 331.862854 
L 347.404917 334.356819 
L 348.251783 333.969616 
L 349.098649 332.658087 
L 349.945515 339.013699 
L 350.792381 338.322626 
L 351.639247 335.090215 
L 352.486113 336.815999 
L 353.332979 337.471919 
L 354.179845 338.773721 
L 355.026711 331.162955 
L 355.873577 333.591292 
L 356.720443 339.474689 
L 357.567309 331.950981 
L 358.414175 332.194583 
L 359.261041 330.960761 
L 360.107907 336.320271 
L 360.954773 336.056636 
L 361.801639 334.188046 
L 362.648505 336.539547 
L 363.495371 339.966497 
L 364.342237 341.473921 
L 365.189103 336.550797 
L 366.035969 333.819216 
L 366.882835 343.106064 
L 367.729701 341.850002 
L 368.576567 344.489243 
L 369.423433 339.92022 
L 370.270299 338.838058 
L 371.117165 343.670097 
L 371.964031 335.184855 
L 372.810897 341.061808 
L 373.657763 339.78503 
L 374.504629 341.410377 
L 375.351495 343.905024 
L 376.198361 339.40188 
L 377.045227 339.763169 
L 377.892093 336.431539 
L 378.738959 340.546186 
L 379.585825 326.887185 
L 381.279557 341.76143 
L 382.126423 339.991886 
L 382.973289 338.877647 
L 383.820155 339.431371 
L 384.667021 342.820352 
L 385.513887 339.445778 
L 386.360753 337.917522 
L 387.207619 348.213971 
L 388.054485 340.803631 
L 388.901351 338.104955 
L 389.748217 338.790077 
L 390.595083 343.108258 
L 391.441949 337.977446 
L 392.288815 329.327557 
L 393.135681 342.445892 
L 393.982547 341.794274 
L 394.829413 343.04109 
L 395.676279 338.22785 
L 396.523145 341.672998 
L 397.370011 337.649196 
L 398.216877 347.172935 
L 399.063743 343.928291 
L 399.910609 345.152504 
L 400.757475 344.873059 
L 401.604341 342.44916 
L 402.451207 346.07018 
L 403.298073 345.288118 
L 404.144939 344.237199 
L 404.991805 345.66389 
L 405.838671 342.001388 
L 406.685537 339.019224 
L 407.532402 339.606407 
L 408.379268 337.027427 
L 409.226134 339.850095 
L 410.073 341.273797 
L 410.919866 342.350046 
L 411.766732 341.715059 
L 412.613598 341.562184 
L 413.460464 341.930609 
L 414.30733 337.397329 
L 415.154196 337.179176 
L 416.001062 338.201216 
L 416.847928 335.505518 
L 417.694794 335.544271 
L 418.54166 342.995647 
L 419.388526 343.083216 
L 420.235392 340.174372 
L 421.082258 342.766942 
L 421.929124 342.869564 
L 422.77599 342.091723 
L 423.622856 342.614733 
L 424.469722 341.440171 
L 425.316588 339.835202 
L 426.163454 340.044415 
L 427.01032 335.379892 
L 427.857186 341.209247 
L 428.704052 340.205408 
L 429.550918 343.076115 
L 430.397784 337.731971 
L 431.24465 336.267835 
L 432.091516 330.912502 
L 432.938382 334.505457 
L 433.785248 335.10063 
L 434.632114 343.10408 
L 435.47898 343.793846 
L 436.325846 341.501454 
L 437.172712 340.502503 
L 438.019578 340.844509 
L 438.866444 342.434383 
L 439.71331 342.488655 
L 440.560176 340.170069 
L 441.407042 340.580993 
L 442.253908 344.840593 
L 443.100774 341.245178 
L 443.94764 341.933899 
L 444.794506 344.34457 
L 445.641372 340.19915 
L 446.488238 340.315135 
L 447.335104 344.150775 
L 448.18197 342.722381 
L 449.028836 342.118436 
L 449.875702 340.466212 
L 450.722568 342.745789 
L 451.569434 338.888386 
L 452.4163 339.971188 
L 453.263166 333.442373 
L 454.956898 343.534184 
L 455.803764 347.38896 
L 456.65063 345.382 
L 457.497496 340.701017 
L 458.344362 347.872819 
L 459.191228 343.770842 
L 460.88496 339.37491 
L 461.731826 340.003117 
L 462.578692 335.404022 
L 463.425558 333.076833 
L 464.272424 342.251813 
L 465.11929 330.155589 
L 465.966156 332.332694 
L 467.659888 340.727524 
L 468.506754 340.771715 
L 469.35362 338.864441 
L 470.200486 338.545643 
L 471.047352 338.512935 
L 471.894218 339.884786 
L 472.741084 338.435427 
L 473.58795 341.815289 
L 474.434816 343.043928 
L 475.281682 337.736327 
L 476.128548 339.313963 
L 476.975414 344.646978 
L 477.82228 345.166396 
L 478.669146 346.755803 
L 479.516012 344.101731 
L 480.362878 336.859307 
L 481.209744 343.209163 
L 482.05661 344.321315 
L 482.903475 342.611192 
L 483.750341 343.648045 
L 484.597207 345.34778 
L 485.444073 342.33009 
L 486.290939 343.046963 
L 487.137805 335.341086 
L 488.831537 338.733113 
L 489.678403 345.193073 
L 491.372135 342.685785 
L 492.219001 338.224261 
L 493.065867 341.319264 
L 493.912733 343.245772 
L 494.759599 346.420424 
L 495.606465 345.08469 
L 496.453331 334.656216 
L 497.300197 341.764657 
L 498.147063 340.504826 
L 498.993929 341.291504 
L 499.840795 343.568299 
L 500.687661 339.739768 
L 501.534527 346.568086 
L 502.381393 346.549142 
L 503.228259 346.366683 
L 504.075125 348.770634 
L 504.921991 343.568354 
L 505.768857 345.183354 
L 506.615723 344.927759 
L 507.462589 337.888192 
L 508.309455 343.108404 
L 509.156321 344.711118 
L 510.003187 342.404237 
L 510.850053 343.469035 
L 511.696919 347.256011 
L 512.543785 339.133632 
L 513.390651 341.921671 
L 514.237517 342.219858 
L 515.084383 345.396557 
L 515.931249 344.323147 
L 516.778115 338.908406 
L 517.624981 339.645165 
L 518.471847 327.120949 
L 519.318713 334.192453 
L 520.165579 343.193783 
L 521.012445 345.463736 
L 521.859311 345.418265 
L 522.706177 342.420987 
L 524.399909 344.707058 
L 525.246775 343.788719 
L 526.093641 344.536935 
L 526.940507 347.476787 
L 527.787373 344.046359 
L 528.634239 347.539128 
L 529.481105 347.193442 
L 530.327971 338.732001 
L 531.174837 345.953816 
L 532.021703 336.068104 
L 532.868569 348.479881 
L 533.715435 348.247692 
L 534.562301 347.274426 
L 536.256033 342.777075 
L 537.102899 343.816999 
L 537.949765 341.343776 
L 538.796631 346.607103 
L 539.643497 350.949873 
L 540.490363 349.733837 
L 541.337229 348.973308 
L 542.184095 347.692325 
L 543.030961 342.666631 
L 543.877827 340.426665 
L 544.724693 345.946204 
L 545.571559 343.772119 
L 547.265291 349.288082 
L 548.112157 349.070859 
L 548.959023 350.291236 
L 549.805889 342.075479 
L 550.652755 345.125877 
L 551.499621 346.116312 
L 552.346487 346.778526 
L 553.193353 349.875608 
L 554.040219 346.244411 
L 554.887085 346.141967 
L 555.733951 346.599449 
L 556.580817 344.696037 
L 557.427683 348.556915 
L 558.274548 346.540246 
L 559.121414 347.359543 
L 559.96828 347.195745 
L 561.662012 348.400403 
L 562.508878 345.525105 
L 563.355744 347.192078 
L 564.20261 345.783414 
L 565.896342 345.416041 
L 566.743208 346.659932 
L 567.590074 344.71192 
L 568.43694 347.788018 
L 569.283806 345.872255 
L 570.130672 346.960178 
L 570.977538 344.112189 
L 571.824404 343.405205 
L 572.67127 348.298277 
L 573.518136 346.095153 
L 574.365002 349.557392 
L 575.211868 347.924533 
L 576.058734 347.8018 
L 576.9056 345.780696 
L 577.752466 345.196908 
L 578.599332 347.140949 
L 579.446198 344.401728 
L 580.293064 348.653494 
L 581.13993 350.655812 
L 581.986796 349.190418 
L 582.833662 346.332307 
L 583.680528 345.842907 
L 584.527394 347.629564 
L 585.37426 346.054991 
L 586.221126 348.475196 
L 587.067992 349.40576 
L 587.914858 347.250026 
L 588.761724 347.624777 
L 589.60859 348.347548 
L 590.455456 347.151657 
L 591.302322 346.172561 
L 592.149188 349.250553 
L 592.996054 341.710936 
L 593.84292 343.16828 
L 594.689786 337.770531 
L 595.536652 339.880476 
L 596.383518 339.920274 
L 598.07725 346.091895 
L 598.924116 340.976105 
L 599.770982 344.984037 
L 600.617848 340.732969 
L 601.464714 345.710358 
L 603.158446 347.34249 
L 604.005312 345.660886 
L 604.852178 348.776699 
L 605.699044 344.772191 
L 606.54591 340.17709 
L 607.392776 346.103623 
L 608.239642 347.224041 
L 609.086508 347.205042 
L 609.933374 344.44847 
L 610.78024 343.269995 
L 611.627106 341.72487 
L 612.473972 345.957309 
L 613.320838 346.958344 
L 614.167704 345.846204 
L 615.01457 346.319372 
L 615.861436 344.13539 
L 616.708302 342.495013 
L 617.555168 342.607623 
L 618.402034 346.772996 
L 619.2489 346.750264 
L 620.095766 345.527557 
L 620.942632 343.073482 
L 622.636364 344.286059 
L 622.636364 344.286059 
" clip-path="url(#p378245e542)" style="fill: none; stroke-dasharray: 7.4,3.2; stroke-dashoffset: 0; stroke: #ffa500; stroke-width: 2"/>
   </g>
   <g id="patch_3">
    <path d="M 90 384.48 
L 90 51.84 
" style="fill: none; stroke: #000000; stroke-width: 0.8; stroke-linejoin: miter; stroke-linecap: square"/>
   </g>
   <g id="patch_4">
    <path d="M 648 384.48 
L 648 51.84 
" style="fill: none; stroke: #000000; stroke-width: 0.8; stroke-linejoin: miter; stroke-linecap: square"/>
   </g>
   <g id="patch_5">
    <path d="M 90 384.48 
L 648 384.48 
" style="fill: none; stroke: #000000; stroke-width: 0.8; stroke-linejoin: miter; stroke-linecap: square"/>
   </g>
   <g id="patch_6">
    <path d="M 90 51.84 
L 648 51.84 
" style="fill: none; stroke: #000000; stroke-width: 0.8; stroke-linejoin: miter; stroke-linecap: square"/>
   </g>
   <g id="text_19">
    <!-- Training and Testing Loss (Learning Rate: 0.01) -->
    <g transform="translate(181.63875 45.84) scale(0.16 -0.16)">
     <defs>
      <path id="DejaVuSans-54" d="M -19 4666 
L 3928 4666 
L 3928 4134 
L 2272 4134 
L 2272 0 
L 1638 0 
L 1638 4134 
L -19 4134 
L -19 4666 
z
" transform="scale(0.015625)"/>
      <path id="DejaVuSans-67" d="M 2906 1791 
Q 2906 2416 2648 2759 
Q 2391 3103 1925 3103 
Q 1463 3103 1205 2759 
Q 947 2416 947 1791 
Q 947 1169 1205 825 
Q 1463 481 1925 481 
Q 2391 481 2648 825 
Q 2906 1169 2906 1791 
z
M 3481 434 
Q 3481 -459 3084 -895 
Q 2688 -1331 1869 -1331 
Q 1566 -1331 1297 -1286 
Q 1028 -1241 775 -1147 
L 775 -588 
Q 1028 -725 1275 -790 
Q 1522 -856 1778 -856 
Q 2344 -856 2625 -561 
Q 2906 -266 2906 331 
L 2906 616 
Q 2728 306 2450 153 
Q 2172 0 1784 0 
Q 1141 0 747 490 
Q 353 981 353 1791 
Q 353 2603 747 3093 
Q 1141 3584 1784 3584 
Q 2172 3584 2450 3431 
Q 2728 3278 2906 2969 
L 2906 3500 
L 3481 3500 
L 3481 434 
z
" transform="scale(0.015625)"/>
      <path id="DejaVuSans-20" transform="scale(0.015625)"/>
      <path id="DejaVuSans-64" d="M 2906 2969 
L 2906 4863 
L 3481 4863 
L 3481 0 
L 2906 0 
L 2906 525 
Q 2725 213 2448 61 
Q 2172 -91 1784 -91 
Q 1150 -91 751 415 
Q 353 922 353 1747 
Q 353 2572 751 3078 
Q 1150 3584 1784 3584 
Q 2172 3584 2448 3432 
Q 2725 3281 2906 2969 
z
M 947 1747 
Q 947 1113 1208 752 
Q 1469 391 1925 391 
Q 2381 391 2643 752 
Q 2906 1113 2906 1747 
Q 2906 2381 2643 2742 
Q 2381 3103 1925 3103 
Q 1469 3103 1208 2742 
Q 947 2381 947 1747 
z
" transform="scale(0.015625)"/>
      <path id="DejaVuSans-28" d="M 1984 4856 
Q 1566 4138 1362 3434 
Q 1159 2731 1159 2009 
Q 1159 1288 1364 580 
Q 1569 -128 1984 -844 
L 1484 -844 
Q 1016 -109 783 600 
Q 550 1309 550 2009 
Q 550 2706 781 3412 
Q 1013 4119 1484 4856 
L 1984 4856 
z
" transform="scale(0.015625)"/>
      <path id="DejaVuSans-52" d="M 2841 2188 
Q 3044 2119 3236 1894 
Q 3428 1669 3622 1275 
L 4263 0 
L 3584 0 
L 2988 1197 
Q 2756 1666 2539 1819 
Q 2322 1972 1947 1972 
L 1259 1972 
L 1259 0 
L 628 0 
L 628 4666 
L 2053 4666 
Q 2853 4666 3247 4331 
Q 3641 3997 3641 3322 
Q 3641 2881 3436 2590 
Q 3231 2300 2841 2188 
z
M 1259 4147 
L 1259 2491 
L 2053 2491 
Q 2509 2491 2742 2702 
Q 2975 2913 2975 3322 
Q 2975 3731 2742 3939 
Q 2509 4147 2053 4147 
L 1259 4147 
z
" transform="scale(0.015625)"/>
      <path id="DejaVuSans-3a" d="M 750 794 
L 1409 794 
L 1409 0 
L 750 0 
L 750 794 
z
M 750 3309 
L 1409 3309 
L 1409 2516 
L 750 2516 
L 750 3309 
z
" transform="scale(0.015625)"/>
      <path id="DejaVuSans-29" d="M 513 4856 
L 1013 4856 
Q 1481 4119 1714 3412 
Q 1947 2706 1947 2009 
Q 1947 1309 1714 600 
Q 1481 -109 1013 -844 
L 513 -844 
Q 928 -128 1133 580 
Q 1338 1288 1338 2009 
Q 1338 2731 1133 3434 
Q 928 4138 513 4856 
z
" transform="scale(0.015625)"/>
     </defs>
     <use xlink:href="#DejaVuSans-54"/>
     <use xlink:href="#DejaVuSans-72" x="46.333984"/>
     <use xlink:href="#DejaVuSans-61" x="87.447266"/>
     <use xlink:href="#DejaVuSans-69" x="148.726562"/>
     <use xlink:href="#DejaVuSans-6e" x="176.509766"/>
     <use xlink:href="#DejaVuSans-69" x="239.888672"/>
     <use xlink:href="#DejaVuSans-6e" x="267.671875"/>
     <use xlink:href="#DejaVuSans-67" x="331.050781"/>
     <use xlink:href="#DejaVuSans-20" x="394.527344"/>
     <use xlink:href="#DejaVuSans-61" x="426.314453"/>
     <use xlink:href="#DejaVuSans-6e" x="487.59375"/>
     <use xlink:href="#DejaVuSans-64" x="550.972656"/>
     <use xlink:href="#DejaVuSans-20" x="614.449219"/>
     <use xlink:href="#DejaVuSans-54" x="646.236328"/>
     <use xlink:href="#DejaVuSans-65" x="690.320312"/>
     <use xlink:href="#DejaVuSans-73" x="751.84375"/>
     <use xlink:href="#DejaVuSans-74" x="803.943359"/>
     <use xlink:href="#DejaVuSans-69" x="843.152344"/>
     <use xlink:href="#DejaVuSans-6e" x="870.935547"/>
     <use xlink:href="#DejaVuSans-67" x="934.314453"/>
     <use xlink:href="#DejaVuSans-20" x="997.791016"/>
     <use xlink:href="#DejaVuSans-4c" x="1029.578125"/>
     <use xlink:href="#DejaVuSans-6f" x="1083.541016"/>
     <use xlink:href="#DejaVuSans-73" x="1144.722656"/>
     <use xlink:href="#DejaVuSans-73" x="1196.822266"/>
     <use xlink:href="#DejaVuSans-20" x="1248.921875"/>
     <use xlink:href="#DejaVuSans-28" x="1280.708984"/>
     <use xlink:href="#DejaVuSans-4c" x="1319.722656"/>
     <use xlink:href="#DejaVuSans-65" x="1373.685547"/>
     <use xlink:href="#DejaVuSans-61" x="1435.208984"/>
     <use xlink:href="#DejaVuSans-72" x="1496.488281"/>
     <use xlink:href="#DejaVuSans-6e" x="1535.851562"/>
     <use xlink:href="#DejaVuSans-69" x="1599.230469"/>
     <use xlink:href="#DejaVuSans-6e" x="1627.013672"/>
     <use xlink:href="#DejaVuSans-67" x="1690.392578"/>
     <use xlink:href="#DejaVuSans-20" x="1753.869141"/>
     <use xlink:href="#DejaVuSans-52" x="1785.65625"/>
     <use xlink:href="#DejaVuSans-61" x="1852.888672"/>
     <use xlink:href="#DejaVuSans-74" x="1914.167969"/>
     <use xlink:href="#DejaVuSans-65" x="1953.376953"/>
     <use xlink:href="#DejaVuSans-3a" x="2014.900391"/>
     <use xlink:href="#DejaVuSans-20" x="2048.591797"/>
     <use xlink:href="#DejaVuSans-30" x="2080.378906"/>
     <use xlink:href="#DejaVuSans-2e" x="2144.001953"/>
     <use xlink:href="#DejaVuSans-30" x="2175.789062"/>
     <use xlink:href="#DejaVuSans-31" x="2239.412109"/>
     <use xlink:href="#DejaVuSans-29" x="2303.035156"/>
    </g>
   </g>
   <g id="legend_1">
    <g id="patch_7">
     <path d="M 544.435938 89.19625 
L 641 89.19625 
Q 643 89.19625 643 87.19625 
L 643 58.84 
Q 643 56.84 641 56.84 
L 544.435938 56.84 
Q 542.435938 56.84 542.435938 58.84 
L 542.435938 87.19625 
Q 542.435938 89.19625 544.435938 89.19625 
z
" style="fill: #ffffff; opacity: 0.8; stroke: #cccccc; stroke-linejoin: miter"/>
    </g>
    <g id="line2d_35">
     <path d="M 546.435938 64.938437 
L 556.435938 64.938437 
L 566.435938 64.938437 
" style="fill: none; stroke: #ff0000; stroke-width: 2; stroke-linecap: square"/>
    </g>
    <g id="text_20">
     <!-- Training Loss -->
     <g transform="translate(574.435938 68.438437) scale(0.1 -0.1)">
      <use xlink:href="#DejaVuSans-54"/>
      <use xlink:href="#DejaVuSans-72" x="46.333984"/>
      <use xlink:href="#DejaVuSans-61" x="87.447266"/>
      <use xlink:href="#DejaVuSans-69" x="148.726562"/>
      <use xlink:href="#DejaVuSans-6e" x="176.509766"/>
      <use xlink:href="#DejaVuSans-69" x="239.888672"/>
      <use xlink:href="#DejaVuSans-6e" x="267.671875"/>
      <use xlink:href="#DejaVuSans-67" x="331.050781"/>
      <use xlink:href="#DejaVuSans-20" x="394.527344"/>
      <use xlink:href="#DejaVuSans-4c" x="426.314453"/>
      <use xlink:href="#DejaVuSans-6f" x="480.277344"/>
      <use xlink:href="#DejaVuSans-73" x="541.458984"/>
      <use xlink:href="#DejaVuSans-73" x="593.558594"/>
     </g>
    </g>
    <g id="line2d_36">
     <path d="M 546.435938 79.616562 
L 556.435938 79.616562 
L 566.435938 79.616562 
" style="fill: none; stroke-dasharray: 7.4,3.2; stroke-dashoffset: 0; stroke: #ffa500; stroke-width: 2"/>
    </g>
    <g id="text_21">
     <!-- Testing Loss -->
     <g transform="translate(574.435938 83.116562) scale(0.1 -0.1)">
      <use xlink:href="#DejaVuSans-54"/>
      <use xlink:href="#DejaVuSans-65" x="44.083984"/>
      <use xlink:href="#DejaVuSans-73" x="105.607422"/>
      <use xlink:href="#DejaVuSans-74" x="157.707031"/>
      <use xlink:href="#DejaVuSans-69" x="196.916016"/>
      <use xlink:href="#DejaVuSans-6e" x="224.699219"/>
      <use xlink:href="#DejaVuSans-67" x="288.078125"/>
      <use xlink:href="#DejaVuSans-20" x="351.554688"/>
      <use xlink:href="#DejaVuSans-4c" x="383.341797"/>
      <use xlink:href="#DejaVuSans-6f" x="437.304688"/>
      <use xlink:href="#DejaVuSans-73" x="498.486328"/>
      <use xlink:href="#DejaVuSans-73" x="550.585938"/>
     </g>
    </g>
   </g>
  </g>
 </g>
 <defs>
  <clipPath id="p378245e542">
   <rect x="90" y="51.84" width="558" height="332.64"/>
  </clipPath>
 </defs>
</svg>
