<?xml version="1.0" encoding="utf-8" standalone="no"?>
<!DOCTYPE svg PUBLIC "-//W3C//DTD SVG 1.1//EN"
  "http://www.w3.org/Graphics/SVG/1.1/DTD/svg11.dtd">
<svg xmlns:xlink="http://www.w3.org/1999/xlink" width="720pt" height="432pt" viewBox="0 0 720 432" xmlns="http://www.w3.org/2000/svg" version="1.1">
 <metadata>
  <rdf:RDF xmlns:dc="http://purl.org/dc/elements/1.1/" xmlns:cc="http://creativecommons.org/ns#" xmlns:rdf="http://www.w3.org/1999/02/22-rdf-syntax-ns#">
   <cc:Work>
    <dc:type rdf:resource="http://purl.org/dc/dcmitype/StillImage"/>
    <dc:date>2024-05-19T16:20:33.297212</dc:date>
    <dc:format>image/svg+xml</dc:format>
    <dc:creator>
     <cc:Agent>
      <dc:title>Matplotlib v3.6.2, https://matplotlib.org/</dc:title>
     </cc:Agent>
    </dc:creator>
   </cc:Work>
  </rdf:RDF>
 </metadata>
 <defs>
  <style type="text/css">*{stroke-linejoin: round; stroke-linecap: butt}</style>
 </defs>
 <g id="figure_1">
  <g id="patch_1">
   <path d="M 0 432 
L 720 432 
L 720 0 
L 0 0 
z
" style="fill: #ffffff"/>
  </g>
  <g id="axes_1">
   <g id="patch_2">
    <path d="M 90 384.48 
L 648 384.48 
L 648 51.84 
L 90 51.84 
z
" style="fill: #ffffff"/>
   </g>
   <g id="matplotlib.axis_1">
    <g id="xtick_1">
     <g id="line2d_1">
      <path d="M 115.363636 384.48 
L 115.363636 51.84 
" clip-path="url(#p894297e7a5)" style="fill: none; stroke: #b0b0b0; stroke-width: 0.8; stroke-linecap: square"/>
     </g>
     <g id="line2d_2">
      <defs>
       <path id="m25bec6bbdd" d="M 0 0 
L 0 3.5 
" style="stroke: #000000; stroke-width: 0.8"/>
      </defs>
      <g>
       <use xlink:href="#m25bec6bbdd" x="115.363636" y="384.48" style="stroke: #000000; stroke-width: 0.8"/>
      </g>
     </g>
     <g id="text_1">
      <!-- 0 -->
      <g transform="translate(112.182386 399.078438) scale(0.1 -0.1)">
       <defs>
        <path id="DejaVuSans-30" d="M 2034 4250 
Q 1547 4250 1301 3770 
Q 1056 3291 1056 2328 
Q 1056 1369 1301 889 
Q 1547 409 2034 409 
Q 2525 409 2770 889 
Q 3016 1369 3016 2328 
Q 3016 3291 2770 3770 
Q 2525 4250 2034 4250 
z
M 2034 4750 
Q 2819 4750 3233 4129 
Q 3647 3509 3647 2328 
Q 3647 1150 3233 529 
Q 2819 -91 2034 -91 
Q 1250 -91 836 529 
Q 422 1150 422 2328 
Q 422 3509 836 4129 
Q 1250 4750 2034 4750 
z
" transform="scale(0.015625)"/>
       </defs>
       <use xlink:href="#DejaVuSans-30"/>
      </g>
     </g>
    </g>
    <g id="xtick_2">
     <g id="line2d_3">
      <path d="M 200.050235 384.48 
L 200.050235 51.84 
" clip-path="url(#p894297e7a5)" style="fill: none; stroke: #b0b0b0; stroke-width: 0.8; stroke-linecap: square"/>
     </g>
     <g id="line2d_4">
      <g>
       <use xlink:href="#m25bec6bbdd" x="200.050235" y="384.48" style="stroke: #000000; stroke-width: 0.8"/>
      </g>
     </g>
     <g id="text_2">
      <!-- 10000 -->
      <g transform="translate(184.143985 399.078438) scale(0.1 -0.1)">
       <defs>
        <path id="DejaVuSans-31" d="M 794 531 
L 1825 531 
L 1825 4091 
L 703 3866 
L 703 4441 
L 1819 4666 
L 2450 4666 
L 2450 531 
L 3481 531 
L 3481 0 
L 794 0 
L 794 531 
z
" transform="scale(0.015625)"/>
       </defs>
       <use xlink:href="#DejaVuSans-31"/>
       <use xlink:href="#DejaVuSans-30" x="63.623047"/>
       <use xlink:href="#DejaVuSans-30" x="127.246094"/>
       <use xlink:href="#DejaVuSans-30" x="190.869141"/>
       <use xlink:href="#DejaVuSans-30" x="254.492188"/>
      </g>
     </g>
    </g>
    <g id="xtick_3">
     <g id="line2d_5">
      <path d="M 284.736834 384.48 
L 284.736834 51.84 
" clip-path="url(#p894297e7a5)" style="fill: none; stroke: #b0b0b0; stroke-width: 0.8; stroke-linecap: square"/>
     </g>
     <g id="line2d_6">
      <g>
       <use xlink:href="#m25bec6bbdd" x="284.736834" y="384.48" style="stroke: #000000; stroke-width: 0.8"/>
      </g>
     </g>
     <g id="text_3">
      <!-- 20000 -->
      <g transform="translate(268.830584 399.078438) scale(0.1 -0.1)">
       <defs>
        <path id="DejaVuSans-32" d="M 1228 531 
L 3431 531 
L 3431 0 
L 469 0 
L 469 531 
Q 828 903 1448 1529 
Q 2069 2156 2228 2338 
Q 2531 2678 2651 2914 
Q 2772 3150 2772 3378 
Q 2772 3750 2511 3984 
Q 2250 4219 1831 4219 
Q 1534 4219 1204 4116 
Q 875 4013 500 3803 
L 500 4441 
Q 881 4594 1212 4672 
Q 1544 4750 1819 4750 
Q 2544 4750 2975 4387 
Q 3406 4025 3406 3419 
Q 3406 3131 3298 2873 
Q 3191 2616 2906 2266 
Q 2828 2175 2409 1742 
Q 1991 1309 1228 531 
z
" transform="scale(0.015625)"/>
       </defs>
       <use xlink:href="#DejaVuSans-32"/>
       <use xlink:href="#DejaVuSans-30" x="63.623047"/>
       <use xlink:href="#DejaVuSans-30" x="127.246094"/>
       <use xlink:href="#DejaVuSans-30" x="190.869141"/>
       <use xlink:href="#DejaVuSans-30" x="254.492188"/>
      </g>
     </g>
    </g>
    <g id="xtick_4">
     <g id="line2d_7">
      <path d="M 369.423433 384.48 
L 369.423433 51.84 
" clip-path="url(#p894297e7a5)" style="fill: none; stroke: #b0b0b0; stroke-width: 0.8; stroke-linecap: square"/>
     </g>
     <g id="line2d_8">
      <g>
       <use xlink:href="#m25bec6bbdd" x="369.423433" y="384.48" style="stroke: #000000; stroke-width: 0.8"/>
      </g>
     </g>
     <g id="text_4">
      <!-- 30000 -->
      <g transform="translate(353.517183 399.078438) scale(0.1 -0.1)">
       <defs>
        <path id="DejaVuSans-33" d="M 2597 2516 
Q 3050 2419 3304 2112 
Q 3559 1806 3559 1356 
Q 3559 666 3084 287 
Q 2609 -91 1734 -91 
Q 1441 -91 1130 -33 
Q 819 25 488 141 
L 488 750 
Q 750 597 1062 519 
Q 1375 441 1716 441 
Q 2309 441 2620 675 
Q 2931 909 2931 1356 
Q 2931 1769 2642 2001 
Q 2353 2234 1838 2234 
L 1294 2234 
L 1294 2753 
L 1863 2753 
Q 2328 2753 2575 2939 
Q 2822 3125 2822 3475 
Q 2822 3834 2567 4026 
Q 2313 4219 1838 4219 
Q 1578 4219 1281 4162 
Q 984 4106 628 3988 
L 628 4550 
Q 988 4650 1302 4700 
Q 1616 4750 1894 4750 
Q 2613 4750 3031 4423 
Q 3450 4097 3450 3541 
Q 3450 3153 3228 2886 
Q 3006 2619 2597 2516 
z
" transform="scale(0.015625)"/>
       </defs>
       <use xlink:href="#DejaVuSans-33"/>
       <use xlink:href="#DejaVuSans-30" x="63.623047"/>
       <use xlink:href="#DejaVuSans-30" x="127.246094"/>
       <use xlink:href="#DejaVuSans-30" x="190.869141"/>
       <use xlink:href="#DejaVuSans-30" x="254.492188"/>
      </g>
     </g>
    </g>
    <g id="xtick_5">
     <g id="line2d_9">
      <path d="M 454.110032 384.48 
L 454.110032 51.84 
" clip-path="url(#p894297e7a5)" style="fill: none; stroke: #b0b0b0; stroke-width: 0.8; stroke-linecap: square"/>
     </g>
     <g id="line2d_10">
      <g>
       <use xlink:href="#m25bec6bbdd" x="454.110032" y="384.48" style="stroke: #000000; stroke-width: 0.8"/>
      </g>
     </g>
     <g id="text_5">
      <!-- 40000 -->
      <g transform="translate(438.203782 399.078438) scale(0.1 -0.1)">
       <defs>
        <path id="DejaVuSans-34" d="M 2419 4116 
L 825 1625 
L 2419 1625 
L 2419 4116 
z
M 2253 4666 
L 3047 4666 
L 3047 1625 
L 3713 1625 
L 3713 1100 
L 3047 1100 
L 3047 0 
L 2419 0 
L 2419 1100 
L 313 1100 
L 313 1709 
L 2253 4666 
z
" transform="scale(0.015625)"/>
       </defs>
       <use xlink:href="#DejaVuSans-34"/>
       <use xlink:href="#DejaVuSans-30" x="63.623047"/>
       <use xlink:href="#DejaVuSans-30" x="127.246094"/>
       <use xlink:href="#DejaVuSans-30" x="190.869141"/>
       <use xlink:href="#DejaVuSans-30" x="254.492188"/>
      </g>
     </g>
    </g>
    <g id="xtick_6">
     <g id="line2d_11">
      <path d="M 538.796631 384.48 
L 538.796631 51.84 
" clip-path="url(#p894297e7a5)" style="fill: none; stroke: #b0b0b0; stroke-width: 0.8; stroke-linecap: square"/>
     </g>
     <g id="line2d_12">
      <g>
       <use xlink:href="#m25bec6bbdd" x="538.796631" y="384.48" style="stroke: #000000; stroke-width: 0.8"/>
      </g>
     </g>
     <g id="text_6">
      <!-- 50000 -->
      <g transform="translate(522.890381 399.078438) scale(0.1 -0.1)">
       <defs>
        <path id="DejaVuSans-35" d="M 691 4666 
L 3169 4666 
L 3169 4134 
L 1269 4134 
L 1269 2991 
Q 1406 3038 1543 3061 
Q 1681 3084 1819 3084 
Q 2600 3084 3056 2656 
Q 3513 2228 3513 1497 
Q 3513 744 3044 326 
Q 2575 -91 1722 -91 
Q 1428 -91 1123 -41 
Q 819 9 494 109 
L 494 744 
Q 775 591 1075 516 
Q 1375 441 1709 441 
Q 2250 441 2565 725 
Q 2881 1009 2881 1497 
Q 2881 1984 2565 2268 
Q 2250 2553 1709 2553 
Q 1456 2553 1204 2497 
Q 953 2441 691 2322 
L 691 4666 
z
" transform="scale(0.015625)"/>
       </defs>
       <use xlink:href="#DejaVuSans-35"/>
       <use xlink:href="#DejaVuSans-30" x="63.623047"/>
       <use xlink:href="#DejaVuSans-30" x="127.246094"/>
       <use xlink:href="#DejaVuSans-30" x="190.869141"/>
       <use xlink:href="#DejaVuSans-30" x="254.492188"/>
      </g>
     </g>
    </g>
    <g id="xtick_7">
     <g id="line2d_13">
      <path d="M 623.48323 384.48 
L 623.48323 51.84 
" clip-path="url(#p894297e7a5)" style="fill: none; stroke: #b0b0b0; stroke-width: 0.8; stroke-linecap: square"/>
     </g>
     <g id="line2d_14">
      <g>
       <use xlink:href="#m25bec6bbdd" x="623.48323" y="384.48" style="stroke: #000000; stroke-width: 0.8"/>
      </g>
     </g>
     <g id="text_7">
      <!-- 60000 -->
      <g transform="translate(607.57698 399.078438) scale(0.1 -0.1)">
       <defs>
        <path id="DejaVuSans-36" d="M 2113 2584 
Q 1688 2584 1439 2293 
Q 1191 2003 1191 1497 
Q 1191 994 1439 701 
Q 1688 409 2113 409 
Q 2538 409 2786 701 
Q 3034 994 3034 1497 
Q 3034 2003 2786 2293 
Q 2538 2584 2113 2584 
z
M 3366 4563 
L 3366 3988 
Q 3128 4100 2886 4159 
Q 2644 4219 2406 4219 
Q 1781 4219 1451 3797 
Q 1122 3375 1075 2522 
Q 1259 2794 1537 2939 
Q 1816 3084 2150 3084 
Q 2853 3084 3261 2657 
Q 3669 2231 3669 1497 
Q 3669 778 3244 343 
Q 2819 -91 2113 -91 
Q 1303 -91 875 529 
Q 447 1150 447 2328 
Q 447 3434 972 4092 
Q 1497 4750 2381 4750 
Q 2619 4750 2861 4703 
Q 3103 4656 3366 4563 
z
" transform="scale(0.015625)"/>
       </defs>
       <use xlink:href="#DejaVuSans-36"/>
       <use xlink:href="#DejaVuSans-30" x="63.623047"/>
       <use xlink:href="#DejaVuSans-30" x="127.246094"/>
       <use xlink:href="#DejaVuSans-30" x="190.869141"/>
       <use xlink:href="#DejaVuSans-30" x="254.492188"/>
      </g>
     </g>
    </g>
    <g id="text_8">
     <!-- Iterations -->
     <g transform="translate(335.661406 415.795938) scale(0.14 -0.14)">
      <defs>
       <path id="DejaVuSans-49" d="M 628 4666 
L 1259 4666 
L 1259 0 
L 628 0 
L 628 4666 
z
" transform="scale(0.015625)"/>
       <path id="DejaVuSans-74" d="M 1172 4494 
L 1172 3500 
L 2356 3500 
L 2356 3053 
L 1172 3053 
L 1172 1153 
Q 1172 725 1289 603 
Q 1406 481 1766 481 
L 2356 481 
L 2356 0 
L 1766 0 
Q 1100 0 847 248 
Q 594 497 594 1153 
L 594 3053 
L 172 3053 
L 172 3500 
L 594 3500 
L 594 4494 
L 1172 4494 
z
" transform="scale(0.015625)"/>
       <path id="DejaVuSans-65" d="M 3597 1894 
L 3597 1613 
L 953 1613 
Q 991 1019 1311 708 
Q 1631 397 2203 397 
Q 2534 397 2845 478 
Q 3156 559 3463 722 
L 3463 178 
Q 3153 47 2828 -22 
Q 2503 -91 2169 -91 
Q 1331 -91 842 396 
Q 353 884 353 1716 
Q 353 2575 817 3079 
Q 1281 3584 2069 3584 
Q 2775 3584 3186 3129 
Q 3597 2675 3597 1894 
z
M 3022 2063 
Q 3016 2534 2758 2815 
Q 2500 3097 2075 3097 
Q 1594 3097 1305 2825 
Q 1016 2553 972 2059 
L 3022 2063 
z
" transform="scale(0.015625)"/>
       <path id="DejaVuSans-72" d="M 2631 2963 
Q 2534 3019 2420 3045 
Q 2306 3072 2169 3072 
Q 1681 3072 1420 2755 
Q 1159 2438 1159 1844 
L 1159 0 
L 581 0 
L 581 3500 
L 1159 3500 
L 1159 2956 
Q 1341 3275 1631 3429 
Q 1922 3584 2338 3584 
Q 2397 3584 2469 3576 
Q 2541 3569 2628 3553 
L 2631 2963 
z
" transform="scale(0.015625)"/>
       <path id="DejaVuSans-61" d="M 2194 1759 
Q 1497 1759 1228 1600 
Q 959 1441 959 1056 
Q 959 750 1161 570 
Q 1363 391 1709 391 
Q 2188 391 2477 730 
Q 2766 1069 2766 1631 
L 2766 1759 
L 2194 1759 
z
M 3341 1997 
L 3341 0 
L 2766 0 
L 2766 531 
Q 2569 213 2275 61 
Q 1981 -91 1556 -91 
Q 1019 -91 701 211 
Q 384 513 384 1019 
Q 384 1609 779 1909 
Q 1175 2209 1959 2209 
L 2766 2209 
L 2766 2266 
Q 2766 2663 2505 2880 
Q 2244 3097 1772 3097 
Q 1472 3097 1187 3025 
Q 903 2953 641 2809 
L 641 3341 
Q 956 3463 1253 3523 
Q 1550 3584 1831 3584 
Q 2591 3584 2966 3190 
Q 3341 2797 3341 1997 
z
" transform="scale(0.015625)"/>
       <path id="DejaVuSans-69" d="M 603 3500 
L 1178 3500 
L 1178 0 
L 603 0 
L 603 3500 
z
M 603 4863 
L 1178 4863 
L 1178 4134 
L 603 4134 
L 603 4863 
z
" transform="scale(0.015625)"/>
       <path id="DejaVuSans-6f" d="M 1959 3097 
Q 1497 3097 1228 2736 
Q 959 2375 959 1747 
Q 959 1119 1226 758 
Q 1494 397 1959 397 
Q 2419 397 2687 759 
Q 2956 1122 2956 1747 
Q 2956 2369 2687 2733 
Q 2419 3097 1959 3097 
z
M 1959 3584 
Q 2709 3584 3137 3096 
Q 3566 2609 3566 1747 
Q 3566 888 3137 398 
Q 2709 -91 1959 -91 
Q 1206 -91 779 398 
Q 353 888 353 1747 
Q 353 2609 779 3096 
Q 1206 3584 1959 3584 
z
" transform="scale(0.015625)"/>
       <path id="DejaVuSans-6e" d="M 3513 2113 
L 3513 0 
L 2938 0 
L 2938 2094 
Q 2938 2591 2744 2837 
Q 2550 3084 2163 3084 
Q 1697 3084 1428 2787 
Q 1159 2491 1159 1978 
L 1159 0 
L 581 0 
L 581 3500 
L 1159 3500 
L 1159 2956 
Q 1366 3272 1645 3428 
Q 1925 3584 2291 3584 
Q 2894 3584 3203 3211 
Q 3513 2838 3513 2113 
z
" transform="scale(0.015625)"/>
       <path id="DejaVuSans-73" d="M 2834 3397 
L 2834 2853 
Q 2591 2978 2328 3040 
Q 2066 3103 1784 3103 
Q 1356 3103 1142 2972 
Q 928 2841 928 2578 
Q 928 2378 1081 2264 
Q 1234 2150 1697 2047 
L 1894 2003 
Q 2506 1872 2764 1633 
Q 3022 1394 3022 966 
Q 3022 478 2636 193 
Q 2250 -91 1575 -91 
Q 1294 -91 989 -36 
Q 684 19 347 128 
L 347 722 
Q 666 556 975 473 
Q 1284 391 1588 391 
Q 1994 391 2212 530 
Q 2431 669 2431 922 
Q 2431 1156 2273 1281 
Q 2116 1406 1581 1522 
L 1381 1569 
Q 847 1681 609 1914 
Q 372 2147 372 2553 
Q 372 3047 722 3315 
Q 1072 3584 1716 3584 
Q 2034 3584 2315 3537 
Q 2597 3491 2834 3397 
z
" transform="scale(0.015625)"/>
      </defs>
      <use xlink:href="#DejaVuSans-49"/>
      <use xlink:href="#DejaVuSans-74" x="29.492188"/>
      <use xlink:href="#DejaVuSans-65" x="68.701172"/>
      <use xlink:href="#DejaVuSans-72" x="130.224609"/>
      <use xlink:href="#DejaVuSans-61" x="171.337891"/>
      <use xlink:href="#DejaVuSans-74" x="232.617188"/>
      <use xlink:href="#DejaVuSans-69" x="271.826172"/>
      <use xlink:href="#DejaVuSans-6f" x="299.609375"/>
      <use xlink:href="#DejaVuSans-6e" x="360.791016"/>
      <use xlink:href="#DejaVuSans-73" x="424.169922"/>
     </g>
    </g>
   </g>
   <g id="matplotlib.axis_2">
    <g id="ytick_1">
     <g id="line2d_15">
      <path d="M 90 384.48 
L 648 384.48 
" clip-path="url(#p894297e7a5)" style="fill: none; stroke: #b0b0b0; stroke-width: 0.8; stroke-linecap: square"/>
     </g>
     <g id="line2d_16">
      <defs>
       <path id="m220cc11198" d="M 0 0 
L -3.5 0 
" style="stroke: #000000; stroke-width: 0.8"/>
      </defs>
      <g>
       <use xlink:href="#m220cc11198" x="90" y="384.48" style="stroke: #000000; stroke-width: 0.8"/>
      </g>
     </g>
     <g id="text_9">
      <!-- 0.0 -->
      <g transform="translate(67.096875 388.279219) scale(0.1 -0.1)">
       <defs>
        <path id="DejaVuSans-2e" d="M 684 794 
L 1344 794 
L 1344 0 
L 684 0 
L 684 794 
z
" transform="scale(0.015625)"/>
       </defs>
       <use xlink:href="#DejaVuSans-30"/>
       <use xlink:href="#DejaVuSans-2e" x="63.623047"/>
       <use xlink:href="#DejaVuSans-30" x="95.410156"/>
      </g>
     </g>
    </g>
    <g id="ytick_2">
     <g id="line2d_17">
      <path d="M 90 317.952 
L 648 317.952 
" clip-path="url(#p894297e7a5)" style="fill: none; stroke: #b0b0b0; stroke-width: 0.8; stroke-linecap: square"/>
     </g>
     <g id="line2d_18">
      <g>
       <use xlink:href="#m220cc11198" x="90" y="317.952" style="stroke: #000000; stroke-width: 0.8"/>
      </g>
     </g>
     <g id="text_10">
      <!-- 0.2 -->
      <g transform="translate(67.096875 321.751219) scale(0.1 -0.1)">
       <use xlink:href="#DejaVuSans-30"/>
       <use xlink:href="#DejaVuSans-2e" x="63.623047"/>
       <use xlink:href="#DejaVuSans-32" x="95.410156"/>
      </g>
     </g>
    </g>
    <g id="ytick_3">
     <g id="line2d_19">
      <path d="M 90 251.424 
L 648 251.424 
" clip-path="url(#p894297e7a5)" style="fill: none; stroke: #b0b0b0; stroke-width: 0.8; stroke-linecap: square"/>
     </g>
     <g id="line2d_20">
      <g>
       <use xlink:href="#m220cc11198" x="90" y="251.424" style="stroke: #000000; stroke-width: 0.8"/>
      </g>
     </g>
     <g id="text_11">
      <!-- 0.4 -->
      <g transform="translate(67.096875 255.223219) scale(0.1 -0.1)">
       <use xlink:href="#DejaVuSans-30"/>
       <use xlink:href="#DejaVuSans-2e" x="63.623047"/>
       <use xlink:href="#DejaVuSans-34" x="95.410156"/>
      </g>
     </g>
    </g>
    <g id="ytick_4">
     <g id="line2d_21">
      <path d="M 90 184.896 
L 648 184.896 
" clip-path="url(#p894297e7a5)" style="fill: none; stroke: #b0b0b0; stroke-width: 0.8; stroke-linecap: square"/>
     </g>
     <g id="line2d_22">
      <g>
       <use xlink:href="#m220cc11198" x="90" y="184.896" style="stroke: #000000; stroke-width: 0.8"/>
      </g>
     </g>
     <g id="text_12">
      <!-- 0.6 -->
      <g transform="translate(67.096875 188.695219) scale(0.1 -0.1)">
       <use xlink:href="#DejaVuSans-30"/>
       <use xlink:href="#DejaVuSans-2e" x="63.623047"/>
       <use xlink:href="#DejaVuSans-36" x="95.410156"/>
      </g>
     </g>
    </g>
    <g id="ytick_5">
     <g id="line2d_23">
      <path d="M 90 118.368 
L 648 118.368 
" clip-path="url(#p894297e7a5)" style="fill: none; stroke: #b0b0b0; stroke-width: 0.8; stroke-linecap: square"/>
     </g>
     <g id="line2d_24">
      <g>
       <use xlink:href="#m220cc11198" x="90" y="118.368" style="stroke: #000000; stroke-width: 0.8"/>
      </g>
     </g>
     <g id="text_13">
      <!-- 0.8 -->
      <g transform="translate(67.096875 122.167219) scale(0.1 -0.1)">
       <defs>
        <path id="DejaVuSans-38" d="M 2034 2216 
Q 1584 2216 1326 1975 
Q 1069 1734 1069 1313 
Q 1069 891 1326 650 
Q 1584 409 2034 409 
Q 2484 409 2743 651 
Q 3003 894 3003 1313 
Q 3003 1734 2745 1975 
Q 2488 2216 2034 2216 
z
M 1403 2484 
Q 997 2584 770 2862 
Q 544 3141 544 3541 
Q 544 4100 942 4425 
Q 1341 4750 2034 4750 
Q 2731 4750 3128 4425 
Q 3525 4100 3525 3541 
Q 3525 3141 3298 2862 
Q 3072 2584 2669 2484 
Q 3125 2378 3379 2068 
Q 3634 1759 3634 1313 
Q 3634 634 3220 271 
Q 2806 -91 2034 -91 
Q 1263 -91 848 271 
Q 434 634 434 1313 
Q 434 1759 690 2068 
Q 947 2378 1403 2484 
z
M 1172 3481 
Q 1172 3119 1398 2916 
Q 1625 2713 2034 2713 
Q 2441 2713 2670 2916 
Q 2900 3119 2900 3481 
Q 2900 3844 2670 4047 
Q 2441 4250 2034 4250 
Q 1625 4250 1398 4047 
Q 1172 3844 1172 3481 
z
" transform="scale(0.015625)"/>
       </defs>
       <use xlink:href="#DejaVuSans-30"/>
       <use xlink:href="#DejaVuSans-2e" x="63.623047"/>
       <use xlink:href="#DejaVuSans-38" x="95.410156"/>
      </g>
     </g>
    </g>
    <g id="ytick_6">
     <g id="line2d_25">
      <path d="M 90 51.84 
L 648 51.84 
" clip-path="url(#p894297e7a5)" style="fill: none; stroke: #b0b0b0; stroke-width: 0.8; stroke-linecap: square"/>
     </g>
     <g id="line2d_26">
      <g>
       <use xlink:href="#m220cc11198" x="90" y="51.84" style="stroke: #000000; stroke-width: 0.8"/>
      </g>
     </g>
     <g id="text_14">
      <!-- 1.0 -->
      <g transform="translate(67.096875 55.639219) scale(0.1 -0.1)">
       <use xlink:href="#DejaVuSans-31"/>
       <use xlink:href="#DejaVuSans-2e" x="63.623047"/>
       <use xlink:href="#DejaVuSans-30" x="95.410156"/>
      </g>
     </g>
    </g>
    <g id="text_15">
     <!-- Accuracy -->
     <g transform="translate(60.185312 250.119375) rotate(-90) scale(0.14 -0.14)">
      <defs>
       <path id="DejaVuSans-41" d="M 2188 4044 
L 1331 1722 
L 3047 1722 
L 2188 4044 
z
M 1831 4666 
L 2547 4666 
L 4325 0 
L 3669 0 
L 3244 1197 
L 1141 1197 
L 716 0 
L 50 0 
L 1831 4666 
z
" transform="scale(0.015625)"/>
       <path id="DejaVuSans-63" d="M 3122 3366 
L 3122 2828 
Q 2878 2963 2633 3030 
Q 2388 3097 2138 3097 
Q 1578 3097 1268 2742 
Q 959 2388 959 1747 
Q 959 1106 1268 751 
Q 1578 397 2138 397 
Q 2388 397 2633 464 
Q 2878 531 3122 666 
L 3122 134 
Q 2881 22 2623 -34 
Q 2366 -91 2075 -91 
Q 1284 -91 818 406 
Q 353 903 353 1747 
Q 353 2603 823 3093 
Q 1294 3584 2113 3584 
Q 2378 3584 2631 3529 
Q 2884 3475 3122 3366 
z
" transform="scale(0.015625)"/>
       <path id="DejaVuSans-75" d="M 544 1381 
L 544 3500 
L 1119 3500 
L 1119 1403 
Q 1119 906 1312 657 
Q 1506 409 1894 409 
Q 2359 409 2629 706 
Q 2900 1003 2900 1516 
L 2900 3500 
L 3475 3500 
L 3475 0 
L 2900 0 
L 2900 538 
Q 2691 219 2414 64 
Q 2138 -91 1772 -91 
Q 1169 -91 856 284 
Q 544 659 544 1381 
z
M 1991 3584 
L 1991 3584 
z
" transform="scale(0.015625)"/>
       <path id="DejaVuSans-79" d="M 2059 -325 
Q 1816 -950 1584 -1140 
Q 1353 -1331 966 -1331 
L 506 -1331 
L 506 -850 
L 844 -850 
Q 1081 -850 1212 -737 
Q 1344 -625 1503 -206 
L 1606 56 
L 191 3500 
L 800 3500 
L 1894 763 
L 2988 3500 
L 3597 3500 
L 2059 -325 
z
" transform="scale(0.015625)"/>
      </defs>
      <use xlink:href="#DejaVuSans-41"/>
      <use xlink:href="#DejaVuSans-63" x="66.658203"/>
      <use xlink:href="#DejaVuSans-63" x="121.638672"/>
      <use xlink:href="#DejaVuSans-75" x="176.619141"/>
      <use xlink:href="#DejaVuSans-72" x="239.998047"/>
      <use xlink:href="#DejaVuSans-61" x="281.111328"/>
      <use xlink:href="#DejaVuSans-63" x="342.390625"/>
      <use xlink:href="#DejaVuSans-79" x="397.371094"/>
     </g>
    </g>
   </g>
   <g id="line2d_27">
    <path d="M 115.363636 344.502216 
L 116.210502 183.67632 
L 117.057368 151.9092 
L 117.904234 150.639624 
L 118.7511 131.279976 
L 119.597966 142.767144 
L 120.444832 118.456704 
L 121.291698 135.809424 
L 122.138564 117.31464 
L 122.98543 109.508688 
L 123.832296 127.171872 
L 124.679162 113.428296 
L 125.526028 110.068632 
L 126.372894 105.633432 
L 127.21976 105.261984 
L 128.066626 97.24536 
L 128.913492 99.180216 
L 129.760358 104.31396 
L 130.607224 108.671544 
L 131.45409 101.037456 
L 132.300956 107.47404 
L 133.147822 106.06032 
L 133.994688 97.400592 
L 134.841554 96.014592 
L 135.68842 96.286248 
L 136.535286 102.889152 
L 137.382152 96.646608 
L 138.229018 94.645224 
L 139.075884 100.632744 
L 139.92275 98.453952 
L 140.769616 93.076272 
L 141.616482 104.430384 
L 142.463348 90.459504 
L 143.310214 91.8954 
L 144.15708 96.918264 
L 145.003946 91.56276 
L 145.850812 97.589088 
L 146.697678 93.874608 
L 147.544544 92.455344 
L 148.39141 88.2918 
L 150.085142 92.987568 
L 150.932008 93.242592 
L 151.778874 94.761648 
L 152.62574 89.827488 
L 153.472606 91.135872 
L 154.319472 87.554448 
L 155.166338 96.66324 
L 156.013204 93.846888 
L 156.86007 88.618896 
L 157.706936 87.149736 
L 158.553802 89.478216 
L 159.400668 87.776208 
L 160.247534 88.075584 
L 161.0944 88.629984 
L 161.941266 87.809472 
L 162.788132 90.25992 
L 163.634998 85.569696 
L 164.481864 92.544048 
L 165.32873 88.419312 
L 166.175596 86.550984 
L 167.022462 90.282096 
L 167.869328 86.12964 
L 168.716194 88.812936 
L 169.56306 88.036776 
L 170.409926 90.59256 
L 171.256792 87.426936 
L 172.103658 85.82472 
L 172.950524 92.627208 
L 173.79739 90.032616 
L 174.644256 84.233592 
L 175.491122 89.478216 
L 176.337988 84.155976 
L 177.184854 87.815016 
L 178.03172 83.379816 
L 178.878586 87.304968 
L 180.572317 85.514256 
L 181.419183 86.43456 
L 182.266049 92.909952 
L 183.112915 84.943224 
L 183.959781 83.025 
L 184.806647 90.86976 
L 185.653513 85.3812 
L 186.500379 83.418624 
L 187.347245 85.07628 
L 188.194111 84.399912 
L 189.040977 87.055488 
L 189.887843 87.559992 
L 190.734709 88.81848 
L 191.581575 84.167064 
L 192.428441 80.979264 
L 193.275307 83.718 
L 194.122173 84.85452 
L 194.969039 84.926592 
L 195.815905 82.808784 
L 196.662771 88.663248 
L 197.509637 82.365264 
L 198.356503 86.745024 
L 199.203369 80.435952 
L 200.050235 79.997976 
L 200.897101 82.891944 
L 201.743967 83.363184 
L 202.590833 85.370112 
L 203.437699 81.395064 
L 204.284565 80.203104 
L 205.131431 80.596728 
L 205.978297 80.785224 
L 206.825163 82.77552 
L 207.672029 83.368728 
L 208.518895 83.668104 
L 209.365761 80.41932 
L 210.212627 81.106776 
L 211.059493 84.255768 
L 211.906359 80.873928 
L 212.753225 79.304976 
L 213.600091 79.499016 
L 214.446957 83.036088 
L 215.293823 82.675728 
L 216.140689 84.111624 
L 216.987555 81.2232 
L 217.834421 83.318832 
L 218.681287 83.124792 
L 219.528153 86.151816 
L 220.375019 81.699984 
L 221.221885 79.859376 
L 222.068751 79.133112 
L 222.915617 83.207952 
L 223.762483 79.36596 
L 224.609349 83.718 
L 225.456215 81.117864 
L 226.303081 82.093608 
L 227.149947 79.08876 
L 227.996813 78.5898 
L 228.843679 77.39784 
L 229.690545 77.614056 
L 230.537411 78.268248 
L 231.384277 81.877392 
L 232.231143 76.937688 
L 233.078009 77.686128 
L 234.771741 85.614048 
L 235.618607 82.55376 
L 236.465473 78.11856 
L 237.312339 78.794928 
L 238.159205 78.972336 
L 239.006071 80.208648 
L 239.852937 78.168456 
L 240.699803 81.162216 
L 241.546669 81.134496 
L 242.393535 77.347944 
L 243.240401 78.00768 
L 244.087267 79.8372 
L 244.934133 76.100544 
L 245.780999 78.983424 
L 246.627865 77.913432 
L 247.474731 76.460904 
L 248.321597 76.128264 
L 249.168463 76.283496 
L 250.015329 76.788 
L 250.862195 77.14836 
L 251.709061 76.183704 
L 252.555927 80.879472 
L 253.402793 75.712464 
L 254.249659 76.643856 
L 255.096525 77.281416 
L 255.94339 76.788 
L 256.790256 77.558616 
L 257.637122 78.040944 
L 258.483988 76.167072 
L 259.330854 78.046488 
L 260.17772 75.579408 
L 261.024586 75.62376 
L 261.871452 76.03956 
L 262.718318 75.335472 
L 263.565184 79.970256 
L 264.41205 80.469216 
L 265.258916 81.16776 
L 266.105782 76.754736 
L 266.952648 76.499712 
L 267.799514 75.806712 
L 268.64638 76.405464 
L 269.493246 75.274488 
L 270.340112 78.25716 
L 271.186978 75.806712 
L 272.033844 81.55584 
L 272.88071 75.058272 
L 273.727576 76.422096 
L 274.574442 76.610592 
L 275.421308 74.725632 
L 276.268174 74.51496 
L 277.11504 75.535056 
L 277.961906 75.296664 
L 278.808772 77.14836 
L 279.655638 75.5406 
L 280.502504 75.662568 
L 281.34937 76.366656 
L 282.196236 74.021544 
L 283.043102 75.058272 
L 283.889968 78.318144 
L 284.736834 76.627224 
L 285.5837 76.438728 
L 286.430566 77.918976 
L 287.277432 75.51288 
L 288.124298 74.287656 
L 288.971164 76.283496 
L 289.81803 74.1546 
L 290.664896 75.285576 
L 291.511762 79.099848 
L 292.358628 76.139352 
L 293.205494 76.793544 
L 294.05236 75.135888 
L 294.899226 75.025008 
L 295.746092 74.65356 
L 296.592958 76.837896 
L 297.439824 74.919672 
L 298.28669 74.947392 
L 299.133556 74.631384 
L 299.980422 73.788696 
L 300.827288 76.089456 
L 301.674154 77.741568 
L 302.52102 77.652864 
L 303.367886 78.550992 
L 304.214752 76.100544 
L 305.061618 76.072824 
L 305.908484 74.703456 
L 306.75535 79.870464 
L 308.449082 74.09916 
L 309.295948 75.45744 
L 310.142814 73.594656 
L 310.98968 75.446352 
L 311.836546 72.984816 
L 312.683412 72.984816 
L 313.530278 75.828888 
L 314.377144 74.243304 
L 315.22401 73.93284 
L 316.070876 80.535744 
L 316.917742 72.7686 
L 317.764608 73.993824 
L 318.611474 73.162224 
L 319.45834 74.620296 
L 320.305206 72.973728 
L 321.152072 76.521888 
L 321.998938 72.32508 
L 322.845804 74.51496 
L 323.69267 74.93076 
L 324.539536 73.300824 
L 325.386402 74.032632 
L 326.233268 74.437344 
L 327.080134 73.422792 
L 327.927 73.223208 
L 328.773866 77.558616 
L 329.620732 73.539216 
L 330.467598 73.6002 
L 331.314463 74.675736 
L 332.161329 73.838592 
L 333.008195 72.496944 
L 333.855061 73.68336 
L 334.701927 72.68544 
L 335.548793 74.76444 
L 336.395659 73.106784 
L 337.242525 71.792856 
L 338.089391 75.839976 
L 338.936257 72.419328 
L 339.783123 74.997288 
L 340.629989 74.781072 
L 341.476855 72.885024 
L 342.323721 74.642472 
L 343.170587 72.530208 
L 344.017453 72.363888 
L 344.864319 72.901656 
L 345.711185 72.180936 
L 346.558051 75.446352 
L 348.251783 73.500408 
L 349.098649 74.04372 
L 349.945515 73.733256 
L 350.792381 74.093616 
L 351.639247 74.758896 
L 352.486113 73.234296 
L 353.332979 72.236376 
L 354.179845 74.642472 
L 355.873577 75.729096 
L 356.720443 72.46368 
L 357.567309 72.308448 
L 358.414175 74.32092 
L 359.261041 74.254392 
L 360.107907 72.064512 
L 360.954773 71.787312 
L 361.801639 75.878784 
L 362.648505 72.557928 
L 363.495371 71.46576 
L 364.342237 73.15668 
L 366.035969 73.522584 
L 366.882835 70.922448 
L 367.729701 72.32508 
L 368.576567 71.693064 
L 369.423433 72.591192 
L 370.270299 72.74088 
L 371.117165 72.3528 
L 371.964031 73.023624 
L 372.810897 70.490016 
L 373.657763 71.415864 
L 374.504629 72.097776 
L 375.351495 72.447048 
L 376.198361 71.759592 
L 377.045227 73.195488 
L 377.892093 74.07144 
L 378.738959 72.136584 
L 379.585825 74.603664 
L 380.432691 75.20796 
L 381.279557 71.04996 
L 382.126423 70.750584 
L 382.973289 72.13104 
L 383.820155 71.393688 
L 384.667021 72.142128 
L 385.513887 71.948088 
L 386.360753 72.82404 
L 387.207619 70.767216 
L 388.054485 74.176776 
L 388.901351 71.71524 
L 389.748217 73.755432 
L 390.595083 71.399232 
L 391.441949 70.395768 
L 392.288815 74.088072 
L 393.135681 71.593272 
L 394.829413 70.839288 
L 395.676279 71.310528 
L 396.523145 70.6896 
L 397.370011 70.878096 
L 398.216877 70.667424 
L 399.063743 71.388144 
L 399.910609 71.676432 
L 400.757475 69.819192 
L 401.604341 72.175392 
L 402.451207 70.49556 
L 403.298073 69.602976 
L 404.144939 71.02224 
L 405.838671 70.174008 
L 406.685537 70.251624 
L 407.532402 72.508032 
L 408.379268 72.180936 
L 410.073 71.16084 
L 410.919866 70.02432 
L 411.766732 69.769296 
L 412.613598 71.238456 
L 413.460464 70.295976 
L 414.30733 70.368048 
L 415.154196 70.101936 
L 416.001062 71.32716 
L 416.847928 73.411704 
L 417.694794 72.641088 
L 418.54166 70.07976 
L 419.388526 69.952248 
L 420.235392 71.615448 
L 421.082258 70.77276 
L 421.929124 70.977888 
L 422.77599 70.018776 
L 423.622856 71.055504 
L 424.469722 72.402696 
L 425.316588 71.532288 
L 426.163454 70.867008 
L 427.01032 71.377056 
L 427.857186 71.3826 
L 428.704052 71.582184 
L 429.550918 72.219744 
L 430.397784 73.672272 
L 431.24465 72.40824 
L 432.091516 76.721472 
L 432.938382 72.203112 
L 433.785248 74.254392 
L 434.632114 69.891264 
L 435.47898 70.351416 
L 436.325846 69.675048 
L 437.172712 71.781768 
L 438.019578 71.199648 
L 438.866444 70.850376 
L 439.71331 69.763752 
L 440.560176 71.110944 
L 441.407042 69.35904 
L 442.253908 69.630696 
L 443.100774 71.931456 
L 443.94764 71.831664 
L 444.794506 69.769296 
L 445.641372 71.582184 
L 446.488238 69.370128 
L 447.335104 70.894728 
L 448.18197 71.1054 
L 449.028836 72.618912 
L 449.875702 72.984816 
L 450.722568 72.15876 
L 451.569434 71.487936 
L 452.4163 70.029864 
L 453.263166 71.959176 
L 454.110032 73.339632 
L 454.956898 69.880176 
L 455.803764 68.987592 
L 456.65063 71.000064 
L 457.497496 70.878096 
L 458.344362 69.453288 
L 460.038094 69.77484 
L 460.88496 70.528824 
L 461.731826 70.362504 
L 462.578692 71.487936 
L 463.425558 71.90928 
L 464.272424 70.645248 
L 465.11929 76.155984 
L 466.813022 71.970264 
L 467.659888 72.569016 
L 468.506754 70.451208 
L 469.35362 71.815032 
L 470.200486 72.502488 
L 471.047352 72.18648 
L 472.741084 75.058272 
L 473.58795 72.219744 
L 474.434816 70.140744 
L 475.281682 71.754048 
L 476.128548 69.957792 
L 476.975414 69.758208 
L 477.82228 69.752664 
L 478.669146 69.896808 
L 479.516012 70.168464 
L 480.362878 71.449128 
L 481.209744 70.30152 
L 482.05661 68.921064 
L 482.903475 68.99868 
L 483.750341 69.203808 
L 484.597207 69.63624 
L 485.444073 70.212816 
L 486.290939 70.295976 
L 487.137805 71.815032 
L 487.984671 70.695144 
L 488.831537 70.573176 
L 489.678403 70.822656 
L 490.525269 70.19064 
L 491.372135 68.6106 
L 492.219001 68.83236 
L 493.065867 68.377752 
L 493.912733 69.22044 
L 495.606465 69.253704 
L 496.453331 72.430416 
L 497.300197 70.739496 
L 498.147063 70.700688 
L 498.993929 68.643864 
L 500.687661 67.745736 
L 501.534527 68.865624 
L 502.381393 70.295976 
L 503.228259 68.095008 
L 504.075125 68.699304 
L 504.921991 71.332704 
L 505.768857 69.153912 
L 506.615723 68.982048 
L 507.462589 70.872552 
L 508.309455 69.985512 
L 509.156321 68.926608 
L 510.003187 69.19272 
L 510.850053 69.309144 
L 511.696919 68.893344 
L 512.543785 70.562088 
L 513.390651 68.921064 
L 514.237517 71.194104 
L 515.084383 68.189256 
L 515.931249 70.307064 
L 516.778115 71.781768 
L 517.624981 71.46576 
L 518.471847 77.56416 
L 519.318713 72.458136 
L 520.165579 68.727024 
L 521.012445 68.255784 
L 521.859311 68.261328 
L 522.706177 70.417944 
L 523.553043 68.826816 
L 524.399909 67.934232 
L 525.246775 69.930072 
L 526.093641 67.762368 
L 526.940507 68.155992 
L 527.787373 67.967496 
L 528.634239 68.150448 
L 529.481105 69.791472 
L 530.327971 72.43596 
L 531.174837 68.411016 
L 532.021703 71.094312 
L 532.868569 68.08392 
L 533.715435 68.178168 
L 534.562301 69.309144 
L 535.409167 69.686136 
L 536.256033 68.782464 
L 537.102899 68.865624 
L 537.949765 70.462296 
L 538.796631 68.538528 
L 539.643497 67.402008 
L 540.490363 67.773456 
L 541.337229 68.632776 
L 542.184095 68.327856 
L 543.030961 70.351416 
L 543.877827 68.782464 
L 544.724693 69.037488 
L 545.571559 70.750584 
L 546.418425 69.159456 
L 547.265291 68.211432 
L 548.959023 67.950864 
L 549.805889 71.626536 
L 550.652755 70.783848 
L 551.499621 69.059664 
L 553.193353 67.873248 
L 554.040219 68.72148 
L 554.887085 67.5018 
L 555.733951 68.300136 
L 556.580817 70.451208 
L 557.427683 67.878792 
L 558.274548 68.732568 
L 559.121414 67.756824 
L 559.96828 67.912056 
L 560.815146 67.313304 
L 561.662012 67.817808 
L 562.508878 68.837904 
L 563.355744 69.037488 
L 564.20261 67.984128 
L 565.049476 68.36112 
L 565.896342 68.577336 
L 566.743208 67.657032 
L 568.43694 67.235688 
L 570.130672 68.893344 
L 570.977538 68.133816 
L 571.824404 69.298056 
L 573.518136 68.760288 
L 574.365002 67.324392 
L 576.058734 67.274496 
L 576.9056 68.311224 
L 577.752466 67.52952 
L 578.599332 67.274496 
L 579.446198 68.239152 
L 580.293064 68.494176 
L 581.13993 66.792168 
L 581.986796 67.47408 
L 582.833662 69.347952 
L 583.680528 67.878792 
L 584.527394 67.989672 
L 585.37426 67.645944 
L 586.221126 67.03056 
L 587.067992 66.897504 
L 587.914858 68.627232 
L 588.761724 68.871168 
L 589.60859 68.006304 
L 590.455456 67.72356 
L 591.302322 68.372208 
L 592.149188 67.956408 
L 592.996054 71.110944 
L 593.84292 69.991056 
L 594.689786 70.88364 
L 595.536652 69.336864 
L 596.383518 71.837208 
L 597.230384 68.483088 
L 598.07725 67.701384 
L 598.924116 69.686136 
L 599.770982 67.185792 
L 600.617848 70.068672 
L 601.464714 68.699304 
L 602.31158 67.867704 
L 603.158446 67.66812 
L 604.005312 68.871168 
L 604.852178 67.146984 
L 605.699044 68.155992 
L 606.54591 69.91344 
L 607.392776 68.011848 
L 608.239642 67.657032 
L 609.086508 69.059664 
L 609.933374 69.658416 
L 610.78024 69.697224 
L 612.473972 67.795632 
L 613.320838 68.438736 
L 614.167704 68.133816 
L 615.01457 67.596048 
L 615.861436 67.762368 
L 616.708302 68.876712 
L 617.555168 69.237072 
L 618.402034 68.505264 
L 619.2489 69.541992 
L 620.942632 68.372208 
L 621.789498 68.532984 
L 622.636364 68.266872 
L 622.636364 68.266872 
" clip-path="url(#p894297e7a5)" style="fill: none; stroke: #0000ff; stroke-width: 2; stroke-linecap: square"/>
   </g>
   <g id="line2d_28">
    <path d="M 115.363636 342.23472 
L 116.210502 184.929264 
L 117.057368 152.430336 
L 117.904234 148.738032 
L 118.7511 131.474016 
L 119.597966 143.415792 
L 120.444832 117.237024 
L 121.291698 138.858624 
L 122.138564 117.004176 
L 122.98543 110.351376 
L 123.832296 125.054064 
L 124.679162 112.71312 
L 125.526028 107.5572 
L 126.372894 103.166352 
L 127.21976 103.665312 
L 128.066626 95.449104 
L 128.913492 98.24328 
L 129.760358 103.199616 
L 130.607224 106.359696 
L 131.45409 99.374256 
L 132.300956 106.692336 
L 133.147822 105.029136 
L 133.994688 94.783824 
L 134.841554 94.91688 
L 135.68842 94.91688 
L 136.535286 99.374256 
L 137.382152 95.116464 
L 138.229018 92.954304 
L 139.075884 97.41168 
L 139.92275 95.41584 
L 140.769616 90.659088 
L 141.616482 100.73808 
L 142.463348 88.297344 
L 143.310214 91.158048 
L 144.15708 95.282784 
L 145.003946 91.690272 
L 145.850812 95.41584 
L 146.697678 92.355552 
L 147.544544 91.058256 
L 148.39141 86.301504 
L 149.238276 87.133104 
L 150.085142 90.492768 
L 150.932008 90.492768 
L 151.778874 92.388816 
L 152.62574 88.330608 
L 153.472606 90.326448 
L 154.319472 85.503168 
L 155.166338 96.180912 
L 156.013204 92.821248 
L 156.86007 87.731856 
L 157.706936 85.902336 
L 158.553802 88.629984 
L 159.400668 87.000048 
L 160.247534 86.966784 
L 161.0944 88.197552 
L 161.941266 84.93768 
L 162.788132 89.395056 
L 163.634998 82.975104 
L 164.481864 90.59256 
L 165.32873 86.60088 
L 166.175596 84.804624 
L 167.022462 89.395056 
L 167.869328 85.237056 
L 168.716194 87.26616 
L 169.56306 85.569696 
L 170.409926 88.896096 
L 171.256792 85.104 
L 172.103658 83.906496 
L 172.950524 92.155968 
L 173.79739 87.332688 
L 174.644256 83.706912 
L 175.491122 89.062416 
L 176.337988 82.975104 
L 177.184854 87.731856 
L 178.03172 83.60712 
L 178.878586 87.133104 
L 179.725452 85.469904 
L 180.572317 84.904416 
L 181.419183 85.9356 
L 182.266049 91.856592 
L 183.112915 84.804624 
L 183.959781 82.476144 
L 184.806647 91.623744 
L 185.653513 85.835808 
L 186.500379 83.207952 
L 187.347245 85.104 
L 188.194111 83.074896 
L 189.040977 87.532272 
L 190.734709 88.530192 
L 191.581575 82.94184 
L 192.428441 80.879472 
L 193.275307 83.673648 
L 194.122173 83.307744 
L 194.969039 83.540592 
L 195.815905 82.44288 
L 196.662771 88.862832 
L 197.509637 82.77552 
L 198.356503 86.501088 
L 199.203369 80.746416 
L 200.050235 80.1144 
L 200.897101 83.706912 
L 201.743967 83.60712 
L 202.590833 84.006288 
L 203.437699 79.881552 
L 204.284565 79.316064 
L 205.131431 79.748496 
L 205.978297 79.681968 
L 206.825163 81.844128 
L 207.672029 83.041632 
L 208.518895 84.039552 
L 209.365761 80.147664 
L 210.212627 81.61128 
L 211.059493 84.205872 
L 211.906359 79.815024 
L 212.753225 80.081136 
L 213.600091 80.513568 
L 214.446957 85.037472 
L 215.293823 84.538512 
L 216.140689 84.738096 
L 216.987555 81.478224 
L 217.834421 84.43872 
L 218.681287 85.336848 
L 219.528153 85.60296 
L 220.375019 81.7776 
L 221.221885 80.413776 
L 222.068751 78.384672 
L 222.915617 82.376352 
L 223.762483 78.717312 
L 224.609349 83.507328 
L 225.456215 81.544752 
L 226.303081 81.910656 
L 227.149947 78.983424 
L 228.843679 76.987584 
L 229.690545 76.488624 
L 230.537411 78.218352 
L 231.384277 81.311904 
L 232.231143 77.220432 
L 233.078009 78.417936 
L 233.924875 80.61336 
L 234.771741 83.540592 
L 235.618607 82.6092 
L 236.465473 77.885712 
L 237.312339 79.083216 
L 238.159205 78.883632 
L 239.006071 79.216272 
L 239.852937 78.750576 
L 240.699803 80.313984 
L 241.546669 80.480304 
L 242.393535 77.153904 
L 243.240401 77.819184 
L 244.087267 79.582176 
L 244.934133 76.12272 
L 245.780999 78.052032 
L 246.627865 77.918976 
L 247.474731 75.657024 
L 248.321597 75.823344 
L 249.168463 75.823344 
L 250.015329 76.521888 
L 250.862195 77.45328 
L 251.709061 76.089456 
L 252.555927 80.313984 
L 253.402793 74.891952 
L 254.249659 75.856608 
L 255.096525 77.28696 
L 255.94339 76.422096 
L 256.790256 76.721472 
L 257.637122 78.484464 
L 258.483988 76.62168 
L 259.330854 77.187168 
L 260.17772 75.45744 
L 261.024586 75.025008 
L 261.871452 75.62376 
L 262.718318 75.690288 
L 263.565184 78.916896 
L 264.41205 80.61336 
L 265.258916 80.746416 
L 266.105782 76.987584 
L 266.952648 76.45536 
L 267.799514 76.056192 
L 268.64638 76.62168 
L 269.493246 75.723552 
L 270.340112 77.553072 
L 271.186978 76.28904 
L 272.033844 81.644544 
L 272.88071 74.359728 
L 273.727576 76.355568 
L 274.574442 76.688208 
L 275.421308 75.091536 
L 276.268174 74.758896 
L 277.11504 75.923136 
L 277.961906 75.657024 
L 278.808772 77.320224 
L 279.655638 75.191328 
L 280.502504 75.923136 
L 281.34937 77.220432 
L 282.196236 74.758896 
L 283.043102 75.823344 
L 283.889968 77.320224 
L 284.736834 77.45328 
L 285.5837 76.688208 
L 286.430566 77.95224 
L 288.124298 74.659104 
L 288.971164 76.355568 
L 289.81803 75.590496 
L 290.664896 75.856608 
L 291.511762 78.650784 
L 292.358628 76.45536 
L 293.205494 76.854528 
L 294.05236 75.723552 
L 294.899226 75.257856 
L 295.746092 74.559312 
L 296.592958 76.821264 
L 297.439824 74.592576 
L 298.28669 75.025008 
L 299.133556 73.894032 
L 299.980422 73.428336 
L 300.827288 75.723552 
L 301.674154 76.422096 
L 302.52102 76.056192 
L 303.367886 77.420016 
L 304.214752 76.022928 
L 305.061618 77.253696 
L 305.908484 76.022928 
L 306.75535 80.413776 
L 307.602216 76.95432 
L 308.449082 74.492784 
L 309.295948 75.091536 
L 310.142814 73.760976 
L 310.98968 75.989664 
L 311.836546 73.79424 
L 312.683412 73.727712 
L 313.530278 76.189248 
L 315.22401 73.62792 
L 316.070876 81.345168 
L 316.917742 72.995904 
L 317.764608 73.228752 
L 318.611474 72.031248 
L 319.45834 74.62584 
L 320.305206 73.12896 
L 321.152072 77.054112 
L 321.998938 72.530208 
L 322.845804 74.758896 
L 323.69267 74.659104 
L 324.539536 74.259936 
L 325.386402 73.095696 
L 326.233268 74.093616 
L 327.080134 73.262016 
L 327.927 73.661184 
L 328.773866 78.916896 
L 329.620732 73.395072 
L 330.467598 73.29528 
L 331.314463 75.191328 
L 332.161329 74.259936 
L 333.008195 72.430416 
L 333.855061 74.326464 
L 334.701927 73.29528 
L 335.548793 75.690288 
L 336.395659 72.995904 
L 337.242525 72.264096 
L 338.089391 76.788 
L 338.936257 72.230832 
L 339.783123 75.058272 
L 340.629989 74.62584 
L 341.476855 74.326464 
L 342.323721 74.62584 
L 343.170587 73.4616 
L 344.017453 72.995904 
L 344.864319 73.262016 
L 345.711185 72.663264 
L 346.558051 75.390912 
L 347.404917 75.025008 
L 348.251783 74.526048 
L 349.098649 75.058272 
L 349.945515 74.226672 
L 350.792381 73.79424 
L 351.639247 74.426256 
L 352.486113 73.494864 
L 353.332979 72.264096 
L 354.179845 74.426256 
L 355.026711 74.592576 
L 355.873577 76.155984 
L 356.720443 72.563472 
L 357.567309 72.530208 
L 358.414175 74.758896 
L 359.261041 75.62376 
L 360.107907 72.896112 
L 360.954773 72.330624 
L 361.801639 75.424176 
L 362.648505 73.12896 
L 363.495371 72.264096 
L 364.342237 74.027088 
L 365.189103 74.060352 
L 366.035969 75.025008 
L 366.882835 71.63208 
L 367.729701 72.696528 
L 368.576567 72.63 
L 369.423433 73.79424 
L 370.270299 74.160144 
L 371.117165 73.528128 
L 371.964031 73.727712 
L 372.810897 70.600896 
L 373.657763 72.330624 
L 375.351495 73.428336 
L 376.198361 72.63 
L 377.045227 73.760976 
L 377.892093 74.659104 
L 378.738959 72.13104 
L 379.585825 74.160144 
L 380.432691 75.158064 
L 381.279557 72.29736 
L 382.126423 71.166384 
L 382.973289 72.896112 
L 383.820155 72.496944 
L 384.667021 73.4616 
L 385.513887 72.264096 
L 386.360753 72.96264 
L 387.207619 70.667424 
L 388.054485 73.993824 
L 388.901351 72.13104 
L 389.748217 73.694448 
L 390.595083 71.698608 
L 391.441949 70.80048 
L 392.288815 75.058272 
L 393.135681 72.031248 
L 393.982547 72.197568 
L 394.829413 72.031248 
L 395.676279 72.29736 
L 396.523145 71.46576 
L 397.370011 71.63208 
L 398.216877 70.9668 
L 399.063743 72.63 
L 399.910609 72.763056 
L 400.757475 69.602976 
L 401.604341 72.995904 
L 402.451207 71.066592 
L 403.298073 70.534368 
L 404.144939 71.931456 
L 404.991805 71.29944 
L 405.838671 71.332704 
L 406.685537 70.867008 
L 407.532402 73.661184 
L 408.379268 72.63 
L 409.226134 72.46368 
L 410.073 72.430416 
L 410.919866 71.63208 
L 411.766732 71.665344 
L 412.613598 71.931456 
L 413.460464 71.099856 
L 414.30733 71.232912 
L 415.154196 71.000064 
L 416.001062 71.499024 
L 416.847928 74.226672 
L 417.694794 73.428336 
L 418.54166 70.334784 
L 419.388526 70.567632 
L 420.235392 72.696528 
L 421.082258 71.166384 
L 421.929124 72.097776 
L 422.77599 71.033328 
L 424.469722 72.995904 
L 425.316588 72.264096 
L 426.163454 72.13104 
L 427.01032 71.698608 
L 427.857186 72.397152 
L 428.704052 72.397152 
L 430.397784 75.523968 
L 431.24465 73.760976 
L 432.091516 77.885712 
L 432.938382 74.027088 
L 433.785248 76.62168 
L 434.632114 71.399232 
L 435.47898 72.197568 
L 436.325846 71.29944 
L 437.172712 73.661184 
L 438.019578 72.596736 
L 438.866444 71.765136 
L 439.71331 70.63416 
L 440.560176 72.596736 
L 441.407042 69.736032 
L 442.253908 70.002144 
L 443.100774 72.13104 
L 443.94764 71.532288 
L 444.794506 70.068672 
L 445.641372 71.96472 
L 446.488238 69.902352 
L 447.335104 70.733952 
L 448.18197 71.13312 
L 449.028836 73.095696 
L 449.875702 73.561392 
L 450.722568 73.195488 
L 451.569434 72.696528 
L 452.4163 71.166384 
L 453.263166 72.596736 
L 454.110032 74.559312 
L 454.956898 71.598816 
L 455.803764 69.769296 
L 456.65063 72.530208 
L 457.497496 72.031248 
L 458.344362 70.867008 
L 459.191228 70.833744 
L 460.038094 70.534368 
L 460.88496 71.266176 
L 461.731826 71.7984 
L 462.578692 72.729792 
L 463.425558 73.162224 
L 464.272424 72.363888 
L 465.11929 76.921056 
L 465.966156 75.357648 
L 466.813022 73.4616 
L 467.659888 74.359728 
L 468.506754 71.931456 
L 469.35362 73.062432 
L 470.200486 72.96264 
L 471.047352 73.594656 
L 471.894218 76.189248 
L 472.741084 77.353488 
L 473.58795 73.860768 
L 474.434816 71.266176 
L 475.281682 73.262016 
L 476.128548 71.931456 
L 478.669146 70.833744 
L 479.516012 72.031248 
L 480.362878 74.027088 
L 481.209744 72.230832 
L 482.05661 70.9668 
L 482.903475 71.066592 
L 483.750341 70.501104 
L 484.597207 71.266176 
L 485.444073 71.7984 
L 486.290939 71.46576 
L 487.137805 72.496944 
L 487.984671 72.031248 
L 488.831537 71.931456 
L 489.678403 71.96472 
L 490.525269 71.199648 
L 491.372135 69.835824 
L 492.219001 69.370128 
L 493.065867 69.736032 
L 493.912733 69.669504 
L 494.759599 69.104016 
L 495.606465 69.602976 
L 496.453331 73.494864 
L 497.300197 71.565552 
L 498.147063 72.862848 
L 498.993929 69.436656 
L 499.840795 69.203808 
L 500.687661 69.536448 
L 501.534527 70.268256 
L 502.381393 71.266176 
L 503.228259 69.3036 
L 504.075125 70.434576 
L 504.921991 72.63 
L 505.768857 69.669504 
L 506.615723 69.203808 
L 507.462589 71.033328 
L 508.309455 69.702768 
L 509.156321 69.669504 
L 510.850053 70.30152 
L 511.696919 69.63624 
L 512.543785 71.731872 
L 513.390651 69.835824 
L 514.237517 72.264096 
L 515.084383 68.771376 
L 515.931249 71.765136 
L 516.778115 72.829584 
L 517.624981 72.264096 
L 518.471847 78.850368 
L 519.318713 73.262016 
L 520.165579 69.237072 
L 521.012445 68.904432 
L 521.859311 68.97096 
L 522.706177 70.767216 
L 523.553043 69.935616 
L 524.399909 69.370128 
L 525.246775 70.334784 
L 526.093641 68.904432 
L 526.940507 69.13728 
L 527.787373 69.104016 
L 528.634239 69.203808 
L 530.327971 73.095696 
L 531.174837 69.602976 
L 532.021703 72.496944 
L 532.868569 69.203808 
L 533.715435 68.80464 
L 534.562301 70.30152 
L 535.409167 70.46784 
L 536.256033 69.3036 
L 537.102899 69.004224 
L 537.949765 70.933536 
L 538.796631 69.336864 
L 539.643497 68.505264 
L 540.490363 68.338944 
L 541.337229 69.104016 
L 542.184095 68.538528 
L 543.030961 71.731872 
L 543.877827 69.3036 
L 544.724693 69.80256 
L 545.571559 71.166384 
L 546.418425 70.1352 
L 548.112157 69.004224 
L 548.959023 68.671584 
L 549.805889 71.864928 
L 550.652755 71.46576 
L 551.499621 70.334784 
L 552.346487 69.536448 
L 553.193353 68.937696 
L 554.040219 69.602976 
L 554.887085 68.505264 
L 555.733951 69.702768 
L 556.580817 71.864928 
L 557.427683 69.004224 
L 558.274548 70.268256 
L 559.121414 68.771376 
L 559.96828 69.13728 
L 560.815146 68.80464 
L 561.662012 68.904432 
L 562.508878 70.234992 
L 563.355744 70.667424 
L 564.20261 70.002144 
L 565.049476 70.30152 
L 566.743208 69.270336 
L 567.590074 68.538528 
L 568.43694 69.104016 
L 569.283806 69.869088 
L 570.130672 71.166384 
L 570.977538 70.334784 
L 571.824404 71.166384 
L 572.67127 71.166384 
L 573.518136 69.602976 
L 574.365002 69.13728 
L 575.211868 69.004224 
L 576.058734 68.239152 
L 576.9056 69.503184 
L 577.752466 68.605056 
L 578.599332 68.006304 
L 579.446198 69.203808 
L 580.293064 70.201728 
L 581.13993 68.438736 
L 581.986796 68.937696 
L 582.833662 71.000064 
L 583.680528 69.370128 
L 584.527394 69.336864 
L 586.221126 68.937696 
L 587.067992 67.939776 
L 587.914858 69.63624 
L 588.761724 70.201728 
L 590.455456 68.837904 
L 591.302322 70.002144 
L 592.149188 69.96888 
L 592.996054 72.363888 
L 593.84292 71.432496 
L 594.689786 72.530208 
L 595.536652 70.501104 
L 596.383518 72.663264 
L 597.230384 69.702768 
L 598.07725 68.97096 
L 598.924116 71.665344 
L 599.770982 68.738112 
L 600.617848 70.933536 
L 601.464714 69.569712 
L 602.31158 68.63832 
L 603.158446 68.405472 
L 604.005312 69.835824 
L 604.852178 68.372208 
L 605.699044 69.336864 
L 606.54591 71.199648 
L 607.392776 69.237072 
L 608.239642 68.472 
L 609.086508 70.002144 
L 610.78024 70.434576 
L 611.627106 70.501104 
L 612.473972 68.904432 
L 613.320838 69.46992 
L 614.167704 68.97096 
L 615.01457 68.80464 
L 615.861436 69.104016 
L 616.708302 70.567632 
L 617.555168 70.667424 
L 618.402034 69.702768 
L 619.2489 70.035408 
L 620.095766 69.669504 
L 620.942632 69.63624 
L 621.789498 70.035408 
L 622.636364 69.336864 
L 622.636364 69.336864 
" clip-path="url(#p894297e7a5)" style="fill: none; stroke-dasharray: 7.4,3.2; stroke-dashoffset: 0; stroke: #008000; stroke-width: 2"/>
   </g>
   <g id="patch_3">
    <path d="M 90 384.48 
L 90 51.84 
" style="fill: none; stroke: #000000; stroke-width: 0.8; stroke-linejoin: miter; stroke-linecap: square"/>
   </g>
   <g id="patch_4">
    <path d="M 648 384.48 
L 648 51.84 
" style="fill: none; stroke: #000000; stroke-width: 0.8; stroke-linejoin: miter; stroke-linecap: square"/>
   </g>
   <g id="patch_5">
    <path d="M 90 384.48 
L 648 384.48 
" style="fill: none; stroke: #000000; stroke-width: 0.8; stroke-linejoin: miter; stroke-linecap: square"/>
   </g>
   <g id="patch_6">
    <path d="M 90 51.84 
L 648 51.84 
" style="fill: none; stroke: #000000; stroke-width: 0.8; stroke-linejoin: miter; stroke-linecap: square"/>
   </g>
   <g id="text_16">
    <!-- Training and Testing Accuracy (Learning Rate: 0.01) -->
    <g transform="translate(162.66125 45.84) scale(0.16 -0.16)">
     <defs>
      <path id="DejaVuSans-54" d="M -19 4666 
L 3928 4666 
L 3928 4134 
L 2272 4134 
L 2272 0 
L 1638 0 
L 1638 4134 
L -19 4134 
L -19 4666 
z
" transform="scale(0.015625)"/>
      <path id="DejaVuSans-67" d="M 2906 1791 
Q 2906 2416 2648 2759 
Q 2391 3103 1925 3103 
Q 1463 3103 1205 2759 
Q 947 2416 947 1791 
Q 947 1169 1205 825 
Q 1463 481 1925 481 
Q 2391 481 2648 825 
Q 2906 1169 2906 1791 
z
M 3481 434 
Q 3481 -459 3084 -895 
Q 2688 -1331 1869 -1331 
Q 1566 -1331 1297 -1286 
Q 1028 -1241 775 -1147 
L 775 -588 
Q 1028 -725 1275 -790 
Q 1522 -856 1778 -856 
Q 2344 -856 2625 -561 
Q 2906 -266 2906 331 
L 2906 616 
Q 2728 306 2450 153 
Q 2172 0 1784 0 
Q 1141 0 747 490 
Q 353 981 353 1791 
Q 353 2603 747 3093 
Q 1141 3584 1784 3584 
Q 2172 3584 2450 3431 
Q 2728 3278 2906 2969 
L 2906 3500 
L 3481 3500 
L 3481 434 
z
" transform="scale(0.015625)"/>
      <path id="DejaVuSans-20" transform="scale(0.015625)"/>
      <path id="DejaVuSans-64" d="M 2906 2969 
L 2906 4863 
L 3481 4863 
L 3481 0 
L 2906 0 
L 2906 525 
Q 2725 213 2448 61 
Q 2172 -91 1784 -91 
Q 1150 -91 751 415 
Q 353 922 353 1747 
Q 353 2572 751 3078 
Q 1150 3584 1784 3584 
Q 2172 3584 2448 3432 
Q 2725 3281 2906 2969 
z
M 947 1747 
Q 947 1113 1208 752 
Q 1469 391 1925 391 
Q 2381 391 2643 752 
Q 2906 1113 2906 1747 
Q 2906 2381 2643 2742 
Q 2381 3103 1925 3103 
Q 1469 3103 1208 2742 
Q 947 2381 947 1747 
z
" transform="scale(0.015625)"/>
      <path id="DejaVuSans-28" d="M 1984 4856 
Q 1566 4138 1362 3434 
Q 1159 2731 1159 2009 
Q 1159 1288 1364 580 
Q 1569 -128 1984 -844 
L 1484 -844 
Q 1016 -109 783 600 
Q 550 1309 550 2009 
Q 550 2706 781 3412 
Q 1013 4119 1484 4856 
L 1984 4856 
z
" transform="scale(0.015625)"/>
      <path id="DejaVuSans-4c" d="M 628 4666 
L 1259 4666 
L 1259 531 
L 3531 531 
L 3531 0 
L 628 0 
L 628 4666 
z
" transform="scale(0.015625)"/>
      <path id="DejaVuSans-52" d="M 2841 2188 
Q 3044 2119 3236 1894 
Q 3428 1669 3622 1275 
L 4263 0 
L 3584 0 
L 2988 1197 
Q 2756 1666 2539 1819 
Q 2322 1972 1947 1972 
L 1259 1972 
L 1259 0 
L 628 0 
L 628 4666 
L 2053 4666 
Q 2853 4666 3247 4331 
Q 3641 3997 3641 3322 
Q 3641 2881 3436 2590 
Q 3231 2300 2841 2188 
z
M 1259 4147 
L 1259 2491 
L 2053 2491 
Q 2509 2491 2742 2702 
Q 2975 2913 2975 3322 
Q 2975 3731 2742 3939 
Q 2509 4147 2053 4147 
L 1259 4147 
z
" transform="scale(0.015625)"/>
      <path id="DejaVuSans-3a" d="M 750 794 
L 1409 794 
L 1409 0 
L 750 0 
L 750 794 
z
M 750 3309 
L 1409 3309 
L 1409 2516 
L 750 2516 
L 750 3309 
z
" transform="scale(0.015625)"/>
      <path id="DejaVuSans-29" d="M 513 4856 
L 1013 4856 
Q 1481 4119 1714 3412 
Q 1947 2706 1947 2009 
Q 1947 1309 1714 600 
Q 1481 -109 1013 -844 
L 513 -844 
Q 928 -128 1133 580 
Q 1338 1288 1338 2009 
Q 1338 2731 1133 3434 
Q 928 4138 513 4856 
z
" transform="scale(0.015625)"/>
     </defs>
     <use xlink:href="#DejaVuSans-54"/>
     <use xlink:href="#DejaVuSans-72" x="46.333984"/>
     <use xlink:href="#DejaVuSans-61" x="87.447266"/>
     <use xlink:href="#DejaVuSans-69" x="148.726562"/>
     <use xlink:href="#DejaVuSans-6e" x="176.509766"/>
     <use xlink:href="#DejaVuSans-69" x="239.888672"/>
     <use xlink:href="#DejaVuSans-6e" x="267.671875"/>
     <use xlink:href="#DejaVuSans-67" x="331.050781"/>
     <use xlink:href="#DejaVuSans-20" x="394.527344"/>
     <use xlink:href="#DejaVuSans-61" x="426.314453"/>
     <use xlink:href="#DejaVuSans-6e" x="487.59375"/>
     <use xlink:href="#DejaVuSans-64" x="550.972656"/>
     <use xlink:href="#DejaVuSans-20" x="614.449219"/>
     <use xlink:href="#DejaVuSans-54" x="646.236328"/>
     <use xlink:href="#DejaVuSans-65" x="690.320312"/>
     <use xlink:href="#DejaVuSans-73" x="751.84375"/>
     <use xlink:href="#DejaVuSans-74" x="803.943359"/>
     <use xlink:href="#DejaVuSans-69" x="843.152344"/>
     <use xlink:href="#DejaVuSans-6e" x="870.935547"/>
     <use xlink:href="#DejaVuSans-67" x="934.314453"/>
     <use xlink:href="#DejaVuSans-20" x="997.791016"/>
     <use xlink:href="#DejaVuSans-41" x="1029.578125"/>
     <use xlink:href="#DejaVuSans-63" x="1096.236328"/>
     <use xlink:href="#DejaVuSans-63" x="1151.216797"/>
     <use xlink:href="#DejaVuSans-75" x="1206.197266"/>
     <use xlink:href="#DejaVuSans-72" x="1269.576172"/>
     <use xlink:href="#DejaVuSans-61" x="1310.689453"/>
     <use xlink:href="#DejaVuSans-63" x="1371.96875"/>
     <use xlink:href="#DejaVuSans-79" x="1426.949219"/>
     <use xlink:href="#DejaVuSans-20" x="1486.128906"/>
     <use xlink:href="#DejaVuSans-28" x="1517.916016"/>
     <use xlink:href="#DejaVuSans-4c" x="1556.929688"/>
     <use xlink:href="#DejaVuSans-65" x="1610.892578"/>
     <use xlink:href="#DejaVuSans-61" x="1672.416016"/>
     <use xlink:href="#DejaVuSans-72" x="1733.695312"/>
     <use xlink:href="#DejaVuSans-6e" x="1773.058594"/>
     <use xlink:href="#DejaVuSans-69" x="1836.4375"/>
     <use xlink:href="#DejaVuSans-6e" x="1864.220703"/>
     <use xlink:href="#DejaVuSans-67" x="1927.599609"/>
     <use xlink:href="#DejaVuSans-20" x="1991.076172"/>
     <use xlink:href="#DejaVuSans-52" x="2022.863281"/>
     <use xlink:href="#DejaVuSans-61" x="2090.095703"/>
     <use xlink:href="#DejaVuSans-74" x="2151.375"/>
     <use xlink:href="#DejaVuSans-65" x="2190.583984"/>
     <use xlink:href="#DejaVuSans-3a" x="2252.107422"/>
     <use xlink:href="#DejaVuSans-20" x="2285.798828"/>
     <use xlink:href="#DejaVuSans-30" x="2317.585938"/>
     <use xlink:href="#DejaVuSans-2e" x="2381.208984"/>
     <use xlink:href="#DejaVuSans-30" x="2412.996094"/>
     <use xlink:href="#DejaVuSans-31" x="2476.619141"/>
     <use xlink:href="#DejaVuSans-29" x="2540.242188"/>
    </g>
   </g>
   <g id="legend_1">
    <g id="patch_7">
     <path d="M 97 379.48 
L 217.285937 379.48 
Q 219.285937 379.48 219.285937 377.48 
L 219.285937 349.12375 
Q 219.285937 347.12375 217.285937 347.12375 
L 97 347.12375 
Q 95 347.12375 95 349.12375 
L 95 377.48 
Q 95 379.48 97 379.48 
z
" style="fill: #ffffff; opacity: 0.8; stroke: #cccccc; stroke-linejoin: miter"/>
    </g>
    <g id="line2d_29">
     <path d="M 99 355.222188 
L 109 355.222188 
L 119 355.222188 
" style="fill: none; stroke: #0000ff; stroke-width: 2; stroke-linecap: square"/>
    </g>
    <g id="text_17">
     <!-- Training Accuracy -->
     <g transform="translate(127 358.722188) scale(0.1 -0.1)">
      <use xlink:href="#DejaVuSans-54"/>
      <use xlink:href="#DejaVuSans-72" x="46.333984"/>
      <use xlink:href="#DejaVuSans-61" x="87.447266"/>
      <use xlink:href="#DejaVuSans-69" x="148.726562"/>
      <use xlink:href="#DejaVuSans-6e" x="176.509766"/>
      <use xlink:href="#DejaVuSans-69" x="239.888672"/>
      <use xlink:href="#DejaVuSans-6e" x="267.671875"/>
      <use xlink:href="#DejaVuSans-67" x="331.050781"/>
      <use xlink:href="#DejaVuSans-20" x="394.527344"/>
      <use xlink:href="#DejaVuSans-41" x="426.314453"/>
      <use xlink:href="#DejaVuSans-63" x="492.972656"/>
      <use xlink:href="#DejaVuSans-63" x="547.953125"/>
      <use xlink:href="#DejaVuSans-75" x="602.933594"/>
      <use xlink:href="#DejaVuSans-72" x="666.3125"/>
      <use xlink:href="#DejaVuSans-61" x="707.425781"/>
      <use xlink:href="#DejaVuSans-63" x="768.705078"/>
      <use xlink:href="#DejaVuSans-79" x="823.685547"/>
     </g>
    </g>
    <g id="line2d_30">
     <path d="M 99 369.900312 
L 109 369.900312 
L 119 369.900312 
" style="fill: none; stroke-dasharray: 7.4,3.2; stroke-dashoffset: 0; stroke: #008000; stroke-width: 2"/>
    </g>
    <g id="text_18">
     <!-- Testing Accuracy -->
     <g transform="translate(127 373.400312) scale(0.1 -0.1)">
      <use xlink:href="#DejaVuSans-54"/>
      <use xlink:href="#DejaVuSans-65" x="44.083984"/>
      <use xlink:href="#DejaVuSans-73" x="105.607422"/>
      <use xlink:href="#DejaVuSans-74" x="157.707031"/>
      <use xlink:href="#DejaVuSans-69" x="196.916016"/>
      <use xlink:href="#DejaVuSans-6e" x="224.699219"/>
      <use xlink:href="#DejaVuSans-67" x="288.078125"/>
      <use xlink:href="#DejaVuSans-20" x="351.554688"/>
      <use xlink:href="#DejaVuSans-41" x="383.341797"/>
      <use xlink:href="#DejaVuSans-63" x="450"/>
      <use xlink:href="#DejaVuSans-63" x="504.980469"/>
      <use xlink:href="#DejaVuSans-75" x="559.960938"/>
      <use xlink:href="#DejaVuSans-72" x="623.339844"/>
      <use xlink:href="#DejaVuSans-61" x="664.453125"/>
      <use xlink:href="#DejaVuSans-63" x="725.732422"/>
      <use xlink:href="#DejaVuSans-79" x="780.712891"/>
     </g>
    </g>
   </g>
  </g>
 </g>
 <defs>
  <clipPath id="p894297e7a5">
   <rect x="90" y="51.84" width="558" height="332.64"/>
  </clipPath>
 </defs>
</svg>
