<?xml version="1.0" encoding="utf-8" standalone="no"?>
<!DOCTYPE svg PUBLIC "-//W3C//DTD SVG 1.1//EN"
  "http://www.w3.org/Graphics/SVG/1.1/DTD/svg11.dtd">
<svg xmlns:xlink="http://www.w3.org/1999/xlink" width="720pt" height="432pt" viewBox="0 0 720 432" xmlns="http://www.w3.org/2000/svg" version="1.1">
 <metadata>
  <rdf:RDF xmlns:dc="http://purl.org/dc/elements/1.1/" xmlns:cc="http://creativecommons.org/ns#" xmlns:rdf="http://www.w3.org/1999/02/22-rdf-syntax-ns#">
   <cc:Work>
    <dc:type rdf:resource="http://purl.org/dc/dcmitype/StillImage"/>
    <dc:date>2024-05-19T15:56:36.016233</dc:date>
    <dc:format>image/svg+xml</dc:format>
    <dc:creator>
     <cc:Agent>
      <dc:title>Matplotlib v3.6.2, https://matplotlib.org/</dc:title>
     </cc:Agent>
    </dc:creator>
   </cc:Work>
  </rdf:RDF>
 </metadata>
 <defs>
  <style type="text/css">*{stroke-linejoin: round; stroke-linecap: butt}</style>
 </defs>
 <g id="figure_1">
  <g id="patch_1">
   <path d="M 0 432 
L 720 432 
L 720 0 
L 0 0 
z
" style="fill: #ffffff"/>
  </g>
  <g id="axes_1">
   <g id="patch_2">
    <path d="M 90 384.48 
L 648 384.48 
L 648 51.84 
L 90 51.84 
z
" style="fill: #ffffff"/>
   </g>
   <g id="matplotlib.axis_1">
    <g id="xtick_1">
     <g id="line2d_1">
      <path d="M 115.363636 384.48 
L 115.363636 51.84 
" clip-path="url(#p79e4fd7a0e)" style="fill: none; stroke: #b0b0b0; stroke-width: 0.8; stroke-linecap: square"/>
     </g>
     <g id="line2d_2">
      <defs>
       <path id="m0d9ff35c11" d="M 0 0 
L 0 3.5 
" style="stroke: #000000; stroke-width: 0.8"/>
      </defs>
      <g>
       <use xlink:href="#m0d9ff35c11" x="115.363636" y="384.48" style="stroke: #000000; stroke-width: 0.8"/>
      </g>
     </g>
     <g id="text_1">
      <!-- 0 -->
      <g transform="translate(112.182386 399.078438) scale(0.1 -0.1)">
       <defs>
        <path id="DejaVuSans-30" d="M 2034 4250 
Q 1547 4250 1301 3770 
Q 1056 3291 1056 2328 
Q 1056 1369 1301 889 
Q 1547 409 2034 409 
Q 2525 409 2770 889 
Q 3016 1369 3016 2328 
Q 3016 3291 2770 3770 
Q 2525 4250 2034 4250 
z
M 2034 4750 
Q 2819 4750 3233 4129 
Q 3647 3509 3647 2328 
Q 3647 1150 3233 529 
Q 2819 -91 2034 -91 
Q 1250 -91 836 529 
Q 422 1150 422 2328 
Q 422 3509 836 4129 
Q 1250 4750 2034 4750 
z
" transform="scale(0.015625)"/>
       </defs>
       <use xlink:href="#DejaVuSans-30"/>
      </g>
     </g>
    </g>
    <g id="xtick_2">
     <g id="line2d_3">
      <path d="M 200.050235 384.48 
L 200.050235 51.84 
" clip-path="url(#p79e4fd7a0e)" style="fill: none; stroke: #b0b0b0; stroke-width: 0.8; stroke-linecap: square"/>
     </g>
     <g id="line2d_4">
      <g>
       <use xlink:href="#m0d9ff35c11" x="200.050235" y="384.48" style="stroke: #000000; stroke-width: 0.8"/>
      </g>
     </g>
     <g id="text_2">
      <!-- 10000 -->
      <g transform="translate(184.143985 399.078438) scale(0.1 -0.1)">
       <defs>
        <path id="DejaVuSans-31" d="M 794 531 
L 1825 531 
L 1825 4091 
L 703 3866 
L 703 4441 
L 1819 4666 
L 2450 4666 
L 2450 531 
L 3481 531 
L 3481 0 
L 794 0 
L 794 531 
z
" transform="scale(0.015625)"/>
       </defs>
       <use xlink:href="#DejaVuSans-31"/>
       <use xlink:href="#DejaVuSans-30" x="63.623047"/>
       <use xlink:href="#DejaVuSans-30" x="127.246094"/>
       <use xlink:href="#DejaVuSans-30" x="190.869141"/>
       <use xlink:href="#DejaVuSans-30" x="254.492188"/>
      </g>
     </g>
    </g>
    <g id="xtick_3">
     <g id="line2d_5">
      <path d="M 284.736834 384.48 
L 284.736834 51.84 
" clip-path="url(#p79e4fd7a0e)" style="fill: none; stroke: #b0b0b0; stroke-width: 0.8; stroke-linecap: square"/>
     </g>
     <g id="line2d_6">
      <g>
       <use xlink:href="#m0d9ff35c11" x="284.736834" y="384.48" style="stroke: #000000; stroke-width: 0.8"/>
      </g>
     </g>
     <g id="text_3">
      <!-- 20000 -->
      <g transform="translate(268.830584 399.078438) scale(0.1 -0.1)">
       <defs>
        <path id="DejaVuSans-32" d="M 1228 531 
L 3431 531 
L 3431 0 
L 469 0 
L 469 531 
Q 828 903 1448 1529 
Q 2069 2156 2228 2338 
Q 2531 2678 2651 2914 
Q 2772 3150 2772 3378 
Q 2772 3750 2511 3984 
Q 2250 4219 1831 4219 
Q 1534 4219 1204 4116 
Q 875 4013 500 3803 
L 500 4441 
Q 881 4594 1212 4672 
Q 1544 4750 1819 4750 
Q 2544 4750 2975 4387 
Q 3406 4025 3406 3419 
Q 3406 3131 3298 2873 
Q 3191 2616 2906 2266 
Q 2828 2175 2409 1742 
Q 1991 1309 1228 531 
z
" transform="scale(0.015625)"/>
       </defs>
       <use xlink:href="#DejaVuSans-32"/>
       <use xlink:href="#DejaVuSans-30" x="63.623047"/>
       <use xlink:href="#DejaVuSans-30" x="127.246094"/>
       <use xlink:href="#DejaVuSans-30" x="190.869141"/>
       <use xlink:href="#DejaVuSans-30" x="254.492188"/>
      </g>
     </g>
    </g>
    <g id="xtick_4">
     <g id="line2d_7">
      <path d="M 369.423433 384.48 
L 369.423433 51.84 
" clip-path="url(#p79e4fd7a0e)" style="fill: none; stroke: #b0b0b0; stroke-width: 0.8; stroke-linecap: square"/>
     </g>
     <g id="line2d_8">
      <g>
       <use xlink:href="#m0d9ff35c11" x="369.423433" y="384.48" style="stroke: #000000; stroke-width: 0.8"/>
      </g>
     </g>
     <g id="text_4">
      <!-- 30000 -->
      <g transform="translate(353.517183 399.078438) scale(0.1 -0.1)">
       <defs>
        <path id="DejaVuSans-33" d="M 2597 2516 
Q 3050 2419 3304 2112 
Q 3559 1806 3559 1356 
Q 3559 666 3084 287 
Q 2609 -91 1734 -91 
Q 1441 -91 1130 -33 
Q 819 25 488 141 
L 488 750 
Q 750 597 1062 519 
Q 1375 441 1716 441 
Q 2309 441 2620 675 
Q 2931 909 2931 1356 
Q 2931 1769 2642 2001 
Q 2353 2234 1838 2234 
L 1294 2234 
L 1294 2753 
L 1863 2753 
Q 2328 2753 2575 2939 
Q 2822 3125 2822 3475 
Q 2822 3834 2567 4026 
Q 2313 4219 1838 4219 
Q 1578 4219 1281 4162 
Q 984 4106 628 3988 
L 628 4550 
Q 988 4650 1302 4700 
Q 1616 4750 1894 4750 
Q 2613 4750 3031 4423 
Q 3450 4097 3450 3541 
Q 3450 3153 3228 2886 
Q 3006 2619 2597 2516 
z
" transform="scale(0.015625)"/>
       </defs>
       <use xlink:href="#DejaVuSans-33"/>
       <use xlink:href="#DejaVuSans-30" x="63.623047"/>
       <use xlink:href="#DejaVuSans-30" x="127.246094"/>
       <use xlink:href="#DejaVuSans-30" x="190.869141"/>
       <use xlink:href="#DejaVuSans-30" x="254.492188"/>
      </g>
     </g>
    </g>
    <g id="xtick_5">
     <g id="line2d_9">
      <path d="M 454.110032 384.48 
L 454.110032 51.84 
" clip-path="url(#p79e4fd7a0e)" style="fill: none; stroke: #b0b0b0; stroke-width: 0.8; stroke-linecap: square"/>
     </g>
     <g id="line2d_10">
      <g>
       <use xlink:href="#m0d9ff35c11" x="454.110032" y="384.48" style="stroke: #000000; stroke-width: 0.8"/>
      </g>
     </g>
     <g id="text_5">
      <!-- 40000 -->
      <g transform="translate(438.203782 399.078438) scale(0.1 -0.1)">
       <defs>
        <path id="DejaVuSans-34" d="M 2419 4116 
L 825 1625 
L 2419 1625 
L 2419 4116 
z
M 2253 4666 
L 3047 4666 
L 3047 1625 
L 3713 1625 
L 3713 1100 
L 3047 1100 
L 3047 0 
L 2419 0 
L 2419 1100 
L 313 1100 
L 313 1709 
L 2253 4666 
z
" transform="scale(0.015625)"/>
       </defs>
       <use xlink:href="#DejaVuSans-34"/>
       <use xlink:href="#DejaVuSans-30" x="63.623047"/>
       <use xlink:href="#DejaVuSans-30" x="127.246094"/>
       <use xlink:href="#DejaVuSans-30" x="190.869141"/>
       <use xlink:href="#DejaVuSans-30" x="254.492188"/>
      </g>
     </g>
    </g>
    <g id="xtick_6">
     <g id="line2d_11">
      <path d="M 538.796631 384.48 
L 538.796631 51.84 
" clip-path="url(#p79e4fd7a0e)" style="fill: none; stroke: #b0b0b0; stroke-width: 0.8; stroke-linecap: square"/>
     </g>
     <g id="line2d_12">
      <g>
       <use xlink:href="#m0d9ff35c11" x="538.796631" y="384.48" style="stroke: #000000; stroke-width: 0.8"/>
      </g>
     </g>
     <g id="text_6">
      <!-- 50000 -->
      <g transform="translate(522.890381 399.078438) scale(0.1 -0.1)">
       <defs>
        <path id="DejaVuSans-35" d="M 691 4666 
L 3169 4666 
L 3169 4134 
L 1269 4134 
L 1269 2991 
Q 1406 3038 1543 3061 
Q 1681 3084 1819 3084 
Q 2600 3084 3056 2656 
Q 3513 2228 3513 1497 
Q 3513 744 3044 326 
Q 2575 -91 1722 -91 
Q 1428 -91 1123 -41 
Q 819 9 494 109 
L 494 744 
Q 775 591 1075 516 
Q 1375 441 1709 441 
Q 2250 441 2565 725 
Q 2881 1009 2881 1497 
Q 2881 1984 2565 2268 
Q 2250 2553 1709 2553 
Q 1456 2553 1204 2497 
Q 953 2441 691 2322 
L 691 4666 
z
" transform="scale(0.015625)"/>
       </defs>
       <use xlink:href="#DejaVuSans-35"/>
       <use xlink:href="#DejaVuSans-30" x="63.623047"/>
       <use xlink:href="#DejaVuSans-30" x="127.246094"/>
       <use xlink:href="#DejaVuSans-30" x="190.869141"/>
       <use xlink:href="#DejaVuSans-30" x="254.492188"/>
      </g>
     </g>
    </g>
    <g id="xtick_7">
     <g id="line2d_13">
      <path d="M 623.48323 384.48 
L 623.48323 51.84 
" clip-path="url(#p79e4fd7a0e)" style="fill: none; stroke: #b0b0b0; stroke-width: 0.8; stroke-linecap: square"/>
     </g>
     <g id="line2d_14">
      <g>
       <use xlink:href="#m0d9ff35c11" x="623.48323" y="384.48" style="stroke: #000000; stroke-width: 0.8"/>
      </g>
     </g>
     <g id="text_7">
      <!-- 60000 -->
      <g transform="translate(607.57698 399.078438) scale(0.1 -0.1)">
       <defs>
        <path id="DejaVuSans-36" d="M 2113 2584 
Q 1688 2584 1439 2293 
Q 1191 2003 1191 1497 
Q 1191 994 1439 701 
Q 1688 409 2113 409 
Q 2538 409 2786 701 
Q 3034 994 3034 1497 
Q 3034 2003 2786 2293 
Q 2538 2584 2113 2584 
z
M 3366 4563 
L 3366 3988 
Q 3128 4100 2886 4159 
Q 2644 4219 2406 4219 
Q 1781 4219 1451 3797 
Q 1122 3375 1075 2522 
Q 1259 2794 1537 2939 
Q 1816 3084 2150 3084 
Q 2853 3084 3261 2657 
Q 3669 2231 3669 1497 
Q 3669 778 3244 343 
Q 2819 -91 2113 -91 
Q 1303 -91 875 529 
Q 447 1150 447 2328 
Q 447 3434 972 4092 
Q 1497 4750 2381 4750 
Q 2619 4750 2861 4703 
Q 3103 4656 3366 4563 
z
" transform="scale(0.015625)"/>
       </defs>
       <use xlink:href="#DejaVuSans-36"/>
       <use xlink:href="#DejaVuSans-30" x="63.623047"/>
       <use xlink:href="#DejaVuSans-30" x="127.246094"/>
       <use xlink:href="#DejaVuSans-30" x="190.869141"/>
       <use xlink:href="#DejaVuSans-30" x="254.492188"/>
      </g>
     </g>
    </g>
    <g id="text_8">
     <!-- Iterations -->
     <g transform="translate(335.661406 415.795938) scale(0.14 -0.14)">
      <defs>
       <path id="DejaVuSans-49" d="M 628 4666 
L 1259 4666 
L 1259 0 
L 628 0 
L 628 4666 
z
" transform="scale(0.015625)"/>
       <path id="DejaVuSans-74" d="M 1172 4494 
L 1172 3500 
L 2356 3500 
L 2356 3053 
L 1172 3053 
L 1172 1153 
Q 1172 725 1289 603 
Q 1406 481 1766 481 
L 2356 481 
L 2356 0 
L 1766 0 
Q 1100 0 847 248 
Q 594 497 594 1153 
L 594 3053 
L 172 3053 
L 172 3500 
L 594 3500 
L 594 4494 
L 1172 4494 
z
" transform="scale(0.015625)"/>
       <path id="DejaVuSans-65" d="M 3597 1894 
L 3597 1613 
L 953 1613 
Q 991 1019 1311 708 
Q 1631 397 2203 397 
Q 2534 397 2845 478 
Q 3156 559 3463 722 
L 3463 178 
Q 3153 47 2828 -22 
Q 2503 -91 2169 -91 
Q 1331 -91 842 396 
Q 353 884 353 1716 
Q 353 2575 817 3079 
Q 1281 3584 2069 3584 
Q 2775 3584 3186 3129 
Q 3597 2675 3597 1894 
z
M 3022 2063 
Q 3016 2534 2758 2815 
Q 2500 3097 2075 3097 
Q 1594 3097 1305 2825 
Q 1016 2553 972 2059 
L 3022 2063 
z
" transform="scale(0.015625)"/>
       <path id="DejaVuSans-72" d="M 2631 2963 
Q 2534 3019 2420 3045 
Q 2306 3072 2169 3072 
Q 1681 3072 1420 2755 
Q 1159 2438 1159 1844 
L 1159 0 
L 581 0 
L 581 3500 
L 1159 3500 
L 1159 2956 
Q 1341 3275 1631 3429 
Q 1922 3584 2338 3584 
Q 2397 3584 2469 3576 
Q 2541 3569 2628 3553 
L 2631 2963 
z
" transform="scale(0.015625)"/>
       <path id="DejaVuSans-61" d="M 2194 1759 
Q 1497 1759 1228 1600 
Q 959 1441 959 1056 
Q 959 750 1161 570 
Q 1363 391 1709 391 
Q 2188 391 2477 730 
Q 2766 1069 2766 1631 
L 2766 1759 
L 2194 1759 
z
M 3341 1997 
L 3341 0 
L 2766 0 
L 2766 531 
Q 2569 213 2275 61 
Q 1981 -91 1556 -91 
Q 1019 -91 701 211 
Q 384 513 384 1019 
Q 384 1609 779 1909 
Q 1175 2209 1959 2209 
L 2766 2209 
L 2766 2266 
Q 2766 2663 2505 2880 
Q 2244 3097 1772 3097 
Q 1472 3097 1187 3025 
Q 903 2953 641 2809 
L 641 3341 
Q 956 3463 1253 3523 
Q 1550 3584 1831 3584 
Q 2591 3584 2966 3190 
Q 3341 2797 3341 1997 
z
" transform="scale(0.015625)"/>
       <path id="DejaVuSans-69" d="M 603 3500 
L 1178 3500 
L 1178 0 
L 603 0 
L 603 3500 
z
M 603 4863 
L 1178 4863 
L 1178 4134 
L 603 4134 
L 603 4863 
z
" transform="scale(0.015625)"/>
       <path id="DejaVuSans-6f" d="M 1959 3097 
Q 1497 3097 1228 2736 
Q 959 2375 959 1747 
Q 959 1119 1226 758 
Q 1494 397 1959 397 
Q 2419 397 2687 759 
Q 2956 1122 2956 1747 
Q 2956 2369 2687 2733 
Q 2419 3097 1959 3097 
z
M 1959 3584 
Q 2709 3584 3137 3096 
Q 3566 2609 3566 1747 
Q 3566 888 3137 398 
Q 2709 -91 1959 -91 
Q 1206 -91 779 398 
Q 353 888 353 1747 
Q 353 2609 779 3096 
Q 1206 3584 1959 3584 
z
" transform="scale(0.015625)"/>
       <path id="DejaVuSans-6e" d="M 3513 2113 
L 3513 0 
L 2938 0 
L 2938 2094 
Q 2938 2591 2744 2837 
Q 2550 3084 2163 3084 
Q 1697 3084 1428 2787 
Q 1159 2491 1159 1978 
L 1159 0 
L 581 0 
L 581 3500 
L 1159 3500 
L 1159 2956 
Q 1366 3272 1645 3428 
Q 1925 3584 2291 3584 
Q 2894 3584 3203 3211 
Q 3513 2838 3513 2113 
z
" transform="scale(0.015625)"/>
       <path id="DejaVuSans-73" d="M 2834 3397 
L 2834 2853 
Q 2591 2978 2328 3040 
Q 2066 3103 1784 3103 
Q 1356 3103 1142 2972 
Q 928 2841 928 2578 
Q 928 2378 1081 2264 
Q 1234 2150 1697 2047 
L 1894 2003 
Q 2506 1872 2764 1633 
Q 3022 1394 3022 966 
Q 3022 478 2636 193 
Q 2250 -91 1575 -91 
Q 1294 -91 989 -36 
Q 684 19 347 128 
L 347 722 
Q 666 556 975 473 
Q 1284 391 1588 391 
Q 1994 391 2212 530 
Q 2431 669 2431 922 
Q 2431 1156 2273 1281 
Q 2116 1406 1581 1522 
L 1381 1569 
Q 847 1681 609 1914 
Q 372 2147 372 2553 
Q 372 3047 722 3315 
Q 1072 3584 1716 3584 
Q 2034 3584 2315 3537 
Q 2597 3491 2834 3397 
z
" transform="scale(0.015625)"/>
      </defs>
      <use xlink:href="#DejaVuSans-49"/>
      <use xlink:href="#DejaVuSans-74" x="29.492188"/>
      <use xlink:href="#DejaVuSans-65" x="68.701172"/>
      <use xlink:href="#DejaVuSans-72" x="130.224609"/>
      <use xlink:href="#DejaVuSans-61" x="171.337891"/>
      <use xlink:href="#DejaVuSans-74" x="232.617188"/>
      <use xlink:href="#DejaVuSans-69" x="271.826172"/>
      <use xlink:href="#DejaVuSans-6f" x="299.609375"/>
      <use xlink:href="#DejaVuSans-6e" x="360.791016"/>
      <use xlink:href="#DejaVuSans-73" x="424.169922"/>
     </g>
    </g>
   </g>
   <g id="matplotlib.axis_2">
    <g id="ytick_1">
     <g id="line2d_15">
      <path d="M 90 384.48 
L 648 384.48 
" clip-path="url(#p79e4fd7a0e)" style="fill: none; stroke: #b0b0b0; stroke-width: 0.8; stroke-linecap: square"/>
     </g>
     <g id="line2d_16">
      <defs>
       <path id="m90a419ccb8" d="M 0 0 
L -3.5 0 
" style="stroke: #000000; stroke-width: 0.8"/>
      </defs>
      <g>
       <use xlink:href="#m90a419ccb8" x="90" y="384.48" style="stroke: #000000; stroke-width: 0.8"/>
      </g>
     </g>
     <g id="text_9">
      <!-- 0.0 -->
      <g transform="translate(67.096875 388.279219) scale(0.1 -0.1)">
       <defs>
        <path id="DejaVuSans-2e" d="M 684 794 
L 1344 794 
L 1344 0 
L 684 0 
L 684 794 
z
" transform="scale(0.015625)"/>
       </defs>
       <use xlink:href="#DejaVuSans-30"/>
       <use xlink:href="#DejaVuSans-2e" x="63.623047"/>
       <use xlink:href="#DejaVuSans-30" x="95.410156"/>
      </g>
     </g>
    </g>
    <g id="ytick_2">
     <g id="line2d_17">
      <path d="M 90 317.952 
L 648 317.952 
" clip-path="url(#p79e4fd7a0e)" style="fill: none; stroke: #b0b0b0; stroke-width: 0.8; stroke-linecap: square"/>
     </g>
     <g id="line2d_18">
      <g>
       <use xlink:href="#m90a419ccb8" x="90" y="317.952" style="stroke: #000000; stroke-width: 0.8"/>
      </g>
     </g>
     <g id="text_10">
      <!-- 0.2 -->
      <g transform="translate(67.096875 321.751219) scale(0.1 -0.1)">
       <use xlink:href="#DejaVuSans-30"/>
       <use xlink:href="#DejaVuSans-2e" x="63.623047"/>
       <use xlink:href="#DejaVuSans-32" x="95.410156"/>
      </g>
     </g>
    </g>
    <g id="ytick_3">
     <g id="line2d_19">
      <path d="M 90 251.424 
L 648 251.424 
" clip-path="url(#p79e4fd7a0e)" style="fill: none; stroke: #b0b0b0; stroke-width: 0.8; stroke-linecap: square"/>
     </g>
     <g id="line2d_20">
      <g>
       <use xlink:href="#m90a419ccb8" x="90" y="251.424" style="stroke: #000000; stroke-width: 0.8"/>
      </g>
     </g>
     <g id="text_11">
      <!-- 0.4 -->
      <g transform="translate(67.096875 255.223219) scale(0.1 -0.1)">
       <use xlink:href="#DejaVuSans-30"/>
       <use xlink:href="#DejaVuSans-2e" x="63.623047"/>
       <use xlink:href="#DejaVuSans-34" x="95.410156"/>
      </g>
     </g>
    </g>
    <g id="ytick_4">
     <g id="line2d_21">
      <path d="M 90 184.896 
L 648 184.896 
" clip-path="url(#p79e4fd7a0e)" style="fill: none; stroke: #b0b0b0; stroke-width: 0.8; stroke-linecap: square"/>
     </g>
     <g id="line2d_22">
      <g>
       <use xlink:href="#m90a419ccb8" x="90" y="184.896" style="stroke: #000000; stroke-width: 0.8"/>
      </g>
     </g>
     <g id="text_12">
      <!-- 0.6 -->
      <g transform="translate(67.096875 188.695219) scale(0.1 -0.1)">
       <use xlink:href="#DejaVuSans-30"/>
       <use xlink:href="#DejaVuSans-2e" x="63.623047"/>
       <use xlink:href="#DejaVuSans-36" x="95.410156"/>
      </g>
     </g>
    </g>
    <g id="ytick_5">
     <g id="line2d_23">
      <path d="M 90 118.368 
L 648 118.368 
" clip-path="url(#p79e4fd7a0e)" style="fill: none; stroke: #b0b0b0; stroke-width: 0.8; stroke-linecap: square"/>
     </g>
     <g id="line2d_24">
      <g>
       <use xlink:href="#m90a419ccb8" x="90" y="118.368" style="stroke: #000000; stroke-width: 0.8"/>
      </g>
     </g>
     <g id="text_13">
      <!-- 0.8 -->
      <g transform="translate(67.096875 122.167219) scale(0.1 -0.1)">
       <defs>
        <path id="DejaVuSans-38" d="M 2034 2216 
Q 1584 2216 1326 1975 
Q 1069 1734 1069 1313 
Q 1069 891 1326 650 
Q 1584 409 2034 409 
Q 2484 409 2743 651 
Q 3003 894 3003 1313 
Q 3003 1734 2745 1975 
Q 2488 2216 2034 2216 
z
M 1403 2484 
Q 997 2584 770 2862 
Q 544 3141 544 3541 
Q 544 4100 942 4425 
Q 1341 4750 2034 4750 
Q 2731 4750 3128 4425 
Q 3525 4100 3525 3541 
Q 3525 3141 3298 2862 
Q 3072 2584 2669 2484 
Q 3125 2378 3379 2068 
Q 3634 1759 3634 1313 
Q 3634 634 3220 271 
Q 2806 -91 2034 -91 
Q 1263 -91 848 271 
Q 434 634 434 1313 
Q 434 1759 690 2068 
Q 947 2378 1403 2484 
z
M 1172 3481 
Q 1172 3119 1398 2916 
Q 1625 2713 2034 2713 
Q 2441 2713 2670 2916 
Q 2900 3119 2900 3481 
Q 2900 3844 2670 4047 
Q 2441 4250 2034 4250 
Q 1625 4250 1398 4047 
Q 1172 3844 1172 3481 
z
" transform="scale(0.015625)"/>
       </defs>
       <use xlink:href="#DejaVuSans-30"/>
       <use xlink:href="#DejaVuSans-2e" x="63.623047"/>
       <use xlink:href="#DejaVuSans-38" x="95.410156"/>
      </g>
     </g>
    </g>
    <g id="ytick_6">
     <g id="line2d_25">
      <path d="M 90 51.84 
L 648 51.84 
" clip-path="url(#p79e4fd7a0e)" style="fill: none; stroke: #b0b0b0; stroke-width: 0.8; stroke-linecap: square"/>
     </g>
     <g id="line2d_26">
      <g>
       <use xlink:href="#m90a419ccb8" x="90" y="51.84" style="stroke: #000000; stroke-width: 0.8"/>
      </g>
     </g>
     <g id="text_14">
      <!-- 1.0 -->
      <g transform="translate(67.096875 55.639219) scale(0.1 -0.1)">
       <use xlink:href="#DejaVuSans-31"/>
       <use xlink:href="#DejaVuSans-2e" x="63.623047"/>
       <use xlink:href="#DejaVuSans-30" x="95.410156"/>
      </g>
     </g>
    </g>
    <g id="text_15">
     <!-- Accuracy -->
     <g transform="translate(60.185312 250.119375) rotate(-90) scale(0.14 -0.14)">
      <defs>
       <path id="DejaVuSans-41" d="M 2188 4044 
L 1331 1722 
L 3047 1722 
L 2188 4044 
z
M 1831 4666 
L 2547 4666 
L 4325 0 
L 3669 0 
L 3244 1197 
L 1141 1197 
L 716 0 
L 50 0 
L 1831 4666 
z
" transform="scale(0.015625)"/>
       <path id="DejaVuSans-63" d="M 3122 3366 
L 3122 2828 
Q 2878 2963 2633 3030 
Q 2388 3097 2138 3097 
Q 1578 3097 1268 2742 
Q 959 2388 959 1747 
Q 959 1106 1268 751 
Q 1578 397 2138 397 
Q 2388 397 2633 464 
Q 2878 531 3122 666 
L 3122 134 
Q 2881 22 2623 -34 
Q 2366 -91 2075 -91 
Q 1284 -91 818 406 
Q 353 903 353 1747 
Q 353 2603 823 3093 
Q 1294 3584 2113 3584 
Q 2378 3584 2631 3529 
Q 2884 3475 3122 3366 
z
" transform="scale(0.015625)"/>
       <path id="DejaVuSans-75" d="M 544 1381 
L 544 3500 
L 1119 3500 
L 1119 1403 
Q 1119 906 1312 657 
Q 1506 409 1894 409 
Q 2359 409 2629 706 
Q 2900 1003 2900 1516 
L 2900 3500 
L 3475 3500 
L 3475 0 
L 2900 0 
L 2900 538 
Q 2691 219 2414 64 
Q 2138 -91 1772 -91 
Q 1169 -91 856 284 
Q 544 659 544 1381 
z
M 1991 3584 
L 1991 3584 
z
" transform="scale(0.015625)"/>
       <path id="DejaVuSans-79" d="M 2059 -325 
Q 1816 -950 1584 -1140 
Q 1353 -1331 966 -1331 
L 506 -1331 
L 506 -850 
L 844 -850 
Q 1081 -850 1212 -737 
Q 1344 -625 1503 -206 
L 1606 56 
L 191 3500 
L 800 3500 
L 1894 763 
L 2988 3500 
L 3597 3500 
L 2059 -325 
z
" transform="scale(0.015625)"/>
      </defs>
      <use xlink:href="#DejaVuSans-41"/>
      <use xlink:href="#DejaVuSans-63" x="66.658203"/>
      <use xlink:href="#DejaVuSans-63" x="121.638672"/>
      <use xlink:href="#DejaVuSans-75" x="176.619141"/>
      <use xlink:href="#DejaVuSans-72" x="239.998047"/>
      <use xlink:href="#DejaVuSans-61" x="281.111328"/>
      <use xlink:href="#DejaVuSans-63" x="342.390625"/>
      <use xlink:href="#DejaVuSans-79" x="397.371094"/>
     </g>
    </g>
   </g>
   <g id="line2d_27">
    <path d="M 115.363636 351.498744 
L 116.210502 262.949976 
L 117.057368 197.264664 
L 118.7511 168.519024 
L 119.597966 157.153824 
L 120.444832 143.748432 
L 121.291698 144.918216 
L 122.138564 144.823968 
L 122.98543 135.2772 
L 123.832296 144.446976 
L 124.679162 131.89536 
L 125.526028 137.711016 
L 126.372894 123.518376 
L 127.21976 128.43036 
L 128.066626 116.865576 
L 128.913492 115.90092 
L 129.760358 120.519072 
L 130.607224 117.331272 
L 131.45409 112.341672 
L 132.300956 109.392264 
L 133.147822 111.000024 
L 133.994688 110.362464 
L 134.841554 109.115064 
L 135.68842 106.370784 
L 136.535286 117.34236 
L 137.382152 106.603632 
L 138.229018 103.892616 
L 139.075884 107.701344 
L 139.92275 110.179512 
L 140.769616 101.120616 
L 141.616482 106.509384 
L 142.463348 100.532952 
L 143.310214 100.616112 
L 144.15708 104.125464 
L 145.003946 103.45464 
L 145.850812 103.099824 
L 146.697678 101.115072 
L 147.544544 103.571064 
L 148.39141 98.259912 
L 149.238276 98.592552 
L 150.085142 102.440088 
L 150.932008 97.921728 
L 151.778874 105.162192 
L 152.62574 99.108144 
L 153.472606 96.35832 
L 154.319472 95.909256 
L 155.166338 99.146952 
L 156.013204 100.006272 
L 156.86007 97.788672 
L 157.706936 96.225264 
L 158.553802 96.519096 
L 159.400668 97.666704 
L 160.247534 95.493456 
L 161.0944 95.742936 
L 161.941266 94.672944 
L 162.788132 97.722144 
L 163.634998 94.883616 
L 164.481864 96.313968 
L 165.32873 96.71868 
L 166.175596 95.210712 
L 167.022462 96.80184 
L 167.869328 95.02776 
L 168.716194 96.452568 
L 169.56306 96.596712 
L 170.409926 95.964696 
L 171.256792 95.903712 
L 172.103658 93.214872 
L 172.950524 94.684032 
L 174.644256 92.605032 
L 175.491122 94.478904 
L 176.337988 91.906488 
L 177.184854 93.436632 
L 178.03172 92.00628 
L 178.878586 93.497616 
L 179.725452 94.373568 
L 180.572317 93.663936 
L 181.419183 97.284168 
L 182.266049 92.704824 
L 183.112915 90.653544 
L 184.806647 93.830256 
L 185.653513 93.015288 
L 186.500379 91.817784 
L 187.347245 93.813624 
L 188.194111 92.034 
L 189.040977 92.08944 
L 189.887843 93.264768 
L 190.734709 99.717984 
L 191.581575 93.874608 
L 192.428441 90.498312 
L 193.275307 91.002816 
L 194.122173 93.47544 
L 194.969039 89.262 
L 195.815905 90.015984 
L 196.662771 91.629288 
L 198.356503 91.634832 
L 199.203369 90.115776 
L 200.050235 90.088056 
L 200.897101 90.747792 
L 201.743967 90.437328 
L 202.590833 92.460888 
L 203.437699 91.141416 
L 204.284565 89.533656 
L 205.131431 90.132408 
L 205.978297 90.248832 
L 206.825163 89.921736 
L 207.672029 89.367336 
L 209.365761 90.45396 
L 210.212627 90.076968 
L 211.059493 92.205864 
L 211.906359 89.76096 
L 212.753225 88.09776 
L 213.600091 89.245368 
L 214.446957 90.708984 
L 215.293823 91.207944 
L 216.140689 90.31536 
L 216.987555 90.575928 
L 217.834421 91.113696 
L 218.681287 94.284864 
L 219.528153 90.903024 
L 220.375019 90.154584 
L 221.221885 88.108848 
L 222.068751 88.474752 
L 222.915617 87.011136 
L 223.762483 87.022224 
L 224.609349 87.720768 
L 225.456215 87.687504 
L 226.303081 87.853824 
L 227.149947 86.894712 
L 227.996813 88.025688 
L 228.843679 86.090832 
L 229.690545 87.061032 
L 230.537411 86.495544 
L 231.384277 88.258536 
L 232.231143 86.284872 
L 233.078009 86.722848 
L 233.924875 88.036776 
L 234.771741 86.096376 
L 235.618607 87.133104 
L 236.465473 86.140728 
L 237.312339 86.196168 
L 238.159205 85.758192 
L 239.852937 85.625136 
L 240.699803 87.382584 
L 241.546669 86.539896 
L 242.393535 84.793536 
L 243.240401 85.403376 
L 244.087267 85.675032 
L 244.934133 85.098456 
L 245.780999 86.883624 
L 246.627865 85.27032 
L 247.474731 84.361104 
L 248.321597 84.621672 
L 249.168463 84.305664 
L 250.015329 84.593952 
L 250.862195 83.867688 
L 251.709061 84.139344 
L 252.555927 85.691664 
L 253.402793 84.000744 
L 254.249659 84.932136 
L 255.096525 85.225968 
L 256.790256 84.90996 
L 257.637122 84.52188 
L 258.483988 84.837888 
L 260.17772 84.544056 
L 261.871452 84.07836 
L 262.718318 84.045096 
L 263.565184 85.40892 
L 264.41205 85.386744 
L 265.258916 86.234976 
L 266.105782 85.04856 
L 266.952648 84.07836 
L 267.799514 84.477528 
L 268.64638 84.449808 
L 269.493246 83.651472 
L 270.340112 85.43664 
L 271.186978 84.294576 
L 272.033844 85.625136 
L 272.88071 83.213496 
L 273.727576 84.372192 
L 274.574442 84.49416 
L 275.421308 84.1338 
L 276.268174 84.117168 
L 277.11504 83.08044 
L 277.961906 83.030544 
L 278.808772 83.63484 
L 279.655638 84.05064 
L 280.502504 84.837888 
L 281.34937 84.848976 
L 282.196236 82.80324 
L 283.043102 83.158056 
L 283.889968 83.906496 
L 284.736834 84.377736 
L 285.5837 84.061728 
L 286.430566 83.379816 
L 287.277432 84.167064 
L 288.124298 83.296656 
L 288.971164 84.88224 
L 289.81803 83.19132 
L 290.664896 84.072816 
L 291.511762 85.841352 
L 292.358628 84.776904 
L 294.05236 83.058264 
L 294.899226 82.980648 
L 295.746092 82.16568 
L 296.592958 83.629296 
L 297.439824 82.564848 
L 298.28669 81.827496 
L 299.133556 82.021536 
L 299.980422 81.977184 
L 300.827288 82.44288 
L 301.674154 84.089448 
L 302.52102 83.185776 
L 303.367886 83.895408 
L 304.214752 83.213496 
L 305.061618 83.784528 
L 305.908484 82.814328 
L 306.75535 83.88432 
L 307.602216 84.305664 
L 308.449082 82.370808 
L 309.295948 83.085984 
L 310.142814 83.3022 
L 310.98968 83.19132 
L 311.836546 81.827496 
L 312.683412 81.661176 
L 313.530278 81.921744 
L 314.377144 82.520496 
L 315.22401 81.993816 
L 316.070876 83.180232 
L 316.917742 81.467136 
L 318.611474 81.273096 
L 319.45834 82.332 
L 320.305206 81.383976 
L 321.152072 82.043712 
L 321.998938 80.962632 
L 323.69267 81.633456 
L 324.539536 80.790768 
L 325.386402 81.41724 
L 326.233268 80.923824 
L 327.080134 81.655632 
L 327.927 80.829576 
L 328.773866 81.461592 
L 329.620732 80.663256 
L 330.467598 81.239832 
L 332.161329 80.957088 
L 333.008195 81.456048 
L 333.855061 80.912736 
L 334.701927 81.018072 
L 335.548793 81.345168 
L 336.395659 81.178848 
L 337.242525 80.496936 
L 338.089391 81.079056 
L 338.936257 80.763048 
L 339.783123 80.89056 
L 340.629989 81.589104 
L 341.476855 80.358336 
L 342.323721 81.428328 
L 343.170587 80.463672 
L 344.017453 80.22528 
L 344.864319 80.496936 
L 345.711185 79.997976 
L 346.558051 81.212112 
L 347.404917 80.785224 
L 349.098649 80.58564 
L 349.945515 80.879472 
L 350.792381 80.480304 
L 351.639247 81.483768 
L 352.486113 80.55792 
L 353.332979 80.413776 
L 354.179845 81.151128 
L 355.026711 82.315368 
L 355.873577 80.607816 
L 356.720443 80.907192 
L 358.414175 80.508024 
L 359.261041 80.519112 
L 360.107907 79.487928 
L 361.801639 80.413776 
L 362.648505 79.959168 
L 363.495371 79.931448 
L 364.342237 80.458128 
L 365.189103 79.415856 
L 366.035969 79.859376 
L 366.882835 79.443576 
L 367.729701 80.469216 
L 368.576567 79.759584 
L 369.423433 80.857296 
L 370.270299 81.72216 
L 371.117165 81.295272 
L 371.964031 80.55792 
L 372.810897 79.510104 
L 374.504629 79.58772 
L 375.351495 80.286264 
L 376.198361 80.463672 
L 377.045227 79.925904 
L 377.892093 80.740872 
L 378.738959 78.844824 
L 379.585825 79.659792 
L 380.432691 79.92036 
L 381.279557 79.17192 
L 382.126423 78.628608 
L 382.973289 79.792848 
L 383.820155 78.844824 
L 384.667021 79.049952 
L 385.513887 79.426944 
L 386.360753 79.499016 
L 387.207619 78.933528 
L 388.054485 79.077672 
L 388.901351 78.445656 
L 389.748217 79.50456 
L 390.595083 79.066584 
L 391.441949 78.351408 
L 393.982547 78.406848 
L 394.829413 78.972336 
L 395.676279 78.983424 
L 396.523145 79.654248 
L 397.370011 79.238448 
L 398.216877 79.731864 
L 399.063743 79.742952 
L 399.910609 79.576632 
L 400.757475 78.961248 
L 401.604341 79.22736 
L 402.451207 78.711768 
L 403.298073 78.47892 
L 404.144939 79.460208 
L 404.991805 79.637616 
L 405.838671 78.78384 
L 406.685537 78.900264 
L 407.532402 79.576632 
L 408.379268 79.942536 
L 409.226134 79.887096 
L 410.073 79.293888 
L 410.919866 78.074208 
L 411.766732 78.162912 
L 412.613598 78.390216 
L 413.460464 78.817104 
L 414.30733 78.20172 
L 415.154196 78.168456 
L 416.001062 79.044408 
L 416.847928 81.0846 
L 417.694794 82.015992 
L 418.54166 78.501096 
L 419.388526 78.623064 
L 420.235392 79.848288 
L 421.082258 80.214192 
L 421.929124 78.490008 
L 423.622856 78.623064 
L 424.469722 79.499016 
L 425.316588 79.404768 
L 426.163454 79.571088 
L 427.01032 79.343784 
L 427.857186 79.765128 
L 428.704052 79.959168 
L 429.550918 79.160832 
L 430.397784 78.767208 
L 431.24465 78.739488 
L 432.091516 78.95016 
L 432.938382 78.772752 
L 433.785248 78.867 
L 434.632114 77.769288 
L 437.172712 77.808096 
L 438.019578 78.301512 
L 438.866444 77.918976 
L 439.71331 77.719392 
L 440.560176 78.573168 
L 442.253908 77.109552 
L 443.100774 77.12064 
L 443.94764 77.902344 
L 444.794506 77.39784 
L 445.641372 77.736024 
L 446.488238 77.237064 
L 447.335104 77.78592 
L 448.18197 78.162912 
L 449.028836 79.06104 
L 450.722568 78.018768 
L 451.569434 77.918976 
L 452.4163 77.597424 
L 453.263166 78.67296 
L 454.110032 77.514264 
L 454.956898 77.070744 
L 456.65063 77.464368 
L 457.497496 77.791464 
L 458.344362 77.3424 
L 460.038094 76.882248 
L 460.88496 77.237064 
L 461.731826 77.320224 
L 462.578692 77.0652 
L 463.425558 77.37012 
L 464.272424 77.913432 
L 465.11929 79.210728 
L 465.966156 79.39368 
L 466.813022 77.991048 
L 467.659888 78.889176 
L 468.506754 78.268248 
L 469.35362 78.933528 
L 470.200486 79.388136 
L 471.047352 78.61752 
L 471.894218 78.462288 
L 472.741084 79.992432 
L 473.58795 81.062424 
L 474.434816 76.6494 
L 475.281682 76.754736 
L 476.128548 77.320224 
L 476.975414 77.03748 
L 477.82228 76.943232 
L 478.669146 77.553072 
L 480.362878 77.525352 
L 481.209744 77.414472 
L 482.05661 76.754736 
L 482.903475 76.937688 
L 483.750341 76.654944 
L 485.444073 76.266864 
L 486.290939 76.682664 
L 487.137805 77.242608 
L 487.984671 77.03748 
L 490.525269 77.275872 
L 491.372135 77.602968 
L 492.219001 76.937688 
L 493.065867 76.721472 
L 493.912733 76.333392 
L 494.759599 76.272408 
L 495.606465 76.34448 
L 496.453331 77.026392 
L 497.300197 77.00976 
L 498.147063 76.48308 
L 498.993929 76.144896 
L 499.840795 76.000752 
L 500.687661 76.144896 
L 501.534527 75.973032 
L 502.381393 77.6196 
L 503.228259 76.083912 
L 504.075125 76.277952 
L 504.921991 77.3424 
L 505.768857 77.00976 
L 506.615723 76.860072 
L 507.462589 77.0652 
L 508.309455 76.100544 
L 509.156321 76.20588 
L 510.003187 75.945312 
L 510.850053 76.571784 
L 511.696919 76.26132 
L 512.543785 76.666032 
L 513.390651 75.712464 
L 514.237517 76.654944 
L 515.084383 76.605048 
L 515.931249 76.998672 
L 516.778115 76.699296 
L 517.624981 76.2336 
L 518.471847 76.449816 
L 519.318713 76.255776 
L 520.165579 75.939768 
L 521.012445 76.06728 
L 521.859311 76.422096 
L 522.706177 75.862152 
L 523.553043 76.350024 
L 524.399909 75.834432 
L 525.246775 75.895416 
L 526.093641 76.333392 
L 526.940507 75.856608 
L 527.787373 76.466448 
L 528.634239 75.823344 
L 529.481105 75.795624 
L 530.327971 76.987584 
L 531.174837 76.73256 
L 532.021703 77.081832 
L 532.868569 76.749192 
L 533.715435 75.856608 
L 534.562301 76.028472 
L 535.409167 77.431104 
L 536.256033 76.01184 
L 537.102899 76.300128 
L 537.949765 75.645936 
L 538.796631 75.851064 
L 539.643497 75.878784 
L 540.490363 76.67712 
L 541.337229 76.494168 
L 542.184095 76.15044 
L 543.030961 76.727016 
L 543.877827 75.729096 
L 544.724693 75.945312 
L 545.571559 76.738104 
L 546.418425 76.865616 
L 547.265291 76.3722 
L 548.112157 76.050648 
L 548.959023 75.440808 
L 549.805889 75.612672 
L 550.652755 76.477536 
L 552.346487 75.878784 
L 553.193353 75.063816 
L 554.040219 75.31884 
L 554.887085 75.18024 
L 555.733951 75.479616 
L 556.580817 76.022928 
L 558.274548 76.56624 
L 559.121414 75.45744 
L 559.96828 75.252312 
L 560.815146 75.352104 
L 562.508878 75.839976 
L 563.355744 75.607128 
L 564.20261 76.056192 
L 565.049476 76.155984 
L 565.896342 75.507336 
L 566.743208 75.274488 
L 568.43694 75.352104 
L 570.977538 76.355568 
L 571.824404 76.388832 
L 572.67127 76.654944 
L 573.518136 75.402 
L 574.365002 76.034016 
L 575.211868 75.612672 
L 576.058734 75.828888 
L 576.9056 75.451896 
L 577.752466 75.48516 
L 578.599332 75.224592 
L 579.446198 75.579408 
L 580.293064 76.128264 
L 581.13993 75.15252 
L 581.986796 74.90304 
L 582.833662 75.230136 
L 583.680528 74.969568 
L 584.527394 74.925216 
L 585.37426 75.246768 
L 586.221126 74.814336 
L 587.914858 74.980656 
L 588.761724 75.718008 
L 589.60859 76.2336 
L 590.455456 75.29112 
L 592.149188 75.09708 
L 592.996054 75.562776 
L 593.84292 75.302208 
L 594.689786 75.701376 
L 595.536652 76.239144 
L 597.230384 76.000752 
L 598.07725 75.662568 
L 598.924116 75.490704 
L 599.770982 75.1248 
L 600.617848 75.862152 
L 601.464714 75.246768 
L 602.31158 75.335472 
L 603.158446 75.917592 
L 604.005312 75.634848 
L 604.852178 75.551688 
L 605.699044 75.002832 
L 606.54591 76.03956 
L 607.392776 75.396456 
L 608.239642 75.191328 
L 609.086508 75.573864 
L 609.933374 75.745728 
L 610.78024 77.31468 
L 611.627106 75.6792 
L 612.473972 75.424176 
L 613.320838 75.98412 
L 615.01457 75.285576 
L 616.708302 75.252312 
L 618.402034 76.521888 
L 619.2489 77.220432 
L 620.095766 77.142816 
L 620.942632 76.6494 
L 621.789498 76.361112 
L 622.636364 76.516344 
L 622.636364 76.516344 
" clip-path="url(#p79e4fd7a0e)" style="fill: none; stroke: #0000ff; stroke-width: 2; stroke-linecap: square"/>
   </g>
   <g id="line2d_28">
    <path d="M 115.363636 350.916624 
L 116.210502 263.199456 
L 117.057368 197.602848 
L 118.7511 166.567536 
L 119.597966 156.222432 
L 120.444832 143.182944 
L 121.291698 145.045728 
L 122.138564 144.9792 
L 122.98543 134.83368 
L 123.832296 142.916832 
L 124.679162 130.875264 
L 125.526028 136.031184 
L 126.372894 121.36176 
L 127.21976 126.883584 
L 128.066626 115.141392 
L 128.913492 114.04368 
L 129.760358 118.600848 
L 131.45409 109.519776 
L 132.300956 107.72352 
L 133.147822 107.72352 
L 133.994688 107.956368 
L 134.841554 106.792128 
L 135.68842 104.929344 
L 136.535286 114.842016 
L 137.382152 104.72976 
L 138.229018 101.769264 
L 139.92275 107.124768 
L 140.769616 99.07488 
L 141.616482 103.56552 
L 142.463348 97.74432 
L 143.310214 99.340992 
L 144.15708 101.636208 
L 145.003946 101.170512 
L 145.850812 100.837872 
L 146.697678 99.008352 
L 147.544544 101.370096 
L 148.39141 95.515632 
L 149.238276 95.515632 
L 150.085142 98.110224 
L 150.932008 95.316048 
L 151.778874 103.498992 
L 152.62574 97.311888 
L 153.472606 93.75264 
L 154.319472 93.58632 
L 156.013204 97.677792 
L 156.86007 95.615424 
L 157.706936 94.118544 
L 158.553802 94.218336 
L 159.400668 94.75056 
L 160.247534 92.721456 
L 161.0944 93.819168 
L 161.941266 92.688192 
L 162.788132 94.484448 
L 163.634998 92.25576 
L 164.481864 93.353472 
L 165.32873 93.91896 
L 166.175596 92.92104 
L 167.022462 93.652848 
L 167.869328 92.388816 
L 168.716194 92.75472 
L 169.56306 92.75472 
L 171.256792 93.453264 
L 172.103658 90.692352 
L 172.950524 91.59048 
L 173.79739 90.359712 
L 174.644256 90.492768 
L 175.491122 92.654928 
L 176.337988 89.827488 
L 177.184854 90.625824 
L 178.03172 89.461584 
L 178.878586 90.991728 
L 179.725452 92.25576 
L 180.572317 90.75888 
L 181.419183 94.218336 
L 182.266049 89.92728 
L 183.112915 88.563456 
L 183.959781 89.827488 
L 184.806647 92.155968 
L 185.653513 91.124784 
L 186.500379 89.029152 
L 187.347245 90.825408 
L 188.194111 89.162208 
L 189.040977 89.062416 
L 189.887843 91.956384 
L 190.734709 96.58008 
L 192.428441 88.663248 
L 193.275307 89.295264 
L 194.122173 91.623744 
L 194.969039 87.43248 
L 195.815905 87.964704 
L 196.662771 89.528112 
L 197.509637 89.627904 
L 198.356503 90.027072 
L 199.203369 88.164288 
L 200.050235 87.997968 
L 201.743967 88.696512 
L 202.590833 90.459504 
L 203.437699 88.962624 
L 204.284565 87.09984 
L 205.131431 87.199632 
L 205.978297 88.629984 
L 206.825163 87.332688 
L 207.672029 87.199632 
L 209.365761 88.696512 
L 210.212627 88.629984 
L 211.059493 89.894016 
L 211.906359 88.496928 
L 212.753225 86.567616 
L 213.600091 88.696512 
L 214.446957 90.459504 
L 215.293823 90.958464 
L 216.140689 89.960544 
L 216.987555 90.027072 
L 217.834421 90.293184 
L 218.681287 94.151808 
L 219.528153 89.262 
L 220.375019 88.4304 
L 221.221885 86.334768 
L 222.068751 86.534352 
L 222.915617 85.303584 
L 223.762483 85.702752 
L 224.609349 85.469904 
L 225.456215 86.7672 
L 226.303081 85.869072 
L 227.149947 85.203792 
L 227.996813 85.9356 
L 228.843679 84.505248 
L 229.690545 85.004208 
L 230.537411 84.405456 
L 231.384277 86.068656 
L 232.231143 84.837888 
L 233.924875 86.368032 
L 234.771741 84.372192 
L 235.618607 86.201712 
L 236.465473 84.538512 
L 237.312339 84.039552 
L 238.159205 83.93976 
L 239.006071 84.239136 
L 239.852937 84.970944 
L 240.699803 86.334768 
L 242.393535 82.908576 
L 243.240401 83.673648 
L 244.087267 83.307744 
L 244.934133 82.675728 
L 245.780999 84.372192 
L 246.627865 83.041632 
L 247.474731 82.708992 
L 248.321597 82.675728 
L 249.168463 82.376352 
L 250.862195 81.61128 
L 251.709061 81.744336 
L 252.555927 82.875312 
L 253.402793 81.378432 
L 254.249659 82.908576 
L 255.096525 83.27448 
L 255.94339 82.642464 
L 257.637122 82.210032 
L 259.330854 82.975104 
L 260.17772 82.542672 
L 261.024586 81.94392 
L 261.871452 81.711072 
L 262.718318 81.977184 
L 263.565184 83.573856 
L 264.41205 84.305664 
L 265.258916 83.074896 
L 266.105782 83.407536 
L 267.799514 82.27656 
L 268.64638 83.074896 
L 269.493246 82.243296 
L 270.340112 84.338928 
L 271.186978 82.509408 
L 272.033844 84.039552 
L 272.88071 81.677808 
L 273.727576 81.644544 
L 274.574442 81.94392 
L 275.421308 81.644544 
L 276.268174 82.11024 
L 277.11504 81.178848 
L 277.961906 81.345168 
L 278.808772 81.910656 
L 279.655638 81.578016 
L 280.502504 82.675728 
L 281.34937 82.343088 
L 282.196236 80.979264 
L 283.043102 81.11232 
L 283.889968 82.076976 
L 284.736834 82.742256 
L 285.5837 82.143504 
L 286.430566 81.744336 
L 287.277432 83.008368 
L 288.124298 81.94392 
L 288.971164 83.906496 
L 289.81803 81.977184 
L 290.664896 82.675728 
L 291.511762 83.839968 
L 292.358628 82.343088 
L 294.05236 80.746416 
L 294.899226 81.045792 
L 295.746092 80.713152 
L 296.592958 82.343088 
L 297.439824 80.946 
L 298.28669 80.147664 
L 299.133556 80.247456 
L 299.980422 79.815024 
L 300.827288 80.214192 
L 301.674154 82.010448 
L 302.52102 81.544752 
L 304.214752 81.11232 
L 305.061618 81.977184 
L 305.908484 80.646624 
L 306.75535 82.476144 
L 307.602216 82.409616 
L 308.449082 80.147664 
L 309.295948 81.045792 
L 310.142814 80.713152 
L 310.98968 80.879472 
L 311.836546 80.313984 
L 313.530278 80.180928 
L 314.377144 80.979264 
L 315.22401 80.679888 
L 316.070876 82.675728 
L 316.917742 80.1144 
L 317.764608 79.216272 
L 318.611474 78.684048 
L 319.45834 80.946 
L 320.305206 79.349328 
L 321.152072 80.513568 
L 321.998938 79.715232 
L 322.845804 79.715232 
L 323.69267 80.147664 
L 324.539536 79.78176 
L 325.386402 79.715232 
L 326.233268 79.216272 
L 327.080134 80.580096 
L 327.927 80.047872 
L 328.773866 81.11232 
L 329.620732 79.515648 
L 331.314463 79.914816 
L 332.161329 80.679888 
L 333.008195 79.94808 
L 333.855061 80.413776 
L 336.395659 80.61336 
L 337.242525 79.548912 
L 338.089391 80.580096 
L 338.936257 79.881552 
L 339.783123 79.44912 
L 340.629989 80.1144 
L 341.476855 79.748496 
L 342.323721 81.511488 
L 343.170587 79.881552 
L 344.017453 78.684048 
L 344.864319 79.216272 
L 345.711185 78.983424 
L 346.558051 80.480304 
L 347.404917 79.515648 
L 348.251783 80.081136 
L 349.098649 79.316064 
L 349.945515 79.415856 
L 350.792381 78.318144 
L 352.486113 78.883632 
L 353.332979 78.550992 
L 354.179845 79.149744 
L 355.026711 79.44912 
L 355.873577 78.4512 
L 356.720443 79.11648 
L 357.567309 78.817104 
L 358.414175 79.914816 
L 359.261041 80.380512 
L 360.107907 77.985504 
L 360.954773 78.684048 
L 361.801639 78.351408 
L 362.648505 79.049952 
L 363.495371 78.384672 
L 364.342237 79.11648 
L 365.189103 78.28488 
L 366.035969 78.484464 
L 366.882835 77.985504 
L 367.729701 79.61544 
L 368.576567 78.251616 
L 369.423433 78.650784 
L 370.270299 79.61544 
L 371.117165 79.2828 
L 371.964031 79.61544 
L 372.810897 77.78592 
L 373.657763 77.6196 
L 375.351495 78.883632 
L 376.198361 78.95016 
L 377.045227 78.417936 
L 377.892093 79.083216 
L 378.738959 77.553072 
L 379.585825 77.45328 
L 380.432691 78.085296 
L 381.279557 77.719392 
L 382.126423 77.187168 
L 382.973289 78.251616 
L 383.820155 77.087376 
L 384.667021 78.052032 
L 385.513887 78.052032 
L 386.360753 77.852448 
L 387.207619 77.12064 
L 388.054485 77.652864 
L 389.748217 78.085296 
L 390.595083 77.719392 
L 392.288815 77.519808 
L 393.135681 77.320224 
L 393.982547 77.28696 
L 394.829413 78.052032 
L 395.676279 77.819184 
L 396.523145 78.11856 
L 399.063743 78.318144 
L 399.910609 78.11856 
L 400.757475 77.28696 
L 401.604341 77.719392 
L 402.451207 77.253696 
L 403.298073 77.087376 
L 404.144939 78.517728 
L 404.991805 77.586336 
L 405.838671 77.253696 
L 406.685537 77.220432 
L 407.532402 78.018768 
L 408.379268 78.151824 
L 409.226134 77.519808 
L 410.919866 77.6196 
L 411.766732 77.719392 
L 412.613598 76.987584 
L 413.460464 77.586336 
L 414.30733 77.153904 
L 415.154196 76.887792 
L 416.001062 77.852448 
L 416.847928 80.1144 
L 417.694794 81.27864 
L 418.54166 76.754736 
L 419.388526 77.087376 
L 420.235392 78.484464 
L 421.082258 78.61752 
L 421.929124 76.921056 
L 423.622856 77.420016 
L 424.469722 78.218352 
L 425.316588 77.553072 
L 426.163454 78.052032 
L 427.01032 77.28696 
L 427.857186 78.085296 
L 428.704052 78.052032 
L 429.550918 77.586336 
L 430.397784 77.686128 
L 431.24465 77.519808 
L 432.091516 78.151824 
L 432.938382 77.918976 
L 433.785248 77.353488 
L 434.632114 77.12064 
L 435.47898 77.153904 
L 436.325846 77.020848 
L 437.172712 77.78592 
L 438.866444 78.185088 
L 439.71331 77.320224 
L 440.560176 79.049952 
L 441.407042 77.054112 
L 442.253908 76.521888 
L 443.100774 76.155984 
L 443.94764 76.45536 
L 444.794506 75.889872 
L 445.641372 77.187168 
L 446.488238 76.754736 
L 448.18197 76.688208 
L 449.028836 77.752656 
L 449.875702 77.054112 
L 450.722568 76.588416 
L 451.569434 76.921056 
L 452.4163 76.854528 
L 453.263166 78.750576 
L 454.110032 77.153904 
L 454.956898 76.222512 
L 455.803764 76.189248 
L 456.65063 76.987584 
L 457.497496 77.320224 
L 458.344362 76.521888 
L 460.038094 75.79008 
L 460.88496 76.355568 
L 461.731826 76.62168 
L 462.578692 76.255776 
L 463.425558 76.987584 
L 464.272424 76.987584 
L 465.11929 77.95224 
L 465.966156 78.4512 
L 466.813022 76.754736 
L 467.659888 77.153904 
L 468.506754 76.95432 
L 469.35362 78.318144 
L 470.200486 78.151824 
L 471.047352 77.45328 
L 471.894218 77.752656 
L 472.741084 80.214192 
L 473.58795 81.378432 
L 474.434816 76.488624 
L 475.281682 75.823344 
L 476.128548 75.390912 
L 476.975414 76.022928 
L 477.82228 75.590496 
L 478.669146 75.9564 
L 479.516012 76.754736 
L 480.362878 77.187168 
L 481.209744 76.821264 
L 482.05661 76.022928 
L 482.903475 76.422096 
L 483.750341 76.422096 
L 484.597207 75.45744 
L 485.444073 75.590496 
L 486.290939 75.889872 
L 487.137805 75.9564 
L 488.831537 76.754736 
L 489.678403 75.989664 
L 490.525269 76.688208 
L 491.372135 76.921056 
L 492.219001 76.12272 
L 493.065867 76.022928 
L 493.912733 75.424176 
L 495.606465 75.257856 
L 496.453331 76.355568 
L 497.300197 76.721472 
L 498.147063 76.95432 
L 498.993929 76.355568 
L 499.840795 75.324384 
L 500.687661 75.058272 
L 501.534527 74.925216 
L 502.381393 76.654944 
L 503.228259 75.62376 
L 504.075125 76.056192 
L 504.921991 76.189248 
L 505.768857 75.856608 
L 506.615723 76.355568 
L 507.462589 76.155984 
L 508.309455 75.523968 
L 509.156321 75.823344 
L 510.003187 75.091536 
L 510.850053 76.45536 
L 511.696919 75.756816 
L 512.543785 76.056192 
L 513.390651 75.45744 
L 514.237517 76.388832 
L 515.931249 76.255776 
L 516.778115 75.62376 
L 517.624981 75.29112 
L 518.471847 75.923136 
L 519.318713 75.856608 
L 520.165579 74.758896 
L 521.012445 75.058272 
L 521.859311 74.925216 
L 522.706177 75.058272 
L 523.553043 76.45536 
L 524.399909 75.45744 
L 525.246775 74.825424 
L 526.093641 75.357648 
L 526.940507 74.692368 
L 527.787373 75.29112 
L 529.481105 74.659104 
L 530.327971 76.422096 
L 531.174837 75.79008 
L 532.021703 75.62376 
L 532.868569 76.388832 
L 533.715435 75.357648 
L 534.562301 75.224592 
L 535.409167 76.721472 
L 536.256033 75.1248 
L 537.102899 74.825424 
L 537.949765 74.692368 
L 538.796631 75.025008 
L 539.643497 75.058272 
L 540.490363 75.889872 
L 541.337229 75.690288 
L 542.184095 75.1248 
L 543.030961 76.12272 
L 543.877827 74.725632 
L 544.724693 74.79216 
L 545.571559 75.058272 
L 546.418425 75.923136 
L 547.265291 75.590496 
L 548.112157 74.825424 
L 548.959023 75.557232 
L 549.805889 75.324384 
L 550.652755 76.488624 
L 552.346487 75.590496 
L 553.193353 74.725632 
L 554.887085 74.725632 
L 555.733951 75.923136 
L 556.580817 76.388832 
L 557.427683 76.155984 
L 558.274548 76.654944 
L 559.121414 75.158064 
L 559.96828 75.29112 
L 560.815146 74.79216 
L 561.662012 75.29112 
L 562.508878 75.45744 
L 563.355744 74.891952 
L 564.20261 75.224592 
L 565.049476 75.756816 
L 565.896342 75.490704 
L 566.743208 74.659104 
L 567.590074 74.2932 
L 568.43694 74.326464 
L 569.283806 74.492784 
L 570.130672 74.45952 
L 572.67127 76.654944 
L 573.518136 74.592576 
L 574.365002 75.889872 
L 575.211868 75.357648 
L 576.9056 74.925216 
L 577.752466 73.894032 
L 578.599332 74.326464 
L 579.446198 75.091536 
L 580.293064 76.12272 
L 581.13993 75.224592 
L 581.986796 74.825424 
L 582.833662 75.29112 
L 583.680528 74.692368 
L 584.527394 74.426256 
L 585.37426 74.95848 
L 586.221126 74.259936 
L 587.067992 73.894032 
L 587.914858 74.426256 
L 588.761724 74.692368 
L 589.60859 75.490704 
L 590.455456 74.359728 
L 592.149188 74.825424 
L 592.996054 75.923136 
L 593.84292 75.557232 
L 594.689786 75.424176 
L 595.536652 76.056192 
L 596.383518 74.991744 
L 597.230384 74.925216 
L 598.07725 74.592576 
L 599.770982 74.559312 
L 600.617848 74.326464 
L 602.31158 74.226672 
L 603.158446 75.424176 
L 604.005312 74.758896 
L 604.852178 74.259936 
L 605.699044 74.359728 
L 606.54591 75.224592 
L 607.392776 74.526048 
L 609.086508 74.093616 
L 609.933374 74.2932 
L 610.78024 75.889872 
L 611.627106 74.12688 
L 615.01457 74.426256 
L 615.861436 74.758896 
L 616.708302 74.559312 
L 618.402034 75.357648 
L 619.2489 76.555152 
L 620.942632 75.45744 
L 622.636364 75.224592 
L 622.636364 75.224592 
" clip-path="url(#p79e4fd7a0e)" style="fill: none; stroke-dasharray: 7.4,3.2; stroke-dashoffset: 0; stroke: #008000; stroke-width: 2"/>
   </g>
   <g id="patch_3">
    <path d="M 90 384.48 
L 90 51.84 
" style="fill: none; stroke: #000000; stroke-width: 0.8; stroke-linejoin: miter; stroke-linecap: square"/>
   </g>
   <g id="patch_4">
    <path d="M 648 384.48 
L 648 51.84 
" style="fill: none; stroke: #000000; stroke-width: 0.8; stroke-linejoin: miter; stroke-linecap: square"/>
   </g>
   <g id="patch_5">
    <path d="M 90 384.48 
L 648 384.48 
" style="fill: none; stroke: #000000; stroke-width: 0.8; stroke-linejoin: miter; stroke-linecap: square"/>
   </g>
   <g id="patch_6">
    <path d="M 90 51.84 
L 648 51.84 
" style="fill: none; stroke: #000000; stroke-width: 0.8; stroke-linejoin: miter; stroke-linecap: square"/>
   </g>
   <g id="text_16">
    <!-- Training and Testing Accuracy (Learning Rate: 0.001) -->
    <g transform="translate(157.57125 45.84) scale(0.16 -0.16)">
     <defs>
      <path id="DejaVuSans-54" d="M -19 4666 
L 3928 4666 
L 3928 4134 
L 2272 4134 
L 2272 0 
L 1638 0 
L 1638 4134 
L -19 4134 
L -19 4666 
z
" transform="scale(0.015625)"/>
      <path id="DejaVuSans-67" d="M 2906 1791 
Q 2906 2416 2648 2759 
Q 2391 3103 1925 3103 
Q 1463 3103 1205 2759 
Q 947 2416 947 1791 
Q 947 1169 1205 825 
Q 1463 481 1925 481 
Q 2391 481 2648 825 
Q 2906 1169 2906 1791 
z
M 3481 434 
Q 3481 -459 3084 -895 
Q 2688 -1331 1869 -1331 
Q 1566 -1331 1297 -1286 
Q 1028 -1241 775 -1147 
L 775 -588 
Q 1028 -725 1275 -790 
Q 1522 -856 1778 -856 
Q 2344 -856 2625 -561 
Q 2906 -266 2906 331 
L 2906 616 
Q 2728 306 2450 153 
Q 2172 0 1784 0 
Q 1141 0 747 490 
Q 353 981 353 1791 
Q 353 2603 747 3093 
Q 1141 3584 1784 3584 
Q 2172 3584 2450 3431 
Q 2728 3278 2906 2969 
L 2906 3500 
L 3481 3500 
L 3481 434 
z
" transform="scale(0.015625)"/>
      <path id="DejaVuSans-20" transform="scale(0.015625)"/>
      <path id="DejaVuSans-64" d="M 2906 2969 
L 2906 4863 
L 3481 4863 
L 3481 0 
L 2906 0 
L 2906 525 
Q 2725 213 2448 61 
Q 2172 -91 1784 -91 
Q 1150 -91 751 415 
Q 353 922 353 1747 
Q 353 2572 751 3078 
Q 1150 3584 1784 3584 
Q 2172 3584 2448 3432 
Q 2725 3281 2906 2969 
z
M 947 1747 
Q 947 1113 1208 752 
Q 1469 391 1925 391 
Q 2381 391 2643 752 
Q 2906 1113 2906 1747 
Q 2906 2381 2643 2742 
Q 2381 3103 1925 3103 
Q 1469 3103 1208 2742 
Q 947 2381 947 1747 
z
" transform="scale(0.015625)"/>
      <path id="DejaVuSans-28" d="M 1984 4856 
Q 1566 4138 1362 3434 
Q 1159 2731 1159 2009 
Q 1159 1288 1364 580 
Q 1569 -128 1984 -844 
L 1484 -844 
Q 1016 -109 783 600 
Q 550 1309 550 2009 
Q 550 2706 781 3412 
Q 1013 4119 1484 4856 
L 1984 4856 
z
" transform="scale(0.015625)"/>
      <path id="DejaVuSans-4c" d="M 628 4666 
L 1259 4666 
L 1259 531 
L 3531 531 
L 3531 0 
L 628 0 
L 628 4666 
z
" transform="scale(0.015625)"/>
      <path id="DejaVuSans-52" d="M 2841 2188 
Q 3044 2119 3236 1894 
Q 3428 1669 3622 1275 
L 4263 0 
L 3584 0 
L 2988 1197 
Q 2756 1666 2539 1819 
Q 2322 1972 1947 1972 
L 1259 1972 
L 1259 0 
L 628 0 
L 628 4666 
L 2053 4666 
Q 2853 4666 3247 4331 
Q 3641 3997 3641 3322 
Q 3641 2881 3436 2590 
Q 3231 2300 2841 2188 
z
M 1259 4147 
L 1259 2491 
L 2053 2491 
Q 2509 2491 2742 2702 
Q 2975 2913 2975 3322 
Q 2975 3731 2742 3939 
Q 2509 4147 2053 4147 
L 1259 4147 
z
" transform="scale(0.015625)"/>
      <path id="DejaVuSans-3a" d="M 750 794 
L 1409 794 
L 1409 0 
L 750 0 
L 750 794 
z
M 750 3309 
L 1409 3309 
L 1409 2516 
L 750 2516 
L 750 3309 
z
" transform="scale(0.015625)"/>
      <path id="DejaVuSans-29" d="M 513 4856 
L 1013 4856 
Q 1481 4119 1714 3412 
Q 1947 2706 1947 2009 
Q 1947 1309 1714 600 
Q 1481 -109 1013 -844 
L 513 -844 
Q 928 -128 1133 580 
Q 1338 1288 1338 2009 
Q 1338 2731 1133 3434 
Q 928 4138 513 4856 
z
" transform="scale(0.015625)"/>
     </defs>
     <use xlink:href="#DejaVuSans-54"/>
     <use xlink:href="#DejaVuSans-72" x="46.333984"/>
     <use xlink:href="#DejaVuSans-61" x="87.447266"/>
     <use xlink:href="#DejaVuSans-69" x="148.726562"/>
     <use xlink:href="#DejaVuSans-6e" x="176.509766"/>
     <use xlink:href="#DejaVuSans-69" x="239.888672"/>
     <use xlink:href="#DejaVuSans-6e" x="267.671875"/>
     <use xlink:href="#DejaVuSans-67" x="331.050781"/>
     <use xlink:href="#DejaVuSans-20" x="394.527344"/>
     <use xlink:href="#DejaVuSans-61" x="426.314453"/>
     <use xlink:href="#DejaVuSans-6e" x="487.59375"/>
     <use xlink:href="#DejaVuSans-64" x="550.972656"/>
     <use xlink:href="#DejaVuSans-20" x="614.449219"/>
     <use xlink:href="#DejaVuSans-54" x="646.236328"/>
     <use xlink:href="#DejaVuSans-65" x="690.320312"/>
     <use xlink:href="#DejaVuSans-73" x="751.84375"/>
     <use xlink:href="#DejaVuSans-74" x="803.943359"/>
     <use xlink:href="#DejaVuSans-69" x="843.152344"/>
     <use xlink:href="#DejaVuSans-6e" x="870.935547"/>
     <use xlink:href="#DejaVuSans-67" x="934.314453"/>
     <use xlink:href="#DejaVuSans-20" x="997.791016"/>
     <use xlink:href="#DejaVuSans-41" x="1029.578125"/>
     <use xlink:href="#DejaVuSans-63" x="1096.236328"/>
     <use xlink:href="#DejaVuSans-63" x="1151.216797"/>
     <use xlink:href="#DejaVuSans-75" x="1206.197266"/>
     <use xlink:href="#DejaVuSans-72" x="1269.576172"/>
     <use xlink:href="#DejaVuSans-61" x="1310.689453"/>
     <use xlink:href="#DejaVuSans-63" x="1371.96875"/>
     <use xlink:href="#DejaVuSans-79" x="1426.949219"/>
     <use xlink:href="#DejaVuSans-20" x="1486.128906"/>
     <use xlink:href="#DejaVuSans-28" x="1517.916016"/>
     <use xlink:href="#DejaVuSans-4c" x="1556.929688"/>
     <use xlink:href="#DejaVuSans-65" x="1610.892578"/>
     <use xlink:href="#DejaVuSans-61" x="1672.416016"/>
     <use xlink:href="#DejaVuSans-72" x="1733.695312"/>
     <use xlink:href="#DejaVuSans-6e" x="1773.058594"/>
     <use xlink:href="#DejaVuSans-69" x="1836.4375"/>
     <use xlink:href="#DejaVuSans-6e" x="1864.220703"/>
     <use xlink:href="#DejaVuSans-67" x="1927.599609"/>
     <use xlink:href="#DejaVuSans-20" x="1991.076172"/>
     <use xlink:href="#DejaVuSans-52" x="2022.863281"/>
     <use xlink:href="#DejaVuSans-61" x="2090.095703"/>
     <use xlink:href="#DejaVuSans-74" x="2151.375"/>
     <use xlink:href="#DejaVuSans-65" x="2190.583984"/>
     <use xlink:href="#DejaVuSans-3a" x="2252.107422"/>
     <use xlink:href="#DejaVuSans-20" x="2285.798828"/>
     <use xlink:href="#DejaVuSans-30" x="2317.585938"/>
     <use xlink:href="#DejaVuSans-2e" x="2381.208984"/>
     <use xlink:href="#DejaVuSans-30" x="2412.996094"/>
     <use xlink:href="#DejaVuSans-30" x="2476.619141"/>
     <use xlink:href="#DejaVuSans-31" x="2540.242188"/>
     <use xlink:href="#DejaVuSans-29" x="2603.865234"/>
    </g>
   </g>
   <g id="legend_1">
    <g id="patch_7">
     <path d="M 520.714062 379.48 
L 641 379.48 
Q 643 379.48 643 377.48 
L 643 349.12375 
Q 643 347.12375 641 347.12375 
L 520.714062 347.12375 
Q 518.714062 347.12375 518.714062 349.12375 
L 518.714062 377.48 
Q 518.714062 379.48 520.714062 379.48 
z
" style="fill: #ffffff; opacity: 0.8; stroke: #cccccc; stroke-linejoin: miter"/>
    </g>
    <g id="line2d_29">
     <path d="M 522.714062 355.222188 
L 532.714062 355.222188 
L 542.714062 355.222188 
" style="fill: none; stroke: #0000ff; stroke-width: 2; stroke-linecap: square"/>
    </g>
    <g id="text_17">
     <!-- Training Accuracy -->
     <g transform="translate(550.714062 358.722188) scale(0.1 -0.1)">
      <use xlink:href="#DejaVuSans-54"/>
      <use xlink:href="#DejaVuSans-72" x="46.333984"/>
      <use xlink:href="#DejaVuSans-61" x="87.447266"/>
      <use xlink:href="#DejaVuSans-69" x="148.726562"/>
      <use xlink:href="#DejaVuSans-6e" x="176.509766"/>
      <use xlink:href="#DejaVuSans-69" x="239.888672"/>
      <use xlink:href="#DejaVuSans-6e" x="267.671875"/>
      <use xlink:href="#DejaVuSans-67" x="331.050781"/>
      <use xlink:href="#DejaVuSans-20" x="394.527344"/>
      <use xlink:href="#DejaVuSans-41" x="426.314453"/>
      <use xlink:href="#DejaVuSans-63" x="492.972656"/>
      <use xlink:href="#DejaVuSans-63" x="547.953125"/>
      <use xlink:href="#DejaVuSans-75" x="602.933594"/>
      <use xlink:href="#DejaVuSans-72" x="666.3125"/>
      <use xlink:href="#DejaVuSans-61" x="707.425781"/>
      <use xlink:href="#DejaVuSans-63" x="768.705078"/>
      <use xlink:href="#DejaVuSans-79" x="823.685547"/>
     </g>
    </g>
    <g id="line2d_30">
     <path d="M 522.714062 369.900312 
L 532.714062 369.900312 
L 542.714062 369.900312 
" style="fill: none; stroke-dasharray: 7.4,3.2; stroke-dashoffset: 0; stroke: #008000; stroke-width: 2"/>
    </g>
    <g id="text_18">
     <!-- Testing Accuracy -->
     <g transform="translate(550.714062 373.400312) scale(0.1 -0.1)">
      <use xlink:href="#DejaVuSans-54"/>
      <use xlink:href="#DejaVuSans-65" x="44.083984"/>
      <use xlink:href="#DejaVuSans-73" x="105.607422"/>
      <use xlink:href="#DejaVuSans-74" x="157.707031"/>
      <use xlink:href="#DejaVuSans-69" x="196.916016"/>
      <use xlink:href="#DejaVuSans-6e" x="224.699219"/>
      <use xlink:href="#DejaVuSans-67" x="288.078125"/>
      <use xlink:href="#DejaVuSans-20" x="351.554688"/>
      <use xlink:href="#DejaVuSans-41" x="383.341797"/>
      <use xlink:href="#DejaVuSans-63" x="450"/>
      <use xlink:href="#DejaVuSans-63" x="504.980469"/>
      <use xlink:href="#DejaVuSans-75" x="559.960938"/>
      <use xlink:href="#DejaVuSans-72" x="623.339844"/>
      <use xlink:href="#DejaVuSans-61" x="664.453125"/>
      <use xlink:href="#DejaVuSans-63" x="725.732422"/>
      <use xlink:href="#DejaVuSans-79" x="780.712891"/>
     </g>
    </g>
   </g>
  </g>
 </g>
 <defs>
  <clipPath id="p79e4fd7a0e">
   <rect x="90" y="51.84" width="558" height="332.64"/>
  </clipPath>
 </defs>
</svg>
