<?xml version="1.0" encoding="utf-8" standalone="no"?>
<!DOCTYPE svg PUBLIC "-//W3C//DTD SVG 1.1//EN"
  "http://www.w3.org/Graphics/SVG/1.1/DTD/svg11.dtd">
<svg xmlns:xlink="http://www.w3.org/1999/xlink" width="1440pt" height="864pt" viewBox="0 0 1440 864" xmlns="http://www.w3.org/2000/svg" version="1.1">
 <metadata>
  <rdf:RDF xmlns:dc="http://purl.org/dc/elements/1.1/" xmlns:cc="http://creativecommons.org/ns#" xmlns:rdf="http://www.w3.org/1999/02/22-rdf-syntax-ns#">
   <cc:Work>
    <dc:type rdf:resource="http://purl.org/dc/dcmitype/StillImage"/>
    <dc:date>2024-05-09T00:30:18.825114</dc:date>
    <dc:format>image/svg+xml</dc:format>
    <dc:creator>
     <cc:Agent>
      <dc:title>Matplotlib v3.6.2, https://matplotlib.org/</dc:title>
     </cc:Agent>
    </dc:creator>
   </cc:Work>
  </rdf:RDF>
 </metadata>
 <defs>
  <style type="text/css">*{stroke-linejoin: round; stroke-linecap: butt}</style>
 </defs>
 <g id="figure_1">
  <g id="patch_1">
   <path d="M 0 864 
L 1440 864 
L 1440 0 
L 0 0 
z
" style="fill: #ffffff"/>
  </g>
  <g id="axes_1">
   <g id="patch_2">
    <path d="M 180 768.96 
L 1296 768.96 
L 1296 103.68 
L 180 103.68 
z
" style="fill: #ffffff"/>
   </g>
   <g id="matplotlib.axis_1">
    <g id="xtick_1">
     <g id="line2d_1">
      <defs>
       <path id="mec3feb8b68" d="M 0 0 
L 0 3.5 
" style="stroke: #000000; stroke-width: 0.8"/>
      </defs>
      <g>
       <use xlink:href="#mec3feb8b68" x="180" y="768.96" style="stroke: #000000; stroke-width: 0.8"/>
      </g>
     </g>
     <g id="text_1">
      <!-- 0 -->
      <g transform="translate(176.81875 783.558437) scale(0.1 -0.1)">
       <defs>
        <path id="DejaVuSans-30" d="M 2034 4250 
Q 1547 4250 1301 3770 
Q 1056 3291 1056 2328 
Q 1056 1369 1301 889 
Q 1547 409 2034 409 
Q 2525 409 2770 889 
Q 3016 1369 3016 2328 
Q 3016 3291 2770 3770 
Q 2525 4250 2034 4250 
z
M 2034 4750 
Q 2819 4750 3233 4129 
Q 3647 3509 3647 2328 
Q 3647 1150 3233 529 
Q 2819 -91 2034 -91 
Q 1250 -91 836 529 
Q 422 1150 422 2328 
Q 422 3509 836 4129 
Q 1250 4750 2034 4750 
z
" transform="scale(0.015625)"/>
       </defs>
       <use xlink:href="#DejaVuSans-30"/>
      </g>
     </g>
    </g>
    <g id="xtick_2">
     <g id="line2d_2">
      <g>
       <use xlink:href="#mec3feb8b68" x="366" y="768.96" style="stroke: #000000; stroke-width: 0.8"/>
      </g>
     </g>
     <g id="text_2">
      <!-- 10000 -->
      <g transform="translate(350.09375 783.558437) scale(0.1 -0.1)">
       <defs>
        <path id="DejaVuSans-31" d="M 794 531 
L 1825 531 
L 1825 4091 
L 703 3866 
L 703 4441 
L 1819 4666 
L 2450 4666 
L 2450 531 
L 3481 531 
L 3481 0 
L 794 0 
L 794 531 
z
" transform="scale(0.015625)"/>
       </defs>
       <use xlink:href="#DejaVuSans-31"/>
       <use xlink:href="#DejaVuSans-30" x="63.623047"/>
       <use xlink:href="#DejaVuSans-30" x="127.246094"/>
       <use xlink:href="#DejaVuSans-30" x="190.869141"/>
       <use xlink:href="#DejaVuSans-30" x="254.492188"/>
      </g>
     </g>
    </g>
    <g id="xtick_3">
     <g id="line2d_3">
      <g>
       <use xlink:href="#mec3feb8b68" x="552" y="768.96" style="stroke: #000000; stroke-width: 0.8"/>
      </g>
     </g>
     <g id="text_3">
      <!-- 20000 -->
      <g transform="translate(536.09375 783.558437) scale(0.1 -0.1)">
       <defs>
        <path id="DejaVuSans-32" d="M 1228 531 
L 3431 531 
L 3431 0 
L 469 0 
L 469 531 
Q 828 903 1448 1529 
Q 2069 2156 2228 2338 
Q 2531 2678 2651 2914 
Q 2772 3150 2772 3378 
Q 2772 3750 2511 3984 
Q 2250 4219 1831 4219 
Q 1534 4219 1204 4116 
Q 875 4013 500 3803 
L 500 4441 
Q 881 4594 1212 4672 
Q 1544 4750 1819 4750 
Q 2544 4750 2975 4387 
Q 3406 4025 3406 3419 
Q 3406 3131 3298 2873 
Q 3191 2616 2906 2266 
Q 2828 2175 2409 1742 
Q 1991 1309 1228 531 
z
" transform="scale(0.015625)"/>
       </defs>
       <use xlink:href="#DejaVuSans-32"/>
       <use xlink:href="#DejaVuSans-30" x="63.623047"/>
       <use xlink:href="#DejaVuSans-30" x="127.246094"/>
       <use xlink:href="#DejaVuSans-30" x="190.869141"/>
       <use xlink:href="#DejaVuSans-30" x="254.492188"/>
      </g>
     </g>
    </g>
    <g id="xtick_4">
     <g id="line2d_4">
      <g>
       <use xlink:href="#mec3feb8b68" x="738" y="768.96" style="stroke: #000000; stroke-width: 0.8"/>
      </g>
     </g>
     <g id="text_4">
      <!-- 30000 -->
      <g transform="translate(722.09375 783.558437) scale(0.1 -0.1)">
       <defs>
        <path id="DejaVuSans-33" d="M 2597 2516 
Q 3050 2419 3304 2112 
Q 3559 1806 3559 1356 
Q 3559 666 3084 287 
Q 2609 -91 1734 -91 
Q 1441 -91 1130 -33 
Q 819 25 488 141 
L 488 750 
Q 750 597 1062 519 
Q 1375 441 1716 441 
Q 2309 441 2620 675 
Q 2931 909 2931 1356 
Q 2931 1769 2642 2001 
Q 2353 2234 1838 2234 
L 1294 2234 
L 1294 2753 
L 1863 2753 
Q 2328 2753 2575 2939 
Q 2822 3125 2822 3475 
Q 2822 3834 2567 4026 
Q 2313 4219 1838 4219 
Q 1578 4219 1281 4162 
Q 984 4106 628 3988 
L 628 4550 
Q 988 4650 1302 4700 
Q 1616 4750 1894 4750 
Q 2613 4750 3031 4423 
Q 3450 4097 3450 3541 
Q 3450 3153 3228 2886 
Q 3006 2619 2597 2516 
z
" transform="scale(0.015625)"/>
       </defs>
       <use xlink:href="#DejaVuSans-33"/>
       <use xlink:href="#DejaVuSans-30" x="63.623047"/>
       <use xlink:href="#DejaVuSans-30" x="127.246094"/>
       <use xlink:href="#DejaVuSans-30" x="190.869141"/>
       <use xlink:href="#DejaVuSans-30" x="254.492188"/>
      </g>
     </g>
    </g>
    <g id="xtick_5">
     <g id="line2d_5">
      <g>
       <use xlink:href="#mec3feb8b68" x="924" y="768.96" style="stroke: #000000; stroke-width: 0.8"/>
      </g>
     </g>
     <g id="text_5">
      <!-- 40000 -->
      <g transform="translate(908.09375 783.558437) scale(0.1 -0.1)">
       <defs>
        <path id="DejaVuSans-34" d="M 2419 4116 
L 825 1625 
L 2419 1625 
L 2419 4116 
z
M 2253 4666 
L 3047 4666 
L 3047 1625 
L 3713 1625 
L 3713 1100 
L 3047 1100 
L 3047 0 
L 2419 0 
L 2419 1100 
L 313 1100 
L 313 1709 
L 2253 4666 
z
" transform="scale(0.015625)"/>
       </defs>
       <use xlink:href="#DejaVuSans-34"/>
       <use xlink:href="#DejaVuSans-30" x="63.623047"/>
       <use xlink:href="#DejaVuSans-30" x="127.246094"/>
       <use xlink:href="#DejaVuSans-30" x="190.869141"/>
       <use xlink:href="#DejaVuSans-30" x="254.492188"/>
      </g>
     </g>
    </g>
    <g id="xtick_6">
     <g id="line2d_6">
      <g>
       <use xlink:href="#mec3feb8b68" x="1110" y="768.96" style="stroke: #000000; stroke-width: 0.8"/>
      </g>
     </g>
     <g id="text_6">
      <!-- 50000 -->
      <g transform="translate(1094.09375 783.558437) scale(0.1 -0.1)">
       <defs>
        <path id="DejaVuSans-35" d="M 691 4666 
L 3169 4666 
L 3169 4134 
L 1269 4134 
L 1269 2991 
Q 1406 3038 1543 3061 
Q 1681 3084 1819 3084 
Q 2600 3084 3056 2656 
Q 3513 2228 3513 1497 
Q 3513 744 3044 326 
Q 2575 -91 1722 -91 
Q 1428 -91 1123 -41 
Q 819 9 494 109 
L 494 744 
Q 775 591 1075 516 
Q 1375 441 1709 441 
Q 2250 441 2565 725 
Q 2881 1009 2881 1497 
Q 2881 1984 2565 2268 
Q 2250 2553 1709 2553 
Q 1456 2553 1204 2497 
Q 953 2441 691 2322 
L 691 4666 
z
" transform="scale(0.015625)"/>
       </defs>
       <use xlink:href="#DejaVuSans-35"/>
       <use xlink:href="#DejaVuSans-30" x="63.623047"/>
       <use xlink:href="#DejaVuSans-30" x="127.246094"/>
       <use xlink:href="#DejaVuSans-30" x="190.869141"/>
       <use xlink:href="#DejaVuSans-30" x="254.492188"/>
      </g>
     </g>
    </g>
    <g id="xtick_7">
     <g id="line2d_7">
      <g>
       <use xlink:href="#mec3feb8b68" x="1296" y="768.96" style="stroke: #000000; stroke-width: 0.8"/>
      </g>
     </g>
     <g id="text_7">
      <!-- 60000 -->
      <g transform="translate(1280.09375 783.558437) scale(0.1 -0.1)">
       <defs>
        <path id="DejaVuSans-36" d="M 2113 2584 
Q 1688 2584 1439 2293 
Q 1191 2003 1191 1497 
Q 1191 994 1439 701 
Q 1688 409 2113 409 
Q 2538 409 2786 701 
Q 3034 994 3034 1497 
Q 3034 2003 2786 2293 
Q 2538 2584 2113 2584 
z
M 3366 4563 
L 3366 3988 
Q 3128 4100 2886 4159 
Q 2644 4219 2406 4219 
Q 1781 4219 1451 3797 
Q 1122 3375 1075 2522 
Q 1259 2794 1537 2939 
Q 1816 3084 2150 3084 
Q 2853 3084 3261 2657 
Q 3669 2231 3669 1497 
Q 3669 778 3244 343 
Q 2819 -91 2113 -91 
Q 1303 -91 875 529 
Q 447 1150 447 2328 
Q 447 3434 972 4092 
Q 1497 4750 2381 4750 
Q 2619 4750 2861 4703 
Q 3103 4656 3366 4563 
z
" transform="scale(0.015625)"/>
       </defs>
       <use xlink:href="#DejaVuSans-36"/>
       <use xlink:href="#DejaVuSans-30" x="63.623047"/>
       <use xlink:href="#DejaVuSans-30" x="127.246094"/>
       <use xlink:href="#DejaVuSans-30" x="190.869141"/>
       <use xlink:href="#DejaVuSans-30" x="254.492188"/>
      </g>
     </g>
    </g>
    <g id="xtick_8">
     <g id="line2d_8">
      <defs>
       <path id="md133234c92" d="M 0 0 
L 0 2 
" style="stroke: #000000; stroke-width: 0.6"/>
      </defs>
      <g>
       <use xlink:href="#md133234c92" x="198.6" y="768.96" style="stroke: #000000; stroke-width: 0.6"/>
      </g>
     </g>
    </g>
    <g id="xtick_9">
     <g id="line2d_9">
      <g>
       <use xlink:href="#md133234c92" x="217.2" y="768.96" style="stroke: #000000; stroke-width: 0.6"/>
      </g>
     </g>
    </g>
    <g id="xtick_10">
     <g id="line2d_10">
      <g>
       <use xlink:href="#md133234c92" x="235.8" y="768.96" style="stroke: #000000; stroke-width: 0.6"/>
      </g>
     </g>
    </g>
    <g id="xtick_11">
     <g id="line2d_11">
      <g>
       <use xlink:href="#md133234c92" x="254.4" y="768.96" style="stroke: #000000; stroke-width: 0.6"/>
      </g>
     </g>
    </g>
    <g id="xtick_12">
     <g id="line2d_12">
      <g>
       <use xlink:href="#md133234c92" x="273" y="768.96" style="stroke: #000000; stroke-width: 0.6"/>
      </g>
     </g>
    </g>
    <g id="xtick_13">
     <g id="line2d_13">
      <g>
       <use xlink:href="#md133234c92" x="291.6" y="768.96" style="stroke: #000000; stroke-width: 0.6"/>
      </g>
     </g>
    </g>
    <g id="xtick_14">
     <g id="line2d_14">
      <g>
       <use xlink:href="#md133234c92" x="310.2" y="768.96" style="stroke: #000000; stroke-width: 0.6"/>
      </g>
     </g>
    </g>
    <g id="xtick_15">
     <g id="line2d_15">
      <g>
       <use xlink:href="#md133234c92" x="328.8" y="768.96" style="stroke: #000000; stroke-width: 0.6"/>
      </g>
     </g>
    </g>
    <g id="xtick_16">
     <g id="line2d_16">
      <g>
       <use xlink:href="#md133234c92" x="347.4" y="768.96" style="stroke: #000000; stroke-width: 0.6"/>
      </g>
     </g>
    </g>
    <g id="xtick_17">
     <g id="line2d_17">
      <g>
       <use xlink:href="#md133234c92" x="384.6" y="768.96" style="stroke: #000000; stroke-width: 0.6"/>
      </g>
     </g>
    </g>
    <g id="xtick_18">
     <g id="line2d_18">
      <g>
       <use xlink:href="#md133234c92" x="403.2" y="768.96" style="stroke: #000000; stroke-width: 0.6"/>
      </g>
     </g>
    </g>
    <g id="xtick_19">
     <g id="line2d_19">
      <g>
       <use xlink:href="#md133234c92" x="421.8" y="768.96" style="stroke: #000000; stroke-width: 0.6"/>
      </g>
     </g>
    </g>
    <g id="xtick_20">
     <g id="line2d_20">
      <g>
       <use xlink:href="#md133234c92" x="440.4" y="768.96" style="stroke: #000000; stroke-width: 0.6"/>
      </g>
     </g>
    </g>
    <g id="xtick_21">
     <g id="line2d_21">
      <g>
       <use xlink:href="#md133234c92" x="459" y="768.96" style="stroke: #000000; stroke-width: 0.6"/>
      </g>
     </g>
    </g>
    <g id="xtick_22">
     <g id="line2d_22">
      <g>
       <use xlink:href="#md133234c92" x="477.6" y="768.96" style="stroke: #000000; stroke-width: 0.6"/>
      </g>
     </g>
    </g>
    <g id="xtick_23">
     <g id="line2d_23">
      <g>
       <use xlink:href="#md133234c92" x="496.2" y="768.96" style="stroke: #000000; stroke-width: 0.6"/>
      </g>
     </g>
    </g>
    <g id="xtick_24">
     <g id="line2d_24">
      <g>
       <use xlink:href="#md133234c92" x="514.8" y="768.96" style="stroke: #000000; stroke-width: 0.6"/>
      </g>
     </g>
    </g>
    <g id="xtick_25">
     <g id="line2d_25">
      <g>
       <use xlink:href="#md133234c92" x="533.4" y="768.96" style="stroke: #000000; stroke-width: 0.6"/>
      </g>
     </g>
    </g>
    <g id="xtick_26">
     <g id="line2d_26">
      <g>
       <use xlink:href="#md133234c92" x="570.6" y="768.96" style="stroke: #000000; stroke-width: 0.6"/>
      </g>
     </g>
    </g>
    <g id="xtick_27">
     <g id="line2d_27">
      <g>
       <use xlink:href="#md133234c92" x="589.2" y="768.96" style="stroke: #000000; stroke-width: 0.6"/>
      </g>
     </g>
    </g>
    <g id="xtick_28">
     <g id="line2d_28">
      <g>
       <use xlink:href="#md133234c92" x="607.8" y="768.96" style="stroke: #000000; stroke-width: 0.6"/>
      </g>
     </g>
    </g>
    <g id="xtick_29">
     <g id="line2d_29">
      <g>
       <use xlink:href="#md133234c92" x="626.4" y="768.96" style="stroke: #000000; stroke-width: 0.6"/>
      </g>
     </g>
    </g>
    <g id="xtick_30">
     <g id="line2d_30">
      <g>
       <use xlink:href="#md133234c92" x="645" y="768.96" style="stroke: #000000; stroke-width: 0.6"/>
      </g>
     </g>
    </g>
    <g id="xtick_31">
     <g id="line2d_31">
      <g>
       <use xlink:href="#md133234c92" x="663.6" y="768.96" style="stroke: #000000; stroke-width: 0.6"/>
      </g>
     </g>
    </g>
    <g id="xtick_32">
     <g id="line2d_32">
      <g>
       <use xlink:href="#md133234c92" x="682.2" y="768.96" style="stroke: #000000; stroke-width: 0.6"/>
      </g>
     </g>
    </g>
    <g id="xtick_33">
     <g id="line2d_33">
      <g>
       <use xlink:href="#md133234c92" x="700.8" y="768.96" style="stroke: #000000; stroke-width: 0.6"/>
      </g>
     </g>
    </g>
    <g id="xtick_34">
     <g id="line2d_34">
      <g>
       <use xlink:href="#md133234c92" x="719.4" y="768.96" style="stroke: #000000; stroke-width: 0.6"/>
      </g>
     </g>
    </g>
    <g id="xtick_35">
     <g id="line2d_35">
      <g>
       <use xlink:href="#md133234c92" x="756.6" y="768.96" style="stroke: #000000; stroke-width: 0.6"/>
      </g>
     </g>
    </g>
    <g id="xtick_36">
     <g id="line2d_36">
      <g>
       <use xlink:href="#md133234c92" x="775.2" y="768.96" style="stroke: #000000; stroke-width: 0.6"/>
      </g>
     </g>
    </g>
    <g id="xtick_37">
     <g id="line2d_37">
      <g>
       <use xlink:href="#md133234c92" x="793.8" y="768.96" style="stroke: #000000; stroke-width: 0.6"/>
      </g>
     </g>
    </g>
    <g id="xtick_38">
     <g id="line2d_38">
      <g>
       <use xlink:href="#md133234c92" x="812.4" y="768.96" style="stroke: #000000; stroke-width: 0.6"/>
      </g>
     </g>
    </g>
    <g id="xtick_39">
     <g id="line2d_39">
      <g>
       <use xlink:href="#md133234c92" x="831" y="768.96" style="stroke: #000000; stroke-width: 0.6"/>
      </g>
     </g>
    </g>
    <g id="xtick_40">
     <g id="line2d_40">
      <g>
       <use xlink:href="#md133234c92" x="849.6" y="768.96" style="stroke: #000000; stroke-width: 0.6"/>
      </g>
     </g>
    </g>
    <g id="xtick_41">
     <g id="line2d_41">
      <g>
       <use xlink:href="#md133234c92" x="868.2" y="768.96" style="stroke: #000000; stroke-width: 0.6"/>
      </g>
     </g>
    </g>
    <g id="xtick_42">
     <g id="line2d_42">
      <g>
       <use xlink:href="#md133234c92" x="886.8" y="768.96" style="stroke: #000000; stroke-width: 0.6"/>
      </g>
     </g>
    </g>
    <g id="xtick_43">
     <g id="line2d_43">
      <g>
       <use xlink:href="#md133234c92" x="905.4" y="768.96" style="stroke: #000000; stroke-width: 0.6"/>
      </g>
     </g>
    </g>
    <g id="xtick_44">
     <g id="line2d_44">
      <g>
       <use xlink:href="#md133234c92" x="942.6" y="768.96" style="stroke: #000000; stroke-width: 0.6"/>
      </g>
     </g>
    </g>
    <g id="xtick_45">
     <g id="line2d_45">
      <g>
       <use xlink:href="#md133234c92" x="961.2" y="768.96" style="stroke: #000000; stroke-width: 0.6"/>
      </g>
     </g>
    </g>
    <g id="xtick_46">
     <g id="line2d_46">
      <g>
       <use xlink:href="#md133234c92" x="979.8" y="768.96" style="stroke: #000000; stroke-width: 0.6"/>
      </g>
     </g>
    </g>
    <g id="xtick_47">
     <g id="line2d_47">
      <g>
       <use xlink:href="#md133234c92" x="998.4" y="768.96" style="stroke: #000000; stroke-width: 0.6"/>
      </g>
     </g>
    </g>
    <g id="xtick_48">
     <g id="line2d_48">
      <g>
       <use xlink:href="#md133234c92" x="1017" y="768.96" style="stroke: #000000; stroke-width: 0.6"/>
      </g>
     </g>
    </g>
    <g id="xtick_49">
     <g id="line2d_49">
      <g>
       <use xlink:href="#md133234c92" x="1035.6" y="768.96" style="stroke: #000000; stroke-width: 0.6"/>
      </g>
     </g>
    </g>
    <g id="xtick_50">
     <g id="line2d_50">
      <g>
       <use xlink:href="#md133234c92" x="1054.2" y="768.96" style="stroke: #000000; stroke-width: 0.6"/>
      </g>
     </g>
    </g>
    <g id="xtick_51">
     <g id="line2d_51">
      <g>
       <use xlink:href="#md133234c92" x="1072.8" y="768.96" style="stroke: #000000; stroke-width: 0.6"/>
      </g>
     </g>
    </g>
    <g id="xtick_52">
     <g id="line2d_52">
      <g>
       <use xlink:href="#md133234c92" x="1091.4" y="768.96" style="stroke: #000000; stroke-width: 0.6"/>
      </g>
     </g>
    </g>
    <g id="xtick_53">
     <g id="line2d_53">
      <g>
       <use xlink:href="#md133234c92" x="1128.6" y="768.96" style="stroke: #000000; stroke-width: 0.6"/>
      </g>
     </g>
    </g>
    <g id="xtick_54">
     <g id="line2d_54">
      <g>
       <use xlink:href="#md133234c92" x="1147.2" y="768.96" style="stroke: #000000; stroke-width: 0.6"/>
      </g>
     </g>
    </g>
    <g id="xtick_55">
     <g id="line2d_55">
      <g>
       <use xlink:href="#md133234c92" x="1165.8" y="768.96" style="stroke: #000000; stroke-width: 0.6"/>
      </g>
     </g>
    </g>
    <g id="xtick_56">
     <g id="line2d_56">
      <g>
       <use xlink:href="#md133234c92" x="1184.4" y="768.96" style="stroke: #000000; stroke-width: 0.6"/>
      </g>
     </g>
    </g>
    <g id="xtick_57">
     <g id="line2d_57">
      <g>
       <use xlink:href="#md133234c92" x="1203" y="768.96" style="stroke: #000000; stroke-width: 0.6"/>
      </g>
     </g>
    </g>
    <g id="xtick_58">
     <g id="line2d_58">
      <g>
       <use xlink:href="#md133234c92" x="1221.6" y="768.96" style="stroke: #000000; stroke-width: 0.6"/>
      </g>
     </g>
    </g>
    <g id="xtick_59">
     <g id="line2d_59">
      <g>
       <use xlink:href="#md133234c92" x="1240.2" y="768.96" style="stroke: #000000; stroke-width: 0.6"/>
      </g>
     </g>
    </g>
    <g id="xtick_60">
     <g id="line2d_60">
      <g>
       <use xlink:href="#md133234c92" x="1258.8" y="768.96" style="stroke: #000000; stroke-width: 0.6"/>
      </g>
     </g>
    </g>
    <g id="xtick_61">
     <g id="line2d_61">
      <g>
       <use xlink:href="#md133234c92" x="1277.4" y="768.96" style="stroke: #000000; stroke-width: 0.6"/>
      </g>
     </g>
    </g>
    <g id="text_8">
     <!-- Iterations -->
     <g transform="translate(714.186719 797.236562) scale(0.1 -0.1)">
      <defs>
       <path id="DejaVuSans-49" d="M 628 4666 
L 1259 4666 
L 1259 0 
L 628 0 
L 628 4666 
z
" transform="scale(0.015625)"/>
       <path id="DejaVuSans-74" d="M 1172 4494 
L 1172 3500 
L 2356 3500 
L 2356 3053 
L 1172 3053 
L 1172 1153 
Q 1172 725 1289 603 
Q 1406 481 1766 481 
L 2356 481 
L 2356 0 
L 1766 0 
Q 1100 0 847 248 
Q 594 497 594 1153 
L 594 3053 
L 172 3053 
L 172 3500 
L 594 3500 
L 594 4494 
L 1172 4494 
z
" transform="scale(0.015625)"/>
       <path id="DejaVuSans-65" d="M 3597 1894 
L 3597 1613 
L 953 1613 
Q 991 1019 1311 708 
Q 1631 397 2203 397 
Q 2534 397 2845 478 
Q 3156 559 3463 722 
L 3463 178 
Q 3153 47 2828 -22 
Q 2503 -91 2169 -91 
Q 1331 -91 842 396 
Q 353 884 353 1716 
Q 353 2575 817 3079 
Q 1281 3584 2069 3584 
Q 2775 3584 3186 3129 
Q 3597 2675 3597 1894 
z
M 3022 2063 
Q 3016 2534 2758 2815 
Q 2500 3097 2075 3097 
Q 1594 3097 1305 2825 
Q 1016 2553 972 2059 
L 3022 2063 
z
" transform="scale(0.015625)"/>
       <path id="DejaVuSans-72" d="M 2631 2963 
Q 2534 3019 2420 3045 
Q 2306 3072 2169 3072 
Q 1681 3072 1420 2755 
Q 1159 2438 1159 1844 
L 1159 0 
L 581 0 
L 581 3500 
L 1159 3500 
L 1159 2956 
Q 1341 3275 1631 3429 
Q 1922 3584 2338 3584 
Q 2397 3584 2469 3576 
Q 2541 3569 2628 3553 
L 2631 2963 
z
" transform="scale(0.015625)"/>
       <path id="DejaVuSans-61" d="M 2194 1759 
Q 1497 1759 1228 1600 
Q 959 1441 959 1056 
Q 959 750 1161 570 
Q 1363 391 1709 391 
Q 2188 391 2477 730 
Q 2766 1069 2766 1631 
L 2766 1759 
L 2194 1759 
z
M 3341 1997 
L 3341 0 
L 2766 0 
L 2766 531 
Q 2569 213 2275 61 
Q 1981 -91 1556 -91 
Q 1019 -91 701 211 
Q 384 513 384 1019 
Q 384 1609 779 1909 
Q 1175 2209 1959 2209 
L 2766 2209 
L 2766 2266 
Q 2766 2663 2505 2880 
Q 2244 3097 1772 3097 
Q 1472 3097 1187 3025 
Q 903 2953 641 2809 
L 641 3341 
Q 956 3463 1253 3523 
Q 1550 3584 1831 3584 
Q 2591 3584 2966 3190 
Q 3341 2797 3341 1997 
z
" transform="scale(0.015625)"/>
       <path id="DejaVuSans-69" d="M 603 3500 
L 1178 3500 
L 1178 0 
L 603 0 
L 603 3500 
z
M 603 4863 
L 1178 4863 
L 1178 4134 
L 603 4134 
L 603 4863 
z
" transform="scale(0.015625)"/>
       <path id="DejaVuSans-6f" d="M 1959 3097 
Q 1497 3097 1228 2736 
Q 959 2375 959 1747 
Q 959 1119 1226 758 
Q 1494 397 1959 397 
Q 2419 397 2687 759 
Q 2956 1122 2956 1747 
Q 2956 2369 2687 2733 
Q 2419 3097 1959 3097 
z
M 1959 3584 
Q 2709 3584 3137 3096 
Q 3566 2609 3566 1747 
Q 3566 888 3137 398 
Q 2709 -91 1959 -91 
Q 1206 -91 779 398 
Q 353 888 353 1747 
Q 353 2609 779 3096 
Q 1206 3584 1959 3584 
z
" transform="scale(0.015625)"/>
       <path id="DejaVuSans-6e" d="M 3513 2113 
L 3513 0 
L 2938 0 
L 2938 2094 
Q 2938 2591 2744 2837 
Q 2550 3084 2163 3084 
Q 1697 3084 1428 2787 
Q 1159 2491 1159 1978 
L 1159 0 
L 581 0 
L 581 3500 
L 1159 3500 
L 1159 2956 
Q 1366 3272 1645 3428 
Q 1925 3584 2291 3584 
Q 2894 3584 3203 3211 
Q 3513 2838 3513 2113 
z
" transform="scale(0.015625)"/>
       <path id="DejaVuSans-73" d="M 2834 3397 
L 2834 2853 
Q 2591 2978 2328 3040 
Q 2066 3103 1784 3103 
Q 1356 3103 1142 2972 
Q 928 2841 928 2578 
Q 928 2378 1081 2264 
Q 1234 2150 1697 2047 
L 1894 2003 
Q 2506 1872 2764 1633 
Q 3022 1394 3022 966 
Q 3022 478 2636 193 
Q 2250 -91 1575 -91 
Q 1294 -91 989 -36 
Q 684 19 347 128 
L 347 722 
Q 666 556 975 473 
Q 1284 391 1588 391 
Q 1994 391 2212 530 
Q 2431 669 2431 922 
Q 2431 1156 2273 1281 
Q 2116 1406 1581 1522 
L 1381 1569 
Q 847 1681 609 1914 
Q 372 2147 372 2553 
Q 372 3047 722 3315 
Q 1072 3584 1716 3584 
Q 2034 3584 2315 3537 
Q 2597 3491 2834 3397 
z
" transform="scale(0.015625)"/>
      </defs>
      <use xlink:href="#DejaVuSans-49"/>
      <use xlink:href="#DejaVuSans-74" x="29.492188"/>
      <use xlink:href="#DejaVuSans-65" x="68.701172"/>
      <use xlink:href="#DejaVuSans-72" x="130.224609"/>
      <use xlink:href="#DejaVuSans-61" x="171.337891"/>
      <use xlink:href="#DejaVuSans-74" x="232.617188"/>
      <use xlink:href="#DejaVuSans-69" x="271.826172"/>
      <use xlink:href="#DejaVuSans-6f" x="299.609375"/>
      <use xlink:href="#DejaVuSans-6e" x="360.791016"/>
      <use xlink:href="#DejaVuSans-73" x="424.169922"/>
     </g>
    </g>
   </g>
   <g id="matplotlib.axis_2">
    <g id="ytick_1">
     <g id="line2d_62">
      <defs>
       <path id="m8bd5bb4177" d="M 0 0 
L -3.5 0 
" style="stroke: #000000; stroke-width: 0.8"/>
      </defs>
      <g>
       <use xlink:href="#m8bd5bb4177" x="180" y="661.682693" style="stroke: #000000; stroke-width: 0.8"/>
      </g>
     </g>
     <g id="text_9">
      <!-- 0.2 -->
      <g transform="translate(157.096875 665.481912) scale(0.1 -0.1)">
       <defs>
        <path id="DejaVuSans-2e" d="M 684 794 
L 1344 794 
L 1344 0 
L 684 0 
L 684 794 
z
" transform="scale(0.015625)"/>
       </defs>
       <use xlink:href="#DejaVuSans-30"/>
       <use xlink:href="#DejaVuSans-2e" x="63.623047"/>
       <use xlink:href="#DejaVuSans-32" x="95.410156"/>
      </g>
     </g>
    </g>
    <g id="ytick_2">
     <g id="line2d_63">
      <g>
       <use xlink:href="#m8bd5bb4177" x="180" y="521.742082" style="stroke: #000000; stroke-width: 0.8"/>
      </g>
     </g>
     <g id="text_10">
      <!-- 0.4 -->
      <g transform="translate(157.096875 525.5413) scale(0.1 -0.1)">
       <use xlink:href="#DejaVuSans-30"/>
       <use xlink:href="#DejaVuSans-2e" x="63.623047"/>
       <use xlink:href="#DejaVuSans-34" x="95.410156"/>
      </g>
     </g>
    </g>
    <g id="ytick_3">
     <g id="line2d_64">
      <g>
       <use xlink:href="#m8bd5bb4177" x="180" y="381.80147" style="stroke: #000000; stroke-width: 0.8"/>
      </g>
     </g>
     <g id="text_11">
      <!-- 0.6 -->
      <g transform="translate(157.096875 385.600689) scale(0.1 -0.1)">
       <use xlink:href="#DejaVuSans-30"/>
       <use xlink:href="#DejaVuSans-2e" x="63.623047"/>
       <use xlink:href="#DejaVuSans-36" x="95.410156"/>
      </g>
     </g>
    </g>
    <g id="ytick_4">
     <g id="line2d_65">
      <g>
       <use xlink:href="#m8bd5bb4177" x="180" y="241.860858" style="stroke: #000000; stroke-width: 0.8"/>
      </g>
     </g>
     <g id="text_12">
      <!-- 0.8 -->
      <g transform="translate(157.096875 245.660077) scale(0.1 -0.1)">
       <defs>
        <path id="DejaVuSans-38" d="M 2034 2216 
Q 1584 2216 1326 1975 
Q 1069 1734 1069 1313 
Q 1069 891 1326 650 
Q 1584 409 2034 409 
Q 2484 409 2743 651 
Q 3003 894 3003 1313 
Q 3003 1734 2745 1975 
Q 2488 2216 2034 2216 
z
M 1403 2484 
Q 997 2584 770 2862 
Q 544 3141 544 3541 
Q 544 4100 942 4425 
Q 1341 4750 2034 4750 
Q 2731 4750 3128 4425 
Q 3525 4100 3525 3541 
Q 3525 3141 3298 2862 
Q 3072 2584 2669 2484 
Q 3125 2378 3379 2068 
Q 3634 1759 3634 1313 
Q 3634 634 3220 271 
Q 2806 -91 2034 -91 
Q 1263 -91 848 271 
Q 434 634 434 1313 
Q 434 1759 690 2068 
Q 947 2378 1403 2484 
z
M 1172 3481 
Q 1172 3119 1398 2916 
Q 1625 2713 2034 2713 
Q 2441 2713 2670 2916 
Q 2900 3119 2900 3481 
Q 2900 3844 2670 4047 
Q 2441 4250 2034 4250 
Q 1625 4250 1398 4047 
Q 1172 3844 1172 3481 
z
" transform="scale(0.015625)"/>
       </defs>
       <use xlink:href="#DejaVuSans-30"/>
       <use xlink:href="#DejaVuSans-2e" x="63.623047"/>
       <use xlink:href="#DejaVuSans-38" x="95.410156"/>
      </g>
     </g>
    </g>
    <g id="text_13">
     <!-- Accuracy -->
     <g transform="translate(151.017188 459.148125) rotate(-90) scale(0.1 -0.1)">
      <defs>
       <path id="DejaVuSans-41" d="M 2188 4044 
L 1331 1722 
L 3047 1722 
L 2188 4044 
z
M 1831 4666 
L 2547 4666 
L 4325 0 
L 3669 0 
L 3244 1197 
L 1141 1197 
L 716 0 
L 50 0 
L 1831 4666 
z
" transform="scale(0.015625)"/>
       <path id="DejaVuSans-63" d="M 3122 3366 
L 3122 2828 
Q 2878 2963 2633 3030 
Q 2388 3097 2138 3097 
Q 1578 3097 1268 2742 
Q 959 2388 959 1747 
Q 959 1106 1268 751 
Q 1578 397 2138 397 
Q 2388 397 2633 464 
Q 2878 531 3122 666 
L 3122 134 
Q 2881 22 2623 -34 
Q 2366 -91 2075 -91 
Q 1284 -91 818 406 
Q 353 903 353 1747 
Q 353 2603 823 3093 
Q 1294 3584 2113 3584 
Q 2378 3584 2631 3529 
Q 2884 3475 3122 3366 
z
" transform="scale(0.015625)"/>
       <path id="DejaVuSans-75" d="M 544 1381 
L 544 3500 
L 1119 3500 
L 1119 1403 
Q 1119 906 1312 657 
Q 1506 409 1894 409 
Q 2359 409 2629 706 
Q 2900 1003 2900 1516 
L 2900 3500 
L 3475 3500 
L 3475 0 
L 2900 0 
L 2900 538 
Q 2691 219 2414 64 
Q 2138 -91 1772 -91 
Q 1169 -91 856 284 
Q 544 659 544 1381 
z
M 1991 3584 
L 1991 3584 
z
" transform="scale(0.015625)"/>
       <path id="DejaVuSans-79" d="M 2059 -325 
Q 1816 -950 1584 -1140 
Q 1353 -1331 966 -1331 
L 506 -1331 
L 506 -850 
L 844 -850 
Q 1081 -850 1212 -737 
Q 1344 -625 1503 -206 
L 1606 56 
L 191 3500 
L 800 3500 
L 1894 763 
L 2988 3500 
L 3597 3500 
L 2059 -325 
z
" transform="scale(0.015625)"/>
      </defs>
      <use xlink:href="#DejaVuSans-41"/>
      <use xlink:href="#DejaVuSans-63" x="66.658203"/>
      <use xlink:href="#DejaVuSans-63" x="121.638672"/>
      <use xlink:href="#DejaVuSans-75" x="176.619141"/>
      <use xlink:href="#DejaVuSans-72" x="239.998047"/>
      <use xlink:href="#DejaVuSans-61" x="281.111328"/>
      <use xlink:href="#DejaVuSans-63" x="342.390625"/>
      <use xlink:href="#DejaVuSans-79" x="397.371094"/>
     </g>
    </g>
   </g>
   <g id="line2d_66">
    <path d="M 180 734.696707 
L 180.372 560.167441 
L 180.744 503.06001 
L 181.116 502.150396 
L 181.488 457.031211 
L 181.86 387.678976 
L 182.232 406.839178 
L 182.976 325.405404 
L 183.348 401.463126 
L 183.72 313.452143 
L 184.092 315.259709 
L 184.464 296.554314 
L 185.208 309.113984 
L 185.58 300.321049 
L 185.952 295.691347 
L 186.324 279.913043 
L 186.696 285.918828 
L 187.068 276.286249 
L 187.812 280.157939 
L 188.184 259.470052 
L 188.556 291.423158 
L 188.928 283.143339 
L 189.3 282.455298 
L 189.672 279.469898 
L 190.044 278.187109 
L 190.416 244.356466 
L 190.788 239.820058 
L 191.16 237.837566 
L 191.532 261.056046 
L 191.904 268.846073 
L 192.276 266.082246 
L 193.02 281.685624 
L 193.392 260.834473 
L 193.764 274.688594 
L 194.136 241.196141 
L 194.508 243.878336 
L 194.88 240.601393 
L 195.252 228.298281 
L 195.624 238.898782 
L 195.996 240.30985 
L 196.368 221.196295 
L 196.74 224.811427 
L 197.112 260.333019 
L 197.484 244.729641 
L 197.856 258.128955 
L 198.228 238.059138 
L 198.6 264.904412 
L 198.972 274.770226 
L 199.344 235.167033 
L 199.716 229.98923 
L 200.088 222.86392 
L 200.46 234.362374 
L 200.832 230.304096 
L 201.204 251.085277 
L 201.576 259.598331 
L 202.32 224.21668 
L 202.692 233.347805 
L 203.064 248.706287 
L 203.436 234.700564 
L 203.808 234.60727 
L 204.18 223.925137 
L 204.552 222.140894 
L 204.924 212.834843 
L 205.296 213.674487 
L 205.668 229.126263 
L 206.04 214.409175 
L 206.412 214.584101 
L 206.784 205.417991 
L 207.156 212.554962 
L 207.9 203.878644 
L 208.272 209.476269 
L 208.644 230.73558 
L 209.016 213.324635 
L 209.388 219.656948 
L 209.76 206.082709 
L 210.132 205.88446 
L 210.504 201.732888 
L 210.876 226.362436 
L 211.248 211.645348 
L 211.62 213.721134 
L 211.992 208.181818 
L 212.364 232.134986 
L 212.736 203.330543 
L 213.48 224.111724 
L 213.852 208.636625 
L 214.224 211.085586 
L 214.596 206.549177 
L 214.968 207.99523 
L 215.34 210.071016 
L 215.712 219.272111 
L 216.084 220.193387 
L 216.456 202.980692 
L 216.828 200.834936 
L 217.2 219.73858 
L 217.572 217.569501 
L 217.944 203.260573 
L 218.316 197.383067 
L 218.688 197.033216 
L 219.06 205.896121 
L 219.432 203.132294 
L 219.804 203.703718 
L 220.176 196.85829 
L 220.548 197.406391 
L 220.92 196.298528 
L 221.292 207.692026 
L 221.664 208.811551 
L 222.036 201.114817 
L 222.408 209.382975 
L 222.78 195.330605 
L 223.152 193.826243 
L 223.524 202.4909 
L 223.896 214.44416 
L 224.268 202.945707 
L 224.64 199.91366 
L 225.012 219.225465 
L 225.384 211.715318 
L 225.756 193.849567 
L 226.128 195.29562 
L 226.5 212.06517 
L 226.872 198.257696 
L 227.244 197.301435 
L 227.616 197.60464 
L 227.988 192.473484 
L 228.36 198.980723 
L 228.732 200.368467 
L 229.104 197.429714 
L 229.476 197.861198 
L 229.848 197.977815 
L 230.22 192.788351 
L 230.592 195.353929 
L 230.964 209.184726 
L 231.336 193.73295 
L 231.708 197.826213 
L 232.452 209.872767 
L 232.824 194.036154 
L 233.196 199.307251 
L 233.568 191.762119 
L 233.94 203.563778 
L 234.312 209.581224 
L 234.684 194.047816 
L 235.056 204.216834 
L 235.428 187.645533 
L 235.8 187.785474 
L 236.172 192.741704 
L 236.544 195.22565 
L 236.916 198.572563 
L 237.288 191.995354 
L 237.66 202.211018 
L 238.032 201.266419 
L 239.148 182.817582 
L 239.52 183.785505 
L 239.892 195.179003 
L 240.264 185.173249 
L 240.636 190.980784 
L 241.008 185.348175 
L 241.38 186.117848 
L 241.752 193.488054 
L 242.124 189.802951 
L 242.496 190.152802 
L 242.868 201.33639 
L 243.24 200.601701 
L 243.612 189.558055 
L 244.356 196.590071 
L 244.728 190.117817 
L 245.1 188.356898 
L 245.472 203.155618 
L 246.216 184.29862 
L 246.588 188.671764 
L 246.96 203.458822 
L 247.332 189.371467 
L 247.704 185.639718 
L 248.076 183.657226 
L 248.448 186.12951 
L 248.82 186.479361 
L 249.192 185.686365 
L 249.564 193.313128 
L 249.936 192.858321 
L 250.308 188.123664 
L 250.68 189.52307 
L 251.052 194.129448 
L 251.424 185.604733 
L 251.796 182.689303 
L 252.168 189.383129 
L 252.54 179.0042 
L 253.284 184.858383 
L 253.656 192.216926 
L 254.028 181.884645 
L 254.4 183.470638 
L 254.772 185.884614 
L 255.144 185.196572 
L 255.516 197.278112 
L 255.888 184.193665 
L 256.26 189.371467 
L 256.632 184.648472 
L 257.004 181.499808 
L 257.376 194.444315 
L 257.748 180.473577 
L 258.12 187.097432 
L 258.492 180.986692 
L 258.864 183.458977 
L 259.236 191.132387 
L 259.608 192.951615 
L 259.98 192.893306 
L 260.352 182.409422 
L 260.724 186.700934 
L 261.096 184.415237 
L 261.468 179.9488 
L 261.84 181.336544 
L 262.212 183.948769 
L 262.956 177.84969 
L 263.328 178.18788 
L 263.7 183.132448 
L 264.072 183.575594 
L 264.444 182.339452 
L 264.816 178.502747 
L 265.188 177.534824 
L 265.932 181.604763 
L 266.304 182.106217 
L 266.676 178.11791 
L 267.048 181.721381 
L 267.42 196.146925 
L 268.164 181.523131 
L 268.536 182.899214 
L 268.908 187.050786 
L 269.28 188.706749 
L 269.652 185.698026 
L 270.024 184.660133 
L 270.396 182.421084 
L 270.768 182.082894 
L 271.14 182.922538 
L 271.512 175.167495 
L 271.884 176.846783 
L 272.256 179.587286 
L 272.628 192.286897 
L 273 178.561055 
L 291.6 177.768058 
L 310.2 171.657318 
L 328.8 169.103402 
L 347.4 174.619395 
L 366 164.345421 
L 384.6 166.199634 
L 403.2 164.077202 
L 421.8 160.567025 
L 440.4 169.010108 
L 459 158.654503 
L 477.6 158.467916 
L 496.2 157.896491 
L 514.8 153.418392 
L 533.4 150.677888 
L 552 152.625395 
L 570.6 157.091833 
L 589.2 154.794475 
L 607.8 149.87323 
L 626.4 146.712904 
L 645 151.109372 
L 663.6 150.246405 
L 682.2 145.430115 
L 700.8 147.459254 
L 719.4 144.858691 
L 738 150.922784 
L 756.6 145.488424 
L 775.2 144.870353 
L 793.8 143.459285 
L 812.4 140.84706 
L 831 141.418484 
L 849.6 147.179373 
L 868.2 145.010293 
L 886.8 146.001539 
L 905.4 143.90243 
L 924 141.616734 
L 942.6 142.503024 
L 961.2 139.307714 
L 979.8 139.610918 
L 998.4 141.558425 
L 1035.6 141.779998 
L 1054.2 136.22902 
L 1072.8 138.3981 
L 1091.4 145.476762 
L 1110 137.535132 
L 1128.6 138.071571 
L 1147.2 136.042433 
L 1165.8 137.675073 
L 1184.4 138.094895 
L 1203 133.92 
L 1221.6 137.966616 
L 1240.2 134.73632 
L 1258.8 138.911215 
L 1277.4 136.742136 
L 1277.4 136.742136 
" clip-path="url(#p229bd7aae3)" style="fill: none; stroke: #1f77b4; stroke-width: 1.5; stroke-linecap: square"/>
   </g>
   <g id="line2d_67">
    <path d="M 180 738.72 
L 180.372 560.015839 
L 180.744 502.430277 
L 181.116 504.179535 
L 181.86 390.127936 
L 182.232 406.570958 
L 182.976 328.833949 
L 183.348 400.973334 
L 183.72 315.819472 
L 184.092 313.930273 
L 184.464 294.058707 
L 184.836 305.953659 
L 185.208 307.073183 
L 185.58 297.627192 
L 185.952 295.668024 
L 186.324 274.536991 
L 186.696 279.644824 
L 187.068 269.63907 
L 187.812 275.236694 
L 188.184 256.624593 
L 188.556 296.577638 
L 188.928 280.414497 
L 189.3 283.913012 
L 189.672 283.773072 
L 190.044 275.166724 
L 190.416 245.149463 
L 190.788 241.790888 
L 191.16 235.493561 
L 191.532 263.761564 
L 191.904 268.239664 
L 192.276 266.140555 
L 192.648 275.796457 
L 193.02 288.531052 
L 193.392 261.872366 
L 193.764 276.286249 
L 194.136 237.66264 
L 194.508 246.408928 
L 194.88 240.04163 
L 195.252 226.537361 
L 195.624 238.222403 
L 195.996 237.382759 
L 196.368 218.490776 
L 196.74 223.80852 
L 197.112 261.662455 
L 197.484 246.268988 
L 197.856 255.645009 
L 198.228 236.123293 
L 198.6 262.642039 
L 198.972 270.408743 
L 199.344 233.534392 
L 200.088 222.758965 
L 200.46 231.085431 
L 200.832 228.146678 
L 201.204 247.248572 
L 201.576 258.023999 
L 202.32 219.680271 
L 202.692 229.196233 
L 203.064 246.408928 
L 203.436 228.49653 
L 203.808 233.254511 
L 204.18 222.968876 
L 204.552 220.170064 
L 204.924 211.003954 
L 205.296 210.933983 
L 205.668 225.627747 
L 206.04 211.423775 
L 206.412 210.304251 
L 206.784 202.047754 
L 207.156 206.315943 
L 207.528 204.146864 
L 207.9 200.718319 
L 208.272 207.715349 
L 208.644 229.336174 
L 209.016 209.394637 
L 209.388 218.420806 
L 209.76 204.566685 
L 210.132 200.088586 
L 210.504 199.528823 
L 210.876 227.097124 
L 211.248 209.814458 
L 211.62 211.983538 
L 211.992 204.846567 
L 212.364 227.097124 
L 212.736 199.738734 
L 213.48 221.359559 
L 213.852 204.916537 
L 214.224 211.423775 
L 214.596 206.036062 
L 214.968 205.266388 
L 215.34 207.015646 
L 215.712 214.362528 
L 216.084 214.642409 
L 216.456 198.549239 
L 216.828 199.878675 
L 217.2 218.980568 
L 217.572 213.522885 
L 217.944 198.82912 
L 218.316 194.630902 
L 218.688 194.770843 
L 219.06 203.517131 
L 219.432 202.187695 
L 219.804 199.458853 
L 220.176 193.091555 
L 220.548 194.001169 
L 220.92 189.52307 
L 221.292 202.887398 
L 221.664 203.30722 
L 222.036 198.129417 
L 222.408 210.374221 
L 222.78 192.531793 
L 223.152 190.432684 
L 223.524 197.919506 
L 223.896 210.654102 
L 224.268 199.738734 
L 224.64 198.969061 
L 225.012 220.869767 
L 225.384 209.954399 
L 225.756 191.202357 
L 226.128 190.852505 
L 226.5 205.826151 
L 226.872 196.170249 
L 227.616 193.091555 
L 227.988 189.033278 
L 228.732 198.479269 
L 229.104 194.14111 
L 229.476 193.371437 
L 229.848 194.490961 
L 230.22 188.893337 
L 230.592 189.942892 
L 230.964 203.23725 
L 231.336 189.942892 
L 231.708 191.97203 
L 232.452 204.986507 
L 232.824 187.633871 
L 233.196 193.931199 
L 233.568 186.094525 
L 234.312 204.146864 
L 234.684 188.823367 
L 235.056 198.82912 
L 235.428 181.826336 
L 235.8 181.336544 
L 236.544 192.181941 
L 236.916 193.231496 
L 237.288 185.744673 
L 237.66 196.310189 
L 238.032 196.38016 
L 239.148 176.298682 
L 239.52 178.607702 
L 239.892 193.231496 
L 240.264 182.036247 
L 240.636 186.584317 
L 241.008 182.526039 
L 241.38 184.485208 
L 241.752 193.091555 
L 242.124 185.814643 
L 242.496 186.934168 
L 242.868 198.899091 
L 243.24 198.75915 
L 243.612 185.394822 
L 243.984 191.062416 
L 244.356 190.922476 
L 244.728 186.934168 
L 245.1 187.633871 
L 245.472 202.537547 
L 246.216 182.246158 
L 246.588 187.913753 
L 246.96 197.569655 
L 247.332 187.703842 
L 247.704 182.945861 
L 248.076 182.316128 
L 248.448 182.316128 
L 248.82 183.295712 
L 249.192 182.596009 
L 249.564 190.992446 
L 249.936 190.782535 
L 250.308 184.695119 
L 250.68 186.514347 
L 251.052 193.091555 
L 251.424 185.184911 
L 251.796 180.077078 
L 252.168 185.184911 
L 252.54 175.738919 
L 252.912 180.217019 
L 253.284 181.826336 
L 253.656 190.992446 
L 254.028 176.018801 
L 254.4 177.838029 
L 254.772 181.056663 
L 255.144 177.348236 
L 255.516 193.021585 
L 255.888 180.35696 
L 256.26 182.386098 
L 256.632 179.797197 
L 257.004 175.94883 
L 257.376 189.383129 
L 257.748 177.348236 
L 258.12 182.526039 
L 258.492 178.537732 
L 258.864 181.756366 
L 259.236 191.552209 
L 259.608 191.482238 
L 259.98 190.502654 
L 260.352 178.25785 
L 260.724 184.345267 
L 261.096 183.435653 
L 261.468 176.088771 
L 261.84 180.4969 
L 262.212 181.126633 
L 262.584 179.167464 
L 262.956 174.969246 
L 263.328 176.018801 
L 263.7 182.176188 
L 264.072 177.348236 
L 264.444 178.11791 
L 264.816 172.520285 
L 265.56 175.109187 
L 265.932 177.698088 
L 266.304 179.377375 
L 266.676 174.479454 
L 267.048 177.208296 
L 267.42 192.391852 
L 268.164 175.039216 
L 268.536 176.788474 
L 268.908 182.66598 
L 269.28 186.514347 
L 269.652 182.945861 
L 270.024 182.386098 
L 270.396 177.628118 
L 270.768 177.698088 
L 271.14 180.776781 
L 271.512 170.001354 
L 272.256 174.549424 
L 272.628 187.983723 
L 273 175.738919 
L 291.6 173.359929 
L 310.2 169.651503 
L 328.8 167.202542 
L 347.4 172.310374 
L 366 162.934353 
L 384.6 165.173403 
L 403.2 163.634057 
L 421.8 160.205512 
L 440.4 166.013047 
L 459 157.266759 
L 477.6 157.056848 
L 496.2 156.637026 
L 514.8 154.467946 
L 533.4 149.779936 
L 552 153.838214 
L 570.6 155.16765 
L 589.2 151.039401 
L 626.4 145.581718 
L 645 150.969431 
L 663.6 150.479639 
L 682.2 145.021955 
L 700.8 147.820767 
L 719.4 144.462193 
L 738 151.249312 
L 756.6 146.631272 
L 775.2 144.392222 
L 793.8 144.532163 
L 812.4 141.873291 
L 831 144.462193 
L 849.6 147.330975 
L 868.2 144.602133 
L 886.8 148.730381 
L 905.4 143.90243 
L 924 143.412638 
L 942.6 143.692519 
L 961.2 138.794598 
L 979.8 140.893707 
L 998.4 142.712935 
L 1017 144.672104 
L 1035.6 142.083202 
L 1054.2 137.185281 
L 1072.8 139.704212 
L 1091.4 146.911153 
L 1110 140.124034 
L 1128.6 137.255251 
L 1147.2 137.255251 
L 1165.8 138.164865 
L 1184.4 138.444746 
L 1203 135.855845 
L 1221.6 139.494301 
L 1240.2 137.255251 
L 1258.8 141.663381 
L 1277.4 138.934539 
L 1277.4 138.934539 
" clip-path="url(#p229bd7aae3)" style="fill: none; stroke: #ff7f0e; stroke-width: 1.5; stroke-linecap: square"/>
   </g>
   <g id="patch_3">
    <path d="M 180 768.96 
L 180 103.68 
" style="fill: none; stroke: #000000; stroke-width: 0.8; stroke-linejoin: miter; stroke-linecap: square"/>
   </g>
   <g id="patch_4">
    <path d="M 1296 768.96 
L 1296 103.68 
" style="fill: none; stroke: #000000; stroke-width: 0.8; stroke-linejoin: miter; stroke-linecap: square"/>
   </g>
   <g id="patch_5">
    <path d="M 180 768.96 
L 1296 768.96 
" style="fill: none; stroke: #000000; stroke-width: 0.8; stroke-linejoin: miter; stroke-linecap: square"/>
   </g>
   <g id="patch_6">
    <path d="M 180 103.68 
L 1296 103.68 
" style="fill: none; stroke: #000000; stroke-width: 0.8; stroke-linejoin: miter; stroke-linecap: square"/>
   </g>
   <g id="text_14">
    <!-- Training and Testing Accuracy (Learning Rate: 0.001) -->
    <g transform="translate(579.428437 97.68) scale(0.12 -0.12)">
     <defs>
      <path id="DejaVuSans-54" d="M -19 4666 
L 3928 4666 
L 3928 4134 
L 2272 4134 
L 2272 0 
L 1638 0 
L 1638 4134 
L -19 4134 
L -19 4666 
z
" transform="scale(0.015625)"/>
      <path id="DejaVuSans-67" d="M 2906 1791 
Q 2906 2416 2648 2759 
Q 2391 3103 1925 3103 
Q 1463 3103 1205 2759 
Q 947 2416 947 1791 
Q 947 1169 1205 825 
Q 1463 481 1925 481 
Q 2391 481 2648 825 
Q 2906 1169 2906 1791 
z
M 3481 434 
Q 3481 -459 3084 -895 
Q 2688 -1331 1869 -1331 
Q 1566 -1331 1297 -1286 
Q 1028 -1241 775 -1147 
L 775 -588 
Q 1028 -725 1275 -790 
Q 1522 -856 1778 -856 
Q 2344 -856 2625 -561 
Q 2906 -266 2906 331 
L 2906 616 
Q 2728 306 2450 153 
Q 2172 0 1784 0 
Q 1141 0 747 490 
Q 353 981 353 1791 
Q 353 2603 747 3093 
Q 1141 3584 1784 3584 
Q 2172 3584 2450 3431 
Q 2728 3278 2906 2969 
L 2906 3500 
L 3481 3500 
L 3481 434 
z
" transform="scale(0.015625)"/>
      <path id="DejaVuSans-20" transform="scale(0.015625)"/>
      <path id="DejaVuSans-64" d="M 2906 2969 
L 2906 4863 
L 3481 4863 
L 3481 0 
L 2906 0 
L 2906 525 
Q 2725 213 2448 61 
Q 2172 -91 1784 -91 
Q 1150 -91 751 415 
Q 353 922 353 1747 
Q 353 2572 751 3078 
Q 1150 3584 1784 3584 
Q 2172 3584 2448 3432 
Q 2725 3281 2906 2969 
z
M 947 1747 
Q 947 1113 1208 752 
Q 1469 391 1925 391 
Q 2381 391 2643 752 
Q 2906 1113 2906 1747 
Q 2906 2381 2643 2742 
Q 2381 3103 1925 3103 
Q 1469 3103 1208 2742 
Q 947 2381 947 1747 
z
" transform="scale(0.015625)"/>
      <path id="DejaVuSans-28" d="M 1984 4856 
Q 1566 4138 1362 3434 
Q 1159 2731 1159 2009 
Q 1159 1288 1364 580 
Q 1569 -128 1984 -844 
L 1484 -844 
Q 1016 -109 783 600 
Q 550 1309 550 2009 
Q 550 2706 781 3412 
Q 1013 4119 1484 4856 
L 1984 4856 
z
" transform="scale(0.015625)"/>
      <path id="DejaVuSans-4c" d="M 628 4666 
L 1259 4666 
L 1259 531 
L 3531 531 
L 3531 0 
L 628 0 
L 628 4666 
z
" transform="scale(0.015625)"/>
      <path id="DejaVuSans-52" d="M 2841 2188 
Q 3044 2119 3236 1894 
Q 3428 1669 3622 1275 
L 4263 0 
L 3584 0 
L 2988 1197 
Q 2756 1666 2539 1819 
Q 2322 1972 1947 1972 
L 1259 1972 
L 1259 0 
L 628 0 
L 628 4666 
L 2053 4666 
Q 2853 4666 3247 4331 
Q 3641 3997 3641 3322 
Q 3641 2881 3436 2590 
Q 3231 2300 2841 2188 
z
M 1259 4147 
L 1259 2491 
L 2053 2491 
Q 2509 2491 2742 2702 
Q 2975 2913 2975 3322 
Q 2975 3731 2742 3939 
Q 2509 4147 2053 4147 
L 1259 4147 
z
" transform="scale(0.015625)"/>
      <path id="DejaVuSans-3a" d="M 750 794 
L 1409 794 
L 1409 0 
L 750 0 
L 750 794 
z
M 750 3309 
L 1409 3309 
L 1409 2516 
L 750 2516 
L 750 3309 
z
" transform="scale(0.015625)"/>
      <path id="DejaVuSans-29" d="M 513 4856 
L 1013 4856 
Q 1481 4119 1714 3412 
Q 1947 2706 1947 2009 
Q 1947 1309 1714 600 
Q 1481 -109 1013 -844 
L 513 -844 
Q 928 -128 1133 580 
Q 1338 1288 1338 2009 
Q 1338 2731 1133 3434 
Q 928 4138 513 4856 
z
" transform="scale(0.015625)"/>
     </defs>
     <use xlink:href="#DejaVuSans-54"/>
     <use xlink:href="#DejaVuSans-72" x="46.333984"/>
     <use xlink:href="#DejaVuSans-61" x="87.447266"/>
     <use xlink:href="#DejaVuSans-69" x="148.726562"/>
     <use xlink:href="#DejaVuSans-6e" x="176.509766"/>
     <use xlink:href="#DejaVuSans-69" x="239.888672"/>
     <use xlink:href="#DejaVuSans-6e" x="267.671875"/>
     <use xlink:href="#DejaVuSans-67" x="331.050781"/>
     <use xlink:href="#DejaVuSans-20" x="394.527344"/>
     <use xlink:href="#DejaVuSans-61" x="426.314453"/>
     <use xlink:href="#DejaVuSans-6e" x="487.59375"/>
     <use xlink:href="#DejaVuSans-64" x="550.972656"/>
     <use xlink:href="#DejaVuSans-20" x="614.449219"/>
     <use xlink:href="#DejaVuSans-54" x="646.236328"/>
     <use xlink:href="#DejaVuSans-65" x="690.320312"/>
     <use xlink:href="#DejaVuSans-73" x="751.84375"/>
     <use xlink:href="#DejaVuSans-74" x="803.943359"/>
     <use xlink:href="#DejaVuSans-69" x="843.152344"/>
     <use xlink:href="#DejaVuSans-6e" x="870.935547"/>
     <use xlink:href="#DejaVuSans-67" x="934.314453"/>
     <use xlink:href="#DejaVuSans-20" x="997.791016"/>
     <use xlink:href="#DejaVuSans-41" x="1029.578125"/>
     <use xlink:href="#DejaVuSans-63" x="1096.236328"/>
     <use xlink:href="#DejaVuSans-63" x="1151.216797"/>
     <use xlink:href="#DejaVuSans-75" x="1206.197266"/>
     <use xlink:href="#DejaVuSans-72" x="1269.576172"/>
     <use xlink:href="#DejaVuSans-61" x="1310.689453"/>
     <use xlink:href="#DejaVuSans-63" x="1371.96875"/>
     <use xlink:href="#DejaVuSans-79" x="1426.949219"/>
     <use xlink:href="#DejaVuSans-20" x="1486.128906"/>
     <use xlink:href="#DejaVuSans-28" x="1517.916016"/>
     <use xlink:href="#DejaVuSans-4c" x="1556.929688"/>
     <use xlink:href="#DejaVuSans-65" x="1610.892578"/>
     <use xlink:href="#DejaVuSans-61" x="1672.416016"/>
     <use xlink:href="#DejaVuSans-72" x="1733.695312"/>
     <use xlink:href="#DejaVuSans-6e" x="1773.058594"/>
     <use xlink:href="#DejaVuSans-69" x="1836.4375"/>
     <use xlink:href="#DejaVuSans-6e" x="1864.220703"/>
     <use xlink:href="#DejaVuSans-67" x="1927.599609"/>
     <use xlink:href="#DejaVuSans-20" x="1991.076172"/>
     <use xlink:href="#DejaVuSans-52" x="2022.863281"/>
     <use xlink:href="#DejaVuSans-61" x="2090.095703"/>
     <use xlink:href="#DejaVuSans-74" x="2151.375"/>
     <use xlink:href="#DejaVuSans-65" x="2190.583984"/>
     <use xlink:href="#DejaVuSans-3a" x="2252.107422"/>
     <use xlink:href="#DejaVuSans-20" x="2285.798828"/>
     <use xlink:href="#DejaVuSans-30" x="2317.585938"/>
     <use xlink:href="#DejaVuSans-2e" x="2381.208984"/>
     <use xlink:href="#DejaVuSans-30" x="2412.996094"/>
     <use xlink:href="#DejaVuSans-30" x="2476.619141"/>
     <use xlink:href="#DejaVuSans-31" x="2540.242188"/>
     <use xlink:href="#DejaVuSans-29" x="2603.865234"/>
    </g>
   </g>
   <g id="legend_1">
    <g id="patch_7">
     <path d="M 187 141.03625 
L 307.285937 141.03625 
Q 309.285937 141.03625 309.285937 139.03625 
L 309.285937 110.68 
Q 309.285937 108.68 307.285937 108.68 
L 187 108.68 
Q 185 108.68 185 110.68 
L 185 139.03625 
Q 185 141.03625 187 141.03625 
z
" style="fill: #ffffff; opacity: 0.8; stroke: #cccccc; stroke-linejoin: miter"/>
    </g>
    <g id="line2d_68">
     <path d="M 189 116.778437 
L 199 116.778437 
L 209 116.778437 
" style="fill: none; stroke: #1f77b4; stroke-width: 1.5; stroke-linecap: square"/>
    </g>
    <g id="text_15">
     <!-- Training Accuracy -->
     <g transform="translate(217 120.278437) scale(0.1 -0.1)">
      <use xlink:href="#DejaVuSans-54"/>
      <use xlink:href="#DejaVuSans-72" x="46.333984"/>
      <use xlink:href="#DejaVuSans-61" x="87.447266"/>
      <use xlink:href="#DejaVuSans-69" x="148.726562"/>
      <use xlink:href="#DejaVuSans-6e" x="176.509766"/>
      <use xlink:href="#DejaVuSans-69" x="239.888672"/>
      <use xlink:href="#DejaVuSans-6e" x="267.671875"/>
      <use xlink:href="#DejaVuSans-67" x="331.050781"/>
      <use xlink:href="#DejaVuSans-20" x="394.527344"/>
      <use xlink:href="#DejaVuSans-41" x="426.314453"/>
      <use xlink:href="#DejaVuSans-63" x="492.972656"/>
      <use xlink:href="#DejaVuSans-63" x="547.953125"/>
      <use xlink:href="#DejaVuSans-75" x="602.933594"/>
      <use xlink:href="#DejaVuSans-72" x="666.3125"/>
      <use xlink:href="#DejaVuSans-61" x="707.425781"/>
      <use xlink:href="#DejaVuSans-63" x="768.705078"/>
      <use xlink:href="#DejaVuSans-79" x="823.685547"/>
     </g>
    </g>
    <g id="line2d_69">
     <path d="M 189 131.456563 
L 199 131.456563 
L 209 131.456563 
" style="fill: none; stroke: #ff7f0e; stroke-width: 1.5; stroke-linecap: square"/>
    </g>
    <g id="text_16">
     <!-- Testing Accuracy -->
     <g transform="translate(217 134.956563) scale(0.1 -0.1)">
      <use xlink:href="#DejaVuSans-54"/>
      <use xlink:href="#DejaVuSans-65" x="44.083984"/>
      <use xlink:href="#DejaVuSans-73" x="105.607422"/>
      <use xlink:href="#DejaVuSans-74" x="157.707031"/>
      <use xlink:href="#DejaVuSans-69" x="196.916016"/>
      <use xlink:href="#DejaVuSans-6e" x="224.699219"/>
      <use xlink:href="#DejaVuSans-67" x="288.078125"/>
      <use xlink:href="#DejaVuSans-20" x="351.554688"/>
      <use xlink:href="#DejaVuSans-41" x="383.341797"/>
      <use xlink:href="#DejaVuSans-63" x="450"/>
      <use xlink:href="#DejaVuSans-63" x="504.980469"/>
      <use xlink:href="#DejaVuSans-75" x="559.960938"/>
      <use xlink:href="#DejaVuSans-72" x="623.339844"/>
      <use xlink:href="#DejaVuSans-61" x="664.453125"/>
      <use xlink:href="#DejaVuSans-63" x="725.732422"/>
      <use xlink:href="#DejaVuSans-79" x="780.712891"/>
     </g>
    </g>
   </g>
  </g>
 </g>
 <defs>
  <clipPath id="p229bd7aae3">
   <rect x="180" y="103.68" width="1116" height="665.28"/>
  </clipPath>
 </defs>
</svg>
