<?xml version="1.0" encoding="utf-8" standalone="no"?>
<!DOCTYPE svg PUBLIC "-//W3C//DTD SVG 1.1//EN"
  "http://www.w3.org/Graphics/SVG/1.1/DTD/svg11.dtd">
<svg xmlns:xlink="http://www.w3.org/1999/xlink" width="720pt" height="432pt" viewBox="0 0 720 432" xmlns="http://www.w3.org/2000/svg" version="1.1">
 <metadata>
  <rdf:RDF xmlns:dc="http://purl.org/dc/elements/1.1/" xmlns:cc="http://creativecommons.org/ns#" xmlns:rdf="http://www.w3.org/1999/02/22-rdf-syntax-ns#">
   <cc:Work>
    <dc:type rdf:resource="http://purl.org/dc/dcmitype/StillImage"/>
    <dc:date>2024-05-08T21:18:18.328012</dc:date>
    <dc:format>image/svg+xml</dc:format>
    <dc:creator>
     <cc:Agent>
      <dc:title>Matplotlib v3.6.2, https://matplotlib.org/</dc:title>
     </cc:Agent>
    </dc:creator>
   </cc:Work>
  </rdf:RDF>
 </metadata>
 <defs>
  <style type="text/css">*{stroke-linejoin: round; stroke-linecap: butt}</style>
 </defs>
 <g id="figure_1">
  <g id="patch_1">
   <path d="M 0 432 
L 720 432 
L 720 0 
L 0 0 
z
" style="fill: #ffffff"/>
  </g>
  <g id="axes_1">
   <g id="patch_2">
    <path d="M 90 384.48 
L 648 384.48 
L 648 51.84 
L 90 51.84 
z
" style="fill: #ffffff"/>
   </g>
   <g id="matplotlib.axis_1">
    <g id="xtick_1">
     <g id="line2d_1">
      <defs>
       <path id="ma0bd46af16" d="M 0 0 
L 0 3.5 
" style="stroke: #000000; stroke-width: 0.8"/>
      </defs>
      <g>
       <use xlink:href="#ma0bd46af16" x="115.363636" y="384.48" style="stroke: #000000; stroke-width: 0.8"/>
      </g>
     </g>
     <g id="text_1">
      <!-- 0 -->
      <g transform="translate(112.182386 399.078438) scale(0.1 -0.1)">
       <defs>
        <path id="DejaVuSans-30" d="M 2034 4250 
Q 1547 4250 1301 3770 
Q 1056 3291 1056 2328 
Q 1056 1369 1301 889 
Q 1547 409 2034 409 
Q 2525 409 2770 889 
Q 3016 1369 3016 2328 
Q 3016 3291 2770 3770 
Q 2525 4250 2034 4250 
z
M 2034 4750 
Q 2819 4750 3233 4129 
Q 3647 3509 3647 2328 
Q 3647 1150 3233 529 
Q 2819 -91 2034 -91 
Q 1250 -91 836 529 
Q 422 1150 422 2328 
Q 422 3509 836 4129 
Q 1250 4750 2034 4750 
z
" transform="scale(0.015625)"/>
       </defs>
       <use xlink:href="#DejaVuSans-30"/>
      </g>
     </g>
    </g>
    <g id="xtick_2">
     <g id="line2d_2">
      <g>
       <use xlink:href="#ma0bd46af16" x="200.050235" y="384.48" style="stroke: #000000; stroke-width: 0.8"/>
      </g>
     </g>
     <g id="text_2">
      <!-- 10000 -->
      <g transform="translate(184.143985 399.078438) scale(0.1 -0.1)">
       <defs>
        <path id="DejaVuSans-31" d="M 794 531 
L 1825 531 
L 1825 4091 
L 703 3866 
L 703 4441 
L 1819 4666 
L 2450 4666 
L 2450 531 
L 3481 531 
L 3481 0 
L 794 0 
L 794 531 
z
" transform="scale(0.015625)"/>
       </defs>
       <use xlink:href="#DejaVuSans-31"/>
       <use xlink:href="#DejaVuSans-30" x="63.623047"/>
       <use xlink:href="#DejaVuSans-30" x="127.246094"/>
       <use xlink:href="#DejaVuSans-30" x="190.869141"/>
       <use xlink:href="#DejaVuSans-30" x="254.492188"/>
      </g>
     </g>
    </g>
    <g id="xtick_3">
     <g id="line2d_3">
      <g>
       <use xlink:href="#ma0bd46af16" x="284.736834" y="384.48" style="stroke: #000000; stroke-width: 0.8"/>
      </g>
     </g>
     <g id="text_3">
      <!-- 20000 -->
      <g transform="translate(268.830584 399.078438) scale(0.1 -0.1)">
       <defs>
        <path id="DejaVuSans-32" d="M 1228 531 
L 3431 531 
L 3431 0 
L 469 0 
L 469 531 
Q 828 903 1448 1529 
Q 2069 2156 2228 2338 
Q 2531 2678 2651 2914 
Q 2772 3150 2772 3378 
Q 2772 3750 2511 3984 
Q 2250 4219 1831 4219 
Q 1534 4219 1204 4116 
Q 875 4013 500 3803 
L 500 4441 
Q 881 4594 1212 4672 
Q 1544 4750 1819 4750 
Q 2544 4750 2975 4387 
Q 3406 4025 3406 3419 
Q 3406 3131 3298 2873 
Q 3191 2616 2906 2266 
Q 2828 2175 2409 1742 
Q 1991 1309 1228 531 
z
" transform="scale(0.015625)"/>
       </defs>
       <use xlink:href="#DejaVuSans-32"/>
       <use xlink:href="#DejaVuSans-30" x="63.623047"/>
       <use xlink:href="#DejaVuSans-30" x="127.246094"/>
       <use xlink:href="#DejaVuSans-30" x="190.869141"/>
       <use xlink:href="#DejaVuSans-30" x="254.492188"/>
      </g>
     </g>
    </g>
    <g id="xtick_4">
     <g id="line2d_4">
      <g>
       <use xlink:href="#ma0bd46af16" x="369.423433" y="384.48" style="stroke: #000000; stroke-width: 0.8"/>
      </g>
     </g>
     <g id="text_4">
      <!-- 30000 -->
      <g transform="translate(353.517183 399.078438) scale(0.1 -0.1)">
       <defs>
        <path id="DejaVuSans-33" d="M 2597 2516 
Q 3050 2419 3304 2112 
Q 3559 1806 3559 1356 
Q 3559 666 3084 287 
Q 2609 -91 1734 -91 
Q 1441 -91 1130 -33 
Q 819 25 488 141 
L 488 750 
Q 750 597 1062 519 
Q 1375 441 1716 441 
Q 2309 441 2620 675 
Q 2931 909 2931 1356 
Q 2931 1769 2642 2001 
Q 2353 2234 1838 2234 
L 1294 2234 
L 1294 2753 
L 1863 2753 
Q 2328 2753 2575 2939 
Q 2822 3125 2822 3475 
Q 2822 3834 2567 4026 
Q 2313 4219 1838 4219 
Q 1578 4219 1281 4162 
Q 984 4106 628 3988 
L 628 4550 
Q 988 4650 1302 4700 
Q 1616 4750 1894 4750 
Q 2613 4750 3031 4423 
Q 3450 4097 3450 3541 
Q 3450 3153 3228 2886 
Q 3006 2619 2597 2516 
z
" transform="scale(0.015625)"/>
       </defs>
       <use xlink:href="#DejaVuSans-33"/>
       <use xlink:href="#DejaVuSans-30" x="63.623047"/>
       <use xlink:href="#DejaVuSans-30" x="127.246094"/>
       <use xlink:href="#DejaVuSans-30" x="190.869141"/>
       <use xlink:href="#DejaVuSans-30" x="254.492188"/>
      </g>
     </g>
    </g>
    <g id="xtick_5">
     <g id="line2d_5">
      <g>
       <use xlink:href="#ma0bd46af16" x="454.110032" y="384.48" style="stroke: #000000; stroke-width: 0.8"/>
      </g>
     </g>
     <g id="text_5">
      <!-- 40000 -->
      <g transform="translate(438.203782 399.078438) scale(0.1 -0.1)">
       <defs>
        <path id="DejaVuSans-34" d="M 2419 4116 
L 825 1625 
L 2419 1625 
L 2419 4116 
z
M 2253 4666 
L 3047 4666 
L 3047 1625 
L 3713 1625 
L 3713 1100 
L 3047 1100 
L 3047 0 
L 2419 0 
L 2419 1100 
L 313 1100 
L 313 1709 
L 2253 4666 
z
" transform="scale(0.015625)"/>
       </defs>
       <use xlink:href="#DejaVuSans-34"/>
       <use xlink:href="#DejaVuSans-30" x="63.623047"/>
       <use xlink:href="#DejaVuSans-30" x="127.246094"/>
       <use xlink:href="#DejaVuSans-30" x="190.869141"/>
       <use xlink:href="#DejaVuSans-30" x="254.492188"/>
      </g>
     </g>
    </g>
    <g id="xtick_6">
     <g id="line2d_6">
      <g>
       <use xlink:href="#ma0bd46af16" x="538.796631" y="384.48" style="stroke: #000000; stroke-width: 0.8"/>
      </g>
     </g>
     <g id="text_6">
      <!-- 50000 -->
      <g transform="translate(522.890381 399.078438) scale(0.1 -0.1)">
       <defs>
        <path id="DejaVuSans-35" d="M 691 4666 
L 3169 4666 
L 3169 4134 
L 1269 4134 
L 1269 2991 
Q 1406 3038 1543 3061 
Q 1681 3084 1819 3084 
Q 2600 3084 3056 2656 
Q 3513 2228 3513 1497 
Q 3513 744 3044 326 
Q 2575 -91 1722 -91 
Q 1428 -91 1123 -41 
Q 819 9 494 109 
L 494 744 
Q 775 591 1075 516 
Q 1375 441 1709 441 
Q 2250 441 2565 725 
Q 2881 1009 2881 1497 
Q 2881 1984 2565 2268 
Q 2250 2553 1709 2553 
Q 1456 2553 1204 2497 
Q 953 2441 691 2322 
L 691 4666 
z
" transform="scale(0.015625)"/>
       </defs>
       <use xlink:href="#DejaVuSans-35"/>
       <use xlink:href="#DejaVuSans-30" x="63.623047"/>
       <use xlink:href="#DejaVuSans-30" x="127.246094"/>
       <use xlink:href="#DejaVuSans-30" x="190.869141"/>
       <use xlink:href="#DejaVuSans-30" x="254.492188"/>
      </g>
     </g>
    </g>
    <g id="xtick_7">
     <g id="line2d_7">
      <g>
       <use xlink:href="#ma0bd46af16" x="623.48323" y="384.48" style="stroke: #000000; stroke-width: 0.8"/>
      </g>
     </g>
     <g id="text_7">
      <!-- 60000 -->
      <g transform="translate(607.57698 399.078438) scale(0.1 -0.1)">
       <defs>
        <path id="DejaVuSans-36" d="M 2113 2584 
Q 1688 2584 1439 2293 
Q 1191 2003 1191 1497 
Q 1191 994 1439 701 
Q 1688 409 2113 409 
Q 2538 409 2786 701 
Q 3034 994 3034 1497 
Q 3034 2003 2786 2293 
Q 2538 2584 2113 2584 
z
M 3366 4563 
L 3366 3988 
Q 3128 4100 2886 4159 
Q 2644 4219 2406 4219 
Q 1781 4219 1451 3797 
Q 1122 3375 1075 2522 
Q 1259 2794 1537 2939 
Q 1816 3084 2150 3084 
Q 2853 3084 3261 2657 
Q 3669 2231 3669 1497 
Q 3669 778 3244 343 
Q 2819 -91 2113 -91 
Q 1303 -91 875 529 
Q 447 1150 447 2328 
Q 447 3434 972 4092 
Q 1497 4750 2381 4750 
Q 2619 4750 2861 4703 
Q 3103 4656 3366 4563 
z
" transform="scale(0.015625)"/>
       </defs>
       <use xlink:href="#DejaVuSans-36"/>
       <use xlink:href="#DejaVuSans-30" x="63.623047"/>
       <use xlink:href="#DejaVuSans-30" x="127.246094"/>
       <use xlink:href="#DejaVuSans-30" x="190.869141"/>
       <use xlink:href="#DejaVuSans-30" x="254.492188"/>
      </g>
     </g>
    </g>
    <g id="text_8">
     <!-- Iterations -->
     <g transform="translate(345.186719 412.756563) scale(0.1 -0.1)">
      <defs>
       <path id="DejaVuSans-49" d="M 628 4666 
L 1259 4666 
L 1259 0 
L 628 0 
L 628 4666 
z
" transform="scale(0.015625)"/>
       <path id="DejaVuSans-74" d="M 1172 4494 
L 1172 3500 
L 2356 3500 
L 2356 3053 
L 1172 3053 
L 1172 1153 
Q 1172 725 1289 603 
Q 1406 481 1766 481 
L 2356 481 
L 2356 0 
L 1766 0 
Q 1100 0 847 248 
Q 594 497 594 1153 
L 594 3053 
L 172 3053 
L 172 3500 
L 594 3500 
L 594 4494 
L 1172 4494 
z
" transform="scale(0.015625)"/>
       <path id="DejaVuSans-65" d="M 3597 1894 
L 3597 1613 
L 953 1613 
Q 991 1019 1311 708 
Q 1631 397 2203 397 
Q 2534 397 2845 478 
Q 3156 559 3463 722 
L 3463 178 
Q 3153 47 2828 -22 
Q 2503 -91 2169 -91 
Q 1331 -91 842 396 
Q 353 884 353 1716 
Q 353 2575 817 3079 
Q 1281 3584 2069 3584 
Q 2775 3584 3186 3129 
Q 3597 2675 3597 1894 
z
M 3022 2063 
Q 3016 2534 2758 2815 
Q 2500 3097 2075 3097 
Q 1594 3097 1305 2825 
Q 1016 2553 972 2059 
L 3022 2063 
z
" transform="scale(0.015625)"/>
       <path id="DejaVuSans-72" d="M 2631 2963 
Q 2534 3019 2420 3045 
Q 2306 3072 2169 3072 
Q 1681 3072 1420 2755 
Q 1159 2438 1159 1844 
L 1159 0 
L 581 0 
L 581 3500 
L 1159 3500 
L 1159 2956 
Q 1341 3275 1631 3429 
Q 1922 3584 2338 3584 
Q 2397 3584 2469 3576 
Q 2541 3569 2628 3553 
L 2631 2963 
z
" transform="scale(0.015625)"/>
       <path id="DejaVuSans-61" d="M 2194 1759 
Q 1497 1759 1228 1600 
Q 959 1441 959 1056 
Q 959 750 1161 570 
Q 1363 391 1709 391 
Q 2188 391 2477 730 
Q 2766 1069 2766 1631 
L 2766 1759 
L 2194 1759 
z
M 3341 1997 
L 3341 0 
L 2766 0 
L 2766 531 
Q 2569 213 2275 61 
Q 1981 -91 1556 -91 
Q 1019 -91 701 211 
Q 384 513 384 1019 
Q 384 1609 779 1909 
Q 1175 2209 1959 2209 
L 2766 2209 
L 2766 2266 
Q 2766 2663 2505 2880 
Q 2244 3097 1772 3097 
Q 1472 3097 1187 3025 
Q 903 2953 641 2809 
L 641 3341 
Q 956 3463 1253 3523 
Q 1550 3584 1831 3584 
Q 2591 3584 2966 3190 
Q 3341 2797 3341 1997 
z
" transform="scale(0.015625)"/>
       <path id="DejaVuSans-69" d="M 603 3500 
L 1178 3500 
L 1178 0 
L 603 0 
L 603 3500 
z
M 603 4863 
L 1178 4863 
L 1178 4134 
L 603 4134 
L 603 4863 
z
" transform="scale(0.015625)"/>
       <path id="DejaVuSans-6f" d="M 1959 3097 
Q 1497 3097 1228 2736 
Q 959 2375 959 1747 
Q 959 1119 1226 758 
Q 1494 397 1959 397 
Q 2419 397 2687 759 
Q 2956 1122 2956 1747 
Q 2956 2369 2687 2733 
Q 2419 3097 1959 3097 
z
M 1959 3584 
Q 2709 3584 3137 3096 
Q 3566 2609 3566 1747 
Q 3566 888 3137 398 
Q 2709 -91 1959 -91 
Q 1206 -91 779 398 
Q 353 888 353 1747 
Q 353 2609 779 3096 
Q 1206 3584 1959 3584 
z
" transform="scale(0.015625)"/>
       <path id="DejaVuSans-6e" d="M 3513 2113 
L 3513 0 
L 2938 0 
L 2938 2094 
Q 2938 2591 2744 2837 
Q 2550 3084 2163 3084 
Q 1697 3084 1428 2787 
Q 1159 2491 1159 1978 
L 1159 0 
L 581 0 
L 581 3500 
L 1159 3500 
L 1159 2956 
Q 1366 3272 1645 3428 
Q 1925 3584 2291 3584 
Q 2894 3584 3203 3211 
Q 3513 2838 3513 2113 
z
" transform="scale(0.015625)"/>
       <path id="DejaVuSans-73" d="M 2834 3397 
L 2834 2853 
Q 2591 2978 2328 3040 
Q 2066 3103 1784 3103 
Q 1356 3103 1142 2972 
Q 928 2841 928 2578 
Q 928 2378 1081 2264 
Q 1234 2150 1697 2047 
L 1894 2003 
Q 2506 1872 2764 1633 
Q 3022 1394 3022 966 
Q 3022 478 2636 193 
Q 2250 -91 1575 -91 
Q 1294 -91 989 -36 
Q 684 19 347 128 
L 347 722 
Q 666 556 975 473 
Q 1284 391 1588 391 
Q 1994 391 2212 530 
Q 2431 669 2431 922 
Q 2431 1156 2273 1281 
Q 2116 1406 1581 1522 
L 1381 1569 
Q 847 1681 609 1914 
Q 372 2147 372 2553 
Q 372 3047 722 3315 
Q 1072 3584 1716 3584 
Q 2034 3584 2315 3537 
Q 2597 3491 2834 3397 
z
" transform="scale(0.015625)"/>
      </defs>
      <use xlink:href="#DejaVuSans-49"/>
      <use xlink:href="#DejaVuSans-74" x="29.492188"/>
      <use xlink:href="#DejaVuSans-65" x="68.701172"/>
      <use xlink:href="#DejaVuSans-72" x="130.224609"/>
      <use xlink:href="#DejaVuSans-61" x="171.337891"/>
      <use xlink:href="#DejaVuSans-74" x="232.617188"/>
      <use xlink:href="#DejaVuSans-69" x="271.826172"/>
      <use xlink:href="#DejaVuSans-6f" x="299.609375"/>
      <use xlink:href="#DejaVuSans-6e" x="360.791016"/>
      <use xlink:href="#DejaVuSans-73" x="424.169922"/>
     </g>
    </g>
   </g>
   <g id="matplotlib.axis_2">
    <g id="ytick_1">
     <g id="line2d_8">
      <defs>
       <path id="md97e79b21d" d="M 0 0 
L -3.5 0 
" style="stroke: #000000; stroke-width: 0.8"/>
      </defs>
      <g>
       <use xlink:href="#md97e79b21d" x="90" y="330.07223" style="stroke: #000000; stroke-width: 0.8"/>
      </g>
     </g>
     <g id="text_9">
      <!-- 0.2 -->
      <g transform="translate(67.096875 333.871449) scale(0.1 -0.1)">
       <defs>
        <path id="DejaVuSans-2e" d="M 684 794 
L 1344 794 
L 1344 0 
L 684 0 
L 684 794 
z
" transform="scale(0.015625)"/>
       </defs>
       <use xlink:href="#DejaVuSans-30"/>
       <use xlink:href="#DejaVuSans-2e" x="63.623047"/>
       <use xlink:href="#DejaVuSans-32" x="95.410156"/>
      </g>
     </g>
    </g>
    <g id="ytick_2">
     <g id="line2d_9">
      <g>
       <use xlink:href="#md97e79b21d" x="90" y="259.155677" style="stroke: #000000; stroke-width: 0.8"/>
      </g>
     </g>
     <g id="text_10">
      <!-- 0.4 -->
      <g transform="translate(67.096875 262.954896) scale(0.1 -0.1)">
       <use xlink:href="#DejaVuSans-30"/>
       <use xlink:href="#DejaVuSans-2e" x="63.623047"/>
       <use xlink:href="#DejaVuSans-34" x="95.410156"/>
      </g>
     </g>
    </g>
    <g id="ytick_3">
     <g id="line2d_10">
      <g>
       <use xlink:href="#md97e79b21d" x="90" y="188.239124" style="stroke: #000000; stroke-width: 0.8"/>
      </g>
     </g>
     <g id="text_11">
      <!-- 0.6 -->
      <g transform="translate(67.096875 192.038343) scale(0.1 -0.1)">
       <use xlink:href="#DejaVuSans-30"/>
       <use xlink:href="#DejaVuSans-2e" x="63.623047"/>
       <use xlink:href="#DejaVuSans-36" x="95.410156"/>
      </g>
     </g>
    </g>
    <g id="ytick_4">
     <g id="line2d_11">
      <g>
       <use xlink:href="#md97e79b21d" x="90" y="117.322572" style="stroke: #000000; stroke-width: 0.8"/>
      </g>
     </g>
     <g id="text_12">
      <!-- 0.8 -->
      <g transform="translate(67.096875 121.121791) scale(0.1 -0.1)">
       <defs>
        <path id="DejaVuSans-38" d="M 2034 2216 
Q 1584 2216 1326 1975 
Q 1069 1734 1069 1313 
Q 1069 891 1326 650 
Q 1584 409 2034 409 
Q 2484 409 2743 651 
Q 3003 894 3003 1313 
Q 3003 1734 2745 1975 
Q 2488 2216 2034 2216 
z
M 1403 2484 
Q 997 2584 770 2862 
Q 544 3141 544 3541 
Q 544 4100 942 4425 
Q 1341 4750 2034 4750 
Q 2731 4750 3128 4425 
Q 3525 4100 3525 3541 
Q 3525 3141 3298 2862 
Q 3072 2584 2669 2484 
Q 3125 2378 3379 2068 
Q 3634 1759 3634 1313 
Q 3634 634 3220 271 
Q 2806 -91 2034 -91 
Q 1263 -91 848 271 
Q 434 634 434 1313 
Q 434 1759 690 2068 
Q 947 2378 1403 2484 
z
M 1172 3481 
Q 1172 3119 1398 2916 
Q 1625 2713 2034 2713 
Q 2441 2713 2670 2916 
Q 2900 3119 2900 3481 
Q 2900 3844 2670 4047 
Q 2441 4250 2034 4250 
Q 1625 4250 1398 4047 
Q 1172 3844 1172 3481 
z
" transform="scale(0.015625)"/>
       </defs>
       <use xlink:href="#DejaVuSans-30"/>
       <use xlink:href="#DejaVuSans-2e" x="63.623047"/>
       <use xlink:href="#DejaVuSans-38" x="95.410156"/>
      </g>
     </g>
    </g>
    <g id="text_13">
     <!-- Accuracy -->
     <g transform="translate(61.017187 240.988125) rotate(-90) scale(0.1 -0.1)">
      <defs>
       <path id="DejaVuSans-41" d="M 2188 4044 
L 1331 1722 
L 3047 1722 
L 2188 4044 
z
M 1831 4666 
L 2547 4666 
L 4325 0 
L 3669 0 
L 3244 1197 
L 1141 1197 
L 716 0 
L 50 0 
L 1831 4666 
z
" transform="scale(0.015625)"/>
       <path id="DejaVuSans-63" d="M 3122 3366 
L 3122 2828 
Q 2878 2963 2633 3030 
Q 2388 3097 2138 3097 
Q 1578 3097 1268 2742 
Q 959 2388 959 1747 
Q 959 1106 1268 751 
Q 1578 397 2138 397 
Q 2388 397 2633 464 
Q 2878 531 3122 666 
L 3122 134 
Q 2881 22 2623 -34 
Q 2366 -91 2075 -91 
Q 1284 -91 818 406 
Q 353 903 353 1747 
Q 353 2603 823 3093 
Q 1294 3584 2113 3584 
Q 2378 3584 2631 3529 
Q 2884 3475 3122 3366 
z
" transform="scale(0.015625)"/>
       <path id="DejaVuSans-75" d="M 544 1381 
L 544 3500 
L 1119 3500 
L 1119 1403 
Q 1119 906 1312 657 
Q 1506 409 1894 409 
Q 2359 409 2629 706 
Q 2900 1003 2900 1516 
L 2900 3500 
L 3475 3500 
L 3475 0 
L 2900 0 
L 2900 538 
Q 2691 219 2414 64 
Q 2138 -91 1772 -91 
Q 1169 -91 856 284 
Q 544 659 544 1381 
z
M 1991 3584 
L 1991 3584 
z
" transform="scale(0.015625)"/>
       <path id="DejaVuSans-79" d="M 2059 -325 
Q 1816 -950 1584 -1140 
Q 1353 -1331 966 -1331 
L 506 -1331 
L 506 -850 
L 844 -850 
Q 1081 -850 1212 -737 
Q 1344 -625 1503 -206 
L 1606 56 
L 191 3500 
L 800 3500 
L 1894 763 
L 2988 3500 
L 3597 3500 
L 2059 -325 
z
" transform="scale(0.015625)"/>
      </defs>
      <use xlink:href="#DejaVuSans-41"/>
      <use xlink:href="#DejaVuSans-63" x="66.658203"/>
      <use xlink:href="#DejaVuSans-63" x="121.638672"/>
      <use xlink:href="#DejaVuSans-75" x="176.619141"/>
      <use xlink:href="#DejaVuSans-72" x="239.998047"/>
      <use xlink:href="#DejaVuSans-61" x="281.111328"/>
      <use xlink:href="#DejaVuSans-63" x="342.390625"/>
      <use xlink:href="#DejaVuSans-79" x="397.371094"/>
     </g>
    </g>
   </g>
   <g id="line2d_12">
    <path d="M 115.363636 369.034966 
L 116.210502 196.441806 
L 117.057368 155.032449 
L 117.904234 155.42249 
L 118.7511 137.279672 
L 119.597966 158.164596 
L 120.444832 123.356389 
L 121.291698 127.073598 
L 122.138564 109.846785 
L 122.98543 107.394254 
L 123.832296 130.572148 
L 125.526028 105.325855 
L 126.372894 103.807059 
L 127.21976 101.407715 
L 128.066626 96.012148 
L 128.913492 100.326238 
L 129.760358 100.030752 
L 130.607224 98.777893 
L 131.45409 96.815869 
L 132.300956 106.484159 
L 133.147822 121.157975 
L 133.994688 95.693023 
L 134.841554 92.424952 
L 135.68842 94.652914 
L 136.535286 94.972038 
L 137.382152 93.193215 
L 138.229018 91.083447 
L 139.075884 98.872449 
L 139.92275 103.145171 
L 140.769616 89.830588 
L 141.616482 98.576963 
L 142.463348 88.885034 
L 143.310214 93.09275 
L 144.15708 99.209302 
L 145.850812 92.980465 
L 146.697678 92.489959 
L 147.544544 99.918468 
L 148.39141 88.087223 
L 149.238276 89.298714 
L 150.085142 93.033653 
L 150.932008 88.542271 
L 151.778874 92.950917 
L 152.62574 85.126457 
L 153.472606 90.852969 
L 154.319472 86.29067 
L 155.166338 97.046347 
L 156.013204 88.435896 
L 156.86007 86.580246 
L 157.706936 84.03907 
L 158.553802 86.787086 
L 159.400668 91.01844 
L 160.247534 87.874473 
L 161.0944 86.733899 
L 161.941266 88.311792 
L 162.788132 90.226539 
L 163.634998 86.060192 
L 164.481864 90.62249 
L 165.32873 90.480657 
L 166.175596 84.825062 
L 167.022462 94.859754 
L 167.869328 84.612312 
L 168.716194 89.298714 
L 169.56306 87.573078 
L 170.409926 89.162791 
L 171.256792 84.819152 
L 172.103658 86.08383 
L 172.950524 98.500137 
L 173.79739 84.955075 
L 174.644256 84.322736 
L 175.491122 90.120164 
L 176.337988 84.364104 
L 177.184854 89.617839 
L 178.03172 83.962244 
L 178.878586 88.749111 
L 179.725452 90.338824 
L 180.572317 86.444323 
L 181.419183 88.406347 
L 182.266049 97.903256 
L 183.959781 87.815376 
L 184.806647 101.638194 
L 185.653513 90.917975 
L 186.500379 81.610178 
L 187.347245 87.253953 
L 188.194111 83.335814 
L 189.040977 100.674911 
L 189.887843 87.73855 
L 190.734709 91.774884 
L 191.581575 86.822544 
L 192.428441 90.634309 
L 193.275307 84.009521 
L 194.122173 87.803557 
L 194.969039 85.221012 
L 195.815905 80.859644 
L 196.662771 90.717045 
L 197.509637 84.228181 
L 198.356503 88.861395 
L 199.203369 80.54643 
L 200.050235 78.980356 
L 200.897101 81.545171 
L 201.743967 93.340958 
L 202.590833 83.258988 
L 203.437699 78.519398 
L 204.284565 78.844432 
L 205.131431 81.255595 
L 205.978297 80.286402 
L 206.825163 82.502544 
L 207.672029 89.925144 
L 208.518895 88.56591 
L 209.365761 83.176252 
L 210.212627 80.162298 
L 211.059493 90.386101 
L 211.906359 81.338331 
L 212.753225 80.055923 
L 213.600091 89.629658 
L 214.446957 81.190588 
L 216.140689 84.795513 
L 216.987555 81.373789 
L 217.834421 86.10156 
L 218.681287 81.681094 
L 219.528153 91.514856 
L 220.375019 84.494118 
L 221.221885 80.516881 
L 222.068751 80.54052 
L 222.915617 84.565034 
L 223.762483 82.212969 
L 224.609349 84.169083 
L 225.456215 79.825445 
L 226.303081 83.743584 
L 227.149947 79.163557 
L 227.996813 80.221395 
L 228.843679 76.474637 
L 229.690545 79.204925 
L 230.537411 77.148345 
L 231.384277 81.332421 
L 232.231143 76.498276 
L 233.078009 76.385992 
L 233.924875 81.273324 
L 234.771741 88.258605 
L 236.465473 78.377565 
L 237.312339 78.365746 
L 238.159205 77.550205 
L 239.006071 79.134008 
L 239.852937 75.765472 
L 240.699803 83.784952 
L 241.546669 81.952941 
L 242.393535 81.072394 
L 243.240401 79.742709 
L 244.087267 82.277975 
L 244.934133 77.757045 
L 245.780999 79.689521 
L 246.627865 77.904788 
L 248.321597 75.38725 
L 249.168463 80.008646 
L 250.015329 80.770999 
L 250.862195 79.943639 
L 251.709061 80.221395 
L 252.555927 84.978714 
L 253.402793 80.788728 
L 254.249659 77.751135 
L 255.096525 80.74145 
L 255.94339 78.241642 
L 256.790256 76.527825 
L 257.637122 79.228564 
L 258.483988 76.770123 
L 259.330854 79.50632 
L 260.17772 78.909439 
L 261.024586 76.173242 
L 261.871452 74.766731 
L 262.718318 77.491108 
L 263.565184 79.181286 
L 265.258916 82.195239 
L 266.105782 75.59409 
L 266.952648 76.959234 
L 267.799514 78.732148 
L 268.64638 81.57472 
L 269.493246 78.933078 
L 270.340112 80.966019 
L 271.186978 75.700465 
L 272.033844 85.616963 
L 272.88071 86.202025 
L 273.727576 75.39907 
L 274.574442 76.380082 
L 275.421308 73.112011 
L 276.268174 73.767989 
L 277.11504 76.338714 
L 277.961906 77.898878 
L 278.808772 80.044104 
L 279.655638 77.810233 
L 280.502504 76.450999 
L 281.34937 80.055923 
L 282.196236 74.914473 
L 283.043102 76.770123 
L 283.889968 79.612695 
L 284.736834 76.362353 
L 285.5837 87.703092 
L 286.430566 84.411382 
L 287.277432 76.072777 
L 288.124298 75.209959 
L 288.971164 76.758304 
L 289.81803 74.790369 
L 290.664896 80.575978 
L 291.511762 93.825554 
L 292.358628 76.994692 
L 293.205494 77.497018 
L 294.05236 79.594966 
L 294.899226 77.727497 
L 295.746092 76.279617 
L 296.592958 77.024241 
L 297.439824 77.201532 
L 298.28669 78.613953 
L 299.133556 76.616471 
L 299.980422 75.771382 
L 301.674154 80.629166 
L 302.52102 77.715677 
L 303.367886 86.527059 
L 304.214752 77.201532 
L 305.061618 76.805581 
L 305.908484 77.077428 
L 306.75535 78.69078 
L 307.602216 80.853735 
L 308.449082 84.500027 
L 309.295948 78.47803 
L 310.142814 75.741833 
L 310.98968 81.533352 
L 311.836546 75.836389 
L 312.683412 73.785718 
L 313.530278 75.026758 
L 314.377144 78.702599 
L 315.22401 75.162681 
L 316.070876 85.823803 
L 316.917742 73.637975 
L 317.764608 74.039836 
L 318.611474 72.9229 
L 319.45834 77.207442 
L 320.305206 73.567059 
L 321.152072 74.128482 
L 321.998938 72.420575 
L 322.845804 74.258495 
L 323.69267 75.458167 
L 324.539536 73.73844 
L 325.386402 92.891819 
L 326.233268 72.284651 
L 327.080134 78.206183 
L 327.927 76.575103 
L 328.773866 76.456908 
L 329.620732 74.412148 
L 330.467598 73.029275 
L 332.161329 75.81275 
L 333.008195 74.16985 
L 333.855061 86.142927 
L 334.701927 75.771382 
L 335.548793 78.720328 
L 336.395659 76.935595 
L 337.242525 73.12974 
L 338.089391 77.25472 
L 338.936257 80.33959 
L 339.783123 75.942763 
L 340.629989 74.317592 
L 341.476855 73.714802 
L 342.323721 76.120055 
L 343.170587 90.935705 
L 344.017453 73.74435 
L 344.864319 73.797538 
L 345.711185 73.318851 
L 346.558051 76.155513 
L 347.404917 74.453516 
L 348.251783 75.529083 
L 349.098649 74.299863 
L 349.945515 74.217127 
L 350.792381 77.414282 
L 351.639247 74.305773 
L 352.486113 73.017456 
L 353.332979 72.804706 
L 355.026711 79.736799 
L 355.873577 75.913215 
L 356.720443 73.017456 
L 357.567309 73.785718 
L 358.414175 73.590698 
L 359.261041 72.674692 
L 360.107907 72.538769 
L 360.954773 71.758687 
L 361.801639 76.62829 
L 362.648505 71.457291 
L 363.495371 77.290178 
L 364.342237 75.60591 
L 365.189103 73.632066 
L 366.035969 73.643885 
L 366.882835 72.92881 
L 367.729701 79.145828 
L 368.576567 71.823694 
L 369.423433 77.024241 
L 370.270299 74.536252 
L 371.964031 74.293953 
L 372.810897 72.331929 
L 373.657763 72.645144 
L 374.504629 71.557756 
L 375.351495 74.477155 
L 376.198361 70.600383 
L 377.045227 72.580137 
L 377.892093 72.987907 
L 378.738959 74.028016 
L 379.585825 78.578495 
L 380.432691 75.582271 
L 381.279557 71.829603 
L 382.126423 70.298988 
L 382.973289 71.07907 
L 383.820155 73.112011 
L 384.667021 73.791628 
L 385.513887 74.175759 
L 386.360753 74.264405 
L 387.207619 71.339097 
L 388.901351 72.290561 
L 389.748217 78.808974 
L 390.595083 75.481806 
L 391.441949 71.605034 
L 392.288815 76.072777 
L 393.135681 72.574227 
L 393.982547 74.010287 
L 394.829413 70.842681 
L 395.676279 72.213735 
L 396.523145 70.369904 
L 397.370011 70.186703 
L 398.216877 72.745609 
L 399.063743 73.318851 
L 399.910609 72.828345 
L 400.757475 70.600383 
L 401.604341 72.680602 
L 403.298073 68.939754 
L 404.144939 69.950315 
L 404.991805 72.597866 
L 405.838671 69.489357 
L 406.685537 70.943146 
L 407.532402 81.98249 
L 408.379268 73.637975 
L 409.226134 74.78446 
L 410.073 72.686512 
L 410.919866 68.472886 
L 411.766732 68.738824 
L 412.613598 71.410014 
L 413.460464 70.027141 
L 414.30733 70.86632 
L 415.154196 70.777674 
L 416.001062 73.96301 
L 416.847928 75.404979 
L 417.694794 71.268181 
L 418.54166 69.595732 
L 419.388526 69.057948 
L 420.235392 73.100192 
L 421.082258 69.743475 
L 421.929124 70.771765 
L 422.77599 69.43026 
L 423.622856 69.767114 
L 424.469722 73.029275 
L 425.316588 72.887442 
L 426.163454 70.216252 
L 427.857186 76.167332 
L 428.704052 72.190096 
L 429.550918 71.108618 
L 430.397784 77.780684 
L 431.24465 73.230205 
L 432.091516 76.545554 
L 432.938382 70.736306 
L 434.632114 72.993817 
L 435.47898 70.074419 
L 436.325846 70.03896 
L 437.172712 75.298605 
L 438.019578 71.415923 
L 438.866444 69.63119 
L 439.71331 69.335705 
L 440.560176 72.574227 
L 441.407042 69.554364 
L 442.253908 71.090889 
L 443.100774 76.728755 
L 443.94764 72.320109 
L 444.794506 69.678468 
L 445.641372 71.805964 
L 446.488238 68.756553 
L 447.335104 70.742216 
L 448.18197 80.33368 
L 449.028836 73.389767 
L 449.875702 71.918249 
L 450.722568 72.775157 
L 451.569434 70.777674 
L 452.4163 71.498659 
L 453.263166 70.736306 
L 454.110032 71.445472 
L 454.956898 67.98238 
L 455.803764 68.366512 
L 456.65063 69.914856 
L 457.497496 76.320985 
L 458.344362 68.792011 
L 459.191228 70.304897 
L 460.038094 69.64301 
L 460.88496 70.358085 
L 461.731826 70.204432 
L 462.578692 72.52104 
L 463.425558 76.344624 
L 464.272424 72.574227 
L 465.11929 77.213352 
L 465.966156 73.023365 
L 466.813022 72.379207 
L 467.659888 72.875622 
L 468.506754 72.272832 
L 469.35362 70.87814 
L 470.200486 72.692421 
L 471.047352 72.739699 
L 472.741084 79.417674 
L 473.58795 71.90643 
L 474.434816 70.281259 
L 475.281682 73.531601 
L 476.128548 71.870971 
L 476.975414 71.516389 
L 477.82228 75.269056 
L 478.669146 70.25762 
L 479.516012 76.167332 
L 480.362878 77.544295 
L 481.209744 73.407497 
L 482.05661 70.925417 
L 482.903475 70.582654 
L 483.750341 71.108618 
L 484.597207 72.810616 
L 485.444073 71.752777 
L 486.290939 71.475021 
L 487.137805 72.024624 
L 487.984671 77.615212 
L 488.831537 70.582654 
L 489.678403 71.321368 
L 490.525269 75.416799 
L 491.372135 74.305773 
L 493.065867 68.957483 
L 493.912733 70.529466 
L 494.759599 71.610944 
L 495.606465 69.938495 
L 496.453331 69.512996 
L 497.300197 76.6342 
L 498.147063 70.027141 
L 498.993929 70.594473 
L 499.840795 70.996334 
L 500.687661 72.568317 
L 501.534527 70.387633 
L 502.381393 75.410889 
L 503.228259 70.559015 
L 504.075125 73.177018 
L 504.921991 72.875622 
L 505.768857 72.396936 
L 506.615723 72.255103 
L 507.462589 73.472503 
L 508.309455 73.360219 
L 509.156321 69.465718 
L 510.003187 70.65948 
L 510.850053 74.033926 
L 511.696919 70.015321 
L 512.543785 72.645144 
L 513.390651 69.737565 
L 514.237517 69.459808 
L 515.084383 67.78145 
L 515.931249 71.368646 
L 516.778115 71.28 
L 517.624981 72.320109 
L 518.471847 81.98249 
L 519.318713 72.798796 
L 520.165579 71.392285 
L 521.859311 69.099316 
L 522.706177 71.27409 
L 523.553043 68.283776 
L 524.399909 68.762462 
L 525.246775 76.498276 
L 526.093641 68.100575 
L 526.940507 67.527332 
L 527.787373 68.922025 
L 528.634239 67.515513 
L 529.481105 71.138167 
L 530.327971 70.334446 
L 531.174837 69.371163 
L 532.021703 73.259754 
L 532.868569 70.275349 
L 533.715435 68.124213 
L 534.562301 70.937237 
L 535.409167 72.077811 
L 536.256033 74.666265 
L 537.102899 69.725746 
L 537.949765 76.971053 
L 538.796631 70.783584 
L 539.643497 70.446731 
L 541.337229 69.359343 
L 542.184095 74.583529 
L 543.030961 70.765855 
L 543.877827 73.289302 
L 544.724693 74.16394 
L 545.571559 70.239891 
L 546.418425 73.454774 
L 547.265291 70.157155 
L 548.112157 68.60881 
L 548.959023 71.386375 
L 549.805889 72.467852 
L 550.652755 70.618112 
L 551.499621 69.903037 
L 552.346487 75.221778 
L 553.193353 69.737565 
L 554.040219 68.165581 
L 554.887085 67.042736 
L 555.733951 70.736306 
L 556.580817 70.771765 
L 557.427683 69.43026 
L 558.274548 72.686512 
L 559.121414 71.469111 
L 559.96828 69.719836 
L 560.815146 69.808482 
L 561.662012 69.489357 
L 562.508878 72.526949 
L 563.355744 77.426101 
L 564.20261 70.582654 
L 565.049476 70.216252 
L 565.896342 67.893735 
L 566.743208 67.669166 
L 567.590074 69.22342 
L 569.283806 70.972695 
L 570.130672 69.826211 
L 570.977538 71.061341 
L 571.824404 71.551847 
L 572.67127 75.074036 
L 573.518136 68.20104 
L 574.365002 71.610944 
L 575.211868 73.886183 
L 576.058734 68.325144 
L 576.9056 69.64301 
L 577.752466 69.447989 
L 578.599332 69.773023 
L 579.446198 72.627415 
L 580.293064 73.182927 
L 581.13993 69.117045 
L 581.986796 66.96 
L 582.833662 69.483447 
L 583.680528 69.914856 
L 584.527394 70.87814 
L 585.37426 70.405363 
L 586.221126 68.336963 
L 587.914858 70.2458 
L 588.761724 72.130999 
L 589.60859 68.118304 
L 590.455456 68.017839 
L 591.302322 69.908947 
L 592.149188 71.27409 
L 592.996054 72.201915 
L 593.84292 77.04197 
L 594.689786 74.110752 
L 595.536652 72.911081 
L 596.383518 70.771765 
L 597.230384 69.979863 
L 598.07725 68.183311 
L 598.924116 71.605034 
L 599.770982 68.006019 
L 600.617848 71.167715 
L 601.464714 68.685636 
L 603.158446 69.879398 
L 604.005312 72.550588 
L 604.852178 68.561532 
L 605.699044 70.210342 
L 606.54591 72.93472 
L 607.392776 68.437428 
L 608.239642 67.621888 
L 609.086508 67.716443 
L 609.933374 68.691546 
L 610.78024 72.071902 
L 611.627106 68.254227 
L 612.473972 67.084104 
L 613.320838 68.797921 
L 614.167704 69.979863 
L 615.01457 68.40788 
L 615.861436 67.852367 
L 616.708302 68.585171 
L 617.555168 68.537893 
L 618.402034 76.279617 
L 619.2489 72.30238 
L 620.095766 70.086238 
L 620.942632 70.021231 
L 621.789498 71.445472 
L 622.636364 70.322627 
L 622.636364 70.322627 
" clip-path="url(#p6758d6b4e7)" style="fill: none; stroke: #1f77b4; stroke-width: 1.5; stroke-linecap: square"/>
   </g>
   <g id="line2d_13">
    <path d="M 115.363636 369.36 
L 116.210502 198.592941 
L 117.057368 155.156553 
L 117.904234 153.596389 
L 118.7511 137.994747 
L 119.597966 158.950588 
L 120.444832 123.315021 
L 121.291698 129.236553 
L 122.138564 109.876334 
L 122.98543 107.784295 
L 123.832296 129.307469 
L 125.526028 102.855595 
L 126.372894 101.579097 
L 127.21976 100.728098 
L 128.066626 93.955568 
L 128.913492 99.841642 
L 129.760358 99.097018 
L 130.607224 97.465937 
L 131.45409 95.090233 
L 133.147822 119.272777 
L 133.994688 93.28186 
L 134.841554 90.941614 
L 135.68842 93.920109 
L 136.535286 92.430862 
L 137.382152 91.721696 
L 138.229018 87.963119 
L 139.075884 94.593817 
L 139.92275 99.026101 
L 140.769616 85.977456 
L 141.616482 95.019316 
L 142.463348 86.970287 
L 143.310214 93.742818 
L 144.15708 97.572312 
L 145.850812 91.296197 
L 146.697678 89.523283 
L 147.544544 98.210561 
L 148.39141 86.012914 
L 149.238276 87.289412 
L 150.085142 90.303365 
L 150.932008 86.863912 
L 151.778874 91.367114 
L 152.62574 84.700958 
L 153.472606 88.778659 
L 154.319472 83.495376 
L 155.166338 95.090233 
L 156.013204 87.395787 
L 156.86007 84.771874 
L 157.706936 83.069877 
L 158.553802 85.197373 
L 159.400668 90.551573 
L 161.0944 86.048372 
L 161.941266 86.722079 
L 162.788132 89.062326 
L 163.634998 83.566293 
L 164.481864 89.416908 
L 165.32873 87.53762 
L 166.175596 82.538003 
L 167.022462 93.813735 
L 167.869328 82.041587 
L 168.716194 86.757538 
L 169.56306 85.090999 
L 170.409926 87.892202 
L 171.256792 83.530834 
L 172.103658 83.885417 
L 172.950524 98.813352 
L 173.79739 82.679836 
L 174.644256 82.892585 
L 175.491122 89.5942 
L 176.337988 83.318085 
L 177.184854 89.275075 
L 178.03172 83.991792 
L 178.878586 89.452367 
L 179.725452 87.218495 
L 180.572317 83.708126 
L 181.419183 87.218495 
L 182.266049 98.458769 
L 183.112915 94.061943 
L 183.959781 87.53762 
L 184.806647 101.862763 
L 186.500379 81.119672 
L 187.347245 85.729248 
L 188.194111 82.18342 
L 189.040977 97.926895 
L 189.887843 86.934829 
L 190.734709 90.40974 
L 191.581575 85.374665 
L 192.428441 89.452367 
L 193.275307 83.034419 
L 194.122173 85.339207 
L 195.815905 80.623256 
L 196.662771 90.090616 
L 197.509637 83.672668 
L 198.356503 88.849576 
L 199.203369 79.91409 
L 200.050235 78.353926 
L 200.897101 82.006129 
L 201.743967 93.033653 
L 202.590833 82.006129 
L 203.437699 78.28301 
L 204.284565 78.034802 
L 205.131431 80.516881 
L 205.978297 78.8858 
L 206.825163 81.226047 
L 207.672029 89.452367 
L 208.518895 89.948782 
L 209.365761 83.034419 
L 210.212627 80.33959 
L 211.059493 88.743201 
L 211.906359 80.481423 
L 212.753225 79.701341 
L 213.600091 89.204159 
L 214.446957 82.325253 
L 215.293823 85.339207 
L 216.140689 85.941997 
L 216.987555 81.013297 
L 217.834421 85.161915 
L 218.681287 82.077045 
L 219.528153 91.721696 
L 220.375019 83.849959 
L 221.221885 80.906922 
L 222.068751 80.694172 
L 222.915617 82.821669 
L 223.762483 81.013297 
L 224.609349 83.318085 
L 225.456215 78.992175 
L 226.303081 82.112503 
L 227.149947 79.488591 
L 227.996813 79.665882 
L 228.843679 76.545554 
L 229.690545 79.063092 
L 230.537411 77.502927 
L 231.384277 80.375048 
L 232.231143 76.01368 
L 233.078009 76.722845 
L 233.924875 80.268673 
L 234.771741 88.246785 
L 236.465473 76.687387 
L 237.312339 78.353926 
L 238.159205 78.176635 
L 239.006071 78.212093 
L 239.852937 76.084596 
L 240.699803 82.750752 
L 241.546669 81.15513 
L 242.393535 80.729631 
L 243.240401 78.8858 
L 244.087267 82.431628 
L 244.934133 76.651929 
L 245.780999 78.318468 
L 246.627865 78.353926 
L 247.474731 75.446347 
L 248.321597 74.737182 
L 249.168463 79.453133 
L 250.015329 79.09855 
L 250.862195 78.531218 
L 251.709061 80.410506 
L 252.555927 83.743584 
L 253.402793 79.878632 
L 254.249659 76.687387 
L 255.096525 80.055923 
L 255.94339 79.3113 
L 256.790256 75.127223 
L 257.637122 78.566676 
L 258.483988 77.290178 
L 259.330854 78.105718 
L 260.17772 77.432011 
L 261.024586 75.765472 
L 261.871452 74.77264 
L 262.718318 78.07026 
L 264.41205 81.36788 
L 265.258916 80.729631 
L 266.105782 75.765472 
L 266.952648 77.85751 
L 267.799514 78.602134 
L 268.64638 82.892585 
L 269.493246 79.736799 
L 270.340112 81.084213 
L 271.186978 76.864679 
L 272.033844 85.551956 
L 272.88071 84.24 
L 273.727576 74.524432 
L 274.574442 75.446347 
L 275.421308 73.992558 
L 276.268174 74.311683 
L 277.11504 77.396553 
L 277.961906 78.814884 
L 278.808772 80.800547 
L 279.655638 79.134008 
L 280.502504 78.141176 
L 281.34937 80.12684 
L 282.196236 74.808098 
L 283.889968 79.240383 
L 284.736834 76.581012 
L 285.5837 86.934829 
L 286.430566 83.495376 
L 287.277432 78.708509 
L 288.124298 75.694555 
L 289.81803 75.659097 
L 290.664896 81.261505 
L 291.511762 93.920109 
L 292.358628 77.786594 
L 293.205494 76.297346 
L 294.05236 80.800547 
L 294.899226 76.864679 
L 295.746092 76.332804 
L 296.592958 76.651929 
L 297.439824 76.722845 
L 298.28669 77.963885 
L 299.133556 75.907305 
L 299.980422 76.155513 
L 300.827288 77.290178 
L 301.674154 80.197756 
L 302.52102 76.651929 
L 303.367886 84.594583 
L 304.214752 77.219261 
L 305.061618 76.403721 
L 305.908484 76.900137 
L 306.75535 78.034802 
L 307.602216 80.800547 
L 308.449082 84.842791 
L 309.295948 78.318468 
L 310.142814 74.666265 
L 310.98968 79.701341 
L 311.836546 75.765472 
L 312.683412 73.74435 
L 313.530278 75.162681 
L 314.377144 78.389384 
L 315.22401 75.375431 
L 316.070876 86.438413 
L 316.917742 73.708892 
L 317.764608 73.567059 
L 318.611474 72.751518 
L 319.45834 79.169466 
L 320.305206 74.701724 
L 321.152072 75.375431 
L 321.998938 73.779808 
L 322.845804 74.418057 
L 323.69267 76.155513 
L 324.539536 75.19814 
L 325.386402 92.820903 
L 326.233268 73.389767 
L 327.080134 79.453133 
L 328.773866 78.034802 
L 330.467598 73.602517 
L 331.314463 75.375431 
L 332.161329 76.332804 
L 333.008195 74.666265 
L 333.855061 87.32487 
L 334.701927 77.290178 
L 335.548793 79.559508 
L 336.395659 78.566676 
L 337.242525 74.418057 
L 338.089391 78.779425 
L 338.936257 80.836005 
L 339.783123 76.935595 
L 340.629989 76.01368 
L 341.476855 74.488974 
L 342.323721 77.396553 
L 343.170587 92.501778 
L 344.017453 74.311683 
L 345.711185 75.091765 
L 346.558051 77.006512 
L 347.404917 75.091765 
L 348.251783 76.971053 
L 349.098649 75.80093 
L 349.945515 74.949932 
L 350.792381 76.368263 
L 351.639247 74.737182 
L 353.332979 73.212476 
L 354.179845 75.162681 
L 355.026711 79.91409 
L 355.873577 75.871847 
L 356.720443 72.645144 
L 357.567309 75.375431 
L 358.414175 74.134391 
L 359.261041 72.255103 
L 360.107907 73.283393 
L 360.954773 73.567059 
L 361.801639 77.25472 
L 362.648505 71.90052 
L 363.495371 78.814884 
L 364.342237 76.758304 
L 365.189103 73.850725 
L 366.035969 73.354309 
L 366.882835 73.212476 
L 367.729701 80.587798 
L 368.576567 72.574227 
L 369.423433 76.190971 
L 370.270299 74.028016 
L 371.117165 75.056306 
L 371.964031 75.127223 
L 372.810897 72.893352 
L 373.657763 71.368646 
L 374.504629 71.191354 
L 375.351495 74.595349 
L 376.198361 71.616854 
L 377.045227 73.389767 
L 378.738959 74.453516 
L 379.585825 78.566676 
L 380.432691 75.659097 
L 381.279557 72.255103 
L 382.126423 70.092148 
L 382.973289 70.978605 
L 383.820155 74.098933 
L 384.667021 75.233598 
L 385.513887 74.488974 
L 386.360753 74.524432 
L 387.207619 71.049521 
L 388.054485 72.645144 
L 388.901351 72.148728 
L 389.748217 79.169466 
L 390.595083 76.190971 
L 391.441949 72.326019 
L 392.288815 75.694555 
L 393.135681 73.460684 
L 393.982547 73.850725 
L 394.829413 70.765855 
L 395.676279 71.829603 
L 396.523145 69.914856 
L 398.216877 72.645144 
L 399.063743 73.354309 
L 399.910609 73.070643 
L 400.757475 70.269439 
L 401.604341 72.290561 
L 402.451207 70.092148 
L 403.298073 68.886566 
L 404.144939 69.879398 
L 404.991805 71.794145 
L 405.838671 69.595732 
L 406.685537 71.226813 
L 407.532402 82.289795 
L 408.379268 72.680602 
L 409.226134 74.028016 
L 410.073 72.432394 
L 410.919866 69.347524 
L 411.766732 69.453899 
L 412.613598 71.829603 
L 413.460464 70.694938 
L 414.30733 71.90052 
L 415.154196 72.361477 
L 416.001062 74.737182 
L 416.847928 76.439179 
L 417.694794 72.255103 
L 418.54166 71.262271 
L 419.388526 69.382982 
L 420.235392 72.148728 
L 421.082258 69.347524 
L 421.929124 71.404104 
L 422.77599 70.127606 
L 423.622856 70.021231 
L 424.469722 73.921642 
L 425.316588 73.247934 
L 426.163454 70.233981 
L 427.01032 72.326019 
L 427.857186 76.368263 
L 428.704052 72.503311 
L 429.550918 72.113269 
L 430.397784 79.559508 
L 431.24465 75.056306 
L 432.091516 78.921259 
L 432.938382 72.113269 
L 433.785248 72.503311 
L 434.632114 73.779808 
L 435.47898 71.404104 
L 436.325846 70.836772 
L 437.172712 77.148345 
L 438.019578 72.574227 
L 438.866444 70.588564 
L 439.71331 70.304897 
L 440.560176 73.850725 
L 441.407042 69.205691 
L 442.253908 71.616854 
L 443.100774 77.538386 
L 443.94764 71.865062 
L 444.794506 69.63119 
L 445.641372 72.255103 
L 446.488238 68.531984 
L 447.335104 70.87223 
L 448.18197 80.445964 
L 449.028836 74.134391 
L 449.875702 72.92881 
L 450.722568 73.283393 
L 451.569434 71.865062 
L 452.4163 71.90052 
L 453.263166 72.077811 
L 454.110032 72.786977 
L 454.956898 69.773023 
L 455.803764 69.241149 
L 456.65063 70.730397 
L 457.497496 77.290178 
L 458.344362 69.737565 
L 459.191228 71.581395 
L 460.038094 71.404104 
L 460.88496 71.439562 
L 461.731826 71.333187 
L 463.425558 77.112886 
L 464.272424 72.609685 
L 465.11929 78.566676 
L 465.966156 73.850725 
L 466.813022 73.070643 
L 467.659888 73.354309 
L 468.506754 74.382599 
L 469.35362 71.510479 
L 471.047352 74.382599 
L 471.894218 77.467469 
L 472.741084 82.112503 
L 473.58795 71.971436 
L 474.434816 70.233981 
L 475.281682 73.177018 
L 476.128548 72.006895 
L 476.975414 71.758687 
L 477.82228 75.694555 
L 478.669146 71.262271 
L 479.516012 76.722845 
L 480.362878 79.594966 
L 481.209744 75.304514 
L 482.05661 71.90052 
L 482.903475 71.616854 
L 483.750341 71.829603 
L 484.597207 74.630807 
L 486.290939 73.460684 
L 487.137805 72.432394 
L 487.984671 78.956717 
L 488.831537 71.545937 
L 489.678403 72.396936 
L 490.525269 77.112886 
L 491.372135 76.332804 
L 492.219001 73.389767 
L 493.065867 69.950315 
L 493.912733 71.297729 
L 494.759599 72.396936 
L 495.606465 70.056689 
L 496.453331 71.155896 
L 497.300197 78.141176 
L 498.147063 69.276607 
L 498.993929 71.297729 
L 499.840795 71.191354 
L 500.687661 73.247934 
L 501.534527 71.581395 
L 502.381393 76.616471 
L 503.228259 71.120438 
L 504.075125 73.177018 
L 504.921991 73.318851 
L 505.768857 72.396936 
L 506.615723 72.857893 
L 507.462589 72.609685 
L 508.309455 74.488974 
L 509.156321 69.666648 
L 510.003187 70.801313 
L 510.850053 75.020848 
L 511.696919 71.333187 
L 512.543785 73.496142 
L 513.390651 69.347524 
L 514.237517 70.765855 
L 515.084383 69.241149 
L 515.931249 71.545937 
L 516.778115 72.893352 
L 517.624981 73.460684 
L 518.471847 83.318085 
L 519.318713 73.425226 
L 520.165579 71.68777 
L 521.012445 71.510479 
L 521.859311 70.65948 
L 522.706177 72.042353 
L 523.553043 70.127606 
L 524.399909 69.312066 
L 525.246775 76.190971 
L 526.093641 69.84394 
L 526.940507 68.6029 
L 527.787373 69.560274 
L 528.634239 68.106484 
L 529.481105 71.475021 
L 530.327971 71.049521 
L 531.174837 71.794145 
L 532.021703 73.886183 
L 532.868569 71.333187 
L 533.715435 69.134774 
L 534.562301 71.723228 
L 535.409167 72.822435 
L 536.256033 77.112886 
L 537.102899 70.127606 
L 537.949765 77.25472 
L 538.796631 71.084979 
L 539.643497 71.581395 
L 540.490363 69.666648 
L 541.337229 69.347524 
L 542.184095 74.77264 
L 543.030961 71.971436 
L 543.877827 74.347141 
L 544.724693 74.488974 
L 545.571559 71.545937 
L 546.418425 74.311683 
L 547.265291 70.198523 
L 548.112157 69.170233 
L 548.959023 71.333187 
L 549.805889 71.439562 
L 550.652755 71.049521 
L 551.499621 70.411272 
L 552.346487 75.552722 
L 553.193353 70.233981 
L 554.040219 68.531984 
L 554.887085 67.113653 
L 555.733951 70.517647 
L 556.580817 71.68777 
L 557.427683 68.992941 
L 558.274548 73.921642 
L 559.121414 71.120438 
L 559.96828 69.985773 
L 560.815146 70.056689 
L 561.662012 70.553105 
L 562.508878 72.786977 
L 563.355744 79.488591 
L 564.20261 71.475021 
L 565.049476 72.609685 
L 565.896342 69.063858 
L 566.743208 69.099316 
L 567.590074 69.914856 
L 568.43694 72.538769 
L 569.283806 72.042353 
L 570.130672 70.978605 
L 570.977538 72.574227 
L 571.824404 73.247934 
L 572.67127 75.19814 
L 573.518136 68.81565 
L 575.211868 74.77264 
L 576.058734 68.744733 
L 576.9056 70.056689 
L 577.752466 70.588564 
L 578.599332 70.411272 
L 579.446198 74.311683 
L 580.293064 73.637975 
L 581.13993 70.056689 
L 581.986796 68.425609 
L 582.833662 70.482189 
L 584.527394 72.538769 
L 585.37426 71.935978 
L 586.221126 69.241149 
L 587.914858 71.616854 
L 588.761724 73.283393 
L 589.60859 69.028399 
L 590.455456 68.957483 
L 591.302322 71.262271 
L 592.149188 71.971436 
L 592.996054 74.382599 
L 593.84292 78.353926 
L 595.536652 73.886183 
L 596.383518 72.290561 
L 597.230384 72.006895 
L 598.07725 69.950315 
L 598.924116 72.893352 
L 599.770982 68.851108 
L 600.617848 71.581395 
L 601.464714 69.560274 
L 603.158446 70.87223 
L 604.005312 73.318851 
L 604.852178 70.021231 
L 605.699044 71.475021 
L 606.54591 74.16985 
L 607.392776 69.666648 
L 608.239642 68.177401 
L 609.086508 68.992941 
L 609.933374 70.056689 
L 610.78024 72.574227 
L 611.627106 69.134774 
L 612.473972 68.212859 
L 613.320838 70.588564 
L 614.167704 71.510479 
L 615.01457 69.84394 
L 615.861436 69.028399 
L 616.708302 69.914856 
L 617.555168 69.702107 
L 618.402034 75.056306 
L 619.2489 72.999726 
L 620.095766 70.482189 
L 620.942632 71.191354 
L 621.789498 72.609685 
L 622.636364 71.971436 
L 622.636364 71.971436 
" clip-path="url(#p6758d6b4e7)" style="fill: none; stroke: #ff7f0e; stroke-width: 1.5; stroke-linecap: square"/>
   </g>
   <g id="patch_3">
    <path d="M 90 384.48 
L 90 51.84 
" style="fill: none; stroke: #000000; stroke-width: 0.8; stroke-linejoin: miter; stroke-linecap: square"/>
   </g>
   <g id="patch_4">
    <path d="M 648 384.48 
L 648 51.84 
" style="fill: none; stroke: #000000; stroke-width: 0.8; stroke-linejoin: miter; stroke-linecap: square"/>
   </g>
   <g id="patch_5">
    <path d="M 90 384.48 
L 648 384.48 
" style="fill: none; stroke: #000000; stroke-width: 0.8; stroke-linejoin: miter; stroke-linecap: square"/>
   </g>
   <g id="patch_6">
    <path d="M 90 51.84 
L 648 51.84 
" style="fill: none; stroke: #000000; stroke-width: 0.8; stroke-linejoin: miter; stroke-linecap: square"/>
   </g>
   <g id="text_14">
    <!-- Training and Testing Accuracy (Learning Rate: 0.1) -->
    <g transform="translate(218.063437 45.84) scale(0.12 -0.12)">
     <defs>
      <path id="DejaVuSans-54" d="M -19 4666 
L 3928 4666 
L 3928 4134 
L 2272 4134 
L 2272 0 
L 1638 0 
L 1638 4134 
L -19 4134 
L -19 4666 
z
" transform="scale(0.015625)"/>
      <path id="DejaVuSans-67" d="M 2906 1791 
Q 2906 2416 2648 2759 
Q 2391 3103 1925 3103 
Q 1463 3103 1205 2759 
Q 947 2416 947 1791 
Q 947 1169 1205 825 
Q 1463 481 1925 481 
Q 2391 481 2648 825 
Q 2906 1169 2906 1791 
z
M 3481 434 
Q 3481 -459 3084 -895 
Q 2688 -1331 1869 -1331 
Q 1566 -1331 1297 -1286 
Q 1028 -1241 775 -1147 
L 775 -588 
Q 1028 -725 1275 -790 
Q 1522 -856 1778 -856 
Q 2344 -856 2625 -561 
Q 2906 -266 2906 331 
L 2906 616 
Q 2728 306 2450 153 
Q 2172 0 1784 0 
Q 1141 0 747 490 
Q 353 981 353 1791 
Q 353 2603 747 3093 
Q 1141 3584 1784 3584 
Q 2172 3584 2450 3431 
Q 2728 3278 2906 2969 
L 2906 3500 
L 3481 3500 
L 3481 434 
z
" transform="scale(0.015625)"/>
      <path id="DejaVuSans-20" transform="scale(0.015625)"/>
      <path id="DejaVuSans-64" d="M 2906 2969 
L 2906 4863 
L 3481 4863 
L 3481 0 
L 2906 0 
L 2906 525 
Q 2725 213 2448 61 
Q 2172 -91 1784 -91 
Q 1150 -91 751 415 
Q 353 922 353 1747 
Q 353 2572 751 3078 
Q 1150 3584 1784 3584 
Q 2172 3584 2448 3432 
Q 2725 3281 2906 2969 
z
M 947 1747 
Q 947 1113 1208 752 
Q 1469 391 1925 391 
Q 2381 391 2643 752 
Q 2906 1113 2906 1747 
Q 2906 2381 2643 2742 
Q 2381 3103 1925 3103 
Q 1469 3103 1208 2742 
Q 947 2381 947 1747 
z
" transform="scale(0.015625)"/>
      <path id="DejaVuSans-28" d="M 1984 4856 
Q 1566 4138 1362 3434 
Q 1159 2731 1159 2009 
Q 1159 1288 1364 580 
Q 1569 -128 1984 -844 
L 1484 -844 
Q 1016 -109 783 600 
Q 550 1309 550 2009 
Q 550 2706 781 3412 
Q 1013 4119 1484 4856 
L 1984 4856 
z
" transform="scale(0.015625)"/>
      <path id="DejaVuSans-4c" d="M 628 4666 
L 1259 4666 
L 1259 531 
L 3531 531 
L 3531 0 
L 628 0 
L 628 4666 
z
" transform="scale(0.015625)"/>
      <path id="DejaVuSans-52" d="M 2841 2188 
Q 3044 2119 3236 1894 
Q 3428 1669 3622 1275 
L 4263 0 
L 3584 0 
L 2988 1197 
Q 2756 1666 2539 1819 
Q 2322 1972 1947 1972 
L 1259 1972 
L 1259 0 
L 628 0 
L 628 4666 
L 2053 4666 
Q 2853 4666 3247 4331 
Q 3641 3997 3641 3322 
Q 3641 2881 3436 2590 
Q 3231 2300 2841 2188 
z
M 1259 4147 
L 1259 2491 
L 2053 2491 
Q 2509 2491 2742 2702 
Q 2975 2913 2975 3322 
Q 2975 3731 2742 3939 
Q 2509 4147 2053 4147 
L 1259 4147 
z
" transform="scale(0.015625)"/>
      <path id="DejaVuSans-3a" d="M 750 794 
L 1409 794 
L 1409 0 
L 750 0 
L 750 794 
z
M 750 3309 
L 1409 3309 
L 1409 2516 
L 750 2516 
L 750 3309 
z
" transform="scale(0.015625)"/>
      <path id="DejaVuSans-29" d="M 513 4856 
L 1013 4856 
Q 1481 4119 1714 3412 
Q 1947 2706 1947 2009 
Q 1947 1309 1714 600 
Q 1481 -109 1013 -844 
L 513 -844 
Q 928 -128 1133 580 
Q 1338 1288 1338 2009 
Q 1338 2731 1133 3434 
Q 928 4138 513 4856 
z
" transform="scale(0.015625)"/>
     </defs>
     <use xlink:href="#DejaVuSans-54"/>
     <use xlink:href="#DejaVuSans-72" x="46.333984"/>
     <use xlink:href="#DejaVuSans-61" x="87.447266"/>
     <use xlink:href="#DejaVuSans-69" x="148.726562"/>
     <use xlink:href="#DejaVuSans-6e" x="176.509766"/>
     <use xlink:href="#DejaVuSans-69" x="239.888672"/>
     <use xlink:href="#DejaVuSans-6e" x="267.671875"/>
     <use xlink:href="#DejaVuSans-67" x="331.050781"/>
     <use xlink:href="#DejaVuSans-20" x="394.527344"/>
     <use xlink:href="#DejaVuSans-61" x="426.314453"/>
     <use xlink:href="#DejaVuSans-6e" x="487.59375"/>
     <use xlink:href="#DejaVuSans-64" x="550.972656"/>
     <use xlink:href="#DejaVuSans-20" x="614.449219"/>
     <use xlink:href="#DejaVuSans-54" x="646.236328"/>
     <use xlink:href="#DejaVuSans-65" x="690.320312"/>
     <use xlink:href="#DejaVuSans-73" x="751.84375"/>
     <use xlink:href="#DejaVuSans-74" x="803.943359"/>
     <use xlink:href="#DejaVuSans-69" x="843.152344"/>
     <use xlink:href="#DejaVuSans-6e" x="870.935547"/>
     <use xlink:href="#DejaVuSans-67" x="934.314453"/>
     <use xlink:href="#DejaVuSans-20" x="997.791016"/>
     <use xlink:href="#DejaVuSans-41" x="1029.578125"/>
     <use xlink:href="#DejaVuSans-63" x="1096.236328"/>
     <use xlink:href="#DejaVuSans-63" x="1151.216797"/>
     <use xlink:href="#DejaVuSans-75" x="1206.197266"/>
     <use xlink:href="#DejaVuSans-72" x="1269.576172"/>
     <use xlink:href="#DejaVuSans-61" x="1310.689453"/>
     <use xlink:href="#DejaVuSans-63" x="1371.96875"/>
     <use xlink:href="#DejaVuSans-79" x="1426.949219"/>
     <use xlink:href="#DejaVuSans-20" x="1486.128906"/>
     <use xlink:href="#DejaVuSans-28" x="1517.916016"/>
     <use xlink:href="#DejaVuSans-4c" x="1556.929688"/>
     <use xlink:href="#DejaVuSans-65" x="1610.892578"/>
     <use xlink:href="#DejaVuSans-61" x="1672.416016"/>
     <use xlink:href="#DejaVuSans-72" x="1733.695312"/>
     <use xlink:href="#DejaVuSans-6e" x="1773.058594"/>
     <use xlink:href="#DejaVuSans-69" x="1836.4375"/>
     <use xlink:href="#DejaVuSans-6e" x="1864.220703"/>
     <use xlink:href="#DejaVuSans-67" x="1927.599609"/>
     <use xlink:href="#DejaVuSans-20" x="1991.076172"/>
     <use xlink:href="#DejaVuSans-52" x="2022.863281"/>
     <use xlink:href="#DejaVuSans-61" x="2090.095703"/>
     <use xlink:href="#DejaVuSans-74" x="2151.375"/>
     <use xlink:href="#DejaVuSans-65" x="2190.583984"/>
     <use xlink:href="#DejaVuSans-3a" x="2252.107422"/>
     <use xlink:href="#DejaVuSans-20" x="2285.798828"/>
     <use xlink:href="#DejaVuSans-30" x="2317.585938"/>
     <use xlink:href="#DejaVuSans-2e" x="2381.208984"/>
     <use xlink:href="#DejaVuSans-31" x="2412.996094"/>
     <use xlink:href="#DejaVuSans-29" x="2476.619141"/>
    </g>
   </g>
   <g id="legend_1">
    <g id="patch_7">
     <path d="M 520.714062 379.48 
L 641 379.48 
Q 643 379.48 643 377.48 
L 643 349.12375 
Q 643 347.12375 641 347.12375 
L 520.714062 347.12375 
Q 518.714062 347.12375 518.714062 349.12375 
L 518.714062 377.48 
Q 518.714062 379.48 520.714062 379.48 
z
" style="fill: #ffffff; opacity: 0.8; stroke: #cccccc; stroke-linejoin: miter"/>
    </g>
    <g id="line2d_14">
     <path d="M 522.714062 355.222188 
L 532.714062 355.222188 
L 542.714062 355.222188 
" style="fill: none; stroke: #1f77b4; stroke-width: 1.5; stroke-linecap: square"/>
    </g>
    <g id="text_15">
     <!-- Training Accuracy -->
     <g transform="translate(550.714062 358.722188) scale(0.1 -0.1)">
      <use xlink:href="#DejaVuSans-54"/>
      <use xlink:href="#DejaVuSans-72" x="46.333984"/>
      <use xlink:href="#DejaVuSans-61" x="87.447266"/>
      <use xlink:href="#DejaVuSans-69" x="148.726562"/>
      <use xlink:href="#DejaVuSans-6e" x="176.509766"/>
      <use xlink:href="#DejaVuSans-69" x="239.888672"/>
      <use xlink:href="#DejaVuSans-6e" x="267.671875"/>
      <use xlink:href="#DejaVuSans-67" x="331.050781"/>
      <use xlink:href="#DejaVuSans-20" x="394.527344"/>
      <use xlink:href="#DejaVuSans-41" x="426.314453"/>
      <use xlink:href="#DejaVuSans-63" x="492.972656"/>
      <use xlink:href="#DejaVuSans-63" x="547.953125"/>
      <use xlink:href="#DejaVuSans-75" x="602.933594"/>
      <use xlink:href="#DejaVuSans-72" x="666.3125"/>
      <use xlink:href="#DejaVuSans-61" x="707.425781"/>
      <use xlink:href="#DejaVuSans-63" x="768.705078"/>
      <use xlink:href="#DejaVuSans-79" x="823.685547"/>
     </g>
    </g>
    <g id="line2d_15">
     <path d="M 522.714062 369.900312 
L 532.714062 369.900312 
L 542.714062 369.900312 
" style="fill: none; stroke: #ff7f0e; stroke-width: 1.5; stroke-linecap: square"/>
    </g>
    <g id="text_16">
     <!-- Testing Accuracy -->
     <g transform="translate(550.714062 373.400312) scale(0.1 -0.1)">
      <use xlink:href="#DejaVuSans-54"/>
      <use xlink:href="#DejaVuSans-65" x="44.083984"/>
      <use xlink:href="#DejaVuSans-73" x="105.607422"/>
      <use xlink:href="#DejaVuSans-74" x="157.707031"/>
      <use xlink:href="#DejaVuSans-69" x="196.916016"/>
      <use xlink:href="#DejaVuSans-6e" x="224.699219"/>
      <use xlink:href="#DejaVuSans-67" x="288.078125"/>
      <use xlink:href="#DejaVuSans-20" x="351.554688"/>
      <use xlink:href="#DejaVuSans-41" x="383.341797"/>
      <use xlink:href="#DejaVuSans-63" x="450"/>
      <use xlink:href="#DejaVuSans-63" x="504.980469"/>
      <use xlink:href="#DejaVuSans-75" x="559.960938"/>
      <use xlink:href="#DejaVuSans-72" x="623.339844"/>
      <use xlink:href="#DejaVuSans-61" x="664.453125"/>
      <use xlink:href="#DejaVuSans-63" x="725.732422"/>
      <use xlink:href="#DejaVuSans-79" x="780.712891"/>
     </g>
    </g>
   </g>
  </g>
 </g>
 <defs>
  <clipPath id="p6758d6b4e7">
   <rect x="90" y="51.84" width="558" height="332.64"/>
  </clipPath>
 </defs>
</svg>
