<?xml version="1.0" encoding="utf-8" standalone="no"?>
<!DOCTYPE svg PUBLIC "-//W3C//DTD SVG 1.1//EN"
  "http://www.w3.org/Graphics/SVG/1.1/DTD/svg11.dtd">
<svg xmlns:xlink="http://www.w3.org/1999/xlink" width="720pt" height="432pt" viewBox="0 0 720 432" xmlns="http://www.w3.org/2000/svg" version="1.1">
 <metadata>
  <rdf:RDF xmlns:dc="http://purl.org/dc/elements/1.1/" xmlns:cc="http://creativecommons.org/ns#" xmlns:rdf="http://www.w3.org/1999/02/22-rdf-syntax-ns#">
   <cc:Work>
    <dc:type rdf:resource="http://purl.org/dc/dcmitype/StillImage"/>
    <dc:date>2024-05-19T16:47:39.586657</dc:date>
    <dc:format>image/svg+xml</dc:format>
    <dc:creator>
     <cc:Agent>
      <dc:title>Matplotlib v3.6.2, https://matplotlib.org/</dc:title>
     </cc:Agent>
    </dc:creator>
   </cc:Work>
  </rdf:RDF>
 </metadata>
 <defs>
  <style type="text/css">*{stroke-linejoin: round; stroke-linecap: butt}</style>
 </defs>
 <g id="figure_1">
  <g id="patch_1">
   <path d="M 0 432 
L 720 432 
L 720 0 
L 0 0 
z
" style="fill: #ffffff"/>
  </g>
  <g id="axes_1">
   <g id="patch_2">
    <path d="M 90 384.48 
L 648 384.48 
L 648 51.84 
L 90 51.84 
z
" style="fill: #ffffff"/>
   </g>
   <g id="matplotlib.axis_1">
    <g id="xtick_1">
     <g id="line2d_1">
      <path d="M 115.363636 384.48 
L 115.363636 51.84 
" clip-path="url(#pd5aadbbe1a)" style="fill: none; stroke: #b0b0b0; stroke-width: 0.8; stroke-linecap: square"/>
     </g>
     <g id="line2d_2">
      <defs>
       <path id="md688fd3d6a" d="M 0 0 
L 0 3.5 
" style="stroke: #000000; stroke-width: 0.8"/>
      </defs>
      <g>
       <use xlink:href="#md688fd3d6a" x="115.363636" y="384.48" style="stroke: #000000; stroke-width: 0.8"/>
      </g>
     </g>
     <g id="text_1">
      <!-- 0 -->
      <g transform="translate(112.182386 399.078438) scale(0.1 -0.1)">
       <defs>
        <path id="DejaVuSans-30" d="M 2034 4250 
Q 1547 4250 1301 3770 
Q 1056 3291 1056 2328 
Q 1056 1369 1301 889 
Q 1547 409 2034 409 
Q 2525 409 2770 889 
Q 3016 1369 3016 2328 
Q 3016 3291 2770 3770 
Q 2525 4250 2034 4250 
z
M 2034 4750 
Q 2819 4750 3233 4129 
Q 3647 3509 3647 2328 
Q 3647 1150 3233 529 
Q 2819 -91 2034 -91 
Q 1250 -91 836 529 
Q 422 1150 422 2328 
Q 422 3509 836 4129 
Q 1250 4750 2034 4750 
z
" transform="scale(0.015625)"/>
       </defs>
       <use xlink:href="#DejaVuSans-30"/>
      </g>
     </g>
    </g>
    <g id="xtick_2">
     <g id="line2d_3">
      <path d="M 200.050235 384.48 
L 200.050235 51.84 
" clip-path="url(#pd5aadbbe1a)" style="fill: none; stroke: #b0b0b0; stroke-width: 0.8; stroke-linecap: square"/>
     </g>
     <g id="line2d_4">
      <g>
       <use xlink:href="#md688fd3d6a" x="200.050235" y="384.48" style="stroke: #000000; stroke-width: 0.8"/>
      </g>
     </g>
     <g id="text_2">
      <!-- 10000 -->
      <g transform="translate(184.143985 399.078438) scale(0.1 -0.1)">
       <defs>
        <path id="DejaVuSans-31" d="M 794 531 
L 1825 531 
L 1825 4091 
L 703 3866 
L 703 4441 
L 1819 4666 
L 2450 4666 
L 2450 531 
L 3481 531 
L 3481 0 
L 794 0 
L 794 531 
z
" transform="scale(0.015625)"/>
       </defs>
       <use xlink:href="#DejaVuSans-31"/>
       <use xlink:href="#DejaVuSans-30" x="63.623047"/>
       <use xlink:href="#DejaVuSans-30" x="127.246094"/>
       <use xlink:href="#DejaVuSans-30" x="190.869141"/>
       <use xlink:href="#DejaVuSans-30" x="254.492188"/>
      </g>
     </g>
    </g>
    <g id="xtick_3">
     <g id="line2d_5">
      <path d="M 284.736834 384.48 
L 284.736834 51.84 
" clip-path="url(#pd5aadbbe1a)" style="fill: none; stroke: #b0b0b0; stroke-width: 0.8; stroke-linecap: square"/>
     </g>
     <g id="line2d_6">
      <g>
       <use xlink:href="#md688fd3d6a" x="284.736834" y="384.48" style="stroke: #000000; stroke-width: 0.8"/>
      </g>
     </g>
     <g id="text_3">
      <!-- 20000 -->
      <g transform="translate(268.830584 399.078438) scale(0.1 -0.1)">
       <defs>
        <path id="DejaVuSans-32" d="M 1228 531 
L 3431 531 
L 3431 0 
L 469 0 
L 469 531 
Q 828 903 1448 1529 
Q 2069 2156 2228 2338 
Q 2531 2678 2651 2914 
Q 2772 3150 2772 3378 
Q 2772 3750 2511 3984 
Q 2250 4219 1831 4219 
Q 1534 4219 1204 4116 
Q 875 4013 500 3803 
L 500 4441 
Q 881 4594 1212 4672 
Q 1544 4750 1819 4750 
Q 2544 4750 2975 4387 
Q 3406 4025 3406 3419 
Q 3406 3131 3298 2873 
Q 3191 2616 2906 2266 
Q 2828 2175 2409 1742 
Q 1991 1309 1228 531 
z
" transform="scale(0.015625)"/>
       </defs>
       <use xlink:href="#DejaVuSans-32"/>
       <use xlink:href="#DejaVuSans-30" x="63.623047"/>
       <use xlink:href="#DejaVuSans-30" x="127.246094"/>
       <use xlink:href="#DejaVuSans-30" x="190.869141"/>
       <use xlink:href="#DejaVuSans-30" x="254.492188"/>
      </g>
     </g>
    </g>
    <g id="xtick_4">
     <g id="line2d_7">
      <path d="M 369.423433 384.48 
L 369.423433 51.84 
" clip-path="url(#pd5aadbbe1a)" style="fill: none; stroke: #b0b0b0; stroke-width: 0.8; stroke-linecap: square"/>
     </g>
     <g id="line2d_8">
      <g>
       <use xlink:href="#md688fd3d6a" x="369.423433" y="384.48" style="stroke: #000000; stroke-width: 0.8"/>
      </g>
     </g>
     <g id="text_4">
      <!-- 30000 -->
      <g transform="translate(353.517183 399.078438) scale(0.1 -0.1)">
       <defs>
        <path id="DejaVuSans-33" d="M 2597 2516 
Q 3050 2419 3304 2112 
Q 3559 1806 3559 1356 
Q 3559 666 3084 287 
Q 2609 -91 1734 -91 
Q 1441 -91 1130 -33 
Q 819 25 488 141 
L 488 750 
Q 750 597 1062 519 
Q 1375 441 1716 441 
Q 2309 441 2620 675 
Q 2931 909 2931 1356 
Q 2931 1769 2642 2001 
Q 2353 2234 1838 2234 
L 1294 2234 
L 1294 2753 
L 1863 2753 
Q 2328 2753 2575 2939 
Q 2822 3125 2822 3475 
Q 2822 3834 2567 4026 
Q 2313 4219 1838 4219 
Q 1578 4219 1281 4162 
Q 984 4106 628 3988 
L 628 4550 
Q 988 4650 1302 4700 
Q 1616 4750 1894 4750 
Q 2613 4750 3031 4423 
Q 3450 4097 3450 3541 
Q 3450 3153 3228 2886 
Q 3006 2619 2597 2516 
z
" transform="scale(0.015625)"/>
       </defs>
       <use xlink:href="#DejaVuSans-33"/>
       <use xlink:href="#DejaVuSans-30" x="63.623047"/>
       <use xlink:href="#DejaVuSans-30" x="127.246094"/>
       <use xlink:href="#DejaVuSans-30" x="190.869141"/>
       <use xlink:href="#DejaVuSans-30" x="254.492188"/>
      </g>
     </g>
    </g>
    <g id="xtick_5">
     <g id="line2d_9">
      <path d="M 454.110032 384.48 
L 454.110032 51.84 
" clip-path="url(#pd5aadbbe1a)" style="fill: none; stroke: #b0b0b0; stroke-width: 0.8; stroke-linecap: square"/>
     </g>
     <g id="line2d_10">
      <g>
       <use xlink:href="#md688fd3d6a" x="454.110032" y="384.48" style="stroke: #000000; stroke-width: 0.8"/>
      </g>
     </g>
     <g id="text_5">
      <!-- 40000 -->
      <g transform="translate(438.203782 399.078438) scale(0.1 -0.1)">
       <defs>
        <path id="DejaVuSans-34" d="M 2419 4116 
L 825 1625 
L 2419 1625 
L 2419 4116 
z
M 2253 4666 
L 3047 4666 
L 3047 1625 
L 3713 1625 
L 3713 1100 
L 3047 1100 
L 3047 0 
L 2419 0 
L 2419 1100 
L 313 1100 
L 313 1709 
L 2253 4666 
z
" transform="scale(0.015625)"/>
       </defs>
       <use xlink:href="#DejaVuSans-34"/>
       <use xlink:href="#DejaVuSans-30" x="63.623047"/>
       <use xlink:href="#DejaVuSans-30" x="127.246094"/>
       <use xlink:href="#DejaVuSans-30" x="190.869141"/>
       <use xlink:href="#DejaVuSans-30" x="254.492188"/>
      </g>
     </g>
    </g>
    <g id="xtick_6">
     <g id="line2d_11">
      <path d="M 538.796631 384.48 
L 538.796631 51.84 
" clip-path="url(#pd5aadbbe1a)" style="fill: none; stroke: #b0b0b0; stroke-width: 0.8; stroke-linecap: square"/>
     </g>
     <g id="line2d_12">
      <g>
       <use xlink:href="#md688fd3d6a" x="538.796631" y="384.48" style="stroke: #000000; stroke-width: 0.8"/>
      </g>
     </g>
     <g id="text_6">
      <!-- 50000 -->
      <g transform="translate(522.890381 399.078438) scale(0.1 -0.1)">
       <defs>
        <path id="DejaVuSans-35" d="M 691 4666 
L 3169 4666 
L 3169 4134 
L 1269 4134 
L 1269 2991 
Q 1406 3038 1543 3061 
Q 1681 3084 1819 3084 
Q 2600 3084 3056 2656 
Q 3513 2228 3513 1497 
Q 3513 744 3044 326 
Q 2575 -91 1722 -91 
Q 1428 -91 1123 -41 
Q 819 9 494 109 
L 494 744 
Q 775 591 1075 516 
Q 1375 441 1709 441 
Q 2250 441 2565 725 
Q 2881 1009 2881 1497 
Q 2881 1984 2565 2268 
Q 2250 2553 1709 2553 
Q 1456 2553 1204 2497 
Q 953 2441 691 2322 
L 691 4666 
z
" transform="scale(0.015625)"/>
       </defs>
       <use xlink:href="#DejaVuSans-35"/>
       <use xlink:href="#DejaVuSans-30" x="63.623047"/>
       <use xlink:href="#DejaVuSans-30" x="127.246094"/>
       <use xlink:href="#DejaVuSans-30" x="190.869141"/>
       <use xlink:href="#DejaVuSans-30" x="254.492188"/>
      </g>
     </g>
    </g>
    <g id="xtick_7">
     <g id="line2d_13">
      <path d="M 623.48323 384.48 
L 623.48323 51.84 
" clip-path="url(#pd5aadbbe1a)" style="fill: none; stroke: #b0b0b0; stroke-width: 0.8; stroke-linecap: square"/>
     </g>
     <g id="line2d_14">
      <g>
       <use xlink:href="#md688fd3d6a" x="623.48323" y="384.48" style="stroke: #000000; stroke-width: 0.8"/>
      </g>
     </g>
     <g id="text_7">
      <!-- 60000 -->
      <g transform="translate(607.57698 399.078438) scale(0.1 -0.1)">
       <defs>
        <path id="DejaVuSans-36" d="M 2113 2584 
Q 1688 2584 1439 2293 
Q 1191 2003 1191 1497 
Q 1191 994 1439 701 
Q 1688 409 2113 409 
Q 2538 409 2786 701 
Q 3034 994 3034 1497 
Q 3034 2003 2786 2293 
Q 2538 2584 2113 2584 
z
M 3366 4563 
L 3366 3988 
Q 3128 4100 2886 4159 
Q 2644 4219 2406 4219 
Q 1781 4219 1451 3797 
Q 1122 3375 1075 2522 
Q 1259 2794 1537 2939 
Q 1816 3084 2150 3084 
Q 2853 3084 3261 2657 
Q 3669 2231 3669 1497 
Q 3669 778 3244 343 
Q 2819 -91 2113 -91 
Q 1303 -91 875 529 
Q 447 1150 447 2328 
Q 447 3434 972 4092 
Q 1497 4750 2381 4750 
Q 2619 4750 2861 4703 
Q 3103 4656 3366 4563 
z
" transform="scale(0.015625)"/>
       </defs>
       <use xlink:href="#DejaVuSans-36"/>
       <use xlink:href="#DejaVuSans-30" x="63.623047"/>
       <use xlink:href="#DejaVuSans-30" x="127.246094"/>
       <use xlink:href="#DejaVuSans-30" x="190.869141"/>
       <use xlink:href="#DejaVuSans-30" x="254.492188"/>
      </g>
     </g>
    </g>
    <g id="text_8">
     <!-- Iterations -->
     <g transform="translate(335.661406 415.795938) scale(0.14 -0.14)">
      <defs>
       <path id="DejaVuSans-49" d="M 628 4666 
L 1259 4666 
L 1259 0 
L 628 0 
L 628 4666 
z
" transform="scale(0.015625)"/>
       <path id="DejaVuSans-74" d="M 1172 4494 
L 1172 3500 
L 2356 3500 
L 2356 3053 
L 1172 3053 
L 1172 1153 
Q 1172 725 1289 603 
Q 1406 481 1766 481 
L 2356 481 
L 2356 0 
L 1766 0 
Q 1100 0 847 248 
Q 594 497 594 1153 
L 594 3053 
L 172 3053 
L 172 3500 
L 594 3500 
L 594 4494 
L 1172 4494 
z
" transform="scale(0.015625)"/>
       <path id="DejaVuSans-65" d="M 3597 1894 
L 3597 1613 
L 953 1613 
Q 991 1019 1311 708 
Q 1631 397 2203 397 
Q 2534 397 2845 478 
Q 3156 559 3463 722 
L 3463 178 
Q 3153 47 2828 -22 
Q 2503 -91 2169 -91 
Q 1331 -91 842 396 
Q 353 884 353 1716 
Q 353 2575 817 3079 
Q 1281 3584 2069 3584 
Q 2775 3584 3186 3129 
Q 3597 2675 3597 1894 
z
M 3022 2063 
Q 3016 2534 2758 2815 
Q 2500 3097 2075 3097 
Q 1594 3097 1305 2825 
Q 1016 2553 972 2059 
L 3022 2063 
z
" transform="scale(0.015625)"/>
       <path id="DejaVuSans-72" d="M 2631 2963 
Q 2534 3019 2420 3045 
Q 2306 3072 2169 3072 
Q 1681 3072 1420 2755 
Q 1159 2438 1159 1844 
L 1159 0 
L 581 0 
L 581 3500 
L 1159 3500 
L 1159 2956 
Q 1341 3275 1631 3429 
Q 1922 3584 2338 3584 
Q 2397 3584 2469 3576 
Q 2541 3569 2628 3553 
L 2631 2963 
z
" transform="scale(0.015625)"/>
       <path id="DejaVuSans-61" d="M 2194 1759 
Q 1497 1759 1228 1600 
Q 959 1441 959 1056 
Q 959 750 1161 570 
Q 1363 391 1709 391 
Q 2188 391 2477 730 
Q 2766 1069 2766 1631 
L 2766 1759 
L 2194 1759 
z
M 3341 1997 
L 3341 0 
L 2766 0 
L 2766 531 
Q 2569 213 2275 61 
Q 1981 -91 1556 -91 
Q 1019 -91 701 211 
Q 384 513 384 1019 
Q 384 1609 779 1909 
Q 1175 2209 1959 2209 
L 2766 2209 
L 2766 2266 
Q 2766 2663 2505 2880 
Q 2244 3097 1772 3097 
Q 1472 3097 1187 3025 
Q 903 2953 641 2809 
L 641 3341 
Q 956 3463 1253 3523 
Q 1550 3584 1831 3584 
Q 2591 3584 2966 3190 
Q 3341 2797 3341 1997 
z
" transform="scale(0.015625)"/>
       <path id="DejaVuSans-69" d="M 603 3500 
L 1178 3500 
L 1178 0 
L 603 0 
L 603 3500 
z
M 603 4863 
L 1178 4863 
L 1178 4134 
L 603 4134 
L 603 4863 
z
" transform="scale(0.015625)"/>
       <path id="DejaVuSans-6f" d="M 1959 3097 
Q 1497 3097 1228 2736 
Q 959 2375 959 1747 
Q 959 1119 1226 758 
Q 1494 397 1959 397 
Q 2419 397 2687 759 
Q 2956 1122 2956 1747 
Q 2956 2369 2687 2733 
Q 2419 3097 1959 3097 
z
M 1959 3584 
Q 2709 3584 3137 3096 
Q 3566 2609 3566 1747 
Q 3566 888 3137 398 
Q 2709 -91 1959 -91 
Q 1206 -91 779 398 
Q 353 888 353 1747 
Q 353 2609 779 3096 
Q 1206 3584 1959 3584 
z
" transform="scale(0.015625)"/>
       <path id="DejaVuSans-6e" d="M 3513 2113 
L 3513 0 
L 2938 0 
L 2938 2094 
Q 2938 2591 2744 2837 
Q 2550 3084 2163 3084 
Q 1697 3084 1428 2787 
Q 1159 2491 1159 1978 
L 1159 0 
L 581 0 
L 581 3500 
L 1159 3500 
L 1159 2956 
Q 1366 3272 1645 3428 
Q 1925 3584 2291 3584 
Q 2894 3584 3203 3211 
Q 3513 2838 3513 2113 
z
" transform="scale(0.015625)"/>
       <path id="DejaVuSans-73" d="M 2834 3397 
L 2834 2853 
Q 2591 2978 2328 3040 
Q 2066 3103 1784 3103 
Q 1356 3103 1142 2972 
Q 928 2841 928 2578 
Q 928 2378 1081 2264 
Q 1234 2150 1697 2047 
L 1894 2003 
Q 2506 1872 2764 1633 
Q 3022 1394 3022 966 
Q 3022 478 2636 193 
Q 2250 -91 1575 -91 
Q 1294 -91 989 -36 
Q 684 19 347 128 
L 347 722 
Q 666 556 975 473 
Q 1284 391 1588 391 
Q 1994 391 2212 530 
Q 2431 669 2431 922 
Q 2431 1156 2273 1281 
Q 2116 1406 1581 1522 
L 1381 1569 
Q 847 1681 609 1914 
Q 372 2147 372 2553 
Q 372 3047 722 3315 
Q 1072 3584 1716 3584 
Q 2034 3584 2315 3537 
Q 2597 3491 2834 3397 
z
" transform="scale(0.015625)"/>
      </defs>
      <use xlink:href="#DejaVuSans-49"/>
      <use xlink:href="#DejaVuSans-74" x="29.492188"/>
      <use xlink:href="#DejaVuSans-65" x="68.701172"/>
      <use xlink:href="#DejaVuSans-72" x="130.224609"/>
      <use xlink:href="#DejaVuSans-61" x="171.337891"/>
      <use xlink:href="#DejaVuSans-74" x="232.617188"/>
      <use xlink:href="#DejaVuSans-69" x="271.826172"/>
      <use xlink:href="#DejaVuSans-6f" x="299.609375"/>
      <use xlink:href="#DejaVuSans-6e" x="360.791016"/>
      <use xlink:href="#DejaVuSans-73" x="424.169922"/>
     </g>
    </g>
   </g>
   <g id="matplotlib.axis_2">
    <g id="ytick_1">
     <g id="line2d_15">
      <path d="M 90 384.48 
L 648 384.48 
" clip-path="url(#pd5aadbbe1a)" style="fill: none; stroke: #b0b0b0; stroke-width: 0.8; stroke-linecap: square"/>
     </g>
     <g id="line2d_16">
      <defs>
       <path id="ma8f5ae14ed" d="M 0 0 
L -3.5 0 
" style="stroke: #000000; stroke-width: 0.8"/>
      </defs>
      <g>
       <use xlink:href="#ma8f5ae14ed" x="90" y="384.48" style="stroke: #000000; stroke-width: 0.8"/>
      </g>
     </g>
     <g id="text_9">
      <!-- 0.0 -->
      <g transform="translate(67.096875 388.279219) scale(0.1 -0.1)">
       <defs>
        <path id="DejaVuSans-2e" d="M 684 794 
L 1344 794 
L 1344 0 
L 684 0 
L 684 794 
z
" transform="scale(0.015625)"/>
       </defs>
       <use xlink:href="#DejaVuSans-30"/>
       <use xlink:href="#DejaVuSans-2e" x="63.623047"/>
       <use xlink:href="#DejaVuSans-30" x="95.410156"/>
      </g>
     </g>
    </g>
    <g id="ytick_2">
     <g id="line2d_17">
      <path d="M 90 317.952 
L 648 317.952 
" clip-path="url(#pd5aadbbe1a)" style="fill: none; stroke: #b0b0b0; stroke-width: 0.8; stroke-linecap: square"/>
     </g>
     <g id="line2d_18">
      <g>
       <use xlink:href="#ma8f5ae14ed" x="90" y="317.952" style="stroke: #000000; stroke-width: 0.8"/>
      </g>
     </g>
     <g id="text_10">
      <!-- 0.2 -->
      <g transform="translate(67.096875 321.751219) scale(0.1 -0.1)">
       <use xlink:href="#DejaVuSans-30"/>
       <use xlink:href="#DejaVuSans-2e" x="63.623047"/>
       <use xlink:href="#DejaVuSans-32" x="95.410156"/>
      </g>
     </g>
    </g>
    <g id="ytick_3">
     <g id="line2d_19">
      <path d="M 90 251.424 
L 648 251.424 
" clip-path="url(#pd5aadbbe1a)" style="fill: none; stroke: #b0b0b0; stroke-width: 0.8; stroke-linecap: square"/>
     </g>
     <g id="line2d_20">
      <g>
       <use xlink:href="#ma8f5ae14ed" x="90" y="251.424" style="stroke: #000000; stroke-width: 0.8"/>
      </g>
     </g>
     <g id="text_11">
      <!-- 0.4 -->
      <g transform="translate(67.096875 255.223219) scale(0.1 -0.1)">
       <use xlink:href="#DejaVuSans-30"/>
       <use xlink:href="#DejaVuSans-2e" x="63.623047"/>
       <use xlink:href="#DejaVuSans-34" x="95.410156"/>
      </g>
     </g>
    </g>
    <g id="ytick_4">
     <g id="line2d_21">
      <path d="M 90 184.896 
L 648 184.896 
" clip-path="url(#pd5aadbbe1a)" style="fill: none; stroke: #b0b0b0; stroke-width: 0.8; stroke-linecap: square"/>
     </g>
     <g id="line2d_22">
      <g>
       <use xlink:href="#ma8f5ae14ed" x="90" y="184.896" style="stroke: #000000; stroke-width: 0.8"/>
      </g>
     </g>
     <g id="text_12">
      <!-- 0.6 -->
      <g transform="translate(67.096875 188.695219) scale(0.1 -0.1)">
       <use xlink:href="#DejaVuSans-30"/>
       <use xlink:href="#DejaVuSans-2e" x="63.623047"/>
       <use xlink:href="#DejaVuSans-36" x="95.410156"/>
      </g>
     </g>
    </g>
    <g id="ytick_5">
     <g id="line2d_23">
      <path d="M 90 118.368 
L 648 118.368 
" clip-path="url(#pd5aadbbe1a)" style="fill: none; stroke: #b0b0b0; stroke-width: 0.8; stroke-linecap: square"/>
     </g>
     <g id="line2d_24">
      <g>
       <use xlink:href="#ma8f5ae14ed" x="90" y="118.368" style="stroke: #000000; stroke-width: 0.8"/>
      </g>
     </g>
     <g id="text_13">
      <!-- 0.8 -->
      <g transform="translate(67.096875 122.167219) scale(0.1 -0.1)">
       <defs>
        <path id="DejaVuSans-38" d="M 2034 2216 
Q 1584 2216 1326 1975 
Q 1069 1734 1069 1313 
Q 1069 891 1326 650 
Q 1584 409 2034 409 
Q 2484 409 2743 651 
Q 3003 894 3003 1313 
Q 3003 1734 2745 1975 
Q 2488 2216 2034 2216 
z
M 1403 2484 
Q 997 2584 770 2862 
Q 544 3141 544 3541 
Q 544 4100 942 4425 
Q 1341 4750 2034 4750 
Q 2731 4750 3128 4425 
Q 3525 4100 3525 3541 
Q 3525 3141 3298 2862 
Q 3072 2584 2669 2484 
Q 3125 2378 3379 2068 
Q 3634 1759 3634 1313 
Q 3634 634 3220 271 
Q 2806 -91 2034 -91 
Q 1263 -91 848 271 
Q 434 634 434 1313 
Q 434 1759 690 2068 
Q 947 2378 1403 2484 
z
M 1172 3481 
Q 1172 3119 1398 2916 
Q 1625 2713 2034 2713 
Q 2441 2713 2670 2916 
Q 2900 3119 2900 3481 
Q 2900 3844 2670 4047 
Q 2441 4250 2034 4250 
Q 1625 4250 1398 4047 
Q 1172 3844 1172 3481 
z
" transform="scale(0.015625)"/>
       </defs>
       <use xlink:href="#DejaVuSans-30"/>
       <use xlink:href="#DejaVuSans-2e" x="63.623047"/>
       <use xlink:href="#DejaVuSans-38" x="95.410156"/>
      </g>
     </g>
    </g>
    <g id="ytick_6">
     <g id="line2d_25">
      <path d="M 90 51.84 
L 648 51.84 
" clip-path="url(#pd5aadbbe1a)" style="fill: none; stroke: #b0b0b0; stroke-width: 0.8; stroke-linecap: square"/>
     </g>
     <g id="line2d_26">
      <g>
       <use xlink:href="#ma8f5ae14ed" x="90" y="51.84" style="stroke: #000000; stroke-width: 0.8"/>
      </g>
     </g>
     <g id="text_14">
      <!-- 1.0 -->
      <g transform="translate(67.096875 55.639219) scale(0.1 -0.1)">
       <use xlink:href="#DejaVuSans-31"/>
       <use xlink:href="#DejaVuSans-2e" x="63.623047"/>
       <use xlink:href="#DejaVuSans-30" x="95.410156"/>
      </g>
     </g>
    </g>
    <g id="text_15">
     <!-- Accuracy -->
     <g transform="translate(60.185312 250.119375) rotate(-90) scale(0.14 -0.14)">
      <defs>
       <path id="DejaVuSans-41" d="M 2188 4044 
L 1331 1722 
L 3047 1722 
L 2188 4044 
z
M 1831 4666 
L 2547 4666 
L 4325 0 
L 3669 0 
L 3244 1197 
L 1141 1197 
L 716 0 
L 50 0 
L 1831 4666 
z
" transform="scale(0.015625)"/>
       <path id="DejaVuSans-63" d="M 3122 3366 
L 3122 2828 
Q 2878 2963 2633 3030 
Q 2388 3097 2138 3097 
Q 1578 3097 1268 2742 
Q 959 2388 959 1747 
Q 959 1106 1268 751 
Q 1578 397 2138 397 
Q 2388 397 2633 464 
Q 2878 531 3122 666 
L 3122 134 
Q 2881 22 2623 -34 
Q 2366 -91 2075 -91 
Q 1284 -91 818 406 
Q 353 903 353 1747 
Q 353 2603 823 3093 
Q 1294 3584 2113 3584 
Q 2378 3584 2631 3529 
Q 2884 3475 3122 3366 
z
" transform="scale(0.015625)"/>
       <path id="DejaVuSans-75" d="M 544 1381 
L 544 3500 
L 1119 3500 
L 1119 1403 
Q 1119 906 1312 657 
Q 1506 409 1894 409 
Q 2359 409 2629 706 
Q 2900 1003 2900 1516 
L 2900 3500 
L 3475 3500 
L 3475 0 
L 2900 0 
L 2900 538 
Q 2691 219 2414 64 
Q 2138 -91 1772 -91 
Q 1169 -91 856 284 
Q 544 659 544 1381 
z
M 1991 3584 
L 1991 3584 
z
" transform="scale(0.015625)"/>
       <path id="DejaVuSans-79" d="M 2059 -325 
Q 1816 -950 1584 -1140 
Q 1353 -1331 966 -1331 
L 506 -1331 
L 506 -850 
L 844 -850 
Q 1081 -850 1212 -737 
Q 1344 -625 1503 -206 
L 1606 56 
L 191 3500 
L 800 3500 
L 1894 763 
L 2988 3500 
L 3597 3500 
L 2059 -325 
z
" transform="scale(0.015625)"/>
      </defs>
      <use xlink:href="#DejaVuSans-41"/>
      <use xlink:href="#DejaVuSans-63" x="66.658203"/>
      <use xlink:href="#DejaVuSans-63" x="121.638672"/>
      <use xlink:href="#DejaVuSans-75" x="176.619141"/>
      <use xlink:href="#DejaVuSans-72" x="239.998047"/>
      <use xlink:href="#DejaVuSans-61" x="281.111328"/>
      <use xlink:href="#DejaVuSans-63" x="342.390625"/>
      <use xlink:href="#DejaVuSans-79" x="397.371094"/>
     </g>
    </g>
   </g>
   <g id="line2d_27">
    <path d="M 115.363636 355.551408 
L 116.210502 195.767784 
L 117.057368 150.950088 
L 117.904234 147.7512 
L 118.7511 131.2578 
L 119.597966 150.223824 
L 120.444832 121.910616 
L 121.291698 132.3666 
L 122.138564 111.449088 
L 122.98543 114.891912 
L 123.832296 133.054056 
L 124.679162 116.361072 
L 125.526028 102.977856 
L 126.372894 107.063784 
L 127.21976 105.722136 
L 128.066626 96.031224 
L 128.913492 102.40128 
L 129.760358 104.552352 
L 130.607224 104.28624 
L 131.45409 101.647296 
L 132.300956 106.315344 
L 133.147822 114.659064 
L 133.994688 95.327136 
L 134.841554 93.547512 
L 135.68842 95.83164 
L 136.535286 98.830944 
L 137.382152 94.33476 
L 138.229018 94.384656 
L 139.075884 98.63136 
L 139.92275 97.844112 
L 140.769616 90.997272 
L 141.616482 102.140712 
L 142.463348 92.028456 
L 143.310214 93.880152 
L 144.15708 101.381184 
L 145.003946 94.61196 
L 145.850812 93.53088 
L 146.697678 97.711056 
L 147.544544 95.02776 
L 148.39141 87.587712 
L 149.238276 90.082512 
L 150.085142 91.579392 
L 150.932008 93.869064 
L 151.778874 95.338224 
L 152.62574 88.2918 
L 153.472606 89.943912 
L 154.319472 88.241904 
L 155.166338 96.491376 
L 156.013204 94.36248 
L 156.86007 86.745024 
L 157.706936 86.040936 
L 158.553802 90.5094 
L 159.400668 91.734624 
L 160.247534 92.39436 
L 161.0944 88.524648 
L 161.941266 88.65216 
L 162.788132 91.917576 
L 163.634998 87.720768 
L 164.481864 93.658392 
L 165.32873 87.5988 
L 166.175596 85.508712 
L 167.022462 92.1726 
L 167.869328 86.728392 
L 168.716194 92.94876 
L 169.56306 89.162208 
L 170.409926 92.582856 
L 171.256792 86.678496 
L 172.103658 84.860064 
L 172.950524 93.209328 
L 173.79739 89.112312 
L 174.644256 87.0444 
L 175.491122 91.135872 
L 176.337988 85.203792 
L 177.184854 85.115088 
L 178.03172 85.536432 
L 178.878586 86.950152 
L 179.725452 90.237744 
L 180.572317 87.604344 
L 181.419183 87.776208 
L 182.266049 95.449104 
L 183.112915 86.761656 
L 183.959781 83.152512 
L 184.806647 93.564144 
L 185.653513 91.274472 
L 186.500379 81.356256 
L 187.347245 87.504552 
L 188.194111 86.417928 
L 189.040977 89.943912 
L 189.887843 87.887088 
L 190.734709 89.411688 
L 191.581575 85.974408 
L 192.428441 86.478912 
L 193.275307 83.928672 
L 194.122173 88.65216 
L 194.969039 88.779672 
L 195.815905 83.640384 
L 196.662771 91.70136 
L 197.509637 85.070736 
L 198.356503 89.073504 
L 199.203369 82.753344 
L 200.050235 82.232208 
L 201.743967 92.882232 
L 203.437699 80.496936 
L 204.284565 80.131032 
L 205.978297 81.539208 
L 206.825163 81.932832 
L 207.672029 86.401296 
L 209.365761 82.1934 
L 210.212627 82.348632 
L 211.059493 84.915504 
L 211.906359 81.927288 
L 212.753225 81.422784 
L 213.600091 83.241216 
L 214.446957 86.318136 
L 215.293823 85.580784 
L 216.140689 84.516336 
L 216.987555 82.282104 
L 217.834421 90.48168 
L 218.681287 83.341008 
L 219.528153 85.758192 
L 221.221885 82.320912 
L 222.068751 82.13796 
L 222.915617 85.153896 
L 223.762483 81.738792 
L 224.609349 86.501088 
L 225.456215 84.094992 
L 226.303081 87.360408 
L 227.149947 80.690976 
L 227.996813 80.369424 
L 228.843679 78.273792 
L 229.690545 78.695136 
L 230.537411 79.271712 
L 231.384277 85.785912 
L 232.231143 80.14212 
L 233.078009 79.221816 
L 233.924875 84.90996 
L 234.771741 85.070736 
L 235.618607 84.544056 
L 236.465473 81.539208 
L 237.312339 82.326456 
L 238.159205 79.571088 
L 239.006071 82.797696 
L 239.852937 80.75196 
L 240.699803 85.896792 
L 242.393535 78.92244 
L 243.240401 82.015992 
L 244.087267 83.596032 
L 244.934133 80.03124 
L 245.780999 82.708992 
L 246.627865 80.131032 
L 247.474731 79.1442 
L 248.321597 77.902344 
L 249.168463 80.347248 
L 250.862195 79.122024 
L 251.709061 80.496936 
L 252.555927 93.248136 
L 253.402793 77.392296 
L 254.249659 77.791464 
L 255.096525 85.281408 
L 255.94339 79.077672 
L 257.637122 79.803936 
L 258.483988 76.67712 
L 259.330854 79.9758 
L 260.17772 79.681968 
L 261.024586 78.789384 
L 261.871452 78.14628 
L 262.718318 78.467832 
L 263.565184 86.390208 
L 264.41205 83.341008 
L 266.105782 78.262704 
L 266.952648 77.469912 
L 267.799514 77.652864 
L 268.64638 79.443576 
L 269.493246 77.724936 
L 270.340112 79.011144 
L 271.186978 76.693752 
L 272.033844 86.12964 
L 272.88071 82.437336 
L 273.727576 76.388832 
L 274.574442 78.401304 
L 275.421308 76.20588 
L 276.268174 76.01184 
L 277.11504 78.440112 
L 277.961906 78.234984 
L 278.808772 78.97788 
L 279.655638 78.4512 
L 281.34937 81.938376 
L 282.196236 77.408928 
L 283.043102 78.5898 
L 283.889968 80.984808 
L 284.736834 79.426944 
L 285.5837 80.1144 
L 286.430566 79.493472 
L 287.277432 79.127568 
L 288.124298 78.484464 
L 288.971164 79.53228 
L 289.81803 77.874624 
L 290.664896 85.857984 
L 291.511762 92.388816 
L 292.358628 78.611976 
L 293.205494 77.386752 
L 294.05236 78.817104 
L 294.899226 77.070744 
L 295.746092 77.708304 
L 296.592958 77.846904 
L 297.439824 77.580792 
L 298.28669 79.576632 
L 299.133556 79.133112 
L 299.980422 75.424176 
L 300.827288 76.194792 
L 301.674154 84.427632 
L 302.52102 78.939072 
L 303.367886 80.552376 
L 304.214752 77.059656 
L 305.061618 77.580792 
L 305.908484 80.968176 
L 306.75535 78.595344 
L 307.602216 79.249536 
L 308.449082 79.715232 
L 309.295948 81.106776 
L 310.142814 75.973032 
L 310.98968 80.663256 
L 311.836546 75.135888 
L 312.683412 74.914128 
L 313.530278 75.645936 
L 314.377144 78.545448 
L 315.22401 74.969568 
L 316.070876 88.663248 
L 316.917742 76.222512 
L 317.764608 76.050648 
L 318.611474 75.546144 
L 319.45834 77.347944 
L 320.305206 75.085992 
L 321.152072 77.680584 
L 321.998938 73.755432 
L 322.845804 77.852448 
L 323.69267 76.582872 
L 324.539536 76.932144 
L 325.386402 86.301504 
L 326.233268 77.719392 
L 327.080134 77.347944 
L 327.927 78.495552 
L 328.773866 83.612664 
L 329.620732 76.532976 
L 330.467598 75.690288 
L 331.314463 76.111632 
L 332.161329 78.844824 
L 333.008195 75.252312 
L 333.855061 78.218352 
L 334.701927 76.693752 
L 336.395659 76.48308 
L 337.242525 74.858688 
L 338.089391 80.08668 
L 338.936257 80.995896 
L 341.476855 74.747808 
L 342.323721 78.429024 
L 343.170587 80.646624 
L 344.017453 75.523968 
L 344.864319 76.638312 
L 345.711185 79.47684 
L 346.558051 80.829576 
L 347.404917 77.031936 
L 348.251783 77.00976 
L 349.098649 75.440808 
L 349.945515 81.317448 
L 350.792381 76.355568 
L 351.639247 76.266864 
L 352.486113 75.839976 
L 353.332979 74.575944 
L 354.179845 77.309136 
L 355.026711 78.611976 
L 355.873577 77.797008 
L 356.720443 76.810176 
L 357.567309 76.632768 
L 358.414175 76.643856 
L 359.261041 75.723552 
L 360.107907 75.668112 
L 360.954773 73.98828 
L 361.801639 77.3424 
L 362.648505 73.927296 
L 363.495371 75.767904 
L 364.342237 76.222512 
L 365.189103 77.42556 
L 366.035969 74.980656 
L 366.882835 73.334088 
L 367.729701 76.555152 
L 368.576567 73.528128 
L 369.423433 79.316064 
L 370.270299 75.740184 
L 371.117165 74.869776 
L 371.964031 75.302208 
L 372.810897 72.18648 
L 373.657763 74.143512 
L 374.504629 73.361808 
L 375.351495 77.930064 
L 376.198361 73.772064 
L 377.045227 74.409624 
L 377.892093 74.880864 
L 378.738959 74.864232 
L 380.432691 77.225976 
L 381.279557 74.204496 
L 382.126423 72.153216 
L 382.973289 78.20172 
L 383.820155 75.202416 
L 384.667021 76.860072 
L 385.513887 73.966104 
L 386.360753 75.219048 
L 387.207619 74.969568 
L 388.054485 76.782456 
L 388.901351 75.091536 
L 390.595083 77.913432 
L 391.441949 73.871856 
L 392.288815 75.584952 
L 393.135681 73.84968 
L 393.982547 73.927296 
L 394.829413 72.929376 
L 395.676279 75.296664 
L 396.523145 72.890568 
L 397.370011 73.68336 
L 398.216877 74.32092 
L 399.063743 75.185784 
L 399.910609 75.673656 
L 400.757475 72.341712 
L 401.604341 75.795624 
L 402.451207 72.829584 
L 403.298073 72.330624 
L 404.144939 72.552384 
L 404.991805 73.605744 
L 405.838671 72.092232 
L 406.685537 72.74088 
L 407.532402 77.043024 
L 408.379268 73.644552 
L 409.226134 73.578024 
L 410.073 73.666728 
L 410.919866 71.571096 
L 411.766732 71.803944 
L 412.613598 72.65772 
L 413.460464 72.93492 
L 414.30733 72.363888 
L 415.154196 72.596736 
L 416.001062 75.424176 
L 416.847928 76.311216 
L 417.694794 74.304288 
L 418.54166 71.232912 
L 419.388526 71.876016 
L 420.235392 74.775528 
L 421.082258 73.500408 
L 421.929124 74.171232 
L 422.77599 71.892648 
L 423.622856 72.63 
L 424.469722 75.51288 
L 425.316588 74.753352 
L 426.163454 72.430416 
L 427.01032 73.54476 
L 427.857186 74.880864 
L 428.704052 74.12688 
L 429.550918 74.76444 
L 430.397784 74.8476 
L 431.24465 73.300824 
L 432.091516 74.049264 
L 432.938382 72.591192 
L 433.785248 76.211424 
L 434.632114 74.088072 
L 435.47898 72.735336 
L 436.325846 72.652176 
L 437.172712 74.980656 
L 438.019578 72.885024 
L 438.866444 72.696528 
L 439.71331 72.790776 
L 440.560176 75.751272 
L 441.407042 72.890568 
L 442.253908 74.26548 
L 443.100774 78.129648 
L 443.94764 73.195488 
L 444.794506 70.905816 
L 445.641372 74.12688 
L 446.488238 71.68752 
L 447.335104 73.062432 
L 448.18197 80.253 
L 449.028836 74.969568 
L 449.875702 75.385368 
L 450.722568 75.257856 
L 451.569434 73.84968 
L 452.4163 71.643168 
L 453.263166 73.411704 
L 454.110032 76.3722 
L 454.956898 72.7686 
L 455.803764 71.221824 
L 456.65063 73.140048 
L 457.497496 74.248848 
L 458.344362 72.147672 
L 459.191228 71.171928 
L 460.038094 72.524664 
L 460.88496 72.862848 
L 461.731826 73.334088 
L 462.578692 75.906504 
L 463.425558 75.285576 
L 464.272424 73.566936 
L 465.11929 79.50456 
L 465.966156 73.140048 
L 466.813022 75.518424 
L 467.659888 74.520504 
L 468.506754 75.396456 
L 469.35362 74.509416 
L 470.200486 73.306368 
L 471.047352 73.4616 
L 471.894218 78.329232 
L 472.741084 78.661872 
L 473.58795 77.375664 
L 474.434816 72.846216 
L 475.281682 72.668808 
L 476.128548 72.951552 
L 476.975414 71.43804 
L 477.82228 73.151136 
L 478.669146 71.654256 
L 480.362878 74.59812 
L 481.209744 72.702072 
L 482.05661 71.609904 
L 482.903475 72.724248 
L 483.750341 70.894728 
L 484.597207 71.77068 
L 485.444073 71.32716 
L 486.290939 72.96264 
L 487.137805 74.343096 
L 487.984671 73.62792 
L 488.831537 73.844136 
L 489.678403 74.287656 
L 490.525269 74.165688 
L 491.372135 73.772064 
L 492.219001 72.65772 
L 493.065867 71.249544 
L 493.912733 71.177472 
L 494.759599 71.304984 
L 495.606465 71.232912 
L 496.453331 73.01808 
L 497.300197 74.509416 
L 498.147063 73.82196 
L 498.993929 72.790776 
L 499.840795 71.166384 
L 500.687661 73.550304 
L 501.534527 74.09916 
L 502.381393 77.641776 
L 503.228259 73.550304 
L 504.075125 73.067976 
L 504.921991 76.405464 
L 505.768857 74.34864 
L 506.615723 73.079064 
L 507.462589 75.324384 
L 508.309455 73.467144 
L 509.156321 71.066592 
L 510.003187 71.149752 
L 510.850053 72.291816 
L 511.696919 72.951552 
L 512.543785 74.420712 
L 513.390651 71.6598 
L 514.237517 72.995904 
L 515.084383 71.681976 
L 515.931249 75.435264 
L 516.778115 73.117872 
L 517.624981 75.202416 
L 518.471847 84.283488 
L 519.318713 78.218352 
L 520.165579 74.842056 
L 521.012445 72.569016 
L 521.859311 73.134504 
L 522.706177 74.969568 
L 523.553043 73.500408 
L 524.399909 71.554464 
L 525.246775 75.352104 
L 526.093641 71.016696 
L 526.940507 71.654256 
L 527.787373 71.60436 
L 528.634239 72.452592 
L 529.481105 74.808792 
L 530.327971 74.232216 
L 531.174837 71.43804 
L 532.021703 73.827504 
L 532.868569 72.43596 
L 533.715435 70.129656 
L 534.562301 73.76652 
L 535.409167 73.37844 
L 536.256033 75.402 
L 537.102899 70.362504 
L 537.949765 78.70068 
L 538.796631 71.033328 
L 539.643497 72.746424 
L 540.490363 71.399232 
L 541.337229 71.654256 
L 542.184095 71.776224 
L 543.030961 72.108864 
L 543.877827 72.280728 
L 544.724693 70.517736 
L 545.571559 71.620992 
L 546.418425 73.755432 
L 547.265291 71.693064 
L 548.112157 70.279344 
L 548.959023 69.88572 
L 549.805889 75.729096 
L 550.652755 74.40408 
L 551.499621 70.007688 
L 552.346487 71.831664 
L 553.193353 70.8282 
L 554.040219 70.401312 
L 554.887085 69.785928 
L 555.733951 71.199648 
L 557.427683 73.023624 
L 558.274548 74.176776 
L 559.121414 73.262016 
L 559.96828 71.803944 
L 560.815146 70.794936 
L 561.662012 72.29736 
L 562.508878 74.453976 
L 563.355744 72.147672 
L 564.20261 73.71108 
L 565.049476 76.350024 
L 565.896342 73.84968 
L 566.743208 69.824736 
L 567.590074 70.534368 
L 568.43694 71.925912 
L 569.283806 75.751272 
L 570.130672 74.9862 
L 570.977538 72.264096 
L 571.824404 74.054808 
L 572.67127 77.447736 
L 573.518136 73.722168 
L 574.365002 74.919672 
L 575.211868 71.532288 
L 576.058734 72.036792 
L 576.9056 73.234296 
L 577.752466 72.275184 
L 578.599332 73.383984 
L 579.446198 73.982736 
L 580.293064 74.365272 
L 581.13993 70.794936 
L 581.986796 71.32716 
L 582.833662 72.735336 
L 583.680528 71.693064 
L 585.37426 73.356264 
L 586.221126 70.628616 
L 587.067992 70.49556 
L 587.914858 70.739496 
L 588.761724 75.130344 
L 589.60859 71.46576 
L 590.455456 70.623072 
L 591.302322 71.116488 
L 592.149188 71.937 
L 592.996054 75.174696 
L 593.84292 71.720784 
L 594.689786 72.979272 
L 595.536652 73.450512 
L 596.383518 74.415168 
L 597.230384 72.530208 
L 598.07725 70.927992 
L 598.924116 73.300824 
L 599.770982 70.972344 
L 600.617848 71.232912 
L 601.464714 70.05204 
L 602.31158 70.140744 
L 603.158446 70.822656 
L 604.005312 71.122032 
L 604.852178 70.66188 
L 605.699044 72.923832 
L 606.54591 74.18232 
L 607.392776 70.894728 
L 608.239642 70.988976 
L 609.086508 71.837208 
L 610.78024 75.06936 
L 611.627106 70.811568 
L 612.473972 70.972344 
L 613.320838 70.867008 
L 614.167704 72.29736 
L 615.01457 71.232912 
L 615.861436 69.985512 
L 616.708302 70.21836 
L 617.555168 73.68336 
L 618.402034 72.923832 
L 619.2489 71.277264 
L 620.095766 71.515656 
L 620.942632 70.223904 
L 621.789498 71.870472 
L 622.636364 70.539912 
L 622.636364 70.539912 
" clip-path="url(#pd5aadbbe1a)" style="fill: none; stroke: #0000ff; stroke-width: 2; stroke-linecap: square"/>
   </g>
   <g id="line2d_28">
    <path d="M 115.363636 355.54032 
L 116.210502 197.968752 
L 117.057368 151.29936 
L 117.904234 145.544688 
L 118.7511 131.740128 
L 119.597966 150.96672 
L 120.444832 122.526 
L 121.291698 136.729728 
L 122.138564 112.38048 
L 122.98543 114.808752 
L 123.832296 131.241168 
L 125.526028 100.139328 
L 126.372894 103.964688 
L 127.21976 104.862816 
L 128.066626 92.954304 
L 128.913492 101.536416 
L 129.760358 103.033296 
L 130.607224 102.700656 
L 131.45409 100.106064 
L 133.147822 112.87944 
L 133.994688 93.120624 
L 134.841554 91.889856 
L 135.68842 95.848272 
L 136.535286 95.74848 
L 137.382152 91.390896 
L 138.229018 92.621664 
L 139.075884 95.482368 
L 139.92275 94.58424 
L 140.769616 89.029152 
L 141.616482 98.90856 
L 142.463348 90.060336 
L 143.310214 92.787984 
L 144.15708 99.673632 
L 145.003946 92.987568 
L 145.850812 91.191312 
L 146.697678 96.313968 
L 147.544544 93.785904 
L 148.39141 86.667408 
L 149.238276 87.565536 
L 150.085142 89.59464 
L 150.932008 92.488608 
L 151.778874 93.553056 
L 152.62574 88.4304 
L 153.472606 88.829568 
L 154.319472 87.09984 
L 155.166338 94.185072 
L 156.013204 92.821248 
L 156.86007 85.336848 
L 157.706936 85.237056 
L 158.553802 90.226656 
L 159.400668 91.889856 
L 160.247534 92.621664 
L 161.0944 86.966784 
L 161.941266 88.09776 
L 162.788132 90.392976 
L 163.634998 86.301504 
L 164.481864 92.821248 
L 165.32873 86.800464 
L 166.175596 84.571776 
L 167.022462 90.59256 
L 167.869328 84.60504 
L 168.716194 91.324368 
L 169.56306 86.667408 
L 170.409926 91.457424 
L 171.256792 85.070736 
L 172.103658 82.808784 
L 172.950524 92.821248 
L 173.79739 87.09984 
L 174.644256 85.902336 
L 175.491122 92.222496 
L 176.337988 85.636224 
L 177.184854 84.837888 
L 178.03172 86.234976 
L 178.878586 86.534352 
L 179.725452 89.960544 
L 180.572317 85.968864 
L 181.419183 87.066576 
L 182.266049 95.615424 
L 183.112915 86.401296 
L 183.959781 83.341008 
L 184.806647 95.049936 
L 185.653513 93.486528 
L 186.500379 81.44496 
L 187.347245 87.299424 
L 188.194111 86.068656 
L 189.040977 89.162208 
L 189.887843 87.997968 
L 190.734709 88.696512 
L 191.581575 84.638304 
L 192.428441 85.76928 
L 193.275307 83.241216 
L 194.122173 87.399216 
L 194.969039 87.565536 
L 195.815905 83.407536 
L 196.662771 92.821248 
L 197.509637 85.802544 
L 198.356503 88.26408 
L 199.203369 81.677808 
L 200.050235 82.210032 
L 201.743967 93.719376 
L 203.437699 80.879472 
L 204.284565 80.28072 
L 205.131431 81.045792 
L 205.978297 80.746416 
L 206.825163 81.544752 
L 207.672029 86.368032 
L 208.518895 84.904416 
L 209.365761 82.6092 
L 210.212627 82.6092 
L 211.059493 85.203792 
L 211.906359 82.742256 
L 212.753225 82.6092 
L 213.600091 84.10608 
L 214.446957 87.76512 
L 215.293823 87.033312 
L 216.140689 85.27032 
L 216.987555 83.241216 
L 217.834421 89.494848 
L 218.681287 83.27448 
L 219.528153 85.137264 
L 220.375019 84.93768 
L 221.221885 82.44288 
L 222.068751 82.94184 
L 222.915617 83.573856 
L 223.762483 80.846208 
L 224.609349 85.203792 
L 225.456215 83.60712 
L 226.303081 85.203792 
L 227.149947 79.848288 
L 227.996813 79.11648 
L 228.843679 77.985504 
L 229.690545 78.185088 
L 230.537411 77.918976 
L 231.384277 83.640384 
L 232.231143 79.515648 
L 233.078009 79.249536 
L 233.924875 83.141424 
L 234.771741 83.973024 
L 235.618607 83.60712 
L 236.465473 81.311904 
L 237.312339 82.509408 
L 238.159205 79.2828 
L 239.006071 81.744336 
L 239.852937 81.012528 
L 240.699803 83.474064 
L 242.393535 77.852448 
L 243.240401 81.411696 
L 244.087267 81.910656 
L 244.934133 79.415856 
L 245.780999 80.77968 
L 247.474731 79.349328 
L 248.321597 77.652864 
L 249.168463 80.347248 
L 250.015329 79.216272 
L 250.862195 79.083216 
L 251.709061 80.846208 
L 252.555927 91.191312 
L 253.402793 78.151824 
L 254.249659 76.987584 
L 255.096525 84.571776 
L 255.94339 78.085296 
L 256.790256 77.78592 
L 257.637122 79.582176 
L 258.483988 76.022928 
L 259.330854 79.049952 
L 260.17772 78.684048 
L 261.024586 77.686128 
L 261.871452 77.054112 
L 262.718318 78.052032 
L 263.565184 86.10192 
L 264.41205 83.673648 
L 265.258916 79.61544 
L 266.105782 77.28696 
L 266.952648 77.087376 
L 267.799514 77.719392 
L 268.64638 79.2828 
L 269.493246 77.12064 
L 270.340112 78.052032 
L 271.186978 75.9564 
L 272.033844 85.76928 
L 272.88071 80.014608 
L 273.727576 76.155984 
L 274.574442 78.151824 
L 275.421308 76.521888 
L 276.268174 76.45536 
L 277.11504 78.750576 
L 277.961906 78.318144 
L 278.808772 79.44912 
L 279.655638 78.983424 
L 280.502504 79.848288 
L 281.34937 81.544752 
L 282.196236 77.686128 
L 283.043102 78.61752 
L 283.889968 80.180928 
L 284.736834 79.94808 
L 285.5837 79.548912 
L 286.430566 79.316064 
L 287.277432 79.415856 
L 288.124298 78.95016 
L 288.971164 80.047872 
L 289.81803 78.550992 
L 290.664896 85.60296 
L 291.511762 90.492768 
L 292.358628 78.883632 
L 293.205494 77.353488 
L 294.05236 79.2828 
L 294.899226 77.586336 
L 295.746092 77.187168 
L 296.592958 77.054112 
L 297.439824 75.989664 
L 298.28669 78.384672 
L 299.133556 78.085296 
L 299.980422 74.79216 
L 300.827288 75.091536 
L 301.674154 82.77552 
L 302.52102 77.353488 
L 303.367886 79.981344 
L 304.214752 77.852448 
L 305.061618 77.12064 
L 305.908484 80.979264 
L 306.75535 78.018768 
L 307.602216 78.318144 
L 308.449082 79.815024 
L 309.295948 80.546832 
L 310.142814 75.357648 
L 310.98968 79.715232 
L 311.836546 75.224592 
L 312.683412 75.058272 
L 313.530278 75.091536 
L 314.377144 77.78592 
L 315.22401 73.827504 
L 316.070876 88.563456 
L 316.917742 74.858688 
L 317.764608 74.226672 
L 318.611474 73.96056 
L 319.45834 77.985504 
L 320.305206 75.62376 
L 321.152072 77.6196 
L 321.998938 73.095696 
L 322.845804 77.12064 
L 323.69267 76.12272 
L 324.539536 76.821264 
L 325.386402 86.002128 
L 326.233268 77.220432 
L 327.080134 77.220432 
L 327.927 78.484464 
L 328.773866 84.538512 
L 329.620732 75.224592 
L 330.467598 75.29112 
L 332.161329 78.916896 
L 333.008195 75.424176 
L 333.855061 77.985504 
L 334.701927 76.788 
L 336.395659 76.255776 
L 337.242525 75.025008 
L 338.089391 80.047872 
L 338.936257 80.214192 
L 339.783123 79.648704 
L 340.629989 76.654944 
L 341.476855 75.224592 
L 342.323721 78.78384 
L 343.170587 81.178848 
L 344.017453 75.657024 
L 344.864319 76.388832 
L 345.711185 79.548912 
L 346.558051 80.214192 
L 347.404917 77.353488 
L 348.251783 77.752656 
L 349.098649 75.523968 
L 349.945515 81.311904 
L 350.792381 75.257856 
L 351.639247 75.091536 
L 352.486113 75.657024 
L 353.332979 73.727712 
L 354.179845 76.721472 
L 355.873577 78.850368 
L 356.720443 76.12272 
L 357.567309 75.590496 
L 358.414175 76.721472 
L 359.261041 75.523968 
L 360.107907 75.257856 
L 360.954773 74.426256 
L 361.801639 77.253696 
L 362.648505 72.862848 
L 364.342237 75.690288 
L 365.189103 76.422096 
L 366.035969 74.891952 
L 366.882835 72.995904 
L 367.729701 76.887792 
L 368.576567 73.228752 
L 369.423433 78.916896 
L 370.270299 75.657024 
L 371.117165 75.45744 
L 371.964031 75.490704 
L 372.810897 72.363888 
L 373.657763 73.395072 
L 374.504629 72.829584 
L 375.351495 76.754736 
L 376.198361 74.193408 
L 377.045227 74.79216 
L 377.892093 74.95848 
L 378.738959 74.659104 
L 379.585825 76.189248 
L 380.432691 76.921056 
L 381.279557 75.390912 
L 382.126423 73.228752 
L 382.973289 78.218352 
L 383.820155 75.45744 
L 384.667021 76.089456 
L 385.513887 72.862848 
L 386.360753 74.891952 
L 387.207619 75.025008 
L 388.054485 76.588416 
L 388.901351 74.45952 
L 390.595083 78.4512 
L 391.441949 74.326464 
L 392.288815 74.991744 
L 393.135681 74.093616 
L 393.982547 72.862848 
L 394.829413 73.029168 
L 395.676279 74.45952 
L 396.523145 71.997984 
L 397.370011 73.228752 
L 398.216877 73.661184 
L 399.063743 74.891952 
L 399.910609 75.224592 
L 400.757475 71.7984 
L 401.604341 74.492784 
L 402.451207 72.197568 
L 403.298073 72.13104 
L 404.144939 71.831664 
L 404.991805 72.729792 
L 405.838671 71.864928 
L 406.685537 72.763056 
L 407.532402 76.754736 
L 408.379268 73.29528 
L 409.226134 73.162224 
L 410.073 73.4616 
L 410.919866 71.232912 
L 411.766732 71.931456 
L 412.613598 73.12896 
L 413.460464 73.095696 
L 414.30733 73.661184 
L 415.154196 73.12896 
L 416.001062 75.756816 
L 416.847928 76.95432 
L 417.694794 74.592576 
L 418.54166 71.066592 
L 419.388526 71.931456 
L 420.235392 73.894032 
L 421.082258 73.062432 
L 421.929124 73.927296 
L 422.77599 72.264096 
L 423.622856 72.29736 
L 424.469722 75.1248 
L 425.316588 73.594656 
L 426.163454 71.365968 
L 427.01032 73.694448 
L 427.857186 74.027088 
L 428.704052 73.561392 
L 429.550918 74.492784 
L 430.397784 75.657024 
L 431.24465 73.661184 
L 432.091516 73.62792 
L 432.938382 72.929376 
L 433.785248 77.28696 
L 434.632114 73.162224 
L 435.47898 72.79632 
L 436.325846 72.63 
L 437.172712 75.79008 
L 438.019578 72.995904 
L 438.866444 73.361808 
L 439.71331 73.062432 
L 440.560176 76.555152 
L 441.407042 73.4616 
L 442.253908 74.492784 
L 443.100774 77.95224 
L 443.94764 72.46368 
L 444.794506 71.000064 
L 445.641372 74.392992 
L 446.488238 71.532288 
L 447.335104 72.63 
L 448.18197 78.916896 
L 449.028836 75.257856 
L 449.875702 75.823344 
L 450.722568 74.426256 
L 451.569434 74.825424 
L 452.4163 72.230832 
L 453.263166 74.226672 
L 454.110032 76.987584 
L 454.956898 73.661184 
L 455.803764 70.933536 
L 456.65063 73.29528 
L 457.497496 75.224592 
L 458.344362 72.929376 
L 459.191228 71.565552 
L 460.038094 72.563472 
L 461.731826 73.4616 
L 462.578692 76.588416 
L 463.425558 75.224592 
L 464.272424 73.195488 
L 465.11929 77.885712 
L 465.966156 72.862848 
L 466.813022 76.255776 
L 467.659888 74.692368 
L 468.506754 76.056192 
L 470.200486 73.029168 
L 471.047352 72.663264 
L 471.894218 78.085296 
L 472.741084 79.748496 
L 473.58795 77.420016 
L 474.434816 72.729792 
L 476.128548 71.931456 
L 476.975414 72.097776 
L 477.82228 73.62792 
L 478.669146 71.7984 
L 479.516012 73.62792 
L 480.362878 75.723552 
L 481.209744 72.763056 
L 482.05661 71.698608 
L 482.903475 73.528128 
L 483.750341 72.13104 
L 484.597207 73.12896 
L 485.444073 71.7984 
L 486.290939 74.45952 
L 487.137805 74.093616 
L 487.984671 74.359728 
L 488.831537 74.160144 
L 489.678403 74.160144 
L 491.372135 73.328544 
L 492.219001 71.565552 
L 493.065867 70.867008 
L 494.759599 71.532288 
L 495.606465 70.700688 
L 496.453331 73.860768 
L 497.300197 75.889872 
L 498.147063 73.694448 
L 498.993929 74.659104 
L 499.840795 71.63208 
L 500.687661 74.592576 
L 501.534527 73.827504 
L 502.381393 77.985504 
L 503.228259 73.095696 
L 504.075125 73.262016 
L 504.921991 75.989664 
L 505.768857 74.326464 
L 506.615723 72.96264 
L 507.462589 75.324384 
L 508.309455 74.093616 
L 509.156321 71.731872 
L 510.003187 71.565552 
L 510.850053 72.929376 
L 511.696919 73.29528 
L 512.543785 75.657024 
L 513.390651 72.330624 
L 514.237517 74.326464 
L 515.084383 72.13104 
L 515.931249 74.79216 
L 516.778115 73.727712 
L 517.624981 76.022928 
L 518.471847 84.471984 
L 520.165579 75.058272 
L 521.012445 72.896112 
L 521.859311 73.528128 
L 522.706177 75.424176 
L 523.553043 74.725632 
L 524.399909 71.665344 
L 525.246775 74.858688 
L 526.093641 71.499024 
L 526.940507 71.46576 
L 527.787373 71.96472 
L 528.634239 71.765136 
L 529.481105 74.093616 
L 530.327971 75.224592 
L 531.174837 71.96472 
L 532.021703 73.993824 
L 532.868569 72.363888 
L 533.715435 71.066592 
L 534.562301 73.528128 
L 535.409167 73.428336 
L 536.256033 76.222512 
L 537.102899 70.667424 
L 537.949765 78.78384 
L 538.796631 71.731872 
L 539.643497 73.528128 
L 541.337229 71.698608 
L 542.184095 72.397152 
L 543.030961 73.262016 
L 543.877827 72.862848 
L 544.724693 70.767216 
L 545.571559 72.197568 
L 546.418425 74.160144 
L 547.265291 71.698608 
L 548.112157 70.667424 
L 548.959023 71.266176 
L 549.805889 75.889872 
L 550.652755 75.523968 
L 551.499621 70.63416 
L 552.346487 71.731872 
L 553.193353 71.898192 
L 554.040219 71.898192 
L 554.887085 69.835824 
L 555.733951 72.13104 
L 556.580817 73.561392 
L 557.427683 73.12896 
L 558.274548 75.62376 
L 559.121414 74.027088 
L 559.96828 72.829584 
L 560.815146 72.264096 
L 561.662012 73.262016 
L 562.508878 75.025008 
L 563.355744 73.162224 
L 565.049476 77.553072 
L 565.896342 74.858688 
L 566.743208 71.266176 
L 567.590074 71.7984 
L 568.43694 72.995904 
L 569.283806 76.388832 
L 570.130672 75.058272 
L 570.977538 72.696528 
L 572.67127 77.420016 
L 573.518136 74.326464 
L 574.365002 76.155984 
L 575.211868 71.532288 
L 576.058734 72.496944 
L 576.9056 74.326464 
L 577.752466 72.46368 
L 578.599332 73.894032 
L 580.293064 75.9564 
L 581.13993 71.765136 
L 581.986796 72.164304 
L 582.833662 73.727712 
L 583.680528 72.63 
L 584.527394 73.894032 
L 585.37426 74.725632 
L 586.221126 71.864928 
L 587.067992 71.598816 
L 587.914858 71.46576 
L 588.761724 75.62376 
L 589.60859 71.29944 
L 590.455456 70.933536 
L 591.302322 70.368048 
L 592.149188 71.864928 
L 592.996054 76.388832 
L 593.84292 72.530208 
L 594.689786 72.995904 
L 595.536652 74.093616 
L 596.383518 73.727712 
L 597.230384 72.397152 
L 598.07725 71.665344 
L 598.924116 74.392992 
L 599.770982 72.563472 
L 600.617848 71.898192 
L 601.464714 70.068672 
L 602.31158 70.534368 
L 603.158446 70.600896 
L 604.005312 71.665344 
L 604.852178 71.731872 
L 605.699044 73.095696 
L 606.54591 74.193408 
L 607.392776 71.7984 
L 608.239642 71.199648 
L 610.78024 73.993824 
L 611.627106 71.13312 
L 612.473972 71.066592 
L 613.320838 71.7984 
L 614.167704 72.929376 
L 615.861436 70.833744 
L 616.708302 71.166384 
L 617.555168 74.326464 
L 618.402034 72.96264 
L 619.2489 71.166384 
L 620.095766 71.731872 
L 620.942632 71.166384 
L 621.789498 71.898192 
L 622.636364 70.434576 
L 622.636364 70.434576 
" clip-path="url(#pd5aadbbe1a)" style="fill: none; stroke-dasharray: 7.4,3.2; stroke-dashoffset: 0; stroke: #008000; stroke-width: 2"/>
   </g>
   <g id="patch_3">
    <path d="M 90 384.48 
L 90 51.84 
" style="fill: none; stroke: #000000; stroke-width: 0.8; stroke-linejoin: miter; stroke-linecap: square"/>
   </g>
   <g id="patch_4">
    <path d="M 648 384.48 
L 648 51.84 
" style="fill: none; stroke: #000000; stroke-width: 0.8; stroke-linejoin: miter; stroke-linecap: square"/>
   </g>
   <g id="patch_5">
    <path d="M 90 384.48 
L 648 384.48 
" style="fill: none; stroke: #000000; stroke-width: 0.8; stroke-linejoin: miter; stroke-linecap: square"/>
   </g>
   <g id="patch_6">
    <path d="M 90 51.84 
L 648 51.84 
" style="fill: none; stroke: #000000; stroke-width: 0.8; stroke-linejoin: miter; stroke-linecap: square"/>
   </g>
   <g id="text_16">
    <!-- Training and Testing Accuracy (Learning Rate: 0.1) -->
    <g transform="translate(167.75125 45.84) scale(0.16 -0.16)">
     <defs>
      <path id="DejaVuSans-54" d="M -19 4666 
L 3928 4666 
L 3928 4134 
L 2272 4134 
L 2272 0 
L 1638 0 
L 1638 4134 
L -19 4134 
L -19 4666 
z
" transform="scale(0.015625)"/>
      <path id="DejaVuSans-67" d="M 2906 1791 
Q 2906 2416 2648 2759 
Q 2391 3103 1925 3103 
Q 1463 3103 1205 2759 
Q 947 2416 947 1791 
Q 947 1169 1205 825 
Q 1463 481 1925 481 
Q 2391 481 2648 825 
Q 2906 1169 2906 1791 
z
M 3481 434 
Q 3481 -459 3084 -895 
Q 2688 -1331 1869 -1331 
Q 1566 -1331 1297 -1286 
Q 1028 -1241 775 -1147 
L 775 -588 
Q 1028 -725 1275 -790 
Q 1522 -856 1778 -856 
Q 2344 -856 2625 -561 
Q 2906 -266 2906 331 
L 2906 616 
Q 2728 306 2450 153 
Q 2172 0 1784 0 
Q 1141 0 747 490 
Q 353 981 353 1791 
Q 353 2603 747 3093 
Q 1141 3584 1784 3584 
Q 2172 3584 2450 3431 
Q 2728 3278 2906 2969 
L 2906 3500 
L 3481 3500 
L 3481 434 
z
" transform="scale(0.015625)"/>
      <path id="DejaVuSans-20" transform="scale(0.015625)"/>
      <path id="DejaVuSans-64" d="M 2906 2969 
L 2906 4863 
L 3481 4863 
L 3481 0 
L 2906 0 
L 2906 525 
Q 2725 213 2448 61 
Q 2172 -91 1784 -91 
Q 1150 -91 751 415 
Q 353 922 353 1747 
Q 353 2572 751 3078 
Q 1150 3584 1784 3584 
Q 2172 3584 2448 3432 
Q 2725 3281 2906 2969 
z
M 947 1747 
Q 947 1113 1208 752 
Q 1469 391 1925 391 
Q 2381 391 2643 752 
Q 2906 1113 2906 1747 
Q 2906 2381 2643 2742 
Q 2381 3103 1925 3103 
Q 1469 3103 1208 2742 
Q 947 2381 947 1747 
z
" transform="scale(0.015625)"/>
      <path id="DejaVuSans-28" d="M 1984 4856 
Q 1566 4138 1362 3434 
Q 1159 2731 1159 2009 
Q 1159 1288 1364 580 
Q 1569 -128 1984 -844 
L 1484 -844 
Q 1016 -109 783 600 
Q 550 1309 550 2009 
Q 550 2706 781 3412 
Q 1013 4119 1484 4856 
L 1984 4856 
z
" transform="scale(0.015625)"/>
      <path id="DejaVuSans-4c" d="M 628 4666 
L 1259 4666 
L 1259 531 
L 3531 531 
L 3531 0 
L 628 0 
L 628 4666 
z
" transform="scale(0.015625)"/>
      <path id="DejaVuSans-52" d="M 2841 2188 
Q 3044 2119 3236 1894 
Q 3428 1669 3622 1275 
L 4263 0 
L 3584 0 
L 2988 1197 
Q 2756 1666 2539 1819 
Q 2322 1972 1947 1972 
L 1259 1972 
L 1259 0 
L 628 0 
L 628 4666 
L 2053 4666 
Q 2853 4666 3247 4331 
Q 3641 3997 3641 3322 
Q 3641 2881 3436 2590 
Q 3231 2300 2841 2188 
z
M 1259 4147 
L 1259 2491 
L 2053 2491 
Q 2509 2491 2742 2702 
Q 2975 2913 2975 3322 
Q 2975 3731 2742 3939 
Q 2509 4147 2053 4147 
L 1259 4147 
z
" transform="scale(0.015625)"/>
      <path id="DejaVuSans-3a" d="M 750 794 
L 1409 794 
L 1409 0 
L 750 0 
L 750 794 
z
M 750 3309 
L 1409 3309 
L 1409 2516 
L 750 2516 
L 750 3309 
z
" transform="scale(0.015625)"/>
      <path id="DejaVuSans-29" d="M 513 4856 
L 1013 4856 
Q 1481 4119 1714 3412 
Q 1947 2706 1947 2009 
Q 1947 1309 1714 600 
Q 1481 -109 1013 -844 
L 513 -844 
Q 928 -128 1133 580 
Q 1338 1288 1338 2009 
Q 1338 2731 1133 3434 
Q 928 4138 513 4856 
z
" transform="scale(0.015625)"/>
     </defs>
     <use xlink:href="#DejaVuSans-54"/>
     <use xlink:href="#DejaVuSans-72" x="46.333984"/>
     <use xlink:href="#DejaVuSans-61" x="87.447266"/>
     <use xlink:href="#DejaVuSans-69" x="148.726562"/>
     <use xlink:href="#DejaVuSans-6e" x="176.509766"/>
     <use xlink:href="#DejaVuSans-69" x="239.888672"/>
     <use xlink:href="#DejaVuSans-6e" x="267.671875"/>
     <use xlink:href="#DejaVuSans-67" x="331.050781"/>
     <use xlink:href="#DejaVuSans-20" x="394.527344"/>
     <use xlink:href="#DejaVuSans-61" x="426.314453"/>
     <use xlink:href="#DejaVuSans-6e" x="487.59375"/>
     <use xlink:href="#DejaVuSans-64" x="550.972656"/>
     <use xlink:href="#DejaVuSans-20" x="614.449219"/>
     <use xlink:href="#DejaVuSans-54" x="646.236328"/>
     <use xlink:href="#DejaVuSans-65" x="690.320312"/>
     <use xlink:href="#DejaVuSans-73" x="751.84375"/>
     <use xlink:href="#DejaVuSans-74" x="803.943359"/>
     <use xlink:href="#DejaVuSans-69" x="843.152344"/>
     <use xlink:href="#DejaVuSans-6e" x="870.935547"/>
     <use xlink:href="#DejaVuSans-67" x="934.314453"/>
     <use xlink:href="#DejaVuSans-20" x="997.791016"/>
     <use xlink:href="#DejaVuSans-41" x="1029.578125"/>
     <use xlink:href="#DejaVuSans-63" x="1096.236328"/>
     <use xlink:href="#DejaVuSans-63" x="1151.216797"/>
     <use xlink:href="#DejaVuSans-75" x="1206.197266"/>
     <use xlink:href="#DejaVuSans-72" x="1269.576172"/>
     <use xlink:href="#DejaVuSans-61" x="1310.689453"/>
     <use xlink:href="#DejaVuSans-63" x="1371.96875"/>
     <use xlink:href="#DejaVuSans-79" x="1426.949219"/>
     <use xlink:href="#DejaVuSans-20" x="1486.128906"/>
     <use xlink:href="#DejaVuSans-28" x="1517.916016"/>
     <use xlink:href="#DejaVuSans-4c" x="1556.929688"/>
     <use xlink:href="#DejaVuSans-65" x="1610.892578"/>
     <use xlink:href="#DejaVuSans-61" x="1672.416016"/>
     <use xlink:href="#DejaVuSans-72" x="1733.695312"/>
     <use xlink:href="#DejaVuSans-6e" x="1773.058594"/>
     <use xlink:href="#DejaVuSans-69" x="1836.4375"/>
     <use xlink:href="#DejaVuSans-6e" x="1864.220703"/>
     <use xlink:href="#DejaVuSans-67" x="1927.599609"/>
     <use xlink:href="#DejaVuSans-20" x="1991.076172"/>
     <use xlink:href="#DejaVuSans-52" x="2022.863281"/>
     <use xlink:href="#DejaVuSans-61" x="2090.095703"/>
     <use xlink:href="#DejaVuSans-74" x="2151.375"/>
     <use xlink:href="#DejaVuSans-65" x="2190.583984"/>
     <use xlink:href="#DejaVuSans-3a" x="2252.107422"/>
     <use xlink:href="#DejaVuSans-20" x="2285.798828"/>
     <use xlink:href="#DejaVuSans-30" x="2317.585938"/>
     <use xlink:href="#DejaVuSans-2e" x="2381.208984"/>
     <use xlink:href="#DejaVuSans-31" x="2412.996094"/>
     <use xlink:href="#DejaVuSans-29" x="2476.619141"/>
    </g>
   </g>
   <g id="legend_1">
    <g id="patch_7">
     <path d="M 520.714062 379.48 
L 641 379.48 
Q 643 379.48 643 377.48 
L 643 349.12375 
Q 643 347.12375 641 347.12375 
L 520.714062 347.12375 
Q 518.714062 347.12375 518.714062 349.12375 
L 518.714062 377.48 
Q 518.714062 379.48 520.714062 379.48 
z
" style="fill: #ffffff; opacity: 0.8; stroke: #cccccc; stroke-linejoin: miter"/>
    </g>
    <g id="line2d_29">
     <path d="M 522.714062 355.222188 
L 532.714062 355.222188 
L 542.714062 355.222188 
" style="fill: none; stroke: #0000ff; stroke-width: 2; stroke-linecap: square"/>
    </g>
    <g id="text_17">
     <!-- Training Accuracy -->
     <g transform="translate(550.714062 358.722188) scale(0.1 -0.1)">
      <use xlink:href="#DejaVuSans-54"/>
      <use xlink:href="#DejaVuSans-72" x="46.333984"/>
      <use xlink:href="#DejaVuSans-61" x="87.447266"/>
      <use xlink:href="#DejaVuSans-69" x="148.726562"/>
      <use xlink:href="#DejaVuSans-6e" x="176.509766"/>
      <use xlink:href="#DejaVuSans-69" x="239.888672"/>
      <use xlink:href="#DejaVuSans-6e" x="267.671875"/>
      <use xlink:href="#DejaVuSans-67" x="331.050781"/>
      <use xlink:href="#DejaVuSans-20" x="394.527344"/>
      <use xlink:href="#DejaVuSans-41" x="426.314453"/>
      <use xlink:href="#DejaVuSans-63" x="492.972656"/>
      <use xlink:href="#DejaVuSans-63" x="547.953125"/>
      <use xlink:href="#DejaVuSans-75" x="602.933594"/>
      <use xlink:href="#DejaVuSans-72" x="666.3125"/>
      <use xlink:href="#DejaVuSans-61" x="707.425781"/>
      <use xlink:href="#DejaVuSans-63" x="768.705078"/>
      <use xlink:href="#DejaVuSans-79" x="823.685547"/>
     </g>
    </g>
    <g id="line2d_30">
     <path d="M 522.714062 369.900312 
L 532.714062 369.900312 
L 542.714062 369.900312 
" style="fill: none; stroke-dasharray: 7.4,3.2; stroke-dashoffset: 0; stroke: #008000; stroke-width: 2"/>
    </g>
    <g id="text_18">
     <!-- Testing Accuracy -->
     <g transform="translate(550.714062 373.400312) scale(0.1 -0.1)">
      <use xlink:href="#DejaVuSans-54"/>
      <use xlink:href="#DejaVuSans-65" x="44.083984"/>
      <use xlink:href="#DejaVuSans-73" x="105.607422"/>
      <use xlink:href="#DejaVuSans-74" x="157.707031"/>
      <use xlink:href="#DejaVuSans-69" x="196.916016"/>
      <use xlink:href="#DejaVuSans-6e" x="224.699219"/>
      <use xlink:href="#DejaVuSans-67" x="288.078125"/>
      <use xlink:href="#DejaVuSans-20" x="351.554688"/>
      <use xlink:href="#DejaVuSans-41" x="383.341797"/>
      <use xlink:href="#DejaVuSans-63" x="450"/>
      <use xlink:href="#DejaVuSans-63" x="504.980469"/>
      <use xlink:href="#DejaVuSans-75" x="559.960938"/>
      <use xlink:href="#DejaVuSans-72" x="623.339844"/>
      <use xlink:href="#DejaVuSans-61" x="664.453125"/>
      <use xlink:href="#DejaVuSans-63" x="725.732422"/>
      <use xlink:href="#DejaVuSans-79" x="780.712891"/>
     </g>
    </g>
   </g>
  </g>
 </g>
 <defs>
  <clipPath id="pd5aadbbe1a">
   <rect x="90" y="51.84" width="558" height="332.64"/>
  </clipPath>
 </defs>
</svg>
